ISO-10303-21;
HEADER;
FILE_DESCRIPTION (( 'STEP AP214' ),
    '1' );
FILE_NAME ('25.SHT.G.01.00.00.01  Желоб выгрузки.STEP',
    '2026-05-28T10:28:37',
    ( '' ),
    ( '' ),
    'SwSTEP 2.0',
    'SolidWorks 2025',
    '' );
FILE_SCHEMA (( 'AUTOMOTIVE_DESIGN' ));
ENDSEC;

DATA;
#1 = PLANE ( 'NONE',  #856 ) ;
#2 = ORIENTED_EDGE ( 'NONE', *, *, #291, .T. ) ;
#3 = LINE ( 'NONE', #440, #380 ) ;
#4 = VERTEX_POINT ( 'NONE', #480 ) ;
#5 = EDGE_CURVE ( 'NONE', #1115, #665, #706, .T. ) ;
#6 = FACE_OUTER_BOUND ( 'NONE', #55, .T. ) ;
#7 = EDGE_LOOP ( 'NONE', ( #508, #924, #479, #152 ) ) ;
#8 = DIRECTION ( 'NONE',  ( 1.000000000000000000, 0.000000000000000000, 0.000000000000000000 ) ) ;
#9 = ORIENTED_EDGE ( 'NONE', *, *, #163, .T. ) ;
#10 = EDGE_CURVE ( 'NONE', #927, #1080, #1091, .T. ) ;
#11 = CARTESIAN_POINT ( 'NONE',  ( 450.5000000000000000, 74.99999999999992895, -108.0000000000000711 ) ) ;
#12 = VECTOR ( 'NONE', #213, 1000.000000000000000 ) ;
#13 = DIRECTION ( 'NONE',  ( 6.938893903907228378E-17, -9.251858538542975279E-17, 1.000000000000000000 ) ) ;
#14 = ORIENTED_EDGE ( 'NONE', *, *, #1069, .F. ) ;
#15 = AXIS2_PLACEMENT_3D ( 'NONE', #1068, #71, #1099 ) ;
#16 = DIRECTION ( 'NONE',  ( 0.000000000000000000, 0.000000000000000000, 1.000000000000000000 ) ) ;
#17 = EDGE_CURVE ( 'NONE', #1108, #43, #132, .T. ) ;
#18 = DIRECTION ( 'NONE',  ( 0.000000000000000000, 0.000000000000000000, 1.000000000000000000 ) ) ;
#19 = CARTESIAN_POINT ( 'NONE',  ( -500.0000000000000000, 149.9999999999999716, -107.9999999999999858 ) ) ;
#20 = DIRECTION ( 'NONE',  ( 1.000000000000000000, 0.000000000000000000, 0.000000000000000000 ) ) ;
#21 = ADVANCED_FACE ( 'NONE', ( #995, #553, #137, #471, #301 ), #828, .T. ) ;
#22 = DIRECTION ( 'NONE',  ( 0.000000000000000000, 0.000000000000000000, 1.000000000000000000 ) ) ;
#23 = VERTEX_POINT ( 'NONE', #214 ) ;
#24 = FACE_OUTER_BOUND ( 'NONE', #1038, .T. ) ;
#25 = DIRECTION ( 'NONE',  ( 1.000000000000000000, 0.000000000000000000, 0.000000000000000000 ) ) ;
#26 = VECTOR ( 'NONE', #284, 1000.000000000000000 ) ;
#27 = CARTESIAN_POINT ( 'NONE',  ( -500.0000000000000000, 3.501300498917163675E-14, -111.0000000000000142 ) ) ;
#28 = VECTOR ( 'NONE', #103, 1000.000000000000000 ) ;
#29 = ORIENTED_EDGE ( 'NONE', *, *, #639, .F. ) ;
#30 = CIRCLE ( 'NONE', #1057, 3.500000000000003109 ) ;
#31 = CARTESIAN_POINT ( 'NONE',  ( 45.99999999999998579, 74.99999999999988631, -111.0000000000000711 ) ) ;
#32 = CARTESIAN_POINT ( 'NONE',  ( -500.0000000000000000, 0.000000000000000000, 0.000000000000000000 ) ) ;
#33 = SURFACE_STYLE_FILL_AREA ( #111 ) ;
#34 = ORIENTED_EDGE ( 'NONE', *, *, #1113, .T. ) ;
#35 = ADVANCED_FACE ( 'NONE', ( #756 ), #661, .F. ) ;
#36 = DIRECTION ( 'NONE',  ( 0.000000000000000000, -1.000000000000000000, -0.000000000000000000 ) ) ;
#37 = ADVANCED_FACE ( 'NONE', ( #1103 ), #1098, .F. ) ;
#38 = DIRECTION ( 'NONE',  ( 0.000000000000000000, 0.000000000000000000, 1.000000000000000000 ) ) ;
#39 = CARTESIAN_POINT ( 'NONE',  ( -500.0000000000000000, 149.9999999999999716, -107.9999999999999858 ) ) ;
#40 = DIRECTION ( 'NONE',  ( 1.000000000000000000, 0.000000000000000000, 0.000000000000000000 ) ) ;
#41 = CARTESIAN_POINT ( 'NONE',  ( 500.0000000000000000, 3.570032282282133633E-14, -111.0000000000000000 ) ) ;
#42 = CARTESIAN_POINT ( 'NONE',  ( -299.9999999999999432, -39.99999999999973710, -103.5422619030510702 ) ) ;
#43 = VERTEX_POINT ( 'NONE', #47 ) ;
#44 = AXIS2_PLACEMENT_3D ( 'NONE', #516, #182, #872 ) ;
#45 = ORIENTED_EDGE ( 'NONE', *, *, #630, .F. ) ;
#46 = AXIS2_PLACEMENT_3D ( 'NONE', #299, #555, #460 ) ;
#47 = CARTESIAN_POINT ( 'NONE',  ( 321.5000000000000000, 74.99999999999991473, 111.0000000000000000 ) ) ;
#48 = DIRECTION ( 'NONE',  ( -1.000000000000000000, 0.000000000000000000, -0.000000000000000000 ) ) ;
#49 = FACE_OUTER_BOUND ( 'NONE', #1088, .T. ) ;
#50 = VERTEX_POINT ( 'NONE', #484 ) ;
#51 = CYLINDRICAL_SURFACE ( 'NONE', #928, 3.500000000000003109 ) ;
#52 = LINE ( 'NONE', #158, #729 ) ;
#53 = UNCERTAINTY_MEASURE_WITH_UNIT (LENGTH_MEASURE( 1.000000000000000082E-05 ), #216, 'distance_accuracy_value', 'NONE');
#54 = CARTESIAN_POINT ( 'NONE',  ( -500.0000000000000000, 0.000000000000000000, 108.0000000000000000 ) ) ;
#55 = EDGE_LOOP ( 'NONE', ( #1044, #827, #329, #1020 ) ) ;
#56 = ORIENTED_EDGE ( 'NONE', *, *, #359, .T. ) ;
#57 = CARTESIAN_POINT ( 'NONE',  ( 321.5000000000000000, 74.99999999999991473, -108.0000000000000568 ) ) ;
#58 = DIRECTION ( 'NONE',  ( -0.000000000000000000, -0.000000000000000000, 1.000000000000000000 ) ) ;
#59 = EDGE_LOOP ( 'NONE', ( #686, #1036, #125, #773 ) ) ;
#60 = DIRECTION ( 'NONE',  ( 0.000000000000000000, 0.000000000000000000, -1.000000000000000000 ) ) ;
#61 = EDGE_CURVE ( 'NONE', #368, #1108, #786, .T. ) ;
#62 = CIRCLE ( 'NONE', #1090, 3.500000000000003109 ) ;
#63 = MECHANICAL_DESIGN_GEOMETRIC_PRESENTATION_REPRESENTATION (  '', ( #817 ), #771 ) ;
#64 = DIRECTION ( 'NONE',  ( -1.000000000000000000, 0.000000000000000000, 0.000000000000000000 ) ) ;
#65 = AXIS2_PLACEMENT_3D ( 'NONE', #32, #799, #472 ) ;
#66 = DIRECTION ( 'NONE',  ( 0.000000000000000000, 0.000000000000000000, 1.000000000000000000 ) ) ;
#67 = ORIENTED_EDGE ( 'NONE', *, *, #418, .T. ) ;
#68 = DIRECTION ( 'NONE',  ( -1.000000000000000000, 0.000000000000000000, 0.000000000000000000 ) ) ;
#69 = ADVANCED_FACE ( 'NONE', ( #823 ), #51, .F. ) ;
#70 = CARTESIAN_POINT ( 'NONE',  ( -7.494005416219809803E-15, 9.992007221626418330E-15, -108.0000000000000426 ) ) ;
#71 = DIRECTION ( 'NONE',  ( -0.000000000000000000, 0.9328131702977565665, 0.3603603603603602323 ) ) ;
#72 = DIRECTION ( 'NONE',  ( 0.000000000000000000, 0.000000000000000000, -1.000000000000000000 ) ) ;
#73 = ORIENTED_EDGE ( 'NONE', *, *, #457, .T. ) ;
#74 = DIRECTION ( 'NONE',  ( 0.000000000000000000, 1.000000000000000000, 0.000000000000000000 ) ) ;
#75 = ORIENTED_EDGE ( 'NONE', *, *, #123, .F. ) ;
#76 = EDGE_CURVE ( 'NONE', #770, #1080, #507, .T. ) ;
#77 = DIRECTION ( 'NONE',  ( -0.000000000000000000, -0.000000000000000000, 1.000000000000000000 ) ) ;
#78 = ORIENTED_EDGE ( 'NONE', *, *, #5, .T. ) ;
#79 = LINE ( 'NONE', #323, #243 ) ;
#80 = VERTEX_POINT ( 'NONE', #960 ) ;
#81 = DIRECTION ( 'NONE',  ( 0.000000000000000000, 0.000000000000000000, 1.000000000000000000 ) ) ;
#82 = VECTOR ( 'NONE', #417, 999.9999999999998863 ) ;
#83 = CARTESIAN_POINT ( 'NONE',  ( 500.0000000000000000, 150.0000000000000000, -108.0000000000000568 ) ) ;
#84 = AXIS2_PLACEMENT_3D ( 'NONE', #979, #198, #534 ) ;
#85 = EDGE_LOOP ( 'NONE', ( #230, #466 ) ) ;
#86 = DIRECTION ( 'NONE',  ( 1.000000000000000000, 0.000000000000000000, 0.000000000000000000 ) ) ;
#87 = VERTEX_POINT ( 'NONE', #547 ) ;
#88 = DIRECTION ( 'NONE',  ( -1.000000000000000000, 2.567906592516314653E-32, 6.938893903907228378E-17 ) ) ;
#89 = ORIENTED_EDGE ( 'NONE', *, *, #1011, .T. ) ;
#90 = FACE_OUTER_BOUND ( 'NONE', #500, .T. ) ;
#91 = ORIENTED_EDGE ( 'NONE', *, *, #1050, .F. ) ;
#92 = DIRECTION ( 'NONE',  ( -1.000000000000000000, -2.775557561562891351E-17, 6.938893903907228378E-17 ) ) ;
#93 = DIRECTION ( 'NONE',  ( 1.000000000000000000, -0.000000000000000000, -0.000000000000000000 ) ) ;
#94 = ORIENTED_EDGE ( 'NONE', *, *, #807, .T. ) ;
#95 = AXIS2_PLACEMENT_3D ( 'NONE', #449, #629, #634 ) ;
#96 = DIRECTION ( 'NONE',  ( -1.000000000000000000, 0.000000000000000000, -5.551115123125782702E-17 ) ) ;
#97 = CIRCLE ( 'NONE', #347, 3.500000000000016875 ) ;
#98 = CIRCLE ( 'NONE', #405, 3.500000000000016875 ) ;
#99 = CARTESIAN_POINT ( 'NONE',  ( 500.0000000000000000, 0.000000000000000000, 111.0000000000000000 ) ) ;
#100 = VERTEX_POINT ( 'NONE', #719 ) ;
#101 = LINE ( 'NONE', #442, #617 ) ;
#102 = CARTESIAN_POINT ( 'NONE',  ( 500.0000000000000000, 150.0000000000000000, -108.0000000000000568 ) ) ;
#103 = DIRECTION ( 'NONE',  ( 1.000000000000000000, -0.000000000000000000, -0.000000000000000000 ) ) ;
#104 = CYLINDRICAL_SURFACE ( 'NONE', #154, 3.500000000000003109 ) ;
#105 = ADVANCED_FACE ( 'NONE', ( #1066 ), #208, .F. ) ;
#106 = DIRECTION ( 'NONE',  ( 6.938893903907228378E-17, -9.251858538542975279E-17, 1.000000000000000000 ) ) ;
#107 = ORIENTED_EDGE ( 'NONE', *, *, #304, .F. ) ;
#108 = PRODUCT ( '25.SHT.G.01.00.00.01  \X2\04160435043b043e0431\X0\ \X2\0432044b0433044004430437043a0438\X0\', '25.SHT.G.01.00.00.01  \X2\04160435043b043e0431\X0\ \X2\0432044b0433044004430437043a0438\X0\', '', ( #946 ) ) ;
#109 = LINE ( 'NONE', #983, #820 ) ;
#110 = EDGE_CURVE ( 'NONE', #87, #670, #577, .T. ) ;
#111 = FILL_AREA_STYLE ('',( #116 ) ) ;
#112 = EDGE_LOOP ( 'NONE', ( #34, #67 ) ) ;
#113 = ADVANCED_FACE ( 'NONE', ( #24 ), #900, .F. ) ;
#114 = CARTESIAN_POINT ( 'NONE',  ( 185.5000000000000000, 74.99999999999990052, -111.0000000000000711 ) ) ;
#115 = CARTESIAN_POINT ( 'NONE',  ( 182.0000000000000000, 74.99999999999990052, -111.0000000000000711 ) ) ;
#116 = FILL_AREA_STYLE_COLOUR ( '', #636 ) ;
#117 = ORIENTED_EDGE ( 'NONE', *, *, #192, .F. ) ;
#118 = DIRECTION ( 'NONE',  ( 0.000000000000000000, 1.000000000000000000, 3.700743415417188632E-16 ) ) ;
#119 = CARTESIAN_POINT ( 'NONE',  ( -299.9999999999999432, -39.99999999999998579, 103.5422619030509708 ) ) ;
#120 = FACE_BOUND ( 'NONE', #414, .T. ) ;
#121 = ORIENTED_EDGE ( 'NONE', *, *, #755, .F. ) ;
#122 = EDGE_LOOP ( 'NONE', ( #981, #659, #308, #545 ) ) ;
#123 = EDGE_CURVE ( 'NONE', #1016, #951, #421, .T. ) ;
#124 = CARTESIAN_POINT ( 'NONE',  ( 0.000000000000000000, 0.000000000000000000, 111.0000000000000000 ) ) ;
#125 = ORIENTED_EDGE ( 'NONE', *, *, #660, .T. ) ;
#126 = APPLICATION_CONTEXT ( 'automotive_design' ) ;
#127 = CARTESIAN_POINT ( 'NONE',  ( 318.0000000000000000, 74.99999999999991473, -111.0000000000000711 ) ) ;
#128 = CIRCLE ( 'NONE', #853, 3.500000000000003109 ) ;
#129 = VERTEX_POINT ( 'NONE', #272 ) ;
#130 = AXIS2_PLACEMENT_3D ( 'NONE', #423, #1030, #1045 ) ;
#131 = VECTOR ( 'NONE', #481, 1000.000000000000000 ) ;
#132 = LINE ( 'NONE', #842, #328 ) ;
#133 = LINE ( 'NONE', #734, #131 ) ;
#134 = EDGE_CURVE ( 'NONE', #174, #646, #400, .T. ) ;
#135 = CARTESIAN_POINT ( 'NONE',  ( 0.000000000000000000, -38.91891891891866351, -100.7438223921578100 ) ) ;
#136 = ORIENTED_EDGE ( 'NONE', *, *, #596, .F. ) ;
#137 = FACE_BOUND ( 'NONE', #514, .T. ) ;
#138 = DIRECTION ( 'NONE',  ( 1.000000000000000000, 0.000000000000000000, -0.000000000000000000 ) ) ;
#139 = ADVANCED_FACE ( 'NONE', ( #196, #353 ), #808, .F. ) ;
#140 = DIRECTION ( 'NONE',  ( 0.000000000000000000, -1.000000000000000000, 0.000000000000000000 ) ) ;
#141 = ORIENTED_EDGE ( 'NONE', *, *, #1061, .F. ) ;
#142 = DIRECTION ( 'NONE',  ( 0.000000000000000000, 0.000000000000000000, -1.000000000000000000 ) ) ;
#143 = CARTESIAN_POINT ( 'NONE',  ( 500.0000000000000000, 3.473544923301535392E-14, -108.0000000000000000 ) ) ;
#144 = DIRECTION ( 'NONE',  ( 1.000000000000000000, 0.000000000000000000, 0.000000000000000000 ) ) ;
#145 = ORIENTED_EDGE ( 'NONE', *, *, #990, .F. ) ;
#146 = ADVANCED_FACE ( 'NONE', ( #709 ), #533, .F. ) ;
#147 = LINE ( 'NONE', #246, #802 ) ;
#148 = AXIS2_PLACEMENT_3D ( 'NONE', #643, #666, #921 ) ;
#149 = AXIS2_PLACEMENT_3D ( 'NONE', #962, #430, #8 ) ;
#150 = AXIS2_PLACEMENT_3D ( 'NONE', #354, #265, #20 ) ;
#151 = AXIS2_PLACEMENT_3D ( 'NONE', #54, #394, #933 ) ;
#152 = ORIENTED_EDGE ( 'NONE', *, *, #910, .T. ) ;
#153 = CARTESIAN_POINT ( 'NONE',  ( 450.5000000000000000, 74.99999999999992895, 108.0000000000000142 ) ) ;
#154 = AXIS2_PLACEMENT_3D ( 'NONE', #290, #209, #702 ) ;
#155 = ORIENTED_EDGE ( 'NONE', *, *, #490, .F. ) ;
#156 = CARTESIAN_POINT ( 'NONE',  ( -300.0000000000000568, -38.91891891891890509, 100.7438223921577105 ) ) ;
#157 = ORIENTED_EDGE ( 'NONE', *, *, #406, .T. ) ;
#158 = CARTESIAN_POINT ( 'NONE',  ( 1057.519751196242169, -39.99999999999997158, 103.5422619030509708 ) ) ;
#159 = CARTESIAN_POINT ( 'NONE',  ( 454.0000000000000000, 74.99999999999992895, -108.0000000000000711 ) ) ;
#160 = ORIENTED_EDGE ( 'NONE', *, *, #410, .F. ) ;
#161 = CARTESIAN_POINT ( 'NONE',  ( 0.000000000000000000, 150.0000000000000000, 111.0000000000000000 ) ) ;
#162 = ORIENTED_EDGE ( 'NONE', *, *, #345, .T. ) ;
#163 = EDGE_CURVE ( 'NONE', #1016, #1033, #184, .T. ) ;
#164 = CARTESIAN_POINT ( 'NONE',  ( 500.0000000000000000, 0.000000000000000000, 108.0000000000000000 ) ) ;
#165 = ORIENTED_EDGE ( 'NONE', *, *, #312, .F. ) ;
#166 = CARTESIAN_POINT ( 'NONE',  ( -500.0000000000000000, 0.000000000000000000, 0.000000000000000000 ) ) ;
#167 = ORIENTED_EDGE ( 'NONE', *, *, #796, .T. ) ;
#168 = AXIS2_PLACEMENT_3D ( 'NONE', #305, #652, #859 ) ;
#169 = AXIS2_PLACEMENT_3D ( 'NONE', #190, #22, #360 ) ;
#170 = VECTOR ( 'NONE', #528, 1000.000000000000000 ) ;
#171 = CARTESIAN_POINT ( 'NONE',  ( 182.0000000000000000, 74.99999999999990052, 111.0000000000000000 ) ) ;
#172 = AXIS2_PLACEMENT_3D ( 'NONE', #989, #215, #727 ) ;
#173 = EDGE_CURVE ( 'NONE', #512, #648, #886, .T. ) ;
#174 = VERTEX_POINT ( 'NONE', #625 ) ;
#175 = DIRECTION ( 'NONE',  ( 0.000000000000000000, 0.000000000000000000, 1.000000000000000000 ) ) ;
#176 = ORIENTED_EDGE ( 'NONE', *, *, #660, .F. ) ;
#177 = CARTESIAN_POINT ( 'NONE',  ( -500.0000000000000000, 0.000000000000000000, 0.000000000000000000 ) ) ;
#178 = EDGE_CURVE ( 'NONE', #240, #217, #101, .T. ) ;
#179 = CARTESIAN_POINT ( 'NONE',  ( 49.49999999999998579, 74.99999999999988631, 108.0000000000000142 ) ) ;
#180 = ORIENTED_EDGE ( 'NONE', *, *, #606, .F. ) ;
#181 = CARTESIAN_POINT ( 'NONE',  ( 500.0000000000000000, 150.0000000000000000, 108.0000000000000568 ) ) ;
#182 = DIRECTION ( 'NONE',  ( 6.938893903907228378E-17, -9.251858538542975279E-17, 1.000000000000000000 ) ) ;
#183 = ORIENTED_EDGE ( 'NONE', *, *, #606, .T. ) ;
#184 = LINE ( 'NONE', #114, #26 ) ;
#185 = APPLICATION_PROTOCOL_DEFINITION ( 'draft international standard', 'automotive_design', 1998, #126 ) ;
#186 = VECTOR ( 'NONE', #280, 1000.000000000000114 ) ;
#187 = CIRCLE ( 'NONE', #788, 3.500000000000003109 ) ;
#188 = CARTESIAN_POINT ( 'NONE',  ( 500.0000000000000000, 150.0000000000000000, 108.0000000000000568 ) ) ;
#189 = AXIS2_PLACEMENT_3D ( 'NONE', #325, #494, #315 ) ;
#190 = CARTESIAN_POINT ( 'NONE',  ( 454.0000000000000000, 74.99999999999992895, 111.0000000000000000 ) ) ;
#191 = ORIENTED_EDGE ( 'NONE', *, *, #705, .T. ) ;
#192 = EDGE_CURVE ( 'NONE', #951, #1016, #128, .T. ) ;
#193 = CARTESIAN_POINT ( 'NONE',  ( 178.5000000000000000, 74.99999999999990052, 108.0000000000000142 ) ) ;
#194 = DIRECTION ( 'NONE',  ( 0.000000000000000000, -1.000000000000000000, 0.000000000000000000 ) ) ;
#195 = VERTEX_POINT ( 'NONE', #895 ) ;
#196 = FACE_OUTER_BOUND ( 'NONE', #1072, .T. ) ;
#197 = EDGE_CURVE ( 'NONE', #550, #1078, #458, .T. ) ;
#198 = DIRECTION ( 'NONE',  ( -0.000000000000000000, -0.000000000000000000, 1.000000000000000000 ) ) ;
#199 = UNCERTAINTY_MEASURE_WITH_UNIT (LENGTH_MEASURE( 1.000000000000000082E-05 ), #748, 'distance_accuracy_value', 'NONE');
#200 = PLANE ( 'NONE',  #602 ) ;
#201 = VERTEX_POINT ( 'NONE', #496 ) ;
#202 = DIRECTION ( 'NONE',  ( 0.000000000000000000, 0.000000000000000000, -1.000000000000000000 ) ) ;
#203 = CARTESIAN_POINT ( 'NONE',  ( 318.0000000000000000, 74.99999999999991473, -108.0000000000000568 ) ) ;
#204 = FACE_BOUND ( 'NONE', #963, .T. ) ;
#205 = AXIS2_PLACEMENT_3D ( 'NONE', #544, #649, #730 ) ;
#206 = EDGE_LOOP ( 'NONE', ( #831, #357, #680, #794 ) ) ;
#207 = VECTOR ( 'NONE', #275, 1000.000000000000000 ) ;
#208 = PLANE ( 'NONE',  #1071 ) ;
#209 = DIRECTION ( 'NONE',  ( -0.000000000000000000, -0.000000000000000000, 1.000000000000000000 ) ) ;
#210 = PLANE ( 'NONE',  #46 ) ;
#211 = ORIENTED_EDGE ( 'NONE', *, *, #1034, .F. ) ;
#212 = EDGE_CURVE ( 'NONE', #941, #23, #1032, .T. ) ;
#213 = DIRECTION ( 'NONE',  ( -0.000000000000000000, -0.000000000000000000, 1.000000000000000000 ) ) ;
#214 = CARTESIAN_POINT ( 'NONE',  ( -300.0000000000000568, -38.91891891891890509, 100.7438223921577105 ) ) ;
#215 = DIRECTION ( 'NONE',  ( -1.000000000000000000, -0.000000000000000000, 0.000000000000000000 ) ) ;
#216 =( LENGTH_UNIT ( ) NAMED_UNIT ( * ) SI_UNIT ( .MILLI., .METRE. ) );
#217 = VERTEX_POINT ( 'NONE', #846 ) ;
#218 = EDGE_CURVE ( 'NONE', #495, #100, #403, .T. ) ;
#219 = VERTEX_POINT ( 'NONE', #903 ) ;
#220 = FACE_OUTER_BOUND ( 'NONE', #598, .T. ) ;
#221 = DIRECTION ( 'NONE',  ( 0.000000000000000000, 0.000000000000000000, 1.000000000000000000 ) ) ;
#222 = VECTOR ( 'NONE', #1009, 1000.000000000000000 ) ;
#223 = VERTEX_POINT ( 'NONE', #415 ) ;
#224 = EDGE_LOOP ( 'NONE', ( #570, #339, #858, #361 ) ) ;
#225 = AXIS2_PLACEMENT_3D ( 'NONE', #750, #837, #1094 ) ;
#226 = EDGE_CURVE ( 'NONE', #240, #4, #273, .T. ) ;
#227 = ORIENTED_EDGE ( 'NONE', *, *, #889, .T. ) ;
#228 = CARTESIAN_POINT ( 'NONE',  ( 457.5000000000000000, 74.99999999999992895, -111.0000000000000711 ) ) ;
#229 = DIRECTION ( 'NONE',  ( 6.938893903907228378E-17, -9.251858538542975279E-17, 1.000000000000000000 ) ) ;
#230 = ORIENTED_EDGE ( 'NONE', *, *, #796, .F. ) ;
#231 = ORIENTED_EDGE ( 'NONE', *, *, #1089, .T. ) ;
#232 = EDGE_LOOP ( 'NONE', ( #650, #999, #271, #565 ) ) ;
#233 = ADVANCED_FACE ( 'NONE', ( #664 ), #588, .F. ) ;
#234 = DIRECTION ( 'NONE',  ( -1.000000000000000000, 0.000000000000000000, -0.000000000000000000 ) ) ;
#235 = VERTEX_POINT ( 'NONE', #1074 ) ;
#236 = FACE_BOUND ( 'NONE', #915, .T. ) ;
#237 = ORIENTED_EDGE ( 'NONE', *, *, #720, .T. ) ;
#238 = CARTESIAN_POINT ( 'NONE',  ( 49.49999999999998579, 74.99999999999988631, -111.0000000000000711 ) ) ;
#239 = FACE_OUTER_BOUND ( 'NONE', #373, .T. ) ;
#240 = VERTEX_POINT ( 'NONE', #944 ) ;
#241 = EDGE_CURVE ( 'NONE', #608, #195, #753, .T. ) ;
#242 = DIRECTION ( 'NONE',  ( 0.000000000000000000, 0.000000000000000000, 1.000000000000000000 ) ) ;
#243 = VECTOR ( 'NONE', #420, 1000.000000000000000 ) ;
#244 = CARTESIAN_POINT ( 'NONE',  ( 500.0000000000000000, 0.000000000000000000, 0.000000000000000000 ) ) ;
#245 = EDGE_LOOP ( 'NONE', ( #776, #847, #427, #663 ) ) ;
#246 = CARTESIAN_POINT ( 'NONE',  ( 457.5000000000000000, 74.99999999999992895, -111.0000000000000711 ) ) ;
#247 = ORIENTED_EDGE ( 'NONE', *, *, #1097, .F. ) ;
#248 = EDGE_CURVE ( 'NONE', #665, #736, #147, .T. ) ;
#249 = DIRECTION ( 'NONE',  ( 0.000000000000000000, -1.000000000000000000, 3.700743415417188632E-16 ) ) ;
#250 = ORIENTED_EDGE ( 'NONE', *, *, #134, .T. ) ;
#251 = CARTESIAN_POINT ( 'NONE',  ( 45.99999999999998579, 74.99999999999988631, 108.0000000000000142 ) ) ;
#252 = ORIENTED_EDGE ( 'NONE', *, *, #1061, .T. ) ;
#253 = FACE_OUTER_BOUND ( 'NONE', #695, .T. ) ;
#254 = ORIENTED_EDGE ( 'NONE', *, *, #123, .T. ) ;
#255 = DIRECTION ( 'NONE',  ( -0.000000000000000000, -0.000000000000000000, 1.000000000000000000 ) ) ;
#256 = ORIENTED_EDGE ( 'NONE', *, *, #715, .F. ) ;
#257 = AXIS2_PLACEMENT_3D ( 'NONE', #699, #13, #338 ) ;
#258 = ADVANCED_FACE ( 'NONE', ( #236, #1028, #1102, #334, #813 ), #940, .F. ) ;
#259 = AXIS2_PLACEMENT_3D ( 'NONE', #918, #938, #221 ) ;
#260 = DIRECTION ( 'NONE',  ( -0.000000000000000000, -0.000000000000000000, 1.000000000000000000 ) ) ;
#261 = FACE_OUTER_BOUND ( 'NONE', #684, .T. ) ;
#262 = ORIENTED_EDGE ( 'NONE', *, *, #5, .F. ) ;
#263 =( NAMED_UNIT ( * ) SI_UNIT ( $, .STERADIAN. ) SOLID_ANGLE_UNIT ( ) );
#264 = EDGE_CURVE ( 'NONE', #201, #80, #935, .T. ) ;
#265 = DIRECTION ( 'NONE',  ( 0.000000000000000000, 0.000000000000000000, 1.000000000000000000 ) ) ;
#266 = CARTESIAN_POINT ( 'NONE',  ( 450.5000000000000000, 74.99999999999992895, -111.0000000000000711 ) ) ;
#267 = ORIENTED_EDGE ( 'NONE', *, *, #355, .F. ) ;
#268 = DIRECTION ( 'NONE',  ( -1.000000000000000000, 0.000000000000000000, -5.551115123125782702E-17 ) ) ;
#269 = CARTESIAN_POINT ( 'NONE',  ( 182.0000000000000000, 74.99999999999990052, -111.0000000000000711 ) ) ;
#270 = CARTESIAN_POINT ( 'NONE',  ( 178.5000000000000000, 74.99999999999990052, -108.0000000000000426 ) ) ;
#271 = ORIENTED_EDGE ( 'NONE', *, *, #825, .T. ) ;
#272 = CARTESIAN_POINT ( 'NONE',  ( 500.0000000000000000, 150.0000000000000000, -108.0000000000000568 ) ) ;
#273 = CIRCLE ( 'NONE', #363, 108.0000000000000000 ) ;
#274 = AXIS2_PLACEMENT_3D ( 'NONE', #772, #1114, #681 ) ;
#275 = DIRECTION ( 'NONE',  ( -1.000000000000000000, 0.000000000000000000, 0.000000000000000000 ) ) ;
#276 = AXIS2_PLACEMENT_3D ( 'NONE', #83, #88, #428 ) ;
#277 = CARTESIAN_POINT ( 'NONE',  ( 0.000000000000000000, -38.91891891891865640, -100.7438223921578100 ) ) ;
#278 = ORIENTED_EDGE ( 'NONE', *, *, #647, .F. ) ;
#279 = EDGE_CURVE ( 'NONE', #100, #195, #764, .T. ) ;
#280 = DIRECTION ( 'NONE',  ( -0.000000000000000000, 0.3603603603603578454, 0.9328131702977573436 ) ) ;
#281 = DIRECTION ( 'NONE',  ( 0.000000000000000000, 0.000000000000000000, 1.000000000000000000 ) ) ;
#282 = CARTESIAN_POINT ( 'NONE',  ( 0.000000000000000000, 0.000000000000000000, 108.0000000000000000 ) ) ;
#283 = ORIENTED_EDGE ( 'NONE', *, *, #192, .T. ) ;
#284 = DIRECTION ( 'NONE',  ( -0.000000000000000000, -0.000000000000000000, 1.000000000000000000 ) ) ;
#285 = EDGE_CURVE ( 'NONE', #219, #4, #79, .T. ) ;
#286 = APPLICATION_CONTEXT ( 'automotive_design' ) ;
#287 = PLANE ( 'NONE',  #510 ) ;
#288 = DIRECTION ( 'NONE',  ( 1.000000000000000000, 0.000000000000000000, 0.000000000000000000 ) ) ;
#289 = ORIENTED_EDGE ( 'NONE', *, *, #825, .F. ) ;
#290 = CARTESIAN_POINT ( 'NONE',  ( 454.0000000000000000, 74.99999999999992895, -111.0000000000000711 ) ) ;
#291 = EDGE_CURVE ( 'NONE', #864, #881, #873, .T. ) ;
#292 = AXIS2_PLACEMENT_3D ( 'NONE', #594, #242, #40 ) ;
#293 = CYLINDRICAL_SURFACE ( 'NONE', #436, 3.500000000000003109 ) ;
#294 = VECTOR ( 'NONE', #58, 1000.000000000000000 ) ;
#295 = ORIENTED_EDGE ( 'NONE', *, *, #990, .T. ) ;
#296 = AXIS2_PLACEMENT_3D ( 'NONE', #829, #585, #498 ) ;
#297 = CARTESIAN_POINT ( 'NONE',  ( 321.5000000000000000, 74.99999999999991473, -111.0000000000000711 ) ) ;
#298 = FACE_OUTER_BOUND ( 'NONE', #224, .T. ) ;
#299 = CARTESIAN_POINT ( 'NONE',  ( -7.702172233337026655E-15, 1.026956297778270747E-14, -111.0000000000000426 ) ) ;
#300 = ORIENTED_EDGE ( 'NONE', *, *, #406, .F. ) ;
#301 = FACE_OUTER_BOUND ( 'NONE', #798, .T. ) ;
#302 = DIRECTION ( 'NONE',  ( -0.000000000000000000, -0.000000000000000000, 1.000000000000000000 ) ) ;
#303 = ORIENTED_EDGE ( 'NONE', *, *, #998, .T. ) ;
#304 = EDGE_CURVE ( 'NONE', #487, #385, #769, .T. ) ;
#305 = CARTESIAN_POINT ( 'NONE',  ( 500.0000000000000000, 0.000000000000000000, 0.000000000000000000 ) ) ;
#306 = DIRECTION ( 'NONE',  ( -0.000000000000000000, -3.216245299353273201E-16, 1.000000000000000000 ) ) ;
#307 = AXIS2_PLACEMENT_3D ( 'NONE', #31, #16, #613 ) ;
#308 = ORIENTED_EDGE ( 'NONE', *, *, #978, .T. ) ;
#309 = ORIENTED_EDGE ( 'NONE', *, *, #535, .F. ) ;
#310 = CIRCLE ( 'NONE', #150, 3.500000000000003109 ) ;
#311 = EDGE_CURVE ( 'NONE', #736, #50, #986, .T. ) ;
#312 = EDGE_CURVE ( 'NONE', #1008, #718, #552, .T. ) ;
#313 = DIRECTION ( 'NONE',  ( -0.000000000000000000, -0.000000000000000000, 1.000000000000000000 ) ) ;
#314 = LINE ( 'NONE', #1081, #384 ) ;
#315 = DIRECTION ( 'NONE',  ( 1.000000000000000000, 0.000000000000000000, 0.000000000000000000 ) ) ;
#316 = ORIENTED_EDGE ( 'NONE', *, *, #163, .F. ) ;
#317 = FACE_OUTER_BOUND ( 'NONE', #7, .T. ) ;
#318 = ORIENTED_EDGE ( 'NONE', *, *, #868, .F. ) ;
#319 = LINE ( 'NONE', #412, #988 ) ;
#320 = EDGE_CURVE ( 'NONE', #665, #1115, #749, .T. ) ;
#321 = CARTESIAN_POINT ( 'NONE',  ( 0.000000000000000000, 0.000000000000000000, 0.000000000000000000 ) ) ;
#322 = ORIENTED_EDGE ( 'NONE', *, *, #212, .T. ) ;
#323 = CARTESIAN_POINT ( 'NONE',  ( -500.0000000000000000, 149.9999999999999716, -107.9999999999999858 ) ) ;
#324 = ORIENTED_EDGE ( 'NONE', *, *, #956, .F. ) ;
#325 = CARTESIAN_POINT ( 'NONE',  ( 45.99999999999998579, 74.99999999999988631, 111.0000000000000000 ) ) ;
#326 = ORIENTED_EDGE ( 'NONE', *, *, #993, .F. ) ;
#327 = CARTESIAN_POINT ( 'NONE',  ( 500.0000000000000000, -0.000000000000000000, 111.0000000000000000 ) ) ;
#328 = VECTOR ( 'NONE', #313, 1000.000000000000000 ) ;
#329 = ORIENTED_EDGE ( 'NONE', *, *, #535, .T. ) ;
#330 = AXIS2_PLACEMENT_3D ( 'NONE', #1082, #465, #381 ) ;
#331 = VECTOR ( 'NONE', #1040, 1000.000000000000000 ) ;
#332 = DIRECTION ( 'NONE',  ( -1.000000000000000000, 0.000000000000000000, 0.000000000000000000 ) ) ;
#333 = EDGE_LOOP ( 'NONE', ( #1013, #309 ) ) ;
#334 = FACE_BOUND ( 'NONE', #898, .T. ) ;
#335 = ORIENTED_EDGE ( 'NONE', *, *, #320, .T. ) ;
#336 = LINE ( 'NONE', #854, #803 ) ;
#337 = EDGE_LOOP ( 'NONE', ( #505, #1052, #456, #397 ) ) ;
#338 = DIRECTION ( 'NONE',  ( 0.000000000000000000, -1.000000000000000000, 0.000000000000000000 ) ) ;
#339 = ORIENTED_EDGE ( 'NONE', *, *, #698, .T. ) ;
#340 = ADVANCED_FACE ( 'NONE', ( #317 ), #409, .F. ) ;
#341 = LINE ( 'NONE', #181, #525 ) ;
#342 = CARTESIAN_POINT ( 'NONE',  ( 45.99999999999998579, 74.99999999999988631, -111.0000000000000711 ) ) ;
#343 = ORIENTED_EDGE ( 'NONE', *, *, #490, .T. ) ;
#344 = CLOSED_SHELL ( 'NONE', ( #964, #972, #35, #542, #233, #812, #523, #146, #139, #1039, #113, #919, #877, #745, #437, #841, #692, #105, #518, #21, #258, #584, #624, #1003, #591, #925, #462, #37, #69, #340, #557, #917, #503, #388 ) ) ;
#345 = EDGE_CURVE ( 'NONE', #223, #569, #3, .T. ) ;
#346 = AXIS2_PLACEMENT_3D ( 'NONE', #251, #926, #68 ) ;
#347 = AXIS2_PLACEMENT_3D ( 'NONE', #159, #229, #140 ) ;
#348 = EDGE_CURVE ( 'NONE', #838, #927, #622, .T. ) ;
#349 = LINE ( 'NONE', #961, #952 ) ;
#350 = AXIS2_PLACEMENT_3D ( 'NONE', #115, #38, #459 ) ;
#351 = LINE ( 'NONE', #777, #1041 ) ;
#352 = ORIENTED_EDGE ( 'NONE', *, *, #312, .T. ) ;
#353 = FACE_BOUND ( 'NONE', #478, .T. ) ;
#354 = CARTESIAN_POINT ( 'NONE',  ( 454.0000000000000000, 74.99999999999992895, -111.0000000000000711 ) ) ;
#355 = EDGE_CURVE ( 'NONE', #512, #864, #433, .T. ) ;
#356 = DIRECTION ( 'NONE',  ( -1.000000000000000000, -6.419766481290789370E-33, 6.938893903907228378E-17 ) ) ;
#357 = ORIENTED_EDGE ( 'NONE', *, *, #348, .F. ) ;
#358 = CARTESIAN_POINT ( 'NONE',  ( 500.0000000000000000, 0.000000000000000000, 108.0000000000000000 ) ) ;
#359 = EDGE_CURVE ( 'NONE', #648, #689, #958, .T. ) ;
#360 = DIRECTION ( 'NONE',  ( 1.000000000000000000, 0.000000000000000000, 0.000000000000000000 ) ) ;
#361 = ORIENTED_EDGE ( 'NONE', *, *, #76, .F. ) ;
#362 = CARTESIAN_POINT ( 'NONE',  ( 500.0000000000000000, 0.000000000000000000, 108.0000000000000000 ) ) ;
#363 = AXIS2_PLACEMENT_3D ( 'NONE', #166, #840, #60 ) ;
#364 = CYLINDRICAL_SURFACE ( 'NONE', #366, 3.500000000000003109 ) ;
#365 = CIRCLE ( 'NONE', #603, 3.500000000000003109 ) ;
#366 = AXIS2_PLACEMENT_3D ( 'NONE', #127, #1063, #25 ) ;
#367 = FACE_OUTER_BOUND ( 'NONE', #245, .T. ) ;
#368 = VERTEX_POINT ( 'NONE', #1046 ) ;
#369 = EDGE_CURVE ( 'NONE', #1112, #744, #866, .T. ) ;
#370 = DIRECTION ( 'NONE',  ( 0.000000000000000000, 0.000000000000000000, -1.000000000000000000 ) ) ;
#371 = LINE ( 'NONE', #540, #543 ) ;
#372 = SURFACE_SIDE_STYLE ('',( #33 ) ) ;
#373 = EDGE_LOOP ( 'NONE', ( #91, #1007, #408, #737 ) ) ;
#374 = EDGE_CURVE ( 'NONE', #80, #401, #635, .T. ) ;
#375 = FACE_OUTER_BOUND ( 'NONE', #232, .T. ) ;
#376 = PRESENTATION_STYLE_ASSIGNMENT (( #717 ) ) ;
#377 = DIRECTION ( 'NONE',  ( 0.000000000000000000, 0.000000000000000000, -1.000000000000000000 ) ) ;
#378 = FACE_OUTER_BOUND ( 'NONE', #483, .T. ) ;
#379 = PRODUCT_DEFINITION ( 'UNKNOWN', '', #527, #740 ) ;
#380 = VECTOR ( 'NONE', #694, 1000.000000000000000 ) ;
#381 = DIRECTION ( 'NONE',  ( 1.000000000000000000, 0.000000000000000000, 0.000000000000000000 ) ) ;
#382 = AXIS2_PLACEMENT_3D ( 'NONE', #669, #568, #768 ) ;
#383 = ORIENTED_EDGE ( 'NONE', *, *, #639, .T. ) ;
#384 = VECTOR ( 'NONE', #922, 1000.000000000000000 ) ;
#385 = VERTEX_POINT ( 'NONE', #529 ) ;
#386 = CARTESIAN_POINT ( 'NONE',  ( 318.0000000000000000, 74.99999999999991473, 108.0000000000000142 ) ) ;
#387 = LINE ( 'NONE', #566, #1073 ) ;
#388 = ADVANCED_FACE ( 'NONE', ( #261 ), #444, .F. ) ;
#389 =( NAMED_UNIT ( * ) PLANE_ANGLE_UNIT ( ) SI_UNIT ( $, .RADIAN. ) );
#390 = ORIENTED_EDGE ( 'NONE', *, *, #226, .F. ) ;
#391 = ORIENTED_EDGE ( 'NONE', *, *, #291, .F. ) ;
#392 = CARTESIAN_POINT ( 'NONE',  ( 182.0000000000000000, 74.99999999999990052, -111.0000000000000711 ) ) ;
#393 = LINE ( 'NONE', #1023, #491 ) ;
#394 = DIRECTION ( 'NONE',  ( -1.000000000000000000, 0.000000000000000000, 0.000000000000000000 ) ) ;
#395 = ORIENTED_EDGE ( 'NONE', *, *, #848, .T. ) ;
#396 = EDGE_CURVE ( 'NONE', #1015, #1112, #1109, .T. ) ;
#397 = ORIENTED_EDGE ( 'NONE', *, *, #715, .T. ) ;
#398 = DIRECTION ( 'NONE',  ( 6.938893903907228378E-17, -9.251858538542975279E-17, 1.000000000000000000 ) ) ;
#399 = LINE ( 'NONE', #849, #82 ) ;
#400 = CIRCLE ( 'NONE', #307, 3.500000000000003109 ) ;
#401 = VERTEX_POINT ( 'NONE', #270 ) ;
#402 = VECTOR ( 'NONE', #907, 1000.000000000000000 ) ;
#403 = LINE ( 'NONE', #327, #892 ) ;
#404 = VECTOR ( 'NONE', #1001, 1000.000000000000000 ) ;
#405 = AXIS2_PLACEMENT_3D ( 'NONE', #626, #637, #888 ) ;
#406 = EDGE_CURVE ( 'NONE', #945, #512, #726, .T. ) ;
#407 = CARTESIAN_POINT ( 'NONE',  ( 500.0000000000000000, 3.473544923301535392E-14, -108.0000000000000000 ) ) ;
#408 = ORIENTED_EDGE ( 'NONE', *, *, #755, .T. ) ;
#409 = CYLINDRICAL_SURFACE ( 'NONE', #909, 3.500000000000003109 ) ;
#410 = EDGE_CURVE ( 'NONE', #864, #689, #351, .T. ) ;
#411 = ORIENTED_EDGE ( 'NONE', *, *, #567, .F. ) ;
#412 = CARTESIAN_POINT ( 'NONE',  ( 500.0000000000000000, 0.000000000000000000, 108.0000000000000000 ) ) ;
#413 = PLANE ( 'NONE',  #259 ) ;
#414 = EDGE_LOOP ( 'NONE', ( #107, #623 ) ) ;
#415 = CARTESIAN_POINT ( 'NONE',  ( -500.0000000000000000, 149.9999999999999716, -110.9999999999999858 ) ) ;
#416 = ORIENTED_EDGE ( 'NONE', *, *, #374, .T. ) ;
#417 = DIRECTION ( 'NONE',  ( -0.000000000000000000, 0.3603603603603591221, -0.9328131702977570106 ) ) ;
#418 = EDGE_CURVE ( 'NONE', #1008, #550, #950, .T. ) ;
#419 = ORIENTED_EDGE ( 'NONE', *, *, #61, .F. ) ;
#420 = DIRECTION ( 'NONE',  ( 0.000000000000000000, -1.000000000000000000, -9.251858538542975279E-17 ) ) ;
#421 = CIRCLE ( 'NONE', #871, 3.500000000000003109 ) ;
#422 = ORIENTED_EDGE ( 'NONE', *, *, #241, .F. ) ;
#423 = CARTESIAN_POINT ( 'NONE',  ( 182.0000000000000000, 74.99999999999990052, 111.0000000000000000 ) ) ;
#424 = ORIENTED_EDGE ( 'NONE', *, *, #418, .F. ) ;
#425 = EDGE_CURVE ( 'NONE', #861, #43, #187, .T. ) ;
#426 = DIRECTION ( 'NONE',  ( 0.000000000000000000, -1.000000000000000000, -9.251858538542975279E-17 ) ) ;
#427 = ORIENTED_EDGE ( 'NONE', *, *, #807, .F. ) ;
#428 = DIRECTION ( 'NONE',  ( 0.000000000000000000, -1.000000000000000000, 3.700743415417188632E-16 ) ) ;
#429 = ORIENTED_EDGE ( 'NONE', *, *, #248, .T. ) ;
#430 = DIRECTION ( 'NONE',  ( -0.000000000000000000, -0.000000000000000000, 1.000000000000000000 ) ) ;
#431 = EDGE_LOOP ( 'NONE', ( #633, #262 ) ) ;
#432 = DIRECTION ( 'NONE',  ( 0.000000000000000000, 0.000000000000000000, -1.000000000000000000 ) ) ;
#433 = LINE ( 'NONE', #787, #28 ) ;
#434 = ORIENTED_EDGE ( 'NONE', *, *, #17, .F. ) ;
#435 = AXIS2_PLACEMENT_3D ( 'NONE', #818, #142, #64 ) ;
#436 = AXIS2_PLACEMENT_3D ( 'NONE', #455, #302, #821 ) ;
#437 = ADVANCED_FACE ( 'NONE', ( #90 ), #1037, .T. ) ;
#438 = CIRCLE ( 'NONE', #350, 3.500000000000003109 ) ;
#439 = CARTESIAN_POINT ( 'NONE',  ( 500.0000000000000000, 150.0000000000000000, -111.0000000000000711 ) ) ;
#440 = CARTESIAN_POINT ( 'NONE',  ( -500.0000000000000000, 1.026956297778270431E-14, -111.0000000000000142 ) ) ;
#441 = ORIENTED_EDGE ( 'NONE', *, *, #469, .F. ) ;
#442 = CARTESIAN_POINT ( 'NONE',  ( -500.0000000000000000, 0.000000000000000000, 108.0000000000000000 ) ) ;
#443 = LINE ( 'NONE', #795, #331 ) ;
#444 = CYLINDRICAL_SURFACE ( 'NONE', #618, 3.500000000000003109 ) ;
#445 = EDGE_LOOP ( 'NONE', ( #165, #845, #601, #343 ) ) ;
#446 = DIRECTION ( 'NONE',  ( -0.000000000000000000, -0.000000000000000000, 1.000000000000000000 ) ) ;
#447 = CARTESIAN_POINT ( 'NONE',  ( 45.99999999999998579, 74.99999999999988631, -111.0000000000000711 ) ) ;
#448 = ORIENTED_EDGE ( 'NONE', *, *, #110, .T. ) ;
#449 = CARTESIAN_POINT ( 'NONE',  ( 45.99999999999998579, 74.99999999999988631, -108.0000000000000426 ) ) ;
#450 = VECTOR ( 'NONE', #74, 1000.000000000000000 ) ;
#451 = AXIS2_PLACEMENT_3D ( 'NONE', #833, #581, #1096 ) ;
#452 = DIRECTION ( 'NONE',  ( -0.000000000000000000, -0.000000000000000000, 1.000000000000000000 ) ) ;
#453 = VECTOR ( 'NONE', #92, 1000.000000000000000 ) ;
#454 = CIRCLE ( 'NONE', #790, 3.500000000000003109 ) ;
#455 = CARTESIAN_POINT ( 'NONE',  ( 318.0000000000000000, 74.99999999999991473, -111.0000000000000711 ) ) ;
#456 = ORIENTED_EDGE ( 'NONE', *, *, #1067, .T. ) ;
#457 = EDGE_CURVE ( 'NONE', #50, #736, #539, .T. ) ;
#458 = LINE ( 'NONE', #297, #767 ) ;
#459 = DIRECTION ( 'NONE',  ( 1.000000000000000000, 0.000000000000000000, 0.000000000000000000 ) ) ;
#460 = DIRECTION ( 'NONE',  ( 0.000000000000000000, -1.000000000000000000, -9.251858538542975279E-17 ) ) ;
#461 = ORIENTED_EDGE ( 'NONE', *, *, #248, .F. ) ;
#462 = ADVANCED_FACE ( 'NONE', ( #513 ), #863, .F. ) ;
#463 = CARTESIAN_POINT ( 'NONE',  ( 182.0000000000000000, 74.99999999999990052, 108.0000000000000142 ) ) ;
#464 = LINE ( 'NONE', #358, #207 ) ;
#465 = DIRECTION ( 'NONE',  ( 0.000000000000000000, 0.000000000000000000, 1.000000000000000000 ) ) ;
#466 = ORIENTED_EDGE ( 'NONE', *, *, #832, .F. ) ;
#467 = ORIENTED_EDGE ( 'NONE', *, *, #904, .F. ) ;
#468 = DIRECTION ( 'NONE',  ( -0.000000000000000000, -0.000000000000000000, 1.000000000000000000 ) ) ;
#469 = EDGE_CURVE ( 'NONE', #646, #174, #62, .T. ) ;
#470 = AXIS2_PLACEMENT_3D ( 'NONE', #1062, #620, #370 ) ;
#471 = FACE_BOUND ( 'NONE', #1079, .T. ) ;
#472 = DIRECTION ( 'NONE',  ( 0.000000000000000000, 0.000000000000000000, -1.000000000000000000 ) ) ;
#473 = CIRCLE ( 'NONE', #987, 3.500000000000003109 ) ;
#474 = ORIENTED_EDGE ( 'NONE', *, *, #76, .T. ) ;
#475 = DIRECTION ( 'NONE',  ( -1.000000000000000000, 0.000000000000000000, 0.000000000000000000 ) ) ;
#476 = DIRECTION ( 'NONE',  ( -0.000000000000000000, -0.000000000000000000, -1.000000000000000000 ) ) ;
#477 = DIRECTION ( 'NONE',  ( -1.000000000000000000, -0.000000000000000000, -0.000000000000000000 ) ) ;
#478 = EDGE_LOOP ( 'NONE', ( #1047, #56, #183, #322 ) ) ;
#479 = ORIENTED_EDGE ( 'NONE', *, *, #1097, .T. ) ;
#480 = CARTESIAN_POINT ( 'NONE',  ( -500.0000000000000000, 3.473544923301535392E-14, -108.0000000000000000 ) ) ;
#481 = DIRECTION ( 'NONE',  ( 0.000000000000000000, 0.000000000000000000, -1.000000000000000000 ) ) ;
#482 = DIRECTION ( 'NONE',  ( 0.000000000000000000, 0.000000000000000000, -1.000000000000000000 ) ) ;
#483 = EDGE_LOOP ( 'NONE', ( #335, #252, #73, #461 ) ) ;
#484 = CARTESIAN_POINT ( 'NONE',  ( 450.5000000000000000, 74.99999999999992895, 111.0000000000000000 ) ) ;
#485 = PLANE ( 'NONE',  #151 ) ;
#486 = AXIS2_PLACEMENT_3D ( 'NONE', #1043, #703, #506 ) ;
#487 = VERTEX_POINT ( 'NONE', #179 ) ;
#488 = AXIS2_PLACEMENT_3D ( 'NONE', #447, #800, #288 ) ;
#489 = DIRECTION ( 'NONE',  ( -1.000000000000000000, -0.000000000000000000, -0.000000000000000000 ) ) ;
#490 = EDGE_CURVE ( 'NONE', #1078, #718, #929, .T. ) ;
#491 = VECTOR ( 'NONE', #306, 1000.000000000000000 ) ;
#492 = ORIENTED_EDGE ( 'NONE', *, *, #264, .T. ) ;
#493 = DIRECTION ( 'NONE',  ( -1.000000000000000000, 0.000000000000000000, 0.000000000000000000 ) ) ;
#494 = DIRECTION ( 'NONE',  ( 0.000000000000000000, 0.000000000000000000, 1.000000000000000000 ) ) ;
#495 = VERTEX_POINT ( 'NONE', #99 ) ;
#496 = CARTESIAN_POINT ( 'NONE',  ( 185.5000000000000000, 74.99999999999990052, -111.0000000000000711 ) ) ;
#497 = EDGE_LOOP ( 'NONE', ( #1095, #283, #9, #167 ) ) ;
#498 = DIRECTION ( 'NONE',  ( 0.000000000000000000, 0.000000000000000000, 1.000000000000000000 ) ) ;
#499 = CARTESIAN_POINT ( 'NONE',  ( 500.0000000000000000, 3.473544923301535392E-14, -108.0000000000000000 ) ) ;
#500 = EDGE_LOOP ( 'NONE', ( #411, #162, #763, #765 ) ) ;
#501 = CARTESIAN_POINT ( 'NONE',  ( 454.0000000000000000, 74.99999999999992895, -111.0000000000000711 ) ) ;
#502 = ORIENTED_EDGE ( 'NONE', *, *, #676, .T. ) ;
#503 = ADVANCED_FACE ( 'NONE', ( #531 ), #810, .F. ) ;
#504 = DIRECTION ( 'NONE',  ( -1.000000000000000000, -0.000000000000000000, 0.000000000000000000 ) ) ;
#505 = ORIENTED_EDGE ( 'NONE', *, *, #862, .F. ) ;
#506 = DIRECTION ( 'NONE',  ( 1.000000000000000000, 0.000000000000000000, 0.000000000000000000 ) ) ;
#507 = CIRCLE ( 'NONE', #168, 108.0000000000000000 ) ;
#508 = ORIENTED_EDGE ( 'NONE', *, *, #369, .F. ) ;
#509 = VECTOR ( 'NONE', #468, 1000.000000000000000 ) ;
#510 = AXIS2_PLACEMENT_3D ( 'NONE', #974, #814, #554 ) ;
#511 = CARTESIAN_POINT ( 'NONE',  ( 314.5000000000000000, 74.99999999999991473, 111.0000000000000000 ) ) ;
#512 = VERTEX_POINT ( 'NONE', #42 ) ;
#513 = FACE_OUTER_BOUND ( 'NONE', #122, .T. ) ;
#514 = EDGE_LOOP ( 'NONE', ( #155, #145 ) ) ;
#515 = DIRECTION ( 'NONE',  ( 1.000000000000000000, 0.000000000000000000, 0.000000000000000000 ) ) ;
#516 = CARTESIAN_POINT ( 'NONE',  ( 318.0000000000000000, 74.99999999999991473, -108.0000000000000568 ) ) ;
#517 = ORIENTED_EDGE ( 'NONE', *, *, #1076, .F. ) ;
#518 = ADVANCED_FACE ( 'NONE', ( #722, #1077, #632, #120, #367 ), #200, .T. ) ;
#519 = SHAPE_DEFINITION_REPRESENTATION ( #743, #887 ) ;
#520 = CYLINDRICAL_SURFACE ( 'NONE', #1110, 3.500000000000003109 ) ;
#521 = CARTESIAN_POINT ( 'NONE',  ( -300.0000000000000568, 0.000000000000000000, 0.000000000000000000 ) ) ;
#522 = ORIENTED_EDGE ( 'NONE', *, *, #904, .T. ) ;
#523 = ADVANCED_FACE ( 'NONE', ( #1070 ), #293, .F. ) ;
#524 = CIRCLE ( 'NONE', #893, 3.499999999999989342 ) ;
#525 = VECTOR ( 'NONE', #96, 1000.000000000000000 ) ;
#526 = CARTESIAN_POINT ( 'NONE',  ( 500.0000000000000000, 150.0000000000000000, 108.0000000000000568 ) ) ;
#527 = PRODUCT_DEFINITION_FORMATION_WITH_SPECIFIED_SOURCE ( 'ANY', '', #108, .NOT_KNOWN. ) ;
#528 = DIRECTION ( 'NONE',  ( 0.000000000000000000, 0.000000000000000000, -1.000000000000000000 ) ) ;
#529 = CARTESIAN_POINT ( 'NONE',  ( 42.49999999999998579, 74.99999999999988631, 108.0000000000000142 ) ) ;
#530 = FACE_OUTER_BOUND ( 'NONE', #1101, .T. ) ;
#531 = FACE_OUTER_BOUND ( 'NONE', #497, .T. ) ;
#532 = ORIENTED_EDGE ( 'NONE', *, *, #668, .T. ) ;
#533 = CYLINDRICAL_SURFACE ( 'NONE', #967, 3.500000000000003109 ) ;
#534 = DIRECTION ( 'NONE',  ( 1.000000000000000000, 0.000000000000000000, 0.000000000000000000 ) ) ;
#535 = EDGE_CURVE ( 'NONE', #401, #80, #524, .T. ) ;
#536 = CYLINDRICAL_SURFACE ( 'NONE', #488, 3.500000000000003109 ) ;
#537 = ORIENTED_EDGE ( 'NONE', *, *, #425, .F. ) ;
#538 = DIRECTION ( 'NONE',  ( -1.000000000000000000, 0.000000000000000000, 0.000000000000000000 ) ) ;
#539 = CIRCLE ( 'NONE', #169, 3.500000000000003109 ) ;
#540 = CARTESIAN_POINT ( 'NONE',  ( 500.0000000000000000, 150.0000000000000000, -108.0000000000000568 ) ) ;
#541 = CIRCLE ( 'NONE', #189, 3.500000000000003109 ) ;
#542 = ADVANCED_FACE ( 'NONE', ( #49 ), #805, .F. ) ;
#543 = VECTOR ( 'NONE', #896, 1000.000000000000000 ) ;
#544 = CARTESIAN_POINT ( 'NONE',  ( 45.99999999999998579, 74.99999999999988631, -111.0000000000000711 ) ) ;
#545 = ORIENTED_EDGE ( 'NONE', *, *, #596, .T. ) ;
#546 = PRODUCT_RELATED_PRODUCT_CATEGORY ( 'part', '', ( #108 ) ) ;
#547 = CARTESIAN_POINT ( 'NONE',  ( 42.49999999999998579, 74.99999999999988631, -108.0000000000000426 ) ) ;
#548 = CARTESIAN_POINT ( 'NONE',  ( -7.702172233337026655E-15, 150.0000000000000000, -111.0000000000000284 ) ) ;
#549 = PLANE ( 'NONE',  #656 ) ;
#550 = VERTEX_POINT ( 'NONE', #897 ) ;
#551 = EDGE_CURVE ( 'NONE', #43, #861, #836, .T. ) ;
#552 = LINE ( 'NONE', #1021, #509 ) ;
#553 = FACE_BOUND ( 'NONE', #333, .T. ) ;
#554 = DIRECTION ( 'NONE',  ( 1.000000000000000000, -0.000000000000000000, -0.000000000000000000 ) ) ;
#555 = DIRECTION ( 'NONE',  ( 6.938893903907228378E-17, -9.251858538542975279E-17, 1.000000000000000000 ) ) ;
#556 = EDGE_LOOP ( 'NONE', ( #157, #1106, #517, #289 ) ) ;
#557 = ADVANCED_FACE ( 'NONE', ( #815 ), #536, .F. ) ;
#558 = CARTESIAN_POINT ( 'NONE',  ( 318.0000000000000000, 74.99999999999991473, -111.0000000000000711 ) ) ;
#559 = CARTESIAN_POINT ( 'NONE',  ( 318.0000000000000000, 74.99999999999991473, -111.0000000000000711 ) ) ;
#560 = VECTOR ( 'NONE', #426, 1000.000000000000000 ) ;
#561 = CARTESIAN_POINT ( 'NONE',  ( 49.49999999999998579, 74.99999999999988631, -108.0000000000000426 ) ) ;
#562 = CIRCLE ( 'NONE', #382, 3.500000000000003109 ) ;
#563 = VERTEX_POINT ( 'NONE', #890 ) ;
#564 = VECTOR ( 'NONE', #906, 1000.000000000000000 ) ;
#565 = ORIENTED_EDGE ( 'NONE', *, *, #212, .F. ) ;
#566 = CARTESIAN_POINT ( 'NONE',  ( 450.5000000000000000, 74.99999999999992895, -111.0000000000000711 ) ) ;
#567 = EDGE_CURVE ( 'NONE', #223, #219, #640, .T. ) ;
#568 = DIRECTION ( 'NONE',  ( 6.938893903907228378E-17, -9.251858538542975279E-17, 1.000000000000000000 ) ) ;
#569 = VERTEX_POINT ( 'NONE', #27 ) ;
#570 = ORIENTED_EDGE ( 'NONE', *, *, #1011, .F. ) ;
#571 = DIRECTION ( 'NONE',  ( 0.000000000000000000, 0.000000000000000000, -1.000000000000000000 ) ) ;
#572 = DIRECTION ( 'NONE',  ( 0.000000000000000000, 0.000000000000000000, -1.000000000000000000 ) ) ;
#573 = EDGE_LOOP ( 'NONE', ( #14, #467, #1006, #616 ) ) ;
#574 = DIRECTION ( 'NONE',  ( -1.000000000000000000, 0.000000000000000000, -0.000000000000000000 ) ) ;
#575 = ORIENTED_EDGE ( 'NONE', *, *, #705, .F. ) ;
#576 = CYLINDRICAL_SURFACE ( 'NONE', #973, 111.0000000000000000 ) ;
#577 = CIRCLE ( 'NONE', #95, 3.500000000000003109 ) ;
#578 = FACE_OUTER_BOUND ( 'NONE', #556, .T. ) ;
#579 = EDGE_LOOP ( 'NONE', ( #424, #352, #295, #742 ) ) ;
#580 = AXIS2_PLACEMENT_3D ( 'NONE', #586, #477, #572 ) ;
#581 = DIRECTION ( 'NONE',  ( 0.000000000000000000, 0.000000000000000000, -1.000000000000000000 ) ) ;
#582 = ORIENTED_EDGE ( 'NONE', *, *, #1089, .F. ) ;
#583 = AXIS2_PLACEMENT_3D ( 'NONE', #672, #571, #493 ) ;
#584 = ADVANCED_FACE ( 'NONE', ( #1064, #204, #712, #1059, #991 ), #210, .F. ) ;
#585 = DIRECTION ( 'NONE',  ( 1.000000000000000000, -0.000000000000000000, -0.000000000000000000 ) ) ;
#586 = CARTESIAN_POINT ( 'NONE',  ( 0.000000000000000000, 0.000000000000000000, 0.000000000000000000 ) ) ;
#587 = ORIENTED_EDGE ( 'NONE', *, *, #279, .T. ) ;
#588 = CYLINDRICAL_SURFACE ( 'NONE', #948, 3.500000000000003109 ) ;
#589 = ORIENTED_EDGE ( 'NONE', *, *, #698, .F. ) ;
#590 = MANIFOLD_SOLID_BREP ( '\X2\0412044b044004350437\X0\-\X2\0412044b0442044f043d04430442044c\X0\4', #344 ) ;
#591 = ADVANCED_FACE ( 'NONE', ( #741 ), #549, .F. ) ;
#592 = FACE_OUTER_BOUND ( 'NONE', #206, .T. ) ;
#593 = ORIENTED_EDGE ( 'NONE', *, *, #17, .T. ) ;
#594 = CARTESIAN_POINT ( 'NONE',  ( 454.0000000000000000, 74.99999999999992895, 111.0000000000000000 ) ) ;
#595 = EDGE_LOOP ( 'NONE', ( #713, #806, #492, #416 ) ) ;
#596 = EDGE_CURVE ( 'NONE', #670, #87, #562, .T. ) ;
#597 = CARTESIAN_POINT ( 'NONE',  ( 500.0000000000000000, 150.0000000000000000, -108.0000000000000568 ) ) ;
#598 = EDGE_LOOP ( 'NONE', ( #176, #589, #231, #522 ) ) ;
#599 = CARTESIAN_POINT ( 'NONE',  ( 500.0000000000000000, 1.026956297778271062E-14, -111.0000000000000711 ) ) ;
#600 = AXIS2_PLACEMENT_3D ( 'NONE', #124, #377, #574 ) ;
#601 = ORIENTED_EDGE ( 'NONE', *, *, #197, .T. ) ;
#602 = AXIS2_PLACEMENT_3D ( 'NONE', #282, #627, #884 ) ;
#603 = AXIS2_PLACEMENT_3D ( 'NONE', #716, #281, #1075 ) ;
#604 = CIRCLE ( 'NONE', #296, 108.0000000000000000 ) ;
#605 = CARTESIAN_POINT ( 'NONE',  ( 0.000000000000000000, -39.99999999999973710, -103.5422619030510702 ) ) ;
#606 = EDGE_CURVE ( 'NONE', #689, #941, #1005, .T. ) ;
#607 = DIRECTION ( 'NONE',  ( 1.000000000000000000, 0.000000000000000000, 0.000000000000000000 ) ) ;
#608 = VERTEX_POINT ( 'NONE', #913 ) ;
#609 = CARTESIAN_POINT ( 'NONE',  ( 457.5000000000000000, 74.99999999999992895, 111.0000000000000000 ) ) ;
#610 = EDGE_CURVE ( 'NONE', #235, #401, #1087, .T. ) ;
#611 = CARTESIAN_POINT ( 'NONE',  ( 454.0000000000000000, 74.99999999999992895, -111.0000000000000711 ) ) ;
#612 = VERTEX_POINT ( 'NONE', #674 ) ;
#613 = DIRECTION ( 'NONE',  ( 1.000000000000000000, 0.000000000000000000, 0.000000000000000000 ) ) ;
#614 = DIRECTION ( 'NONE',  ( -2.775557561562890735E-17, 1.000000000000000000, 9.251858538542975279E-17 ) ) ;
#615 = DIRECTION ( 'NONE',  ( 0.000000000000000000, -1.000000000000000000, -9.251858538542975279E-17 ) ) ;
#616 = ORIENTED_EDGE ( 'NONE', *, *, #226, .T. ) ;
#617 = VECTOR ( 'NONE', #714, 1000.000000000000000 ) ;
#618 = AXIS2_PLACEMENT_3D ( 'NONE', #968, #685, #797 ) ;
#619 = CIRCLE ( 'NONE', #130, 3.500000000000003109 ) ;
#620 = DIRECTION ( 'NONE',  ( 1.000000000000000000, 0.000000000000000000, -0.000000000000000000 ) ) ;
#621 = FACE_OUTER_BOUND ( 'NONE', #1031, .T. ) ;
#622 = LINE ( 'NONE', #599, #560 ) ;
#623 = ORIENTED_EDGE ( 'NONE', *, *, #1018, .F. ) ;
#624 = ADVANCED_FACE ( 'NONE', ( #578 ), #413, .F. ) ;
#625 = CARTESIAN_POINT ( 'NONE',  ( 49.49999999999998579, 74.99999999999988631, -111.0000000000000711 ) ) ;
#626 = CARTESIAN_POINT ( 'NONE',  ( 454.0000000000000000, 74.99999999999992895, -108.0000000000000711 ) ) ;
#627 = DIRECTION ( 'NONE',  ( 0.000000000000000000, 0.000000000000000000, -1.000000000000000000 ) ) ;
#628 = ORIENTED_EDGE ( 'NONE', *, *, #899, .T. ) ;
#629 = DIRECTION ( 'NONE',  ( 6.938893903907228378E-17, -9.251858538542975279E-17, 1.000000000000000000 ) ) ;
#630 = EDGE_CURVE ( 'NONE', #744, #970, #97, .T. ) ;
#631 = CARTESIAN_POINT ( 'NONE',  ( 42.49999999999998579, 74.99999999999988631, -111.0000000000000711 ) ) ;
#632 = FACE_BOUND ( 'NONE', #930, .T. ) ;
#633 = ORIENTED_EDGE ( 'NONE', *, *, #320, .F. ) ;
#634 = DIRECTION ( 'NONE',  ( 0.000000000000000000, -1.000000000000000000, 0.000000000000000000 ) ) ;
#635 = CIRCLE ( 'NONE', #257, 3.499999999999989342 ) ;
#636 = COLOUR_RGB ( '',0.7921568627450980005, 0.8196078431372548767, 0.9333333333333333481 ) ;
#637 = DIRECTION ( 'NONE',  ( 6.938893903907228378E-17, -9.251858538542975279E-17, 1.000000000000000000 ) ) ;
#638 = VECTOR ( 'NONE', #48, 1000.000000000000000 ) ;
#639 = EDGE_CURVE ( 'NONE', #1080, #4, #1111, .T. ) ;
#640 = LINE ( 'NONE', #39, #402 ) ;
#641 = ORIENTED_EDGE ( 'NONE', *, *, #848, .F. ) ;
#642 = DIRECTION ( 'NONE',  ( -0.000000000000000000, -0.000000000000000000, 1.000000000000000000 ) ) ;
#643 = CARTESIAN_POINT ( 'NONE',  ( 318.0000000000000000, 74.99999999999991473, -111.0000000000000711 ) ) ;
#644 = FACE_OUTER_BOUND ( 'NONE', #943, .T. ) ;
#645 = DIRECTION ( 'NONE',  ( -0.000000000000000000, -0.000000000000000000, 1.000000000000000000 ) ) ;
#646 = VERTEX_POINT ( 'NONE', #662 ) ;
#647 = EDGE_CURVE ( 'NONE', #1108, #368, #30, .T. ) ;
#648 = VERTEX_POINT ( 'NONE', #1025 ) ;
#649 = DIRECTION ( 'NONE',  ( -0.000000000000000000, -0.000000000000000000, 1.000000000000000000 ) ) ;
#650 = ORIENTED_EDGE ( 'NONE', *, *, #676, .F. ) ;
#651 = AXIS2_PLACEMENT_3D ( 'NONE', #558, #760, #912 ) ;
#652 = DIRECTION ( 'NONE',  ( 1.000000000000000000, 0.000000000000000000, -0.000000000000000000 ) ) ;
#653 = LINE ( 'NONE', #931, #638 ) ;
#654 = AXIS2_PLACEMENT_3D ( 'NONE', #521, #93, #953 ) ;
#655 = CARTESIAN_POINT ( 'NONE',  ( 457.5000000000000000, 74.99999999999992895, 108.0000000000000142 ) ) ;
#656 = AXIS2_PLACEMENT_3D ( 'NONE', #321, #144, #72 ) ;
#657 = ORIENTED_EDGE ( 'NONE', *, *, #978, .F. ) ;
#658 = VECTOR ( 'NONE', #446, 1000.000000000000000 ) ;
#659 = ORIENTED_EDGE ( 'NONE', *, *, #134, .F. ) ;
#660 = EDGE_CURVE ( 'NONE', #927, #569, #1100, .T. ) ;
#661 = CYLINDRICAL_SURFACE ( 'NONE', #651, 3.500000000000003109 ) ;
#662 = CARTESIAN_POINT ( 'NONE',  ( 42.49999999999998579, 74.99999999999988631, -111.0000000000000711 ) ) ;
#663 = ORIENTED_EDGE ( 'NONE', *, *, #720, .F. ) ;
#664 = FACE_OUTER_BOUND ( 'NONE', #920, .T. ) ;
#665 = VERTEX_POINT ( 'NONE', #655 ) ;
#666 = DIRECTION ( 'NONE',  ( -0.000000000000000000, -0.000000000000000000, 1.000000000000000000 ) ) ;
#667 = FACE_BOUND ( 'NONE', #801, .T. ) ;
#668 = EDGE_CURVE ( 'NONE', #951, #563, #923, .T. ) ;
#669 = CARTESIAN_POINT ( 'NONE',  ( 45.99999999999998579, 74.99999999999988631, -108.0000000000000426 ) ) ;
#670 = VERTEX_POINT ( 'NONE', #561 ) ;
#671 = CARTESIAN_POINT ( 'NONE',  ( 454.0000000000000000, 74.99999999999992895, -111.0000000000000711 ) ) ;
#672 = CARTESIAN_POINT ( 'NONE',  ( 45.99999999999998579, 74.99999999999988631, 108.0000000000000142 ) ) ;
#673 = AXIS2_PLACEMENT_3D ( 'NONE', #386, #733, #475 ) ;
#674 = CARTESIAN_POINT ( 'NONE',  ( 42.49999999999998579, 74.99999999999988631, 111.0000000000000000 ) ) ;
#675 = ORIENTED_EDGE ( 'NONE', *, *, #218, .T. ) ;
#676 = EDGE_CURVE ( 'NONE', #881, #941, #399, .T. ) ;
#677 = CARTESIAN_POINT ( 'NONE',  ( -500.0000000000000000, 0.000000000000000000, 111.0000000000000000 ) ) ;
#678 = EDGE_LOOP ( 'NONE', ( #441, #704, #448, #657 ) ) ;
#679 = CARTESIAN_POINT ( 'NONE',  ( 500.0000000000000000, 0.000000000000000000, 108.0000000000000000 ) ) ;
#680 = ORIENTED_EDGE ( 'NONE', *, *, #993, .T. ) ;
#681 = DIRECTION ( 'NONE',  ( 0.000000000000000000, 0.000000000000000000, 1.000000000000000000 ) ) ;
#682 = ORIENTED_EDGE ( 'NONE', *, *, #279, .F. ) ;
#683 = DIRECTION ( 'NONE',  ( 0.000000000000000000, 1.000000000000000000, 3.700743415417188632E-16 ) ) ;
#684 = EDGE_LOOP ( 'NONE', ( #141, #78, #429, #782 ) ) ;
#685 = DIRECTION ( 'NONE',  ( -0.000000000000000000, -0.000000000000000000, 1.000000000000000000 ) ) ;
#686 = ORIENTED_EDGE ( 'NONE', *, *, #899, .F. ) ;
#687 = LINE ( 'NONE', #957, #453 ) ;
#688 = DIRECTION ( 'NONE',  ( 0.000000000000000000, 0.000000000000000000, 1.000000000000000000 ) ) ;
#689 = VERTEX_POINT ( 'NONE', #135 ) ;
#690 = VECTOR ( 'NONE', #880, 1000.000000000000000 ) ;
#691 = AXIS2_PLACEMENT_3D ( 'NONE', #597, #614, #785 ) ;
#692 = ADVANCED_FACE ( 'NONE', ( #239 ), #485, .T. ) ;
#693 = DIRECTION ( 'NONE',  ( 1.000000000000000000, 0.000000000000000000, 0.000000000000000000 ) ) ;
#694 = DIRECTION ( 'NONE',  ( 0.000000000000000000, -1.000000000000000000, -9.251858538542975279E-17 ) ) ;
#695 = EDGE_LOOP ( 'NONE', ( #326, #628, #874, #902 ) ) ;
#696 = CARTESIAN_POINT ( 'NONE',  ( 45.99999999999998579, 74.99999999999988631, -111.0000000000000711 ) ) ;
#697 = DIRECTION ( 'NONE',  ( -0.000000000000000000, -0.000000000000000000, 1.000000000000000000 ) ) ;
#698 = EDGE_CURVE ( 'NONE', #495, #927, #1024, .T. ) ;
#699 = CARTESIAN_POINT ( 'NONE',  ( 182.0000000000000000, 74.99999999999990052, -108.0000000000000426 ) ) ;
#700 = ORIENTED_EDGE ( 'NONE', *, *, #457, .F. ) ;
#701 = DIRECTION ( 'NONE',  ( 0.000000000000000000, 0.000000000000000000, -1.000000000000000000 ) ) ;
#702 = DIRECTION ( 'NONE',  ( 1.000000000000000000, 0.000000000000000000, 0.000000000000000000 ) ) ;
#703 = DIRECTION ( 'NONE',  ( 0.000000000000000000, 0.000000000000000000, 1.000000000000000000 ) ) ;
#704 = ORIENTED_EDGE ( 'NONE', *, *, #947, .T. ) ;
#705 = EDGE_CURVE ( 'NONE', #612, #731, #541, .T. ) ;
#706 = CIRCLE ( 'NONE', #435, 3.500000000000003109 ) ;
#707 = AXIS2_PLACEMENT_3D ( 'NONE', #735, #645, #980 ) ;
#708 = VECTOR ( 'NONE', #249, 1000.000000000000000 ) ;
#709 = FACE_OUTER_BOUND ( 'NONE', #678, .T. ) ;
#710 = AXIS2_PLACEMENT_3D ( 'NONE', #203, #809, #804 ) ;
#711 = CARTESIAN_POINT ( 'NONE',  ( 500.0000000000000000, 150.0000000000000000, 108.0000000000000568 ) ) ;
#712 = FACE_BOUND ( 'NONE', #112, .T. ) ;
#713 = ORIENTED_EDGE ( 'NONE', *, *, #610, .F. ) ;
#714 = DIRECTION ( 'NONE',  ( 0.000000000000000000, 1.000000000000000000, 0.000000000000000000 ) ) ;
#715 = EDGE_CURVE ( 'NONE', #731, #612, #875, .T. ) ;
#716 = CARTESIAN_POINT ( 'NONE',  ( 182.0000000000000000, 74.99999999999990052, -111.0000000000000711 ) ) ;
#717 = SURFACE_STYLE_USAGE ( .BOTH. , #372 ) ;
#718 = VERTEX_POINT ( 'NONE', #1105 ) ;
#719 = CARTESIAN_POINT ( 'NONE',  ( 500.0000000000000000, 150.0000000000000000, 111.0000000000000000 ) ) ;
#720 = EDGE_CURVE ( 'NONE', #770, #936, #870, .T. ) ;
#721 = PLANE ( 'NONE',  #15 ) ;
#722 = FACE_BOUND ( 'NONE', #431, .T. ) ;
#723 = EDGE_LOOP ( 'NONE', ( #75, #117 ) ) ;
#724 = AXIS2_PLACEMENT_3D ( 'NONE', #362, #1053, #118 ) ;
#725 = DIRECTION ( 'NONE',  ( 1.000000000000000000, 0.000000000000000000, 0.000000000000000000 ) ) ;
#726 = CIRCLE ( 'NONE', #654, 111.0000000000000000 ) ;
#727 = DIRECTION ( 'NONE',  ( 0.000000000000000000, 0.000000000000000000, 1.000000000000000000 ) ) ;
#728 = EDGE_CURVE ( 'NONE', #1112, #1015, #310, .T. ) ;
#729 = VECTOR ( 'NONE', #1010, 1000.000000000000000 ) ;
#730 = DIRECTION ( 'NONE',  ( 1.000000000000000000, 0.000000000000000000, 0.000000000000000000 ) ) ;
#731 = VERTEX_POINT ( 'NONE', #865 ) ;
#732 = ORIENTED_EDGE ( 'NONE', *, *, #110, .F. ) ;
#733 = DIRECTION ( 'NONE',  ( 0.000000000000000000, 0.000000000000000000, -1.000000000000000000 ) ) ;
#734 = CARTESIAN_POINT ( 'NONE',  ( -500.0000000000000000, 0.000000000000000000, 108.0000000000000000 ) ) ;
#735 = CARTESIAN_POINT ( 'NONE',  ( 182.0000000000000000, 74.99999999999990052, -111.0000000000000711 ) ) ;
#736 = VERTEX_POINT ( 'NONE', #609 ) ;
#737 = ORIENTED_EDGE ( 'NONE', *, *, #178, .F. ) ;
#738 = DIRECTION ( 'NONE',  ( -0.000000000000000000, -0.000000000000000000, 1.000000000000000000 ) ) ;
#739 = DIRECTION ( 'NONE',  ( 0.000000000000000000, 0.000000000000000000, 1.000000000000000000 ) ) ;
#740 = PRODUCT_DEFINITION_CONTEXT ( 'detailed design', #126, 'design' ) ;
#741 = FACE_OUTER_BOUND ( 'NONE', #822, .T. ) ;
#742 = ORIENTED_EDGE ( 'NONE', *, *, #197, .F. ) ;
#743 = PRODUCT_DEFINITION_SHAPE ( 'NONE', 'NONE',  #379 ) ;
#744 = VERTEX_POINT ( 'NONE', #11 ) ;
#745 = ADVANCED_FACE ( 'NONE', ( #253 ), #1035, .T. ) ;
#746 = VECTOR ( 'NONE', #489, 1000.000000000000000 ) ;
#747 = ORIENTED_EDGE ( 'NONE', *, *, #218, .F. ) ;
#748 =( LENGTH_UNIT ( ) NAMED_UNIT ( * ) SI_UNIT ( .MILLI., .METRE. ) );
#749 = CIRCLE ( 'NONE', #451, 3.500000000000003109 ) ;
#750 = CARTESIAN_POINT ( 'NONE',  ( 500.0000000000000000, 0.000000000000000000, 0.000000000000000000 ) ) ;
#751 = VECTOR ( 'NONE', #77, 1000.000000000000000 ) ;
#752 = ORIENTED_EDGE ( 'NONE', *, *, #551, .T. ) ;
#753 = LINE ( 'NONE', #677, #450 ) ;
#754 = ORIENTED_EDGE ( 'NONE', *, *, #783, .T. ) ;
#755 = EDGE_CURVE ( 'NONE', #195, #217, #1049, .T. ) ;
#756 = FACE_OUTER_BOUND ( 'NONE', #985, .T. ) ;
#757 = CARTESIAN_POINT ( 'NONE',  ( 318.0000000000000000, 74.99999999999991473, 108.0000000000000142 ) ) ;
#758 = EDGE_LOOP ( 'NONE', ( #682, #395, #94, #121 ) ) ;
#759 = DIRECTION ( 'NONE',  ( 0.000000000000000000, 1.000000000000000000, 0.000000000000000000 ) ) ;
#760 = DIRECTION ( 'NONE',  ( -0.000000000000000000, -0.000000000000000000, 1.000000000000000000 ) ) ;
#761 = DIRECTION ( 'NONE',  ( -0.000000000000000000, -0.000000000000000000, 1.000000000000000000 ) ) ;
#762 = DIRECTION ( 'NONE',  ( 1.000000000000000000, 0.000000000000000000, 0.000000000000000000 ) ) ;
#763 = ORIENTED_EDGE ( 'NONE', *, *, #1069, .T. ) ;
#764 = LINE ( 'NONE', #161, #1004 ) ;
#765 = ORIENTED_EDGE ( 'NONE', *, *, #285, .F. ) ;
#766 =( NAMED_UNIT ( * ) PLANE_ANGLE_UNIT ( ) SI_UNIT ( $, .RADIAN. ) );
#767 = VECTOR ( 'NONE', #642, 1000.000000000000000 ) ;
#768 = DIRECTION ( 'NONE',  ( 0.000000000000000000, -1.000000000000000000, 0.000000000000000000 ) ) ;
#769 = CIRCLE ( 'NONE', #346, 3.500000000000003109 ) ;
#770 = VERTEX_POINT ( 'NONE', #679 ) ;
#771 =( GEOMETRIC_REPRESENTATION_CONTEXT ( 3 ) GLOBAL_UNCERTAINTY_ASSIGNED_CONTEXT ( ( #53 ) ) GLOBAL_UNIT_ASSIGNED_CONTEXT ( ( #216, #389, #844 ) ) REPRESENTATION_CONTEXT ( 'NONE', 'WORKASPACE' ) );
#772 = CARTESIAN_POINT ( 'NONE',  ( 0.000000000000000000, 0.000000000000000000, 0.000000000000000000 ) ) ;
#773 = ORIENTED_EDGE ( 'NONE', *, *, #345, .F. ) ;
#774 = AXIS2_PLACEMENT_3D ( 'NONE', #955, #81, #869 ) ;
#775 = DIRECTION ( 'NONE',  ( 0.000000000000000000, 0.000000000000000000, 1.000000000000000000 ) ) ;
#776 = ORIENTED_EDGE ( 'NONE', *, *, #956, .T. ) ;
#777 = CARTESIAN_POINT ( 'NONE',  ( 0.000000000000000000, -38.91891891891865640, -100.7438223921578100 ) ) ;
#778 = EDGE_LOOP ( 'NONE', ( #582, #675, #587, #422 ) ) ;
#779 = CARTESIAN_POINT ( 'NONE',  ( 0.000000000000000000, -39.99999999999987210, 103.5422619030510134 ) ) ;
#780 = ORIENTED_EDGE ( 'NONE', *, *, #304, .T. ) ;
#781 = CARTESIAN_POINT ( 'NONE',  ( 318.0000000000000000, 74.99999999999991473, 111.0000000000000000 ) ) ;
#782 = ORIENTED_EDGE ( 'NONE', *, *, #311, .T. ) ;
#783 = EDGE_CURVE ( 'NONE', #368, #861, #349, .T. ) ;
#784 = APPLICATION_PROTOCOL_DEFINITION ( 'draft international standard', 'automotive_design', 1998, #286 ) ;
#785 = DIRECTION ( 'NONE',  ( -1.000000000000000000, -2.775557561562891351E-17, 6.938893903907228378E-17 ) ) ;
#786 = CIRCLE ( 'NONE', #673, 3.500000000000003109 ) ;
#787 = CARTESIAN_POINT ( 'NONE',  ( 1057.519751196242169, -39.99999999999970157, -103.5422619030510845 ) ) ;
#788 = AXIS2_PLACEMENT_3D ( 'NONE', #781, #175, #86 ) ;
#789 = ORIENTED_EDGE ( 'NONE', *, *, #355, .T. ) ;
#790 = AXIS2_PLACEMENT_3D ( 'NONE', #559, #739, #1086 ) ;
#791 = CIRCLE ( 'NONE', #583, 3.500000000000003109 ) ;
#792 = FACE_OUTER_BOUND ( 'NONE', #573, .T. ) ;
#793 = DIRECTION ( 'NONE',  ( 1.000000000000000000, 0.000000000000000000, 0.000000000000000000 ) ) ;
#794 = ORIENTED_EDGE ( 'NONE', *, *, #868, .T. ) ;
#795 = CARTESIAN_POINT ( 'NONE',  ( -300.0000000000000568, -38.91891891891890509, 100.7438223921577105 ) ) ;
#796 = EDGE_CURVE ( 'NONE', #1033, #563, #473, .T. ) ;
#797 = DIRECTION ( 'NONE',  ( 1.000000000000000000, 0.000000000000000000, 0.000000000000000000 ) ) ;
#798 = EDGE_LOOP ( 'NONE', ( #1084, #1065, #29, #318 ) ) ;
#799 = DIRECTION ( 'NONE',  ( 1.000000000000000000, 0.000000000000000000, -0.000000000000000000 ) ) ;
#800 = DIRECTION ( 'NONE',  ( -0.000000000000000000, -0.000000000000000000, 1.000000000000000000 ) ) ;
#801 = EDGE_LOOP ( 'NONE', ( #267, #300, #211, #391 ) ) ;
#802 = VECTOR ( 'NONE', #851, 1000.000000000000000 ) ;
#803 = VECTOR ( 'NONE', #879, 1000.000000000000000 ) ;
#804 = DIRECTION ( 'NONE',  ( 0.000000000000000000, -1.000000000000000000, 0.000000000000000000 ) ) ;
#805 = CYLINDRICAL_SURFACE ( 'NONE', #205, 3.500000000000003109 ) ;
#806 = ORIENTED_EDGE ( 'NONE', *, *, #889, .F. ) ;
#807 = EDGE_CURVE ( 'NONE', #936, #217, #341, .T. ) ;
#808 = CYLINDRICAL_SURFACE ( 'NONE', #470, 108.0000000000000000 ) ;
#809 = DIRECTION ( 'NONE',  ( 6.938893903907228378E-17, -9.251858538542975279E-17, 1.000000000000000000 ) ) ;
#810 = CYLINDRICAL_SURFACE ( 'NONE', #707, 3.500000000000003109 ) ;
#811 = ORIENTED_EDGE ( 'NONE', *, *, #910, .F. ) ;
#812 = ADVANCED_FACE ( 'NONE', ( #6 ), #520, .F. ) ;
#813 = FACE_OUTER_BOUND ( 'NONE', #778, .T. ) ;
#814 = DIRECTION ( 'NONE',  ( 0.000000000000000000, 0.9328131702977574546, -0.3603603603603579009 ) ) ;
#815 = FACE_OUTER_BOUND ( 'NONE', #337, .T. ) ;
#816 = ORIENTED_EDGE ( 'NONE', *, *, #728, .T. ) ;
#817 = STYLED_ITEM ( 'NONE', ( #376 ), #590 ) ;
#818 = CARTESIAN_POINT ( 'NONE',  ( 454.0000000000000000, 74.99999999999992895, 108.0000000000000142 ) ) ;
#819 = LINE ( 'NONE', #631, #658 ) ;
#820 = VECTOR ( 'NONE', #452, 1000.000000000000000 ) ;
#821 = DIRECTION ( 'NONE',  ( 1.000000000000000000, 0.000000000000000000, 0.000000000000000000 ) ) ;
#822 = EDGE_LOOP ( 'NONE', ( #160, #2, #502, #180 ) ) ;
#823 = FACE_OUTER_BOUND ( 'NONE', #595, .T. ) ;
#824 = CARTESIAN_POINT ( 'NONE',  ( 321.5000000000000000, 74.99999999999991473, 108.0000000000000142 ) ) ;
#825 = EDGE_CURVE ( 'NONE', #945, #23, #443, .T. ) ;
#826 = CARTESIAN_POINT ( 'NONE',  ( 500.0000000000000000, 3.570032282282133633E-14, -111.0000000000000000 ) ) ;
#827 = ORIENTED_EDGE ( 'NONE', *, *, #610, .T. ) ;
#828 = PLANE ( 'NONE',  #834 ) ;
#829 = CARTESIAN_POINT ( 'NONE',  ( -300.0000000000000568, 0.000000000000000000, 0.000000000000000000 ) ) ;
#830 = CARTESIAN_POINT ( 'NONE',  ( 178.5000000000000000, 74.99999999999990052, -111.0000000000000711 ) ) ;
#831 = ORIENTED_EDGE ( 'NONE', *, *, #10, .F. ) ;
#832 = EDGE_CURVE ( 'NONE', #563, #1033, #619, .T. ) ;
#833 = CARTESIAN_POINT ( 'NONE',  ( 454.0000000000000000, 74.99999999999992895, 108.0000000000000142 ) ) ;
#834 = AXIS2_PLACEMENT_3D ( 'NONE', #70, #398, #835 ) ;
#835 = DIRECTION ( 'NONE',  ( 0.000000000000000000, -1.000000000000000000, -9.251858538542975279E-17 ) ) ;
#836 = CIRCLE ( 'NONE', #330, 3.500000000000003109 ) ;
#837 = DIRECTION ( 'NONE',  ( 1.000000000000000000, 0.000000000000000000, -0.000000000000000000 ) ) ;
#838 = VERTEX_POINT ( 'NONE', #439 ) ;
#839 = CIRCLE ( 'NONE', #710, 3.500000000000016875 ) ;
#840 = DIRECTION ( 'NONE',  ( 1.000000000000000000, 0.000000000000000000, -0.000000000000000000 ) ) ;
#841 = ADVANCED_FACE ( 'NONE', ( #792 ), #1, .T. ) ;
#842 = CARTESIAN_POINT ( 'NONE',  ( 321.5000000000000000, 74.99999999999991473, -111.0000000000000711 ) ) ;
#843 = DIRECTION ( 'NONE',  ( -0.000000000000000000, -0.000000000000000000, 1.000000000000000000 ) ) ;
#844 =( NAMED_UNIT ( * ) SI_UNIT ( $, .STERADIAN. ) SOLID_ANGLE_UNIT ( ) );
#845 = ORIENTED_EDGE ( 'NONE', *, *, #1113, .F. ) ;
#846 = CARTESIAN_POINT ( 'NONE',  ( -500.0000000000000000, 150.0000000000000000, 108.0000000000000000 ) ) ;
#847 = ORIENTED_EDGE ( 'NONE', *, *, #178, .T. ) ;
#848 = EDGE_CURVE ( 'NONE', #100, #936, #966, .T. ) ;
#849 = CARTESIAN_POINT ( 'NONE',  ( 0.000000000000000000, -38.91891891891878430, 100.7438223921577531 ) ) ;
#850 = ORIENTED_EDGE ( 'NONE', *, *, #425, .T. ) ;
#851 = DIRECTION ( 'NONE',  ( -0.000000000000000000, -0.000000000000000000, 1.000000000000000000 ) ) ;
#852 = EDGE_LOOP ( 'NONE', ( #867, #816 ) ) ;
#853 = AXIS2_PLACEMENT_3D ( 'NONE', #982, #202, #538 ) ;
#854 = CARTESIAN_POINT ( 'NONE',  ( 42.49999999999998579, 74.99999999999988631, -111.0000000000000711 ) ) ;
#855 = ORIENTED_EDGE ( 'NONE', *, *, #61, .T. ) ;
#856 = AXIS2_PLACEMENT_3D ( 'NONE', #177, #504, #18 ) ;
#857 = DIRECTION ( 'NONE',  ( 1.000000000000000000, 0.000000000000000000, 0.000000000000000000 ) ) ;
#858 = ORIENTED_EDGE ( 'NONE', *, *, #10, .T. ) ;
#859 = DIRECTION ( 'NONE',  ( 0.000000000000000000, 0.000000000000000000, -1.000000000000000000 ) ) ;
#860 = LINE ( 'NONE', #102, #708 ) ;
#861 = VERTEX_POINT ( 'NONE', #511 ) ;
#862 = EDGE_CURVE ( 'NONE', #385, #612, #336, .T. ) ;
#863 = CYLINDRICAL_SURFACE ( 'NONE', #149, 3.500000000000003109 ) ;
#864 = VERTEX_POINT ( 'NONE', #605 ) ;
#865 = CARTESIAN_POINT ( 'NONE',  ( 49.49999999999998579, 74.99999999999988631, 111.0000000000000000 ) ) ;
#866 = LINE ( 'NONE', #266, #969 ) ;
#867 = ORIENTED_EDGE ( 'NONE', *, *, #396, .T. ) ;
#868 = EDGE_CURVE ( 'NONE', #129, #1080, #860, .T. ) ;
#869 = DIRECTION ( 'NONE',  ( 1.000000000000000000, 0.000000000000000000, 0.000000000000000000 ) ) ;
#870 = LINE ( 'NONE', #164, #1042 ) ;
#871 = AXIS2_PLACEMENT_3D ( 'NONE', #463, #701, #977 ) ;
#872 = DIRECTION ( 'NONE',  ( 0.000000000000000000, -1.000000000000000000, 0.000000000000000000 ) ) ;
#873 = CIRCLE ( 'NONE', #274, 111.0000000000000000 ) ;
#874 = ORIENTED_EDGE ( 'NONE', *, *, #567, .T. ) ;
#875 = CIRCLE ( 'NONE', #971, 3.500000000000003109 ) ;
#876 = VECTOR ( 'NONE', #761, 1000.000000000000000 ) ;
#877 = ADVANCED_FACE ( 'NONE', ( #592 ), #942, .F. ) ;
#878 = CARTESIAN_POINT ( 'NONE',  ( -300.0000000000000568, -38.91891891891865640, -100.7438223921578100 ) ) ;
#879 = DIRECTION ( 'NONE',  ( -0.000000000000000000, -0.000000000000000000, 1.000000000000000000 ) ) ;
#880 = DIRECTION ( 'NONE',  ( 1.000000000000000000, -0.000000000000000000, -0.000000000000000000 ) ) ;
#881 = VERTEX_POINT ( 'NONE', #779 ) ;
#882 = EDGE_CURVE ( 'NONE', #129, #219, #687, .T. ) ;
#883 = LINE ( 'NONE', #548, #564 ) ;
#884 = DIRECTION ( 'NONE',  ( -1.000000000000000000, 0.000000000000000000, -0.000000000000000000 ) ) ;
#885 = ORIENTED_EDGE ( 'NONE', *, *, #647, .T. ) ;
#886 = LINE ( 'NONE', #878, #186 ) ;
#887 = ADVANCED_BREP_SHAPE_REPRESENTATION ( '25.SHT.G.01.00.00.01  \X2\04160435043b043e0431\X0\ \X2\0432044b0433044004430437043a0438\X0\', ( #590, #774 ), #1026 ) ;
#888 = DIRECTION ( 'NONE',  ( 0.000000000000000000, -1.000000000000000000, 0.000000000000000000 ) ) ;
#889 = EDGE_CURVE ( 'NONE', #201, #235, #365, .T. ) ;
#890 = CARTESIAN_POINT ( 'NONE',  ( 178.5000000000000000, 74.99999999999990052, 111.0000000000000000 ) ) ;
#891 = ORIENTED_EDGE ( 'NONE', *, *, #862, .T. ) ;
#892 = VECTOR ( 'NONE', #759, 1000.000000000000000 ) ;
#893 = AXIS2_PLACEMENT_3D ( 'NONE', #984, #106, #194 ) ;
#894 = VECTOR ( 'NONE', #234, 1000.000000000000000 ) ;
#895 = CARTESIAN_POINT ( 'NONE',  ( -500.0000000000000000, 150.0000000000000000, 111.0000000000000000 ) ) ;
#896 = DIRECTION ( 'NONE',  ( 6.938893903907228378E-17, -9.251858538542975279E-17, 1.000000000000000000 ) ) ;
#897 = CARTESIAN_POINT ( 'NONE',  ( 321.5000000000000000, 74.99999999999991473, -111.0000000000000711 ) ) ;
#898 = EDGE_LOOP ( 'NONE', ( #256, #575 ) ) ;
#899 = EDGE_CURVE ( 'NONE', #838, #223, #883, .T. ) ;
#900 = PLANE ( 'NONE',  #724 ) ;
#901 = CARTESIAN_POINT ( 'NONE',  ( 0.000000000000000000, -38.91891891891878430, 100.7438223921577531 ) ) ;
#902 = ORIENTED_EDGE ( 'NONE', *, *, #882, .F. ) ;
#903 = CARTESIAN_POINT ( 'NONE',  ( -500.0000000000000000, 149.9999999999999716, -107.9999999999999858 ) ) ;
#904 = EDGE_CURVE ( 'NONE', #608, #569, #1093, .T. ) ;
#905 = ORIENTED_EDGE ( 'NONE', *, *, #410, .T. ) ;
#906 = DIRECTION ( 'NONE',  ( -1.000000000000000000, -6.419766481290789370E-33, 6.938893903907228378E-17 ) ) ;
#907 = DIRECTION ( 'NONE',  ( 6.938893903907228378E-17, -9.251858538542975279E-17, 1.000000000000000000 ) ) ;
#908 = EDGE_LOOP ( 'NONE', ( #250, #934 ) ) ;
#909 = AXIS2_PLACEMENT_3D ( 'NONE', #671, #255, #857 ) ;
#910 = EDGE_CURVE ( 'NONE', #970, #744, #98, .T. ) ;
#911 = VECTOR ( 'NONE', #432, 1000.000000000000000 ) ;
#912 = DIRECTION ( 'NONE',  ( 1.000000000000000000, 0.000000000000000000, 0.000000000000000000 ) ) ;
#913 = CARTESIAN_POINT ( 'NONE',  ( -500.0000000000000000, 1.359357947053562196E-14, 111.0000000000000000 ) ) ;
#914 = ORIENTED_EDGE ( 'NONE', *, *, #630, .T. ) ;
#915 = EDGE_LOOP ( 'NONE', ( #1002, #700 ) ) ;
#916 = CARTESIAN_POINT ( 'NONE',  ( 185.5000000000000000, 74.99999999999990052, 108.0000000000000142 ) ) ;
#917 = ADVANCED_FACE ( 'NONE', ( #644 ), #364, .F. ) ;
#918 = CARTESIAN_POINT ( 'NONE',  ( -300.0000000000000568, 0.000000000000000000, 0.000000000000000000 ) ) ;
#919 = ADVANCED_FACE ( 'NONE', ( #298 ), #996, .F. ) ;
#920 = EDGE_LOOP ( 'NONE', ( #1060, #1029, #914, #247 ) ) ;
#921 = DIRECTION ( 'NONE',  ( 1.000000000000000000, 0.000000000000000000, 0.000000000000000000 ) ) ;
#922 = DIRECTION ( 'NONE',  ( -0.000000000000000000, -0.000000000000000000, 1.000000000000000000 ) ) ;
#923 = LINE ( 'NONE', #830, #294 ) ;
#924 = ORIENTED_EDGE ( 'NONE', *, *, #396, .F. ) ;
#925 = ADVANCED_FACE ( 'NONE', ( #530 ), #287, .F. ) ;
#926 = DIRECTION ( 'NONE',  ( 0.000000000000000000, 0.000000000000000000, -1.000000000000000000 ) ) ;
#927 = VERTEX_POINT ( 'NONE', #41 ) ;
#928 = AXIS2_PLACEMENT_3D ( 'NONE', #392, #738, #1085 ) ;
#929 = CIRCLE ( 'NONE', #44, 3.500000000000016875 ) ;
#930 = EDGE_LOOP ( 'NONE', ( #278, #419 ) ) ;
#931 = CARTESIAN_POINT ( 'NONE',  ( 0.000000000000000000, 0.000000000000000000, 111.0000000000000000 ) ) ;
#932 = PRESENTATION_LAYER_ASSIGNMENT (  '', '', ( #817 ) ) ;
#933 = DIRECTION ( 'NONE',  ( 0.000000000000000000, 1.000000000000000000, 0.000000000000000000 ) ) ;
#934 = ORIENTED_EDGE ( 'NONE', *, *, #469, .T. ) ;
#935 = LINE ( 'NONE', #994, #12 ) ;
#936 = VERTEX_POINT ( 'NONE', #711 ) ;
#937 = CARTESIAN_POINT ( 'NONE',  ( 185.5000000000000000, 74.99999999999990052, 111.0000000000000000 ) ) ;
#938 = DIRECTION ( 'NONE',  ( -1.000000000000000000, 0.000000000000000000, 0.000000000000000000 ) ) ;
#939 = ORIENTED_EDGE ( 'NONE', *, *, #783, .F. ) ;
#940 = PLANE ( 'NONE',  #600 ) ;
#941 = VERTEX_POINT ( 'NONE', #901 ) ;
#942 = PLANE ( 'NONE',  #276 ) ;
#943 = EDGE_LOOP ( 'NONE', ( #939, #855, #593, #752 ) ) ;
#944 = CARTESIAN_POINT ( 'NONE',  ( -500.0000000000000000, 0.000000000000000000, 108.0000000000000000 ) ) ;
#945 = VERTEX_POINT ( 'NONE', #119 ) ;
#946 = PRODUCT_CONTEXT ( 'NONE', #286, 'mechanical' ) ;
#947 = EDGE_CURVE ( 'NONE', #646, #87, #819, .T. ) ;
#948 = AXIS2_PLACEMENT_3D ( 'NONE', #501, #1014, #725 ) ;
#949 = CARTESIAN_POINT ( 'NONE',  ( -500.0000000000000000, 150.0000000000000000, 108.0000000000000000 ) ) ;
#950 = CIRCLE ( 'NONE', #486, 3.500000000000003109 ) ;
#951 = VERTEX_POINT ( 'NONE', #193 ) ;
#952 = VECTOR ( 'NONE', #697, 1000.000000000000000 ) ;
#953 = DIRECTION ( 'NONE',  ( 0.000000000000000000, 0.000000000000000000, 1.000000000000000000 ) ) ;
#954 = ORIENTED_EDGE ( 'NONE', *, *, #359, .F. ) ;
#955 = CARTESIAN_POINT ( 'NONE',  ( 0.000000000000000000, 0.000000000000000000, 0.000000000000000000 ) ) ;
#956 = EDGE_CURVE ( 'NONE', #770, #240, #464, .T. ) ;
#957 = CARTESIAN_POINT ( 'NONE',  ( 500.0000000000000000, 150.0000000000000000, -108.0000000000000568 ) ) ;
#958 = LINE ( 'NONE', #277, #690 ) ;
#959 = ORIENTED_EDGE ( 'NONE', *, *, #832, .T. ) ;
#960 = CARTESIAN_POINT ( 'NONE',  ( 185.5000000000000000, 74.99999999999990052, -108.0000000000000426 ) ) ;
#961 = CARTESIAN_POINT ( 'NONE',  ( 314.5000000000000000, 74.99999999999991473, -111.0000000000000711 ) ) ;
#962 = CARTESIAN_POINT ( 'NONE',  ( 45.99999999999998579, 74.99999999999988631, -111.0000000000000711 ) ) ;
#963 = EDGE_LOOP ( 'NONE', ( #227, #303 ) ) ;
#964 = ADVANCED_FACE ( 'NONE', ( #378 ), #104, .F. ) ;
#965 = DIRECTION ( 'NONE',  ( 1.000000000000000000, 0.000000000000000000, 0.000000000000000000 ) ) ;
#966 = LINE ( 'NONE', #188, #170 ) ;
#967 = AXIS2_PLACEMENT_3D ( 'NONE', #696, #1048, #965 ) ;
#968 = CARTESIAN_POINT ( 'NONE',  ( 454.0000000000000000, 74.99999999999992895, -111.0000000000000711 ) ) ;
#969 = VECTOR ( 'NONE', #1051, 1000.000000000000000 ) ;
#970 = VERTEX_POINT ( 'NONE', #1054 ) ;
#971 = AXIS2_PLACEMENT_3D ( 'NONE', #1012, #66, #762 ) ;
#972 = ADVANCED_FACE ( 'NONE', ( #621 ), #1058, .F. ) ;
#973 = AXIS2_PLACEMENT_3D ( 'NONE', #244, #138, #1017 ) ;
#974 = CARTESIAN_POINT ( 'NONE',  ( -150.0000000000000284, -38.91891891891865640, -100.7438223921578100 ) ) ;
#975 = DIRECTION ( 'NONE',  ( -0.000000000000000000, 0.3603603603603578454, 0.9328131702977573436 ) ) ;
#976 = ORIENTED_EDGE ( 'NONE', *, *, #551, .F. ) ;
#977 = DIRECTION ( 'NONE',  ( -1.000000000000000000, 0.000000000000000000, 0.000000000000000000 ) ) ;
#978 = EDGE_CURVE ( 'NONE', #174, #670, #109, .T. ) ;
#979 = CARTESIAN_POINT ( 'NONE',  ( 182.0000000000000000, 74.99999999999990052, -111.0000000000000711 ) ) ;
#980 = DIRECTION ( 'NONE',  ( 1.000000000000000000, 0.000000000000000000, 0.000000000000000000 ) ) ;
#981 = ORIENTED_EDGE ( 'NONE', *, *, #947, .F. ) ;
#982 = CARTESIAN_POINT ( 'NONE',  ( 182.0000000000000000, 74.99999999999990052, 108.0000000000000142 ) ) ;
#983 = CARTESIAN_POINT ( 'NONE',  ( 49.49999999999998579, 74.99999999999988631, -111.0000000000000711 ) ) ;
#984 = CARTESIAN_POINT ( 'NONE',  ( 182.0000000000000000, 74.99999999999990052, -108.0000000000000426 ) ) ;
#985 = EDGE_LOOP ( 'NONE', ( #885, #754, #850, #434 ) ) ;
#986 = CIRCLE ( 'NONE', #292, 3.500000000000003109 ) ;
#987 = AXIS2_PLACEMENT_3D ( 'NONE', #171, #775, #515 ) ;
#988 = VECTOR ( 'NONE', #476, 1000.000000000000000 ) ;
#989 = CARTESIAN_POINT ( 'NONE',  ( 500.0000000000000000, 0.000000000000000000, 0.000000000000000000 ) ) ;
#990 = EDGE_CURVE ( 'NONE', #718, #1078, #839, .T. ) ;
#991 = FACE_OUTER_BOUND ( 'NONE', #59, .T. ) ;
#992 = ORIENTED_EDGE ( 'NONE', *, *, #173, .F. ) ;
#993 = EDGE_CURVE ( 'NONE', #838, #129, #371, .T. ) ;
#994 = CARTESIAN_POINT ( 'NONE',  ( 185.5000000000000000, 74.99999999999990052, -111.0000000000000711 ) ) ;
#995 = FACE_BOUND ( 'NONE', #1027, .T. ) ;
#996 = PLANE ( 'NONE',  #172 ) ;
#997 = EDGE_LOOP ( 'NONE', ( #976, #537 ) ) ;
#998 = EDGE_CURVE ( 'NONE', #235, #201, #438, .T. ) ;
#999 = ORIENTED_EDGE ( 'NONE', *, *, #1034, .T. ) ;
#1000 = CARTESIAN_POINT ( 'NONE',  ( 450.5000000000000000, 74.99999999999992895, -111.0000000000000711 ) ) ;
#1001 = DIRECTION ( 'NONE',  ( -1.000000000000000000, -0.000000000000000000, 0.000000000000000000 ) ) ;
#1002 = ORIENTED_EDGE ( 'NONE', *, *, #311, .F. ) ;
#1003 = ADVANCED_FACE ( 'NONE', ( #375 ), #721, .F. ) ;
#1004 = VECTOR ( 'NONE', #1107, 1000.000000000000000 ) ;
#1005 = CIRCLE ( 'NONE', #580, 108.0000000000000000 ) ;
#1006 = ORIENTED_EDGE ( 'NONE', *, *, #1050, .T. ) ;
#1007 = ORIENTED_EDGE ( 'NONE', *, *, #241, .T. ) ;
#1008 = VERTEX_POINT ( 'NONE', #1092 ) ;
#1009 = DIRECTION ( 'NONE',  ( 6.938893903907228378E-17, -9.251858538542975279E-17, 1.000000000000000000 ) ) ;
#1010 = DIRECTION ( 'NONE',  ( -1.000000000000000000, 0.000000000000000000, 0.000000000000000000 ) ) ;
#1011 = EDGE_CURVE ( 'NONE', #495, #770, #319, .T. ) ;
#1012 = CARTESIAN_POINT ( 'NONE',  ( 45.99999999999998579, 74.99999999999988631, 111.0000000000000000 ) ) ;
#1013 = ORIENTED_EDGE ( 'NONE', *, *, #374, .F. ) ;
#1014 = DIRECTION ( 'NONE',  ( -0.000000000000000000, -0.000000000000000000, 1.000000000000000000 ) ) ;
#1015 = VERTEX_POINT ( 'NONE', #228 ) ;
#1016 = VERTEX_POINT ( 'NONE', #916 ) ;
#1017 = DIRECTION ( 'NONE',  ( 0.000000000000000000, 0.000000000000000000, -1.000000000000000000 ) ) ;
#1018 = EDGE_CURVE ( 'NONE', #385, #487, #791, .T. ) ;
#1019 = CARTESIAN_POINT ( 'NONE',  ( 178.5000000000000000, 74.99999999999990052, -111.0000000000000711 ) ) ;
#1020 = ORIENTED_EDGE ( 'NONE', *, *, #264, .F. ) ;
#1021 = CARTESIAN_POINT ( 'NONE',  ( 314.5000000000000000, 74.99999999999991473, -111.0000000000000711 ) ) ;
#1022 = AXIS2_PLACEMENT_3D ( 'NONE', #611, #1055, #793 ) ;
#1023 = CARTESIAN_POINT ( 'NONE',  ( -500.0000000000000000, 3.473544923301535392E-14, -108.0000000000000000 ) ) ;
#1024 = CIRCLE ( 'NONE', #225, 111.0000000000000000 ) ;
#1025 = CARTESIAN_POINT ( 'NONE',  ( -299.9999999999999432, -38.91891891891866351, -100.7438223921578100 ) ) ;
#1026 =( GEOMETRIC_REPRESENTATION_CONTEXT ( 3 ) GLOBAL_UNCERTAINTY_ASSIGNED_CONTEXT ( ( #199 ) ) GLOBAL_UNIT_ASSIGNED_CONTEXT ( ( #748, #766, #263 ) ) REPRESENTATION_CONTEXT ( 'NONE', 'WORKASPACE' ) );
#1027 = EDGE_LOOP ( 'NONE', ( #811, #45 ) ) ;
#1028 = FACE_BOUND ( 'NONE', #85, .T. ) ;
#1029 = ORIENTED_EDGE ( 'NONE', *, *, #369, .T. ) ;
#1030 = DIRECTION ( 'NONE',  ( 0.000000000000000000, 0.000000000000000000, 1.000000000000000000 ) ) ;
#1031 = EDGE_LOOP ( 'NONE', ( #254, #532, #959, #316 ) ) ;
#1032 = LINE ( 'NONE', #156, #746 ) ;
#1033 = VERTEX_POINT ( 'NONE', #937 ) ;
#1034 = EDGE_CURVE ( 'NONE', #881, #945, #52, .T. ) ;
#1035 = PLANE ( 'NONE',  #691 ) ;
#1036 = ORIENTED_EDGE ( 'NONE', *, *, #348, .T. ) ;
#1037 = PLANE ( 'NONE',  #1056 ) ;
#1038 = EDGE_LOOP ( 'NONE', ( #641, #747, #89, #237 ) ) ;
#1039 = ADVANCED_FACE ( 'NONE', ( #220, #667 ), #576, .T. ) ;
#1040 = DIRECTION ( 'NONE',  ( -0.000000000000000000, 0.3603603603603602323, -0.9328131702977565665 ) ) ;
#1041 = VECTOR ( 'NONE', #975, 1000.000000000000114 ) ;
#1042 = VECTOR ( 'NONE', #683, 1000.000000000000000 ) ;
#1043 = CARTESIAN_POINT ( 'NONE',  ( 318.0000000000000000, 74.99999999999991473, -111.0000000000000711 ) ) ;
#1044 = ORIENTED_EDGE ( 'NONE', *, *, #998, .F. ) ;
#1045 = DIRECTION ( 'NONE',  ( 1.000000000000000000, 0.000000000000000000, 0.000000000000000000 ) ) ;
#1046 = CARTESIAN_POINT ( 'NONE',  ( 314.5000000000000000, 74.99999999999991473, 108.0000000000000142 ) ) ;
#1047 = ORIENTED_EDGE ( 'NONE', *, *, #1076, .T. ) ;
#1048 = DIRECTION ( 'NONE',  ( -0.000000000000000000, -0.000000000000000000, 1.000000000000000000 ) ) ;
#1049 = LINE ( 'NONE', #949, #911 ) ;
#1050 = EDGE_CURVE ( 'NONE', #608, #240, #133, .T. ) ;
#1051 = DIRECTION ( 'NONE',  ( -0.000000000000000000, -0.000000000000000000, 1.000000000000000000 ) ) ;
#1052 = ORIENTED_EDGE ( 'NONE', *, *, #1018, .T. ) ;
#1053 = DIRECTION ( 'NONE',  ( -1.000000000000000000, 0.000000000000000000, 0.000000000000000000 ) ) ;
#1054 = CARTESIAN_POINT ( 'NONE',  ( 457.5000000000000000, 74.99999999999992895, -108.0000000000000711 ) ) ;
#1055 = DIRECTION ( 'NONE',  ( 0.000000000000000000, 0.000000000000000000, 1.000000000000000000 ) ) ;
#1056 = AXIS2_PLACEMENT_3D ( 'NONE', #19, #356, #615 ) ;
#1057 = AXIS2_PLACEMENT_3D ( 'NONE', #757, #482, #332 ) ;
#1058 = CYLINDRICAL_SURFACE ( 'NONE', #84, 3.500000000000003109 ) ;
#1059 = FACE_BOUND ( 'NONE', #908, .T. ) ;
#1060 = ORIENTED_EDGE ( 'NONE', *, *, #728, .F. ) ;
#1061 = EDGE_CURVE ( 'NONE', #1115, #50, #387, .T. ) ;
#1062 = CARTESIAN_POINT ( 'NONE',  ( 500.0000000000000000, 0.000000000000000000, 0.000000000000000000 ) ) ;
#1063 = DIRECTION ( 'NONE',  ( -0.000000000000000000, -0.000000000000000000, 1.000000000000000000 ) ) ;
#1064 = FACE_BOUND ( 'NONE', #852, .T. ) ;
#1065 = ORIENTED_EDGE ( 'NONE', *, *, #285, .T. ) ;
#1066 = FACE_OUTER_BOUND ( 'NONE', #758, .T. ) ;
#1067 = EDGE_CURVE ( 'NONE', #487, #731, #1104, .T. ) ;
#1068 = CARTESIAN_POINT ( 'NONE',  ( -150.0000000000000284, -38.91891891891890509, 100.7438223921577105 ) ) ;
#1069 = EDGE_CURVE ( 'NONE', #569, #4, #393, .T. ) ;
#1070 = FACE_OUTER_BOUND ( 'NONE', #579, .T. ) ;
#1071 = AXIS2_PLACEMENT_3D ( 'NONE', #526, #36, #268 ) ;
#1072 = EDGE_LOOP ( 'NONE', ( #383, #390, #324, #474 ) ) ;
#1073 = VECTOR ( 'NONE', #843, 1000.000000000000000 ) ;
#1074 = CARTESIAN_POINT ( 'NONE',  ( 178.5000000000000000, 74.99999999999990052, -111.0000000000000711 ) ) ;
#1075 = DIRECTION ( 'NONE',  ( 1.000000000000000000, 0.000000000000000000, 0.000000000000000000 ) ) ;
#1076 = EDGE_CURVE ( 'NONE', #23, #648, #604, .T. ) ;
#1077 = FACE_BOUND ( 'NONE', #723, .T. ) ;
#1078 = VERTEX_POINT ( 'NONE', #57 ) ;
#1079 = EDGE_LOOP ( 'NONE', ( #136, #732 ) ) ;
#1080 = VERTEX_POINT ( 'NONE', #143 ) ;
#1081 = CARTESIAN_POINT ( 'NONE',  ( 457.5000000000000000, 74.99999999999992895, -111.0000000000000711 ) ) ;
#1082 = CARTESIAN_POINT ( 'NONE',  ( 318.0000000000000000, 74.99999999999991473, 111.0000000000000000 ) ) ;
#1083 = ORIENTED_EDGE ( 'NONE', *, *, #1067, .F. ) ;
#1084 = ORIENTED_EDGE ( 'NONE', *, *, #882, .T. ) ;
#1085 = DIRECTION ( 'NONE',  ( 1.000000000000000000, 0.000000000000000000, 0.000000000000000000 ) ) ;
#1086 = DIRECTION ( 'NONE',  ( 1.000000000000000000, 0.000000000000000000, 0.000000000000000000 ) ) ;
#1087 = LINE ( 'NONE', #1019, #751 ) ;
#1088 = EDGE_LOOP ( 'NONE', ( #780, #891, #191, #1083 ) ) ;
#1089 = EDGE_CURVE ( 'NONE', #495, #608, #653, .T. ) ;
#1090 = AXIS2_PLACEMENT_3D ( 'NONE', #342, #688, #607 ) ;
#1091 = LINE ( 'NONE', #407, #222 ) ;
#1092 = CARTESIAN_POINT ( 'NONE',  ( 314.5000000000000000, 74.99999999999991473, -111.0000000000000711 ) ) ;
#1093 = CIRCLE ( 'NONE', #65, 111.0000000000000000 ) ;
#1094 = DIRECTION ( 'NONE',  ( 0.000000000000000000, 0.000000000000000000, -1.000000000000000000 ) ) ;
#1095 = ORIENTED_EDGE ( 'NONE', *, *, #668, .F. ) ;
#1096 = DIRECTION ( 'NONE',  ( -1.000000000000000000, 0.000000000000000000, 0.000000000000000000 ) ) ;
#1097 = EDGE_CURVE ( 'NONE', #1015, #970, #314, .T. ) ;
#1098 = CYLINDRICAL_SURFACE ( 'NONE', #148, 3.500000000000003109 ) ;
#1099 = DIRECTION ( 'NONE',  ( -1.000000000000000000, -0.000000000000000000, -0.000000000000000000 ) ) ;
#1100 = LINE ( 'NONE', #826, #404 ) ;
#1101 = EDGE_LOOP ( 'NONE', ( #992, #789, #905, #954 ) ) ;
#1102 = FACE_BOUND ( 'NONE', #997, .T. ) ;
#1103 = FACE_OUTER_BOUND ( 'NONE', #445, .T. ) ;
#1104 = LINE ( 'NONE', #238, #876 ) ;
#1105 = CARTESIAN_POINT ( 'NONE',  ( 314.5000000000000000, 74.99999999999991473, -108.0000000000000568 ) ) ;
#1106 = ORIENTED_EDGE ( 'NONE', *, *, #173, .T. ) ;
#1107 = DIRECTION ( 'NONE',  ( -1.000000000000000000, 0.000000000000000000, -0.000000000000000000 ) ) ;
#1108 = VERTEX_POINT ( 'NONE', #824 ) ;
#1109 = CIRCLE ( 'NONE', #1022, 3.500000000000003109 ) ;
#1110 = AXIS2_PLACEMENT_3D ( 'NONE', #269, #260, #693 ) ;
#1111 = LINE ( 'NONE', #499, #894 ) ;
#1112 = VERTEX_POINT ( 'NONE', #1000 ) ;
#1113 = EDGE_CURVE ( 'NONE', #550, #1008, #454, .T. ) ;
#1114 = DIRECTION ( 'NONE',  ( -1.000000000000000000, 0.000000000000000000, 0.000000000000000000 ) ) ;
#1115 = VERTEX_POINT ( 'NONE', #153 ) ;
ENDSEC;
END-ISO-10303-21;
