ISO-10303-21;
HEADER;
FILE_DESCRIPTION (( 'STEP AP214' ),
    '1' );
FILE_NAME ('PT.SHT.01.20.00.00 —¡ ''ÿÌÂÍ 1'' (STEP 214 ““).STEP',
    '2026-09-29T05:38:28',
    ( '' ),
    ( '' ),
    'SwSTEP 2.0',
    'SolidWorks 2025',
    '' );
FILE_SCHEMA (( 'AUTOMOTIVE_DESIGN' ));
ENDSEC;

DATA;
#689 = ADVANCED_FACE ( 'NONE', ( #271985, #128602 ), #181491, .F. ) ;
#2738 = VERTEX_POINT ( 'NONE', #113136 ) ;
#4310 = EDGE_LOOP ( 'NONE', ( #32672, #203502, #101319, #278696 ) ) ;
#5032 = ORIENTED_EDGE ( 'NONE', *, *, #135495, .F. ) ;
#6462 = VECTOR ( 'NONE', #117718, 1000.000000000000000 ) ;
#7003 = EDGE_CURVE ( 'NONE', #305660, #213191, #80494, .T. ) ;
#7093 = DIRECTION ( 'NONE',  ( 0.000000000000000000, -0.000000000000000000, 1.000000000000000000 ) ) ;
#7140 = PRODUCT_DEFINITION_FORMATION_WITH_SPECIFIED_SOURCE ( 'ANY', '', #11918, .NOT_KNOWN. ) ;
#8319 = CARTESIAN_POINT ( 'NONE',  ( -50.00000000000000000, 3.000000000000000000, -30.00000000000000000 ) ) ;
#8534 = ORIENTED_EDGE ( 'NONE', *, *, #65665, .T. ) ;
#9255 = VECTOR ( 'NONE', #229120, 1000.000000000000000 ) ;
#9787 = CARTESIAN_POINT ( 'NONE',  ( 40.00000000000000000, 0.000000000000000000, 0.000000000000000000 ) ) ;
#10312 = CARTESIAN_POINT ( 'NONE',  ( 40.00000000000000000, 0.000000000000000000, 0.000000000000000000 ) ) ;
#10758 = CARTESIAN_POINT ( 'NONE',  ( -44.99999999999997868, 3.000000000000000000, 30.00000000000000000 ) ) ;
#10805 = AXIS2_PLACEMENT_3D ( 'NONE', #292101, #72486, #261127 ) ;
#10950 = CARTESIAN_POINT ( 'NONE',  ( 60.00000000000000000, 3.000000000000000000, -24.99999999999998224 ) ) ;
#11918 = PRODUCT ( 'PT.SHT.01.01.02.03  \X2\041e043f043e04400430\X0\', 'PT.SHT.01.01.02.03  \X2\041e043f043e04400430\X0\', '', ( #198392 ) ) ;
#13044 = EDGE_CURVE ( 'NONE', #136092, #190904, #69639, .T. ) ;
#15201 = CARTESIAN_POINT ( 'NONE',  ( -44.99999999999997868, 3.000000000000000000, 30.00000000000000000 ) ) ;
#15725 = ORIENTED_EDGE ( 'NONE', *, *, #287094, .F. ) ;
#16112 = CARTESIAN_POINT ( 'NONE',  ( 54.99999999999997868, 3.000000000000000000, -30.00000000000000000 ) ) ;
#16373 = CARTESIAN_POINT ( 'NONE',  ( -50.00000000000000000, 3.000000000000000000, -25.00000000000000711 ) ) ;
#17244 = DIRECTION ( 'NONE',  ( -1.000000000000000000, 0.000000000000000000, -0.000000000000000000 ) ) ;
#17409 = EDGE_LOOP ( 'NONE', ( #114568, #127404, #303634, #109107 ) ) ;
#18487 = LINE ( 'NONE', #211780, #172356 ) ;
#18787 = CARTESIAN_POINT ( 'NONE',  ( -49.99999999999999289, 3.000000000000000000, 30.00000000000000000 ) ) ;
#19464 = ORIENTED_EDGE ( 'NONE', *, *, #239782, .F. ) ;
#20306 = ORIENTED_EDGE ( 'NONE', *, *, #194966, .F. ) ;
#22840 = CARTESIAN_POINT ( 'NONE',  ( -50.00000000000000000, 0.000000000000000000, -25.00000000000000711 ) ) ;
#23911 = VECTOR ( 'NONE', #69194, 1000.000000000000114 ) ;
#24121 = AXIS2_PLACEMENT_3D ( 'NONE', #276587, #108286, #154997 ) ;
#24686 = ORIENTED_EDGE ( 'NONE', *, *, #111398, .T. ) ;
#25426 = AXIS2_PLACEMENT_3D ( 'NONE', #243526, #72158, #196762 ) ;
#25630 = CARTESIAN_POINT ( 'NONE',  ( 54.99999999999997868, 3.000000000000000000, -30.00000000000000000 ) ) ;
#25937 = ORIENTED_EDGE ( 'NONE', *, *, #139602, .F. ) ;
#26535 = DIRECTION ( 'NONE',  ( -0.7071067811865474617, 0.000000000000000000, -0.7071067811865474617 ) ) ;
#26548 = DIRECTION ( 'NONE',  ( -0.000000000000000000, 1.000000000000000000, -0.000000000000000000 ) ) ;
#27562 = AXIS2_PLACEMENT_3D ( 'NONE', #18787, #135741, #17244 ) ;
#32672 = ORIENTED_EDGE ( 'NONE', *, *, #153563, .F. ) ;
#32703 = VECTOR ( 'NONE', #273041, 1000.000000000000000 ) ;
#34715 = ADVANCED_FACE ( 'NONE', ( #248689, #58481 ), #247137, .T. ) ;
#35115 = DIRECTION ( 'NONE',  ( 0.000000000000000000, 1.000000000000000000, 0.000000000000000000 ) ) ;
#38254 = ADVANCED_FACE ( 'NONE', ( #182492 ), #254328, .F. ) ;
#38491 = VECTOR ( 'NONE', #228429, 1000.000000000000114 ) ;
#38726 = EDGE_LOOP ( 'NONE', ( #19464, #111517, #254760, #47578 ) ) ;
#39996 = CARTESIAN_POINT ( 'NONE',  ( 60.00000000000002132, 0.000000000000000000, 25.00000000000000711 ) ) ;
#40396 = AXIS2_PLACEMENT_3D ( 'NONE', #15201, #111812, #261018 ) ;
#41069 = DIRECTION ( 'NONE',  ( 0.000000000000000000, -1.000000000000000000, 0.000000000000000000 ) ) ;
#41202 = DIRECTION ( 'NONE',  ( 0.000000000000000000, 0.000000000000000000, 1.000000000000000000 ) ) ;
#42573 = PLANE ( 'NONE',  #201614 ) ;
#44108 = FACE_OUTER_BOUND ( 'NONE', #286740, .T. ) ;
#44821 = LINE ( 'NONE', #235011, #285812 ) ;
#45082 = VECTOR ( 'NONE', #207344, 1000.000000000000000 ) ;
#46478 = DIRECTION ( 'NONE',  ( 1.000000000000000000, 0.000000000000000000, 0.000000000000000000 ) ) ;
#47578 = ORIENTED_EDGE ( 'NONE', *, *, #139602, .T. ) ;
#49272 = DIRECTION ( 'NONE',  ( 0.7071067811865485719, 0.000000000000000000, -0.7071067811865465735 ) ) ;
#49928 = ( NAMED_UNIT ( * ) PLANE_ANGLE_UNIT ( ) SI_UNIT ( $, .RADIAN. ) );
#49946 = CARTESIAN_POINT ( 'NONE',  ( 40.00000000000000000, 0.000000000000000000, 5.999999999999994671 ) ) ;
#51251 = DIRECTION ( 'NONE',  ( 1.000000000000000000, 0.000000000000000000, 0.000000000000000000 ) ) ;
#55264 = EDGE_LOOP ( 'NONE', ( #239122, #114204, #24686, #130304 ) ) ;
#55659 = CARTESIAN_POINT ( 'NONE',  ( 60.00000000000000000, 3.000000000000000000, -24.99999999999998224 ) ) ;
#55674 = EDGE_CURVE ( 'NONE', #189886, #85653, #129436, .T. ) ;
#55891 = VECTOR ( 'NONE', #49272, 1000.000000000000000 ) ;
#56885 = EDGE_CURVE ( 'NONE', #190904, #136092, #248980, .T. ) ;
#57507 = CARTESIAN_POINT ( 'NONE',  ( -50.00000000000000000, 0.000000000000000000, -25.00000000000000711 ) ) ;
#57544 = LINE ( 'NONE', #10758, #304588 ) ;
#58481 = FACE_OUTER_BOUND ( 'NONE', #127832, .T. ) ;
#59194 = CARTESIAN_POINT ( 'NONE',  ( 54.99999999999997868, 0.000000000000000000, -30.00000000000000000 ) ) ;
#59237 = VECTOR ( 'NONE', #271435, 1000.000000000000000 ) ;
#60733 = CARTESIAN_POINT ( 'NONE',  ( -37.49999999999998579, 3.000000000000000000, 37.49999999999998579 ) ) ;
#61670 = CARTESIAN_POINT ( 'NONE',  ( -49.99999999999999289, 0.000000000000000000, 24.99999999999998224 ) ) ;
#62955 = EDGE_LOOP ( 'NONE', ( #294387, #303514, #75039, #299356 ) ) ;
#63070 = CARTESIAN_POINT ( 'NONE',  ( 40.00000000000000000, 0.000000000000000000, 0.000000000000000000 ) ) ;
#63722 = EDGE_CURVE ( 'NONE', #2738, #233867, #194715, .T. ) ;
#64747 = ( GEOMETRIC_REPRESENTATION_CONTEXT ( 3 ) GLOBAL_UNCERTAINTY_ASSIGNED_CONTEXT ( ( #272412 ) ) GLOBAL_UNIT_ASSIGNED_CONTEXT ( ( #141943, #49928, #190265 ) ) REPRESENTATION_CONTEXT ( 'NONE', 'WORKASPACE' ) );
#65665 = EDGE_CURVE ( 'NONE', #233867, #86143, #144125, .T. ) ;
#69194 = DIRECTION ( 'NONE',  ( 0.7071067811865474617, -0.000000000000000000, 0.7071067811865474617 ) ) ;
#69639 = CIRCLE ( 'NONE', #139251, 5.999999999999994671 ) ;
#70861 = FACE_OUTER_BOUND ( 'NONE', #207453, .T. ) ;
#71134 = PLANE ( 'NONE',  #244164 ) ;
#71252 = VECTOR ( 'NONE', #26548, 1000.000000000000000 ) ;
#72158 = DIRECTION ( 'NONE',  ( 0.000000000000000000, 1.000000000000000000, 0.000000000000000000 ) ) ;
#72486 = DIRECTION ( 'NONE',  ( 0.7071067811865455743, -0.000000000000000000, 0.7071067811865495711 ) ) ;
#72654 = CARTESIAN_POINT ( 'NONE',  ( 55.00000000000000000, 0.000000000000000000, 30.00000000000000000 ) ) ;
#73242 = CARTESIAN_POINT ( 'NONE',  ( 60.00000000000000000, 3.000000000000000000, -30.00000000000000000 ) ) ;
#75039 = ORIENTED_EDGE ( 'NONE', *, *, #90927, .T. ) ;
#75573 = PLANE ( 'NONE',  #79075 ) ;
#78588 = FACE_OUTER_BOUND ( 'NONE', #62955, .T. ) ;
#78966 = DIRECTION ( 'NONE',  ( 0.000000000000000000, 0.000000000000000000, 1.000000000000000000 ) ) ;
#79075 = AXIS2_PLACEMENT_3D ( 'NONE', #128407, #98897, #221956 ) ;
#80247 = SHAPE_REPRESENTATION ( 'PT.SHT.01.01.02.03  \X2\041e043f043e04400430\X0\', ( #267245 ), #64747 ) ;
#80494 = LINE ( 'NONE', #175503, #38491 ) ;
#81563 = PLANE ( 'NONE',  #167492 ) ;
#81996 = LINE ( 'NONE', #290897, #113533 ) ;
#82012 = DIRECTION ( 'NONE',  ( 0.000000000000000000, 1.000000000000000000, 0.000000000000000000 ) ) ;
#82876 = LINE ( 'NONE', #177904, #32703 ) ;
#83739 = EDGE_CURVE ( 'NONE', #203379, #214019, #132638, .T. ) ;
#83842 = EDGE_LOOP ( 'NONE', ( #207719, #270654 ) ) ;
#85653 = VERTEX_POINT ( 'NONE', #55659 ) ;
#86143 = VERTEX_POINT ( 'NONE', #259863 ) ;
#86215 = EDGE_CURVE ( 'NONE', #255039, #203379, #262875, .T. ) ;
#86884 = APPLICATION_CONTEXT ( 'automotive_design' ) ;
#88344 = EDGE_CURVE ( 'NONE', #214019, #115307, #237712, .T. ) ;
#88693 = AXIS2_PLACEMENT_3D ( 'NONE', #200200, #298207, #296675 ) ;
#89636 = EDGE_CURVE ( 'NONE', #279766, #178185, #141952, .T. ) ;
#90151 = CARTESIAN_POINT ( 'NONE',  ( 40.00000000000000000, 0.000000000000000000, 5.999999999999994671 ) ) ;
#90927 = EDGE_CURVE ( 'NONE', #255039, #178185, #44821, .T. ) ;
#91533 = CARTESIAN_POINT ( 'NONE',  ( -50.00000000000000000, 3.000000000000000000, -25.00000000000000711 ) ) ;
#93491 = LINE ( 'NONE', #255735, #154916 ) ;
#94328 = CARTESIAN_POINT ( 'NONE',  ( 40.00000000000000000, 3.000000000000000000, 5.999999999999994671 ) ) ;
#96609 = ORIENTED_EDGE ( 'NONE', *, *, #195176, .F. ) ;
#98897 = DIRECTION ( 'NONE',  ( 1.000000000000000000, 0.000000000000000000, -1.156482317317871478E-16 ) ) ;
#99163 = DIRECTION ( 'NONE',  ( 0.000000000000000000, 1.000000000000000000, 0.000000000000000000 ) ) ;
#101319 = ORIENTED_EDGE ( 'NONE', *, *, #234376, .T. ) ;
#102591 = VECTOR ( 'NONE', #119951, 1000.000000000000000 ) ;
#104609 = EDGE_LOOP ( 'NONE', ( #110737, #262905, #243931, #230665 ) ) ;
#104910 = FACE_OUTER_BOUND ( 'NONE', #104609, .T. ) ;
#107255 = VERTEX_POINT ( 'NONE', #94328 ) ;
#107489 = ADVANCED_FACE ( 'NONE', ( #165981 ), #190931, .T. ) ;
#108286 = DIRECTION ( 'NONE',  ( 0.000000000000000000, 1.000000000000000000, 0.000000000000000000 ) ) ;
#108736 = VECTOR ( 'NONE', #296239, 1000.000000000000000 ) ;
#109107 = ORIENTED_EDGE ( 'NONE', *, *, #150944, .F. ) ;
#109200 = CARTESIAN_POINT ( 'NONE',  ( -50.00000000000000000, 0.000000000000000000, -30.00000000000000000 ) ) ;
#109587 = ORIENTED_EDGE ( 'NONE', *, *, #86215, .F. ) ;
#110737 = ORIENTED_EDGE ( 'NONE', *, *, #13044, .F. ) ;
#111216 = DIRECTION ( 'NONE',  ( -0.7071067811865475727, 0.000000000000000000, 0.7071067811865475727 ) ) ;
#111398 = EDGE_CURVE ( 'NONE', #279766, #213191, #18487, .T. ) ;
#111517 = ORIENTED_EDGE ( 'NONE', *, *, #83739, .T. ) ;
#111578 = ORIENTED_EDGE ( 'NONE', *, *, #90927, .F. ) ;
#111812 = DIRECTION ( 'NONE',  ( 0.7071067811865475727, 0.000000000000000000, -0.7071067811865475727 ) ) ;
#111930 = ORIENTED_EDGE ( 'NONE', *, *, #88344, .T. ) ;
#112038 = EDGE_LOOP ( 'NONE', ( #240129, #180737 ) ) ;
#112117 = DIRECTION ( 'NONE',  ( -0.7071067811865474617, 0.000000000000000000, -0.7071067811865474617 ) ) ;
#112153 = CARTESIAN_POINT ( 'NONE',  ( 60.00000000000002132, 0.000000000000000000, 25.00000000000000711 ) ) ;
#112344 = ORIENTED_EDGE ( 'NONE', *, *, #88344, .F. ) ;
#113136 = CARTESIAN_POINT ( 'NONE',  ( -44.99999999999997868, 3.000000000000000000, 30.00000000000000000 ) ) ;
#113533 = VECTOR ( 'NONE', #153605, 1000.000000000000000 ) ;
#114204 = ORIENTED_EDGE ( 'NONE', *, *, #171745, .T. ) ;
#114568 = ORIENTED_EDGE ( 'NONE', *, *, #65665, .F. ) ;
#115307 = VERTEX_POINT ( 'NONE', #91533 ) ;
#115876 = CARTESIAN_POINT ( 'NONE',  ( 55.00000000000000000, 3.000000000000000000, 30.00000000000000000 ) ) ;
#116553 = ADVANCED_FACE ( 'NONE', ( #133187 ), #228277, .F. ) ;
#117718 = DIRECTION ( 'NONE',  ( -0.7071067811865485719, 0.000000000000000000, 0.7071067811865465735 ) ) ;
#118359 = CARTESIAN_POINT ( 'NONE',  ( -49.99999999999999289, 3.000000000000000000, 30.00000000000000000 ) ) ;
#119413 = AXIS2_PLACEMENT_3D ( 'NONE', #122490, #99163, #145880 ) ;
#119951 = DIRECTION ( 'NONE',  ( 3.469446951953614189E-16, 0.000000000000000000, 1.000000000000000000 ) ) ;
#120135 = VECTOR ( 'NONE', #214325, 1000.000000000000000 ) ;
#122240 = CARTESIAN_POINT ( 'NONE',  ( 40.00000000000000000, 3.000000000000000000, -5.999999999999994671 ) ) ;
#122490 = CARTESIAN_POINT ( 'NONE',  ( 40.00000000000000000, 0.000000000000000000, 0.000000000000000000 ) ) ;
#124700 = SHAPE_REPRESENTATION_RELATIONSHIP ( 'NONE' , 'NONE' ,  #80247, #217088 ) ;
#125041 = CARTESIAN_POINT ( 'NONE',  ( -45.00000000000000000, 0.000000000000000000, -30.00000000000000000 ) ) ;
#126146 = EDGE_LOOP ( 'NONE', ( #111578, #230897, #303055, #289844, #136455, #229348, #280897, #194716 ) ) ;
#127404 = ORIENTED_EDGE ( 'NONE', *, *, #300512, .F. ) ;
#127832 = EDGE_LOOP ( 'NONE', ( #207134, #111930, #199710, #159643, #308305, #8534, #5032, #143243 ) ) ;
#128407 = CARTESIAN_POINT ( 'NONE',  ( -50.00000000000000000, 3.000000000000000000, -30.00000000000000000 ) ) ;
#128602 = FACE_OUTER_BOUND ( 'NONE', #126146, .T. ) ;
#129436 = LINE ( 'NONE', #10950, #9255 ) ;
#129821 = DIRECTION ( 'NONE',  ( 0.000000000000000000, 0.000000000000000000, 1.000000000000000000 ) ) ;
#130304 = ORIENTED_EDGE ( 'NONE', *, *, #300512, .T. ) ;
#131438 = PRODUCT_DEFINITION_SHAPE ( 'NONE', 'NONE',  #146333 ) ;
#132638 = LINE ( 'NONE', #177843, #59237 ) ;
#133187 = FACE_OUTER_BOUND ( 'NONE', #4310, .T. ) ;
#134401 = ORIENTED_EDGE ( 'NONE', *, *, #135495, .T. ) ;
#135495 = EDGE_CURVE ( 'NONE', #85653, #86143, #191667, .T. ) ;
#135597 = ORIENTED_EDGE ( 'NONE', *, *, #160042, .F. ) ;
#135741 = DIRECTION ( 'NONE',  ( 0.000000000000000000, 0.000000000000000000, -1.000000000000000000 ) ) ;
#136092 = VERTEX_POINT ( 'NONE', #181666 ) ;
#136455 = ORIENTED_EDGE ( 'NONE', *, *, #287094, .T. ) ;
#138948 = CARTESIAN_POINT ( 'NONE',  ( -49.99999999999999289, 3.000000000000000000, 24.99999999999998224 ) ) ;
#139154 = VECTOR ( 'NONE', #112117, 1000.000000000000114 ) ;
#139251 = AXIS2_PLACEMENT_3D ( 'NONE', #10312, #82012, #78966 ) ;
#139602 = EDGE_CURVE ( 'NONE', #244403, #155469, #189365, .T. ) ;
#141943 = ( LENGTH_UNIT ( ) NAMED_UNIT ( * ) SI_UNIT ( .MILLI., .METRE. ) );
#141952 = LINE ( 'NONE', #285287, #246343 ) ;
#143243 = ORIENTED_EDGE ( 'NONE', *, *, #194966, .T. ) ;
#144125 = LINE ( 'NONE', #164433, #238142 ) ;
#145880 = DIRECTION ( 'NONE',  ( 0.000000000000000000, 0.000000000000000000, 1.000000000000000000 ) ) ;
#146333 = PRODUCT_DEFINITION ( 'UNKNOWN', '', #7140, #225650 ) ;
#146819 = ADVANCED_FACE ( 'NONE', ( #293544 ), #81563, .T. ) ;
#149878 = ORIENTED_EDGE ( 'NONE', *, *, #263907, .F. ) ;
#150943 = ADVANCED_FACE ( 'NONE', ( #104910 ), #182297, .F. ) ;
#150944 = EDGE_CURVE ( 'NONE', #86143, #305660, #200063, .T. ) ;
#151298 = CARTESIAN_POINT ( 'NONE',  ( -44.99999999999997868, 0.000000000000000000, 30.00000000000000000 ) ) ;
#152536 = DIRECTION ( 'NONE',  ( 0.000000000000000000, -1.000000000000000000, 0.000000000000000000 ) ) ;
#153563 = EDGE_CURVE ( 'NONE', #136092, #202217, #81996, .T. ) ;
#153605 = DIRECTION ( 'NONE',  ( -0.000000000000000000, 1.000000000000000000, -0.000000000000000000 ) ) ;
#154025 = ADVANCED_FACE ( 'NONE', ( #78588 ), #75573, .F. ) ;
#154916 = VECTOR ( 'NONE', #235351, 1000.000000000000000 ) ;
#154997 = DIRECTION ( 'NONE',  ( 0.000000000000000000, -0.000000000000000000, 1.000000000000000000 ) ) ;
#155469 = VERTEX_POINT ( 'NONE', #59194 ) ;
#155833 = LINE ( 'NONE', #185433, #249665 ) ;
#158073 = DIRECTION ( 'NONE',  ( 0.000000000000000000, 0.000000000000000000, 1.000000000000000000 ) ) ;
#158661 = ORIENTED_EDGE ( 'NONE', *, *, #55674, .T. ) ;
#159309 = DIRECTION ( 'NONE',  ( 3.469446951953614189E-16, 0.000000000000000000, 1.000000000000000000 ) ) ;
#159643 = ORIENTED_EDGE ( 'NONE', *, *, #195176, .T. ) ;
#160042 = EDGE_CURVE ( 'NONE', #115307, #255039, #270215, .T. ) ;
#163891 = CARTESIAN_POINT ( 'NONE',  ( 60.00000000000000000, 0.000000000000000000, -30.00000000000000000 ) ) ;
#164433 = CARTESIAN_POINT ( 'NONE',  ( 42.49999999999984368, 3.000000000000000000, 42.50000000000008527 ) ) ;
#165981 = FACE_OUTER_BOUND ( 'NONE', #17409, .T. ) ;
#167492 = AXIS2_PLACEMENT_3D ( 'NONE', #8319, #271708, #198545 ) ;
#168889 = DIRECTION ( 'NONE',  ( 0.000000000000000000, 1.000000000000000000, 0.000000000000000000 ) ) ;
#169058 = DIRECTION ( 'NONE',  ( 0.7071067811865495711, 0.000000000000000000, -0.7071067811865455743 ) ) ;
#170620 = CARTESIAN_POINT ( 'NONE',  ( -37.49999999999993605, 3.000000000000000000, -37.50000000000004263 ) ) ;
#171745 = EDGE_CURVE ( 'NONE', #2738, #279766, #57544, .T. ) ;
#172230 = ORIENTED_EDGE ( 'NONE', *, *, #275103, .F. ) ;
#172356 = VECTOR ( 'NONE', #46478, 1000.000000000000000 ) ;
#174070 = VECTOR ( 'NONE', #277353, 1000.000000000000114 ) ;
#175503 = CARTESIAN_POINT ( 'NONE',  ( 60.00000000000002132, 0.000000000000000000, 25.00000000000000711 ) ) ;
#176811 = EDGE_CURVE ( 'NONE', #202217, #107255, #249557, .T. ) ;
#177505 = CLOSED_SHELL ( 'NONE', ( #150943, #154025, #38254, #231725, #146819, #34715, #689, #280508, #211310, #259422, #107489, #116553 ) ) ;
#177843 = CARTESIAN_POINT ( 'NONE',  ( -45.00000000000000000, 3.000000000000000000, -30.00000000000000000 ) ) ;
#177904 = CARTESIAN_POINT ( 'NONE',  ( -50.00000000000000000, 3.000000000000000000, -30.00000000000000000 ) ) ;
#178185 = VERTEX_POINT ( 'NONE', #61670 ) ;
#179939 = DIRECTION ( 'NONE',  ( 1.000000000000000000, 0.000000000000000000, 0.000000000000000000 ) ) ;
#180737 = ORIENTED_EDGE ( 'NONE', *, *, #176811, .F. ) ;
#181491 = PLANE ( 'NONE',  #24121 ) ;
#181666 = CARTESIAN_POINT ( 'NONE',  ( 40.00000000000000000, 0.000000000000000000, -5.999999999999994671 ) ) ;
#182297 = CYLINDRICAL_SURFACE ( 'NONE', #219335, 5.999999999999994671 ) ;
#182492 = FACE_OUTER_BOUND ( 'NONE', #55264, .T. ) ;
#185433 = CARTESIAN_POINT ( 'NONE',  ( 55.00000000000000000, 3.000000000000000000, 30.00000000000000000 ) ) ;
#189305 = PLANE ( 'NONE',  #40396 ) ;
#189365 = LINE ( 'NONE', #25630, #120135 ) ;
#189886 = VERTEX_POINT ( 'NONE', #256545 ) ;
#190089 = ORIENTED_EDGE ( 'NONE', *, *, #150944, .T. ) ;
#190265 = ( NAMED_UNIT ( * ) SI_UNIT ( $, .STERADIAN. ) SOLID_ANGLE_UNIT ( ) );
#190904 = VERTEX_POINT ( 'NONE', #90151 ) ;
#190931 = PLANE ( 'NONE',  #10805 ) ;
#191667 = LINE ( 'NONE', #73242, #102591 ) ;
#192432 = MANIFOLD_SOLID_BREP ( '\X2\0412044b044004350437\X0\-\X2\0412044b0442044f043d04430442044c\X0\1', #177505 ) ;
#193799 = LINE ( 'NONE', #212599, #23911 ) ;
#194715 = LINE ( 'NONE', #118359, #266875 ) ;
#194716 = ORIENTED_EDGE ( 'NONE', *, *, #89636, .T. ) ;
#194966 = EDGE_CURVE ( 'NONE', #85653, #244403, #296104, .T. ) ;
#195176 = EDGE_CURVE ( 'NONE', #205172, #2738, #207303, .T. ) ;
#196762 = DIRECTION ( 'NONE',  ( 0.000000000000000000, 0.000000000000000000, 1.000000000000000000 ) ) ;
#198392 = PRODUCT_CONTEXT ( 'NONE', #216177, 'mechanical' ) ;
#198545 = DIRECTION ( 'NONE',  ( -1.000000000000000000, 0.000000000000000000, -0.000000000000000000 ) ) ;
#199710 = ORIENTED_EDGE ( 'NONE', *, *, #293949, .T. ) ;
#200063 = LINE ( 'NONE', #112153, #45082 ) ;
#200200 = CARTESIAN_POINT ( 'NONE',  ( 40.00000000000000000, 3.000000000000000000, 0.000000000000000000 ) ) ;
#201614 = AXIS2_PLACEMENT_3D ( 'NONE', #16112, #111216, #41069 ) ;
#202132 = ORIENTED_EDGE ( 'NONE', *, *, #55674, .F. ) ;
#202217 = VERTEX_POINT ( 'NONE', #122240 ) ;
#203379 = VERTEX_POINT ( 'NONE', #125041 ) ;
#203502 = ORIENTED_EDGE ( 'NONE', *, *, #56885, .F. ) ;
#205172 = VERTEX_POINT ( 'NONE', #138948 ) ;
#205822 = DIRECTION ( 'NONE',  ( -0.000000000000000000, 1.000000000000000000, 0.000000000000000000 ) ) ;
#207134 = ORIENTED_EDGE ( 'NONE', *, *, #243901, .F. ) ;
#207303 = LINE ( 'NONE', #60733, #174070 ) ;
#207344 = DIRECTION ( 'NONE',  ( 0.000000000000000000, -1.000000000000000000, 0.000000000000000000 ) ) ;
#207453 = EDGE_LOOP ( 'NONE', ( #96609, #172230, #236108, #249777 ) ) ;
#207719 = ORIENTED_EDGE ( 'NONE', *, *, #56885, .T. ) ;
#209731 = DIRECTION ( 'NONE',  ( 0.000000000000000000, 1.000000000000000000, 0.000000000000000000 ) ) ;
#211310 = ADVANCED_FACE ( 'NONE', ( #70861 ), #189305, .F. ) ;
#211728 = VECTOR ( 'NONE', #168889, 1000.000000000000000 ) ;
#211780 = CARTESIAN_POINT ( 'NONE',  ( -49.99999999999999289, 0.000000000000000000, 30.00000000000000000 ) ) ;
#212599 = CARTESIAN_POINT ( 'NONE',  ( 54.99999999999997868, 0.000000000000000000, -30.00000000000000000 ) ) ;
#213191 = VERTEX_POINT ( 'NONE', #72654 ) ;
#214019 = VERTEX_POINT ( 'NONE', #266234 ) ;
#214325 = DIRECTION ( 'NONE',  ( 0.000000000000000000, -1.000000000000000000, 0.000000000000000000 ) ) ;
#216177 = APPLICATION_CONTEXT ( 'automotive_design' ) ;
#217088 = ADVANCED_BREP_SHAPE_REPRESENTATION ( '', ( #192432, #267245 ), #64747 ) ;
#219335 = AXIS2_PLACEMENT_3D ( 'NONE', #9787, #277393, #129821 ) ;
#221956 = DIRECTION ( 'NONE',  ( -1.156482317317871478E-16, 0.000000000000000000, -1.000000000000000000 ) ) ;
#225650 = PRODUCT_DEFINITION_CONTEXT ( 'detailed design', #86884, 'design' ) ;
#228277 = CYLINDRICAL_SURFACE ( 'NONE', #268699, 5.999999999999994671 ) ;
#228429 = DIRECTION ( 'NONE',  ( -0.7071067811865495711, 0.000000000000000000, 0.7071067811865455743 ) ) ;
#229120 = DIRECTION ( 'NONE',  ( 0.000000000000000000, 1.000000000000000000, 0.000000000000000000 ) ) ;
#229348 = ORIENTED_EDGE ( 'NONE', *, *, #7003, .T. ) ;
#230665 = ORIENTED_EDGE ( 'NONE', *, *, #234376, .F. ) ;
#230897 = ORIENTED_EDGE ( 'NONE', *, *, #86215, .T. ) ;
#231725 = ADVANCED_FACE ( 'NONE', ( #237854 ), #71134, .T. ) ;
#233867 = VERTEX_POINT ( 'NONE', #115876 ) ;
#234376 = EDGE_CURVE ( 'NONE', #190904, #107255, #304105, .T. ) ;
#235011 = CARTESIAN_POINT ( 'NONE',  ( -50.00000000000000000, 0.000000000000000000, -30.00000000000000000 ) ) ;
#235351 = DIRECTION ( 'NONE',  ( 1.000000000000000000, 0.000000000000000000, 0.000000000000000000 ) ) ;
#236108 = ORIENTED_EDGE ( 'NONE', *, *, #89636, .F. ) ;
#237712 = LINE ( 'NONE', #170620, #6462 ) ;
#237854 = FACE_OUTER_BOUND ( 'NONE', #271821, .T. ) ;
#238142 = VECTOR ( 'NONE', #169058, 1000.000000000000114 ) ;
#239122 = ORIENTED_EDGE ( 'NONE', *, *, #63722, .F. ) ;
#239782 = EDGE_CURVE ( 'NONE', #203379, #155469, #254236, .T. ) ;
#240129 = ORIENTED_EDGE ( 'NONE', *, *, #240511, .F. ) ;
#240511 = EDGE_CURVE ( 'NONE', #107255, #202217, #248065, .T. ) ;
#240597 = CARTESIAN_POINT ( 'NONE',  ( -49.99999999999999289, 3.000000000000000000, 24.99999999999998224 ) ) ;
#243526 = CARTESIAN_POINT ( 'NONE',  ( 40.00000000000000000, 3.000000000000000000, 0.000000000000000000 ) ) ;
#243901 = EDGE_CURVE ( 'NONE', #214019, #244403, #93491, .T. ) ;
#243931 = ORIENTED_EDGE ( 'NONE', *, *, #176811, .T. ) ;
#244164 = AXIS2_PLACEMENT_3D ( 'NONE', #261292, #265844, #289231 ) ;
#244403 = VERTEX_POINT ( 'NONE', #266012 ) ;
#246343 = VECTOR ( 'NONE', #26535, 1000.000000000000114 ) ;
#247137 = PLANE ( 'NONE',  #248728 ) ;
#248065 = CIRCLE ( 'NONE', #88693, 5.999999999999994671 ) ;
#248689 = FACE_BOUND ( 'NONE', #112038, .T. ) ;
#248728 = AXIS2_PLACEMENT_3D ( 'NONE', #295364, #35115, #7093 ) ;
#248980 = CIRCLE ( 'NONE', #119413, 5.999999999999994671 ) ;
#249557 = CIRCLE ( 'NONE', #25426, 5.999999999999994671 ) ;
#249665 = VECTOR ( 'NONE', #205822, 1000.000000000000000 ) ;
#249777 = ORIENTED_EDGE ( 'NONE', *, *, #171745, .F. ) ;
#250177 = CARTESIAN_POINT ( 'NONE',  ( 0.000000000000000000, 0.000000000000000000, 0.000000000000000000 ) ) ;
#250204 = DIRECTION ( 'NONE',  ( -0.000000000000000000, 1.000000000000000000, -0.000000000000000000 ) ) ;
#251467 = DIRECTION ( 'NONE',  ( 0.000000000000000000, -1.000000000000000000, 0.000000000000000000 ) ) ;
#254236 = LINE ( 'NONE', #109200, #108736 ) ;
#254328 = PLANE ( 'NONE',  #27562 ) ;
#254760 = ORIENTED_EDGE ( 'NONE', *, *, #243901, .T. ) ;
#255039 = VERTEX_POINT ( 'NONE', #57507 ) ;
#255735 = CARTESIAN_POINT ( 'NONE',  ( -50.00000000000000000, 3.000000000000000000, -30.00000000000000000 ) ) ;
#256545 = CARTESIAN_POINT ( 'NONE',  ( 60.00000000000000000, 0.000000000000000000, -24.99999999999998224 ) ) ;
#258929 = VECTOR ( 'NONE', #159309, 1000.000000000000000 ) ;
#259422 = ADVANCED_FACE ( 'NONE', ( #44108 ), #42573, .F. ) ;
#259863 = CARTESIAN_POINT ( 'NONE',  ( 60.00000000000002132, 3.000000000000000000, 25.00000000000000711 ) ) ;
#260844 = VECTOR ( 'NONE', #251467, 1000.000000000000000 ) ;
#261018 = DIRECTION ( 'NONE',  ( 0.000000000000000000, -1.000000000000000000, 0.000000000000000000 ) ) ;
#261127 = DIRECTION ( 'NONE',  ( 0.000000000000000000, 1.000000000000000000, 0.000000000000000000 ) ) ;
#261292 = CARTESIAN_POINT ( 'NONE',  ( 60.00000000000000000, 3.000000000000000000, -30.00000000000000000 ) ) ;
#262875 = LINE ( 'NONE', #22840, #55891 ) ;
#262905 = ORIENTED_EDGE ( 'NONE', *, *, #153563, .T. ) ;
#263907 = EDGE_CURVE ( 'NONE', #155469, #189886, #193799, .T. ) ;
#265844 = DIRECTION ( 'NONE',  ( 1.000000000000000000, 0.000000000000000000, -3.469446951953613696E-16 ) ) ;
#266012 = CARTESIAN_POINT ( 'NONE',  ( 54.99999999999997868, 3.000000000000000000, -30.00000000000000000 ) ) ;
#266099 = ORIENTED_EDGE ( 'NONE', *, *, #83739, .F. ) ;
#266234 = CARTESIAN_POINT ( 'NONE',  ( -45.00000000000000000, 3.000000000000000000, -30.00000000000000000 ) ) ;
#266875 = VECTOR ( 'NONE', #51251, 1000.000000000000000 ) ;
#267184 = DIRECTION ( 'NONE',  ( 1.156482317317871478E-16, 0.000000000000000000, 1.000000000000000000 ) ) ;
#267245 = AXIS2_PLACEMENT_3D ( 'NONE', #250177, #158073, #179939 ) ;
#268699 = AXIS2_PLACEMENT_3D ( 'NONE', #63070, #250204, #41202 ) ;
#270215 = LINE ( 'NONE', #296596, #260844 ) ;
#270654 = ORIENTED_EDGE ( 'NONE', *, *, #13044, .T. ) ;
#271435 = DIRECTION ( 'NONE',  ( -0.000000000000000000, 1.000000000000000000, 0.000000000000000000 ) ) ;
#271708 = DIRECTION ( 'NONE',  ( 0.000000000000000000, 0.000000000000000000, -1.000000000000000000 ) ) ;
#271821 = EDGE_LOOP ( 'NONE', ( #15725, #158661, #134401, #190089 ) ) ;
#271985 = FACE_BOUND ( 'NONE', #83842, .T. ) ;
#272412 = UNCERTAINTY_MEASURE_WITH_UNIT (LENGTH_MEASURE( 1.000000000000000082E-05 ), #141943, 'distance_accuracy_value', 'NONE');
#273041 = DIRECTION ( 'NONE',  ( 1.156482317317871478E-16, 0.000000000000000000, 1.000000000000000000 ) ) ;
#275103 = EDGE_CURVE ( 'NONE', #178185, #205172, #287326, .T. ) ;
#276587 = CARTESIAN_POINT ( 'NONE',  ( 0.000000000000000000, 0.000000000000000000, 0.000000000000000000 ) ) ;
#277353 = DIRECTION ( 'NONE',  ( 0.7071067811865474617, -0.000000000000000000, 0.7071067811865474617 ) ) ;
#277393 = DIRECTION ( 'NONE',  ( -0.000000000000000000, 1.000000000000000000, -0.000000000000000000 ) ) ;
#278256 = DIRECTION ( 'NONE',  ( -0.7071067811865464625, 0.000000000000000000, -0.7071067811865485719 ) ) ;
#278696 = ORIENTED_EDGE ( 'NONE', *, *, #240511, .T. ) ;
#279160 = EDGE_LOOP ( 'NONE', ( #112344, #266099, #109587, #135597 ) ) ;
#279766 = VERTEX_POINT ( 'NONE', #151298 ) ;
#279814 = PLANE ( 'NONE',  #297895 ) ;
#280508 = ADVANCED_FACE ( 'NONE', ( #304686 ), #279814, .T. ) ;
#280897 = ORIENTED_EDGE ( 'NONE', *, *, #111398, .F. ) ;
#285287 = CARTESIAN_POINT ( 'NONE',  ( -44.99999999999997868, 0.000000000000000000, 30.00000000000000000 ) ) ;
#285812 = VECTOR ( 'NONE', #267184, 1000.000000000000000 ) ;
#286740 = EDGE_LOOP ( 'NONE', ( #20306, #202132, #149878, #25937 ) ) ;
#287094 = EDGE_CURVE ( 'NONE', #189886, #305660, #305719, .T. ) ;
#287326 = LINE ( 'NONE', #240597, #211728 ) ;
#289231 = DIRECTION ( 'NONE',  ( -3.469446951953613696E-16, 0.000000000000000000, -1.000000000000000000 ) ) ;
#289844 = ORIENTED_EDGE ( 'NONE', *, *, #263907, .T. ) ;
#290897 = CARTESIAN_POINT ( 'NONE',  ( 40.00000000000000000, 0.000000000000000000, -5.999999999999994671 ) ) ;
#292101 = CARTESIAN_POINT ( 'NONE',  ( 60.00000000000002132, 3.000000000000000000, 25.00000000000000711 ) ) ;
#293544 = FACE_OUTER_BOUND ( 'NONE', #38726, .T. ) ;
#293949 = EDGE_CURVE ( 'NONE', #115307, #205172, #82876, .T. ) ;
#294387 = ORIENTED_EDGE ( 'NONE', *, *, #293949, .F. ) ;
#294924 = SHAPE_DEFINITION_REPRESENTATION ( #131438, #80247 ) ;
#295364 = CARTESIAN_POINT ( 'NONE',  ( 0.000000000000000000, 3.000000000000000000, 0.000000000000000000 ) ) ;
#296104 = LINE ( 'NONE', #300707, #139154 ) ;
#296239 = DIRECTION ( 'NONE',  ( 1.000000000000000000, 0.000000000000000000, 0.000000000000000000 ) ) ;
#296596 = CARTESIAN_POINT ( 'NONE',  ( -50.00000000000000000, 0.000000000000000000, -25.00000000000000711 ) ) ;
#296675 = DIRECTION ( 'NONE',  ( 0.000000000000000000, 0.000000000000000000, 1.000000000000000000 ) ) ;
#297895 = AXIS2_PLACEMENT_3D ( 'NONE', #16373, #278256, #209731 ) ;
#298207 = DIRECTION ( 'NONE',  ( 0.000000000000000000, 1.000000000000000000, 0.000000000000000000 ) ) ;
#299356 = ORIENTED_EDGE ( 'NONE', *, *, #275103, .T. ) ;
#300512 = EDGE_CURVE ( 'NONE', #213191, #233867, #155833, .T. ) ;
#300707 = CARTESIAN_POINT ( 'NONE',  ( 42.49999999999998579, 3.000000000000000000, -42.49999999999998579 ) ) ;
#303055 = ORIENTED_EDGE ( 'NONE', *, *, #239782, .T. ) ;
#303514 = ORIENTED_EDGE ( 'NONE', *, *, #160042, .T. ) ;
#303634 = ORIENTED_EDGE ( 'NONE', *, *, #7003, .F. ) ;
#304105 = LINE ( 'NONE', #49946, #71252 ) ;
#304588 = VECTOR ( 'NONE', #152536, 1000.000000000000000 ) ;
#304686 = FACE_OUTER_BOUND ( 'NONE', #279160, .T. ) ;
#305660 = VERTEX_POINT ( 'NONE', #39996 ) ;
#305719 = LINE ( 'NONE', #163891, #258929 ) ;
#308305 = ORIENTED_EDGE ( 'NONE', *, *, #63722, .T. ) ;
ENDSEC;
END-ISO-10303-21;
