ISO-10303-21;
HEADER;
FILE_DESCRIPTION (( 'STEP AP214' ),
    '1' );
FILE_NAME ('PT.SHT.01.20.00.00 —¡ ''ÿÌÂÍ 1'' (STEP 214 ““).STEP',
    '2026-09-29T05:38:28',
    ( '' ),
    ( '' ),
    'SwSTEP 2.0',
    'SolidWorks 2025',
    '' );
FILE_SCHEMA (( 'AUTOMOTIVE_DESIGN' ));
ENDSEC;

DATA;
#13 = EDGE_LOOP ( 'NONE', ( #242806, #192529 ) ) ;
#508 = ADVANCED_FACE ( 'NONE', ( #138190 ), #41564, .F. ) ;
#881 = ADVANCED_FACE ( 'NONE', ( #140876 ), #67697, .F. ) ;
#897 = EDGE_LOOP ( 'NONE', ( #299279, #22245, #87704, #257714 ) ) ;
#1010 = ORIENTED_EDGE ( 'NONE', *, *, #152753, .T. ) ;
#1085 = ORIENTED_EDGE ( 'NONE', *, *, #235469, .T. ) ;
#1104 = DIRECTION ( 'NONE',  ( 0.000000000000000000, 1.000000000000000000, 0.000000000000000000 ) ) ;
#1111 = LINE ( 'NONE', #261438, #180609 ) ;
#1975 = FACE_OUTER_BOUND ( 'NONE', #99020, .T. ) ;
#2663 = CIRCLE ( 'NONE', #157029, 4.399999999999997691 ) ;
#3716 = CIRCLE ( 'NONE', #23526, 4.400000000000001243 ) ;
#3891 = VERTEX_POINT ( 'NONE', #175649 ) ;
#4062 = FACE_BOUND ( 'NONE', #46534, .T. ) ;
#4369 = DIRECTION ( 'NONE',  ( 0.000000000000000000, 0.000000000000000000, 1.000000000000000000 ) ) ;
#4876 = LINE ( 'NONE', #28221, #240133 ) ;
#6078 = FACE_OUTER_BOUND ( 'NONE', #208631, .T. ) ;
#6310 = ORIENTED_EDGE ( 'NONE', *, *, #128189, .F. ) ;
#6380 = DIRECTION ( 'NONE',  ( 0.000000000000000000, 0.000000000000000000, 1.000000000000000000 ) ) ;
#7430 = ORIENTED_EDGE ( 'NONE', *, *, #302406, .T. ) ;
#7624 = CARTESIAN_POINT ( 'NONE',  ( -4.194415287079666203E-15, 5.000000000000000000, -67.50000000000001421 ) ) ;
#8844 = CYLINDRICAL_SURFACE ( 'NONE', #185050, 4.400000000000001243 ) ;
#9365 = ORIENTED_EDGE ( 'NONE', *, *, #22107, .T. ) ;
#9588 = ORIENTED_EDGE ( 'NONE', *, *, #97970, .F. ) ;
#10043 = PRODUCT_DEFINITION_SHAPE ( 'NONE', 'NONE',  #292704 ) ;
#10853 = ADVANCED_FACE ( 'NONE', ( #245830 ), #114680, .F. ) ;
#10909 = FACE_OUTER_BOUND ( 'NONE', #897, .T. ) ;
#11082 = CARTESIAN_POINT ( 'NONE',  ( 67.50000000000000000, 5.000000000000000000, 0.000000000000000000 ) ) ;
#11408 = VECTOR ( 'NONE', #298263, 1000.000000000000000 ) ;
#11483 = DIRECTION ( 'NONE',  ( -0.000000000000000000, -1.000000000000000000, -0.000000000000000000 ) ) ;
#11493 = FACE_OUTER_BOUND ( 'NONE', #187844, .T. ) ;
#11858 = CYLINDRICAL_SURFACE ( 'NONE', #205474, 4.400000000000001243 ) ;
#11961 = VERTEX_POINT ( 'NONE', #200515 ) ;
#11976 = ADVANCED_FACE ( 'NONE', ( #187429, #111102, #117258, #112632, #302746, #280929, #62819, #253027, #89253, #184349 ), #235718, .T. ) ;
#12457 = EDGE_CURVE ( 'NONE', #162926, #50674, #59360, .T. ) ;
#12471 = FACE_OUTER_BOUND ( 'NONE', #146931, .T. ) ;
#13644 = VECTOR ( 'NONE', #11483, 1000.000000000000000 ) ;
#13656 = CYLINDRICAL_SURFACE ( 'NONE', #207940, 4.400000000000001243 ) ;
#13930 = DIRECTION ( 'NONE',  ( -0.000000000000000000, -1.000000000000000000, -0.000000000000000000 ) ) ;
#13961 = LINE ( 'NONE', #109056, #53934 ) ;
#14325 = ORIENTED_EDGE ( 'NONE', *, *, #42323, .T. ) ;
#14473 = ORIENTED_EDGE ( 'NONE', *, *, #248241, .T. ) ;
#14564 = DIRECTION ( 'NONE',  ( -0.000000000000000000, -1.000000000000000000, -0.000000000000000000 ) ) ;
#15059 = DIRECTION ( 'NONE',  ( 0.000000000000000000, 1.000000000000000000, 0.000000000000000000 ) ) ;
#15536 = ORIENTED_EDGE ( 'NONE', *, *, #255810, .T. ) ;
#15918 = ADVANCED_FACE ( 'NONE', ( #11493 ), #178232, .F. ) ;
#16883 = AXIS2_PLACEMENT_3D ( 'NONE', #55355, #239403, #25816 ) ;
#17381 = CARTESIAN_POINT ( 'NONE',  ( 0.000000000000000000, 5.000000000000000000, 0.000000000000000000 ) ) ;
#17390 = CIRCLE ( 'NONE', #176708, 55.00000000000000000 ) ;
#17512 = LINE ( 'NONE', #207797, #223258 ) ;
#17723 = SHAPE_REPRESENTATION ( 'PT.SHT.01.01.00.11  \X2\0424043b0430043d04350446\X0\ \X2\043f044004380441043e043504340438043d043804420435043b044c043d044b0439\X0\', ( #267245 ), #23384 ) ;
#21009 = DIRECTION ( 'NONE',  ( -0.000000000000000000, -1.000000000000000000, -0.000000000000000000 ) ) ;
#21245 = DIRECTION ( 'NONE',  ( 0.000000000000000000, 0.000000000000000000, -1.000000000000000000 ) ) ;
#22107 = EDGE_CURVE ( 'NONE', #3891, #11961, #1111, .T. ) ;
#22156 = DIRECTION ( 'NONE',  ( 0.000000000000000000, -0.000000000000000000, 1.000000000000000000 ) ) ;
#22245 = ORIENTED_EDGE ( 'NONE', *, *, #82853, .T. ) ;
#23384 = ( GEOMETRIC_REPRESENTATION_CONTEXT ( 3 ) GLOBAL_UNCERTAINTY_ASSIGNED_CONTEXT ( ( #144742 ) ) GLOBAL_UNIT_ASSIGNED_CONTEXT ( ( #29692, #215292, #286917 ) ) REPRESENTATION_CONTEXT ( 'NONE', 'WORKASPACE' ) );
#23526 = AXIS2_PLACEMENT_3D ( 'NONE', #101153, #168222, #196247 ) ;
#23833 = DIRECTION ( 'NONE',  ( 0.000000000000000000, 0.000000000000000000, 1.000000000000000000 ) ) ;
#24157 = LINE ( 'NONE', #211334, #60633 ) ;
#24742 = DIRECTION ( 'NONE',  ( -0.000000000000000000, -1.000000000000000000, -0.000000000000000000 ) ) ;
#25021 = ORIENTED_EDGE ( 'NONE', *, *, #147594, .T. ) ;
#25549 = VERTEX_POINT ( 'NONE', #185005 ) ;
#25591 = CARTESIAN_POINT ( 'NONE',  ( -47.72970773009195966, 5.000000000000000000, 52.12970773009195113 ) ) ;
#25816 = DIRECTION ( 'NONE',  ( 0.000000000000000000, 0.000000000000000000, 1.000000000000000000 ) ) ;
#26018 = ORIENTED_EDGE ( 'NONE', *, *, #147594, .F. ) ;
#26089 = ORIENTED_EDGE ( 'NONE', *, *, #91438, .T. ) ;
#26853 = CYLINDRICAL_SURFACE ( 'NONE', #181408, 55.00000000000000000 ) ;
#27333 = CIRCLE ( 'NONE', #251512, 4.400000000000001243 ) ;
#27526 = CARTESIAN_POINT ( 'NONE',  ( -4.194415287079666203E-15, 0.000000000000000000, -67.50000000000001421 ) ) ;
#27942 = ORIENTED_EDGE ( 'NONE', *, *, #115262, .F. ) ;
#28117 = CIRCLE ( 'NONE', #291802, 4.399999999999997691 ) ;
#28221 = CARTESIAN_POINT ( 'NONE',  ( -47.72970773009195966, 5.000000000000000000, 43.32970773009194687 ) ) ;
#28353 = DIRECTION ( 'NONE',  ( 0.000000000000000000, 1.000000000000000000, 0.000000000000000000 ) ) ;
#29692 = ( LENGTH_UNIT ( ) NAMED_UNIT ( * ) SI_UNIT ( .MILLI., .METRE. ) );
#29695 = VERTEX_POINT ( 'NONE', #101815 ) ;
#29866 = VERTEX_POINT ( 'NONE', #252940 ) ;
#29966 = VERTEX_POINT ( 'NONE', #119833 ) ;
#30600 = ORIENTED_EDGE ( 'NONE', *, *, #274883, .T. ) ;
#31724 = CIRCLE ( 'NONE', #215980, 4.400000000000001243 ) ;
#32069 = FACE_BOUND ( 'NONE', #164406, .T. ) ;
#32161 = ADVANCED_FACE ( 'NONE', ( #180069 ), #156664, .F. ) ;
#32728 = CARTESIAN_POINT ( 'NONE',  ( 47.72970773009195256, 5.000000000000000000, 47.72970773009195966 ) ) ;
#32802 = CIRCLE ( 'NONE', #281778, 4.400000000000001243 ) ;
#33309 = AXIS2_PLACEMENT_3D ( 'NONE', #127163, #81947, #251853 ) ;
#33542 = CARTESIAN_POINT ( 'NONE',  ( 67.50000000000000000, 5.000000000000000000, 0.000000000000000000 ) ) ;
#34038 = ORIENTED_EDGE ( 'NONE', *, *, #92942, .T. ) ;
#34052 = AXIS2_PLACEMENT_3D ( 'NONE', #135734, #157562, #132647 ) ;
#34161 = EDGE_CURVE ( 'NONE', #122370, #203762, #183716, .T. ) ;
#34278 = CYLINDRICAL_SURFACE ( 'NONE', #152098, 4.400000000000001243 ) ;
#37461 = EDGE_LOOP ( 'NONE', ( #263309, #241485, #136181, #82007 ) ) ;
#37496 = VERTEX_POINT ( 'NONE', #308174 ) ;
#37570 = DIRECTION ( 'NONE',  ( 0.000000000000000000, 0.000000000000000000, 1.000000000000000000 ) ) ;
#37858 = EDGE_LOOP ( 'NONE', ( #108787, #7430, #96251, #294214 ) ) ;
#38967 = CIRCLE ( 'NONE', #34052, 4.400000000000001243 ) ;
#39724 = EDGE_CURVE ( 'NONE', #244233, #25549, #52265, .T. ) ;
#39969 = EDGE_LOOP ( 'NONE', ( #294938, #14325, #262707, #246463 ) ) ;
#41139 = DIRECTION ( 'NONE',  ( 0.000000000000000000, 0.000000000000000000, -1.000000000000000000 ) ) ;
#41508 = ORIENTED_EDGE ( 'NONE', *, *, #264319, .F. ) ;
#41564 = CYLINDRICAL_SURFACE ( 'NONE', #210757, 4.400000000000001243 ) ;
#41595 = ADVANCED_FACE ( 'NONE', ( #227914 ), #176502, .F. ) ;
#42323 = EDGE_CURVE ( 'NONE', #203762, #37496, #146235, .T. ) ;
#42337 = ORIENTED_EDGE ( 'NONE', *, *, #221441, .F. ) ;
#42459 = CIRCLE ( 'NONE', #276335, 4.400000000000001243 ) ;
#42878 = ORIENTED_EDGE ( 'NONE', *, *, #100462, .F. ) ;
#43183 = CARTESIAN_POINT ( 'NONE',  ( -67.50000000000000000, 0.000000000000000000, -8.143901214329936262E-15 ) ) ;
#43976 = EDGE_CURVE ( 'NONE', #104976, #29966, #303413, .T. ) ;
#44050 = VERTEX_POINT ( 'NONE', #199864 ) ;
#44629 = CIRCLE ( 'NONE', #218876, 4.400000000000001243 ) ;
#45113 = ORIENTED_EDGE ( 'NONE', *, *, #128189, .T. ) ;
#45427 = DIRECTION ( 'NONE',  ( 0.000000000000000000, 1.000000000000000000, 0.000000000000000000 ) ) ;
#45477 = ORIENTED_EDGE ( 'NONE', *, *, #283865, .F. ) ;
#45731 = AXIS2_PLACEMENT_3D ( 'NONE', #122828, #261661, #51136 ) ;
#46534 = EDGE_LOOP ( 'NONE', ( #34038, #281831 ) ) ;
#46999 = ORIENTED_EDGE ( 'NONE', *, *, #261794, .T. ) ;
#47525 = DIRECTION ( 'NONE',  ( -0.000000000000000000, -1.000000000000000000, -0.000000000000000000 ) ) ;
#47716 = PRODUCT_DEFINITION_CONTEXT ( 'detailed design', #164698, 'design' ) ;
#47809 = DIRECTION ( 'NONE',  ( 0.000000000000000000, 0.000000000000000000, 1.000000000000000000 ) ) ;
#49020 = CIRCLE ( 'NONE', #268014, 4.400000000000001243 ) ;
#49446 = CARTESIAN_POINT ( 'NONE',  ( -67.50000000000000000, 5.000000000000000000, -8.143901214329936262E-15 ) ) ;
#49832 = CARTESIAN_POINT ( 'NONE',  ( -4.071950607164968131E-15, 5.000000000000000000, 67.49999999999998579 ) ) ;
#49905 = AXIS2_PLACEMENT_3D ( 'NONE', #244250, #80543, #245793 ) ;
#50015 = SHAPE_REPRESENTATION_RELATIONSHIP ( 'NONE' , 'NONE' ,  #17723, #202228 ) ;
#50674 = VERTEX_POINT ( 'NONE', #235524 ) ;
#50881 = VERTEX_POINT ( 'NONE', #190574 ) ;
#50951 = DIRECTION ( 'NONE',  ( -0.000000000000000000, -1.000000000000000000, -0.000000000000000000 ) ) ;
#51020 = EDGE_CURVE ( 'NONE', #203762, #122370, #281440, .T. ) ;
#51136 = DIRECTION ( 'NONE',  ( 0.000000000000000000, 0.000000000000000000, -1.000000000000000000 ) ) ;
#51539 = DIRECTION ( 'NONE',  ( 0.000000000000000000, 0.000000000000000000, -1.000000000000000000 ) ) ;
#51861 = CARTESIAN_POINT ( 'NONE',  ( 0.000000000000000000, 5.000000000000000000, 0.000000000000000000 ) ) ;
#52043 = CIRCLE ( 'NONE', #126600, 4.400000000000001243 ) ;
#52152 = CARTESIAN_POINT ( 'NONE',  ( 0.000000000000000000, 0.000000000000000000, -55.00000000000000000 ) ) ;
#52265 = CIRCLE ( 'NONE', #226509, 4.400000000000001243 ) ;
#52890 = EDGE_LOOP ( 'NONE', ( #193090, #45113, #170970, #298790 ) ) ;
#52910 = CARTESIAN_POINT ( 'NONE',  ( 47.72970773009195256, 5.000000000000000000, 52.12970773009196535 ) ) ;
#53934 = VECTOR ( 'NONE', #277361, 1000.000000000000000 ) ;
#54028 = CARTESIAN_POINT ( 'NONE',  ( 47.72970773009196677, 5.000000000000000000, -43.32970773009196108 ) ) ;
#54296 = FACE_OUTER_BOUND ( 'NONE', #37461, .T. ) ;
#54721 = ORIENTED_EDGE ( 'NONE', *, *, #93163, .F. ) ;
#55190 = CARTESIAN_POINT ( 'NONE',  ( 0.000000000000000000, 5.000000000000000000, -80.00000000000000000 ) ) ;
#55355 = CARTESIAN_POINT ( 'NONE',  ( 0.000000000000000000, 0.000000000000000000, 0.000000000000000000 ) ) ;
#55853 = AXIS2_PLACEMENT_3D ( 'NONE', #87915, #181444, #41139 ) ;
#55985 = VERTEX_POINT ( 'NONE', #233347 ) ;
#56271 = ORIENTED_EDGE ( 'NONE', *, *, #161343, .F. ) ;
#57936 = ORIENTED_EDGE ( 'NONE', *, *, #153111, .F. ) ;
#58632 = ORIENTED_EDGE ( 'NONE', *, *, #221441, .T. ) ;
#58757 = DIRECTION ( 'NONE',  ( 0.000000000000000000, 0.000000000000000000, 1.000000000000000000 ) ) ;
#59360 = CIRCLE ( 'NONE', #273423, 4.400000000000001243 ) ;
#59939 = EDGE_CURVE ( 'NONE', #163827, #55985, #31724, .T. ) ;
#60633 = VECTOR ( 'NONE', #47525, 1000.000000000000000 ) ;
#62819 = FACE_BOUND ( 'NONE', #282359, .T. ) ;
#63043 = DIRECTION ( 'NONE',  ( 0.000000000000000000, 1.000000000000000000, 0.000000000000000000 ) ) ;
#65106 = DIRECTION ( 'NONE',  ( 0.000000000000000000, 0.000000000000000000, 1.000000000000000000 ) ) ;
#66559 = ADVANCED_FACE ( 'NONE', ( #6078 ), #292809, .F. ) ;
#67079 = AXIS2_PLACEMENT_3D ( 'NONE', #123586, #296457, #179537 ) ;
#67697 = CYLINDRICAL_SURFACE ( 'NONE', #79123, 4.399999999999997691 ) ;
#68148 = FACE_OUTER_BOUND ( 'NONE', #147171, .T. ) ;
#68178 = DIRECTION ( 'NONE',  ( 0.000000000000000000, 0.000000000000000000, 1.000000000000000000 ) ) ;
#68317 = VERTEX_POINT ( 'NONE', #54028 ) ;
#68758 = DIRECTION ( 'NONE',  ( -0.000000000000000000, -1.000000000000000000, -0.000000000000000000 ) ) ;
#69275 = EDGE_CURVE ( 'NONE', #184638, #104976, #129245, .T. ) ;
#69627 = VERTEX_POINT ( 'NONE', #128852 ) ;
#69741 = ADVANCED_FACE ( 'NONE', ( #219371 ), #8844, .F. ) ;
#70100 = EDGE_CURVE ( 'NONE', #29695, #240668, #243867, .T. ) ;
#71546 = CARTESIAN_POINT ( 'NONE',  ( -67.50000000000000000, 5.000000000000000000, -8.143901214329936262E-15 ) ) ;
#72154 = DIRECTION ( 'NONE',  ( -0.000000000000000000, -1.000000000000000000, -0.000000000000000000 ) ) ;
#73115 = ADVANCED_FACE ( 'NONE', ( #283468 ), #168082, .T. ) ;
#73212 = AXIS2_PLACEMENT_3D ( 'NONE', #177682, #230662, #107578 ) ;
#73433 = VECTOR ( 'NONE', #270489, 1000.000000000000000 ) ;
#74658 = CARTESIAN_POINT ( 'NONE',  ( -3.533106015540132532E-15, 5.000000000000000000, 71.89999999999999147 ) ) ;
#74874 = ORIENTED_EDGE ( 'NONE', *, *, #93163, .T. ) ;
#75531 = ADVANCED_FACE ( 'NONE', ( #68148 ), #233353, .F. ) ;
#76633 = ORIENTED_EDGE ( 'NONE', *, *, #264684, .F. ) ;
#77357 = DIRECTION ( 'NONE',  ( 0.000000000000000000, -0.000000000000000000, 1.000000000000000000 ) ) ;
#77850 = ORIENTED_EDGE ( 'NONE', *, *, #172954, .T. ) ;
#78315 = DIRECTION ( 'NONE',  ( 0.000000000000000000, 0.000000000000000000, 1.000000000000000000 ) ) ;
#78967 = AXIS2_PLACEMENT_3D ( 'NONE', #259184, #136027, #22156 ) ;
#79123 = AXIS2_PLACEMENT_3D ( 'NONE', #139358, #115966, #186126 ) ;
#79360 = DIRECTION ( 'NONE',  ( 0.000000000000000000, 0.000000000000000000, 1.000000000000000000 ) ) ;
#79580 = DIRECTION ( 'NONE',  ( -0.000000000000000000, -1.000000000000000000, -0.000000000000000000 ) ) ;
#80370 = FACE_OUTER_BOUND ( 'NONE', #140459, .T. ) ;
#80543 = DIRECTION ( 'NONE',  ( -0.000000000000000000, -1.000000000000000000, -0.000000000000000000 ) ) ;
#80939 = LINE ( 'NONE', #52910, #281145 ) ;
#80946 = DIRECTION ( 'NONE',  ( -0.000000000000000000, -1.000000000000000000, -0.000000000000000000 ) ) ;
#81260 = DIRECTION ( 'NONE',  ( 0.000000000000000000, 1.000000000000000000, 0.000000000000000000 ) ) ;
#81947 = DIRECTION ( 'NONE',  ( -0.000000000000000000, -1.000000000000000000, -0.000000000000000000 ) ) ;
#82007 = ORIENTED_EDGE ( 'NONE', *, *, #248241, .F. ) ;
#82628 = ORIENTED_EDGE ( 'NONE', *, *, #234867, .F. ) ;
#82853 = EDGE_CURVE ( 'NONE', #29695, #306266, #102703, .T. ) ;
#84264 = DIRECTION ( 'NONE',  ( 0.000000000000000000, 1.000000000000000000, 0.000000000000000000 ) ) ;
#84615 = CARTESIAN_POINT ( 'NONE',  ( -47.72970773009195966, 5.000000000000000000, -52.12970773009197245 ) ) ;
#85240 = CARTESIAN_POINT ( 'NONE',  ( -47.72970773009195966, 5.000000000000000000, -52.12970773009197245 ) ) ;
#85387 = CARTESIAN_POINT ( 'NONE',  ( -4.071950607164968131E-15, 5.000000000000000000, 67.49999999999998579 ) ) ;
#85958 = DIRECTION ( 'NONE',  ( 0.000000000000000000, 0.000000000000000000, 1.000000000000000000 ) ) ;
#86309 = LINE ( 'NONE', #181366, #11408 ) ;
#87704 = ORIENTED_EDGE ( 'NONE', *, *, #234867, .T. ) ;
#87915 = CARTESIAN_POINT ( 'NONE',  ( 67.50000000000000000, 5.000000000000000000, 0.000000000000000000 ) ) ;
#88006 = ADVANCED_FACE ( 'NONE', ( #125718 ), #11858, .F. ) ;
#88197 = CIRCLE ( 'NONE', #142929, 4.400000000000001243 ) ;
#88445 = CARTESIAN_POINT ( 'NONE',  ( 47.72970773009196677, 5.000000000000000000, -47.72970773009195966 ) ) ;
#88815 = CARTESIAN_POINT ( 'NONE',  ( 0.000000000000000000, 5.000000000000000000, 0.000000000000000000 ) ) ;
#88975 = DIRECTION ( 'NONE',  ( 0.000000000000000000, 0.000000000000000000, 1.000000000000000000 ) ) ;
#89079 = AXIS2_PLACEMENT_3D ( 'NONE', #147437, #295437, #242613 ) ;
#89253 = FACE_BOUND ( 'NONE', #97776, .T. ) ;
#89654 = CARTESIAN_POINT ( 'NONE',  ( 0.000000000000000000, 5.000000000000000000, 0.000000000000000000 ) ) ;
#89706 = VECTOR ( 'NONE', #271092, 1000.000000000000000 ) ;
#89896 = DIRECTION ( 'NONE',  ( -0.000000000000000000, -1.000000000000000000, -0.000000000000000000 ) ) ;
#91438 = EDGE_CURVE ( 'NONE', #55985, #148480, #80939, .T. ) ;
#92038 = ORIENTED_EDGE ( 'NONE', *, *, #43976, .F. ) ;
#92942 = EDGE_CURVE ( 'NONE', #102860, #247021, #152004, .T. ) ;
#93163 = EDGE_CURVE ( 'NONE', #240668, #29695, #276472, .T. ) ;
#93670 = EDGE_CURVE ( 'NONE', #37496, #44050, #28117, .T. ) ;
#94074 = CARTESIAN_POINT ( 'NONE',  ( 9.797174393178826052E-15, 0.000000000000000000, 80.00000000000000000 ) ) ;
#94175 = EDGE_CURVE ( 'NONE', #44050, #37496, #307133, .T. ) ;
#94413 = DIRECTION ( 'NONE',  ( 0.000000000000000000, 1.000000000000000000, 0.000000000000000000 ) ) ;
#95053 = CARTESIAN_POINT ( 'NONE',  ( 47.72970773009195256, 0.000000000000000000, 43.32970773009196108 ) ) ;
#96251 = ORIENTED_EDGE ( 'NONE', *, *, #12457, .F. ) ;
#96791 = DIRECTION ( 'NONE',  ( 0.000000000000000000, 0.000000000000000000, 1.000000000000000000 ) ) ;
#96800 = CARTESIAN_POINT ( 'NONE',  ( -4.071950607164968131E-15, 5.000000000000000000, 67.49999999999998579 ) ) ;
#97191 = CARTESIAN_POINT ( 'NONE',  ( -47.72970773009195966, 0.000000000000000000, 52.12970773009195113 ) ) ;
#97776 = EDGE_LOOP ( 'NONE', ( #123952, #289583 ) ) ;
#97867 = AXIS2_PLACEMENT_3D ( 'NONE', #126291, #79580, #51539 ) ;
#97970 = EDGE_CURVE ( 'NONE', #297062, #226450, #298629, .T. ) ;
#98019 = AXIS2_PLACEMENT_3D ( 'NONE', #186648, #110761, #134127 ) ;
#98147 = VERTEX_POINT ( 'NONE', #159612 ) ;
#99020 = EDGE_LOOP ( 'NONE', ( #30600, #150851, #299818, #170324 ) ) ;
#99444 = CARTESIAN_POINT ( 'NONE',  ( 47.72970773009195256, 5.000000000000000000, 43.32970773009196108 ) ) ;
#100462 = EDGE_CURVE ( 'NONE', #55985, #163827, #42459, .T. ) ;
#100672 = CYLINDRICAL_SURFACE ( 'NONE', #154729, 4.399999999999997691 ) ;
#101153 = CARTESIAN_POINT ( 'NONE',  ( 47.72970773009195256, 0.000000000000000000, 47.72970773009195966 ) ) ;
#101707 = CIRCLE ( 'NONE', #16883, 80.00000000000000000 ) ;
#101815 = CARTESIAN_POINT ( 'NONE',  ( 9.797174393178826052E-15, 5.000000000000000000, 80.00000000000000000 ) ) ;
#102103 = CARTESIAN_POINT ( 'NONE',  ( 0.000000000000000000, 5.000000000000000000, -55.00000000000000000 ) ) ;
#102132 = EDGE_CURVE ( 'NONE', #25549, #162926, #146404, .T. ) ;
#102572 = ORIENTED_EDGE ( 'NONE', *, *, #137937, .T. ) ;
#102703 = LINE ( 'NONE', #269515, #258015 ) ;
#102860 = VERTEX_POINT ( 'NONE', #52152 ) ;
#103140 = DIRECTION ( 'NONE',  ( 0.000000000000000000, 1.000000000000000000, 0.000000000000000000 ) ) ;
#103510 = ORIENTED_EDGE ( 'NONE', *, *, #39724, .F. ) ;
#103768 = FACE_BOUND ( 'NONE', #144841, .T. ) ;
#103825 = EDGE_CURVE ( 'NONE', #29866, #140620, #268287, .T. ) ;
#104343 = EDGE_LOOP ( 'NONE', ( #246677, #102572 ) ) ;
#104434 = AXIS2_PLACEMENT_3D ( 'NONE', #281150, #63043, #306027 ) ;
#104934 = CARTESIAN_POINT ( 'NONE',  ( -47.72970773009195966, 5.000000000000000000, 47.72970773009194545 ) ) ;
#104976 = VERTEX_POINT ( 'NONE', #269668 ) ;
#105476 = CARTESIAN_POINT ( 'NONE',  ( -47.72970773009195966, 0.000000000000000000, -43.32970773009196819 ) ) ;
#106003 = AXIS2_PLACEMENT_3D ( 'NONE', #17381, #238241, #4369 ) ;
#106253 = AXIS2_PLACEMENT_3D ( 'NONE', #27526, #214723, #192813 ) ;
#107578 = DIRECTION ( 'NONE',  ( 0.000000000000000000, 0.000000000000000000, -1.000000000000000000 ) ) ;
#107980 = ORIENTED_EDGE ( 'NONE', *, *, #103825, .T. ) ;
#108043 = EDGE_CURVE ( 'NONE', #68317, #193144, #240023, .T. ) ;
#108297 = ORIENTED_EDGE ( 'NONE', *, *, #303517, .F. ) ;
#108305 = AXIS2_PLACEMENT_3D ( 'NONE', #136532, #161414, #141127 ) ;
#108787 = ORIENTED_EDGE ( 'NONE', *, *, #264319, .T. ) ;
#108893 = CIRCLE ( 'NONE', #283082, 4.400000000000001243 ) ;
#109056 = CARTESIAN_POINT ( 'NONE',  ( 67.50000000000000000, 5.000000000000000000, 4.399999999999997691 ) ) ;
#109078 = ORIENTED_EDGE ( 'NONE', *, *, #201100, .T. ) ;
#109601 = AXIS2_PLACEMENT_3D ( 'NONE', #220712, #223773, #77357 ) ;
#110567 = SHAPE_DEFINITION_REPRESENTATION ( #10043, #17723 ) ;
#110761 = DIRECTION ( 'NONE',  ( 0.000000000000000000, 1.000000000000000000, 0.000000000000000000 ) ) ;
#111102 = FACE_BOUND ( 'NONE', #13, .T. ) ;
#111274 = ORIENTED_EDGE ( 'NONE', *, *, #304760, .F. ) ;
#111296 = ORIENTED_EDGE ( 'NONE', *, *, #51020, .T. ) ;
#111715 = EDGE_CURVE ( 'NONE', #50881, #141293, #162534, .T. ) ;
#111735 = PRODUCT_DEFINITION_FORMATION_WITH_SPECIFIED_SOURCE ( 'ANY', '', #226659, .NOT_KNOWN. ) ;
#112032 = ORIENTED_EDGE ( 'NONE', *, *, #108043, .T. ) ;
#112309 = ORIENTED_EDGE ( 'NONE', *, *, #82853, .F. ) ;
#112632 = FACE_BOUND ( 'NONE', #159898, .T. ) ;
#112852 = EDGE_CURVE ( 'NONE', #98147, #226450, #220648, .T. ) ;
#113286 = EDGE_LOOP ( 'NONE', ( #143092, #174228 ) ) ;
#113627 = DIRECTION ( 'NONE',  ( 0.000000000000000000, 0.000000000000000000, 1.000000000000000000 ) ) ;
#113805 = DIRECTION ( 'NONE',  ( 0.000000000000000000, 1.000000000000000000, 0.000000000000000000 ) ) ;
#114041 = CARTESIAN_POINT ( 'NONE',  ( 67.50000000000000000, 5.000000000000000000, -4.399999999999997691 ) ) ;
#114680 = CYLINDRICAL_SURFACE ( 'NONE', #108305, 4.400000000000001243 ) ;
#115059 = ORIENTED_EDGE ( 'NONE', *, *, #257667, .T. ) ;
#115262 = EDGE_CURVE ( 'NONE', #226450, #297062, #44629, .T. ) ;
#115966 = DIRECTION ( 'NONE',  ( -0.000000000000000000, -1.000000000000000000, -0.000000000000000000 ) ) ;
#115967 = ADVANCED_FACE ( 'NONE', ( #208191 ), #303132, .F. ) ;
#117258 = FACE_BOUND ( 'NONE', #198036, .T. ) ;
#117769 = CARTESIAN_POINT ( 'NONE',  ( 47.72970773009196677, 0.000000000000000000, -47.72970773009195966 ) ) ;
#118849 = DIRECTION ( 'NONE',  ( 0.000000000000000000, 0.000000000000000000, 1.000000000000000000 ) ) ;
#118923 = ORIENTED_EDGE ( 'NONE', *, *, #70100, .T. ) ;
#119420 = EDGE_CURVE ( 'NONE', #138966, #272887, #200659, .T. ) ;
#119833 = CARTESIAN_POINT ( 'NONE',  ( 67.50000000000000000, 0.000000000000000000, 4.399999999999997691 ) ) ;
#120307 = ORIENTED_EDGE ( 'NONE', *, *, #59939, .T. ) ;
#121152 = DIRECTION ( 'NONE',  ( 0.000000000000000000, 0.000000000000000000, 1.000000000000000000 ) ) ;
#121918 = CARTESIAN_POINT ( 'NONE',  ( 0.000000000000000000, 5.000000000000000000, 0.000000000000000000 ) ) ;
#122370 = VERTEX_POINT ( 'NONE', #206511 ) ;
#122511 = FACE_BOUND ( 'NONE', #104343, .T. ) ;
#122828 = CARTESIAN_POINT ( 'NONE',  ( 0.000000000000000000, 5.000000000000000000, 0.000000000000000000 ) ) ;
#123168 = EDGE_CURVE ( 'NONE', #11961, #168406, #198903, .T. ) ;
#123586 = CARTESIAN_POINT ( 'NONE',  ( 67.50000000000000000, 5.000000000000000000, 0.000000000000000000 ) ) ;
#123952 = ORIENTED_EDGE ( 'NONE', *, *, #293731, .F. ) ;
#124086 = FACE_BOUND ( 'NONE', #277741, .T. ) ;
#124349 = AXIS2_PLACEMENT_3D ( 'NONE', #142250, #187494, #282537 ) ;
#125718 = FACE_OUTER_BOUND ( 'NONE', #37858, .T. ) ;
#125726 = CYLINDRICAL_SURFACE ( 'NONE', #49905, 4.399999999999997691 ) ;
#126291 = CARTESIAN_POINT ( 'NONE',  ( 0.000000000000000000, 5.000000000000000000, 0.000000000000000000 ) ) ;
#126600 = AXIS2_PLACEMENT_3D ( 'NONE', #204199, #250955, #113627 ) ;
#126882 = CARTESIAN_POINT ( 'NONE',  ( 0.000000000000000000, 5.000000000000000000, -80.00000000000000000 ) ) ;
#126923 = DIRECTION ( 'NONE',  ( 0.000000000000000000, 1.000000000000000000, 0.000000000000000000 ) ) ;
#127163 = CARTESIAN_POINT ( 'NONE',  ( -47.72970773009195966, 5.000000000000000000, -47.72970773009196677 ) ) ;
#127610 = DIRECTION ( 'NONE',  ( -0.000000000000000000, -1.000000000000000000, -0.000000000000000000 ) ) ;
#128189 = EDGE_CURVE ( 'NONE', #246724, #168406, #86309, .T. ) ;
#128442 = CARTESIAN_POINT ( 'NONE',  ( 47.72970773009196677, 5.000000000000000000, -47.72970773009195966 ) ) ;
#128529 = CARTESIAN_POINT ( 'NONE',  ( 0.000000000000000000, 5.000000000000000000, -55.00000000000000000 ) ) ;
#128852 = CARTESIAN_POINT ( 'NONE',  ( -47.72970773009195966, 0.000000000000000000, 43.32970773009194687 ) ) ;
#129110 = ADVANCED_FACE ( 'NONE', ( #1975 ), #26853, .F. ) ;
#129230 = LINE ( 'NONE', #294441, #160853 ) ;
#129245 = LINE ( 'NONE', #292909, #89706 ) ;
#129357 = ORIENTED_EDGE ( 'NONE', *, *, #103825, .F. ) ;
#129474 = CARTESIAN_POINT ( 'NONE',  ( -4.194415287079666203E-15, 0.000000000000000000, -67.50000000000001421 ) ) ;
#130412 = DIRECTION ( 'NONE',  ( 0.000000000000000000, 0.000000000000000000, -1.000000000000000000 ) ) ;
#130750 = EDGE_LOOP ( 'NONE', ( #156788, #281375 ) ) ;
#130766 = VERTEX_POINT ( 'NONE', #85240 ) ;
#132647 = DIRECTION ( 'NONE',  ( 0.000000000000000000, 0.000000000000000000, 1.000000000000000000 ) ) ;
#134127 = DIRECTION ( 'NONE',  ( 0.000000000000000000, 0.000000000000000000, 1.000000000000000000 ) ) ;
#135734 = CARTESIAN_POINT ( 'NONE',  ( -4.194415287079666203E-15, 5.000000000000000000, -67.50000000000001421 ) ) ;
#135805 = CARTESIAN_POINT ( 'NONE',  ( 6.735557395310442615E-15, 5.000000000000000000, 55.00000000000000000 ) ) ;
#136027 = DIRECTION ( 'NONE',  ( 0.000000000000000000, 1.000000000000000000, 0.000000000000000000 ) ) ;
#136181 = ORIENTED_EDGE ( 'NONE', *, *, #102132, .T. ) ;
#136532 = CARTESIAN_POINT ( 'NONE',  ( -47.72970773009195966, 5.000000000000000000, 47.72970773009194545 ) ) ;
#137058 = DIRECTION ( 'NONE',  ( 0.000000000000000000, 1.000000000000000000, 0.000000000000000000 ) ) ;
#137130 = DIRECTION ( 'NONE',  ( 0.000000000000000000, 1.000000000000000000, 0.000000000000000000 ) ) ;
#137588 = CIRCLE ( 'NONE', #266872, 55.00000000000000000 ) ;
#137937 = EDGE_CURVE ( 'NONE', #29966, #104976, #188701, .T. ) ;
#137986 = VERTEX_POINT ( 'NONE', #95053 ) ;
#138153 = AXIS2_PLACEMENT_3D ( 'NONE', #298029, #154628, #249830 ) ;
#138190 = FACE_OUTER_BOUND ( 'NONE', #52890, .T. ) ;
#138966 = VERTEX_POINT ( 'NONE', #275941 ) ;
#138969 = CARTESIAN_POINT ( 'NONE',  ( 47.72970773009195256, 5.000000000000000000, 47.72970773009195966 ) ) ;
#139358 = CARTESIAN_POINT ( 'NONE',  ( -67.50000000000000000, 5.000000000000000000, -8.143901214329936262E-15 ) ) ;
#139869 = CARTESIAN_POINT ( 'NONE',  ( -47.72970773009195966, 0.000000000000000000, -47.72970773009196677 ) ) ;
#140459 = EDGE_LOOP ( 'NONE', ( #224378, #141950, #92038, #245053 ) ) ;
#140620 = VERTEX_POINT ( 'NONE', #199035 ) ;
#140876 = FACE_OUTER_BOUND ( 'NONE', #177926, .T. ) ;
#140961 = DIRECTION ( 'NONE',  ( -0.000000000000000000, -1.000000000000000000, -0.000000000000000000 ) ) ;
#141118 = CIRCLE ( 'NONE', #190993, 4.400000000000001243 ) ;
#141127 = DIRECTION ( 'NONE',  ( 0.000000000000000000, 0.000000000000000000, -1.000000000000000000 ) ) ;
#141253 = CARTESIAN_POINT ( 'NONE',  ( -4.194415287079666203E-15, 5.000000000000000000, -67.50000000000001421 ) ) ;
#141293 = VERTEX_POINT ( 'NONE', #162867 ) ;
#141950 = ORIENTED_EDGE ( 'NONE', *, *, #264684, .T. ) ;
#142250 = CARTESIAN_POINT ( 'NONE',  ( 67.50000000000000000, 0.000000000000000000, 0.000000000000000000 ) ) ;
#142929 = AXIS2_PLACEMENT_3D ( 'NONE', #272543, #221175, #79360 ) ;
#143092 = ORIENTED_EDGE ( 'NONE', *, *, #260526, .F. ) ;
#143528 = CARTESIAN_POINT ( 'NONE',  ( 0.000000000000000000, 5.000000000000000000, 0.000000000000000000 ) ) ;
#144033 = ORIENTED_EDGE ( 'NONE', *, *, #257667, .F. ) ;
#144742 = UNCERTAINTY_MEASURE_WITH_UNIT (LENGTH_MEASURE( 1.000000000000000082E-05 ), #29692, 'distance_accuracy_value', 'NONE');
#144757 = LINE ( 'NONE', #74658, #215579 ) ;
#144841 = EDGE_LOOP ( 'NONE', ( #25021, #266577 ) ) ;
#145677 = AXIS2_PLACEMENT_3D ( 'NONE', #128442, #14564, #273374 ) ;
#146235 = LINE ( 'NONE', #241378, #287634 ) ;
#146257 = CARTESIAN_POINT ( 'NONE',  ( 0.000000000000000000, 0.000000000000000000, -80.00000000000000000 ) ) ;
#146404 = LINE ( 'NONE', #171372, #147881 ) ;
#146470 = APPLICATION_CONTEXT ( 'automotive_design' ) ;
#146931 = EDGE_LOOP ( 'NONE', ( #6310, #154049, #9365, #144033 ) ) ;
#147171 = EDGE_LOOP ( 'NONE', ( #240080, #180223, #267489, #57936 ) ) ;
#147437 = CARTESIAN_POINT ( 'NONE',  ( -47.72970773009195966, 0.000000000000000000, 47.72970773009194545 ) ) ;
#147594 = EDGE_CURVE ( 'NONE', #137986, #148480, #3716, .T. ) ;
#147607 = EDGE_LOOP ( 'NONE', ( #247940, #82628 ) ) ;
#147773 = DIRECTION ( 'NONE',  ( -0.000000000000000000, -1.000000000000000000, -0.000000000000000000 ) ) ;
#147837 = VECTOR ( 'NONE', #140961, 1000.000000000000000 ) ;
#147881 = VECTOR ( 'NONE', #266441, 1000.000000000000000 ) ;
#148124 = EDGE_LOOP ( 'NONE', ( #112309, #54721, #149118, #181860 ) ) ;
#148480 = VERTEX_POINT ( 'NONE', #190160 ) ;
#148878 = EDGE_CURVE ( 'NONE', #193144, #140620, #220818, .T. ) ;
#149118 = ORIENTED_EDGE ( 'NONE', *, *, #187281, .T. ) ;
#149339 = DIRECTION ( 'NONE',  ( -0.000000000000000000, -1.000000000000000000, -0.000000000000000000 ) ) ;
#149863 = DIRECTION ( 'NONE',  ( 0.000000000000000000, 0.000000000000000000, 1.000000000000000000 ) ) ;
#150267 = AXIS2_PLACEMENT_3D ( 'NONE', #217021, #28353, #118849 ) ;
#150413 = CARTESIAN_POINT ( 'NONE',  ( -47.72970773009195966, 5.000000000000000000, -43.32970773009196819 ) ) ;
#150851 = ORIENTED_EDGE ( 'NONE', *, *, #220749, .T. ) ;
#151131 = FACE_OUTER_BOUND ( 'NONE', #156915, .T. ) ;
#151837 = ORIENTED_EDGE ( 'NONE', *, *, #123168, .T. ) ;
#152004 = CIRCLE ( 'NONE', #266661, 55.00000000000000000 ) ;
#152098 = AXIS2_PLACEMENT_3D ( 'NONE', #32728, #13930, #204192 ) ;
#152753 = EDGE_CURVE ( 'NONE', #193144, #68317, #108893, .T. ) ;
#153111 = EDGE_CURVE ( 'NONE', #156225, #69627, #153751, .T. ) ;
#153698 = DIRECTION ( 'NONE',  ( -0.000000000000000000, -1.000000000000000000, -0.000000000000000000 ) ) ;
#153751 = CIRCLE ( 'NONE', #89079, 4.400000000000001243 ) ;
#154049 = ORIENTED_EDGE ( 'NONE', *, *, #282519, .T. ) ;
#154319 = DIRECTION ( 'NONE',  ( 0.000000000000000000, 1.000000000000000000, 0.000000000000000000 ) ) ;
#154628 = DIRECTION ( 'NONE',  ( -0.000000000000000000, -1.000000000000000000, -0.000000000000000000 ) ) ;
#154712 = LINE ( 'NONE', #84615, #230154 ) ;
#154729 = AXIS2_PLACEMENT_3D ( 'NONE', #33542, #242532, #197314 ) ;
#154868 = ORIENTED_EDGE ( 'NONE', *, *, #137937, .F. ) ;
#155596 = VERTEX_POINT ( 'NONE', #305275 ) ;
#156225 = VERTEX_POINT ( 'NONE', #97191 ) ;
#156664 = CYLINDRICAL_SURFACE ( 'NONE', #33309, 4.400000000000001243 ) ;
#156788 = ORIENTED_EDGE ( 'NONE', *, *, #274883, .F. ) ;
#156915 = EDGE_LOOP ( 'NONE', ( #120307, #26089, #26018, #245208 ) ) ;
#157029 = AXIS2_PLACEMENT_3D ( 'NONE', #11082, #81260, #176285 ) ;
#157562 = DIRECTION ( 'NONE',  ( 0.000000000000000000, 1.000000000000000000, 0.000000000000000000 ) ) ;
#157759 = ORIENTED_EDGE ( 'NONE', *, *, #93670, .T. ) ;
#158073 = DIRECTION ( 'NONE',  ( 0.000000000000000000, 0.000000000000000000, 1.000000000000000000 ) ) ;
#158398 = EDGE_CURVE ( 'NONE', #141293, #69627, #4876, .T. ) ;
#158418 = CARTESIAN_POINT ( 'NONE',  ( -47.72970773009195966, 5.000000000000000000, 47.72970773009194545 ) ) ;
#159612 = CARTESIAN_POINT ( 'NONE',  ( -47.72970773009195966, 5.000000000000000000, -43.32970773009196819 ) ) ;
#159898 = EDGE_LOOP ( 'NONE', ( #56271, #42337 ) ) ;
#160853 = VECTOR ( 'NONE', #80946, 1000.000000000000000 ) ;
#161241 = LINE ( 'NONE', #25591, #147837 ) ;
#161343 = EDGE_CURVE ( 'NONE', #184638, #155596, #2663, .T. ) ;
#161356 = ORIENTED_EDGE ( 'NONE', *, *, #148878, .F. ) ;
#161361 = VECTOR ( 'NONE', #290703, 1000.000000000000000 ) ;
#161414 = DIRECTION ( 'NONE',  ( -0.000000000000000000, -1.000000000000000000, -0.000000000000000000 ) ) ;
#162534 = CIRCLE ( 'NONE', #277193, 4.400000000000001243 ) ;
#162867 = CARTESIAN_POINT ( 'NONE',  ( -47.72970773009195966, 5.000000000000000000, 43.32970773009194687 ) ) ;
#162926 = VERTEX_POINT ( 'NONE', #214456 ) ;
#163191 = DIRECTION ( 'NONE',  ( -0.000000000000000000, -1.000000000000000000, -0.000000000000000000 ) ) ;
#163689 = AXIS2_PLACEMENT_3D ( 'NONE', #117769, #94413, #166062 ) ;
#163764 = ORIENTED_EDGE ( 'NONE', *, *, #260526, .T. ) ;
#163827 = VERTEX_POINT ( 'NONE', #99444 ) ;
#164133 = DIRECTION ( 'NONE',  ( 0.000000000000000000, 1.000000000000000000, 0.000000000000000000 ) ) ;
#164406 = EDGE_LOOP ( 'NONE', ( #151837, #115059 ) ) ;
#164698 = APPLICATION_CONTEXT ( 'automotive_design' ) ;
#164868 = ORIENTED_EDGE ( 'NONE', *, *, #42323, .F. ) ;
#166062 = DIRECTION ( 'NONE',  ( 0.000000000000000000, 0.000000000000000000, 1.000000000000000000 ) ) ;
#166255 = CARTESIAN_POINT ( 'NONE',  ( -47.72970773009195966, 5.000000000000000000, 47.72970773009194545 ) ) ;
#167189 = DIRECTION ( 'NONE',  ( 0.000000000000000000, 0.000000000000000000, -1.000000000000000000 ) ) ;
#167780 = DIRECTION ( 'NONE',  ( -0.000000000000000000, -1.000000000000000000, -0.000000000000000000 ) ) ;
#168082 = CYLINDRICAL_SURFACE ( 'NONE', #45731, 80.00000000000000000 ) ;
#168222 = DIRECTION ( 'NONE',  ( 0.000000000000000000, 1.000000000000000000, 0.000000000000000000 ) ) ;
#168406 = VERTEX_POINT ( 'NONE', #234555 ) ;
#168792 = DIRECTION ( 'NONE',  ( 0.000000000000000000, 0.000000000000000000, 1.000000000000000000 ) ) ;
#169803 = DIRECTION ( 'NONE',  ( 0.000000000000000000, 1.000000000000000000, 0.000000000000000000 ) ) ;
#170324 = ORIENTED_EDGE ( 'NONE', *, *, #274142, .F. ) ;
#170851 = FACE_OUTER_BOUND ( 'NONE', #147607, .T. ) ;
#170970 = ORIENTED_EDGE ( 'NONE', *, *, #123168, .F. ) ;
#170979 = FACE_OUTER_BOUND ( 'NONE', #39969, .T. ) ;
#171372 = CARTESIAN_POINT ( 'NONE',  ( -4.071950607164968131E-15, 5.000000000000000000, 63.09999999999998721 ) ) ;
#172395 = CLOSED_SHELL ( 'NONE', ( #15918, #508, #66559, #176196, #10853, #88006, #182940, #253561, #129110, #237871, #11976, #266440, #73115, #115967, #290441, #69741, #278711, #75531, #881, #32161, #206746, #41595 ) ) ;
#172641 = ORIENTED_EDGE ( 'NONE', *, *, #293731, .T. ) ;
#172954 = EDGE_CURVE ( 'NONE', #122370, #44050, #129230, .T. ) ;
#173520 = ORIENTED_EDGE ( 'NONE', *, *, #158398, .F. ) ;
#173799 = AXIS2_PLACEMENT_3D ( 'NONE', #224244, #199404, #174379 ) ;
#173934 = AXIS2_PLACEMENT_3D ( 'NONE', #51861, #217109, #168792 ) ;
#174228 = ORIENTED_EDGE ( 'NONE', *, *, #111715, .F. ) ;
#174303 = DIRECTION ( 'NONE',  ( 0.000000000000000000, 0.000000000000000000, -1.000000000000000000 ) ) ;
#174379 = DIRECTION ( 'NONE',  ( 0.000000000000000000, 0.000000000000000000, -1.000000000000000000 ) ) ;
#174481 = EDGE_CURVE ( 'NONE', #163827, #137986, #17512, .T. ) ;
#175435 = FACE_BOUND ( 'NONE', #191670, .T. ) ;
#175550 = DIRECTION ( 'NONE',  ( 0.000000000000000000, 0.000000000000000000, -1.000000000000000000 ) ) ;
#175649 = CARTESIAN_POINT ( 'NONE',  ( -4.194415287079666203E-15, 5.000000000000000000, -71.90000000000001990 ) ) ;
#176115 = CYLINDRICAL_SURFACE ( 'NONE', #97867, 80.00000000000000000 ) ;
#176196 = ADVANCED_FACE ( 'NONE', ( #170979 ), #125726, .F. ) ;
#176285 = DIRECTION ( 'NONE',  ( 0.000000000000000000, 0.000000000000000000, 1.000000000000000000 ) ) ;
#176502 = CYLINDRICAL_SURFACE ( 'NONE', #138153, 4.400000000000001243 ) ;
#176708 = AXIS2_PLACEMENT_3D ( 'NONE', #143528, #234061, #96791 ) ;
#176782 = EDGE_LOOP ( 'NONE', ( #267411, #302096, #275935, #111274 ) ) ;
#177119 = CARTESIAN_POINT ( 'NONE',  ( 47.72970773009195256, 5.000000000000000000, 47.72970773009195966 ) ) ;
#177682 = CARTESIAN_POINT ( 'NONE',  ( -4.194415287079666203E-15, 5.000000000000000000, -67.50000000000001421 ) ) ;
#177713 = DIRECTION ( 'NONE',  ( 0.000000000000000000, 0.000000000000000000, 1.000000000000000000 ) ) ;
#177926 = EDGE_LOOP ( 'NONE', ( #164868, #111296, #77850, #283457 ) ) ;
#178126 = DIRECTION ( 'NONE',  ( -0.000000000000000000, -1.000000000000000000, -0.000000000000000000 ) ) ;
#178232 = CYLINDRICAL_SURFACE ( 'NONE', #145677, 4.400000000000001243 ) ;
#179075 = CARTESIAN_POINT ( 'NONE',  ( -67.50000000000000000, 5.000000000000000000, 4.399999999999989697 ) ) ;
#179329 = DIRECTION ( 'NONE',  ( 0.000000000000000000, 0.000000000000000000, 1.000000000000000000 ) ) ;
#179476 = DIRECTION ( 'NONE',  ( 0.000000000000000000, 1.000000000000000000, 0.000000000000000000 ) ) ;
#179537 = DIRECTION ( 'NONE',  ( 0.000000000000000000, 0.000000000000000000, 1.000000000000000000 ) ) ;
#179664 = DIRECTION ( 'NONE',  ( -0.000000000000000000, -1.000000000000000000, -0.000000000000000000 ) ) ;
#179939 = DIRECTION ( 'NONE',  ( 1.000000000000000000, 0.000000000000000000, 0.000000000000000000 ) ) ;
#180069 = FACE_OUTER_BOUND ( 'NONE', #298727, .T. ) ;
#180223 = ORIENTED_EDGE ( 'NONE', *, *, #111715, .T. ) ;
#180609 = VECTOR ( 'NONE', #163191, 1000.000000000000000 ) ;
#181366 = CARTESIAN_POINT ( 'NONE',  ( -3.655570695454830604E-15, 5.000000000000000000, -63.10000000000001563 ) ) ;
#181408 = AXIS2_PLACEMENT_3D ( 'NONE', #121918, #72154, #167189 ) ;
#181444 = DIRECTION ( 'NONE',  ( -0.000000000000000000, -1.000000000000000000, -0.000000000000000000 ) ) ;
#181760 = AXIS2_PLACEMENT_3D ( 'NONE', #49446, #219344, #121152 ) ;
#181860 = ORIENTED_EDGE ( 'NONE', *, *, #304675, .T. ) ;
#182339 = DIRECTION ( 'NONE',  ( 0.000000000000000000, 0.000000000000000000, 1.000000000000000000 ) ) ;
#182397 = CARTESIAN_POINT ( 'NONE',  ( 67.50000000000000000, 0.000000000000000000, 0.000000000000000000 ) ) ;
#182940 = ADVANCED_FACE ( 'NONE', ( #151131 ), #34278, .F. ) ;
#183525 = DIRECTION ( 'NONE',  ( 0.000000000000000000, 1.000000000000000000, 0.000000000000000000 ) ) ;
#183716 = CIRCLE ( 'NONE', #213592, 4.399999999999997691 ) ;
#184124 = ORIENTED_EDGE ( 'NONE', *, *, #148878, .T. ) ;
#184231 = ORIENTED_EDGE ( 'NONE', *, *, #69275, .T. ) ;
#184349 = FACE_BOUND ( 'NONE', #241207, .T. ) ;
#184638 = VERTEX_POINT ( 'NONE', #114041 ) ;
#184735 = DIRECTION ( 'NONE',  ( 0.000000000000000000, 0.000000000000000000, -1.000000000000000000 ) ) ;
#185005 = CARTESIAN_POINT ( 'NONE',  ( -4.071950607164968131E-15, 5.000000000000000000, 63.09999999999998721 ) ) ;
#185050 = AXIS2_PLACEMENT_3D ( 'NONE', #177119, #153698, #130412 ) ;
#185608 = DIRECTION ( 'NONE',  ( 0.000000000000000000, 1.000000000000000000, 0.000000000000000000 ) ) ;
#186126 = DIRECTION ( 'NONE',  ( 0.000000000000000000, 0.000000000000000000, -1.000000000000000000 ) ) ;
#186648 = CARTESIAN_POINT ( 'NONE',  ( -67.50000000000000000, 0.000000000000000000, -8.143901214329936262E-15 ) ) ;
#187281 = EDGE_CURVE ( 'NONE', #240668, #206844, #198664, .T. ) ;
#187429 = FACE_BOUND ( 'NONE', #276006, .T. ) ;
#187494 = DIRECTION ( 'NONE',  ( 0.000000000000000000, 1.000000000000000000, 0.000000000000000000 ) ) ;
#187726 = DIRECTION ( 'NONE',  ( 0.000000000000000000, 1.000000000000000000, 0.000000000000000000 ) ) ;
#187844 = EDGE_LOOP ( 'NONE', ( #1010, #15536, #267521, #161356 ) ) ;
#188701 = CIRCLE ( 'NONE', #203679, 4.399999999999997691 ) ;
#188826 = DIRECTION ( 'NONE',  ( 0.000000000000000000, 0.000000000000000000, 1.000000000000000000 ) ) ;
#190160 = CARTESIAN_POINT ( 'NONE',  ( 47.72970773009195256, 0.000000000000000000, 52.12970773009196535 ) ) ;
#190574 = CARTESIAN_POINT ( 'NONE',  ( -47.72970773009195966, 5.000000000000000000, 52.12970773009195113 ) ) ;
#190993 = AXIS2_PLACEMENT_3D ( 'NONE', #268442, #179476, #85958 ) ;
#191670 = EDGE_LOOP ( 'NONE', ( #213538, #14473 ) ) ;
#191881 = DIRECTION ( 'NONE',  ( 0.000000000000000000, 0.000000000000000000, 1.000000000000000000 ) ) ;
#192529 = ORIENTED_EDGE ( 'NONE', *, *, #51020, .F. ) ;
#192669 = CIRCLE ( 'NONE', #242341, 4.400000000000001243 ) ;
#192813 = DIRECTION ( 'NONE',  ( 0.000000000000000000, 0.000000000000000000, 1.000000000000000000 ) ) ;
#193090 = ORIENTED_EDGE ( 'NONE', *, *, #225900, .T. ) ;
#193144 = VERTEX_POINT ( 'NONE', #223612 ) ;
#194409 = CARTESIAN_POINT ( 'NONE',  ( 47.72970773009196677, 5.000000000000000000, -52.12970773009196535 ) ) ;
#194651 = AXIS2_PLACEMENT_3D ( 'NONE', #89654, #21009, #184735 ) ;
#196247 = DIRECTION ( 'NONE',  ( 0.000000000000000000, 0.000000000000000000, 1.000000000000000000 ) ) ;
#196406 = AXIS2_PLACEMENT_3D ( 'NONE', #166255, #167780, #236403 ) ;
#196787 = CARTESIAN_POINT ( 'NONE',  ( 0.000000000000000000, 0.000000000000000000, 0.000000000000000000 ) ) ;
#197314 = DIRECTION ( 'NONE',  ( 0.000000000000000000, 0.000000000000000000, -1.000000000000000000 ) ) ;
#198036 = EDGE_LOOP ( 'NONE', ( #41508, #103510 ) ) ;
#198664 = LINE ( 'NONE', #126882, #13644 ) ;
#198903 = CIRCLE ( 'NONE', #213821, 4.400000000000001243 ) ;
#199035 = CARTESIAN_POINT ( 'NONE',  ( 47.72970773009196677, 0.000000000000000000, -52.12970773009196535 ) ) ;
#199404 = DIRECTION ( 'NONE',  ( -0.000000000000000000, -1.000000000000000000, -0.000000000000000000 ) ) ;
#199864 = CARTESIAN_POINT ( 'NONE',  ( -67.50000000000000000, 0.000000000000000000, -4.400000000000005684 ) ) ;
#200515 = CARTESIAN_POINT ( 'NONE',  ( -4.194415287079666203E-15, 0.000000000000000000, -71.90000000000001990 ) ) ;
#200659 = CIRCLE ( 'NONE', #106003, 55.00000000000000000 ) ;
#201100 = EDGE_CURVE ( 'NONE', #98147, #130766, #260624, .T. ) ;
#202228 = ADVANCED_BREP_SHAPE_REPRESENTATION ( '', ( #306141, #267245 ), #23384 ) ;
#202255 = CIRCLE ( 'NONE', #252098, 4.400000000000001243 ) ;
#203679 = AXIS2_PLACEMENT_3D ( 'NONE', #182397, #84264, #179329 ) ;
#203762 = VERTEX_POINT ( 'NONE', #179075 ) ;
#204192 = DIRECTION ( 'NONE',  ( 0.000000000000000000, 0.000000000000000000, -1.000000000000000000 ) ) ;
#204199 = CARTESIAN_POINT ( 'NONE',  ( 47.72970773009196677, 0.000000000000000000, -47.72970773009195966 ) ) ;
#204423 = DIRECTION ( 'NONE',  ( 0.000000000000000000, 1.000000000000000000, 0.000000000000000000 ) ) ;
#205474 = AXIS2_PLACEMENT_3D ( 'NONE', #49832, #297074, #175550 ) ;
#205906 = CARTESIAN_POINT ( 'NONE',  ( -4.071950607164968131E-15, 0.000000000000000000, 67.49999999999998579 ) ) ;
#206412 = ORIENTED_EDGE ( 'NONE', *, *, #274142, .T. ) ;
#206511 = CARTESIAN_POINT ( 'NONE',  ( -67.50000000000000000, 5.000000000000000000, -4.400000000000005684 ) ) ;
#206746 = ADVANCED_FACE ( 'NONE', ( #12471 ), #254159, .F. ) ;
#206844 = VERTEX_POINT ( 'NONE', #146257 ) ;
#207797 = CARTESIAN_POINT ( 'NONE',  ( 47.72970773009195256, 5.000000000000000000, 43.32970773009196108 ) ) ;
#207940 = AXIS2_PLACEMENT_3D ( 'NONE', #85387, #149339, #174303 ) ;
#208191 = FACE_OUTER_BOUND ( 'NONE', #249085, .T. ) ;
#208336 = ORIENTED_EDGE ( 'NONE', *, *, #115262, .T. ) ;
#208631 = EDGE_LOOP ( 'NONE', ( #172641, #242295, #9588, #108297 ) ) ;
#208992 = DIRECTION ( 'NONE',  ( 0.000000000000000000, 0.000000000000000000, 1.000000000000000000 ) ) ;
#210114 = EDGE_LOOP ( 'NONE', ( #76633, #58632, #184231, #154868 ) ) ;
#210750 = ORIENTED_EDGE ( 'NONE', *, *, #227011, .F. ) ;
#210757 = AXIS2_PLACEMENT_3D ( 'NONE', #141253, #89896, #21245 ) ;
#211155 = CARTESIAN_POINT ( 'NONE',  ( 0.000000000000000000, 0.000000000000000000, 0.000000000000000000 ) ) ;
#211334 = CARTESIAN_POINT ( 'NONE',  ( 47.72970773009196677, 5.000000000000000000, -43.32970773009196108 ) ) ;
#211862 = DIRECTION ( 'NONE',  ( 0.000000000000000000, 0.000000000000000000, 1.000000000000000000 ) ) ;
#213538 = ORIENTED_EDGE ( 'NONE', *, *, #12457, .T. ) ;
#213592 = AXIS2_PLACEMENT_3D ( 'NONE', #71546, #137058, #211862 ) ;
#213821 = AXIS2_PLACEMENT_3D ( 'NONE', #129474, #154319, #177713 ) ;
#214456 = CARTESIAN_POINT ( 'NONE',  ( -4.071950607164968131E-15, 0.000000000000000000, 63.09999999999998721 ) ) ;
#214723 = DIRECTION ( 'NONE',  ( 0.000000000000000000, 1.000000000000000000, 0.000000000000000000 ) ) ;
#215292 = ( NAMED_UNIT ( * ) PLANE_ANGLE_UNIT ( ) SI_UNIT ( $, .RADIAN. ) );
#215579 = VECTOR ( 'NONE', #147773, 1000.000000000000000 ) ;
#215980 = AXIS2_PLACEMENT_3D ( 'NONE', #269945, #103140, #149863 ) ;
#216620 = ORIENTED_EDGE ( 'NONE', *, *, #227011, .T. ) ;
#217021 = CARTESIAN_POINT ( 'NONE',  ( 47.72970773009196677, 5.000000000000000000, -47.72970773009195966 ) ) ;
#217109 = DIRECTION ( 'NONE',  ( 0.000000000000000000, 1.000000000000000000, 0.000000000000000000 ) ) ;
#217641 = FACE_BOUND ( 'NONE', #271826, .T. ) ;
#218876 = AXIS2_PLACEMENT_3D ( 'NONE', #139869, #1104, #47809 ) ;
#219344 = DIRECTION ( 'NONE',  ( 0.000000000000000000, 1.000000000000000000, 0.000000000000000000 ) ) ;
#219371 = FACE_OUTER_BOUND ( 'NONE', #176782, .T. ) ;
#220429 = ORIENTED_EDGE ( 'NONE', *, *, #303517, .T. ) ;
#220648 = LINE ( 'NONE', #150413, #73433 ) ;
#220712 = CARTESIAN_POINT ( 'NONE',  ( 0.000000000000000000, 0.000000000000000000, 0.000000000000000000 ) ) ;
#220749 = EDGE_CURVE ( 'NONE', #138966, #247021, #232432, .T. ) ;
#220818 = LINE ( 'NONE', #194409, #288048 ) ;
#220854 = EDGE_LOOP ( 'NONE', ( #74874, #118923 ) ) ;
#221175 = DIRECTION ( 'NONE',  ( 0.000000000000000000, 1.000000000000000000, 0.000000000000000000 ) ) ;
#221441 = EDGE_CURVE ( 'NONE', #155596, #184638, #286164, .T. ) ;
#221483 = DIRECTION ( 'NONE',  ( -0.000000000000000000, -1.000000000000000000, -0.000000000000000000 ) ) ;
#223258 = VECTOR ( 'NONE', #178126, 1000.000000000000000 ) ;
#223612 = CARTESIAN_POINT ( 'NONE',  ( 47.72970773009196677, 5.000000000000000000, -52.12970773009196535 ) ) ;
#223773 = DIRECTION ( 'NONE',  ( 0.000000000000000000, 1.000000000000000000, 0.000000000000000000 ) ) ;
#224244 = CARTESIAN_POINT ( 'NONE',  ( -47.72970773009195966, 5.000000000000000000, -47.72970773009196677 ) ) ;
#224378 = ORIENTED_EDGE ( 'NONE', *, *, #161343, .T. ) ;
#225900 = EDGE_CURVE ( 'NONE', #3891, #246724, #38967, .T. ) ;
#226450 = VERTEX_POINT ( 'NONE', #105476 ) ;
#226509 = AXIS2_PLACEMENT_3D ( 'NONE', #237385, #164133, #23833 ) ;
#226659 = PRODUCT ( 'PT.SHT.01.01.00.11  \X2\0424043b0430043d04350446\X0\ \X2\043f044004380441043e043504340438043d043804420435043b044c043d044b0439\X0\', 'PT.SHT.01.01.00.11  \X2\0424043b0430043d04350446\X0\ \X2\043f044004380441043e043504340438043d043804420435043b044c043d044b0439\X0\', '', ( #249410 ) ) ;
#227011 = EDGE_CURVE ( 'NONE', #69627, #156225, #88197, .T. ) ;
#227914 = FACE_OUTER_BOUND ( 'NONE', #245302, .T. ) ;
#228698 = EDGE_LOOP ( 'NONE', ( #216620, #273147 ) ) ;
#229712 = DIRECTION ( 'NONE',  ( 0.000000000000000000, 0.000000000000000000, 1.000000000000000000 ) ) ;
#230154 = VECTOR ( 'NONE', #179664, 1000.000000000000000 ) ;
#230662 = DIRECTION ( 'NONE',  ( -0.000000000000000000, -1.000000000000000000, -0.000000000000000000 ) ) ;
#230823 = CIRCLE ( 'NONE', #275504, 80.00000000000000000 ) ;
#231690 = ORIENTED_EDGE ( 'NONE', *, *, #220749, .F. ) ;
#232432 = LINE ( 'NONE', #135805, #275982 ) ;
#233347 = CARTESIAN_POINT ( 'NONE',  ( 47.72970773009195256, 5.000000000000000000, 52.12970773009196535 ) ) ;
#233353 = CYLINDRICAL_SURFACE ( 'NONE', #196406, 4.400000000000001243 ) ;
#234061 = DIRECTION ( 'NONE',  ( 0.000000000000000000, 1.000000000000000000, 0.000000000000000000 ) ) ;
#234555 = CARTESIAN_POINT ( 'NONE',  ( -3.655570695454830604E-15, 0.000000000000000000, -63.10000000000001563 ) ) ;
#234867 = EDGE_CURVE ( 'NONE', #306266, #206844, #101707, .T. ) ;
#235469 = EDGE_CURVE ( 'NONE', #140620, #29866, #52043, .T. ) ;
#235524 = CARTESIAN_POINT ( 'NONE',  ( -3.533106015540132532E-15, 0.000000000000000000, 71.89999999999999147 ) ) ;
#235718 = PLANE ( 'NONE',  #78967 ) ;
#236403 = DIRECTION ( 'NONE',  ( 0.000000000000000000, 0.000000000000000000, -1.000000000000000000 ) ) ;
#237385 = CARTESIAN_POINT ( 'NONE',  ( -4.071950607164968131E-15, 5.000000000000000000, 67.49999999999998579 ) ) ;
#237871 = ADVANCED_FACE ( 'NONE', ( #10909 ), #176115, .T. ) ;
#238241 = DIRECTION ( 'NONE',  ( 0.000000000000000000, 1.000000000000000000, 0.000000000000000000 ) ) ;
#238855 = ORIENTED_EDGE ( 'NONE', *, *, #152753, .F. ) ;
#239403 = DIRECTION ( 'NONE',  ( 0.000000000000000000, 1.000000000000000000, 0.000000000000000000 ) ) ;
#240023 = CIRCLE ( 'NONE', #150267, 4.400000000000001243 ) ;
#240080 = ORIENTED_EDGE ( 'NONE', *, *, #261794, .F. ) ;
#240133 = VECTOR ( 'NONE', #221483, 1000.000000000000000 ) ;
#240668 = VERTEX_POINT ( 'NONE', #55190 ) ;
#241207 = EDGE_LOOP ( 'NONE', ( #238855, #249204 ) ) ;
#241378 = CARTESIAN_POINT ( 'NONE',  ( -67.50000000000000000, 5.000000000000000000, 4.399999999999989697 ) ) ;
#241485 = ORIENTED_EDGE ( 'NONE', *, *, #39724, .T. ) ;
#242295 = ORIENTED_EDGE ( 'NONE', *, *, #112852, .T. ) ;
#242341 = AXIS2_PLACEMENT_3D ( 'NONE', #306857, #280437, #260196 ) ;
#242532 = DIRECTION ( 'NONE',  ( -0.000000000000000000, -1.000000000000000000, -0.000000000000000000 ) ) ;
#242613 = DIRECTION ( 'NONE',  ( 0.000000000000000000, 0.000000000000000000, 1.000000000000000000 ) ) ;
#242806 = ORIENTED_EDGE ( 'NONE', *, *, #34161, .F. ) ;
#243867 = CIRCLE ( 'NONE', #173934, 80.00000000000000000 ) ;
#244002 = LINE ( 'NONE', #102103, #161361 ) ;
#244233 = VERTEX_POINT ( 'NONE', #250732 ) ;
#244250 = CARTESIAN_POINT ( 'NONE',  ( -67.50000000000000000, 5.000000000000000000, -8.143901214329936262E-15 ) ) ;
#245053 = ORIENTED_EDGE ( 'NONE', *, *, #69275, .F. ) ;
#245208 = ORIENTED_EDGE ( 'NONE', *, *, #174481, .F. ) ;
#245302 = EDGE_LOOP ( 'NONE', ( #249819, #112032, #184124, #129357 ) ) ;
#245793 = DIRECTION ( 'NONE',  ( 0.000000000000000000, 0.000000000000000000, -1.000000000000000000 ) ) ;
#245830 = FACE_OUTER_BOUND ( 'NONE', #271146, .T. ) ;
#246463 = ORIENTED_EDGE ( 'NONE', *, *, #172954, .F. ) ;
#246677 = ORIENTED_EDGE ( 'NONE', *, *, #43976, .T. ) ;
#246724 = VERTEX_POINT ( 'NONE', #268938 ) ;
#247021 = VERTEX_POINT ( 'NONE', #291920 ) ;
#247185 = FACE_BOUND ( 'NONE', #249035, .T. ) ;
#247940 = ORIENTED_EDGE ( 'NONE', *, *, #304675, .F. ) ;
#248241 = EDGE_CURVE ( 'NONE', #50674, #162926, #192669, .T. ) ;
#248885 = ORIENTED_EDGE ( 'NONE', *, *, #119420, .T. ) ;
#249035 = EDGE_LOOP ( 'NONE', ( #1085, #107980 ) ) ;
#249085 = EDGE_LOOP ( 'NONE', ( #231690, #248885, #206412, #45477 ) ) ;
#249204 = ORIENTED_EDGE ( 'NONE', *, *, #108043, .F. ) ;
#249295 = DIRECTION ( 'NONE',  ( -0.000000000000000000, -1.000000000000000000, -0.000000000000000000 ) ) ;
#249410 = PRODUCT_CONTEXT ( 'NONE', #146470, 'mechanical' ) ;
#249819 = ORIENTED_EDGE ( 'NONE', *, *, #255810, .F. ) ;
#249830 = DIRECTION ( 'NONE',  ( 0.000000000000000000, 0.000000000000000000, -1.000000000000000000 ) ) ;
#249989 = ORIENTED_EDGE ( 'NONE', *, *, #97970, .T. ) ;
#250177 = CARTESIAN_POINT ( 'NONE',  ( 0.000000000000000000, 0.000000000000000000, 0.000000000000000000 ) ) ;
#250732 = CARTESIAN_POINT ( 'NONE',  ( -3.533106015540132532E-15, 5.000000000000000000, 71.89999999999999147 ) ) ;
#250832 = AXIS2_PLACEMENT_3D ( 'NONE', #297828, #204423, #37570 ) ;
#250955 = DIRECTION ( 'NONE',  ( 0.000000000000000000, 1.000000000000000000, 0.000000000000000000 ) ) ;
#251512 = AXIS2_PLACEMENT_3D ( 'NONE', #292152, #126923, #229712 ) ;
#251853 = DIRECTION ( 'NONE',  ( 0.000000000000000000, 0.000000000000000000, -1.000000000000000000 ) ) ;
#252098 = AXIS2_PLACEMENT_3D ( 'NONE', #104934, #252964, #271677 ) ;
#252940 = CARTESIAN_POINT ( 'NONE',  ( 47.72970773009196677, 0.000000000000000000, -43.32970773009196108 ) ) ;
#252964 = DIRECTION ( 'NONE',  ( 0.000000000000000000, 1.000000000000000000, 0.000000000000000000 ) ) ;
#253027 = FACE_BOUND ( 'NONE', #113286, .T. ) ;
#253561 = ADVANCED_FACE ( 'NONE', ( #80370 ), #100672, .F. ) ;
#254159 = CYLINDRICAL_SURFACE ( 'NONE', #73212, 4.400000000000001243 ) ;
#254795 = CYLINDRICAL_SURFACE ( 'NONE', #55853, 4.399999999999997691 ) ;
#255636 = CIRCLE ( 'NONE', #106253, 4.400000000000001243 ) ;
#255810 = EDGE_CURVE ( 'NONE', #68317, #29866, #24157, .T. ) ;
#257667 = EDGE_CURVE ( 'NONE', #168406, #11961, #255636, .T. ) ;
#257714 = ORIENTED_EDGE ( 'NONE', *, *, #187281, .F. ) ;
#258015 = VECTOR ( 'NONE', #127610, 1000.000000000000000 ) ;
#259184 = CARTESIAN_POINT ( 'NONE',  ( 0.000000000000000000, 5.000000000000000000, 0.000000000000000000 ) ) ;
#260196 = DIRECTION ( 'NONE',  ( 0.000000000000000000, 0.000000000000000000, 1.000000000000000000 ) ) ;
#260526 = EDGE_CURVE ( 'NONE', #141293, #50881, #202255, .T. ) ;
#260624 = CIRCLE ( 'NONE', #250832, 4.400000000000001243 ) ;
#261438 = CARTESIAN_POINT ( 'NONE',  ( -4.194415287079666203E-15, 5.000000000000000000, -71.90000000000001990 ) ) ;
#261598 = AXIS2_PLACEMENT_3D ( 'NONE', #88815, #137130, #182339 ) ;
#261661 = DIRECTION ( 'NONE',  ( -0.000000000000000000, -1.000000000000000000, -0.000000000000000000 ) ) ;
#261794 = EDGE_CURVE ( 'NONE', #50881, #156225, #161241, .T. ) ;
#262707 = ORIENTED_EDGE ( 'NONE', *, *, #94175, .F. ) ;
#263309 = ORIENTED_EDGE ( 'NONE', *, *, #302406, .F. ) ;
#264319 = EDGE_CURVE ( 'NONE', #25549, #244233, #49020, .T. ) ;
#264684 = EDGE_CURVE ( 'NONE', #155596, #29966, #13961, .T. ) ;
#264914 = DIRECTION ( 'NONE',  ( 0.000000000000000000, 0.000000000000000000, 1.000000000000000000 ) ) ;
#266440 = ADVANCED_FACE ( 'NONE', ( #170851, #4062, #122511, #103768, #175435, #290822, #217641, #124086, #32069, #247185 ), #267456, .F. ) ;
#266441 = DIRECTION ( 'NONE',  ( -0.000000000000000000, -1.000000000000000000, -0.000000000000000000 ) ) ;
#266572 = ORIENTED_EDGE ( 'NONE', *, *, #282519, .F. ) ;
#266577 = ORIENTED_EDGE ( 'NONE', *, *, #304760, .T. ) ;
#266661 = AXIS2_PLACEMENT_3D ( 'NONE', #211155, #187726, #6380 ) ;
#266872 = AXIS2_PLACEMENT_3D ( 'NONE', #276064, #185608, #88975 ) ;
#267245 = AXIS2_PLACEMENT_3D ( 'NONE', #250177, #158073, #179939 ) ;
#267362 = ORIENTED_EDGE ( 'NONE', *, *, #59939, .F. ) ;
#267411 = ORIENTED_EDGE ( 'NONE', *, *, #91438, .F. ) ;
#267456 = PLANE ( 'NONE',  #109601 ) ;
#267489 = ORIENTED_EDGE ( 'NONE', *, *, #158398, .T. ) ;
#267521 = ORIENTED_EDGE ( 'NONE', *, *, #235469, .F. ) ;
#268014 = AXIS2_PLACEMENT_3D ( 'NONE', #96800, #288465, #191881 ) ;
#268287 = CIRCLE ( 'NONE', #163689, 4.400000000000001243 ) ;
#268442 = CARTESIAN_POINT ( 'NONE',  ( 47.72970773009195256, 0.000000000000000000, 47.72970773009195966 ) ) ;
#268938 = CARTESIAN_POINT ( 'NONE',  ( -3.655570695454830604E-15, 5.000000000000000000, -63.10000000000001563 ) ) ;
#269515 = CARTESIAN_POINT ( 'NONE',  ( 9.797174393178826052E-15, 5.000000000000000000, 80.00000000000000000 ) ) ;
#269668 = CARTESIAN_POINT ( 'NONE',  ( 67.50000000000000000, 0.000000000000000000, -4.399999999999997691 ) ) ;
#269729 = ORIENTED_EDGE ( 'NONE', *, *, #94175, .T. ) ;
#269945 = CARTESIAN_POINT ( 'NONE',  ( 47.72970773009195256, 5.000000000000000000, 47.72970773009195966 ) ) ;
#270489 = DIRECTION ( 'NONE',  ( -0.000000000000000000, -1.000000000000000000, -0.000000000000000000 ) ) ;
#271087 = ORIENTED_EDGE ( 'NONE', *, *, #225900, .F. ) ;
#271092 = DIRECTION ( 'NONE',  ( -0.000000000000000000, -1.000000000000000000, -0.000000000000000000 ) ) ;
#271146 = EDGE_LOOP ( 'NONE', ( #163764, #46999, #210750, #173520 ) ) ;
#271677 = DIRECTION ( 'NONE',  ( 0.000000000000000000, 0.000000000000000000, 1.000000000000000000 ) ) ;
#271826 = EDGE_LOOP ( 'NONE', ( #269729, #157759 ) ) ;
#272543 = CARTESIAN_POINT ( 'NONE',  ( -47.72970773009195966, 0.000000000000000000, 47.72970773009194545 ) ) ;
#272887 = VERTEX_POINT ( 'NONE', #128529 ) ;
#273147 = ORIENTED_EDGE ( 'NONE', *, *, #153111, .T. ) ;
#273374 = DIRECTION ( 'NONE',  ( 0.000000000000000000, 0.000000000000000000, -1.000000000000000000 ) ) ;
#273423 = AXIS2_PLACEMENT_3D ( 'NONE', #205906, #113805, #208992 ) ;
#273800 = CARTESIAN_POINT ( 'NONE',  ( -47.72970773009195966, 0.000000000000000000, -52.12970773009197245 ) ) ;
#274142 = EDGE_CURVE ( 'NONE', #272887, #102860, #244002, .T. ) ;
#274883 = EDGE_CURVE ( 'NONE', #272887, #138966, #17390, .T. ) ;
#275504 = AXIS2_PLACEMENT_3D ( 'NONE', #196787, #291794, #78315 ) ;
#275935 = ORIENTED_EDGE ( 'NONE', *, *, #174481, .T. ) ;
#275941 = CARTESIAN_POINT ( 'NONE',  ( 6.735557395310442615E-15, 5.000000000000000000, 55.00000000000000000 ) ) ;
#275982 = VECTOR ( 'NONE', #68758, 1000.000000000000000 ) ;
#276006 = EDGE_LOOP ( 'NONE', ( #271087, #266572 ) ) ;
#276064 = CARTESIAN_POINT ( 'NONE',  ( 0.000000000000000000, 0.000000000000000000, 0.000000000000000000 ) ) ;
#276335 = AXIS2_PLACEMENT_3D ( 'NONE', #138969, #45427, #188826 ) ;
#276472 = CIRCLE ( 'NONE', #261598, 80.00000000000000000 ) ;
#277193 = AXIS2_PLACEMENT_3D ( 'NONE', #158418, #15059, #58757 ) ;
#277361 = DIRECTION ( 'NONE',  ( -0.000000000000000000, -1.000000000000000000, -0.000000000000000000 ) ) ;
#277741 = EDGE_LOOP ( 'NONE', ( #249989, #208336 ) ) ;
#278711 = ADVANCED_FACE ( 'NONE', ( #54296 ), #13656, .F. ) ;
#280130 = DIRECTION ( 'NONE',  ( 0.000000000000000000, 1.000000000000000000, 0.000000000000000000 ) ) ;
#280437 = DIRECTION ( 'NONE',  ( 0.000000000000000000, 1.000000000000000000, 0.000000000000000000 ) ) ;
#280929 = FACE_BOUND ( 'NONE', #130750, .T. ) ;
#281145 = VECTOR ( 'NONE', #249295, 1000.000000000000000 ) ;
#281150 = CARTESIAN_POINT ( 'NONE',  ( -47.72970773009195966, 0.000000000000000000, -47.72970773009196677 ) ) ;
#281375 = ORIENTED_EDGE ( 'NONE', *, *, #119420, .F. ) ;
#281440 = CIRCLE ( 'NONE', #181760, 4.399999999999997691 ) ;
#281778 = AXIS2_PLACEMENT_3D ( 'NONE', #7624, #169803, #264914 ) ;
#281831 = ORIENTED_EDGE ( 'NONE', *, *, #283865, .T. ) ;
#282359 = EDGE_LOOP ( 'NONE', ( #267362, #42878 ) ) ;
#282519 = EDGE_CURVE ( 'NONE', #246724, #3891, #32802, .T. ) ;
#282537 = DIRECTION ( 'NONE',  ( 0.000000000000000000, 0.000000000000000000, 1.000000000000000000 ) ) ;
#283082 = AXIS2_PLACEMENT_3D ( 'NONE', #88445, #183525, #65106 ) ;
#283457 = ORIENTED_EDGE ( 'NONE', *, *, #93670, .F. ) ;
#283468 = FACE_OUTER_BOUND ( 'NONE', #148124, .T. ) ;
#283865 = EDGE_CURVE ( 'NONE', #247021, #102860, #137588, .T. ) ;
#286164 = CIRCLE ( 'NONE', #67079, 4.399999999999997691 ) ;
#286917 = ( NAMED_UNIT ( * ) SI_UNIT ( $, .STERADIAN. ) SOLID_ANGLE_UNIT ( ) );
#287634 = VECTOR ( 'NONE', #24742, 1000.000000000000000 ) ;
#288048 = VECTOR ( 'NONE', #50951, 1000.000000000000000 ) ;
#288465 = DIRECTION ( 'NONE',  ( 0.000000000000000000, 1.000000000000000000, 0.000000000000000000 ) ) ;
#289583 = ORIENTED_EDGE ( 'NONE', *, *, #201100, .F. ) ;
#289899 = ORIENTED_EDGE ( 'NONE', *, *, #112852, .F. ) ;
#290441 = ADVANCED_FACE ( 'NONE', ( #298342 ), #254795, .F. ) ;
#290703 = DIRECTION ( 'NONE',  ( -0.000000000000000000, -1.000000000000000000, -0.000000000000000000 ) ) ;
#290822 = FACE_BOUND ( 'NONE', #228698, .T. ) ;
#291794 = DIRECTION ( 'NONE',  ( 0.000000000000000000, 1.000000000000000000, 0.000000000000000000 ) ) ;
#291802 = AXIS2_PLACEMENT_3D ( 'NONE', #43183, #280130, #68178 ) ;
#291920 = CARTESIAN_POINT ( 'NONE',  ( 6.735557395310442615E-15, 0.000000000000000000, 55.00000000000000000 ) ) ;
#292152 = CARTESIAN_POINT ( 'NONE',  ( -47.72970773009195966, 5.000000000000000000, -47.72970773009196677 ) ) ;
#292704 = PRODUCT_DEFINITION ( 'UNKNOWN', '', #111735, #47716 ) ;
#292809 = CYLINDRICAL_SURFACE ( 'NONE', #173799, 4.400000000000001243 ) ;
#292909 = CARTESIAN_POINT ( 'NONE',  ( 67.50000000000000000, 5.000000000000000000, -4.399999999999997691 ) ) ;
#293731 = EDGE_CURVE ( 'NONE', #130766, #98147, #27333, .T. ) ;
#294214 = ORIENTED_EDGE ( 'NONE', *, *, #102132, .F. ) ;
#294441 = CARTESIAN_POINT ( 'NONE',  ( -67.50000000000000000, 5.000000000000000000, -4.400000000000005684 ) ) ;
#294938 = ORIENTED_EDGE ( 'NONE', *, *, #34161, .T. ) ;
#295437 = DIRECTION ( 'NONE',  ( 0.000000000000000000, 1.000000000000000000, 0.000000000000000000 ) ) ;
#296457 = DIRECTION ( 'NONE',  ( 0.000000000000000000, 1.000000000000000000, 0.000000000000000000 ) ) ;
#297062 = VERTEX_POINT ( 'NONE', #273800 ) ;
#297074 = DIRECTION ( 'NONE',  ( -0.000000000000000000, -1.000000000000000000, -0.000000000000000000 ) ) ;
#297828 = CARTESIAN_POINT ( 'NONE',  ( -47.72970773009195966, 5.000000000000000000, -47.72970773009196677 ) ) ;
#298029 = CARTESIAN_POINT ( 'NONE',  ( 47.72970773009196677, 5.000000000000000000, -47.72970773009195966 ) ) ;
#298263 = DIRECTION ( 'NONE',  ( -0.000000000000000000, -1.000000000000000000, -0.000000000000000000 ) ) ;
#298342 = FACE_OUTER_BOUND ( 'NONE', #210114, .T. ) ;
#298629 = CIRCLE ( 'NONE', #104434, 4.400000000000001243 ) ;
#298727 = EDGE_LOOP ( 'NONE', ( #289899, #109078, #220429, #27942 ) ) ;
#298790 = ORIENTED_EDGE ( 'NONE', *, *, #22107, .F. ) ;
#299279 = ORIENTED_EDGE ( 'NONE', *, *, #70100, .F. ) ;
#299818 = ORIENTED_EDGE ( 'NONE', *, *, #92942, .F. ) ;
#302096 = ORIENTED_EDGE ( 'NONE', *, *, #100462, .T. ) ;
#302406 = EDGE_CURVE ( 'NONE', #244233, #50674, #144757, .T. ) ;
#302746 = FACE_OUTER_BOUND ( 'NONE', #220854, .T. ) ;
#303132 = CYLINDRICAL_SURFACE ( 'NONE', #194651, 55.00000000000000000 ) ;
#303413 = CIRCLE ( 'NONE', #124349, 4.399999999999997691 ) ;
#303517 = EDGE_CURVE ( 'NONE', #130766, #297062, #154712, .T. ) ;
#304675 = EDGE_CURVE ( 'NONE', #206844, #306266, #230823, .T. ) ;
#304760 = EDGE_CURVE ( 'NONE', #148480, #137986, #141118, .T. ) ;
#305275 = CARTESIAN_POINT ( 'NONE',  ( 67.50000000000000000, 5.000000000000000000, 4.399999999999997691 ) ) ;
#306027 = DIRECTION ( 'NONE',  ( 0.000000000000000000, 0.000000000000000000, 1.000000000000000000 ) ) ;
#306141 = MANIFOLD_SOLID_BREP ( '\X2\0411043e0431044b0448043a0430\X0\-\X2\0412044b0442044f043d04430442044c\X0\1', #172395 ) ;
#306266 = VERTEX_POINT ( 'NONE', #94074 ) ;
#306857 = CARTESIAN_POINT ( 'NONE',  ( -4.071950607164968131E-15, 0.000000000000000000, 67.49999999999998579 ) ) ;
#307133 = CIRCLE ( 'NONE', #98019, 4.399999999999997691 ) ;
#308174 = CARTESIAN_POINT ( 'NONE',  ( -67.50000000000000000, 0.000000000000000000, 4.399999999999989697 ) ) ;
ENDSEC;
END-ISO-10303-21;
