ISO-10303-21;
HEADER;
FILE_DESCRIPTION (( 'STEP AP214' ),
    '1' );
FILE_NAME ('PT.SHT.01.20.00.00 —¡ ''ÿÌÂÍ 1'' (STEP 214 ““).STEP',
    '2026-09-29T05:38:28',
    ( '' ),
    ( '' ),
    'SwSTEP 2.0',
    'SolidWorks 2025',
    '' );
FILE_SCHEMA (( 'AUTOMOTIVE_DESIGN' ));
ENDSEC;

DATA;
#619 = CARTESIAN_POINT ( 'NONE',  ( 0.000000000000000000, 4.440892098500626162E-13, -8.000000000000229150 ) ) ;
#1016 = CARTESIAN_POINT ( 'NONE',  ( 0.1905300274099416824, 2.321534534213118839, 8.000000140899819812 ) ) ;
#1143 = CARTESIAN_POINT ( 'NONE',  ( 0.004130652211145028826, 7.123921229852125947, 3.660914076557336472 ) ) ;
#1450 = CIRCLE ( 'NONE', #21220, 4.172000000000009479 ) ;
#1467 = FACE_OUTER_BOUND ( 'NONE', #150859, .T. ) ;
#2409 = VERTEX_POINT ( 'NONE', #263456 ) ;
#2495 = CARTESIAN_POINT ( 'NONE',  ( 5.799999999999999822, 9.237604307034130713, 1.110223024625156540E-13 ) ) ;
#2621 = ORIENTED_EDGE ( 'NONE', *, *, #92550, .F. ) ;
#2672 = CARTESIAN_POINT ( 'NONE',  ( 0.1216158099358044947, 7.853393151083461809, 2.397458319954070660 ) ) ;
#3021 = CARTESIAN_POINT ( 'NONE',  ( 0.1206578334480392922, -1.842922444651755365, -7.999997781381377848 ) ) ;
#3283 = DIRECTION ( 'NONE',  ( 0.000000000000000000, -1.276756478318928247E-15, 1.000000000000000000 ) ) ;
#3585 = LINE ( 'NONE', #98692, #53281 ) ;
#4659 = PLANE ( 'NONE',  #43765 ) ;
#4932 = ORIENTED_EDGE ( 'NONE', *, *, #252453, .F. ) ;
#5274 = EDGE_LOOP ( 'NONE', ( #223384, #102125, #2621, #167042, #127784, #295201 ) ) ;
#6912 = CARTESIAN_POINT ( 'NONE',  ( 0.000000000000000000, 0.000000000000000000, 0.000000000000000000 ) ) ;
#7106 = CARTESIAN_POINT ( 'NONE',  ( 0.05720564974154299792, -1.266178975332008960, 8.000083374083992283 ) ) ;
#7229 = CARTESIAN_POINT ( 'NONE',  ( 5.799999999999999822, -9.237604307033242534, 0.000000000000000000 ) ) ;
#7287 = FACE_OUTER_BOUND ( 'NONE', #44834, .T. ) ;
#7541 = CARTESIAN_POINT ( 'NONE',  ( 5.799999999999999822, -4.618802153516954334, 8.000000000000007105 ) ) ;
#8026 = ORIENTED_EDGE ( 'NONE', *, *, #121191, .F. ) ;
#8137 = CARTESIAN_POINT ( 'NONE',  ( 6.400000000000003020, 4.618802153517620468, -8.000000000000117240 ) ) ;
#8400 = EDGE_CURVE ( 'NONE', #247269, #156382, #258383, .T. ) ;
#8645 = CARTESIAN_POINT ( 'NONE',  ( 0.7145311798163189732, -4.618802153516954334, 8.000000000000007105 ) ) ;
#8823 = DIRECTION ( 'NONE',  ( 0.000000000000000000, 1.000000000000000000, 1.054711873393897333E-15 ) ) ;
#8902 = CARTESIAN_POINT ( 'NONE',  ( 5.799999999999999822, 4.618802153517620468, -8.000000000000117240 ) ) ;
#9101 = ORIENTED_EDGE ( 'NONE', *, *, #180073, .T. ) ;
#9150 = ORIENTED_EDGE ( 'NONE', *, *, #227652, .F. ) ;
#9174 = DIRECTION ( 'NONE',  ( 1.000000000000000000, 0.000000000000000000, -0.000000000000000000 ) ) ;
#9520 = EDGE_CURVE ( 'NONE', #2409, #166325, #173469, .T. ) ;
#10128 = CIRCLE ( 'NONE', #184170, 8.000000000000015987 ) ;
#10191 = CARTESIAN_POINT ( 'NONE',  ( 0.01648371804644368360, -6.538411496681630908, -4.675297301920059212 ) ) ;
#10228 = DIRECTION ( 'NONE',  ( -1.000000000000000000, 0.000000000000000000, 0.000000000000000000 ) ) ;
#10413 = ORIENTED_EDGE ( 'NONE', *, *, #268897, .T. ) ;
#10773 = ORIENTED_EDGE ( 'NONE', *, *, #140383, .T. ) ;
#10927 = CARTESIAN_POINT ( 'NONE',  ( 0.7145311798163258565, 9.237604307034130713, 1.110223024625156540E-13 ) ) ;
#11390 = ADVANCED_FACE ( 'NONE', ( #152982 ), #34620, .F. ) ;
#12193 = CARTESIAN_POINT ( 'NONE',  ( 0.000000000000000000, 1.110223024625156540E-12, 8.000000000000007105 ) ) ;
#12414 = ORIENTED_EDGE ( 'NONE', *, *, #40617, .T. ) ;
#12443 = CARTESIAN_POINT ( 'NONE',  ( 0.5005320045437373633, 8.848137780159726518, -0.6742343805297416059 ) ) ;
#12455 = ORIENTED_EDGE ( 'NONE', *, *, #197309, .F. ) ;
#12937 = CARTESIAN_POINT ( 'NONE',  ( -1.129377263005729677E-18, -6.830110092323758764, 4.169902298806324126 ) ) ;
#13505 = DIRECTION ( 'NONE',  ( 0.000000000000000000, 1.276756478318927260E-15, 1.000000000000000000 ) ) ;
#14469 = DIRECTION ( 'NONE',  ( 1.000000000000000000, 0.000000000000000000, -0.000000000000000000 ) ) ;
#14482 = DIRECTION ( 'NONE',  ( 0.000000000000000000, -1.276756478318927458E-15, -1.000000000000000000 ) ) ;
#15524 = CARTESIAN_POINT ( 'NONE',  ( 0.01648371804644359687, 7.318131982065851915, -3.324781805518624012 ) ) ;
#15751 = B_SPLINE_CURVE_WITH_KNOTS ( 'NONE', 3,
 ( #291276, #263358, #77817, #49781, #269504, #121458, #126065, #169788, #55929, #3021, #286692, #168247, #73237, #144857, #193184, #288225, #76291 ),
 .UNSPECIFIED., .F., .F.,
 ( 4, 2, 2, 2, 2, 1, 2, 2, 4 ),
 ( 0.000000000000000000, 0.1249999999999999167, 0.1874999999999998890, 0.2499999999999998335, 0.3749999999999998335, 0.4374999999999998890, 0.4687499999999997780, 0.4999999999999997780, 1.000000000000000000 ),
 .UNSPECIFIED. ) ;
#15801 = CARTESIAN_POINT ( 'NONE',  ( 0.2002826064198134637, 5.737309356830494700, 6.062689286627820806 ) ) ;
#16009 = CARTESIAN_POINT ( 'NONE',  ( 0.000000000000000000, -6.928203230275320479, 3.999999999999781508 ) ) ;
#16166 = DIRECTION ( 'NONE',  ( 0.000000000000000000, 1.276756478318927260E-15, 1.000000000000000000 ) ) ;
#16271 = VECTOR ( 'NONE', #202764, 1000.000000000000000 ) ;
#16288 = EDGE_CURVE ( 'NONE', #196728, #126689, #95155, .T. ) ;
#16318 = B_SPLINE_CURVE_WITH_KNOTS ( 'NONE', 3,
 ( #8645, #148903, #197334, #264410, #170817, #50811, #198882, #265903, #77326, #52346, #242553, #290784, #262852, #97613, #49247, #7106, #192685, #78825, #287708 ),
 .UNSPECIFIED., .F., .F.,
 ( 4, 2, 2, 1, 2, 2, 2, 2, 2, 4 ),
 ( 0.000000000000000000, 0.2500000000000001665, 0.3750000000000002220, 0.4375000000000002776, 0.4687500000000003331, 0.5000000000000003331, 0.6250000000000004441, 0.6875000000000003331, 0.7500000000000002220, 1.000000000000000000 ),
 .UNSPECIFIED. ) ;
#16413 = CARTESIAN_POINT ( 'NONE',  ( 0.02168592410851225699, -7.319470541899787186, -3.322231912641953055 ) ) ;
#16879 = ORIENTED_EDGE ( 'NONE', *, *, #40617, .F. ) ;
#17324 = CARTESIAN_POINT ( 'NONE',  ( 0.000000000000000000, 0.000000000000000000, 0.000000000000000000 ) ) ;
#17340 = CARTESIAN_POINT ( 'NONE',  ( 0.05769301316255270179, 6.292455065394405800, 5.101304309553372995 ) ) ;
#17669 = AXIS2_PLACEMENT_3D ( 'NONE', #237552, #259482, #116020 ) ;
#18056 = VERTEX_POINT ( 'NONE', #243201 ) ;
#18599 = PLANE ( 'NONE',  #276772 ) ;
#19593 = FACE_OUTER_BOUND ( 'NONE', #5274, .T. ) ;
#19820 = ORIENTED_EDGE ( 'NONE', *, *, #153877, .T. ) ;
#20020 = ORIENTED_EDGE ( 'NONE', *, *, #169367, .T. ) ;
#20185 = FACE_OUTER_BOUND ( 'NONE', #54631, .T. ) ;
#20373 = ORIENTED_EDGE ( 'NONE', *, *, #206944, .F. ) ;
#20417 = EDGE_LOOP ( 'NONE', ( #52670, #82897, #234069, #9150 ) ) ;
#20505 = DIRECTION ( 'NONE',  ( 0.000000000000000000, 1.000000000000000000, 1.054711873393897333E-15 ) ) ;
#20552 = VERTEX_POINT ( 'NONE', #102929 ) ;
#20650 = CARTESIAN_POINT ( 'NONE',  ( 5.799999999999999822, 0.000000000000000000, 0.000000000000000000 ) ) ;
#21220 = AXIS2_PLACEMENT_3D ( 'NONE', #39618, #305992, #16166 ) ;
#21665 = VERTEX_POINT ( 'NONE', #135645 ) ;
#21773 = ORIENTED_EDGE ( 'NONE', *, *, #280586, .F. ) ;
#23206 = CARTESIAN_POINT ( 'NONE',  ( 5.799999999999999822, 8.000000000000007105, -2.220446049250313081E-13 ) ) ;
#23374 = EDGE_CURVE ( 'NONE', #31494, #98879, #82034, .T. ) ;
#23414 = DIRECTION ( 'NONE',  ( 1.000000000000000000, 0.000000000000000000, -0.000000000000000000 ) ) ;
#23777 = DIRECTION ( 'NONE',  ( 1.000000000000000000, 0.000000000000000000, -0.000000000000000000 ) ) ;
#23954 = CARTESIAN_POINT ( 'NONE',  ( 0.1982831725921652688, 2.369279290191242282, -8.000000148584479831 ) ) ;
#24049 = LINE ( 'NONE', #243797, #38211 ) ;
#24370 = CARTESIAN_POINT ( 'NONE',  ( 0.1773318443527602817, 5.808944974409461892, -5.938607820530949155 ) ) ;
#25737 = EDGE_CURVE ( 'NONE', #98879, #254194, #16318, .T. ) ;
#25819 = AXIS2_PLACEMENT_3D ( 'NONE', #170463, #142458, #235997 ) ;
#25824 = EDGE_CURVE ( 'NONE', #66972, #293714, #72177, .T. ) ;
#25903 = CARTESIAN_POINT ( 'NONE',  ( 0.02179570510417353293, 0.7845826632725253491, 7.999963021449046252 ) ) ;
#25922 = CARTESIAN_POINT ( 'NONE',  ( 5.799999999999999822, 6.928203230275986613, 3.999999999999892530 ) ) ;
#26030 = CARTESIAN_POINT ( 'NONE',  ( 0.04147603412916527760, 7.467572038947416502, 3.065787014528698950 ) ) ;
#26133 = ADVANCED_FACE ( 'NONE', ( #254413 ), #40744, .T. ) ;
#27012 = CARTESIAN_POINT ( 'NONE',  ( 0.05812188026797423385, 1.276863656973550532, -8.000000614147584344 ) ) ;
#28167 = CARTESIAN_POINT ( 'NONE',  ( 95.57200000000000273, 2.220446049250313081E-13, -4.999999999999782396 ) ) ;
#28647 = ORIENTED_EDGE ( 'NONE', *, *, #119641, .T. ) ;
#29316 = DIRECTION ( 'NONE',  ( 0.000000000000000000, -1.276756478318927458E-15, -1.000000000000000000 ) ) ;
#29691 = VERTEX_POINT ( 'NONE', #178051 ) ;
#30012 = LINE ( 'NONE', #8137, #206562 ) ;
#30179 = VECTOR ( 'NONE', #259794, 1000.000000000000114 ) ;
#30947 = CARTESIAN_POINT ( 'NONE',  ( 0.2002826064188559518, -8.119097615883738683, 1.937311009076580159 ) ) ;
#31494 = VERTEX_POINT ( 'NONE', #7541 ) ;
#31803 = DIRECTION ( 'NONE',  ( -0.7071067811865563435, 8.881784197001244435E-16, 0.7071067811865388020 ) ) ;
#32042 = FACE_OUTER_BOUND ( 'NONE', #131578, .T. ) ;
#32452 = EDGE_CURVE ( 'NONE', #33479, #118542, #24049, .T. ) ;
#32486 = CARTESIAN_POINT ( 'NONE',  ( 0.3298213600001866919, -8.469194241572257198, 1.330616086494037731 ) ) ;
#32702 = DIRECTION ( 'NONE',  ( -1.000000000000000000, 0.000000000000000000, 0.000000000000000000 ) ) ;
#32777 = ORIENTED_EDGE ( 'NONE', *, *, #97217, .F. ) ;
#33054 = DIRECTION ( 'NONE',  ( -1.000000000000000000, 0.000000000000000000, 0.000000000000000000 ) ) ;
#33111 = AXIS2_PLACEMENT_3D ( 'NONE', #63169, #158179, #253395 ) ;
#33302 = DIRECTION ( 'NONE',  ( 0.000000000000000000, 1.000000000000000000, 1.276756478318928247E-15 ) ) ;
#33479 = VERTEX_POINT ( 'NONE', #234267 ) ;
#33564 = CARTESIAN_POINT ( 'NONE',  ( 0.7145311798161593231, -4.618802153516954334, -8.000000000000341061 ) ) ;
#34026 = CARTESIAN_POINT ( 'NONE',  ( 0.2745458216272041452, -8.328461528780961132, 1.574510508074644211 ) ) ;
#34164 = VERTEX_POINT ( 'NONE', #208837 ) ;
#34341 = AXIS2_PLACEMENT_3D ( 'NONE', #259366, #32702, #307543 ) ;
#34620 = PLANE ( 'NONE',  #242984 ) ;
#34882 = ORIENTED_EDGE ( 'NONE', *, *, #156982, .T. ) ;
#35582 = ORIENTED_EDGE ( 'NONE', *, *, #186698, .T. ) ;
#35618 = LINE ( 'NONE', #152444, #261916 ) ;
#36155 = ORIENTED_EDGE ( 'NONE', *, *, #100651, .T. ) ;
#36263 = ORIENTED_EDGE ( 'NONE', *, *, #52157, .F. ) ;
#38184 = CARTESIAN_POINT ( 'NONE',  ( 0.2002826064202959666, -5.737309356831131524, -6.062689286628369700 ) ) ;
#38211 = VECTOR ( 'NONE', #120671, 1000.000000000000000 ) ;
#38214 = DIRECTION ( 'NONE',  ( 1.000000000000000000, 0.000000000000000000, -0.000000000000000000 ) ) ;
#38947 = CARTESIAN_POINT ( 'NONE',  ( 0.1609175007363488341, 7.997332599458133906, -2.148211247109017119 ) ) ;
#39618 = CARTESIAN_POINT ( 'NONE',  ( 96.40000000000000568, 0.000000000000000000, 0.000000000000000000 ) ) ;
#39729 = CARTESIAN_POINT ( 'NONE',  ( 0.08656365540022831206, -6.148822927035803687, -5.349987583644686850 ) ) ;
#39874 = CARTESIAN_POINT ( 'NONE',  ( 0.004130652211145197095, -7.123921229838558133, -3.660914076583742016 ) ) ;
#39953 = EDGE_LOOP ( 'NONE', ( #261484, #75026, #220258, #97576, #114458, #4932 ) ) ;
#40047 = AXIS2_PLACEMENT_3D ( 'NONE', #169755, #96537, #266357 ) ;
#40617 = EDGE_CURVE ( 'NONE', #29691, #130518, #58063, .T. ) ;
#40744 = CYLINDRICAL_SURFACE ( 'NONE', #110167, 8.000000000000015987 ) ;
#40757 = CARTESIAN_POINT ( 'NONE',  ( 0.2745458216272067542, 5.527796862908665787, 6.425404004328382435 ) ) ;
#40911 = ADVANCED_FACE ( 'NONE', ( #185716 ), #307193, .T. ) ;
#41338 = EDGE_LOOP ( 'NONE', ( #88167, #149162, #215517, #32777, #255377, #269849 ) ) ;
#42627 = ORIENTED_EDGE ( 'NONE', *, *, #116352, .T. ) ;
#43765 = AXIS2_PLACEMENT_3D ( 'NONE', #99770, #241614, #172911 ) ;
#44700 = CARTESIAN_POINT ( 'NONE',  ( 0.000000000000000000, 6.928203230275764568, -4.000000000000003553 ) ) ;
#44834 = EDGE_LOOP ( 'NONE', ( #124411, #42627, #77416 ) ) ;
#45467 = FACE_OUTER_BOUND ( 'NONE', #161801, .T. ) ;
#46151 = ORIENTED_EDGE ( 'NONE', *, *, #32452, .T. ) ;
#46885 = EDGE_CURVE ( 'NONE', #293714, #29691, #214706, .T. ) ;
#47141 = FACE_OUTER_BOUND ( 'NONE', #100254, .T. ) ;
#47711 = VERTEX_POINT ( 'NONE', #189921 ) ;
#47719 = CARTESIAN_POINT ( 'NONE',  ( 0.000000000000000000, 1.110223024625156540E-12, 8.000000000000007105 ) ) ;
#48009 = DIRECTION ( 'NONE',  ( 0.000000000000000000, -1.276756478318927458E-15, -1.000000000000000000 ) ) ;
#48314 = DIRECTION ( 'NONE',  ( 0.000000000000000000, -0.4999999999999993894, 0.8660254037844389297 ) ) ;
#48526 = CIRCLE ( 'NONE', #118212, 5.000000000000010658 ) ;
#49247 = CARTESIAN_POINT ( 'NONE',  ( 0.06607934115217092841, -1.360974268184345526, 8.000067337973630899 ) ) ;
#49635 = CARTESIAN_POINT ( 'NONE',  ( 6.400000000000003020, 0.000000000000000000, 0.000000000000000000 ) ) ;
#49781 = CARTESIAN_POINT ( 'NONE',  ( 0.01634447135373669896, -0.6804432005944838213, -8.000008997250176890 ) ) ;
#50178 = CARTESIAN_POINT ( 'NONE',  ( 0.000000000000000000, 2.220446049250313081E-13, -4.999999999999782396 ) ) ;
#50192 = ORIENTED_EDGE ( 'NONE', *, *, #100651, .F. ) ;
#50237 = DIRECTION ( 'NONE',  ( -1.000000000000000000, 0.000000000000000000, 0.000000000000000000 ) ) ;
#50437 = CARTESIAN_POINT ( 'NONE',  ( 0.5015875981126212135, 3.844207401424530435, -7.999833658438837425 ) ) ;
#50666 = ORIENTED_EDGE ( 'NONE', *, *, #46885, .T. ) ;
#50811 = CARTESIAN_POINT ( 'NONE',  ( 0.2737141994902387854, -2.796312671251329984, 7.999913454784413958 ) ) ;
#50827 = CARTESIAN_POINT ( 'NONE',  ( 0.1216158099268181969, 6.002956385176157816, -5.602508814702459539 ) ) ;
#50945 = CARTESIAN_POINT ( 'NONE',  ( 5.799999999999999822, -4.618802153516510245, -8.000000000000007105 ) ) ;
#51284 = CARTESIAN_POINT ( 'NONE',  ( 5.799999999999999822, 0.000000000000000000, 0.000000000000000000 ) ) ;
#51383 = FACE_OUTER_BOUND ( 'NONE', #178828, .T. ) ;
#51470 = LINE ( 'NONE', #152617, #290577 ) ;
#51696 = AXIS2_PLACEMENT_3D ( 'NONE', #117176, #3283, #93789 ) ;
#52157 = EDGE_CURVE ( 'NONE', #157020, #20552, #292944, .T. ) ;
#52346 = CARTESIAN_POINT ( 'NONE',  ( 0.1993796768366631889, -2.376301491054489290, 8.000000295784786886 ) ) ;
#52350 = CARTESIAN_POINT ( 'NONE',  ( 0.3149898094899449275, 3.087988411291314073, 7.999995491206368214 ) ) ;
#52670 = ORIENTED_EDGE ( 'NONE', *, *, #273129, .T. ) ;
#53090 = CIRCLE ( 'NONE', #302055, 8.000000000000015987 ) ;
#53281 = VECTOR ( 'NONE', #193783, 1000.000000000000000 ) ;
#54055 = EDGE_CURVE ( 'NONE', #110638, #104317, #282572, .T. ) ;
#54085 = CARTESIAN_POINT ( 'NONE',  ( 5.799999999999999822, -4.618802153516510245, -8.000000000000007105 ) ) ;
#54466 = CONICAL_SURFACE ( 'NONE', #109215, 8.000000000000015987, 1.047197551196598297 ) ;
#54631 = EDGE_LOOP ( 'NONE', ( #272676, #115607, #94974 ) ) ;
#54985 = CYLINDRICAL_SURFACE ( 'NONE', #185040, 5.000000000000010658 ) ;
#55259 = LINE ( 'NONE', #178259, #181771 ) ;
#55879 = CIRCLE ( 'NONE', #160411, 8.000000000000015987 ) ;
#55906 = DIRECTION ( 'NONE',  ( 0.000000000000000000, 1.276756478318927458E-15, 1.000000000000000000 ) ) ;
#55929 = CARTESIAN_POINT ( 'NONE',  ( 0.08503436808586027629, -1.553492474175963700, -8.000027133609789232 ) ) ;
#55987 = PLANE ( 'NONE',  #205563 ) ;
#56032 = VERTEX_POINT ( 'NONE', #286217 ) ;
#56826 = EDGE_LOOP ( 'NONE', ( #285224, #234305, #216754 ) ) ;
#56958 = DIRECTION ( 'NONE',  ( 1.000000000000000000, 0.000000000000000000, -0.000000000000000000 ) ) ;
#57087 = CARTESIAN_POINT ( 'NONE',  ( 0.7145311798163258565, 9.237604307034130713, 1.110223024625156540E-13 ) ) ;
#57547 = ORIENTED_EDGE ( 'NONE', *, *, #181669, .F. ) ;
#58063 = CIRCLE ( 'NONE', #82762, 8.000000000000015987 ) ;
#58161 = ADVANCED_FACE ( 'NONE', ( #95023 ), #199852, .T. ) ;
#58184 = DIRECTION ( 'NONE',  ( 0.000000000000000000, -1.276756478318927458E-15, -1.000000000000000000 ) ) ;
#58613 = EDGE_CURVE ( 'NONE', #156382, #166325, #121827, .T. ) ;
#58617 = CARTESIAN_POINT ( 'NONE',  ( 0.4875042525019364081, 8.844382134239262783, 0.6810807819429657295 ) ) ;
#59108 = CARTESIAN_POINT ( 'NONE',  ( 6.400000000000003020, -9.237604307033242534, 0.000000000000000000 ) ) ;
#60068 = LINE ( 'NONE', #106819, #293788 ) ;
#60394 = EDGE_CURVE ( 'NONE', #232975, #31494, #74474, .T. ) ;
#60474 = CARTESIAN_POINT ( 'NONE',  ( 0.5005320045301751009, -8.848137780133315644, 0.6742343805669175349 ) ) ;
#60878 = VECTOR ( 'NONE', #72067, 1000.000000000000000 ) ;
#61265 = CARTESIAN_POINT ( 'NONE',  ( 0.4875042524882091111, -5.012024326335371427, 7.318919218015778938 ) ) ;
#61492 = ORIENTED_EDGE ( 'NONE', *, *, #266530, .F. ) ;
#61822 = DIRECTION ( 'NONE',  ( -1.000000000000000000, 0.000000000000000000, 0.000000000000000000 ) ) ;
#63118 = CARTESIAN_POINT ( 'NONE',  ( 0.2077129956970305558, -5.714960447406510546, -6.101390449023524454 ) ) ;
#63169 = CARTESIAN_POINT ( 'NONE',  ( 96.40000000000000568, 0.000000000000000000, 0.000000000000000000 ) ) ;
#63219 = ORIENTED_EDGE ( 'NONE', *, *, #119641, .F. ) ;
#63730 = VECTOR ( 'NONE', #31803, 1000.000000000000000 ) ;
#63751 = VERTEX_POINT ( 'NONE', #168192 ) ;
#63871 = CARTESIAN_POINT ( 'NONE',  ( 0.09751864808210736202, 7.755817952453271324, -2.566558498337614402 ) ) ;
#64996 = EDGE_CURVE ( 'NONE', #166325, #2409, #48526, .T. ) ;
#65932 = CARTESIAN_POINT ( 'NONE',  ( 0.1773318443513794418, -5.808944974412377782, 5.938607820524771874 ) ) ;
#66211 = CONICAL_SURFACE ( 'NONE', #285765, 8.000000000000015987, 1.047197551196598297 ) ;
#66972 = VERTEX_POINT ( 'NONE', #150182 ) ;
#67267 = DIRECTION ( 'NONE',  ( -1.000000000000000000, 0.000000000000000000, 0.000000000000000000 ) ) ;
#67889 = CARTESIAN_POINT ( 'NONE',  ( 0.1409747969290569836, -7.925960425329125592, -2.271788209494033151 ) ) ;
#67953 = PLANE ( 'NONE',  #209792 ) ;
#68472 = DIRECTION ( 'NONE',  ( -1.000000000000000000, 0.000000000000000000, 0.000000000000000000 ) ) ;
#68581 = DIRECTION ( 'NONE',  ( -1.000000000000000000, 0.000000000000000000, 0.000000000000000000 ) ) ;
#69246 = CARTESIAN_POINT ( 'NONE',  ( 0.01660625150513406895, 0.7833508109913719375, -7.999997543409761214 ) ) ;
#69397 = CARTESIAN_POINT ( 'NONE',  ( 6.400000000000003020, 9.237604307034130713, 1.110223024625156540E-13 ) ) ;
#69550 = CARTESIAN_POINT ( 'NONE',  ( 0.7145311798163189732, -4.618802153516954334, 8.000000000000007105 ) ) ;
#69684 = CARTESIAN_POINT ( 'NONE',  ( 0.08578635528556390055, 6.147849987672179495, -5.351542912790943518 ) ) ;
#70065 = DIRECTION ( 'NONE',  ( 0.000000000000000000, 1.000000000000000000, 1.054711873393897333E-15 ) ) ;
#70389 = EDGE_LOOP ( 'NONE', ( #130812, #227067, #269069, #273701 ) ) ;
#70719 = LINE ( 'NONE', #149590, #277973 ) ;
#70955 = DIRECTION ( 'NONE',  ( -1.000000000000000000, 0.000000000000000000, 0.000000000000000000 ) ) ;
#72067 = DIRECTION ( 'NONE',  ( -1.000000000000000000, 0.000000000000000000, 0.000000000000000000 ) ) ;
#72177 = B_SPLINE_CURVE_WITH_KNOTS ( 'NONE', 3,
 ( #33564, #229878, #299989, #205029, #206575, #109893, #295376, #181546, #63118, #38184, #180005, #301512, #130202, #39729, #175400, #178438, #10191, #151959, #131737 ),
 .UNSPECIFIED., .F., .F.,
 ( 4, 2, 2, 1, 2, 2, 2, 2, 2, 4 ),
 ( 0.000000000000000000, 0.2499999999999998890, 0.3749999999999998335, 0.4374999999999997224, 0.4687499999999992228, 0.4999999999999987788, 0.6249999999999992228, 0.6874999999999993339, 0.7499999999999995559, 1.000000000000000000 ),
 .UNSPECIFIED. ) ;
#72492 = CARTESIAN_POINT ( 'NONE',  ( 0.1216158099291571176, -7.853393151057906252, -2.397458319998349019 ) ) ;
#72737 = CARTESIAN_POINT ( 'NONE',  ( 0.3136224075779697196, 5.387142660584959941, -6.669186155167857954 ) ) ;
#72798 = VERTEX_POINT ( 'NONE', #273496 ) ;
#72861 = CARTESIAN_POINT ( 'NONE',  ( 0.01652260884458010143, 7.270560034791964554, 3.406929605192005273 ) ) ;
#72942 = ADVANCED_FACE ( 'NONE', ( #101760 ), #54985, .T. ) ;
#73237 = CARTESIAN_POINT ( 'NONE',  ( 0.1760599746209976779, -2.230317417636288102, -7.999999107538650733 ) ) ;
#73319 = FACE_OUTER_BOUND ( 'NONE', #99774, .T. ) ;
#74063 = CARTESIAN_POINT ( 'NONE',  ( 0.000000000000000000, -6.928203230275320479, 3.999999999999781508 ) ) ;
#74219 = AXIS2_PLACEMENT_3D ( 'NONE', #20650, #210870, #299690 ) ;
#74404 = DIRECTION ( 'NONE',  ( 0.000000000000000000, 0.4999999999999989453, -0.8660254037844392627 ) ) ;
#74474 = LINE ( 'NONE', #169504, #156486 ) ;
#74829 = DIRECTION ( 'NONE',  ( 1.000000000000000000, 0.000000000000000000, -0.000000000000000000 ) ) ;
#75026 = ORIENTED_EDGE ( 'NONE', *, *, #221297, .T. ) ;
#75435 = CARTESIAN_POINT ( 'NONE',  ( 0.06709816724601475046, 1.371943494717573042, -7.999989901224401123 ) ) ;
#75924 = DIRECTION ( 'NONE',  ( 0.000000000000000000, -0.5000000000000002220, -0.8660254037844384856 ) ) ;
#75925 = ADVANCED_FACE ( 'NONE', ( #131762 ), #203534, .T. ) ;
#76291 = CARTESIAN_POINT ( 'NONE',  ( 0.7145311798161593231, -4.618802153516954334, -8.000000000000341061 ) ) ;
#76739 = CARTESIAN_POINT ( 'NONE',  ( 6.400000000000003020, 9.237604307034130713, 1.110223024625156540E-13 ) ) ;
#76816 = DIRECTION ( 'NONE',  ( -1.000000000000000000, 0.000000000000000000, 0.000000000000000000 ) ) ;
#77132 = FACE_OUTER_BOUND ( 'NONE', #187753, .T. ) ;
#77326 = CARTESIAN_POINT ( 'NONE',  ( 0.2068352071647022450, -2.421237966092333771, 7.999996101840126883 ) ) ;
#77416 = ORIENTED_EDGE ( 'NONE', *, *, #92977, .T. ) ;
#77587 = DIRECTION ( 'NONE',  ( -0.000000000000000000, 0.5000000000000002220, 0.8660254037844384856 ) ) ;
#77817 = CARTESIAN_POINT ( 'NONE',  ( 0.004086117838432676806, -0.3888979568754847849, -7.999976443722382591 ) ) ;
#77900 = DIRECTION ( 'NONE',  ( 0.000000000000000000, 0.4999999999999993894, -0.8660254037844389297 ) ) ;
#78091 = ORIENTED_EDGE ( 'NONE', *, *, #293578, .F. ) ;
#78243 = CARTESIAN_POINT ( 'NONE',  ( 0.7145311798163258565, -9.237604307033242534, 0.000000000000000000 ) ) ;
#78609 = ORIENTED_EDGE ( 'NONE', *, *, #181669, .T. ) ;
#78825 = CARTESIAN_POINT ( 'NONE',  ( -2.870500543472904376E-17, -0.3896728721911244531, 8.000000000000017764 ) ) ;
#78978 = LINE ( 'NONE', #50945, #227299 ) ;
#79056 = ORIENTED_EDGE ( 'NONE', *, *, #82378, .T. ) ;
#79063 = PRODUCT ( '\X2\0411043e043b0442\X0\ \X2\041c\X0\10\X2\0445\X0\90 DIN 933', '\X2\0411043e043b0442\X0\ \X2\041c\X0\10\X2\0445\X0\90 DIN 933', '', ( #112452 ) ) ;
#79119 = LINE ( 'NONE', #8902, #234389 ) ;
#79252 = CARTESIAN_POINT ( 'NONE',  ( 0.000000000000000000, 0.000000000000000000, 0.000000000000000000 ) ) ;
#80110 = DIRECTION ( 'NONE',  ( 0.000000000000000000, -1.276756478318927458E-15, -1.000000000000000000 ) ) ;
#80822 = CARTESIAN_POINT ( 'NONE',  ( 0.2236407599171032767, -8.188151640749227411, 1.817670401304597672 ) ) ;
#82034 = LINE ( 'NONE', #241146, #305601 ) ;
#82378 = EDGE_CURVE ( 'NONE', #191195, #34164, #168760, .T. ) ;
#82429 = DIRECTION ( 'NONE',  ( 1.000000000000000000, 0.000000000000000000, -0.000000000000000000 ) ) ;
#82762 = AXIS2_PLACEMENT_3D ( 'NONE', #224818, #157690, #156117 ) ;
#82897 = ORIENTED_EDGE ( 'NONE', *, *, #121191, .T. ) ;
#83035 = AXIS2_PLACEMENT_3D ( 'NONE', #51284, #172804, #55906 ) ;
#84565 = ORIENTED_EDGE ( 'NONE', *, *, #186698, .F. ) ;
#84661 = CARTESIAN_POINT ( 'NONE',  ( 0.1216158099224059763, -6.002956385184406329, 5.602508814682418681 ) ) ;
#84725 = VECTOR ( 'NONE', #68472, 1000.000000000000000 ) ;
#85236 = CARTESIAN_POINT ( 'NONE',  ( 95.57200000000000273, 0.000000000000000000, 0.000000000000000000 ) ) ;
#86002 = CARTESIAN_POINT ( 'NONE',  ( 0.2077129956953771006, 5.714960447407760213, 6.101390449018420092 ) ) ;
#86453 = ORIENTED_EDGE ( 'NONE', *, *, #16288, .F. ) ;
#86819 = MANIFOLD_SOLID_BREP ( 'NONE', #97884 ) ;
#86865 = ADVANCED_FACE ( 'NONE', ( #307094 ), #290168, .T. ) ;
#87238 = CARTESIAN_POINT ( 'NONE',  ( 0.2002826064192022026, 8.119097615883898555, -1.937311009078450441 ) ) ;
#87750 = CARTESIAN_POINT ( 'NONE',  ( 0.08578635528115143016, -6.147849987679629535, 5.351542912770739235 ) ) ;
#88167 = ORIENTED_EDGE ( 'NONE', *, *, #221297, .F. ) ;
#88840 = VECTOR ( 'NONE', #70955, 1000.000000000000000 ) ;
#89043 = DIRECTION ( 'NONE',  ( -1.000000000000000000, 0.000000000000000000, 0.000000000000000000 ) ) ;
#89270 = CARTESIAN_POINT ( 'NONE',  ( 0.1625001734440640611, -5.857576071011852292, 5.854362389102782949 ) ) ;
#89510 = ORIENTED_EDGE ( 'NONE', *, *, #155518, .T. ) ;
#90510 = CARTESIAN_POINT ( 'NONE',  ( 6.400000000000003020, -4.618802153516510245, -8.000000000000007105 ) ) ;
#92022 = PLANE ( 'NONE',  #241303 ) ;
#92550 = EDGE_CURVE ( 'NONE', #254194, #110638, #98112, .T. ) ;
#92977 = EDGE_CURVE ( 'NONE', #196728, #118542, #171880, .T. ) ;
#93024 = CARTESIAN_POINT ( 'NONE',  ( 0.004130652211144858824, 6.732405206314277635, -4.339039721305387509 ) ) ;
#93604 = DIRECTION ( 'NONE',  ( 0.000000000000000000, -1.276756478318927458E-15, -1.000000000000000000 ) ) ;
#93789 = DIRECTION ( 'NONE',  ( 0.000000000000000000, -1.000000000000000000, -1.276756478318928247E-15 ) ) ;
#94287 = LINE ( 'NONE', #212778, #193380 ) ;
#94437 = VERTEX_POINT ( 'NONE', #133334 ) ;
#94577 = CARTESIAN_POINT ( 'NONE',  ( 0.4883996907761109507, 3.835459697099310006, 8.000000000000012434 ) ) ;
#94974 = ORIENTED_EDGE ( 'NONE', *, *, #223090, .T. ) ;
#95023 = FACE_OUTER_BOUND ( 'NONE', #20417, .T. ) ;
#95102 = CARTESIAN_POINT ( 'NONE',  ( 6.400000000000003020, 0.000000000000000000, 0.000000000000000000 ) ) ;
#95155 = LINE ( 'NONE', #141910, #210737 ) ;
#95341 = CIRCLE ( 'NONE', #160017, 8.000000000000015987 ) ;
#95859 = CARTESIAN_POINT ( 'NONE',  ( 0.1853395974432273385, -8.072901354005253438, -2.017325255937657325 ) ) ;
#96046 = LINE ( 'NONE', #2495, #30179 ) ;
#96537 = DIRECTION ( 'NONE',  ( -1.000000000000000000, 0.000000000000000000, 0.000000000000000000 ) ) ;
#97161 = EDGE_CURVE ( 'NONE', #191195, #103581, #70719, .T. ) ;
#97210 = CARTESIAN_POINT ( 'NONE',  ( 0.6014704388951074288, 4.227148258283146554, -8.000000000000017764 ) ) ;
#97217 = EDGE_CURVE ( 'NONE', #34164, #232975, #263325, .T. ) ;
#97576 = ORIENTED_EDGE ( 'NONE', *, *, #92977, .F. ) ;
#97613 = CARTESIAN_POINT ( 'NONE',  ( 0.08599800387770568932, -1.553661352002725815, 8.000034654915459953 ) ) ;
#97614 = PRODUCT_DEFINITION_CONTEXT ( 'detailed design', #118733, 'design' ) ;
#97617 = CARTESIAN_POINT ( 'NONE',  ( 0.1786767131130146125, 2.246776504623689164, 7.999997520261397987 ) ) ;
#97744 = CARTESIAN_POINT ( 'NONE',  ( 0.1625001734516028085, 7.998814587455660430, 2.145628487495819137 ) ) ;
#97884 = CLOSED_SHELL ( 'NONE', ( #232822, #171464, #271488, #11390, #258744, #214925, #304086, #109532, #180004, #86865, #298784, #288333, #252161, #154398, #109581, #247604, #103239, #117521, #170631, #75925, #145440, #139327, #40911, #108013, #72942, #58161, #26133 ) ) ;
#98112 = B_SPLINE_CURVE_WITH_KNOTS ( 'NONE', 3,
 ( #47719, #242556, #262855, #239476, #25903, #241001, #142832, #191160, #99149, #213046, #265907, #119451, #97617, #120966, #1016, #52350, #94577, #189647 ),
 .UNSPECIFIED., .F., .F.,
 ( 4, 2, 2, 2, 2, 1, 1, 2, 2, 4 ),
 ( 0.000000000000000000, 0.1250000000000006384, 0.1875000000000008882, 0.2500000000000011657, 0.3750000000000016653, 0.4375000000000018874, 0.4687500000000018319, 0.4843750000000018319, 0.5000000000000017764, 1.000000000000000000 ),
 .UNSPECIFIED. ) ;
#98408 = LINE ( 'NONE', #198134, #16271 ) ;
#98692 = CARTESIAN_POINT ( 'NONE',  ( 6.400000000000003020, 4.618802153517842513, 8.000000000000007105 ) ) ;
#98747 = ORIENTED_EDGE ( 'NONE', *, *, #111842, .F. ) ;
#98751 = CARTESIAN_POINT ( 'NONE',  ( 0.1624484428464683661, 2.148609361729529876, -7.999998811324312342 ) ) ;
#98879 = VERTEX_POINT ( 'NONE', #69550 ) ;
#99149 = CARTESIAN_POINT ( 'NONE',  ( 0.08631457178274767883, 1.565529264159269740, 7.999965114045568981 ) ) ;
#99314 = ORIENTED_EDGE ( 'NONE', *, *, #169367, .F. ) ;
#99576 = ORIENTED_EDGE ( 'NONE', *, *, #156982, .F. ) ;
#99770 = CARTESIAN_POINT ( 'NONE',  ( 5.799999999999999822, 8.000000000000007105, -2.220446049250313081E-13 ) ) ;
#99774 = EDGE_LOOP ( 'NONE', ( #84565, #231071, #275644, #297060, #63219, #220296 ) ) ;
#100105 = CYLINDRICAL_SURFACE ( 'NONE', #128877, 8.000000000000015987 ) ;
#100254 = EDGE_LOOP ( 'NONE', ( #157681, #104662 ) ) ;
#100308 = AXIS2_PLACEMENT_3D ( 'NONE', #141610, #163385, #48009 ) ;
#100651 = EDGE_CURVE ( 'NONE', #139590, #130518, #181414, .T. ) ;
#101068 = EDGE_CURVE ( 'NONE', #94437, #72798, #231853, .T. ) ;
#101760 = FACE_OUTER_BOUND ( 'NONE', #150027, .T. ) ;
#101798 = DIRECTION ( 'NONE',  ( 0.000000000000000000, 1.276756478318927458E-15, 1.000000000000000000 ) ) ;
#102125 = ORIENTED_EDGE ( 'NONE', *, *, #164453, .T. ) ;
#102642 = CARTESIAN_POINT ( 'NONE',  ( 0.01648371804644227848, -7.318131982083272646, 3.324781805474744889 ) ) ;
#102929 = CARTESIAN_POINT ( 'NONE',  ( 0.7145311798163258565, -9.237604307033242534, 0.000000000000000000 ) ) ;
#103239 = ADVANCED_FACE ( 'NONE', ( #238536 ), #4659, .T. ) ;
#103581 = VERTEX_POINT ( 'NONE', #54085 ) ;
#104317 = VERTEX_POINT ( 'NONE', #159546 ) ;
#104662 = ORIENTED_EDGE ( 'NONE', *, *, #101068, .T. ) ;
#105091 = AXIS2_PLACEMENT_3D ( 'NONE', #143942, #215673, #101798 ) ;
#105343 = PLANE ( 'NONE',  #33111 ) ;
#106019 = CARTESIAN_POINT ( 'NONE',  ( 0.2236407599212722752, 8.188151640758745131, -1.817670401295111482 ) ) ;
#106819 = CARTESIAN_POINT ( 'NONE',  ( 0.000000000000000000, 0.000000000000000000, 5.000000000000004441 ) ) ;
#107421 = DIRECTION ( 'NONE',  ( -1.000000000000000000, 0.000000000000000000, 0.000000000000000000 ) ) ;
#108013 = ADVANCED_FACE ( 'NONE', ( #148311, #47141 ), #121884, .T. ) ;
#108040 = CARTESIAN_POINT ( 'NONE',  ( 0.004130652211144526624, -6.732405206331788960, 4.339039721278212802 ) ) ;
#108122 = CARTESIAN_POINT ( 'NONE',  ( 5.799999999999999822, 0.000000000000000000, 0.000000000000000000 ) ) ;
#109215 = AXIS2_PLACEMENT_3D ( 'NONE', #182778, #14469, #273277 ) ;
#109532 = ADVANCED_FACE ( 'NONE', ( #129208 ), #66211, .T. ) ;
#109581 = ADVANCED_FACE ( 'NONE', ( #256561 ), #55987, .T. ) ;
#109893 = CARTESIAN_POINT ( 'NONE',  ( 0.2745458216340630475, -5.527796862902170538, -6.425404004349664078 ) ) ;
#110167 = AXIS2_PLACEMENT_3D ( 'NONE', #17324, #89043, #184143 ) ;
#110638 = VERTEX_POINT ( 'NONE', #122712 ) ;
#110917 = CARTESIAN_POINT ( 'NONE',  ( 0.7145311798163189732, 4.618802153517842513, 8.000000000000007105 ) ) ;
#111042 = CARTESIAN_POINT ( 'NONE',  ( 0.000000000000000000, 0.000000000000000000, 0.000000000000000000 ) ) ;
#111842 = EDGE_CURVE ( 'NONE', #156382, #247269, #267161, .T. ) ;
#112452 = PRODUCT_CONTEXT ( 'NONE', #200307, 'mechanical' ) ;
#112768 = ORIENTED_EDGE ( 'NONE', *, *, #60394, .T. ) ;
#114032 = PLANE ( 'NONE',  #154070 ) ;
#114458 = ORIENTED_EDGE ( 'NONE', *, *, #223090, .F. ) ;
#114614 = CARTESIAN_POINT ( 'NONE',  ( 0.1773318443534953603, -8.047457722900661636, -2.061390006751658621 ) ) ;
#114953 = ORIENTED_EDGE ( 'NONE', *, *, #25824, .T. ) ;
#115164 = ORIENTED_EDGE ( 'NONE', *, *, #64996, .T. ) ;
#115520 = CARTESIAN_POINT ( 'NONE',  ( 0.3700016058967537380, 5.292669921019017565, 6.832457891175921283 ) ) ;
#115607 = ORIENTED_EDGE ( 'NONE', *, *, #234668, .T. ) ;
#115980 = CARTESIAN_POINT ( 'NONE',  ( 0.7145311798163189732, 4.618802153517620468, -8.000000000000117240 ) ) ;
#116020 = DIRECTION ( 'NONE',  ( 0.000000000000000000, 1.276756478318927458E-15, 1.000000000000000000 ) ) ;
#116352 = EDGE_CURVE ( 'NONE', #63751, #196728, #96046, .T. ) ;
#116895 = VECTOR ( 'NONE', #307902, 1000.000000000000000 ) ;
#117176 = CARTESIAN_POINT ( 'NONE',  ( 6.400000000000003020, 4.618802153517620468, -8.000000000000117240 ) ) ;
#117521 = ADVANCED_FACE ( 'NONE', ( #20185 ), #221675, .T. ) ;
#117696 = CARTESIAN_POINT ( 'NONE',  ( 0.06575141133845903429, -7.612227175578700766, -2.815233382802920126 ) ) ;
#118212 = AXIS2_PLACEMENT_3D ( 'NONE', #145237, #268307, #193589 ) ;
#118530 = CIRCLE ( 'NONE', #193081, 8.000000000000015987 ) ;
#118542 = VERTEX_POINT ( 'NONE', #127932 ) ;
#118733 = APPLICATION_CONTEXT ( 'automotive_design' ) ;
#119043 = CARTESIAN_POINT ( 'NONE',  ( 0.1344816645062964222, 1.953873223814288851, -7.999965886793447112 ) ) ;
#119451 = CARTESIAN_POINT ( 'NONE',  ( 0.1672770638278484046, 2.173398583437248011, 7.999992987617266849 ) ) ;
#119641 = EDGE_CURVE ( 'NONE', #103581, #66972, #98408, .T. ) ;
#120671 = DIRECTION ( 'NONE',  ( -0.000000000000000000, 0.5000000000000002220, 0.8660254037844384856 ) ) ;
#120733 = CARTESIAN_POINT ( 'NONE',  ( 5.799999999999999822, 4.618802153517842513, 8.000000000000007105 ) ) ;
#120966 = CARTESIAN_POINT ( 'NONE',  ( 0.1863979908644351480, 2.295736579327916527, 7.999999587478647811 ) ) ;
#121096 = CARTESIAN_POINT ( 'NONE',  ( 0.06575141134289035072, 7.612227175597888085, 2.815233382775375492 ) ) ;
#121191 = EDGE_CURVE ( 'NONE', #21665, #156382, #35618, .T. ) ;
#121458 = CARTESIAN_POINT ( 'NONE',  ( 0.03371047216708409483, -0.9725976031371158514, -8.000066189739284184 ) ) ;
#121719 = PRODUCT_DEFINITION_FORMATION_WITH_SPECIFIED_SOURCE ( 'ANY', '', #79063, .NOT_KNOWN. ) ;
#121827 = LINE ( 'NONE', #50178, #60878 ) ;
#121884 = PLANE ( 'NONE',  #249840 ) ;
#122320 = AXIS2_PLACEMENT_3D ( 'NONE', #49635, #267789, #29316 ) ;
#122712 = CARTESIAN_POINT ( 'NONE',  ( 0.7145311798163189732, 4.618802153517842513, 8.000000000000007105 ) ) ;
#123437 = FACE_OUTER_BOUND ( 'NONE', #41338, .T. ) ;
#124206 = EDGE_CURVE ( 'NONE', #254194, #288384, #10128, .T. ) ;
#124411 = ORIENTED_EDGE ( 'NONE', *, *, #230242, .T. ) ;
#125577 = CARTESIAN_POINT ( 'NONE',  ( 5.799999999999999822, -9.237604307033242534, 0.000000000000000000 ) ) ;
#125706 = DIRECTION ( 'NONE',  ( -1.000000000000000000, 0.000000000000000000, 0.000000000000000000 ) ) ;
#126065 = CARTESIAN_POINT ( 'NONE',  ( 0.04099125887101860710, -1.071805532780210291, -8.000084869079040928 ) ) ;
#126422 = EDGE_LOOP ( 'NONE', ( #167074, #115164 ) ) ;
#126689 = VERTEX_POINT ( 'NONE', #120733 ) ;
#127289 = CARTESIAN_POINT ( 'NONE',  ( 5.799999999999999822, 8.000000000000007105, -2.220446049250313081E-13 ) ) ;
#127652 = CARTESIAN_POINT ( 'NONE',  ( 5.799999999999999822, 8.000000000000007105, -2.220446049250313081E-13 ) ) ;
#127784 = ORIENTED_EDGE ( 'NONE', *, *, #23374, .F. ) ;
#127932 = CARTESIAN_POINT ( 'NONE',  ( 5.799999999999999822, 6.928203230275764568, -4.000000000000003553 ) ) ;
#128877 = AXIS2_PLACEMENT_3D ( 'NONE', #195202, #240399, #293263 ) ;
#129208 = FACE_OUTER_BOUND ( 'NONE', #147701, .T. ) ;
#129414 = CARTESIAN_POINT ( 'NONE',  ( 0.6008718182198059532, 9.040740517993016923, -0.3409780847894070543 ) ) ;
#130202 = CARTESIAN_POINT ( 'NONE',  ( 0.09751864807548447922, -6.100613836106558274, -5.433456124742634508 ) ) ;
#130474 = CARTESIAN_POINT ( 'NONE',  ( 0.000000000000000000, 6.928203230275764568, -4.000000000000003553 ) ) ;
#130518 = VERTEX_POINT ( 'NONE', #130474 ) ;
#130812 = ORIENTED_EDGE ( 'NONE', *, *, #58613, .F. ) ;
#131437 = DIRECTION ( 'NONE',  ( 1.000000000000000000, 0.000000000000000000, -0.000000000000000000 ) ) ;
#131578 = EDGE_LOOP ( 'NONE', ( #114953, #50666, #20020 ) ) ;
#131737 = CARTESIAN_POINT ( 'NONE',  ( 0.000000000000000000, -6.928203230274876390, -4.000000000000003553 ) ) ;
#131762 = FACE_OUTER_BOUND ( 'NONE', #271578, .T. ) ;
#132456 = CARTESIAN_POINT ( 'NONE',  ( 0.3298213600126188583, 8.469194241599007356, -1.330616086463351833 ) ) ;
#132651 = CIRCLE ( 'NONE', #83035, 8.000000000000015987 ) ;
#133334 = CARTESIAN_POINT ( 'NONE',  ( 6.400000000000003020, 4.440892098500626162E-13, -8.000000000000229150 ) ) ;
#133984 = CARTESIAN_POINT ( 'NONE',  ( 1.821120836596745729E-17, 7.123894648470762370, -3.661052521080651267 ) ) ;
#134294 = CARTESIAN_POINT ( 'NONE',  ( 0.01648371804644359340, 6.538411496652335231, 4.675297301957095364 ) ) ;
#135020 = B_SPLINE_CURVE_WITH_KNOTS ( 'NONE', 3,
 ( #158268, #253491, #39874, #230026, #16413, #206711, #301656, #117696, #212819, #72492, #67889, #282885, #114614, #95859, #187859, #196717, #78243 ),
 .UNSPECIFIED., .F., .F.,
 ( 4, 2, 2, 2, 2, 1, 2, 2, 4 ),
 ( 0.000000000000000000, 0.1250000000000000278, 0.1875000000000000555, 0.2500000000000000555, 0.3749999999999997780, 0.4374999999999997224, 0.4687500000000000555, 0.5000000000000003331, 1.000000000000000000 ),
 .UNSPECIFIED. ) ;
#135540 = CARTESIAN_POINT ( 'NONE',  ( 0.05769301316255270873, 7.564086657205461250, -2.898773784026939637 ) ) ;
#135645 = CARTESIAN_POINT ( 'NONE',  ( 96.40000000000000568, 4.440892098500626162E-13, -4.171999999999731479 ) ) ;
#135838 = CARTESIAN_POINT ( 'NONE',  ( 0.2236407599171056637, 5.668224563611446776, 6.182312130275773754 ) ) ;
#137184 = ORIENTED_EDGE ( 'NONE', *, *, #273129, .F. ) ;
#137416 = FACE_OUTER_BOUND ( 'NONE', #270954, .T. ) ;
#138209 = ( NAMED_UNIT ( * ) PLANE_ANGLE_UNIT ( ) SI_UNIT ( $, .RADIAN. ) );
#138427 = B_SPLINE_CURVE_WITH_KNOTS ( 'NONE', 3,
 ( #115980, #97210, #50437, #287335, #307623, #282716, #168901, #189236, #217213, #284258, #23954, #98751, #119043, #306070, #193847, #75435, #27012, #69246, #142431, #619 ),
 .UNSPECIFIED., .F., .F.,
 ( 4, 2, 2, 1, 1, 2, 2, 2, 2, 2, 4 ),
 ( 0.000000000000000000, 0.2499999999999996669, 0.3749999999999995004, 0.4374999999999994449, 0.4687499999999993894, 0.4843749999999995004, 0.4999999999999996669, 0.6249999999999997780, 0.6874999999999998890, 0.7499999999999998890, 1.000000000000000000 ),
 .UNSPECIFIED. ) ;
#138954 = DIRECTION ( 'NONE',  ( 1.000000000000000000, 0.000000000000000000, -0.000000000000000000 ) ) ;
#139254 = ORIENTED_EDGE ( 'NONE', *, *, #164453, .F. ) ;
#139327 = ADVANCED_FACE ( 'NONE', ( #1467 ), #229193, .T. ) ;
#139590 = VERTEX_POINT ( 'NONE', #282832 ) ;
#140383 = EDGE_CURVE ( 'NONE', #104317, #139590, #179836, .T. ) ;
#141610 = CARTESIAN_POINT ( 'NONE',  ( 0.000000000000000000, 0.000000000000000000, 0.000000000000000000 ) ) ;
#141910 = CARTESIAN_POINT ( 'NONE',  ( 5.799999999999999822, 9.237604307034130713, 1.110223024625156540E-13 ) ) ;
#142431 = CARTESIAN_POINT ( 'NONE',  ( -2.026196924604204257E-15, 0.3934062948617207400, -8.000000000000015987 ) ) ;
#142458 = DIRECTION ( 'NONE',  ( 0.000000000000000000, -0.8660254037844384856, 0.5000000000000003331 ) ) ;
#142832 = CARTESIAN_POINT ( 'NONE',  ( 0.04166689269957313257, 1.081248454124978053, 8.000000604544277749 ) ) ;
#143654 = ORIENTED_EDGE ( 'NONE', *, *, #97217, .T. ) ;
#143913 = ( GEOMETRIC_REPRESENTATION_CONTEXT ( 3 ) GLOBAL_UNCERTAINTY_ASSIGNED_CONTEXT ( ( #156974 ) ) GLOBAL_UNIT_ASSIGNED_CONTEXT ( ( #227156, #138209, #259809 ) ) REPRESENTATION_CONTEXT ( 'NONE', 'WORKASPACE' ) );
#143942 = CARTESIAN_POINT ( 'NONE',  ( 5.799999999999999822, 0.000000000000000000, 0.000000000000000000 ) ) ;
#144209 = CONICAL_SURFACE ( 'NONE', #273714, 8.000000000000015987, 1.047197551196598297 ) ;
#144830 = ORIENTED_EDGE ( 'NONE', *, *, #206944, .T. ) ;
#144857 = CARTESIAN_POINT ( 'NONE',  ( 0.1839785158312548519, -2.280815959772994450, -8.000000284561529895 ) ) ;
#145237 = CARTESIAN_POINT ( 'NONE',  ( 6.400000000000003020, 0.000000000000000000, 0.000000000000000000 ) ) ;
#145418 = CIRCLE ( 'NONE', #175243, 8.000000000000015987 ) ;
#145440 = ADVANCED_FACE ( 'NONE', ( #276692 ), #105343, .F. ) ;
#145878 = CARTESIAN_POINT ( 'NONE',  ( 0.1853395974438046545, 5.783505596340095423, -5.982675026847357636 ) ) ;
#145998 = CARTESIAN_POINT ( 'NONE',  ( 0.3136224075960795665, 8.469255963277408483, 1.330809320253376615 ) ) ;
#146434 = DIRECTION ( 'NONE',  ( 0.000000000000000000, -0.8660254037844390407, -0.4999999999999994449 ) ) ;
#146511 = DIRECTION ( 'NONE',  ( 0.000000000000000000, -1.000000000000000000, -1.276756478318928247E-15 ) ) ;
#147701 = EDGE_LOOP ( 'NONE', ( #34882, #206811, #12414 ) ) ;
#148099 = EDGE_CURVE ( 'NONE', #288384, #293714, #118530, .T. ) ;
#148311 = FACE_BOUND ( 'NONE', #126422, .T. ) ;
#148693 = DIRECTION ( 'NONE',  ( 0.000000000000000000, -1.276756478318927458E-15, -1.000000000000000000 ) ) ;
#148903 = CARTESIAN_POINT ( 'NONE',  ( 0.6005916396768518073, -4.224104008491806894, 8.000000000000017764 ) ) ;
#148986 = EDGE_CURVE ( 'NONE', #21665, #56032, #243398, .T. ) ;
#149162 = ORIENTED_EDGE ( 'NONE', *, *, #254840, .F. ) ;
#149370 = CARTESIAN_POINT ( 'NONE',  ( 0.7145311798163258565, -9.237604307033242534, 0.000000000000000000 ) ) ;
#149588 = AXIS2_PLACEMENT_3D ( 'NONE', #230656, #258714, #70065 ) ;
#149590 = CARTESIAN_POINT ( 'NONE',  ( 5.799999999999999822, -4.618802153516510245, -8.000000000000007105 ) ) ;
#150027 = EDGE_LOOP ( 'NONE', ( #154195, #269827, #280619, #61492 ) ) ;
#150182 = CARTESIAN_POINT ( 'NONE',  ( 0.7145311798161593231, -4.618802153516954334, -8.000000000000341061 ) ) ;
#150859 = EDGE_LOOP ( 'NONE', ( #8026, #275462, #200124, #98747 ) ) ;
#151135 = ORIENTED_EDGE ( 'NONE', *, *, #32452, .F. ) ;
#151210 = ORIENTED_EDGE ( 'NONE', *, *, #46885, .F. ) ;
#151456 = DIRECTION ( 'NONE',  ( 0.000000000000000000, 0.8660254037844384856, -0.5000000000000003331 ) ) ;
#151528 = DIRECTION ( 'NONE',  ( 0.000000000000000000, 1.276756478318927260E-15, 1.000000000000000000 ) ) ;
#151688 = CARTESIAN_POINT ( 'NONE',  ( 0.000000000000000000, 0.000000000000000000, 0.000000000000000000 ) ) ;
#151959 = CARTESIAN_POINT ( 'NONE',  ( 3.388131789017198275E-18, -6.732511812103632920, -4.338947478878932174 ) ) ;
#152444 = CARTESIAN_POINT ( 'NONE',  ( 96.40000000000000568, 4.440892098500626162E-13, -4.171999999999731479 ) ) ;
#152617 = CARTESIAN_POINT ( 'NONE',  ( 5.799999999999999822, 4.618802153517842513, 8.000000000000007105 ) ) ;
#152982 = FACE_OUTER_BOUND ( 'NONE', #203532, .T. ) ;
#153877 = EDGE_CURVE ( 'NONE', #63751, #139590, #285934, .T. ) ;
#153950 = CARTESIAN_POINT ( 'NONE',  ( 0.3700016058967514621, -8.563417064555308045, 1.167357659860290386 ) ) ;
#154070 = AXIS2_PLACEMENT_3D ( 'NONE', #209217, #138954, #20505 ) ;
#154195 = ORIENTED_EDGE ( 'NONE', *, *, #8400, .T. ) ;
#154398 = ADVANCED_FACE ( 'NONE', ( #123437 ), #100105, .T. ) ;
#154944 = AXIS2_PLACEMENT_3D ( 'NONE', #238389, #68581, #191628 ) ;
#155518 = EDGE_CURVE ( 'NONE', #31494, #34164, #221377, .T. ) ;
#156117 = DIRECTION ( 'NONE',  ( 0.000000000000000000, -1.276756478318927458E-15, -1.000000000000000000 ) ) ;
#156163 = CONICAL_SURFACE ( 'NONE', #250861, 8.000000000000015987, 1.047197551196598297 ) ;
#156164 = EDGE_CURVE ( 'NONE', #118542, #47711, #239471, .T. ) ;
#156297 = CARTESIAN_POINT ( 'NONE',  ( 0.02168592410850876326, -6.536872504579961607, 4.677731475189966126 ) ) ;
#156382 = VERTEX_POINT ( 'NONE', #28167 ) ;
#156486 = VECTOR ( 'NONE', #219372, 1000.000000000000000 ) ;
#156974 = UNCERTAINTY_MEASURE_WITH_UNIT (LENGTH_MEASURE( 1.000000000000000082E-05 ), #227156, 'distance_accuracy_value', 'NONE');
#156982 = EDGE_CURVE ( 'NONE', #130518, #18056, #175721, .T. ) ;
#157020 = VERTEX_POINT ( 'NONE', #125577 ) ;
#157681 = ORIENTED_EDGE ( 'NONE', *, *, #254840, .T. ) ;
#157690 = DIRECTION ( 'NONE',  ( 1.000000000000000000, 0.000000000000000000, -0.000000000000000000 ) ) ;
#157940 = EDGE_LOOP ( 'NONE', ( #200895, #35582, #79056 ) ) ;
#158073 = DIRECTION ( 'NONE',  ( 0.000000000000000000, 0.000000000000000000, 1.000000000000000000 ) ) ;
#158179 = DIRECTION ( 'NONE',  ( -1.000000000000000000, 0.000000000000000000, -0.000000000000000000 ) ) ;
#158268 = CARTESIAN_POINT ( 'NONE',  ( 0.000000000000000000, -6.928203230274876390, -4.000000000000003553 ) ) ;
#158545 = DIRECTION ( 'NONE',  ( 1.000000000000000000, 0.000000000000000000, -0.000000000000000000 ) ) ;
#159546 = CARTESIAN_POINT ( 'NONE',  ( 0.000000000000000000, 6.928203230275986613, 3.999999999999892530 ) ) ;
#160017 = AXIS2_PLACEMENT_3D ( 'NONE', #108122, #250033, #248480 ) ;
#160410 = ORIENTED_EDGE ( 'NONE', *, *, #25737, .T. ) ;
#160411 = AXIS2_PLACEMENT_3D ( 'NONE', #287138, #50237, #245043 ) ;
#161801 = EDGE_LOOP ( 'NONE', ( #21773, #28647, #99314, #233166, #57547, #78091 ) ) ;
#162260 = DIRECTION ( 'NONE',  ( 0.000000000000000000, 1.276756478318927260E-15, 1.000000000000000000 ) ) ;
#163385 = DIRECTION ( 'NONE',  ( 1.000000000000000000, 0.000000000000000000, -0.000000000000000000 ) ) ;
#163776 = CARTESIAN_POINT ( 'NONE',  ( 0.1332582558642645132, 5.955819576767705570, 5.684188884704666656 ) ) ;
#164453 = EDGE_CURVE ( 'NONE', #126689, #110638, #3585, .T. ) ;
#164565 = ORIENTED_EDGE ( 'NONE', *, *, #54055, .T. ) ;
#164704 = CARTESIAN_POINT ( 'NONE',  ( 0.1409747969270095658, 5.930406514117303907, -5.728188972959744163 ) ) ;
#165074 = DIRECTION ( 'NONE',  ( 1.000000000000000000, 0.000000000000000000, -0.000000000000000000 ) ) ;
#166325 = VERTEX_POINT ( 'NONE', #281170 ) ;
#166662 = ORIENTED_EDGE ( 'NONE', *, *, #23374, .T. ) ;
#167042 = ORIENTED_EDGE ( 'NONE', *, *, #25737, .F. ) ;
#167074 = ORIENTED_EDGE ( 'NONE', *, *, #9520, .T. ) ;
#167763 = CARTESIAN_POINT ( 'NONE',  ( 0.03407788074194508660, 6.438911517913341598, -4.847451021254506998 ) ) ;
#168192 = CARTESIAN_POINT ( 'NONE',  ( 5.799999999999999822, 9.237604307034130713, 1.110223024625156540E-13 ) ) ;
#168247 = CARTESIAN_POINT ( 'NONE',  ( 0.1613112362190399218, -2.133236741161327998, -7.999996630176517520 ) ) ;
#168760 = CIRCLE ( 'NONE', #74219, 8.000000000000015987 ) ;
#168901 = CARTESIAN_POINT ( 'NONE',  ( 0.2499896994296218478, 2.670172452294492960, -7.999955129194467496 ) ) ;
#169367 = EDGE_CURVE ( 'NONE', #29691, #66972, #15751, .T. ) ;
#169426 = CARTESIAN_POINT ( 'NONE',  ( 0.1773318443555699231, 8.047457722908024635, 2.061390006737257696 ) ) ;
#169433 = DIRECTION ( 'NONE',  ( 0.000000000000000000, 1.276756478318927260E-15, 1.000000000000000000 ) ) ;
#169504 = CARTESIAN_POINT ( 'NONE',  ( 5.799999999999999822, 4.618802153517842513, 8.000000000000007105 ) ) ;
#169755 = CARTESIAN_POINT ( 'NONE',  ( 96.40000000000000568, 0.000000000000000000, 0.000000000000000000 ) ) ;
#169788 = CARTESIAN_POINT ( 'NONE',  ( 0.06511772444160508766, -1.361038875350804034, -8.000080858706054343 ) ) ;
#169832 = DIRECTION ( 'NONE',  ( 0.000000000000000000, -1.276756478318927458E-15, -1.000000000000000000 ) ) ;
#169877 = EDGE_CURVE ( 'NONE', #293714, #20552, #135020, .T. ) ;
#170245 = DIRECTION ( 'NONE',  ( 0.000000000000000000, 1.000000000000000000, 1.054711873393897333E-15 ) ) ;
#170463 = CARTESIAN_POINT ( 'NONE',  ( 6.400000000000003020, 4.618802153517620468, -8.000000000000117240 ) ) ;
#170631 = ADVANCED_FACE ( 'NONE', ( #7287 ), #197523, .T. ) ;
#170817 = CARTESIAN_POINT ( 'NONE',  ( 0.3290501039939233152, -3.078563618264075874, 7.999843505920218867 ) ) ;
#171464 = ADVANCED_FACE ( 'NONE', ( #51383 ), #221247, .F. ) ;
#171465 = ORIENTED_EDGE ( 'NONE', *, *, #178134, .F. ) ;
#171652 = AXIS2_PLACEMENT_3D ( 'NONE', #248737, #38214, #181577 ) ;
#171880 = CIRCLE ( 'NONE', #17669, 8.000000000000015987 ) ;
#171891 = CARTESIAN_POINT ( 'NONE',  ( 0.000000000000000000, 0.000000000000000000, 0.000000000000000000 ) ) ;
#172166 = EDGE_CURVE ( 'NONE', #254194, #104317, #55879, .T. ) ;
#172804 = DIRECTION ( 'NONE',  ( -1.000000000000000000, 0.000000000000000000, 0.000000000000000000 ) ) ;
#172911 = DIRECTION ( 'NONE',  ( 0.000000000000000000, 1.000000000000000000, 1.054711873393897333E-15 ) ) ;
#173469 = CIRCLE ( 'NONE', #273205, 5.000000000000010658 ) ;
#173486 = CARTESIAN_POINT ( 'NONE',  ( 5.799999999999999822, 1.110223024625156540E-12, 8.000000000000007105 ) ) ;
#173690 = CARTESIAN_POINT ( 'NONE',  ( 5.799999999999999822, -6.928203230274876390, -4.000000000000003553 ) ) ;
#174447 = DIRECTION ( 'NONE',  ( 0.000000000000000000, -1.276756478318927458E-15, -1.000000000000000000 ) ) ;
#175218 = DIRECTION ( 'NONE',  ( 1.000000000000000000, 0.000000000000000000, -0.000000000000000000 ) ) ;
#175243 = AXIS2_PLACEMENT_3D ( 'NONE', #95102, #74829, #169832 ) ;
#175400 = CARTESIAN_POINT ( 'NONE',  ( 0.06657008988975232633, -6.245225456407181852, -5.183076935808935026 ) ) ;
#175590 = AXIS2_PLACEMENT_3D ( 'NONE', #111042, #56958, #242561 ) ;
#175721 = B_SPLINE_CURVE_WITH_KNOTS ( 'NONE', 3,
 ( #44700, #216096, #93024, #188087, #189661, #167763, #283142, #237921, #69684, #50827, #164704, #287729, #24370, #145878, #72737, #259848, #241014 ),
 .UNSPECIFIED., .F., .F.,
 ( 4, 2, 2, 2, 2, 1, 2, 2, 4 ),
 ( 0.000000000000000000, 0.1249999999999997224, 0.1874999999999997224, 0.2499999999999997224, 0.3749999999999997224, 0.4374999999999993339, 0.4687499999999993894, 0.4999999999999994449, 1.000000000000000000 ),
 .UNSPECIFIED. ) ;
#175836 = CARTESIAN_POINT ( 'NONE',  ( 0.1332582558699958175, -7.900561762466218774, 2.315796611455708920 ) ) ;
#176108 = ORIENTED_EDGE ( 'NONE', *, *, #230242, .F. ) ;
#176598 = CARTESIAN_POINT ( 'NONE',  ( 0.000000000000000000, 0.000000000000000000, 0.000000000000000000 ) ) ;
#176697 = LINE ( 'NONE', #223509, #63730 ) ;
#178051 = CARTESIAN_POINT ( 'NONE',  ( 0.000000000000000000, 4.440892098500626162E-13, -8.000000000000229150 ) ) ;
#178134 = EDGE_CURVE ( 'NONE', #34164, #157020, #289414, .T. ) ;
#178259 = CARTESIAN_POINT ( 'NONE',  ( 5.799999999999999822, 4.618802153517620468, -8.000000000000117240 ) ) ;
#178438 = CARTESIAN_POINT ( 'NONE',  ( 0.05769301316255270873, -6.292455065387101421, -5.101304309562606498 ) ) ;
#178687 = PRODUCT_DEFINITION ( 'UNKNOWN', '', #121719, #97614 ) ;
#178828 = EDGE_LOOP ( 'NONE', ( #185663, #19820, #197665, #229268, #139254, #86453 ) ) ;
#179370 = VECTOR ( 'NONE', #296088, 1000.000000000000000 ) ;
#179715 = CARTESIAN_POINT ( 'NONE',  ( 0.1409747969231485709, -5.930406514124955564, 5.728188972942301227 ) ) ;
#179836 = B_SPLINE_CURVE_WITH_KNOTS ( 'NONE', 3,
 ( #191300, #214729, #1143, #72861, #286323, #262989, #26030, #121096, #216223, #2672, #192819, #97744, #169426, #264547, #145998, #58617, #57087 ),
 .UNSPECIFIED., .F., .F.,
 ( 4, 2, 2, 2, 2, 1, 2, 2, 4 ),
 ( 0.000000000000000000, 0.1250000000000001943, 0.1875000000000002776, 0.2500000000000003886, 0.3750000000000003331, 0.4375000000000004441, 0.4687500000000004996, 0.5000000000000005551, 1.000000000000000000 ),
 .UNSPECIFIED. ) ;
#179939 = DIRECTION ( 'NONE',  ( 1.000000000000000000, 0.000000000000000000, 0.000000000000000000 ) ) ;
#180004 = ADVANCED_FACE ( 'NONE', ( #279447 ), #156163, .T. ) ;
#180005 = CARTESIAN_POINT ( 'NONE',  ( 0.1609175007319285644, -5.859071812437291804, -5.851787570063412325 ) ) ;
#180073 = EDGE_CURVE ( 'NONE', #288384, #98879, #298761, .T. ) ;
#180550 = DIRECTION ( 'NONE',  ( 0.000000000000000000, -1.276756478318927260E-15, -1.000000000000000000 ) ) ;
#180651 = ORIENTED_EDGE ( 'NONE', *, *, #97161, .T. ) ;
#181044 = CARTESIAN_POINT ( 'NONE',  ( 0.09751864807843943495, 6.100613836110206023, 5.433456124746236071 ) ) ;
#181414 = B_SPLINE_CURVE_WITH_KNOTS ( 'NONE', 3,
 ( #10927, #129414, #12443, #202711, #132456, #278946, #201185, #106019, #227547, #87238, #38947, #296129, #63871, #299215, #205781, #135540, #15524, #133984, #182284 ),
 .UNSPECIFIED., .F., .F.,
 ( 4, 2, 2, 1, 2, 2, 2, 2, 2, 4 ),
 ( 0.000000000000000000, 0.2499999999999986677, 0.3749999999999979461, 0.4374999999999978906, 0.4687499999999978351, 0.4999999999999977796, 0.6249999999999978906, 0.6874999999999982236, 0.7499999999999985567, 1.000000000000000000 ),
 .UNSPECIFIED. ) ;
#181546 = CARTESIAN_POINT ( 'NONE',  ( 0.2236407599202607233, -5.668224563608869282, -6.182312130285564145 ) ) ;
#181577 = DIRECTION ( 'NONE',  ( 0.000000000000000000, 1.000000000000000000, 1.054711873393897333E-15 ) ) ;
#181669 = EDGE_CURVE ( 'NONE', #33479, #18056, #30012, .T. ) ;
#181771 = VECTOR ( 'NONE', #273403, 1000.000000000000000 ) ;
#182284 = CARTESIAN_POINT ( 'NONE',  ( 0.000000000000000000, 6.928203230275764568, -4.000000000000003553 ) ) ;
#182778 = CARTESIAN_POINT ( 'NONE',  ( 0.000000000000000000, 0.000000000000000000, 0.000000000000000000 ) ) ;
#182792 = CARTESIAN_POINT ( 'NONE',  ( 0.3136224075823543234, -5.387142660581625719, 6.669186155181550113 ) ) ;
#184143 = DIRECTION ( 'NONE',  ( 0.000000000000000000, 1.276756478318927458E-15, 1.000000000000000000 ) ) ;
#184155 = CARTESIAN_POINT ( 'NONE',  ( 0.000000000000000000, 6.928203230275986613, 3.999999999999892530 ) ) ;
#184170 = AXIS2_PLACEMENT_3D ( 'NONE', #176598, #271723, #58184 ) ;
#185040 = AXIS2_PLACEMENT_3D ( 'NONE', #171891, #266977, #151528 ) ;
#185201 = CARTESIAN_POINT ( 'NONE',  ( 95.57200000000000273, 0.000000000000000000, 0.000000000000000000 ) ) ;
#185663 = ORIENTED_EDGE ( 'NONE', *, *, #116352, .F. ) ;
#185716 = FACE_OUTER_BOUND ( 'NONE', #70389, .T. ) ;
#186698 = EDGE_CURVE ( 'NONE', #157020, #191195, #78978, .T. ) ;
#186894 = LINE ( 'NONE', #252521, #84725 ) ;
#187001 = EDGE_LOOP ( 'NONE', ( #249823, #164565, #274859 ) ) ;
#187368 = VECTOR ( 'NONE', #107421, 1000.000000000000000 ) ;
#187753 = EDGE_LOOP ( 'NONE', ( #10773, #36155, #144830 ) ) ;
#187859 = CARTESIAN_POINT ( 'NONE',  ( 0.3136224075873092487, -8.469255963257021236, -1.330809320272837271 ) ) ;
#187925 = DIRECTION ( 'NONE',  ( -1.000000000000000000, 0.000000000000000000, 0.000000000000000000 ) ) ;
#188087 = CARTESIAN_POINT ( 'NONE',  ( 0.01652260884457943182, 6.585767604416076892, -4.593024887247138643 ) ) ;
#189236 = CARTESIAN_POINT ( 'NONE',  ( 0.2214249512778516393, 2.507397943468176127, -7.999987621118156866 ) ) ;
#189647 = CARTESIAN_POINT ( 'NONE',  ( 0.7145311798163189732, 4.618802153517842513, 8.000000000000007105 ) ) ;
#189661 = CARTESIAN_POINT ( 'NONE',  ( 0.02168592410851050492, 6.536872504562603936, -4.677731475214118362 ) ) ;
#189921 = CARTESIAN_POINT ( 'NONE',  ( 5.799999999999999822, 4.440892098500626162E-13, -8.000000000000229150 ) ) ;
#191160 = CARTESIAN_POINT ( 'NONE',  ( 0.06612247817232932978, 1.371986355381746181, 7.999998790911483582 ) ) ;
#191195 = VERTEX_POINT ( 'NONE', #173690 ) ;
#191300 = CARTESIAN_POINT ( 'NONE',  ( 0.000000000000000000, 6.928203230275986613, 3.999999999999892530 ) ) ;
#191628 = DIRECTION ( 'NONE',  ( 0.000000000000000000, 1.276756478318927260E-15, 1.000000000000000000 ) ) ;
#191745 = CARTESIAN_POINT ( 'NONE',  ( 6.400000000000003020, 9.237604307034130713, 1.110223024625156540E-13 ) ) ;
#192685 = CARTESIAN_POINT ( 'NONE',  ( 0.01634447135472655299, -0.7763673337026054666, 8.000084165104119904 ) ) ;
#192819 = CARTESIAN_POINT ( 'NONE',  ( 0.1409747969348727481, 7.925960425350726091, 2.271788209454594032 ) ) ;
#192828 = DIRECTION ( 'NONE',  ( -1.000000000000000000, 0.000000000000000000, 0.000000000000000000 ) ) ;
#193081 = AXIS2_PLACEMENT_3D ( 'NONE', #151688, #246871, #80110 ) ;
#193184 = CARTESIAN_POINT ( 'NONE',  ( 0.3123074303687322084, -3.076458288181876721, -7.999995447015746386 ) ) ;
#193380 = VECTOR ( 'NONE', #33302, 1000.000000000000000 ) ;
#193589 = DIRECTION ( 'NONE',  ( 0.000000000000000000, -1.276756478318927260E-15, -1.000000000000000000 ) ) ;
#193783 = DIRECTION ( 'NONE',  ( -1.000000000000000000, 0.000000000000000000, 0.000000000000000000 ) ) ;
#193847 = CARTESIAN_POINT ( 'NONE',  ( 0.08729231605195877930, 1.565724573979590417, -7.999972746951614866 ) ) ;
#195202 = CARTESIAN_POINT ( 'NONE',  ( 0.000000000000000000, 0.000000000000000000, 0.000000000000000000 ) ) ;
#196717 = CARTESIAN_POINT ( 'NONE',  ( 0.4875042524931634813, -8.844382134224069603, -0.6810807819692782372 ) ) ;
#196728 = VERTEX_POINT ( 'NONE', #25922 ) ;
#197309 = EDGE_CURVE ( 'NONE', #20552, #288384, #241281, .T. ) ;
#197334 = CARTESIAN_POINT ( 'NONE',  ( 0.5000382109155707688, -3.838272961142918938, 7.999827205203697389 ) ) ;
#197523 = PLANE ( 'NONE',  #215261 ) ;
#197665 = ORIENTED_EDGE ( 'NONE', *, *, #140383, .F. ) ;
#197791 = CARTESIAN_POINT ( 'NONE',  ( 0.000000000000000000, -6.928203230275320479, 3.999999999999781508 ) ) ;
#197825 = SHAPE_REPRESENTATION_RELATIONSHIP ( 'NONE' , 'NONE' ,  #239563, #228106 ) ;
#197883 = DIRECTION ( 'NONE',  ( -1.000000000000000000, 0.000000000000000000, 0.000000000000000000 ) ) ;
#198134 = CARTESIAN_POINT ( 'NONE',  ( 6.400000000000003020, -4.618802153516510245, -8.000000000000007105 ) ) ;
#198314 = EDGE_LOOP ( 'NONE', ( #160410, #305533, #9101 ) ) ;
#198882 = CARTESIAN_POINT ( 'NONE',  ( 0.2473011951801012687, -2.655476249323490023, 7.999953343285032936 ) ) ;
#199469 = DIRECTION ( 'NONE',  ( 0.000000000000000000, 1.000000000000000000, 1.054711873393897333E-15 ) ) ;
#199852 = CONICAL_SURFACE ( 'NONE', #154944, 4.172000000000009479, 0.7853981633974348453 ) ;
#200124 = ORIENTED_EDGE ( 'NONE', *, *, #227652, .T. ) ;
#200307 = APPLICATION_CONTEXT ( 'automotive_design' ) ;
#200895 = ORIENTED_EDGE ( 'NONE', *, *, #178134, .T. ) ;
#201185 = CARTESIAN_POINT ( 'NONE',  ( 0.2481567600656023886, 8.258243759352458468, -1.696210065033539216 ) ) ;
#202711 = CARTESIAN_POINT ( 'NONE',  ( 0.3700016059103136135, 8.563417064583724425, -1.167357659825762006 ) ) ;
#202764 = DIRECTION ( 'NONE',  ( -1.000000000000000000, 0.000000000000000000, 0.000000000000000000 ) ) ;
#203211 = CARTESIAN_POINT ( 'NONE',  ( 0.04147603413362353081, -6.388835456634614829, 4.934213583083845833 ) ) ;
#203532 = EDGE_LOOP ( 'NONE', ( #206017, #166662, #248136, #12455, #36263, #171465 ) ) ;
#203534 = PLANE ( 'NONE',  #171652 ) ;
#204556 = SHAPE_DEFINITION_REPRESENTATION ( #245845, #239563 ) ;
#205029 = CARTESIAN_POINT ( 'NONE',  ( 0.3700016059070452834, -5.292669921007134626, -6.832457891207678990 ) ) ;
#205504 = VECTOR ( 'NONE', #75924, 1000.000000000000000 ) ;
#205563 = AXIS2_PLACEMENT_3D ( 'NONE', #127652, #9174, #199469 ) ;
#205708 = AXIS2_PLACEMENT_3D ( 'NONE', #230848, #283735, #93604 ) ;
#205781 = CARTESIAN_POINT ( 'NONE',  ( 0.06657008989361502815, 7.611289024398537606, -2.816985429683880326 ) ) ;
#206017 = ORIENTED_EDGE ( 'NONE', *, *, #155518, .F. ) ;
#206073 = EDGE_CURVE ( 'NONE', #18056, #29691, #138427, .T. ) ;
#206290 = CARTESIAN_POINT ( 'NONE',  ( 0.01652260884457810997, -6.585767604434614952, 4.593024887220556352 ) ) ;
#206562 = VECTOR ( 'NONE', #76816, 1000.000000000000000 ) ;
#206575 = CARTESIAN_POINT ( 'NONE',  ( 0.3298213600096211451, -5.386944454364203771, -6.669229319568642289 ) ) ;
#206711 = CARTESIAN_POINT ( 'NONE',  ( 0.03407788074194783440, -7.417471486964497984, -3.152535436604499974 ) ) ;
#206811 = ORIENTED_EDGE ( 'NONE', *, *, #206073, .T. ) ;
#206944 = EDGE_CURVE ( 'NONE', #130518, #104317, #53090, .T. ) ;
#208837 = CARTESIAN_POINT ( 'NONE',  ( 5.799999999999999822, -6.928203230275320479, 3.999999999999781508 ) ) ;
#209150 = CARTESIAN_POINT ( 'NONE',  ( 0.2481567600586815359, 5.598082886156197091, 6.303743853705220168 ) ) ;
#209217 = CARTESIAN_POINT ( 'NONE',  ( 0.000000000000000000, 9.237604307034130713, 1.110223024625156540E-13 ) ) ;
#209792 = AXIS2_PLACEMENT_3D ( 'NONE', #230079, #276854, #187925 ) ;
#210665 = CARTESIAN_POINT ( 'NONE',  ( 0.1609175007339035124, 5.859071812439487381, 5.851787570066050215 ) ) ;
#210737 = VECTOR ( 'NONE', #48314, 1000.000000000000114 ) ;
#210870 = DIRECTION ( 'NONE',  ( -1.000000000000000000, 0.000000000000000000, 0.000000000000000000 ) ) ;
#212778 = CARTESIAN_POINT ( 'NONE',  ( 5.799999999999999822, 4.618802153517620468, -8.000000000000117240 ) ) ;
#212819 = CARTESIAN_POINT ( 'NONE',  ( 0.08578635528790229392, -7.708497105767597724, -2.648422811562076262 ) ) ;
#213046 = CARTESIAN_POINT ( 'NONE',  ( 0.1224352671412464594, 1.856749978041438043, 7.999966545735886392 ) ) ;
#214706 = CIRCLE ( 'NONE', #100308, 8.000000000000015987 ) ;
#214729 = CARTESIAN_POINT ( 'NONE',  ( -0.000000000000000000, 7.026296368248812207, 3.830097701156409240 ) ) ;
#214925 = ADVANCED_FACE ( 'NONE', ( #45467 ), #288529, .F. ) ;
#215261 = AXIS2_PLACEMENT_3D ( 'NONE', #127289, #222387, #8823 ) ;
#215517 = ORIENTED_EDGE ( 'NONE', *, *, #252453, .T. ) ;
#215673 = DIRECTION ( 'NONE',  ( -1.000000000000000000, 0.000000000000000000, 0.000000000000000000 ) ) ;
#216096 = CARTESIAN_POINT ( 'NONE',  ( 0.000000000000000000, 6.830110092312996706, -4.169902298824967879 ) ) ;
#216223 = CARTESIAN_POINT ( 'NONE',  ( 0.08578635529455017061, 7.708497105794554827, 2.648422811519065778 ) ) ;
#216231 = CARTESIAN_POINT ( 'NONE',  ( 96.40000000000000568, 0.000000000000000000, 0.000000000000000000 ) ) ;
#216754 = ORIENTED_EDGE ( 'NONE', *, *, #169877, .T. ) ;
#217213 = CARTESIAN_POINT ( 'NONE',  ( 0.2096462019074165350, 2.437684487718177806, -7.999995604221384227 ) ) ;
#217387 = AXIS2_PLACEMENT_3D ( 'NONE', #280772, #67267, #162260 ) ;
#218776 = PLANE ( 'NONE',  #25819 ) ;
#219372 = DIRECTION ( 'NONE',  ( 0.000000000000000000, -1.000000000000000000, -1.276756478318928247E-15 ) ) ;
#220258 = ORIENTED_EDGE ( 'NONE', *, *, #156164, .F. ) ;
#220296 = ORIENTED_EDGE ( 'NONE', *, *, #97161, .F. ) ;
#221247 = PLANE ( 'NONE',  #289721 ) ;
#221297 = EDGE_CURVE ( 'NONE', #94437, #47711, #233199, .T. ) ;
#221377 = LINE ( 'NONE', #297614, #179370 ) ;
#221675 = PLANE ( 'NONE',  #149588 ) ;
#222387 = DIRECTION ( 'NONE',  ( 1.000000000000000000, 0.000000000000000000, -0.000000000000000000 ) ) ;
#223090 = EDGE_CURVE ( 'NONE', #232975, #196728, #132651, .T. ) ;
#223384 = ORIENTED_EDGE ( 'NONE', *, *, #234668, .F. ) ;
#223509 = CARTESIAN_POINT ( 'NONE',  ( 96.40000000000000568, 6.661338147750939243E-13, 4.171999999999953523 ) ) ;
#224205 = CARTESIAN_POINT ( 'NONE',  ( 0.1609175007377238176, -7.997332599458769842, 2.148211247116437406 ) ) ;
#224818 = CARTESIAN_POINT ( 'NONE',  ( 0.000000000000000000, 0.000000000000000000, 0.000000000000000000 ) ) ;
#226587 = ORIENTED_EDGE ( 'NONE', *, *, #280586, .T. ) ;
#227067 = ORIENTED_EDGE ( 'NONE', *, *, #111842, .T. ) ;
#227156 = ( LENGTH_UNIT ( ) NAMED_UNIT ( * ) SI_UNIT ( .MILLI., .METRE. ) );
#227205 = DIRECTION ( 'NONE',  ( 0.000000000000000000, -1.276756478318927458E-15, -1.000000000000000000 ) ) ;
#227253 = CARTESIAN_POINT ( 'NONE',  ( 0.08656365540818938831, -7.707636620908614233, 2.650043066338310549 ) ) ;
#227299 = VECTOR ( 'NONE', #74404, 1000.000000000000000 ) ;
#227547 = CARTESIAN_POINT ( 'NONE',  ( 0.2077129956975662384, 8.141439350966622968, -1.898605704564299890 ) ) ;
#227652 = EDGE_CURVE ( 'NONE', #56032, #247269, #176697, .T. ) ;
#228031 = FACE_OUTER_BOUND ( 'NONE', #187001, .T. ) ;
#228106 = ADVANCED_BREP_SHAPE_REPRESENTATION ( '', ( #86819, #267245 ), #143913 ) ;
#228153 = CARTESIAN_POINT ( 'NONE',  ( 0.000000000000000000, -6.928203230274876390, -4.000000000000003553 ) ) ;
#228516 = ORIENTED_EDGE ( 'NONE', *, *, #124206, .F. ) ;
#229193 = CONICAL_SURFACE ( 'NONE', #40047, 4.172000000000009479, 0.7853981633974348453 ) ;
#229268 = ORIENTED_EDGE ( 'NONE', *, *, #54055, .F. ) ;
#229878 = CARTESIAN_POINT ( 'NONE',  ( 0.6008718182176358003, -4.815665942561784263, -7.659021915203935826 ) ) ;
#230026 = CARTESIAN_POINT ( 'NONE',  ( 0.01652260884458076409, -7.270560034779343539, -3.406929605218941504 ) ) ;
#230079 = CARTESIAN_POINT ( 'NONE',  ( 6.400000000000003020, 4.618802153517842513, 8.000000000000007105 ) ) ;
#230242 = EDGE_CURVE ( 'NONE', #118542, #63751, #79119, .T. ) ;
#230656 = CARTESIAN_POINT ( 'NONE',  ( 5.799999999999999822, 8.000000000000007105, -2.220446049250313081E-13 ) ) ;
#230848 = CARTESIAN_POINT ( 'NONE',  ( 0.000000000000000000, 0.000000000000000000, 0.000000000000000000 ) ) ;
#230924 = CARTESIAN_POINT ( 'NONE',  ( 0.06657008989147540634, 6.245225456409388975, 5.183076935810953856 ) ) ;
#231071 = ORIENTED_EDGE ( 'NONE', *, *, #52157, .T. ) ;
#231853 = CIRCLE ( 'NONE', #122320, 8.000000000000015987 ) ;
#232822 = ADVANCED_FACE ( 'NONE', ( #242195 ), #218776, .F. ) ;
#232975 = VERTEX_POINT ( 'NONE', #173486 ) ;
#233166 = ORIENTED_EDGE ( 'NONE', *, *, #206073, .F. ) ;
#233199 = LINE ( 'NONE', #255131, #116895 ) ;
#234002 = CARTESIAN_POINT ( 'NONE',  ( 0.6008718182107627426, 4.815665942573536640, 7.659021915183418017 ) ) ;
#234069 = ORIENTED_EDGE ( 'NONE', *, *, #8400, .F. ) ;
#234267 = CARTESIAN_POINT ( 'NONE',  ( 5.799999999999999822, 4.618802153517620468, -8.000000000000117240 ) ) ;
#234305 = ORIENTED_EDGE ( 'NONE', *, *, #148099, .T. ) ;
#234389 = VECTOR ( 'NONE', #77587, 1000.000000000000000 ) ;
#234668 = EDGE_CURVE ( 'NONE', #126689, #232975, #51470, .T. ) ;
#235902 = DIRECTION ( 'NONE',  ( 0.000000000000000000, 0.4999999999999989453, -0.8660254037844392627 ) ) ;
#235997 = DIRECTION ( 'NONE',  ( -1.000000000000000000, 0.000000000000000000, 0.000000000000000000 ) ) ;
#236416 = ORIENTED_EDGE ( 'NONE', *, *, #148099, .F. ) ;
#236761 = DIRECTION ( 'NONE',  ( 0.000000000000000000, 1.000000000000000000, 1.054711873393897333E-15 ) ) ;
#237552 = CARTESIAN_POINT ( 'NONE',  ( 5.799999999999999822, 0.000000000000000000, 0.000000000000000000 ) ) ;
#237921 = CARTESIAN_POINT ( 'NONE',  ( 0.06575141133689881012, 6.244177214886854621, -5.184765422013273728 ) ) ;
#238389 = CARTESIAN_POINT ( 'NONE',  ( 96.40000000000000568, 0.000000000000000000, 0.000000000000000000 ) ) ;
#238536 = FACE_OUTER_BOUND ( 'NONE', #282905, .T. ) ;
#238736 = ORIENTED_EDGE ( 'NONE', *, *, #156164, .T. ) ;
#239471 = CIRCLE ( 'NONE', #105091, 8.000000000000015987 ) ;
#239476 = CARTESIAN_POINT ( 'NONE',  ( 0.01660625150794173624, 0.6865290972479629605, 7.999954036741201868 ) ) ;
#239563 = SHAPE_REPRESENTATION ( '\X2\0411043e043b0442\X0\ \X2\041c\X0\10\X2\0445\X0\90 DIN 933', ( #267245 ), #143913 ) ;
#240399 = DIRECTION ( 'NONE',  ( -1.000000000000000000, 0.000000000000000000, 0.000000000000000000 ) ) ;
#241001 = CARTESIAN_POINT ( 'NONE',  ( 0.03425039373512983598, 0.9810431738813619740, 7.999986322312749643 ) ) ;
#241014 = CARTESIAN_POINT ( 'NONE',  ( 0.7145311798163189732, 4.618802153517620468, -8.000000000000117240 ) ) ;
#241146 = CARTESIAN_POINT ( 'NONE',  ( 6.400000000000003020, -4.618802153516954334, 8.000000000000007105 ) ) ;
#241281 = B_SPLINE_CURVE_WITH_KNOTS ( 'NONE', 3,
 ( #149370, #272489, #60474, #153950, #32486, #34026, #294321, #80822, #249167, #30947, #224205, #175836, #274036, #227253, #247596, #270947, #102642, #297363, #197791 ),
 .UNSPECIFIED., .F., .F.,
 ( 4, 2, 2, 1, 2, 2, 2, 2, 2, 4 ),
 ( 0.000000000000000000, 0.2500000000000006106, 0.3750000000000008882, 0.4375000000000010547, 0.4687500000000011657, 0.5000000000000012212, 0.6250000000000013323, 0.6875000000000012212, 0.7500000000000011102, 1.000000000000000000 ),
 .UNSPECIFIED. ) ;
#241303 = AXIS2_PLACEMENT_3D ( 'NONE', #90510, #282177, #23414 ) ;
#241614 = DIRECTION ( 'NONE',  ( 1.000000000000000000, 0.000000000000000000, -0.000000000000000000 ) ) ;
#242195 = FACE_OUTER_BOUND ( 'NONE', #305908, .T. ) ;
#242553 = CARTESIAN_POINT ( 'NONE',  ( 0.1601176702420272768, -2.132886284420862033, 7.999998816860950157 ) ) ;
#242556 = CARTESIAN_POINT ( 'NONE',  ( -1.429368098491631822E-18, 0.1966864446776748487, 8.000000000000019540 ) ) ;
#242561 = DIRECTION ( 'NONE',  ( 0.000000000000000000, -1.276756478318927458E-15, -1.000000000000000000 ) ) ;
#242984 = AXIS2_PLACEMENT_3D ( 'NONE', #297924, #151456, #33054 ) ;
#243201 = CARTESIAN_POINT ( 'NONE',  ( 0.7145311798163189732, 4.618802153517620468, -8.000000000000117240 ) ) ;
#243398 = CIRCLE ( 'NONE', #308284, 4.172000000000009479 ) ;
#243797 = CARTESIAN_POINT ( 'NONE',  ( 5.799999999999999822, 4.618802153517620468, -8.000000000000117240 ) ) ;
#245043 = DIRECTION ( 'NONE',  ( 0.000000000000000000, 1.276756478318927458E-15, 1.000000000000000000 ) ) ;
#245317 = CONICAL_SURFACE ( 'NONE', #175590, 8.000000000000015987, 1.047197551196598297 ) ;
#245845 = PRODUCT_DEFINITION_SHAPE ( 'NONE', 'NONE',  #178687 ) ;
#246871 = DIRECTION ( 'NONE',  ( 1.000000000000000000, 0.000000000000000000, -0.000000000000000000 ) ) ;
#247269 = VERTEX_POINT ( 'NONE', #301104 ) ;
#247596 = CARTESIAN_POINT ( 'NONE',  ( 0.06657008989481653927, -7.611289024398375958, 2.816985429690244569 ) ) ;
#247604 = ADVANCED_FACE ( 'NONE', ( #272800 ), #18599, .T. ) ;
#247629 = DIRECTION ( 'NONE',  ( -0.7071067811865563435, -8.049116928532378016E-16, -0.7071067811865388020 ) ) ;
#248136 = ORIENTED_EDGE ( 'NONE', *, *, #180073, .F. ) ;
#248480 = DIRECTION ( 'NONE',  ( 0.000000000000000000, 1.276756478318927458E-15, 1.000000000000000000 ) ) ;
#248737 = CARTESIAN_POINT ( 'NONE',  ( 5.799999999999999822, 8.000000000000007105, -2.220446049250313081E-13 ) ) ;
#249167 = CARTESIAN_POINT ( 'NONE',  ( 0.2077129956953748802, -8.141439350961571009, 1.898605704569198194 ) ) ;
#249282 = CARTESIAN_POINT ( 'NONE',  ( 0.000000000000000000, 0.000000000000000000, 0.000000000000000000 ) ) ;
#249823 = ORIENTED_EDGE ( 'NONE', *, *, #92550, .T. ) ;
#249840 = AXIS2_PLACEMENT_3D ( 'NONE', #76739, #23777, #170245 ) ;
#250033 = DIRECTION ( 'NONE',  ( -1.000000000000000000, 0.000000000000000000, 0.000000000000000000 ) ) ;
#250177 = CARTESIAN_POINT ( 'NONE',  ( 0.000000000000000000, 0.000000000000000000, 0.000000000000000000 ) ) ;
#250861 = AXIS2_PLACEMENT_3D ( 'NONE', #302760, #131437, #14482 ) ;
#251503 = CARTESIAN_POINT ( 'NONE',  ( 0.7145311798163189732, -4.618802153516954334, 8.000000000000007105 ) ) ;
#252161 = ADVANCED_FACE ( 'NONE', ( #137416 ), #114032, .F. ) ;
#252453 = EDGE_CURVE ( 'NONE', #72798, #232975, #186894, .T. ) ;
#252521 = CARTESIAN_POINT ( 'NONE',  ( 0.000000000000000000, 1.110223024625156540E-12, 8.000000000000007105 ) ) ;
#253395 = DIRECTION ( 'NONE',  ( -0.000000000000000000, 1.276756478318927458E-15, 1.000000000000000000 ) ) ;
#253491 = CARTESIAN_POINT ( 'NONE',  ( -0.000000000000000000, -7.026296368238924117, -3.830097701173534652 ) ) ;
#254194 = VERTEX_POINT ( 'NONE', #12193 ) ;
#254413 = FACE_OUTER_BOUND ( 'NONE', #39953, .T. ) ;
#254485 = ORIENTED_EDGE ( 'NONE', *, *, #172166, .T. ) ;
#254840 = EDGE_CURVE ( 'NONE', #72798, #94437, #145418, .T. ) ;
#255131 = CARTESIAN_POINT ( 'NONE',  ( 0.000000000000000000, 4.440892098500626162E-13, -8.000000000000229150 ) ) ;
#255377 = ORIENTED_EDGE ( 'NONE', *, *, #82378, .F. ) ;
#256561 = FACE_OUTER_BOUND ( 'NONE', #283073, .T. ) ;
#258383 = CIRCLE ( 'NONE', #298094, 5.000000000000010658 ) ;
#258714 = DIRECTION ( 'NONE',  ( 1.000000000000000000, 0.000000000000000000, -0.000000000000000000 ) ) ;
#258744 = ADVANCED_FACE ( 'NONE', ( #73319 ), #92022, .F. ) ;
#258988 = CARTESIAN_POINT ( 'NONE',  ( 0.08656365540293656236, 6.148822927039193864, 5.349987583647939360 ) ) ;
#259366 = CARTESIAN_POINT ( 'NONE',  ( 5.799999999999999822, 0.000000000000000000, 0.000000000000000000 ) ) ;
#259482 = DIRECTION ( 'NONE',  ( -1.000000000000000000, 0.000000000000000000, 0.000000000000000000 ) ) ;
#259794 = DIRECTION ( 'NONE',  ( 0.000000000000000000, -0.4999999999999993894, 0.8660254037844389297 ) ) ;
#259809 = ( NAMED_UNIT ( * ) SI_UNIT ( $, .STERADIAN. ) SOLID_ANGLE_UNIT ( ) );
#259848 = CARTESIAN_POINT ( 'NONE',  ( 0.4875042524838241187, 5.012024326342970681, -7.318919218002622351 ) ) ;
#261484 = ORIENTED_EDGE ( 'NONE', *, *, #101068, .F. ) ;
#261916 = VECTOR ( 'NONE', #247629, 1000.000000000000000 ) ;
#262852 = CARTESIAN_POINT ( 'NONE',  ( 0.09691491378632090259, -1.650018078803348054, 8.000017967100900407 ) ) ;
#262855 = CARTESIAN_POINT ( 'NONE',  ( 0.004151562876985434927, 0.3925099095855776876, 7.999953334331906696 ) ) ;
#262989 = CARTESIAN_POINT ( 'NONE',  ( 0.03407788074194647437, 7.417471486971255246, 3.152535436588447482 ) ) ;
#263325 = CIRCLE ( 'NONE', #34341, 8.000000000000015987 ) ;
#263358 = CARTESIAN_POINT ( 'NONE',  ( -2.003497618052436482E-15, -0.1948199979147779148, -8.000000000000014211 ) ) ;
#263456 = CARTESIAN_POINT ( 'NONE',  ( 6.400000000000003020, 0.000000000000000000, 5.000000000000004441 ) ) ;
#264410 = CARTESIAN_POINT ( 'NONE',  ( 0.3692872348409255712, -3.267505652670399385, 7.999813291599095599 ) ) ;
#264547 = CARTESIAN_POINT ( 'NONE',  ( 0.1853395974426748916, 8.072901354003976238, 2.017325255938851480 ) ) ;
#265903 = CARTESIAN_POINT ( 'NONE',  ( 0.2227706127825209437, -2.514908885788159409, 7.999982309842089023 ) ) ;
#265907 = CARTESIAN_POINT ( 'NONE',  ( 0.1419537535562137853, 2.002585740843754625, 7.999976770075200250 ) ) ;
#266357 = DIRECTION ( 'NONE',  ( 0.000000000000000000, 1.276756478318927260E-15, 1.000000000000000000 ) ) ;
#266530 = EDGE_CURVE ( 'NONE', #247269, #2409, #60068, .T. ) ;
#266977 = DIRECTION ( 'NONE',  ( -1.000000000000000000, 0.000000000000000000, 0.000000000000000000 ) ) ;
#267161 = CIRCLE ( 'NONE', #306974, 5.000000000000010658 ) ;
#267245 = AXIS2_PLACEMENT_3D ( 'NONE', #250177, #158073, #179939 ) ;
#267789 = DIRECTION ( 'NONE',  ( 1.000000000000000000, 0.000000000000000000, -0.000000000000000000 ) ) ;
#268307 = DIRECTION ( 'NONE',  ( -1.000000000000000000, 0.000000000000000000, 0.000000000000000000 ) ) ;
#268897 = EDGE_CURVE ( 'NONE', #47711, #191195, #95341, .T. ) ;
#269069 = ORIENTED_EDGE ( 'NONE', *, *, #266530, .T. ) ;
#269504 = CARTESIAN_POINT ( 'NONE',  ( 0.02145211865178004926, -0.7776961772747120749, -8.000028232974077724 ) ) ;
#269827 = ORIENTED_EDGE ( 'NONE', *, *, #58613, .T. ) ;
#269849 = ORIENTED_EDGE ( 'NONE', *, *, #268897, .F. ) ;
#270947 = CARTESIAN_POINT ( 'NONE',  ( 0.05769301316254804579, -7.564086657201100294, 2.898773784037904200 ) ) ;
#270954 = EDGE_LOOP ( 'NONE', ( #16879, #151210, #236416, #228516, #254485, #20373 ) ) ;
#271488 = ADVANCED_FACE ( 'NONE', ( #19593 ), #67953, .F. ) ;
#271578 = EDGE_LOOP ( 'NONE', ( #46151, #238736, #283540 ) ) ;
#271723 = DIRECTION ( 'NONE',  ( 1.000000000000000000, 0.000000000000000000, -0.000000000000000000 ) ) ;
#272489 = CARTESIAN_POINT ( 'NONE',  ( 0.6008718182107638528, -9.040740517977356561, 0.3409780848165108735 ) ) ;
#272676 = ORIENTED_EDGE ( 'NONE', *, *, #16288, .T. ) ;
#272800 = FACE_OUTER_BOUND ( 'NONE', #157940, .T. ) ;
#273129 = EDGE_CURVE ( 'NONE', #56032, #21665, #1450, .T. ) ;
#273205 = AXIS2_PLACEMENT_3D ( 'NONE', #297443, #197883, #180550 ) ;
#273277 = DIRECTION ( 'NONE',  ( 0.000000000000000000, -1.276756478318927458E-15, -1.000000000000000000 ) ) ;
#273403 = DIRECTION ( 'NONE',  ( 0.000000000000000000, 1.000000000000000000, 1.276756478318928247E-15 ) ) ;
#273496 = CARTESIAN_POINT ( 'NONE',  ( 6.400000000000003020, 1.110223024625156540E-12, 8.000000000000007105 ) ) ;
#273701 = ORIENTED_EDGE ( 'NONE', *, *, #64996, .F. ) ;
#273714 = AXIS2_PLACEMENT_3D ( 'NONE', #6912, #175218, #148693 ) ;
#274036 = CARTESIAN_POINT ( 'NONE',  ( 0.09751864808417017028, -7.755817952453398334, 2.566558498348594064 ) ) ;
#274805 = CARTESIAN_POINT ( 'NONE',  ( 0.1853395974435273763, -5.783505596340285493, 5.982675026846510313 ) ) ;
#274859 = ORIENTED_EDGE ( 'NONE', *, *, #172166, .F. ) ;
#275462 = ORIENTED_EDGE ( 'NONE', *, *, #148986, .T. ) ;
#275644 = ORIENTED_EDGE ( 'NONE', *, *, #169877, .F. ) ;
#276692 = FACE_OUTER_BOUND ( 'NONE', #279311, .T. ) ;
#276772 = AXIS2_PLACEMENT_3D ( 'NONE', #23206, #165074, #236761 ) ;
#276854 = DIRECTION ( 'NONE',  ( -0.000000000000000000, -1.054711873393896347E-15, -1.000000000000000000 ) ) ;
#277675 = CARTESIAN_POINT ( 'NONE',  ( 0.5005320045301757670, 5.007972991742475344, 7.325594903496842392 ) ) ;
#277973 = VECTOR ( 'NONE', #235902, 1000.000000000000000 ) ;
#278946 = CARTESIAN_POINT ( 'NONE',  ( 0.2745458216362463566, 8.328461528800996660, -1.574510508053149627 ) ) ;
#279311 = EDGE_LOOP ( 'NONE', ( #137184, #299006 ) ) ;
#279447 = FACE_OUTER_BOUND ( 'NONE', #56826, .T. ) ;
#280586 = EDGE_CURVE ( 'NONE', #103581, #47711, #94287, .T. ) ;
#280619 = ORIENTED_EDGE ( 'NONE', *, *, #9520, .F. ) ;
#280772 = CARTESIAN_POINT ( 'NONE',  ( 0.000000000000000000, 0.000000000000000000, 0.000000000000000000 ) ) ;
#281170 = CARTESIAN_POINT ( 'NONE',  ( 6.400000000000003020, 2.220446049250313081E-13, -4.999999999999782396 ) ) ;
#282177 = DIRECTION ( 'NONE',  ( 0.000000000000000000, 0.8660254037844382635, 0.5000000000000007772 ) ) ;
#282572 = B_SPLINE_CURVE_WITH_KNOTS ( 'NONE', 3,
 ( #110917, #234002, #277675, #115520, #301019, #40757, #209150, #135838, #86002, #15801, #210665, #163776, #181044, #258988, #230924, #17340, #134294, #302541, #184155 ),
 .UNSPECIFIED., .F., .F.,
 ( 4, 2, 2, 1, 2, 2, 2, 2, 2, 4 ),
 ( 0.000000000000000000, 0.2499999999999985567, 0.3749999999999979461, 0.4374999999999977796, 0.4687499999999979461, 0.4999999999999981126, 0.6249999999999988898, 0.6874999999999992228, 0.7499999999999995559, 1.000000000000000000 ),
 .UNSPECIFIED. ) ;
#282716 = CARTESIAN_POINT ( 'NONE',  ( 0.2763269114810046889, 2.809965376899955292, -7.999916737329014538 ) ) ;
#282832 = CARTESIAN_POINT ( 'NONE',  ( 0.7145311798163258565, 9.237604307034130713, 1.110223024625156540E-13 ) ) ;
#282885 = CARTESIAN_POINT ( 'NONE',  ( 0.1625001734478655480, -7.998814587442117485, -2.145628487521468841 ) ) ;
#282905 = EDGE_LOOP ( 'NONE', ( #112768, #89510, #143654 ) ) ;
#283073 = EDGE_LOOP ( 'NONE', ( #180651, #226587, #10413 ) ) ;
#283142 = CARTESIAN_POINT ( 'NONE',  ( 0.04147603413215803642, 6.388835456636758892, -4.934213583077047716 ) ) ;
#283540 = ORIENTED_EDGE ( 'NONE', *, *, #293578, .T. ) ;
#283735 = DIRECTION ( 'NONE',  ( 1.000000000000000000, 0.000000000000000000, -0.000000000000000000 ) ) ;
#284258 = CARTESIAN_POINT ( 'NONE',  ( 0.2018966546719601907, 2.391216958020424332, -7.999999201482456357 ) ) ;
#285224 = ORIENTED_EDGE ( 'NONE', *, *, #197309, .T. ) ;
#285765 = AXIS2_PLACEMENT_3D ( 'NONE', #249282, #82429, #174447 ) ;
#285934 = LINE ( 'NONE', #69397, #88840 ) ;
#286217 = CARTESIAN_POINT ( 'NONE',  ( 96.40000000000000568, 6.661338147750939243E-13, 4.171999999999953523 ) ) ;
#286323 = CARTESIAN_POINT ( 'NONE',  ( 0.02168592410851138269, 7.319470541911018202, 3.322231912617063632 ) ) ;
#286692 = CARTESIAN_POINT ( 'NONE',  ( 0.1399066911030777127, -1.987823683176661582, -7.999992517469994624 ) ) ;
#287138 = CARTESIAN_POINT ( 'NONE',  ( 0.000000000000000000, 0.000000000000000000, 0.000000000000000000 ) ) ;
#287335 = CARTESIAN_POINT ( 'NONE',  ( 0.3715301871469802730, 3.277674414798761759, -7.999820304977091290 ) ) ;
#287708 = CARTESIAN_POINT ( 'NONE',  ( 0.000000000000000000, 1.110223024625156540E-12, 8.000000000000007105 ) ) ;
#287729 = CARTESIAN_POINT ( 'NONE',  ( 0.1625001734465471859, 5.857576071006755924, -5.854362389113950016 ) ) ;
#288225 = CARTESIAN_POINT ( 'NONE',  ( 0.4866420651375356621, -3.829371103285974076, -8.000000000000000000 ) ) ;
#288333 = ADVANCED_FACE ( 'NONE', ( #77132 ), #144209, .T. ) ;
#288384 = VERTEX_POINT ( 'NONE', #74063 ) ;
#288529 = PLANE ( 'NONE',  #51696 ) ;
#289414 = LINE ( 'NONE', #7229, #205504 ) ;
#289721 = AXIS2_PLACEMENT_3D ( 'NONE', #191745, #146434, #77900 ) ;
#290168 = CONICAL_SURFACE ( 'NONE', #205708, 8.000000000000015987, 1.047197551196598297 ) ;
#290577 = VECTOR ( 'NONE', #146511, 1000.000000000000000 ) ;
#290784 = CARTESIAN_POINT ( 'NONE',  ( 0.1325383791497100061, -1.939448403077455474, 7.999986843418818161 ) ) ;
#291276 = CARTESIAN_POINT ( 'NONE',  ( 0.000000000000000000, 4.440892098500626162E-13, -8.000000000000229150 ) ) ;
#292944 = LINE ( 'NONE', #59108, #187368 ) ;
#293263 = DIRECTION ( 'NONE',  ( 0.000000000000000000, 1.276756478318927458E-15, 1.000000000000000000 ) ) ;
#293578 = EDGE_CURVE ( 'NONE', #47711, #33479, #55259, .T. ) ;
#293714 = VERTEX_POINT ( 'NONE', #228153 ) ;
#293788 = VECTOR ( 'NONE', #10228, 1000.000000000000000 ) ;
#294321 = CARTESIAN_POINT ( 'NONE',  ( 0.2481567600586790656, -8.258243759336833634, 1.696210065049568172 ) ) ;
#295201 = ORIENTED_EDGE ( 'NONE', *, *, #60394, .F. ) ;
#295376 = CARTESIAN_POINT ( 'NONE',  ( 0.2481567600639285887, -5.598082886151624749, -6.303743853721526236 ) ) ;
#296088 = DIRECTION ( 'NONE',  ( 0.000000000000000000, -0.5000000000000002220, -0.8660254037844384856 ) ) ;
#296129 = CARTESIAN_POINT ( 'NONE',  ( 0.1332582558679324403, 7.900561762465731164, -2.315796611444659092 ) ) ;
#297060 = ORIENTED_EDGE ( 'NONE', *, *, #25824, .F. ) ;
#297363 = CARTESIAN_POINT ( 'NONE',  ( 2.776385771555748322E-17, -7.123894648494111692, 3.661052521040197405 ) ) ;
#297443 = CARTESIAN_POINT ( 'NONE',  ( 6.400000000000003020, 0.000000000000000000, 0.000000000000000000 ) ) ;
#297614 = CARTESIAN_POINT ( 'NONE',  ( 5.799999999999999822, -9.237604307033242534, 0.000000000000000000 ) ) ;
#297924 = CARTESIAN_POINT ( 'NONE',  ( 6.400000000000003020, -9.237604307033242534, 0.000000000000000000 ) ) ;
#298094 = AXIS2_PLACEMENT_3D ( 'NONE', #185201, #303619, #299021 ) ;
#298155 = CARTESIAN_POINT ( 'NONE',  ( 0.03407788074194233185, -6.438911517924803540, 4.847451021239381319 ) ) ;
#298761 = B_SPLINE_CURVE_WITH_KNOTS ( 'NONE', 3,
 ( #16009, #12937, #108040, #206290, #156297, #298155, #203211, #301232, #87750, #84661, #179715, #89270, #65932, #274805, #182792, #61265, #251503 ),
 .UNSPECIFIED., .F., .F.,
 ( 4, 2, 2, 2, 2, 1, 2, 2, 4 ),
 ( 0.000000000000000000, 0.1249999999999997780, 0.1874999999999996669, 0.2499999999999995559, 0.3749999999999997780, 0.4375000000000001110, 0.4687500000000000555, 0.5000000000000000000, 1.000000000000000000 ),
 .UNSPECIFIED. ) ;
#298784 = ADVANCED_FACE ( 'NONE', ( #228031 ), #54466, .T. ) ;
#299006 = ORIENTED_EDGE ( 'NONE', *, *, #148986, .F. ) ;
#299021 = DIRECTION ( 'NONE',  ( 0.000000000000000000, 1.276756478318927260E-15, 1.000000000000000000 ) ) ;
#299215 = CARTESIAN_POINT ( 'NONE',  ( 0.08656365540629884503, 7.707636620908624892, -2.650043066328268360 ) ) ;
#299690 = DIRECTION ( 'NONE',  ( 0.000000000000000000, 1.276756478318927458E-15, 1.000000000000000000 ) ) ;
#299989 = CARTESIAN_POINT ( 'NONE',  ( 0.5005320045404745288, -5.007972991728125933, -7.325594903528276802 ) ) ;
#301019 = CARTESIAN_POINT ( 'NONE',  ( 0.3298213600001891899, 5.386944454374197555, 6.669229319539442535 ) ) ;
#301104 = CARTESIAN_POINT ( 'NONE',  ( 95.57200000000000273, 0.000000000000000000, 5.000000000000004441 ) ) ;
#301232 = CARTESIAN_POINT ( 'NONE',  ( 0.06575141133395585868, -6.244177214891121430, 5.184765421999669499 ) ) ;
#301318 = ORIENTED_EDGE ( 'NONE', *, *, #153877, .F. ) ;
#301512 = CARTESIAN_POINT ( 'NONE',  ( 0.1332582558613073787, -5.955819576764198153, -5.684188884700918543 ) ) ;
#301656 = CARTESIAN_POINT ( 'NONE',  ( 0.04147603413138394729, -7.467572038957029257, -3.065787014514889108 ) ) ;
#302055 = AXIS2_PLACEMENT_3D ( 'NONE', #79252, #158545, #227205 ) ;
#302541 = CARTESIAN_POINT ( 'NONE',  ( 1.948175778684891088E-17, 6.732511812080281821, 4.338947478919386036 ) ) ;
#302760 = CARTESIAN_POINT ( 'NONE',  ( 0.000000000000000000, 0.000000000000000000, 0.000000000000000000 ) ) ;
#303619 = DIRECTION ( 'NONE',  ( -1.000000000000000000, 0.000000000000000000, 0.000000000000000000 ) ) ;
#304086 = ADVANCED_FACE ( 'NONE', ( #32042 ), #245317, .T. ) ;
#305533 = ORIENTED_EDGE ( 'NONE', *, *, #124206, .T. ) ;
#305601 = VECTOR ( 'NONE', #125706, 1000.000000000000000 ) ;
#305908 = EDGE_LOOP ( 'NONE', ( #151135, #78609, #99576, #50192, #301318, #176108 ) ) ;
#305992 = DIRECTION ( 'NONE',  ( -1.000000000000000000, 0.000000000000000000, 0.000000000000000000 ) ) ;
#306070 = CARTESIAN_POINT ( 'NONE',  ( 0.09836096914670931779, 1.662652147760174559, -7.999966250750178531 ) ) ;
#306974 = AXIS2_PLACEMENT_3D ( 'NONE', #85236, #61822, #13505 ) ;
#307094 = FACE_OUTER_BOUND ( 'NONE', #198314, .T. ) ;
#307193 = CYLINDRICAL_SURFACE ( 'NONE', #217387, 5.000000000000010658 ) ;
#307543 = DIRECTION ( 'NONE',  ( 0.000000000000000000, 1.276756478318927458E-15, 1.000000000000000000 ) ) ;
#307623 = CARTESIAN_POINT ( 'NONE',  ( 0.3314721918597812178, 3.090127495652621903, -7.999849403740761034 ) ) ;
#307902 = DIRECTION ( 'NONE',  ( -1.000000000000000000, 0.000000000000000000, 0.000000000000000000 ) ) ;
#308284 = AXIS2_PLACEMENT_3D ( 'NONE', #216231, #192828, #169433 ) ;
ENDSEC;
END-ISO-10303-21;
