ISO-10303-21;
HEADER;
FILE_DESCRIPTION (( 'STEP AP214' ),
    '1' );
FILE_NAME ('PT.SHT.01.20.00.00 —¡ ''ÿÌÂÍ 1'' (STEP 214 ““).STEP',
    '2026-09-29T05:38:28',
    ( '' ),
    ( '' ),
    'SwSTEP 2.0',
    'SolidWorks 2025',
    '' );
FILE_SCHEMA (( 'AUTOMOTIVE_DESIGN' ));
ENDSEC;

DATA;
#156 = PRODUCT_CONTEXT ( 'NONE', #1307, 'mechanical' ) ;
#908 = CARTESIAN_POINT ( 'NONE',  ( 0.04109390246048034295, 3.902613224368959077, -3.240473222877174209 ) ) ;
#1006 = CYLINDRICAL_SURFACE ( 'NONE', #23155, 2.999999999999990230 ) ;
#1307 = APPLICATION_CONTEXT ( 'automotive_design' ) ;
#1686 = DIRECTION ( 'NONE',  ( -1.000000000000000000, 1.665334536937732345E-16, 8.291978215169125092E-16 ) ) ;
#1693 = ORIENTED_EDGE ( 'NONE', *, *, #238731, .T. ) ;
#1746 = CARTESIAN_POINT ( 'NONE',  ( 3.499999999999614531, 5.773502691896553962, 0.000000000000000000 ) ) ;
#2365 = EDGE_CURVE ( 'NONE', #238522, #16737, #98887, .T. ) ;
#2397 = PRODUCT ( '\X2\0411043e043b0442\X0\ \X2\041c\X0\6\X2\0445\X0\20 DIN 933 \X2\0410\X0\2', '\X2\0411043e043b0442\X0\ \X2\041c\X0\6\X2\0445\X0\20 DIN 933 \X2\0410\X0\2', '', ( #156 ) ) ;
#3347 = ORIENTED_EDGE ( 'NONE', *, *, #249548, .F. ) ;
#3457 = CARTESIAN_POINT ( 'NONE',  ( -2.220446049250313081E-13, 4.330127018922463655, -2.500000000000009326 ) ) ;
#3505 = EDGE_LOOP ( 'NONE', ( #103765, #293336, #237277, #84755, #96379, #117374 ) ) ;
#4076 = EDGE_CURVE ( 'NONE', #289617, #171147, #113833, .T. ) ;
#4262 = CARTESIAN_POINT ( 'NONE',  ( 0.3129888527882482285, -3.129807496762377017, -4.578946160458182035 ) ) ;
#4564 = CARTESIAN_POINT ( 'NONE',  ( 4.000000000000003553, 2.220446049250313081E-13, -3.000000000000037303 ) ) ;
#4749 = CARTESIAN_POINT ( 'NONE',  ( 3.999999999999781508, 5.773502691896609029, -5.551115123125782702E-14 ) ) ;
#5407 = FACE_OUTER_BOUND ( 'NONE', #183182, .T. ) ;
#5807 = CARTESIAN_POINT ( 'NONE',  ( 2.112500170452225046E-15, -4.086215109849627325, -2.922467819084780150 ) ) ;
#6208 = CARTESIAN_POINT ( 'NONE',  ( -1.124674465496498972E-15, 4.391433704703088914, 2.393813705383809332 ) ) ;
#6244 = AXIS2_PLACEMENT_3D ( 'NONE', #63220, #158228, #180118 ) ;
#6793 = EDGE_LOOP ( 'NONE', ( #144777, #264139, #168890 ) ) ;
#7215 = DIRECTION ( 'NONE',  ( -1.000000000000000000, 1.665334536937732345E-16, 8.291978215169125092E-16 ) ) ;
#7311 = PLANE ( 'NONE',  #224893 ) ;
#8007 = CARTESIAN_POINT ( 'NONE',  ( 4.000000000000114575, 2.886751345948235237, 5.000000000000060396 ) ) ;
#8013 = CARTESIAN_POINT ( 'NONE',  ( 3.500000000000169642, 1.942890293094023946E-13, -6.938893903907228378E-15 ) ) ;
#8102 = CARTESIAN_POINT ( 'NONE',  ( 0.1553040631731286703, -5.161776549263557001, 1.060089046297616688 ) ) ;
#8382 = VERTEX_POINT ( 'NONE', #228899 ) ;
#8468 = B_SPLINE_CURVE_WITH_KNOTS ( 'NONE', 3,
 ( #85181, #61770, #270725, #82103, #177126, #272256, #35345, #174105, #130417, #225480, #269216, #127316, #11913, #133445, #106998, #202176, #83605 ),
 .UNSPECIFIED., .F., .F.,
 ( 4, 2, 2, 1, 2, 2, 2, 2, 4 ),
 ( 0.000000000000000000, 0.2500000000000000000, 0.3750000000000000000, 0.4375000000000000000, 0.4687500000000000000, 0.5000000000000000000, 0.6250000000000000000, 0.7500000000000000000, 1.000000000000000000 ),
 .UNSPECIFIED. ) ;
#8497 = LINE ( 'NONE', #58344, #129995 ) ;
#9199 = DIRECTION ( 'NONE',  ( -1.000000000000000000, 1.665334536937732345E-16, 8.291978215169125092E-16 ) ) ;
#9523 = DIRECTION ( 'NONE',  ( -1.000000000000000000, 1.665334536937732345E-16, 8.291978215169125092E-16 ) ) ;
#9631 = CARTESIAN_POINT ( 'NONE',  ( -2.374139236381887188E-15, -4.574038927999625415, 2.077532180906741743 ) ) ;
#9945 = CARTESIAN_POINT ( 'NONE',  ( 0.002552003958667561738, -0.2429672033420747501, -4.999985638002961252 ) ) ;
#10036 = EDGE_LOOP ( 'NONE', ( #93049, #121762 ) ) ;
#11767 = CARTESIAN_POINT ( 'NONE',  ( 3.999999999999948042, 2.775557561562891351E-14, 0.000000000000000000 ) ) ;
#11913 = CARTESIAN_POINT ( 'NONE',  ( 0.05312566799542484119, -0.9707390656600634049, 5.000018233639441867 ) ) ;
#12649 = VECTOR ( 'NONE', #145096, 1000.000000000000000 ) ;
#12809 = AXIS2_PLACEMENT_3D ( 'NONE', #19364, #214220, #139392 ) ;
#13867 = DIRECTION ( 'NONE',  ( 5.551115123125753120E-17, 1.000000000000000000, -1.632374790894166798E-15 ) ) ;
#14215 = CARTESIAN_POINT ( 'NONE',  ( 0.1108320877202847582, -3.630592086131462448, 3.711627688705694705 ) ) ;
#15143 = CARTESIAN_POINT ( 'NONE',  ( 0.1553040631725245424, 3.498952318999655198, 3.940185097170333162 ) ) ;
#16737 = VERTEX_POINT ( 'NONE', #20002 ) ;
#17159 = AXIS2_PLACEMENT_3D ( 'NONE', #227430, #280332, #13867 ) ;
#17437 = PLANE ( 'NONE',  #221616 ) ;
#17614 = EDGE_CURVE ( 'NONE', #176965, #289617, #93649, .T. ) ;
#18042 = ORIENTED_EDGE ( 'NONE', *, *, #219277, .T. ) ;
#18331 = AXIS2_PLACEMENT_3D ( 'NONE', #194611, #58840, #77677 ) ;
#18707 = CARTESIAN_POINT ( 'NONE',  ( 3.499999999999892086, -5.773502691896109873, 1.179611963664228824E-13 ) ) ;
#18977 = DIRECTION ( 'NONE',  ( -1.665334536937725196E-16, -1.000000000000000000, 1.708702623837145127E-15 ) ) ;
#19364 = CARTESIAN_POINT ( 'NONE',  ( 3.999999999999948042, 2.775557561562891351E-14, 0.000000000000000000 ) ) ;
#20002 = CARTESIAN_POINT ( 'NONE',  ( -1.110223024625156540E-13, 4.330127018922408588, 2.500000000000224265 ) ) ;
#20081 = VECTOR ( 'NONE', #168664, 1000.000000000000000 ) ;
#20323 = CARTESIAN_POINT ( 'NONE',  ( 3.500000000000169642, 1.942890293094023946E-13, -6.938893903907228378E-15 ) ) ;
#20358 = DIRECTION ( 'NONE',  ( -1.000000000000000000, 1.665334536937732345E-16, 8.291978215169125092E-16 ) ) ;
#20715 = CARTESIAN_POINT ( 'NONE',  ( 0.1300128567459538642, 5.088715317285060102, -1.186741567540845255 ) ) ;
#20962 = CARTESIAN_POINT ( 'NONE',  ( 3.499999999999725553, 4.330127018922352633, 2.500000000000030198 ) ) ;
#21229 = ORIENTED_EDGE ( 'NONE', *, *, #45234, .F. ) ;
#21317 = ORIENTED_EDGE ( 'NONE', *, *, #189424, .F. ) ;
#21341 = CARTESIAN_POINT ( 'NONE',  ( 0.01297224797052119911, 0.4891661985818623881, 5.000079391988925259 ) ) ;
#21685 = DIRECTION ( 'NONE',  ( 8.673617379884064068E-16, 1.457167719820522495E-15, -1.000000000000000000 ) ) ;
#21725 = EDGE_CURVE ( 'NONE', #116370, #234587, #159009, .T. ) ;
#22486 = DIRECTION ( 'NONE',  ( -1.000000000000000000, 1.665334536937732345E-16, 8.291978215169125092E-16 ) ) ;
#22703 = PLANE ( 'NONE',  #131346 ) ;
#22723 = FACE_OUTER_BOUND ( 'NONE', #185792, .T. ) ;
#23155 = AXIS2_PLACEMENT_3D ( 'NONE', #69662, #75801, #142821 ) ;
#23279 = ORIENTED_EDGE ( 'NONE', *, *, #21725, .T. ) ;
#23653 = AXIS2_PLACEMENT_3D ( 'NONE', #277516, #87383, #254254 ) ;
#24249 = CARTESIAN_POINT ( 'NONE',  ( 0.01032664126787642862, 4.116107323846733834, -2.870636901127387564 ) ) ;
#24956 = CARTESIAN_POINT ( 'NONE',  ( 3.999999999999892530, -5.773502691896109873, 1.110223024625156540E-13 ) ) ;
#25195 = CARTESIAN_POINT ( 'NONE',  ( 0.000000000000000000, 0.000000000000000000, 0.000000000000000000 ) ) ;
#25334 = CARTESIAN_POINT ( 'NONE',  ( 0.04014686992764365109, 4.811068438377221312, -1.667766004833909799 ) ) ;
#25973 = VERTEX_POINT ( 'NONE', #281224 ) ;
#25995 = ORIENTED_EDGE ( 'NONE', *, *, #67966, .T. ) ;
#26120 = CARTESIAN_POINT ( 'NONE',  ( 0.2314535083876719523, -3.307850122720536135, -4.270783280460585196 ) ) ;
#26444 = EDGE_CURVE ( 'NONE', #43372, #238522, #239778, .T. ) ;
#26553 = LINE ( 'NONE', #288405, #116834 ) ;
#27057 = CARTESIAN_POINT ( 'NONE',  ( 0.000000000000000000, 0.000000000000000000, 0.000000000000000000 ) ) ;
#27622 = CARTESIAN_POINT ( 'NONE',  ( 0.1553040631719971310, -3.498952319000210309, -3.940185097168594996 ) ) ;
#27627 = ADVANCED_FACE ( 'NONE', ( #196513 ), #244831, .T. ) ;
#27917 = ORIENTED_EDGE ( 'NONE', *, *, #263221, .T. ) ;
#29044 = EDGE_CURVE ( 'NONE', #271999, #105424, #305646, .T. ) ;
#29154 = CARTESIAN_POINT ( 'NONE',  ( 0.2063483387593861851, -3.366828494963554519, -4.168747561289570136 ) ) ;
#29734 = ADVANCED_FACE ( 'NONE', ( #203112 ), #17437, .F. ) ;
#30115 = LINE ( 'NONE', #125190, #301307 ) ;
#30222 = B_SPLINE_CURVE_WITH_KNOTS ( 'NONE', 3,
 ( #162187, #6208, #292937, #34195, #123125, #172936, #176003, #269627, #76414, #74902, #271125, #146476, #52966, #243184, #56048, #241635, #174506 ),
 .UNSPECIFIED., .F., .F.,
 ( 4, 2, 2, 2, 2, 1, 2, 2, 4 ),
 ( 0.000000000000000000, 0.1250000000000006384, 0.1875000000000007494, 0.2500000000000008882, 0.3750000000000006661, 0.4375000000000006661, 0.4687500000000006661, 0.5000000000000006661, 1.000000000000000000 ),
 .UNSPECIFIED. ) ;
#30271 = CARTESIAN_POINT ( 'NONE',  ( 0.04067374924331410707, -0.8503946406080871157, -5.000050500645150997 ) ) ;
#31011 = CARTESIAN_POINT ( 'NONE',  ( -1.110223024625156540E-13, -4.330127018922103055, -2.499999999999981348 ) ) ;
#31059 = CARTESIAN_POINT ( 'NONE',  ( 0.3759138937236964351, 2.641949888556582859, -4.999999999999977796 ) ) ;
#31320 = FACE_OUTER_BOUND ( 'NONE', #168777, .T. ) ;
#31796 = CARTESIAN_POINT ( 'NONE',  ( 0.07538265926518626647, -1.151606047384684084, -4.999998861667121375 ) ) ;
#31837 = EDGE_CURVE ( 'NONE', #305942, #211778, #275553, .T. ) ;
#31847 = CARTESIAN_POINT ( 'NONE',  ( 24.00000000000013145, 3.608224830031758756E-13, -1.665334536937734811E-13 ) ) ;
#32760 = DIRECTION ( 'NONE',  ( 5.551115123125753120E-17, 1.000000000000000000, -1.632374790894166798E-15 ) ) ;
#33454 = CARTESIAN_POINT ( 'NONE',  ( -4.440892098500626162E-13, 1.942890293094023946E-13, 5.000000000000060396 ) ) ;
#33774 = CARTESIAN_POINT ( 'NONE',  ( 3.999999999999781508, -2.886751345947957681, -5.000000000000170530 ) ) ;
#34075 = CARTESIAN_POINT ( 'NONE',  ( 0.05361536248823996903, -4.817806063783772963, -1.655271807792666694 ) ) ;
#34195 = CARTESIAN_POINT ( 'NONE',  ( 0.01032664126787278570, 4.544098143336948503, 2.129335056598817388 ) ) ;
#35345 = CARTESIAN_POINT ( 'NONE',  ( 0.1545364947602916317, -1.659524366454690814, 4.999971395092942750 ) ) ;
#35681 = CARTESIAN_POINT ( 'NONE',  ( 0.3134829554962939580, 2.402593383728526710, -4.999896425357539975 ) ) ;
#35978 = DIRECTION ( 'NONE',  ( 0.000000000000000000, -1.000000000000000000, 1.150121664572617582E-15 ) ) ;
#36029 = VERTEX_POINT ( 'NONE', #20962 ) ;
#36366 = EDGE_CURVE ( 'NONE', #186143, #175096, #235680, .T. ) ;
#37205 = DIRECTION ( 'NONE',  ( 7.754213937616352364E-16, 1.457167719820522692E-15, -1.000000000000000000 ) ) ;
#37214 = CARTESIAN_POINT ( 'NONE',  ( 3.912021666893986905E-15, 0.2448870890483190177, -4.999999999999985789 ) ) ;
#38035 = ORIENTED_EDGE ( 'NONE', *, *, #275240, .T. ) ;
#38143 = CARTESIAN_POINT ( 'NONE',  ( 24.00000000000013145, 3.608224830031758756E-13, -1.665334536937734811E-13 ) ) ;
#39099 = FACE_OUTER_BOUND ( 'NONE', #135435, .T. ) ;
#39465 = ADVANCED_FACE ( 'NONE', ( #256238 ), #299825, .F. ) ;
#40067 = CARTESIAN_POINT ( 'NONE',  ( 0.000000000000000000, 0.000000000000000000, 0.000000000000000000 ) ) ;
#40268 = LINE ( 'NONE', #299003, #74401 ) ;
#40346 = CARTESIAN_POINT ( 'NONE',  ( -1.110223024625156540E-13, -4.330127018922103055, -2.499999999999981348 ) ) ;
#40548 = CARTESIAN_POINT ( 'NONE',  ( 3.500000000000169642, 2.886751345948346259, 4.999999999999997335 ) ) ;
#40696 = EDGE_LOOP ( 'NONE', ( #52667, #49575 ) ) ;
#41490 = DIRECTION ( 'NONE',  ( -1.000000000000000000, 1.665334536937732345E-16, 8.291978215169125092E-16 ) ) ;
#42654 = AXIS2_PLACEMENT_3D ( 'NONE', #111790, #255274, #206971 ) ;
#43372 = VERTEX_POINT ( 'NONE', #242208 ) ;
#43482 = FACE_OUTER_BOUND ( 'NONE', #303083, .T. ) ;
#44367 = EDGE_CURVE ( 'NONE', #55573, #265206, #194042, .T. ) ;
#44534 = PRODUCT_DEFINITION_SHAPE ( 'NONE', 'NONE',  #106259 ) ;
#44627 = ORIENTED_EDGE ( 'NONE', *, *, #107032, .T. ) ;
#44712 = CARTESIAN_POINT ( 'NONE',  ( 3.999999999999837019, 2.886751345948512792, -4.999999999999976907 ) ) ;
#44944 = PLANE ( 'NONE',  #17159 ) ;
#45234 = EDGE_CURVE ( 'NONE', #304535, #285480, #289982, .T. ) ;
#45964 = DIRECTION ( 'NONE',  ( 7.754213937616352364E-16, 1.457167719820522692E-15, -1.000000000000000000 ) ) ;
#46921 = AXIS2_PLACEMENT_3D ( 'NONE', #185100, #283221, #233409 ) ;
#47009 = CARTESIAN_POINT ( 'NONE',  ( -1.110223024625156540E-13, 8.326672684688674053E-14, 3.000000000000002665 ) ) ;
#48640 = AXIS2_PLACEMENT_3D ( 'NONE', #157424, #299267, #85757 ) ;
#48944 = DIRECTION ( 'NONE',  ( 8.673617379884064068E-16, 1.457167719820522495E-15, -1.000000000000000000 ) ) ;
#49575 = ORIENTED_EDGE ( 'NONE', *, *, #134915, .T. ) ;
#49849 = CARTESIAN_POINT ( 'NONE',  ( 0.4465819873845644494, -2.886751345948485259, -4.999999999999893419 ) ) ;
#50025 = DIRECTION ( 'NONE',  ( 1.000000000000000000, -1.665334536937732345E-16, -8.291978215169125092E-16 ) ) ;
#50038 = LINE ( 'NONE', #1746, #12649 ) ;
#50750 = EDGE_CURVE ( 'NONE', #55573, #25973, #26553, .T. ) ;
#50889 = ORIENTED_EDGE ( 'NONE', *, *, #50750, .T. ) ;
#51028 = DIRECTION ( 'NONE',  ( -1.000000000000000000, 1.665334536937732345E-16, 8.291978215169125092E-16 ) ) ;
#51712 = FACE_OUTER_BOUND ( 'NONE', #3505, .T. ) ;
#52667 = ORIENTED_EDGE ( 'NONE', *, *, #260163, .T. ) ;
#52966 = CARTESIAN_POINT ( 'NONE',  ( 0.1108320877202253613, 5.029659910874812567, 1.288371133014412750 ) ) ;
#53859 = PRODUCT_DEFINITION_CONTEXT ( 'detailed design', #292140, 'design' ) ;
#54393 = CARTESIAN_POINT ( 'NONE',  ( 0.01032664126787507554, -4.544098143335188134, -2.129335056602573495 ) ) ;
#54457 = ORIENTED_EDGE ( 'NONE', *, *, #89134, .F. ) ;
#54634 = ORIENTED_EDGE ( 'NONE', *, *, #235777, .T. ) ;
#54890 = CARTESIAN_POINT ( 'NONE',  ( 0.3756388630777204862, -5.650625596148014296, 0.2128293729223021125 ) ) ;
#55573 = VERTEX_POINT ( 'NONE', #195033 ) ;
#55965 = EDGE_CURVE ( 'NONE', #100989, #8382, #231823, .T. ) ;
#55972 = ORIENTED_EDGE ( 'NONE', *, *, #4076, .T. ) ;
#56048 = CARTESIAN_POINT ( 'NONE',  ( 0.1960121704294983114, 5.293280705445645218, 0.8317598304977528167 ) ) ;
#56330 = CARTESIAN_POINT ( 'NONE',  ( 0.000000000000000000, 0.000000000000000000, 0.000000000000000000 ) ) ;
#56392 = ORIENTED_EDGE ( 'NONE', *, *, #219939, .T. ) ;
#56408 = CARTESIAN_POINT ( 'NONE',  ( 0.02592293447513329199, -3.993020639880321188, 3.083886571169016211 ) ) ;
#56784 = ORIENTED_EDGE ( 'NONE', *, *, #254695, .T. ) ;
#57236 = EDGE_CURVE ( 'NONE', #100989, #55573, #232960, .T. ) ;
#57986 = VERTEX_POINT ( 'NONE', #40548 ) ;
#58264 = CARTESIAN_POINT ( 'NONE',  ( -5.551115123125782702E-14, 5.551115123125782702E-14, -5.000000000000122569 ) ) ;
#58344 = CARTESIAN_POINT ( 'NONE',  ( 24.00000000000002132, 1.387778780781445676E-13, 2.445499999999933838 ) ) ;
#58840 = DIRECTION ( 'NONE',  ( -1.000000000000000000, 1.665334536937732345E-16, 8.291978215169125092E-16 ) ) ;
#59032 = CARTESIAN_POINT ( 'NONE',  ( 0.01037779837642397070, 0.4882701304876690962, -5.000142168172266643 ) ) ;
#59462 = CARTESIAN_POINT ( 'NONE',  ( 0.08810828615481912374, -3.706508225863641925, 3.580111454794382642 ) ) ;
#59581 = AXIS2_PLACEMENT_3D ( 'NONE', #241592, #77899, #127674 ) ;
#59856 = CARTESIAN_POINT ( 'NONE',  ( -5.551115123125782702E-13, 5.773502691896664984, -6.245004513516505540E-14 ) ) ;
#59993 = DIRECTION ( 'NONE',  ( -1.000000000000000000, 1.665334536937732345E-16, 8.291978215169125092E-16 ) ) ;
#60381 = CARTESIAN_POINT ( 'NONE',  ( 0.3756388630769275094, 3.009628441697585810, 4.787170627075246543 ) ) ;
#60567 = CARTESIAN_POINT ( 'NONE',  ( 0.2071546787682308211, 1.931254115784376113, -4.999906628875600667 ) ) ;
#60694 = LINE ( 'NONE', #225943, #207243 ) ;
#60959 = CARTESIAN_POINT ( 'NONE',  ( 3.499999999999614531, -4.330127018922047100, 2.499999999999912070 ) ) ;
#60993 = CARTESIAN_POINT ( 'NONE',  ( 0.1015620059912161616, -3.660987744421488443, 3.658972324761391448 ) ) ;
#61168 = ( NAMED_UNIT ( * ) PLANE_ANGLE_UNIT ( ) SI_UNIT ( $, .RADIAN. ) );
#61632 = CIRCLE ( 'NONE', #235885, 4.999999999999984013 ) ;
#61770 = CARTESIAN_POINT ( 'NONE',  ( 0.3753617103393332988, -2.640037069202993969, 4.999999999999973355 ) ) ;
#62209 = ORIENTED_EDGE ( 'NONE', *, *, #44367, .T. ) ;
#62755 = LINE ( 'NONE', #206216, #249744 ) ;
#63220 = CARTESIAN_POINT ( 'NONE',  ( 24.00000000000013145, 3.608224830031758756E-13, -1.665334536937734811E-13 ) ) ;
#63969 = CARTESIAN_POINT ( 'NONE',  ( 3.500000000000169642, 2.886751345948346259, 4.999999999999997335 ) ) ;
#64387 = CIRCLE ( 'NONE', #69517, 2.999999999999990230 ) ;
#64654 = CONICAL_SURFACE ( 'NONE', #129392, 4.999999999999984013, 1.047197551196598297 ) ;
#65030 = ADVANCED_FACE ( 'NONE', ( #230759 ), #132583, .T. ) ;
#65059 = AXIS2_PLACEMENT_3D ( 'NONE', #59856, #87856, #106622 ) ;
#65066 = PLANE ( 'NONE',  #42654 ) ;
#65602 = DIRECTION ( 'NONE',  ( -1.000000000000000000, 1.665334536937732345E-16, 8.291978215169125092E-16 ) ) ;
#65721 = EDGE_CURVE ( 'NONE', #105424, #170144, #219455, .T. ) ;
#66129 = VECTOR ( 'NONE', #9523, 1000.000000000000000 ) ;
#66644 = CARTESIAN_POINT ( 'NONE',  ( 0.1116289659224063008, 1.404176101777781183, 5.000000961855662673 ) ) ;
#67279 = EDGE_CURVE ( 'NONE', #289617, #76196, #121847, .T. ) ;
#67328 = EDGE_CURVE ( 'NONE', #116370, #36029, #263983, .T. ) ;
#67541 = CONICAL_SURFACE ( 'NONE', #246658, 2.445499999999992013, 0.7853981633974419507 ) ;
#67749 = EDGE_CURVE ( 'NONE', #285480, #271999, #208830, .T. ) ;
#67966 = EDGE_CURVE ( 'NONE', #162112, #265206, #40268, .T. ) ;
#67992 = CARTESIAN_POINT ( 'NONE',  ( 3.500000000000169642, 1.942890293094023946E-13, -6.938893903907228378E-15 ) ) ;
#68100 = AXIS2_PLACEMENT_3D ( 'NONE', #210363, #305305, #91802 ) ;
#68701 = LINE ( 'NONE', #24956, #260925 ) ;
#69297 = DIRECTION ( 'NONE',  ( -1.942890293094029123E-16, 0.5000000000000032196, 0.8660254037844368202 ) ) ;
#69517 = AXIS2_PLACEMENT_3D ( 'NONE', #181507, #186145, #231389 ) ;
#69576 = ADVANCED_FACE ( 'NONE', ( #99379 ), #7311, .F. ) ;
#69662 = CARTESIAN_POINT ( 'NONE',  ( 0.000000000000000000, 0.000000000000000000, 0.000000000000000000 ) ) ;
#70615 = CARTESIAN_POINT ( 'NONE',  ( 0.1254589685238815810, 5.075027172006848275, -1.210463255698431384 ) ) ;
#71074 = CARTESIAN_POINT ( 'NONE',  ( 3.499999999999836575, 5.000000000000254019, -1.110223024625156540E-13 ) ) ;
#71085 = VERTEX_POINT ( 'NONE', #300662 ) ;
#71244 = CARTESIAN_POINT ( 'NONE',  ( -3.857388041796068756E-15, 0.1224270643288573046, 4.999999999999984901 ) ) ;
#71274 = PLANE ( 'NONE',  #46921 ) ;
#71725 = DIRECTION ( 'NONE',  ( -1.418706584319617878E-15, -1.457167719820513226E-15, 1.000000000000000000 ) ) ;
#71957 = ORIENTED_EDGE ( 'NONE', *, *, #55965, .F. ) ;
#72371 = DIRECTION ( 'NONE',  ( 7.754213937616352364E-16, 1.457167719820522692E-15, -1.000000000000000000 ) ) ;
#72871 = DIRECTION ( 'NONE',  ( -1.000000000000000000, 1.665334536937732345E-16, 8.291978215169125092E-16 ) ) ;
#73679 = ADVANCED_FACE ( 'NONE', ( #111357 ), #205589, .T. ) ;
#74151 = CARTESIAN_POINT ( 'NONE',  ( 0.3046883088155187824, 3.132518406503416841, -4.574318964291062883 ) ) ;
#74401 = VECTOR ( 'NONE', #205568, 1000.000000000000000 ) ;
#74678 = DIRECTION ( 'NONE',  ( -7.216449660063519485E-16, -0.5000000000000036637, 0.8660254037844365982 ) ) ;
#74798 = CARTESIAN_POINT ( 'NONE',  ( 3.499999999999836575, 2.886751345948485259, -4.999999999999997335 ) ) ;
#74902 = CARTESIAN_POINT ( 'NONE',  ( 0.07600877458983068546, 4.908366333978150919, 1.498419249888254035 ) ) ;
#75801 = DIRECTION ( 'NONE',  ( -1.000000000000000000, 1.665334536937732345E-16, 8.291978215169125092E-16 ) ) ;
#76084 = EDGE_CURVE ( 'NONE', #76196, #170144, #307702, .T. ) ;
#76100 = DIRECTION ( 'NONE',  ( 7.754213937616352364E-16, 1.457167719820522692E-15, -1.000000000000000000 ) ) ;
#76196 = VERTEX_POINT ( 'NONE', #209672 ) ;
#76414 = CARTESIAN_POINT ( 'NONE',  ( 0.05361536248909393870, 4.817806063787123172, 1.655271807787477734 ) ) ;
#76689 = DIRECTION ( 'NONE',  ( -8.291978215169122134E-16, 1.656660919557856692E-15, -1.000000000000000000 ) ) ;
#77617 = ADVANCED_FACE ( 'NONE', ( #39099 ), #269906, .T. ) ;
#77677 = DIRECTION ( 'NONE',  ( -1.156482317317875078E-15, -1.457167719820520326E-15, 1.000000000000000000 ) ) ;
#77833 = ADVANCED_FACE ( 'NONE', ( #241548 ), #67541, .T. ) ;
#77899 = DIRECTION ( 'NONE',  ( -1.000000000000000000, 1.665334536937732345E-16, 8.291978215169125092E-16 ) ) ;
#78288 = CARTESIAN_POINT ( 'NONE',  ( 0.4465819873847864940, -2.886751345947874192, 4.999999999999831246 ) ) ;
#79845 = CARTESIAN_POINT ( 'NONE',  ( 0.1254589685238759467, -5.075027172006762122, 1.210463255698765339 ) ) ;
#80459 = B_SPLINE_CURVE_WITH_KNOTS ( 'NONE', 3,
 ( #237804, #214491, #191053, #24249, #306379, #186426, #119341, #908, #162988, #139670, #287608, #187976, #236262, #215977, #234760, #74151, #164584 ),
 .UNSPECIFIED., .F., .F.,
 ( 4, 2, 2, 2, 2, 1, 2, 2, 4 ),
 ( 0.000000000000000000, 0.1249999999999986677, 0.1874999999999980016, 0.2499999999999973355, 0.3749999999999960587, 0.4374999999999955591, 0.4687499999999953926, 0.4999999999999952260, 1.000000000000000000 ),
 .UNSPECIFIED. ) ;
#80710 = EDGE_CURVE ( 'NONE', #233024, #123924, #127811, .T. ) ;
#80750 = EDGE_CURVE ( 'NONE', #211778, #16737, #298310, .T. ) ;
#80854 = ORIENTED_EDGE ( 'NONE', *, *, #2365, .F. ) ;
#80918 = CARTESIAN_POINT ( 'NONE',  ( 0.1409225543562657168, 1.581550069739841469, -4.999989722615253207 ) ) ;
#81027 = CARTESIAN_POINT ( 'NONE',  ( 3.499999999999725553, -2.886751345947985214, 4.999999999999893419 ) ) ;
#81308 = ORIENTED_EDGE ( 'NONE', *, *, #189424, .T. ) ;
#81344 = CARTESIAN_POINT ( 'NONE',  ( 0.01032664126786960249, -4.116107323847919552, 2.870636901125685370 ) ) ;
#82103 = CARTESIAN_POINT ( 'NONE',  ( 0.2307829843415169224, -2.042091450578158884, 4.999883999490601028 ) ) ;
#82185 = VECTOR ( 'NONE', #94397, 1000.000000000000000 ) ;
#82385 = CARTESIAN_POINT ( 'NONE',  ( 0.1108320877199581722, -5.029659910873895079, -1.288371133016141812 ) ) ;
#82424 = CARTESIAN_POINT ( 'NONE',  ( 0.1309778641603639437, 1.523436999609262932, -4.999997857444198779 ) ) ;
#82678 = DIRECTION ( 'NONE',  ( 1.000000000000000000, -1.665334536937732345E-16, -8.291978215169125092E-16 ) ) ;
#83162 = CARTESIAN_POINT ( 'NONE',  ( 0.08741274291665235285, -1.242181323115213232, -4.999995665878633311 ) ) ;
#83605 = CARTESIAN_POINT ( 'NONE',  ( -4.440892098500626162E-13, 1.942890293094023946E-13, 5.000000000000060396 ) ) ;
#84377 = CARTESIAN_POINT ( 'NONE',  ( 0.07600877459003949066, -3.751852302915081872, 3.501560311358398181 ) ) ;
#84755 = ORIENTED_EDGE ( 'NONE', *, *, #297041, .F. ) ;
#85181 = CARTESIAN_POINT ( 'NONE',  ( 0.4465819873847864940, -2.886751345947874192, 4.999999999999831246 ) ) ;
#85322 = CARTESIAN_POINT ( 'NONE',  ( 0.3129888527892690231, 3.129807496760737440, 4.578946160461459414 ) ) ;
#85605 = ORIENTED_EDGE ( 'NONE', *, *, #233108, .T. ) ;
#85757 = DIRECTION ( 'NONE',  ( -7.806255641895656577E-16, -1.457167719820523481E-15, 1.000000000000000000 ) ) ;
#86324 = EDGE_LOOP ( 'NONE', ( #197390, #266952, #229731, #155807, #71957, #251000 ) ) ;
#86853 = CARTESIAN_POINT ( 'NONE',  ( -1.622915126939238661E-15, 4.086215109847350924, 2.922467819088724550 ) ) ;
#86939 = ORIENTED_EDGE ( 'NONE', *, *, #129198, .T. ) ;
#87383 = DIRECTION ( 'NONE',  ( -1.000000000000000000, 1.665334536937732345E-16, 8.291978215169125092E-16 ) ) ;
#87724 = ORIENTED_EDGE ( 'NONE', *, *, #44367, .F. ) ;
#87856 = DIRECTION ( 'NONE',  ( 1.000000000000000000, -5.551115123125888705E-17, -8.291978215169127064E-16 ) ) ;
#87876 = EDGE_CURVE ( 'NONE', #232891, #71085, #185373, .T. ) ;
#88365 = CARTESIAN_POINT ( 'NONE',  ( 0.1254589685238770014, 3.585805515785881692, 3.789870828005005521 ) ) ;
#89134 = EDGE_CURVE ( 'NONE', #170144, #271999, #232858, .T. ) ;
#89997 = CARTESIAN_POINT ( 'NONE',  ( 0.002594449594101164505, 0.2444826857361745709, 5.000007232761750409 ) ) ;
#90436 = ORIENTED_EDGE ( 'NONE', *, *, #256420, .T. ) ;
#90773 = DIRECTION ( 'NONE',  ( 6.938893903907251057E-16, 1.457167719820522298E-15, -1.000000000000000000 ) ) ;
#91472 = DIRECTION ( 'NONE',  ( -1.000000000000000000, 1.665334536937732345E-16, 8.291978215169125092E-16 ) ) ;
#91802 = DIRECTION ( 'NONE',  ( 5.551115123125753120E-17, 1.000000000000000000, -1.632374790894166798E-15 ) ) ;
#91868 = VECTOR ( 'NONE', #255219, 1000.000000000000000 ) ;
#91874 = ADVANCED_FACE ( 'NONE', ( #170486 ), #111603, .T. ) ;
#93049 = ORIENTED_EDGE ( 'NONE', *, *, #302286, .T. ) ;
#93421 = CIRCLE ( 'NONE', #48640, 4.999999999999984013 ) ;
#93607 = B_SPLINE_CURVE_WITH_KNOTS ( 'NONE', 3,
 ( #107777, #269987, #174864, #81344, #273023, #176354, #56408, #293307, #297886, #84377, #59462, #60993, #14215, #202944, #128087, #151417, #78288 ),
 .UNSPECIFIED., .F., .F.,
 ( 4, 2, 2, 2, 2, 1, 2, 2, 4 ),
 ( 0.000000000000000000, 0.1250000000000008049, 0.1875000000000011657, 0.2500000000000015543, 0.3750000000000018874, 0.4375000000000019984, 0.4687500000000017208, 0.5000000000000014433, 1.000000000000000000 ),
 .UNSPECIFIED. ) ;
#93649 = LINE ( 'NONE', #284831, #96751 ) ;
#93912 = ( GEOMETRIC_REPRESENTATION_CONTEXT ( 3 ) GLOBAL_UNCERTAINTY_ASSIGNED_CONTEXT ( ( #235248 ) ) GLOBAL_UNIT_ASSIGNED_CONTEXT ( ( #245245, #61168, #181165 ) ) REPRESENTATION_CONTEXT ( 'NONE', 'WORKASPACE' ) );
#94318 = CARTESIAN_POINT ( 'NONE',  ( 0.000000000000000000, 0.000000000000000000, 0.000000000000000000 ) ) ;
#94397 = DIRECTION ( 'NONE',  ( -1.000000000000000000, 1.665334536937732345E-16, 8.291978215169125092E-16 ) ) ;
#94466 = CARTESIAN_POINT ( 'NONE',  ( 3.999999999999837019, 2.886751345948512792, -4.999999999999976907 ) ) ;
#94726 = CARTESIAN_POINT ( 'NONE',  ( 3.999999999999781508, 3.053113317719180486E-13, -5.000000000000011546 ) ) ;
#95390 = ORIENTED_EDGE ( 'NONE', *, *, #67749, .T. ) ;
#95510 = CARTESIAN_POINT ( 'NONE',  ( 0.1553040631725291221, 5.161776549262196312, -1.060089046299012461 ) ) ;
#95802 = EDGE_LOOP ( 'NONE', ( #150656, #56392, #149073, #3347 ) ) ;
#95980 = ORIENTED_EDGE ( 'NONE', *, *, #256420, .F. ) ;
#95983 = DIRECTION ( 'NONE',  ( 2.703767092796868853E-16, -0.8660254037844401509, 0.4999999999999975020 ) ) ;
#96379 = ORIENTED_EDGE ( 'NONE', *, *, #183419, .F. ) ;
#96423 = ORIENTED_EDGE ( 'NONE', *, *, #67328, .T. ) ;
#96751 = VECTOR ( 'NONE', #248531, 1000.000000000000000 ) ;
#97023 = CARTESIAN_POINT ( 'NONE',  ( 0.3756388630769350034, 5.650625596146649166, -0.2128293729246693577 ) ) ;
#97984 = ORIENTED_EDGE ( 'NONE', *, *, #80710, .F. ) ;
#98887 = CIRCLE ( 'NONE', #138707, 4.999999999999984013 ) ;
#99363 = ORIENTED_EDGE ( 'NONE', *, *, #139848, .T. ) ;
#99379 = FACE_OUTER_BOUND ( 'NONE', #243204, .T. ) ;
#99394 = CARTESIAN_POINT ( 'NONE',  ( 0.1399738434283747390, -3.542853448039534392, -3.864216081725306395 ) ) ;
#99577 = CIRCLE ( 'NONE', #243987, 4.999999999999984013 ) ;
#99783 = AXIS2_PLACEMENT_3D ( 'NONE', #25195, #209661, #304607 ) ;
#100894 = DIRECTION ( 'NONE',  ( 5.588211122372204470E-16, 0.8660254037844409281, 0.4999999999999960587 ) ) ;
#100989 = VERTEX_POINT ( 'NONE', #193057 ) ;
#101083 = DIRECTION ( 'NONE',  ( 1.000000000000000000, -1.665334536937732345E-16, -8.291978215169125092E-16 ) ) ;
#101225 = CARTESIAN_POINT ( 'NONE',  ( 0.05398198922677379524, 0.9782559932635948030, -5.000083344356356818 ) ) ;
#101480 = CARTESIAN_POINT ( 'NONE',  ( -2.220446049250313081E-13, 4.330127018922463655, -2.500000000000009326 ) ) ;
#101937 = ORIENTED_EDGE ( 'NONE', *, *, #300696, .F. ) ;
#102971 = ADVANCED_FACE ( 'NONE', ( #5407 ), #173666, .F. ) ;
#102980 = CONICAL_SURFACE ( 'NONE', #247191, 4.999999999999984013, 1.047197551196598297 ) ;
#102999 = CARTESIAN_POINT ( 'NONE',  ( 0.000000000000000000, 0.000000000000000000, 0.000000000000000000 ) ) ;
#103629 = CARTESIAN_POINT ( 'NONE',  ( -5.551115123125782702E-14, 5.551115123125782702E-14, -5.000000000000122569 ) ) ;
#103765 = ORIENTED_EDGE ( 'NONE', *, *, #235777, .F. ) ;
#104664 = DIRECTION ( 'NONE',  ( -1.000000000000000000, 1.665334536937732345E-16, 8.291978215169125092E-16 ) ) ;
#104762 = CARTESIAN_POINT ( 'NONE',  ( -2.220446049250313081E-13, -4.330127018921936966, 2.499999999999863221 ) ) ;
#105059 = CARTESIAN_POINT ( 'NONE',  ( 0.1149583132393672963, -1.425331138808006326, -5.000000284544819706 ) ) ;
#105424 = VERTEX_POINT ( 'NONE', #103629 ) ;
#105432 = ORIENTED_EDGE ( 'NONE', *, *, #263221, .F. ) ;
#106259 = PRODUCT_DEFINITION ( 'UNKNOWN', '', #276164, #53859 ) ;
#106527 = EDGE_LOOP ( 'NONE', ( #272949, #144890, #21317 ) ) ;
#106556 = CARTESIAN_POINT ( 'NONE',  ( 0.3041313999746395602, -2.393288036021904208, -4.999999999999980460 ) ) ;
#106622 = DIRECTION ( 'NONE',  ( 5.551115123125753120E-17, 1.000000000000000000, -1.632374790894166798E-15 ) ) ;
#106922 = ORIENTED_EDGE ( 'NONE', *, *, #124913, .F. ) ;
#106998 = CARTESIAN_POINT ( 'NONE',  ( 0.01020801583464894628, -0.4850589319040862768, 5.000052090303967134 ) ) ;
#107008 = VERTEX_POINT ( 'NONE', #235006 ) ;
#107032 = EDGE_CURVE ( 'NONE', #265206, #100989, #210123, .T. ) ;
#107308 = CARTESIAN_POINT ( 'NONE',  ( 0.002581660316969954568, -4.452448694146313279, -2.288075348254833052 ) ) ;
#107344 = CARTESIAN_POINT ( 'NONE',  ( 0.1263889870046454311, 1.495962445656239481, -5.000000294653762722 ) ) ;
#107777 = CARTESIAN_POINT ( 'NONE',  ( -2.220446049250313081E-13, -4.330127018921936966, 2.499999999999863221 ) ) ;
#108738 = VECTOR ( 'NONE', #1686, 1000.000000000000000 ) ;
#110097 = CARTESIAN_POINT ( 'NONE',  ( 0.4465819873853416055, -5.773502691895998851, 2.220446049250313081E-13 ) ) ;
#110242 = CARTESIAN_POINT ( 'NONE',  ( 0.1300128567459492845, 3.572106003859864209, 3.813585953625425073 ) ) ;
#110422 = EDGE_LOOP ( 'NONE', ( #251577, #213515, #209484, #173414 ) ) ;
#110833 = DIRECTION ( 'NONE',  ( -1.418706584319617878E-15, -1.457167719820513226E-15, 1.000000000000000000 ) ) ;
#111078 = CARTESIAN_POINT ( 'NONE',  ( 0.4465819873852305832, 2.886751345948152192, 4.999999999999948486 ) ) ;
#111173 = AXIS2_PLACEMENT_3D ( 'NONE', #137091, #143207, #21685 ) ;
#111357 = FACE_OUTER_BOUND ( 'NONE', #158505, .T. ) ;
#111361 = CARTESIAN_POINT ( 'NONE',  ( 0.4465819873847864940, -2.886751345947874192, 4.999999999999831246 ) ) ;
#111603 = CONICAL_SURFACE ( 'NONE', #127170, 4.999999999999984013, 1.047197551196598297 ) ;
#111790 = CARTESIAN_POINT ( 'NONE',  ( 3.999999999999781508, 5.773502691896609029, -5.551115123125782702E-14 ) ) ;
#112209 = ORIENTED_EDGE ( 'NONE', *, *, #45234, .T. ) ;
#112378 = ORIENTED_EDGE ( 'NONE', *, *, #2365, .T. ) ;
#112696 = ORIENTED_EDGE ( 'NONE', *, *, #57236, .F. ) ;
#113792 = DIRECTION ( 'NONE',  ( 1.942890293094029123E-16, -0.5000000000000032196, -0.8660254037844368202 ) ) ;
#113833 = CIRCLE ( 'NONE', #153570, 4.999999999999984013 ) ;
#114317 = CARTESIAN_POINT ( 'NONE',  ( 3.999999999999892530, -5.773502691896109873, 1.110223024625156540E-13 ) ) ;
#114743 = VECTOR ( 'NONE', #69297, 1000.000000000000114 ) ;
#115543 = EDGE_LOOP ( 'NONE', ( #161985, #54634, #96423 ) ) ;
#116370 = VERTEX_POINT ( 'NONE', #240956 ) ;
#116834 = VECTOR ( 'NONE', #159480, 1000.000000000000114 ) ;
#117374 = ORIENTED_EDGE ( 'NONE', *, *, #21725, .F. ) ;
#118058 = DIRECTION ( 'NONE',  ( -7.754213937616352364E-16, -1.457167719820522692E-15, 1.000000000000000000 ) ) ;
#118546 = AXIS2_PLACEMENT_3D ( 'NONE', #31847, #195608, #151777 ) ;
#118850 = ORIENTED_EDGE ( 'NONE', *, *, #305845, .F. ) ;
#119091 = DIRECTION ( 'NONE',  ( 1.000000000000000000, -1.665334536937732345E-16, -8.291978215169125092E-16 ) ) ;
#119341 = CARTESIAN_POINT ( 'NONE',  ( 0.02592293447519528060, 3.993020639879589329, -3.083886571170100233 ) ) ;
#120396 = CARTESIAN_POINT ( 'NONE',  ( 2.412349833780248155E-15, 4.574038927997020387, -2.077532180911262571 ) ) ;
#121762 = ORIENTED_EDGE ( 'NONE', *, *, #36366, .T. ) ;
#121783 = ORIENTED_EDGE ( 'NONE', *, *, #262508, .T. ) ;
#121787 = VECTOR ( 'NONE', #22486, 1000.000000000000000 ) ;
#121847 = LINE ( 'NONE', #143725, #20081 ) ;
#121903 = AXIS2_PLACEMENT_3D ( 'NONE', #114317, #231261, #203338 ) ;
#123125 = CARTESIAN_POINT ( 'NONE',  ( 0.01355371666408335639, 4.574667445678036515, 2.076398648200478370 ) ) ;
#123924 = VERTEX_POINT ( 'NONE', #296603 ) ;
#124284 = CARTESIAN_POINT ( 'NONE',  ( 0.1254589685238754748, -3.585805515785753350, -3.789870828005118319 ) ) ;
#124673 = AXIS2_PLACEMENT_3D ( 'NONE', #8013, #173223, #196688 ) ;
#124913 = EDGE_CURVE ( 'NONE', #107008, #116370, #222309, .T. ) ;
#125190 = CARTESIAN_POINT ( 'NONE',  ( 23.99999999999991118, 2.220446049250313081E-13, -2.445499999999850793 ) ) ;
#125346 = CARTESIAN_POINT ( 'NONE',  ( 0.4465819873845644494, -2.886751345948485259, -4.999999999999893419 ) ) ;
#125426 = CARTESIAN_POINT ( 'NONE',  ( 3.500000000000003109, -4.330127018922075521, -2.500000000000064837 ) ) ;
#125666 = CARTESIAN_POINT ( 'NONE',  ( -4.440892098500626162E-13, 1.942890293094023946E-13, 5.000000000000060396 ) ) ;
#125971 = FACE_OUTER_BOUND ( 'NONE', #196322, .T. ) ;
#126071 = ORIENTED_EDGE ( 'NONE', *, *, #297041, .T. ) ;
#126599 = ADVANCED_FACE ( 'NONE', ( #307791 ), #190158, .T. ) ;
#127170 = AXIS2_PLACEMENT_3D ( 'NONE', #27057, #119091, #72371 ) ;
#127316 = CARTESIAN_POINT ( 'NONE',  ( 0.08280972714761880571, -1.211960593171399925, 4.999991652005109977 ) ) ;
#127674 = DIRECTION ( 'NONE',  ( -7.806255641895656577E-16, -1.457167719820523481E-15, 1.000000000000000000 ) ) ;
#127675 = CARTESIAN_POINT ( 'NONE',  ( 0.000000000000000000, 0.000000000000000000, 0.000000000000000000 ) ) ;
#127811 = CIRCLE ( 'NONE', #18331, 2.999999999999990230 ) ;
#128087 = CARTESIAN_POINT ( 'NONE',  ( 0.1960121704250824826, -3.366965495784641771, 4.168235645015306190 ) ) ;
#129198 = EDGE_CURVE ( 'NONE', #285480, #205951, #93607, .T. ) ;
#129392 = AXIS2_PLACEMENT_3D ( 'NONE', #147787, #101083, #200850 ) ;
#129519 = FACE_BOUND ( 'NONE', #10036, .T. ) ;
#129995 = VECTOR ( 'NONE', #195640, 999.9999999999998863 ) ;
#130417 = CARTESIAN_POINT ( 'NONE',  ( 0.1292440524373898447, -1.513106008140519432, 4.999997762297969217 ) ) ;
#131147 = DIRECTION ( 'NONE',  ( -1.000000000000000000, 1.665334536937732345E-16, 8.291978215169125092E-16 ) ) ;
#131346 = AXIS2_PLACEMENT_3D ( 'NONE', #71074, #159933, #170710 ) ;
#132010 = ADVANCED_FACE ( 'NONE', ( #236254 ), #22703, .T. ) ;
#132076 = CARTESIAN_POINT ( 'NONE',  ( 0.2314535083887000189, 3.307850122719201202, 4.270783280463883891 ) ) ;
#132227 = CARTESIAN_POINT ( 'NONE',  ( 0.08810828615388988094, -4.953721581161435239, -1.419874555537807614 ) ) ;
#132461 = AXIS2_PLACEMENT_3D ( 'NONE', #182501, #131147, #110833 ) ;
#132583 = CYLINDRICAL_SURFACE ( 'NONE', #23653, 2.999999999999990230 ) ;
#133445 = CARTESIAN_POINT ( 'NONE',  ( 0.04083206333860757431, -0.8522768382002150478, 5.000052865369307042 ) ) ;
#134155 = DIRECTION ( 'NONE',  ( -7.754213937616352364E-16, -1.457167719820522692E-15, 1.000000000000000000 ) ) ;
#134747 = DIRECTION ( 'NONE',  ( -1.418706584319617878E-15, -1.457167719820513226E-15, 1.000000000000000000 ) ) ;
#134915 = EDGE_CURVE ( 'NONE', #162112, #107008, #277285, .T. ) ;
#135435 = EDGE_LOOP ( 'NONE', ( #268728, #25995, #87724, #300107, #138421, #106922 ) ) ;
#135531 = PLANE ( 'NONE',  #68100 ) ;
#137091 = CARTESIAN_POINT ( 'NONE',  ( 3.999999999999948042, 2.775557561562891351E-14, 0.000000000000000000 ) ) ;
#138293 = CARTESIAN_POINT ( 'NONE',  ( 0.08873970421968961630, 1.251643535100565252, 5.000011732730002656 ) ) ;
#138421 = ORIENTED_EDGE ( 'NONE', *, *, #67328, .F. ) ;
#138707 = AXIS2_PLACEMENT_3D ( 'NONE', #147958, #268004, #264985 ) ;
#139257 = ADVANCED_BREP_SHAPE_REPRESENTATION ( '', ( #303077, #267245 ), #93912 ) ;
#139392 = DIRECTION ( 'NONE',  ( 6.938893903907251057E-16, 1.457167719820522298E-15, -1.000000000000000000 ) ) ;
#139670 = CARTESIAN_POINT ( 'NONE',  ( 0.07600877458989056812, 3.751852302917598081, -3.501560311355304655 ) ) ;
#139848 = EDGE_CURVE ( 'NONE', #76196, #265206, #172842, .T. ) ;
#139900 = CARTESIAN_POINT ( 'NONE',  ( 4.000000000000114575, 3.330669073875469621E-13, 3.000000000000162093 ) ) ;
#139977 = EDGE_LOOP ( 'NONE', ( #101937, #144995, #179439, #264982, #154833, #197768 ) ) ;
#140246 = EDGE_LOOP ( 'NONE', ( #23279, #85605, #1693 ) ) ;
#140707 = CARTESIAN_POINT ( 'NONE',  ( 0.1718005020755094259, 5.205680392145835000, -0.9839503124576651771 ) ) ;
#141276 = CARTESIAN_POINT ( 'NONE',  ( 3.499999999999947597, 3.053113317719180486E-13, -5.000000000000011546 ) ) ;
#141368 = CARTESIAN_POINT ( 'NONE',  ( 0.4465819873852305832, 2.886751345948152192, 4.999999999999948486 ) ) ;
#142002 = EDGE_LOOP ( 'NONE', ( #168762, #223966, #164943, #262602 ) ) ;
#142821 = DIRECTION ( 'NONE',  ( -7.754213937616353350E-16, -1.457167719820522692E-15, 1.000000000000000000 ) ) ;
#143207 = DIRECTION ( 'NONE',  ( -1.000000000000000000, 1.665334536937732345E-16, 8.291978215169125092E-16 ) ) ;
#143510 = ORIENTED_EDGE ( 'NONE', *, *, #76084, .F. ) ;
#143593 = ORIENTED_EDGE ( 'NONE', *, *, #26444, .T. ) ;
#143725 = CARTESIAN_POINT ( 'NONE',  ( 3.499999999999836575, -2.886751345947930147, -4.999999999999997335 ) ) ;
#143782 = EDGE_LOOP ( 'NONE', ( #297404, #62209, #44627 ) ) ;
#144225 = EDGE_CURVE ( 'NONE', #36029, #57986, #50038, .T. ) ;
#144777 = ORIENTED_EDGE ( 'NONE', *, *, #89134, .T. ) ;
#144890 = ORIENTED_EDGE ( 'NONE', *, *, #80750, .T. ) ;
#144995 = ORIENTED_EDGE ( 'NONE', *, *, #251229, .T. ) ;
#145096 = DIRECTION ( 'NONE',  ( -7.216449660063519485E-16, -0.5000000000000036637, 0.8660254037844365982 ) ) ;
#146476 = CARTESIAN_POINT ( 'NONE',  ( 0.1015620059911025580, 4.999256857198743020, 1.341022227229429875 ) ) ;
#146976 = SHAPE_REPRESENTATION ( '\X2\0411043e043b0442\X0\ \X2\041c\X0\6\X2\0445\X0\20 DIN 933 \X2\0410\X0\2', ( #267245 ), #93912 ) ;
#147068 = ORIENTED_EDGE ( 'NONE', *, *, #251229, .F. ) ;
#147787 = CARTESIAN_POINT ( 'NONE',  ( 0.000000000000000000, 0.000000000000000000, 0.000000000000000000 ) ) ;
#147958 = CARTESIAN_POINT ( 'NONE',  ( 0.000000000000000000, 0.000000000000000000, 0.000000000000000000 ) ) ;
#148358 = CARTESIAN_POINT ( 'NONE',  ( 0.4465819873853416055, -5.773502691895998851, 2.220446049250313081E-13 ) ) ;
#149073 = ORIENTED_EDGE ( 'NONE', *, *, #302286, .F. ) ;
#149266 = ADVANCED_FACE ( 'NONE', ( #306269 ), #231571, .T. ) ;
#149435 = CARTESIAN_POINT ( 'NONE',  ( 0.02129869761499073033, -4.635918773075677457, -1.970336903476171964 ) ) ;
#149917 = CARTESIAN_POINT ( 'NONE',  ( 0.3129888527904557405, -5.530387445903523158, 0.4210197209158159648 ) ) ;
#150305 = VECTOR ( 'NONE', #35978, 1000.000000000000000 ) ;
#150541 = ORIENTED_EDGE ( 'NONE', *, *, #26444, .F. ) ;
#150656 = ORIENTED_EDGE ( 'NONE', *, *, #80710, .T. ) ;
#150669 = CARTESIAN_POINT ( 'NONE',  ( -1.110223024625156540E-13, -4.330127018922103055, -2.499999999999981348 ) ) ;
#151001 = FACE_OUTER_BOUND ( 'NONE', #290570, .T. ) ;
#151417 = CARTESIAN_POINT ( 'NONE',  ( 0.3046883088179612176, -3.132518406499150476, 4.574318964298426771 ) ) ;
#151777 = DIRECTION ( 'NONE',  ( -7.754213937616353350E-16, -1.457167719820522692E-15, 1.000000000000000000 ) ) ;
#152507 = CARTESIAN_POINT ( 'NONE',  ( 0.1015405051085978144, 1.342936238936868865, -4.999998821384857628 ) ) ;
#153357 = CIRCLE ( 'NONE', #153575, 4.999999999999984013 ) ;
#153570 = AXIS2_PLACEMENT_3D ( 'NONE', #67992, #41490, #231680 ) ;
#153575 = AXIS2_PLACEMENT_3D ( 'NONE', #165944, #306208, #215815 ) ;
#153692 = EDGE_LOOP ( 'NONE', ( #264155, #173111, #204681, #21229, #158217, #260011 ) ) ;
#154406 = CONICAL_SURFACE ( 'NONE', #99783, 4.999999999999984013, 1.047197551196598297 ) ;
#154833 = ORIENTED_EDGE ( 'NONE', *, *, #180280, .F. ) ;
#155594 = CARTESIAN_POINT ( 'NONE',  ( 0.2321922813063515001, 2.048480972550958512, -4.999888386246657213 ) ) ;
#155721 = DIRECTION ( 'NONE',  ( -1.000000000000000000, 1.665334536937732345E-16, 8.291978215169125092E-16 ) ) ;
#155807 = ORIENTED_EDGE ( 'NONE', *, *, #201669, .F. ) ;
#157424 = CARTESIAN_POINT ( 'NONE',  ( 3.500000000000169642, 1.942890293094023946E-13, -6.938893903907228378E-15 ) ) ;
#158073 = DIRECTION ( 'NONE',  ( 0.000000000000000000, 0.000000000000000000, 1.000000000000000000 ) ) ;
#158124 = VECTOR ( 'NONE', #263678, 1000.000000000000000 ) ;
#158217 = ORIENTED_EDGE ( 'NONE', *, *, #219277, .F. ) ;
#158228 = DIRECTION ( 'NONE',  ( -1.000000000000000000, 1.665334536937732345E-16, 8.291978215169125092E-16 ) ) ;
#158505 = EDGE_LOOP ( 'NONE', ( #304532, #38035, #97984, #242160 ) ) ;
#158781 = VECTOR ( 'NONE', #91472, 1000.000000000000000 ) ;
#159009 = LINE ( 'NONE', #63969, #150305 ) ;
#159480 = DIRECTION ( 'NONE',  ( -1.942890293094029123E-16, 0.5000000000000032196, 0.8660254037844368202 ) ) ;
#159933 = DIRECTION ( 'NONE',  ( 1.000000000000000000, -5.551115123125888705E-17, -8.291978215169127064E-16 ) ) ;
#160013 = CARTESIAN_POINT ( 'NONE',  ( 3.500000000000169642, 2.886751345948346259, 4.999999999999997335 ) ) ;
#160109 = CARTESIAN_POINT ( 'NONE',  ( -4.440892098500626162E-13, 1.942890293094023946E-13, 5.000000000000060396 ) ) ;
#160460 = ADVANCED_FACE ( 'NONE', ( #129519, #164784 ), #71274, .T. ) ;
#161985 = ORIENTED_EDGE ( 'NONE', *, *, #144225, .T. ) ;
#162112 = VERTEX_POINT ( 'NONE', #94726 ) ;
#162187 = CARTESIAN_POINT ( 'NONE',  ( -1.110223024625156540E-13, 4.330127018922408588, 2.500000000000224265 ) ) ;
#162715 = DIRECTION ( 'NONE',  ( 5.551115123125753120E-17, 1.000000000000000000, -1.632374790894166798E-15 ) ) ;
#162932 = LINE ( 'NONE', #307859, #82185 ) ;
#162988 = CARTESIAN_POINT ( 'NONE',  ( 0.05361536248915416136, 3.842410467611130365, -3.344706537846538374 ) ) ;
#163156 = CARTESIAN_POINT ( 'NONE',  ( 0.1022919412350523222, 1.343117292655120254, 5.000004191564057621 ) ) ;
#163248 = ORIENTED_EDGE ( 'NONE', *, *, #238731, .F. ) ;
#164071 = CARTESIAN_POINT ( 'NONE',  ( 0.2063483387603349262, 5.293655537525041588, -0.8313852261764893559 ) ) ;
#164584 = CARTESIAN_POINT ( 'NONE',  ( 0.4465819873847864940, 2.886751345948429304, -4.999999999999942268 ) ) ;
#164784 = FACE_OUTER_BOUND ( 'NONE', #40696, .T. ) ;
#164943 = ORIENTED_EDGE ( 'NONE', *, *, #249548, .T. ) ;
#165483 = ORIENTED_EDGE ( 'NONE', *, *, #17614, .T. ) ;
#165944 = CARTESIAN_POINT ( 'NONE',  ( 0.000000000000000000, 0.000000000000000000, 0.000000000000000000 ) ) ;
#166287 = CARTESIAN_POINT ( 'NONE',  ( 0.05397589337728850994, 0.9782072607373859530, 5.000082117159020179 ) ) ;
#167510 = DIRECTION ( 'NONE',  ( 1.000000000000000000, -1.665334536937732345E-16, -8.291978215169125092E-16 ) ) ;
#168286 = CARTESIAN_POINT ( 'NONE',  ( 24.00000000000013145, 3.608224830031758756E-13, -1.665334536937734811E-13 ) ) ;
#168664 = DIRECTION ( 'NONE',  ( 6.106226635438357028E-16, 0.5000000000000036637, -0.8660254037844365982 ) ) ;
#168762 = ORIENTED_EDGE ( 'NONE', *, *, #219939, .F. ) ;
#168777 = EDGE_LOOP ( 'NONE', ( #171087, #143593, #112378 ) ) ;
#168890 = ORIENTED_EDGE ( 'NONE', *, *, #65721, .T. ) ;
#170144 = VERTEX_POINT ( 'NONE', #49849 ) ;
#170195 = LINE ( 'NONE', #244991, #66129 ) ;
#170477 = ORIENTED_EDGE ( 'NONE', *, *, #226988, .F. ) ;
#170486 = FACE_OUTER_BOUND ( 'NONE', #106527, .T. ) ;
#170710 = DIRECTION ( 'NONE',  ( 5.551115123125753120E-17, 1.000000000000000000, -1.632374790894166798E-15 ) ) ;
#171087 = ORIENTED_EDGE ( 'NONE', *, *, #229615, .T. ) ;
#171147 = VERTEX_POINT ( 'NONE', #60959 ) ;
#171702 = ADVANCED_FACE ( 'NONE', ( #151001 ), #246199, .T. ) ;
#171705 = PLANE ( 'NONE',  #275432 ) ;
#172842 = LINE ( 'NONE', #74798, #199905 ) ;
#172872 = CARTESIAN_POINT ( 'NONE',  ( -5.551115123125782702E-14, 5.551115123125782702E-14, -5.000000000000122569 ) ) ;
#172936 = CARTESIAN_POINT ( 'NONE',  ( 0.02129869761498870764, 4.635918773076607380, 1.970336903473951962 ) ) ;
#173111 = ORIENTED_EDGE ( 'NONE', *, *, #183419, .T. ) ;
#173223 = DIRECTION ( 'NONE',  ( -1.000000000000000000, 1.665334536937732345E-16, 8.291978215169125092E-16 ) ) ;
#173414 = ORIENTED_EDGE ( 'NONE', *, *, #286730, .F. ) ;
#173666 = PLANE ( 'NONE',  #118546 ) ;
#174105 = CARTESIAN_POINT ( 'NONE',  ( 0.1392041295230341813, -1.571658136766019842, 4.999989300523219882 ) ) ;
#174403 = CARTESIAN_POINT ( 'NONE',  ( 0.4465819873853416055, -5.773502691895998851, 2.220446049250313081E-13 ) ) ;
#174506 = CARTESIAN_POINT ( 'NONE',  ( 0.4465819873848975163, 5.773502691896470473, 2.775557561562891351E-14 ) ) ;
#174688 = DIRECTION ( 'NONE',  ( 7.754213937616352364E-16, 1.457167719820522692E-15, -1.000000000000000000 ) ) ;
#174864 = CARTESIAN_POINT ( 'NONE',  ( 0.002581660316965325025, -4.207755724428833055, 2.711896004059346943 ) ) ;
#174880 = CARTESIAN_POINT ( 'NONE',  ( 0.04014686992763885631, -4.811068438378510947, 1.667766004828629578 ) ) ;
#175061 = CARTESIAN_POINT ( 'NONE',  ( 23.44549999999984280, 1.942890293094023946E-13, 2.999999999999947153 ) ) ;
#175096 = VERTEX_POINT ( 'NONE', #139900 ) ;
#175176 = CARTESIAN_POINT ( 'NONE',  ( 3.857149813779668472E-15, -0.1217142121631550056, -4.999999999999984901 ) ) ;
#176003 = CARTESIAN_POINT ( 'NONE',  ( 0.02592293447521106312, 4.667234432961817170, 1.916114026388810565 ) ) ;
#176354 = CARTESIAN_POINT ( 'NONE',  ( 0.02129869761498403430, -4.024321198958281443, 3.029654975631749458 ) ) ;
#176726 = AXIS2_PLACEMENT_3D ( 'NONE', #56330, #104664, #134155 ) ;
#176965 = VERTEX_POINT ( 'NONE', #193678 ) ;
#177126 = CARTESIAN_POINT ( 'NONE',  ( 0.2056328353863476066, -1.923987956423306889, 4.999902944771973168 ) ) ;
#177370 = ORIENTED_EDGE ( 'NONE', *, *, #124913, .T. ) ;
#177421 = CARTESIAN_POINT ( 'NONE',  ( 0.1960121704286356403, -5.293280705443637046, -0.8317598304996755010 ) ) ;
#177460 = CARTESIAN_POINT ( 'NONE',  ( 0.08407728772549773189, 1.221236544312104266, -5.000013020767170246 ) ) ;
#177492 = DIRECTION ( 'NONE',  ( -7.754213937616352364E-16, -1.457167719820522692E-15, 1.000000000000000000 ) ) ;
#177635 = DIRECTION ( 'NONE',  ( 1.000000000000000000, -5.551115123125888705E-17, -8.291978215169127064E-16 ) ) ;
#177775 = AXIS2_PLACEMENT_3D ( 'NONE', #11767, #203564, #90773 ) ;
#178714 = ORIENTED_EDGE ( 'NONE', *, *, #87876, .F. ) ;
#178817 = CARTESIAN_POINT ( 'NONE',  ( 0.4465819873852305832, 2.886751345948152192, 4.999999999999948486 ) ) ;
#178970 = CARTESIAN_POINT ( 'NONE',  ( 0.01355371666408555775, -4.574667445676475097, -2.076398648203941821 ) ) ;
#179439 = ORIENTED_EDGE ( 'NONE', *, *, #229615, .F. ) ;
#179510 = B_SPLINE_CURVE_WITH_KNOTS ( 'NONE', 3,
 ( #31011, #200945, #107308, #54393, #178970, #149435, #295878, #244607, #34075, #197854, #132227, #227308, #82385, #250758, #177421, #292832, #174403 ),
 .UNSPECIFIED., .F., .F.,
 ( 4, 2, 2, 2, 2, 1, 2, 2, 4 ),
 ( 0.000000000000000000, 0.1250000000000001110, 0.1875000000000003886, 0.2500000000000006661, 0.3750000000000014433, 0.4375000000000016098, 0.4687500000000016098, 0.5000000000000015543, 1.000000000000000000 ),
 .UNSPECIFIED. ) ;
#179835 = FACE_OUTER_BOUND ( 'NONE', #193010, .T. ) ;
#179909 = VECTOR ( 'NONE', #74678, 1000.000000000000000 ) ;
#179939 = DIRECTION ( 'NONE',  ( 1.000000000000000000, 0.000000000000000000, 0.000000000000000000 ) ) ;
#180118 = DIRECTION ( 'NONE',  ( -1.418706584319617878E-15, -1.457167719820513226E-15, 1.000000000000000000 ) ) ;
#180280 = EDGE_CURVE ( 'NONE', #57986, #211778, #170195, .T. ) ;
#180369 = CARTESIAN_POINT ( 'NONE',  ( 0.2063483387603301522, 3.366828494962425644, 4.168747561292606818 ) ) ;
#181165 = ( NAMED_UNIT ( * ) SI_UNIT ( $, .STERADIAN. ) SOLID_ANGLE_UNIT ( ) );
#181507 = CARTESIAN_POINT ( 'NONE',  ( 23.44550000000000978, 1.387778780781445676E-13, -6.938893903907228378E-15 ) ) ;
#182501 = CARTESIAN_POINT ( 'NONE',  ( 24.00000000000013145, 3.608224830031758756E-13, -1.665334536937734811E-13 ) ) ;
#183182 = EDGE_LOOP ( 'NONE', ( #240062, #178714 ) ) ;
#183416 = DIRECTION ( 'NONE',  ( 7.754213937616352364E-16, 1.457167719820522692E-15, -1.000000000000000000 ) ) ;
#183419 = EDGE_CURVE ( 'NONE', #234587, #205951, #60694, .T. ) ;
#183443 = CARTESIAN_POINT ( 'NONE',  ( 0.04014686992763948775, 3.849861946942854996, 3.332624484563243339 ) ) ;
#184848 = ORIENTED_EDGE ( 'NONE', *, *, #67279, .T. ) ;
#184991 = AXIS2_PLACEMENT_3D ( 'NONE', #94318, #167510, #45964 ) ;
#185100 = CARTESIAN_POINT ( 'NONE',  ( 3.999999999999781508, 5.773502691896609029, -5.551115123125782702E-14 ) ) ;
#185373 = CIRCLE ( 'NONE', #6244, 2.445499999999992013 ) ;
#185441 = ORIENTED_EDGE ( 'NONE', *, *, #67966, .F. ) ;
#185484 = CIRCLE ( 'NONE', #245150, 4.999999999999984013 ) ;
#185792 = EDGE_LOOP ( 'NONE', ( #112696, #194269, #118850, #150541, #147068, #209893 ) ) ;
#186143 = VERTEX_POINT ( 'NONE', #4564 ) ;
#186145 = DIRECTION ( 'NONE',  ( -1.000000000000000000, 1.665334536937732345E-16, 8.291978215169125092E-16 ) ) ;
#186426 = CARTESIAN_POINT ( 'NONE',  ( 0.02129869761499213546, 4.024321198957555801, -3.029654975632712244 ) ) ;
#186558 = FACE_OUTER_BOUND ( 'NONE', #139977, .T. ) ;
#187976 = CARTESIAN_POINT ( 'NONE',  ( 0.1015620059911368639, 3.660987744422981471, -3.658972324759690142 ) ) ;
#189424 = EDGE_CURVE ( 'NONE', #305942, #16737, #99577, .T. ) ;
#190158 = CONICAL_SURFACE ( 'NONE', #184991, 4.999999999999984013, 1.047197551196598297 ) ;
#190657 = ORIENTED_EDGE ( 'NONE', *, *, #260163, .F. ) ;
#191053 = CARTESIAN_POINT ( 'NONE',  ( 0.002581660316971184053, 4.207755724427714838, -2.711896004061084220 ) ) ;
#191240 = ADVANCED_FACE ( 'NONE', ( #179835 ), #204871, .F. ) ;
#193010 = EDGE_LOOP ( 'NONE', ( #105432, #227903, #281914, #246708, #81308, #80854 ) ) ;
#193057 = CARTESIAN_POINT ( 'NONE',  ( 3.499999999999836575, 2.886751345948485259, -4.999999999999997335 ) ) ;
#193654 = CARTESIAN_POINT ( 'NONE',  ( 0.3129888527892752959, 5.530387445901220111, -0.4210197209190574830 ) ) ;
#193678 = CARTESIAN_POINT ( 'NONE',  ( 3.499999999999892086, -5.773502691896109873, 1.179611963664228824E-13 ) ) ;
#194000 = EDGE_CURVE ( 'NONE', #305942, #285480, #61632, .T. ) ;
#194039 = ORIENTED_EDGE ( 'NONE', *, *, #201669, .T. ) ;
#194042 = CIRCLE ( 'NONE', #59581, 4.999999999999984013 ) ;
#194269 = ORIENTED_EDGE ( 'NONE', *, *, #55965, .T. ) ;
#194611 = CARTESIAN_POINT ( 'NONE',  ( 23.44550000000000978, 1.387778780781445676E-13, -6.938893903907228378E-15 ) ) ;
#194649 = CIRCLE ( 'NONE', #264969, 4.999999999999984013 ) ;
#195033 = CARTESIAN_POINT ( 'NONE',  ( 3.499999999999725553, 4.330127018922463655, -2.499999999999898304 ) ) ;
#195453 = EDGE_LOOP ( 'NONE', ( #210264, #194039, #27917 ) ) ;
#195608 = DIRECTION ( 'NONE',  ( -1.000000000000000000, 1.665334536937755765E-16, -7.754213937616351378E-16 ) ) ;
#195640 = DIRECTION ( 'NONE',  ( -0.7071067811865536790, -9.436895709313832566E-16, 0.7071067811865414665 ) ) ;
#196322 = EDGE_LOOP ( 'NONE', ( #112209, #95390, #288463 ) ) ;
#196513 = FACE_OUTER_BOUND ( 'NONE', #206351, .T. ) ;
#196688 = DIRECTION ( 'NONE',  ( -7.806255641895656577E-16, -1.457167719820523481E-15, 1.000000000000000000 ) ) ;
#196877 = ADVANCED_FACE ( 'NONE', ( #31320 ), #154406, .T. ) ;
#197097 = CARTESIAN_POINT ( 'NONE',  ( 0.1951628124997529246, -1.922662528332894638, -4.999995447282558736 ) ) ;
#197258 = CARTESIAN_POINT ( 'NONE',  ( -2.220446049250313081E-13, -4.330127018921936966, 2.499999999999863221 ) ) ;
#197390 = ORIENTED_EDGE ( 'NONE', *, *, #139848, .F. ) ;
#197544 = DIRECTION ( 'NONE',  ( 1.000000000000000000, -1.665334536937732099E-16, -8.291978215169125092E-16 ) ) ;
#197768 = ORIENTED_EDGE ( 'NONE', *, *, #144225, .F. ) ;
#197854 = CARTESIAN_POINT ( 'NONE',  ( 0.07600877458897624395, -4.908366333974972129, -1.498419249893603755 ) ) ;
#198338 = CARTESIAN_POINT ( 'NONE',  ( 0.1399738434290560829, -5.117936016507842467, 1.136093047023201796 ) ) ;
#198476 = DIRECTION ( 'NONE',  ( -0.7071067811865536790, 9.436895709313836510E-16, -0.7071067811865412445 ) ) ;
#199128 = CARTESIAN_POINT ( 'NONE',  ( 0.1300128567457814188, -3.572106003860080925, -3.813585953624810010 ) ) ;
#199905 = VECTOR ( 'NONE', #267930, 1000.000000000000000 ) ;
#200850 = DIRECTION ( 'NONE',  ( 7.754213937616352364E-16, 1.457167719820522692E-15, -1.000000000000000000 ) ) ;
#200945 = CARTESIAN_POINT ( 'NONE',  ( 1.624609192833750811E-15, -4.391433704701706020, -2.393813705386206969 ) ) ;
#201235 = FACE_OUTER_BOUND ( 'NONE', #269709, .T. ) ;
#201669 = EDGE_CURVE ( 'NONE', #8382, #105424, #255098, .T. ) ;
#202176 = CARTESIAN_POINT ( 'NONE',  ( -3.906939469210460314E-15, -0.2434612781657670144, 4.999999999999982236 ) ) ;
#202500 = CARTESIAN_POINT ( 'NONE',  ( 0.04151119350568401034, 0.8588945123379695401, -5.000140409326043311 ) ) ;
#202944 = CARTESIAN_POINT ( 'NONE',  ( 0.1158374098179013462, -3.614690769898282863, 3.739172498445523907 ) ) ;
#203112 = FACE_OUTER_BOUND ( 'NONE', #86324, .T. ) ;
#203338 = DIRECTION ( 'NONE',  ( -1.000000000000000000, 1.665334536937732099E-16, 8.291978215169125092E-16 ) ) ;
#203564 = DIRECTION ( 'NONE',  ( 1.000000000000000000, -1.665334536937732345E-16, -8.291978215169125092E-16 ) ) ;
#204681 = ORIENTED_EDGE ( 'NONE', *, *, #129198, .F. ) ;
#204871 = PLANE ( 'NONE',  #65059 ) ;
#205568 = DIRECTION ( 'NONE',  ( -1.000000000000000000, 1.665334536937732345E-16, 8.291978215169125092E-16 ) ) ;
#205589 = CONICAL_SURFACE ( 'NONE', #220441, 2.445499999999992013, 0.7853981633974419507 ) ;
#205824 = CIRCLE ( 'NONE', #111173, 2.999999999999990230 ) ;
#205951 = VERTEX_POINT ( 'NONE', #111361 ) ;
#206216 = CARTESIAN_POINT ( 'NONE',  ( 3.499999999999892086, -5.773502691896109873, 1.179611963664228824E-13 ) ) ;
#206351 = EDGE_LOOP ( 'NONE', ( #184848, #99363, #90436 ) ) ;
#206971 = DIRECTION ( 'NONE',  ( 7.216449660063519485E-16, 0.5000000000000036637, -0.8660254037844365982 ) ) ;
#207243 = VECTOR ( 'NONE', #155721, 1000.000000000000000 ) ;
#208830 = CIRCLE ( 'NONE', #288400, 4.999999999999984013 ) ;
#209484 = ORIENTED_EDGE ( 'NONE', *, *, #289569, .T. ) ;
#209661 = DIRECTION ( 'NONE',  ( 1.000000000000000000, -1.665334536937732345E-16, -8.291978215169125092E-16 ) ) ;
#209672 = CARTESIAN_POINT ( 'NONE',  ( 3.499999999999836575, -2.886751345947930147, -4.999999999999997335 ) ) ;
#209893 = ORIENTED_EDGE ( 'NONE', *, *, #50750, .F. ) ;
#210123 = LINE ( 'NONE', #211647, #304065 ) ;
#210264 = ORIENTED_EDGE ( 'NONE', *, *, #305845, .T. ) ;
#210363 = CARTESIAN_POINT ( 'NONE',  ( 3.499999999999836575, 5.000000000000254019, -1.110223024625156540E-13 ) ) ;
#210493 = LINE ( 'NONE', #18707, #217772 ) ;
#210942 = CARTESIAN_POINT ( 'NONE',  ( 0.2314535083887050981, 5.352531876299171820, -0.7292905979543623518 ) ) ;
#211647 = CARTESIAN_POINT ( 'NONE',  ( 3.499999999999836575, 2.886751345948485259, -4.999999999999997335 ) ) ;
#211778 = VERTEX_POINT ( 'NONE', #111078 ) ;
#213107 = CARTESIAN_POINT ( 'NONE',  ( 0.04134584421149037348, 0.8569423463120251494, 5.000138033532493864 ) ) ;
#213176 = DIRECTION ( 'NONE',  ( 1.665334536937725196E-16, 1.000000000000000000, -1.708702623837145127E-15 ) ) ;
#213515 = ORIENTED_EDGE ( 'NONE', *, *, #87876, .T. ) ;
#214220 = DIRECTION ( 'NONE',  ( 1.000000000000000000, -1.665334536937732345E-16, -8.291978215169125092E-16 ) ) ;
#214491 = CARTESIAN_POINT ( 'NONE',  ( 2.732475348283168711E-15, 4.268820333138326539, -2.606186294621294142 ) ) ;
#215455 = ADVANCED_FACE ( 'NONE', ( #186558 ), #65066, .F. ) ;
#215520 = CARTESIAN_POINT ( 'NONE',  ( 0.1399738434286974531, 5.117936016507015573, -1.136093047024028024 ) ) ;
#215815 = DIRECTION ( 'NONE',  ( 7.754213937616352364E-16, 1.457167719820522692E-15, -1.000000000000000000 ) ) ;
#215977 = CARTESIAN_POINT ( 'NONE',  ( 0.1158374098180646738, 3.614690769898170952, -3.739172498446004411 ) ) ;
#217241 = CARTESIAN_POINT ( 'NONE',  ( 23.99999999999991118, 2.220446049250313081E-13, -2.445499999999850793 ) ) ;
#217772 = VECTOR ( 'NONE', #113792, 1000.000000000000114 ) ;
#218263 = ORIENTED_EDGE ( 'NONE', *, *, #194000, .T. ) ;
#219277 = EDGE_CURVE ( 'NONE', #176965, #304535, #68701, .T. ) ;
#219455 = B_SPLINE_CURVE_WITH_KNOTS ( 'NONE', 3,
 ( #58264, #175176, #9945, #268746, #225032, #30271, #292086, #31796, #83162, #267182, #265670, #105059, #197097, #106556, #125346 ),
 .UNSPECIFIED., .F., .F.,
 ( 4, 2, 2, 2, 1, 2, 2, 4 ),
 ( 0.000000000000000000, 0.1250000000000001388, 0.2500000000000002776, 0.3750000000000004441, 0.4375000000000004996, 0.4687500000000004996, 0.5000000000000005551, 1.000000000000000000 ),
 .UNSPECIFIED. ) ;
#219939 = EDGE_CURVE ( 'NONE', #123924, #186143, #162932, .T. ) ;
#220441 = AXIS2_PLACEMENT_3D ( 'NONE', #38143, #59993, #134747 ) ;
#221616 = AXIS2_PLACEMENT_3D ( 'NONE', #302654, #231032, #18977 ) ;
#221663 = CARTESIAN_POINT ( 'NONE',  ( 0.2063483387614163667, -5.293655537527376609, 0.8313852261738182703 ) ) ;
#222309 = LINE ( 'NONE', #125666, #243809 ) ;
#223554 = AXIS2_PLACEMENT_3D ( 'NONE', #282893, #259624, #281374 ) ;
#223728 = FACE_OUTER_BOUND ( 'NONE', #143782, .T. ) ;
#223966 = ORIENTED_EDGE ( 'NONE', *, *, #286730, .T. ) ;
#224893 = AXIS2_PLACEMENT_3D ( 'NONE', #33774, #100894, #197544 ) ;
#225032 = CARTESIAN_POINT ( 'NONE',  ( 0.02057434576462279993, -0.6093470982616655540, -5.000054713383249805 ) ) ;
#225251 = PLANE ( 'NONE',  #282330 ) ;
#225480 = CARTESIAN_POINT ( 'NONE',  ( 0.1245838054646815490, -1.485014776494542499, 5.000000295787320859 ) ) ;
#225943 = CARTESIAN_POINT ( 'NONE',  ( 3.999999999999837019, -2.886751345947902170, 4.999999999999920952 ) ) ;
#226988 = EDGE_CURVE ( 'NONE', #271999, #304535, #179510, .T. ) ;
#227308 = CARTESIAN_POINT ( 'NONE',  ( 0.1015620059906217620, -4.999256857197054593, -1.341022227232523178 ) ) ;
#227430 = CARTESIAN_POINT ( 'NONE',  ( 3.499999999999836575, 5.000000000000254019, -1.110223024625156540E-13 ) ) ;
#227903 = ORIENTED_EDGE ( 'NONE', *, *, #29044, .F. ) ;
#227963 = DIRECTION ( 'NONE',  ( 1.942890293094029123E-16, -0.5000000000000032196, -0.8660254037844368202 ) ) ;
#228899 = CARTESIAN_POINT ( 'NONE',  ( 0.4465819873847864940, 2.886751345948429304, -4.999999999999942268 ) ) ;
#229615 = EDGE_CURVE ( 'NONE', #16737, #43372, #30222, .T. ) ;
#229731 = ORIENTED_EDGE ( 'NONE', *, *, #65721, .F. ) ;
#230314 = CARTESIAN_POINT ( 'NONE',  ( 0.02092094604702208691, 0.6137637571303550255, 5.000143957683740759 ) ) ;
#230415 = DIRECTION ( 'NONE',  ( 1.000000000000000000, -1.665334536937732345E-16, -8.291978215169125092E-16 ) ) ;
#230615 = ADVANCED_FACE ( 'NONE', ( #22723 ), #307926, .F. ) ;
#230759 = FACE_OUTER_BOUND ( 'NONE', #95802, .T. ) ;
#231032 = DIRECTION ( 'NONE',  ( -2.220446049250314560E-16, 1.708702623837145127E-15, 1.000000000000000000 ) ) ;
#231261 = DIRECTION ( 'NONE',  ( -2.703767092796868853E-16, 0.8660254037844401509, -0.4999999999999975020 ) ) ;
#231389 = DIRECTION ( 'NONE',  ( -1.156482317317875078E-15, -1.457167719820520326E-15, 1.000000000000000000 ) ) ;
#231571 = PLANE ( 'NONE',  #223554 ) ;
#231680 = DIRECTION ( 'NONE',  ( -7.806255641895656577E-16, -1.457167719820523481E-15, 1.000000000000000000 ) ) ;
#231823 = LINE ( 'NONE', #44712, #158781 ) ;
#232858 = B_SPLINE_CURVE_WITH_KNOTS ( 'NONE', 3,
 ( #242782, #241219, #4262, #26120, #29154, #264627, #27622, #99394, #199128, #124284, #263072, #5807, #150669 ),
 .UNSPECIFIED., .F., .F.,
 ( 4, 2, 2, 1, 2, 2, 4 ),
 ( 0.000000000000000000, 0.2499999999999986677, 0.3749999999999978906, 0.4374999999999975020, 0.4687499999999976130, 0.4999999999999976685, 1.000000000000000000 ),
 .UNSPECIFIED. ) ;
#232891 = VERTEX_POINT ( 'NONE', #217241 ) ;
#232960 = LINE ( 'NONE', #278172, #114743 ) ;
#233024 = VERTEX_POINT ( 'NONE', #175061 ) ;
#233108 = EDGE_CURVE ( 'NONE', #234587, #171147, #62755, .T. ) ;
#233409 = DIRECTION ( 'NONE',  ( 5.551115123125753120E-17, 1.000000000000000000, -1.632374790894166798E-15 ) ) ;
#233873 = CLOSED_SHELL ( 'NONE', ( #230615, #215455, #291671, #39465, #69576, #29734, #126599, #237753, #265866, #242909, #91874, #196877, #191240, #171702, #27627, #132010, #149266, #305382, #248251, #248782, #102971, #77833, #277602, #160460, #65030, #73679, #77617 ) ) ;
#234587 = VERTEX_POINT ( 'NONE', #81027 ) ;
#234760 = CARTESIAN_POINT ( 'NONE',  ( 0.1960121704226397699, 3.366965495786518048, -4.168235645007640322 ) ) ;
#235006 = CARTESIAN_POINT ( 'NONE',  ( 3.999999999999670486, 3.330669073875469621E-13, 5.000000000000115463 ) ) ;
#235248 = UNCERTAINTY_MEASURE_WITH_UNIT (LENGTH_MEASURE( 1.000000000000000082E-05 ), #245245, 'distance_accuracy_value', 'NONE');
#235680 = CIRCLE ( 'NONE', #240582, 2.999999999999990230 ) ;
#235777 = EDGE_CURVE ( 'NONE', #57986, #116370, #253689, .T. ) ;
#235885 = AXIS2_PLACEMENT_3D ( 'NONE', #241300, #289574, #76100 ) ;
#236035 = CARTESIAN_POINT ( 'NONE',  ( 3.999999999999781508, -2.886751345947957681, -5.000000000000170530 ) ) ;
#236254 = FACE_OUTER_BOUND ( 'NONE', #278441, .T. ) ;
#236262 = CARTESIAN_POINT ( 'NONE',  ( 0.1108320877202451371, 3.630592086132307994, -3.711627688704759009 ) ) ;
#237107 = CARTESIAN_POINT ( 'NONE',  ( 0.000000000000000000, 0.000000000000000000, 0.000000000000000000 ) ) ;
#237277 = ORIENTED_EDGE ( 'NONE', *, *, #31837, .F. ) ;
#237753 = ADVANCED_FACE ( 'NONE', ( #282334 ), #102980, .T. ) ;
#237804 = CARTESIAN_POINT ( 'NONE',  ( -2.220446049250313081E-13, 4.330127018922463655, -2.500000000000009326 ) ) ;
#238522 = VERTEX_POINT ( 'NONE', #101480 ) ;
#238731 = EDGE_CURVE ( 'NONE', #171147, #116370, #93421, .T. ) ;
#238898 = CARTESIAN_POINT ( 'NONE',  ( 0.4465819873848975163, 5.773502691896470473, 2.775557561562891351E-14 ) ) ;
#239778 = B_SPLINE_CURVE_WITH_KNOTS ( 'NONE', 3,
 ( #238898, #97023, #193654, #210942, #164071, #140707, #95510, #215520, #20715, #70615, #25334, #120396, #3457 ),
 .UNSPECIFIED., .F., .F.,
 ( 4, 2, 2, 1, 2, 2, 4 ),
 ( 0.000000000000000000, 0.2500000000000004441, 0.3750000000000003886, 0.4375000000000003331, 0.4687500000000003886, 0.5000000000000004441, 1.000000000000000000 ),
 .UNSPECIFIED. ) ;
#240062 = ORIENTED_EDGE ( 'NONE', *, *, #283961, .F. ) ;
#240154 = ORIENTED_EDGE ( 'NONE', *, *, #67279, .F. ) ;
#240582 = AXIS2_PLACEMENT_3D ( 'NONE', #242274, #262582, #48944 ) ;
#240956 = CARTESIAN_POINT ( 'NONE',  ( 3.499999999999725553, 4.718447854656915297E-13, 4.999999999999948486 ) ) ;
#241219 = CARTESIAN_POINT ( 'NONE',  ( 0.3756388630762575453, -3.009628441699021995, -4.787170627073047413 ) ) ;
#241300 = CARTESIAN_POINT ( 'NONE',  ( 0.000000000000000000, 0.000000000000000000, 0.000000000000000000 ) ) ;
#241413 = CARTESIAN_POINT ( 'NONE',  ( 3.499999999999614531, 5.773502691896553962, 0.000000000000000000 ) ) ;
#241548 = FACE_OUTER_BOUND ( 'NONE', #110422, .T. ) ;
#241592 = CARTESIAN_POINT ( 'NONE',  ( 3.500000000000169642, 1.942890293094023946E-13, -6.938893903907228378E-15 ) ) ;
#241635 = CARTESIAN_POINT ( 'NONE',  ( 0.3046883088223780733, 5.527735631352585166, 0.4256810356881965962 ) ) ;
#241698 = LINE ( 'NONE', #4749, #108738 ) ;
#242160 = ORIENTED_EDGE ( 'NONE', *, *, #289569, .F. ) ;
#242208 = CARTESIAN_POINT ( 'NONE',  ( 0.4465819873848975163, 5.773502691896470473, 2.775557561562891351E-14 ) ) ;
#242274 = CARTESIAN_POINT ( 'NONE',  ( 3.999999999999948042, 2.775557561562891351E-14, 0.000000000000000000 ) ) ;
#242782 = CARTESIAN_POINT ( 'NONE',  ( 0.4465819873845644494, -2.886751345948485259, -4.999999999999893419 ) ) ;
#242909 = ADVANCED_FACE ( 'NONE', ( #201235 ), #264286, .T. ) ;
#243184 = CARTESIAN_POINT ( 'NONE',  ( 0.1158374098176342681, 5.045563757734467636, 1.260827784334894286 ) ) ;
#243204 = EDGE_LOOP ( 'NONE', ( #265720, #18042, #170477, #54457, #143510, #240154 ) ) ;
#243540 = CARTESIAN_POINT ( 'NONE',  ( 0.2314535083898853207, -5.352531876301650726, 0.7292905979513547576 ) ) ;
#243809 = VECTOR ( 'NONE', #7215, 1000.000000000000000 ) ;
#243987 = AXIS2_PLACEMENT_3D ( 'NONE', #305096, #72871, #118058 ) ;
#244607 = CARTESIAN_POINT ( 'NONE',  ( 0.04109390245987042806, -4.757638743478897148, -1.759525582008312217 ) ) ;
#244831 = PLANE ( 'NONE',  #265266 ) ;
#244991 = CARTESIAN_POINT ( 'NONE',  ( 4.000000000000114575, 2.886751345948235237, 5.000000000000060396 ) ) ;
#245002 = DIRECTION ( 'NONE',  ( -1.000000000000000000, 1.665334536937732099E-16, 8.291978215169125092E-16 ) ) ;
#245096 = CARTESIAN_POINT ( 'NONE',  ( 0.1718005020762942980, -5.205680392147581159, 0.9839503124557951175 ) ) ;
#245150 = AXIS2_PLACEMENT_3D ( 'NONE', #283354, #51028, #258523 ) ;
#245245 = ( LENGTH_UNIT ( ) NAMED_UNIT ( * ) SI_UNIT ( .MILLI., .METRE. ) );
#246199 = CYLINDRICAL_SURFACE ( 'NONE', #274610, 4.999999999999984013 ) ;
#246658 = AXIS2_PLACEMENT_3D ( 'NONE', #168286, #263399, #71725 ) ;
#246708 = ORIENTED_EDGE ( 'NONE', *, *, #194000, .F. ) ;
#247191 = AXIS2_PLACEMENT_3D ( 'NONE', #237107, #50025, #259047 ) ;
#248251 = ADVANCED_FACE ( 'NONE', ( #43482 ), #135531, .T. ) ;
#248531 = DIRECTION ( 'NONE',  ( 6.106226635438357028E-16, 0.5000000000000036637, -0.8660254037844365982 ) ) ;
#248696 = CARTESIAN_POINT ( 'NONE',  ( 3.499999999999836575, 5.000000000000254019, -1.110223024625156540E-13 ) ) ;
#248782 = ADVANCED_FACE ( 'NONE', ( #223728 ), #225251, .T. ) ;
#249548 = EDGE_CURVE ( 'NONE', #233024, #175096, #260638, .T. ) ;
#249744 = VECTOR ( 'NONE', #227963, 1000.000000000000114 ) ;
#250177 = CARTESIAN_POINT ( 'NONE',  ( 0.000000000000000000, 0.000000000000000000, 0.000000000000000000 ) ) ;
#250758 = CARTESIAN_POINT ( 'NONE',  ( 0.1158374098176880307, -5.045563757734595534, -1.260827784334755730 ) ) ;
#250794 = CARTESIAN_POINT ( 'NONE',  ( 0.1726872082488400961, 1.756137253261768505, -4.999948606775520332 ) ) ;
#251000 = ORIENTED_EDGE ( 'NONE', *, *, #107032, .F. ) ;
#251229 = EDGE_CURVE ( 'NONE', #25973, #43372, #241698, .T. ) ;
#251577 = ORIENTED_EDGE ( 'NONE', *, *, #275240, .F. ) ;
#252123 = DIRECTION ( 'NONE',  ( 1.000000000000000000, -1.665334536937732345E-16, -8.291978215169125092E-16 ) ) ;
#252155 = CARTESIAN_POINT ( 'NONE',  ( 0.1718005020755048184, 3.454966162722889145, 4.016276307351995811 ) ) ;
#253689 = LINE ( 'NONE', #160013, #91868 ) ;
#254254 = DIRECTION ( 'NONE',  ( -7.754213937616353350E-16, -1.457167719820522692E-15, 1.000000000000000000 ) ) ;
#254695 = EDGE_CURVE ( 'NONE', #36029, #55573, #194649, .T. ) ;
#255098 = B_SPLINE_CURVE_WITH_KNOTS ( 'NONE', 3,
 ( #292870, #31059, #35681, #155594, #60567, #250794, #272581, #80918, #82424, #107344, #152507, #177460, #101225, #202500, #59032, #37214, #172872 ),
 .UNSPECIFIED., .F., .F.,
 ( 4, 2, 2, 1, 2, 2, 2, 2, 4 ),
 ( 0.000000000000000000, 0.2500000000000008882, 0.3750000000000013323, 0.4375000000000015543, 0.4687500000000016653, 0.5000000000000017764, 0.6250000000000013323, 0.7500000000000008882, 1.000000000000000000 ),
 .UNSPECIFIED. ) ;
#255219 = DIRECTION ( 'NONE',  ( 0.000000000000000000, -1.000000000000000000, 1.150121664572617582E-15 ) ) ;
#255274 = DIRECTION ( 'NONE',  ( 6.661338147750988546E-16, -0.8660254037844365982, -0.5000000000000036637 ) ) ;
#256238 = FACE_OUTER_BOUND ( 'NONE', #153692, .T. ) ;
#256420 = EDGE_CURVE ( 'NONE', #265206, #289617, #185484, .T. ) ;
#258523 = DIRECTION ( 'NONE',  ( -7.806255641895656577E-16, -1.457167719820523481E-15, 1.000000000000000000 ) ) ;
#259047 = DIRECTION ( 'NONE',  ( 7.754213937616352364E-16, 1.457167719820522692E-15, -1.000000000000000000 ) ) ;
#259624 = DIRECTION ( 'NONE',  ( 1.000000000000000000, -5.551115123125888705E-17, -8.291978215169127064E-16 ) ) ;
#260011 = ORIENTED_EDGE ( 'NONE', *, *, #262508, .F. ) ;
#260163 = EDGE_CURVE ( 'NONE', #107008, #162112, #266708, .T. ) ;
#260638 = LINE ( 'NONE', #47009, #158124 ) ;
#260925 = VECTOR ( 'NONE', #20358, 1000.000000000000000 ) ;
#261044 = AXIS2_PLACEMENT_3D ( 'NONE', #40067, #252123, #183416 ) ;
#261404 = CARTESIAN_POINT ( 'NONE',  ( 0.3052358161059278707, 2.397113845726047021, 4.999999999999989342 ) ) ;
#262508 = EDGE_CURVE ( 'NONE', #171147, #176965, #210493, .T. ) ;
#262582 = DIRECTION ( 'NONE',  ( -1.000000000000000000, 1.665334536937732345E-16, 8.291978215169125092E-16 ) ) ;
#262602 = ORIENTED_EDGE ( 'NONE', *, *, #36366, .F. ) ;
#263072 = CARTESIAN_POINT ( 'NONE',  ( 0.04014686992764170126, -3.849861946946303348, -3.332624484559925104 ) ) ;
#263221 = EDGE_CURVE ( 'NONE', #105424, #238522, #153357, .T. ) ;
#263399 = DIRECTION ( 'NONE',  ( -1.000000000000000000, 1.665334536937732345E-16, 8.291978215169125092E-16 ) ) ;
#263678 = DIRECTION ( 'NONE',  ( -1.000000000000000000, 1.665334536937732345E-16, 8.291978215169125092E-16 ) ) ;
#263983 = CIRCLE ( 'NONE', #124673, 4.999999999999984013 ) ;
#264139 = ORIENTED_EDGE ( 'NONE', *, *, #29044, .T. ) ;
#264155 = ORIENTED_EDGE ( 'NONE', *, *, #233108, .F. ) ;
#264286 = CONICAL_SURFACE ( 'NONE', #289379, 4.999999999999984013, 1.047197551196598297 ) ;
#264311 = ORIENTED_EDGE ( 'NONE', *, *, #4076, .F. ) ;
#264627 = CARTESIAN_POINT ( 'NONE',  ( 0.1718005020748169798, -3.454966162723645873, -4.016276307349757602 ) ) ;
#264969 = AXIS2_PLACEMENT_3D ( 'NONE', #20323, #65602, #302413 ) ;
#264982 = ORIENTED_EDGE ( 'NONE', *, *, #80750, .F. ) ;
#264985 = DIRECTION ( 'NONE',  ( 7.754213937616352364E-16, 1.457167719820522692E-15, -1.000000000000000000 ) ) ;
#265206 = VERTEX_POINT ( 'NONE', #141276 ) ;
#265266 = AXIS2_PLACEMENT_3D ( 'NONE', #293043, #177635, #32760 ) ;
#265670 = CARTESIAN_POINT ( 'NONE',  ( 0.1100088064990381309, -1.393762852363135352, -4.999999627637307320 ) ) ;
#265720 = ORIENTED_EDGE ( 'NONE', *, *, #17614, .F. ) ;
#265866 = ADVANCED_FACE ( 'NONE', ( #125971 ), #64654, .T. ) ;
#266708 = CIRCLE ( 'NONE', #12809, 4.999999999999984013 ) ;
#266952 = ORIENTED_EDGE ( 'NONE', *, *, #76084, .T. ) ;
#267182 = CARTESIAN_POINT ( 'NONE',  ( 0.1007906687722055078, -1.333078038374416963, -4.999998174387330963 ) ) ;
#267245 = AXIS2_PLACEMENT_3D ( 'NONE', #250177, #158073, #179939 ) ;
#267930 = DIRECTION ( 'NONE',  ( 1.665334536937725196E-16, 1.000000000000000000, -1.708702623837145127E-15 ) ) ;
#268004 = DIRECTION ( 'NONE',  ( 1.000000000000000000, -1.665334536937732345E-16, -8.291978215169125092E-16 ) ) ;
#268728 = ORIENTED_EDGE ( 'NONE', *, *, #134915, .F. ) ;
#268746 = CARTESIAN_POINT ( 'NONE',  ( 0.01276001979332241909, -0.4858338440222585985, -5.000013185480811195 ) ) ;
#269216 = CARTESIAN_POINT ( 'NONE',  ( 0.1000459029439570990, -1.332870526156691549, 4.999998816850622418 ) ) ;
#269305 = AXIS2_PLACEMENT_3D ( 'NONE', #94466, #95983, #286082 ) ;
#269627 = CARTESIAN_POINT ( 'NONE',  ( 0.04109390246043901490, 4.757638743481272137, 1.759525582005006861 ) ) ;
#269709 = EDGE_LOOP ( 'NONE', ( #126071, #218263, #86939 ) ) ;
#269906 = CYLINDRICAL_SURFACE ( 'NONE', #176726, 4.999999999999984013 ) ;
#269987 = CARTESIAN_POINT ( 'NONE',  ( -2.731760664233923684E-15, -4.268820333139016654, 2.606186294620103538 ) ) ;
#270725 = CARTESIAN_POINT ( 'NONE',  ( 0.3125094249476811914, -2.398864525178820095, 4.999892381596768409 ) ) ;
#271125 = CARTESIAN_POINT ( 'NONE',  ( 0.08810828615463767166, 4.953721581164127308, 1.419874555533043203 ) ) ;
#271999 = VERTEX_POINT ( 'NONE', #40346 ) ;
#272256 = CARTESIAN_POINT ( 'NONE',  ( 0.1710456088239221961, -1.747558540246070269, 4.999946563007170219 ) ) ;
#272581 = CARTESIAN_POINT ( 'NONE',  ( 0.1562257063110922550, 1.668758783563489168, -4.999972501323797225 ) ) ;
#272949 = ORIENTED_EDGE ( 'NONE', *, *, #31837, .T. ) ;
#273023 = CARTESIAN_POINT ( 'NONE',  ( 0.01355371666407973082, -4.085547700560634432, 2.923578897727701520 ) ) ;
#274610 = AXIS2_PLACEMENT_3D ( 'NONE', #127675, #9199, #177492 ) ;
#275240 = EDGE_CURVE ( 'NONE', #232891, #123924, #30115, .T. ) ;
#275432 = AXIS2_PLACEMENT_3D ( 'NONE', #8007, #76689, #245002 ) ;
#275553 = B_SPLINE_CURVE_WITH_KNOTS ( 'NONE', 3,
 ( #160109, #71244, #89997, #21341, #230314, #213107, #166287, #283197, #138293, #163156, #66644, #305002, #303494, #261404, #141368 ),
 .UNSPECIFIED., .F., .F.,
 ( 4, 2, 2, 2, 1, 2, 2, 4 ),
 ( 0.000000000000000000, 0.1249999999999997780, 0.2499999999999995559, 0.3749999999999993339, 0.4374999999999992228, 0.4687499999999991673, 0.4999999999999991118, 1.000000000000000000 ),
 .UNSPECIFIED. ) ;
#276164 = PRODUCT_DEFINITION_FORMATION_WITH_SPECIFIED_SOURCE ( 'ANY', '', #2397, .NOT_KNOWN. ) ;
#276631 = DIRECTION ( 'NONE',  ( 1.000000000000000000, -5.551115123125888705E-17, -8.291978215169127064E-16 ) ) ;
#277276 = FACE_OUTER_BOUND ( 'NONE', #115543, .T. ) ;
#277285 = CIRCLE ( 'NONE', #177775, 4.999999999999984013 ) ;
#277516 = CARTESIAN_POINT ( 'NONE',  ( 0.000000000000000000, 0.000000000000000000, 0.000000000000000000 ) ) ;
#277602 = ADVANCED_FACE ( 'NONE', ( #306481 ), #1006, .T. ) ;
#278172 = CARTESIAN_POINT ( 'NONE',  ( 3.499999999999836575, 2.886751345948485259, -4.999999999999997335 ) ) ;
#278441 = EDGE_LOOP ( 'NONE', ( #121783, #165483, #55972 ) ) ;
#278533 = CARTESIAN_POINT ( 'NONE',  ( -1.110223024625156540E-13, 4.330127018922408588, 2.500000000000224265 ) ) ;
#280246 = CARTESIAN_POINT ( 'NONE',  ( 0.000000000000000000, 0.000000000000000000, 0.000000000000000000 ) ) ;
#280332 = DIRECTION ( 'NONE',  ( 1.000000000000000000, -5.551115123125888705E-17, -8.291978215169127064E-16 ) ) ;
#281224 = CARTESIAN_POINT ( 'NONE',  ( 3.499999999999614531, 5.773502691896553962, 0.000000000000000000 ) ) ;
#281374 = DIRECTION ( 'NONE',  ( 5.551115123125753120E-17, 1.000000000000000000, -1.632374790894166798E-15 ) ) ;
#281914 = ORIENTED_EDGE ( 'NONE', *, *, #67749, .F. ) ;
#282330 = AXIS2_PLACEMENT_3D ( 'NONE', #248696, #276631, #162715 ) ;
#282334 = FACE_OUTER_BOUND ( 'NONE', #195453, .T. ) ;
#282893 = CARTESIAN_POINT ( 'NONE',  ( 3.499999999999836575, 5.000000000000254019, -1.110223024625156540E-13 ) ) ;
#283197 = CARTESIAN_POINT ( 'NONE',  ( 0.07654736725133153008, 1.160442315994629325, 5.000031155496733604 ) ) ;
#283221 = DIRECTION ( 'NONE',  ( 1.000000000000000000, -5.551115123125888705E-17, -8.291978215169127064E-16 ) ) ;
#283354 = CARTESIAN_POINT ( 'NONE',  ( 3.500000000000169642, 1.942890293094023946E-13, -6.938893903907228378E-15 ) ) ;
#283961 = EDGE_CURVE ( 'NONE', #71085, #232891, #306651, .T. ) ;
#284831 = CARTESIAN_POINT ( 'NONE',  ( 3.499999999999836575, -2.886751345947930147, -4.999999999999997335 ) ) ;
#285327 = SHAPE_DEFINITION_REPRESENTATION ( #44534, #146976 ) ;
#285480 = VERTEX_POINT ( 'NONE', #197258 ) ;
#286082 = DIRECTION ( 'NONE',  ( -1.000000000000000000, 1.665334536937732099E-16, 8.291978215169125092E-16 ) ) ;
#286730 = EDGE_CURVE ( 'NONE', #123924, #233024, #64387, .T. ) ;
#287608 = CARTESIAN_POINT ( 'NONE',  ( 0.08810828615469021297, 3.706508225865920103, -3.580111454791711445 ) ) ;
#288137 = LINE ( 'NONE', #241413, #179909 ) ;
#288400 = AXIS2_PLACEMENT_3D ( 'NONE', #280246, #230415, #37205 ) ;
#288405 = CARTESIAN_POINT ( 'NONE',  ( 3.499999999999836575, 2.886751345948485259, -4.999999999999997335 ) ) ;
#288463 = ORIENTED_EDGE ( 'NONE', *, *, #226988, .T. ) ;
#289379 = AXIS2_PLACEMENT_3D ( 'NONE', #102999, #82678, #174688 ) ;
#289569 = EDGE_CURVE ( 'NONE', #71085, #233024, #8497, .T. ) ;
#289574 = DIRECTION ( 'NONE',  ( 1.000000000000000000, -1.665334536937732345E-16, -8.291978215169125092E-16 ) ) ;
#289617 = VERTEX_POINT ( 'NONE', #125426 ) ;
#289982 = B_SPLINE_CURVE_WITH_KNOTS ( 'NONE', 3,
 ( #148358, #54890, #149917, #243540, #221663, #245096, #8102, #198338, #293327, #79845, #174880, #9631, #104762 ),
 .UNSPECIFIED., .F., .F.,
 ( 4, 2, 2, 1, 2, 2, 4 ),
 ( 0.000000000000000000, 0.2500000000000003886, 0.3750000000000008882, 0.4375000000000013323, 0.4687500000000016098, 0.5000000000000018874, 1.000000000000000000 ),
 .UNSPECIFIED. ) ;
#290570 = EDGE_LOOP ( 'NONE', ( #185441, #190657, #177370, #163248, #264311, #95980 ) ) ;
#291671 = ADVANCED_FACE ( 'NONE', ( #51712 ), #171705, .F. ) ;
#292086 = CARTESIAN_POINT ( 'NONE',  ( 0.05311961490103676159, -0.9706902553555908364, -5.000017026929010733 ) ) ;
#292140 = APPLICATION_CONTEXT ( 'automotive_design' ) ;
#292832 = CARTESIAN_POINT ( 'NONE',  ( 0.3046883088215143198, -5.527735631351091250, -0.4256810356908035109 ) ) ;
#292870 = CARTESIAN_POINT ( 'NONE',  ( 0.4465819873847864940, 2.886751345948429304, -4.999999999999942268 ) ) ;
#292937 = CARTESIAN_POINT ( 'NONE',  ( 0.002581660316967386310, 4.452448694148211317, 2.288075348251143115 ) ) ;
#293043 = CARTESIAN_POINT ( 'NONE',  ( 3.499999999999836575, 5.000000000000254019, -1.110223024625156540E-13 ) ) ;
#293307 = CARTESIAN_POINT ( 'NONE',  ( 0.04109390246057679358, -3.902613224367475819, 3.240473222879333814 ) ) ;
#293327 = CARTESIAN_POINT ( 'NONE',  ( 0.1300128567461396600, -5.088715317285495310, 1.186741567540419817 ) ) ;
#293336 = ORIENTED_EDGE ( 'NONE', *, *, #180280, .T. ) ;
#295878 = CARTESIAN_POINT ( 'NONE',  ( 0.02592293447549810087, -4.667234432963030422, -1.916114026387098379 ) ) ;
#296603 = CARTESIAN_POINT ( 'NONE',  ( 23.44549999999978596, 1.387778780781445676E-13, -3.000000000000002665 ) ) ;
#297041 = EDGE_CURVE ( 'NONE', #205951, #305942, #8468, .T. ) ;
#297404 = ORIENTED_EDGE ( 'NONE', *, *, #57236, .T. ) ;
#297886 = CARTESIAN_POINT ( 'NONE',  ( 0.05361536248930337534, -3.842410467608742497, 3.344706537849694961 ) ) ;
#298310 = B_SPLINE_CURVE_WITH_KNOTS ( 'NONE', 3,
 ( #178817, #60381, #85322, #132076, #180369, #252155, #15143, #301872, #110242, #88365, #183443, #86853, #278533 ),
 .UNSPECIFIED., .F., .F.,
 ( 4, 2, 2, 1, 2, 2, 4 ),
 ( 0.000000000000000000, 0.2499999999999993339, 0.3749999999999988898, 0.4374999999999986677, 0.4687499999999986677, 0.4999999999999986122, 1.000000000000000000 ),
 .UNSPECIFIED. ) ;
#299003 = CARTESIAN_POINT ( 'NONE',  ( -5.551115123125782702E-14, 5.551115123125782702E-14, -5.000000000000122569 ) ) ;
#299267 = DIRECTION ( 'NONE',  ( -1.000000000000000000, 1.665334536937732345E-16, 8.291978215169125092E-16 ) ) ;
#299825 = PLANE ( 'NONE',  #121903 ) ;
#300107 = ORIENTED_EDGE ( 'NONE', *, *, #254695, .F. ) ;
#300662 = CARTESIAN_POINT ( 'NONE',  ( 24.00000000000002132, 1.387778780781445676E-13, 2.445499999999933838 ) ) ;
#300696 = EDGE_CURVE ( 'NONE', #25973, #36029, #288137, .T. ) ;
#301307 = VECTOR ( 'NONE', #198476, 1000.000000000000000 ) ;
#301872 = CARTESIAN_POINT ( 'NONE',  ( 0.1399738434286929289, 3.542853448039180897, 3.864216081726393082 ) ) ;
#302286 = EDGE_CURVE ( 'NONE', #175096, #186143, #205824, .T. ) ;
#302413 = DIRECTION ( 'NONE',  ( -7.806255641895656577E-16, -1.457167719820523481E-15, 1.000000000000000000 ) ) ;
#302654 = CARTESIAN_POINT ( 'NONE',  ( 3.999999999999837019, 2.886751345948512792, -4.999999999999976907 ) ) ;
#302676 = SHAPE_REPRESENTATION_RELATIONSHIP ( 'NONE' , 'NONE' ,  #146976, #139257 ) ;
#302815 = ORIENTED_EDGE ( 'NONE', *, *, #300696, .T. ) ;
#303077 = MANIFOLD_SOLID_BREP ( 'NONE', #233873 ) ;
#303083 = EDGE_LOOP ( 'NONE', ( #50889, #302815, #56784 ) ) ;
#303494 = CARTESIAN_POINT ( 'NONE',  ( 0.1968482505193377141, 1.929907516428615466, 4.999995480055048347 ) ) ;
#304065 = VECTOR ( 'NONE', #213176, 1000.000000000000000 ) ;
#304532 = ORIENTED_EDGE ( 'NONE', *, *, #283961, .T. ) ;
#304535 = VERTEX_POINT ( 'NONE', #110097 ) ;
#304607 = DIRECTION ( 'NONE',  ( 7.754213937616352364E-16, 1.457167719820522692E-15, -1.000000000000000000 ) ) ;
#305002 = CARTESIAN_POINT ( 'NONE',  ( 0.1167049806320591965, 1.436322809805090417, 5.000000282496543491 ) ) ;
#305096 = CARTESIAN_POINT ( 'NONE',  ( 0.000000000000000000, 0.000000000000000000, 0.000000000000000000 ) ) ;
#305305 = DIRECTION ( 'NONE',  ( 1.000000000000000000, -5.551115123125888705E-17, -8.291978215169127064E-16 ) ) ;
#305382 = ADVANCED_FACE ( 'NONE', ( #277276 ), #44944, .T. ) ;
#305646 = CIRCLE ( 'NONE', #261044, 4.999999999999984013 ) ;
#305845 = EDGE_CURVE ( 'NONE', #238522, #8382, #80459, .T. ) ;
#305942 = VERTEX_POINT ( 'NONE', #33454 ) ;
#306208 = DIRECTION ( 'NONE',  ( 1.000000000000000000, -1.665334536937732345E-16, -8.291978215169125092E-16 ) ) ;
#306269 = FACE_OUTER_BOUND ( 'NONE', #140246, .T. ) ;
#306379 = CARTESIAN_POINT ( 'NONE',  ( 0.01355371666408693686, 4.085547700559530426, -2.923578897729240733 ) ) ;
#306481 = FACE_OUTER_BOUND ( 'NONE', #142002, .T. ) ;
#306651 = CIRCLE ( 'NONE', #132461, 2.445499999999992013 ) ;
#307702 = LINE ( 'NONE', #236035, #121787 ) ;
#307791 = FACE_OUTER_BOUND ( 'NONE', #6793, .T. ) ;
#307859 = CARTESIAN_POINT ( 'NONE',  ( 0.000000000000000000, 1.387778780781445676E-13, -2.999999999999947153 ) ) ;
#307926 = PLANE ( 'NONE',  #269305 ) ;
ENDSEC;
END-ISO-10303-21;
