ISO-10303-21;
HEADER;
FILE_DESCRIPTION (( 'STEP AP214' ),
    '1' );
FILE_NAME ('PT.SHT.01.20.00.00 —¡ ''ÿÌÂÍ 1'' (STEP 214 ““).STEP',
    '2026-09-29T05:38:28',
    ( '' ),
    ( '' ),
    'SwSTEP 2.0',
    'SolidWorks 2025',
    '' );
FILE_SCHEMA (( 'AUTOMOTIVE_DESIGN' ));
ENDSEC;

DATA;
#94 = CARTESIAN_POINT ( 'NONE',  ( 0.003356156263804241369, 5.788184962023895430, 2.974494712371642979 ) ) ;
#483 = DIRECTION ( 'NONE',  ( 8.038014698286129566E-14, 1.000000000000000000, 4.222178162649468304E-13 ) ) ;
#1012 = FACE_OUTER_BOUND ( 'NONE', #219307, .T. ) ;
#1034 = CARTESIAN_POINT ( 'NONE',  ( 0.1627295870162843439, -4.661564094188619833, -4.925934737522970508 ) ) ;
#1141 = AXIS2_PLACEMENT_3D ( 'NONE', #246188, #191731, #286763 ) ;
#1273 = ORIENTED_EDGE ( 'NONE', *, *, #188263, .T. ) ;
#1423 = DIRECTION ( 'NONE',  ( 8.054668043655509439E-14, 1.000000000000000000, 4.172495682297493558E-13 ) ) ;
#1683 = AXIS2_PLACEMENT_3D ( 'NONE', #189908, #21554, #241268 ) ;
#3534 = ORIENTED_EDGE ( 'NONE', *, *, #242014, .F. ) ;
#3997 = PLANE ( 'NONE',  #53333 ) ;
#4011 = CARTESIAN_POINT ( 'NONE',  ( 4.700000000121384858, -3.752776749731290273, -6.499999999998173905 ) ) ;
#4043 = CARTESIAN_POINT ( 'NONE',  ( 0.04642924397653407087, -1.028203287484504846, 6.500068677813207962 ) ) ;
#4113 = FACE_OUTER_BOUND ( 'NONE', #61398, .T. ) ;
#4503 = ORIENTED_EDGE ( 'NONE', *, *, #269745, .F. ) ;
#4958 = CARTESIAN_POINT ( 'NONE',  ( 1.776356839400250465E-12, 3.552713678800500929E-12, 6.499999999997840838 ) ) ;
#5159 = CARTESIAN_POINT ( 'NONE',  ( 0.003356156263881819070, 5.470080465358722499, -3.525467862712268197 ) ) ;
#5540 = CARTESIAN_POINT ( 'NONE',  ( 0.5805565837215809211, -3.752776749735620143, -6.499999999998729017 ) ) ;
#5745 = ORIENTED_EDGE ( 'NONE', *, *, #262003, .T. ) ;
#6068 = EDGE_LOOP ( 'NONE', ( #294279, #221252, #266707 ) ) ;
#6243 = DIRECTION ( 'NONE',  ( 8.992806499466655208E-15, -4.298783551349986442E-13, -1.000000000000000000 ) ) ;
#6360 = CARTESIAN_POINT ( 'NONE',  ( 1.199040866595169064E-10, 5.629165124602764081, -3.249999999989428012 ) ) ;
#6773 = CARTESIAN_POINT ( 'NONE',  ( 0.07993762277101428004, 1.350531386211344609, -6.500085660929533660 ) ) ;
#6776 = EDGE_CURVE ( 'NONE', #118596, #256475, #13309, .T. ) ;
#7243 = CYLINDRICAL_SURFACE ( 'NONE', #182763, 6.499999999997912781 ) ;
#7619 = EDGE_CURVE ( 'NONE', #116232, #246159, #268087, .T. ) ;
#7793 = CARTESIAN_POINT ( 'NONE',  ( 0.01761982038718505270, -5.311210102542895051, 3.800655186506616268 ) ) ;
#8049 = LINE ( 'NONE', #224697, #71593 ) ;
#8948 = ORIENTED_EDGE ( 'NONE', *, *, #229236, .F. ) ;
#9306 = CARTESIAN_POINT ( 'NONE',  ( 0.03369948430761438712, -5.190928048255405436, 4.009050077143681889 ) ) ;
#10866 = CARTESIAN_POINT ( 'NONE',  ( 0.2548172889919737005, -4.377054078192632147, 5.418710900061067370 ) ) ;
#12267 = CARTESIAN_POINT ( 'NONE',  ( 5.300000000000970601, 4.440892098500626162E-12, 4.000000000003112177 ) ) ;
#12430 = EDGE_CURVE ( 'NONE', #35726, #256475, #65559, .T. ) ;
#12635 = CARTESIAN_POINT ( 'NONE',  ( 4.700000000120496679, 3.752776749738173656, -6.499999999985295318 ) ) ;
#13193 = DIRECTION ( 'NONE',  ( -1.000000000000000000, -5.895284260751101922E-14, 1.715294573043399614E-14 ) ) ;
#13205 = AXIS2_PLACEMENT_3D ( 'NONE', #130118, #250147, #204936 ) ;
#13270 = CARTESIAN_POINT ( 'NONE',  ( 30.30000000000221405, 8.548717289613705361E-12, 3.309500000010623388 ) ) ;
#13309 = CIRCLE ( 'NONE', #167749, 3.999999999998715694 ) ;
#14235 = ORIENTED_EDGE ( 'NONE', *, *, #24646, .F. ) ;
#14549 = DIRECTION ( 'NONE',  ( -8.992806499466655208E-15, 4.298783551349986442E-13, 1.000000000000000000 ) ) ;
#16050 = CARTESIAN_POINT ( 'NONE',  ( 4.700000000000592593, 6.328271240363392280E-12, 9.769962616701377556E-12 ) ) ;
#16680 = CARTESIAN_POINT ( 'NONE',  ( 0.5805565836016768344, -3.752776749731623340, 6.500000000000061284 ) ) ;
#16792 = DIRECTION ( 'NONE',  ( -1.000000000000000000, -5.895284260751101922E-14, 1.715294573043399614E-14 ) ) ;
#16840 = ORIENTED_EDGE ( 'NONE', *, *, #98228, .T. ) ;
#17003 = VECTOR ( 'NONE', #299577, 1000.000000000000000 ) ;
#17066 = ORIENTED_EDGE ( 'NONE', *, *, #145447, .T. ) ;
#17119 = VERTEX_POINT ( 'NONE', #289499 ) ;
#17236 = ORIENTED_EDGE ( 'NONE', *, *, #255543, .T. ) ;
#18153 = VERTEX_POINT ( 'NONE', #249365 ) ;
#18322 = DIRECTION ( 'NONE',  ( 1.000000000000000000, 5.895284260751101922E-14, -1.715294573043399614E-14 ) ) ;
#19457 = PLANE ( 'NONE',  #272521 ) ;
#19587 = CARTESIAN_POINT ( 'NONE',  ( 0.000000000000000000, 0.000000000000000000, 0.000000000000000000 ) ) ;
#19810 = ADVANCED_FACE ( 'NONE', ( #36974 ), #249025, .F. ) ;
#20055 = DIRECTION ( 'NONE',  ( 8.992806499466655208E-15, -4.298783551349986442E-13, -1.000000000000000000 ) ) ;
#20490 = CARTESIAN_POINT ( 'NONE',  ( 0.01339302944525705592, -5.945983493773881357, 2.701382127686606793 ) ) ;
#20496 = CIRCLE ( 'NONE', #304159, 6.499999999997912781 ) ;
#20517 = EDGE_LOOP ( 'NONE', ( #203862, #258678, #253881 ) ) ;
#20991 = CIRCLE ( 'NONE', #110706, 6.499999999997912781 ) ;
#21554 = DIRECTION ( 'NONE',  ( 1.000000000000000000, 5.895284260751101922E-14, -1.715294573043399614E-14 ) ) ;
#21577 = AXIS2_PLACEMENT_3D ( 'NONE', #154015, #227318, #298987 ) ;
#21833 = VERTEX_POINT ( 'NONE', #306971 ) ;
#21845 = CARTESIAN_POINT ( 'NONE',  ( 0.03369948430736093015, -6.067403235980892262, -2.490950520431880921 ) ) ;
#22669 = CIRCLE ( 'NONE', #72575, 6.499999999997912781 ) ;
#22830 = LINE ( 'NONE', #188089, #79859 ) ;
#22831 = CARTESIAN_POINT ( 'NONE',  ( 0.2230690090236846224, -4.491334349260236003, -5.220642481924807399 ) ) ;
#23868 = ORIENTED_EDGE ( 'NONE', *, *, #96000, .F. ) ;
#24646 = EDGE_CURVE ( 'NONE', #172204, #18153, #87605, .T. ) ;
#24953 = CARTESIAN_POINT ( 'NONE',  ( 0.01339302944458381148, 5.312457294808210051, 3.798681692225200468 ) ) ;
#25002 = CARTESIAN_POINT ( 'NONE',  ( 0.06970085888444660371, 6.263151584785839887, 2.151847309656581331 ) ) ;
#25292 = EDGE_LOOP ( 'NONE', ( #120414, #147702, #158583, #67567, #90415, #179012 ) ) ;
#25532 = ADVANCED_FACE ( 'NONE', ( #166222, #1012 ), #41611, .T. ) ;
#25917 = CARTESIAN_POINT ( 'NONE',  ( 0.1619440718680648372, -1.930429104327335388, 6.500000295831149799 ) ) ;
#26921 = AXIS2_PLACEMENT_3D ( 'NONE', #306829, #165028, #188415 ) ;
#26932 = ORIENTED_EDGE ( 'NONE', *, *, #160489, .F. ) ;
#26951 = FACE_OUTER_BOUND ( 'NONE', #163355, .T. ) ;
#27111 = EDGE_CURVE ( 'NONE', #99440, #121032, #235212, .T. ) ;
#27259 = DIRECTION ( 'NONE',  ( -8.673617379886820151E-15, 4.298783551349986442E-13, 1.000000000000000000 ) ) ;
#27418 = CARTESIAN_POINT ( 'NONE',  ( 0.4062525640887315048, -3.118487304235616264, 6.499859703418052526 ) ) ;
#28091 = CARTESIAN_POINT ( 'NONE',  ( 0.01342462505697227144, -5.350937464112900166, 3.731830894223612027 ) ) ;
#28770 = DIRECTION ( 'NONE',  ( -1.000000000000000000, -5.895284260751101922E-14, 1.715294573043399614E-14 ) ) ;
#29631 = DIRECTION ( 'NONE',  ( -9.434966782774603016E-15, 4.298783551349987452E-13, 1.000000000000000000 ) ) ;
#29632 = CARTESIAN_POINT ( 'NONE',  ( 30.30000000000043769, 7.660538869913580129E-12, 1.343369859796439414E-11 ) ) ;
#29845 = CARTESIAN_POINT ( 'NONE',  ( 30.30000000012034178, 7.327471962526033167E-12, -3.309499999986531549 ) ) ;
#30385 = VERTEX_POINT ( 'NONE', #211530 ) ;
#30488 = CARTESIAN_POINT ( 'NONE',  ( 0.2016277880938297240, 6.709824032996593246, -1.378169555442727123 ) ) ;
#30771 = CIRCLE ( 'NONE', #35701, 6.499999999997912781 ) ;
#30795 = CARTESIAN_POINT ( 'NONE',  ( 4.700000000000592593, 3.752776749746389306, 6.500000000013050894 ) ) ;
#30813 = DIRECTION ( 'NONE',  ( 4.822531263218676642E-14, 0.4999999999999101830, -0.8660254037844904440 ) ) ;
#31559 = LINE ( 'NONE', #33081, #48085 ) ;
#31696 = CARTESIAN_POINT ( 'NONE',  ( 0.01348548317765396048, 0.6346110968047377066, -6.500185623852201111 ) ) ;
#32537 = AXIS2_PLACEMENT_3D ( 'NONE', #157692, #297985, #109439 ) ;
#32859 = VERTEX_POINT ( 'NONE', #29845 ) ;
#32973 = DIRECTION ( 'NONE',  ( -3.225197886535735175E-14, -0.5000000000002804423, -0.8660254037842767261 ) ) ;
#33081 = CARTESIAN_POINT ( 'NONE',  ( 30.30000000012034178, 7.327471962526033167E-12, -3.309499999986531549 ) ) ;
#33339 = CARTESIAN_POINT ( 'NONE',  ( 0.000000000000000000, 0.000000000000000000, 0.000000000000000000 ) ) ;
#33554 = CARTESIAN_POINT ( 'NONE',  ( 0.01339302944460508960, 5.945983493768556727, -2.701382127700029834 ) ) ;
#33917 = ORIENTED_EDGE ( 'NONE', *, *, #177792, .F. ) ;
#34266 = CARTESIAN_POINT ( 'NONE',  ( 0.1320310897170067221, -4.759281907711911508, 4.756667356938960367 ) ) ;
#34906 = CIRCLE ( 'NONE', #209200, 6.499999999997912781 ) ;
#35075 = CARTESIAN_POINT ( 'NONE',  ( 0.06903983541994763995, -1.261754696138525755, -6.500022533933377922 ) ) ;
#35416 = DIRECTION ( 'NONE',  ( -8.038014698286129566E-14, -1.000000000000000000, -4.222178162649468304E-13 ) ) ;
#35701 = AXIS2_PLACEMENT_3D ( 'NONE', #19587, #164515, #236205 ) ;
#35719 = DIRECTION ( 'NONE',  ( 8.940497914652568706E-15, -4.298783551349986442E-13, -1.000000000000000000 ) ) ;
#35726 = VERTEX_POINT ( 'NONE', #13270 ) ;
#36105 = AXIS2_PLACEMENT_3D ( 'NONE', #303437, #89936, #256760 ) ;
#36384 = CARTESIAN_POINT ( 'NONE',  ( 5.300000000001858780, 4.884981308350688778E-12, 7.660538869913580129E-12 ) ) ;
#36509 = EDGE_CURVE ( 'NONE', #21833, #141864, #51428, .T. ) ;
#36856 = EDGE_CURVE ( 'NONE', #102898, #60445, #39183, .T. ) ;
#36974 = FACE_OUTER_BOUND ( 'NONE', #145744, .T. ) ;
#37719 = EDGE_LOOP ( 'NONE', ( #181348, #153108, #307001, #161131, #14235, #147601 ) ) ;
#38257 = LINE ( 'NONE', #161274, #155049 ) ;
#38414 = VECTOR ( 'NONE', #265595, 1000.000000000000000 ) ;
#38895 = B_SPLINE_CURVE_WITH_KNOTS ( 'NONE', 3,
 ( #195460, #171994, #242211, #291980, #98800, #173503, #145531, #78490, #290458, #193894, #218793, #243746, #6773, #76986, #55085, #150107, #31696, #126755, #51994 ),
 .UNSPECIFIED., .F., .F.,
 ( 4, 2, 2, 1, 2, 2, 2, 2, 2, 4 ),
 ( 0.000000000000000000, 0.2500000000000010547, 0.3750000000000017764, 0.4375000000000020539, 0.4687500000000021094, 0.5000000000000021094, 0.6250000000000016653, 0.6875000000000013323, 0.7500000000000009992, 1.000000000000000000 ),
 .UNSPECIFIED. ) ;
#38994 = CARTESIAN_POINT ( 'NONE',  ( 0.000000000000000000, 0.000000000000000000, 0.000000000000000000 ) ) ;
#39183 = B_SPLINE_CURVE_WITH_KNOTS ( 'NONE', 3,
 ( #4958, #145249, #124953, #220056, #192048, #47094, #142197, #285547, #237274, #100066, #143715, #240365, #216968, #72078, #238842, #195171, #73638 ),
 .UNSPECIFIED., .F., .F.,
 ( 4, 2, 2, 2, 2, 1, 2, 2, 4 ),
 ( 0.000000000000000000, 0.1249999999999999445, 0.1874999999999998890, 0.2499999999999998335, 0.3749999999999997780, 0.4374999999999997780, 0.4687499999999996114, 0.4999999999999995004, 1.000000000000000000 ),
 .UNSPECIFIED. ) ;
#40124 = EDGE_CURVE ( 'NONE', #122657, #67104, #22669, .T. ) ;
#40206 = VERTEX_POINT ( 'NONE', #192935 ) ;
#40235 = CARTESIAN_POINT ( 'NONE',  ( 4.700000000000592593, 6.328271240363392280E-12, 9.769962616701377556E-12 ) ) ;
#40253 = CARTESIAN_POINT ( 'NONE',  ( 5.300000000119098331, 3.752776749734398898, -6.499999999979966248 ) ) ;
#40672 = CARTESIAN_POINT ( 'NONE',  ( 0.2016277880950417545, 4.548441862234718691, 5.121793289772232249 ) ) ;
#41210 = CYLINDRICAL_SURFACE ( 'NONE', #67040, 6.499999999997912781 ) ;
#41611 = PLANE ( 'NONE',  #36105 ) ;
#42213 = CARTESIAN_POINT ( 'NONE',  ( 0.3960962806488099730, 7.186058882780847590, 0.5533809088527791298 ) ) ;
#42299 = CARTESIAN_POINT ( 'NONE',  ( 0.1307459059436041626, -6.497834290645696065, 1.745418503902571805 ) ) ;
#43564 = ORIENTED_EDGE ( 'NONE', *, *, #272393, .F. ) ;
#43619 = ORIENTED_EDGE ( 'NONE', *, *, #122421, .T. ) ;
#43950 = CIRCLE ( 'NONE', #108947, 3.999999999998715694 ) ;
#44686 = PRODUCT_DEFINITION_CONTEXT ( 'detailed design', #49047, 'design' ) ;
#45657 = CARTESIAN_POINT ( 'NONE',  ( 4.700000000120496679, 3.752776749738173656, -6.499999999985295318 ) ) ;
#45999 = CARTESIAN_POINT ( 'NONE',  ( 4.700000000001036682, -5.629165124593438208, 3.250000000003860912 ) ) ;
#46024 = LINE ( 'NONE', #206762, #187657 ) ;
#46190 = ADVANCED_FACE ( 'NONE', ( #49122 ), #298728, .T. ) ;
#46612 = VERTEX_POINT ( 'NONE', #287247 ) ;
#46763 = CARTESIAN_POINT ( 'NONE',  ( 0.09881229225459582655, -6.380879742518831499, -1.947938784938943124 ) ) ;
#47094 = CARTESIAN_POINT ( 'NONE',  ( 0.02781380905389722533, 0.7954656537076979506, 6.500163072610279258 ) ) ;
#47391 = CARTESIAN_POINT ( 'NONE',  ( 4.700000000001924860, -7.505553499456474320, 7.549516567451064475E-12 ) ) ;
#47423 = VECTOR ( 'NONE', #212526, 1000.000000000000000 ) ;
#47851 = LINE ( 'NONE', #238045, #160832 ) ;
#47937 = EDGE_CURVE ( 'NONE', #187670, #177260, #73620, .T. ) ;
#48085 = VECTOR ( 'NONE', #291847, 999.9999999999998863 ) ;
#48204 = VECTOR ( 'NONE', #230984, 1000.000000000000000 ) ;
#48267 = CARTESIAN_POINT ( 'NONE',  ( 0.01342462505706452230, -5.907329089086255536, -2.768132330865372914 ) ) ;
#48564 = ADVANCED_FACE ( 'NONE', ( #288065 ), #186868, .T. ) ;
#49047 = APPLICATION_CONTEXT ( 'automotive_design' ) ;
#49122 = FACE_OUTER_BOUND ( 'NONE', #205902, .T. ) ;
#49345 = ADVANCED_FACE ( 'NONE', ( #153453 ), #41210, .T. ) ;
#49857 = CARTESIAN_POINT ( 'NONE',  ( 0.07923451269043148282, 4.956746323319716652, 4.414687408539632152 ) ) ;
#50392 = CARTESIAN_POINT ( 'NONE',  ( 0.02768828917915089685, 5.231616358423425872, -3.938552998468921817 ) ) ;
#51428 = CIRCLE ( 'NONE', #111271, 3.999999999998715694 ) ;
#51968 = ADVANCED_FACE ( 'NONE', ( #288369 ), #169924, .F. ) ;
#51994 = CARTESIAN_POINT ( 'NONE',  ( 1.190159082398167811E-10, -3.330669073875469621E-13, -6.499999999996841638 ) ) ;
#52689 = AXIS2_PLACEMENT_3D ( 'NONE', #38994, #272836, #205833 ) ;
#53115 = AXIS2_PLACEMENT_3D ( 'NONE', #192727, #217651, #145902 ) ;
#53208 = CARTESIAN_POINT ( 'NONE',  ( 0.000000000000000000, -5.629165124598212167, 3.249999999999642064 ) ) ;
#53333 = AXIS2_PLACEMENT_3D ( 'NONE', #261309, #99111, #75765 ) ;
#53877 = CARTESIAN_POINT ( 'NONE',  ( 0.2008820475244072756, -2.157298653478757711, 6.499962344257922631 ) ) ;
#54034 = CARTESIAN_POINT ( 'NONE',  ( 2.664535259100375697E-12, 1.221245327087672194E-12, 4.000000000000447642 ) ) ;
#54287 = DIRECTION ( 'NONE',  ( 8.890457814383990458E-15, -4.298783551349986442E-13, -1.000000000000000000 ) ) ;
#55057 = DIRECTION ( 'NONE',  ( -1.000000000000000000, -5.895284260751101922E-14, 1.715294573043399614E-14 ) ) ;
#55085 = CARTESIAN_POINT ( 'NONE',  ( 0.05452136200975748331, 1.113764486952090627, -6.500162534718350038 ) ) ;
#55518 = PLANE ( 'NONE',  #282926 ) ;
#55598 = LINE ( 'NONE', #54034, #175006 ) ;
#56080 = ORIENTED_EDGE ( 'NONE', *, *, #248777, .F. ) ;
#56103 = DIRECTION ( 'NONE',  ( -1.000000000000000000, -5.895284260751101922E-14, 1.715294573043399614E-14 ) ) ;
#56121 = CARTESIAN_POINT ( 'NONE',  ( 2.966882187315140508E-13, -5.549465212718192930, 3.388044296745577721 ) ) ;
#56155 = ORIENTED_EDGE ( 'NONE', *, *, #7619, .T. ) ;
#56276 = ( NAMED_UNIT ( * ) PLANE_ANGLE_UNIT ( ) SI_UNIT ( $, .RADIAN. ) );
#56325 = EDGE_LOOP ( 'NONE', ( #229107, #130989, #257365, #89123, #206671, #3534 ) ) ;
#56382 = ORIENTED_EDGE ( 'NONE', *, *, #197857, .T. ) ;
#56675 = PRODUCT_DEFINITION_SHAPE ( 'NONE', 'NONE',  #125255 ) ;
#56678 = EDGE_CURVE ( 'NONE', #215263, #307498, #22830, .T. ) ;
#56762 = CARTESIAN_POINT ( 'NONE',  ( 0.000000000000000000, 0.000000000000000000, 0.000000000000000000 ) ) ;
#56824 = EDGE_CURVE ( 'NONE', #85186, #102898, #252255, .T. ) ;
#56900 = CARTESIAN_POINT ( 'NONE',  ( 0.03326447352100158489, -0.8703027034043098187, -6.500069876807296865 ) ) ;
#56928 = DIRECTION ( 'NONE',  ( 4.803102360287704217E-14, 0.4999999999999152345, -0.8660254037844875574 ) ) ;
#57711 = ADVANCED_FACE ( 'NONE', ( #135994 ), #112593, .F. ) ;
#58487 = CARTESIAN_POINT ( 'NONE',  ( -3.145032392007498044E-13, 5.788166003990175668, -2.974602398456617003 ) ) ;
#59459 = EDGE_CURVE ( 'NONE', #246159, #122657, #195750, .T. ) ;
#59876 = CIRCLE ( 'NONE', #144436, 6.499999999997912781 ) ;
#59928 = EDGE_CURVE ( 'NONE', #63170, #122657, #8049, .T. ) ;
#60398 = UNCERTAINTY_MEASURE_WITH_UNIT (LENGTH_MEASURE( 1.000000000000000082E-05 ), #195116, 'distance_accuracy_value', 'NONE');
#60445 = VERTEX_POINT ( 'NONE', #71396 ) ;
#60810 = CYLINDRICAL_SURFACE ( 'NONE', #52689, 3.999999999998715694 ) ;
#61398 = EDGE_LOOP ( 'NONE', ( #123984, #189372, #253004 ) ) ;
#61710 = EDGE_LOOP ( 'NONE', ( #293661, #96889, #67849, #222967 ) ) ;
#62355 = CIRCLE ( 'NONE', #102160, 6.499999999997912781 ) ;
#62394 = CARTESIAN_POINT ( 'NONE',  ( 29.60950000011930427, -1.554312234475219157E-12, -3.999999999986347810 ) ) ;
#63170 = VERTEX_POINT ( 'NONE', #239795 ) ;
#63252 = ORIENTED_EDGE ( 'NONE', *, *, #69109, .F. ) ;
#63400 = DIRECTION ( 'NONE',  ( -1.000000000000000000, -5.895284260751101922E-14, 1.715294573043399614E-14 ) ) ;
#64072 = CARTESIAN_POINT ( 'NONE',  ( 0.3006270603048992185, 4.300293379562361906, 5.551374412750901932 ) ) ;
#65195 = DIRECTION ( 'NONE',  ( -1.000000000000000000, -5.895284260751101922E-14, 1.715294573043399614E-14 ) ) ;
#65262 = CARTESIAN_POINT ( 'NONE',  ( 5.300000000001858780, 4.884981308350688778E-12, 7.660538869913580129E-12 ) ) ;
#65333 = FACE_OUTER_BOUND ( 'NONE', #304525, .T. ) ;
#65559 = LINE ( 'NONE', #204378, #74311 ) ;
#65683 = CARTESIAN_POINT ( 'NONE',  ( 0.2548172889998246982, 6.881268334339317505, 1.081284575398324677 ) ) ;
#65759 = CARTESIAN_POINT ( 'NONE',  ( 0.4066829935012579722, -7.189113386147140794, 0.5478133848148445395 ) ) ;
#66774 = ADVANCED_FACE ( 'NONE', ( #157096 ), #158904, .T. ) ;
#66847 = CARTESIAN_POINT ( 'NONE',  ( 0.000000000000000000, 0.000000000000000000, 0.000000000000000000 ) ) ;
#67040 = AXIS2_PLACEMENT_3D ( 'NONE', #248669, #13193, #133193 ) ;
#67104 = VERTEX_POINT ( 'NONE', #140660 ) ;
#67149 = CARTESIAN_POINT ( 'NONE',  ( 0.04687560305692171220, 5.112620059833001385, 4.144809425440686645 ) ) ;
#67278 = CARTESIAN_POINT ( 'NONE',  ( 0.4882088420237556958, -7.345602519095611349, 0.2770432247372691670 ) ) ;
#67567 = ORIENTED_EDGE ( 'NONE', *, *, #47937, .F. ) ;
#67849 = ORIENTED_EDGE ( 'NONE', *, *, #114140, .F. ) ;
#68135 = CARTESIAN_POINT ( 'NONE',  ( 2.664535259100375697E-12, -5.629165124601542836, -3.249999999998198774 ) ) ;
#68671 = CARTESIAN_POINT ( 'NONE',  ( 0.06970085888345763092, -6.263151584778442249, -2.151847309668674768 ) ) ;
#68741 = CARTESIAN_POINT ( 'NONE',  ( 1.199040866595169064E-10, 5.629165124604096349, 3.250000000013408830 ) ) ;
#68763 = ORIENTED_EDGE ( 'NONE', *, *, #144699, .T. ) ;
#69109 = EDGE_CURVE ( 'NONE', #229383, #215226, #59876, .T. ) ;
#70247 = CARTESIAN_POINT ( 'NONE',  ( 0.1307459059421345327, 4.760493909938912971, 4.754580313320691864 ) ) ;
#70277 = AXIS2_PLACEMENT_3D ( 'NONE', #148800, #197246, #153398 ) ;
#70420 = ADVANCED_FACE ( 'NONE', ( #149589 ), #273871, .T. ) ;
#70537 = ORIENTED_EDGE ( 'NONE', *, *, #289576, .T. ) ;
#71198 = CARTESIAN_POINT ( 'NONE',  ( 0.06982419635179044903, -1.261900421135911943, 6.500028873205149438 ) ) ;
#71396 = CARTESIAN_POINT ( 'NONE',  ( 0.5805565836025650128, 3.752776749737618545, 6.500000000014716228 ) ) ;
#71593 = VECTOR ( 'NONE', #32973, 1000.000000000000114 ) ;
#71742 = CARTESIAN_POINT ( 'NONE',  ( 0.02768828917980482168, -6.026695130043274062, -2.561436170005099822 ) ) ;
#71813 = CARTESIAN_POINT ( 'NONE',  ( 0.03369948430600806094, 6.067403235978241050, 2.490950520435784021 ) ) ;
#72078 = CARTESIAN_POINT ( 'NONE',  ( 0.1516978518233839945, 1.867103057510958175, 6.500000314264568146 ) ) ;
#72087 = SHAPE_REPRESENTATION ( '\X2\0411043e043b0442\X0\ \X2\041c\X0\8\X2\0445\X0\25 DIN 933', ( #267245 ), #154340 ) ;
#72575 = AXIS2_PLACEMENT_3D ( 'NONE', #276110, #131200, #156059 ) ;
#72627 = ORIENTED_EDGE ( 'NONE', *, *, #12430, .F. ) ;
#72676 = CARTESIAN_POINT ( 'NONE',  ( 0.003316374569819959851, -0.3158004311161117239, -6.499981248624788321 ) ) ;
#72741 = CARTESIAN_POINT ( 'NONE',  ( 0.01339302944527902273, -5.312457294796186780, -3.798681692240403862 ) ) ;
#73620 = B_SPLINE_CURVE_WITH_KNOTS ( 'NONE', 3,
 ( #200357, #67278, #65759, #229441, #295300, #159243, #257472, #277713, #137398, #209199, #42299, #138939, #234057, #81801, #210704, #162269, #20490, #282310, #115561 ),
 .UNSPECIFIED., .F., .F.,
 ( 4, 2, 2, 1, 2, 2, 2, 2, 2, 4 ),
 ( 0.000000000000000000, 0.2499999999999998335, 0.3749999999999997224, 0.4374999999999998335, 0.4687499999999999445, 0.5000000000000001110, 0.6250000000000000000, 0.6875000000000000000, 0.7499999999999998890, 1.000000000000000000 ),
 .UNSPECIFIED. ) ;
#73638 = CARTESIAN_POINT ( 'NONE',  ( 0.5805565836025650128, 3.752776749737618545, 6.500000000014716228 ) ) ;
#74311 = VECTOR ( 'NONE', #134124, 1000.000000000000000 ) ;
#74606 = B_SPLINE_CURVE_WITH_KNOTS ( 'NONE', 3,
 ( #233341, #114870, #213063, #210020, #164709, #22831, #304962, #308039, #142849, #1034, #96101, #258320, #191177, #186559, #281618, #286212, #72741, #262869, #68135 ),
 .UNSPECIFIED., .F., .F.,
 ( 4, 2, 2, 1, 2, 2, 2, 2, 2, 4 ),
 ( 0.000000000000000000, 0.2500000000000009992, 0.3750000000000014988, 0.4375000000000018874, 0.4687500000000018874, 0.5000000000000018874, 0.6250000000000021094, 0.6875000000000021094, 0.7500000000000018874, 1.000000000000000000 ),
 .UNSPECIFIED. ) ;
#75310 = ORIENTED_EDGE ( 'NONE', *, *, #104986, .T. ) ;
#75387 = CARTESIAN_POINT ( 'NONE',  ( 0.2548172890029240523, 4.377054078184034580, -5.418710900096568750 ) ) ;
#75503 = LINE ( 'NONE', #170514, #38414 ) ;
#75765 = DIRECTION ( 'NONE',  ( 8.038014698286129566E-14, 1.000000000000000000, 4.222178162649468304E-13 ) ) ;
#76986 = CARTESIAN_POINT ( 'NONE',  ( 0.07094203378441692187, 1.271622694212667604, -6.500113791692216481 ) ) ;
#77224 = LINE ( 'NONE', #223640, #140494 ) ;
#77317 = CARTESIAN_POINT ( 'NONE',  ( 0.1307459059420900127, 6.497834290643878852, -1.745418503904383023 ) ) ;
#78378 = CARTESIAN_POINT ( 'NONE',  ( 0.000000000000000000, 0.000000000000000000, 0.000000000000000000 ) ) ;
#78490 = CARTESIAN_POINT ( 'NONE',  ( 0.1831808565639553299, 2.055909660200418099, -6.499986457859747269 ) ) ;
#78618 = EDGE_CURVE ( 'NONE', #32859, #118596, #31559, .T. ) ;
#78675 = ORIENTED_EDGE ( 'NONE', *, *, #272393, .T. ) ;
#78778 = CARTESIAN_POINT ( 'NONE',  ( 0.01741096649124584256, -0.6315258925498327125, -6.500023811188302858 ) ) ;
#78808 = LINE ( 'NONE', #4011, #184167 ) ;
#78817 = CARTESIAN_POINT ( 'NONE',  ( 0.5805565837215809211, 7.505553499463024636, 1.243449787580175325E-11 ) ) ;
#78896 = EDGE_CURVE ( 'NONE', #177260, #85186, #87533, .T. ) ;
#79503 = DIRECTION ( 'NONE',  ( 1.000000000000000000, 5.895284260751101922E-14, -1.715294573043399614E-14 ) ) ;
#79660 = ADVANCED_FACE ( 'NONE', ( #138175 ), #92940, .T. ) ;
#79859 = VECTOR ( 'NONE', #158526, 1000.000000000000000 ) ;
#80335 = CARTESIAN_POINT ( 'NONE',  ( 0.09798166532445655441, -1.496966282394168513, -6.499998539888920845 ) ) ;
#80382 = CARTESIAN_POINT ( 'NONE',  ( 0.07033353054084251488, 6.262457121813630678, -2.153156118996233825 ) ) ;
#80470 = DIRECTION ( 'NONE',  ( 8.038014698286129566E-14, 1.000000000000000000, 4.222178162649468304E-13 ) ) ;
#80692 = EDGE_LOOP ( 'NONE', ( #115045, #125888 ) ) ;
#80877 = LINE ( 'NONE', #205537, #189744 ) ;
#81059 = CARTESIAN_POINT ( 'NONE',  ( 0.02768828917969690800, -5.231616358421489643, 3.938552998471473554 ) ) ;
#81151 = CARTESIAN_POINT ( 'NONE',  ( 4.700000000121384858, -3.752776749731290273, -6.499999999998173905 ) ) ;
#81188 = ORIENTED_EDGE ( 'NONE', *, *, #27111, .F. ) ;
#81628 = ORIENTED_EDGE ( 'NONE', *, *, #188263, .F. ) ;
#81723 = CONICAL_SURFACE ( 'NONE', #211284, 6.499999999997912781, 1.047197551196598297 ) ;
#81776 = ORIENTED_EDGE ( 'NONE', *, *, #6776, .F. ) ;
#81801 = CARTESIAN_POINT ( 'NONE',  ( 0.07033353054261314019, -6.262457121816336958, 2.153156118994063117 ) ) ;
#81828 = CARTESIAN_POINT ( 'NONE',  ( 0.1429959859588450233, -1.811792522090381885, -6.499999376003165352 ) ) ;
#81936 = DIRECTION ( 'NONE',  ( 1.000000000000000000, 5.895284260751101922E-14, -1.715294573043399614E-14 ) ) ;
#82249 = EDGE_LOOP ( 'NONE', ( #63252, #4503, #270071, #176363, #78675, #291086 ) ) ;
#82464 = DIRECTION ( 'NONE',  ( 1.000000000000000000, 5.895284260751101922E-14, -1.715294573043399614E-14 ) ) ;
#82730 = SHAPE_REPRESENTATION_RELATIONSHIP ( 'NONE' , 'NONE' ,  #72087, #154084 ) ;
#83334 = CARTESIAN_POINT ( 'NONE',  ( 0.1310122678349020520, -1.732897304818091566, -6.499997441273476007 ) ) ;
#84570 = EDGE_LOOP ( 'NONE', ( #112310, #107251, #43564 ) ) ;
#85165 = ORIENTED_EDGE ( 'NONE', *, *, #78618, .F. ) ;
#85186 = VERTEX_POINT ( 'NONE', #222809 ) ;
#85709 = CIRCLE ( 'NONE', #269996, 6.499999999997912781 ) ;
#87448 = CARTESIAN_POINT ( 'NONE',  ( 0.4882088420259745876, 3.912727730111939195, 6.222956775270811036 ) ) ;
#87533 = B_SPLINE_CURVE_WITH_KNOTS ( 'NONE', 3,
 ( #247830, #56121, #199596, #28091, #7793, #81059, #9306, #177596, #224438, #272717, #176072, #34266, #271190, #129350, #10866, #124752, #105961 ),
 .UNSPECIFIED., .F., .F.,
 ( 4, 2, 2, 2, 2, 1, 2, 2, 4 ),
 ( 0.000000000000000000, 0.1250000000000003053, 0.1875000000000002776, 0.2500000000000005551, 0.3750000000000017208, 0.4375000000000022204, 0.4687500000000026645, 0.5000000000000029976, 1.000000000000000000 ),
 .UNSPECIFIED. ) ;
#87605 = LINE ( 'NONE', #131302, #17003 ) ;
#87947 = CARTESIAN_POINT ( 'NONE',  ( 0.5805565837215809211, -3.752776749735620143, -6.499999999998729017 ) ) ;
#88290 = CARTESIAN_POINT ( 'NONE',  ( 30.30000000000043769, 7.660538869913580129E-12, 1.343369859796439414E-11 ) ) ;
#88331 = MANIFOLD_SOLID_BREP ( 'NONE', #277226 ) ;
#89013 = CARTESIAN_POINT ( 'NONE',  ( 0.1320310897179886311, 6.499035722329927545, 1.743325357360512751 ) ) ;
#89123 = ORIENTED_EDGE ( 'NONE', *, *, #287556, .F. ) ;
#89344 = CIRCLE ( 'NONE', #129166, 3.309499999998937625 ) ;
#89936 = DIRECTION ( 'NONE',  ( 1.000000000000000000, -8.038014698285405076E-14, -1.715294573049282307E-14 ) ) ;
#90113 = EDGE_LOOP ( 'NONE', ( #198924, #124328, #159737, #294580, #290610, #289478 ) ) ;
#90415 = ORIENTED_EDGE ( 'NONE', *, *, #290264, .F. ) ;
#90647 = LINE ( 'NONE', #277728, #48204 ) ;
#91997 = CARTESIAN_POINT ( 'NONE',  ( 0.1505885036335877780, -6.559232555885214033, -1.639076520121697245 ) ) ;
#92372 = DIRECTION ( 'NONE',  ( -1.000000000000000000, -5.895284260751101922E-14, 1.715294573043399614E-14 ) ) ;
#92845 = CARTESIAN_POINT ( 'NONE',  ( 29.60950000000117655, 1.443289932012703503E-12, 1.187938636348917498E-11 ) ) ;
#92940 = PLANE ( 'NONE',  #143117 ) ;
#93074 = ORIENTED_EDGE ( 'NONE', *, *, #36509, .F. ) ;
#93713 = CARTESIAN_POINT ( 'NONE',  ( 4.700000000001480771, -5.629165124594326386, -3.249999999992758681 ) ) ;
#94588 = CARTESIAN_POINT ( 'NONE',  ( 1.776356839400250465E-12, 3.552713678800500929E-12, 6.499999999997840838 ) ) ;
#95112 = CARTESIAN_POINT ( 'NONE',  ( 0.1145415415378961688, -6.439841003248699458, -1.845831382508525520 ) ) ;
#95156 = VECTOR ( 'NONE', #114193, 1000.000000000000000 ) ;
#95643 = CARTESIAN_POINT ( 'NONE',  ( 0.01342462505640847938, 5.350937464116027442, -3.731830894219128503 ) ) ;
#96000 = EDGE_CURVE ( 'NONE', #17119, #215153, #201372, .T. ) ;
#96101 = CARTESIAN_POINT ( 'NONE',  ( 0.1307459059436044124, -4.760493909939753188, -4.754580313321851825 ) ) ;
#96238 = VERTEX_POINT ( 'NONE', #121579 ) ;
#96889 = ORIENTED_EDGE ( 'NONE', *, *, #237513, .T. ) ;
#97209 = ADVANCED_FACE ( 'NONE', ( #171491 ), #288197, .T. ) ;
#97346 = ORIENTED_EDGE ( 'NONE', *, *, #36509, .T. ) ;
#98014 = CARTESIAN_POINT ( 'NONE',  ( 30.30000000000043769, 7.660538869913580129E-12, 1.343369859796439414E-11 ) ) ;
#98228 = EDGE_CURVE ( 'NONE', #215226, #18153, #122586, .T. ) ;
#98800 = CARTESIAN_POINT ( 'NONE',  ( 0.2692843053651366447, 2.510551354696832771, -6.499878182617429445 ) ) ;
#99111 = DIRECTION ( 'NONE',  ( 1.000000000000000000, -8.038014698285405076E-14, -1.715294573049282307E-14 ) ) ;
#99197 = FACE_OUTER_BOUND ( 'NONE', #56325, .T. ) ;
#99440 = VERTEX_POINT ( 'NONE', #131246 ) ;
#100066 = CARTESIAN_POINT ( 'NONE',  ( 0.09949252164922516017, 1.508429070914404369, 6.500040582618181517 ) ) ;
#100710 = CARTESIAN_POINT ( 'NONE',  ( 0.05364288127286548358, -1.105306392971146856, 6.500055618678671543 ) ) ;
#100774 = CARTESIAN_POINT ( 'NONE',  ( 4.700000000119608501, 6.500000000004502176, 1.065814103640150279E-11 ) ) ;
#100932 = CARTESIAN_POINT ( 'NONE',  ( 0.000000000000000000, 0.000000000000000000, 0.000000000000000000 ) ) ;
#102160 = AXIS2_PLACEMENT_3D ( 'NONE', #233964, #162191, #280702 ) ;
#102330 = DIRECTION ( 'NONE',  ( -8.992806499466655208E-15, 4.298783551349986442E-13, 1.000000000000000000 ) ) ;
#102446 = DIRECTION ( 'NONE',  ( -1.000000000000000000, -5.895284260751101922E-14, 1.715294573043399614E-14 ) ) ;
#102696 = EDGE_LOOP ( 'NONE', ( #56382, #104877, #195957 ) ) ;
#102898 = VERTEX_POINT ( 'NONE', #147191 ) ;
#103200 = CARTESIAN_POINT ( 'NONE',  ( 1.190159082398167811E-10, -3.330669073875469621E-13, -6.499999999996841638 ) ) ;
#103932 = EDGE_CURVE ( 'NONE', #256475, #118596, #104079, .T. ) ;
#104079 = CIRCLE ( 'NONE', #288069, 3.999999999998715694 ) ;
#104877 = ORIENTED_EDGE ( 'NONE', *, *, #205639, .T. ) ;
#104986 = EDGE_CURVE ( 'NONE', #215226, #17119, #34906, .T. ) ;
#105237 = CARTESIAN_POINT ( 'NONE',  ( 0.05286053746908392359, -1.105353580990636964, -6.500066308270568527 ) ) ;
#105961 = CARTESIAN_POINT ( 'NONE',  ( 0.5805565836016768344, -3.752776749731623340, 6.500000000000061284 ) ) ;
#106731 = CARTESIAN_POINT ( 'NONE',  ( 0.01326549827906257223, -0.5525508500058319283, -6.500008082066475623 ) ) ;
#106932 = EDGE_CURVE ( 'NONE', #46612, #60445, #80877, .T. ) ;
#106996 = CARTESIAN_POINT ( 'NONE',  ( 29.60950000000162063, 4.551914400963141816E-12, 4.000000000003778311 ) ) ;
#107251 = ORIENTED_EDGE ( 'NONE', *, *, #149582, .T. ) ;
#107619 = ADVANCED_FACE ( 'NONE', ( #133013 ), #225045, .T. ) ;
#107884 = CIRCLE ( 'NONE', #272100, 6.499999999997912781 ) ;
#108238 = PLANE ( 'NONE',  #13205 ) ;
#108610 = LINE ( 'NONE', #30795, #150010 ) ;
#108947 = AXIS2_PLACEMENT_3D ( 'NONE', #194676, #216481, #54287 ) ;
#109439 = DIRECTION ( 'NONE',  ( -8.054668043655509439E-14, -1.000000000000000000, -4.172495682297493558E-13 ) ) ;
#109773 = DIRECTION ( 'NONE',  ( 1.000000000000000000, 5.895284260751101922E-14, -1.715294573043399614E-14 ) ) ;
#110395 = DIRECTION ( 'NONE',  ( -8.940497914652568706E-15, 4.298783551349987956E-13, 1.000000000000000000 ) ) ;
#110706 = AXIS2_PLACEMENT_3D ( 'NONE', #100932, #102446, #197583 ) ;
#111155 = DIRECTION ( 'NONE',  ( -8.940497914652568706E-15, 4.298783551349987956E-13, 1.000000000000000000 ) ) ;
#111271 = AXIS2_PLACEMENT_3D ( 'NONE', #36384, #246874, #179723 ) ;
#111467 = CARTESIAN_POINT ( 'NONE',  ( 4.700000000119608501, 6.500000000004502176, 1.065814103640150279E-11 ) ) ;
#111823 = ORIENTED_EDGE ( 'NONE', *, *, #160489, .T. ) ;
#111895 = DIRECTION ( 'NONE',  ( -8.940497914652568706E-15, 4.298783551349987956E-13, 1.000000000000000000 ) ) ;
#112310 = ORIENTED_EDGE ( 'NONE', *, *, #36856, .T. ) ;
#112593 = PLANE ( 'NONE',  #269409 ) ;
#113391 = CARTESIAN_POINT ( 'NONE',  ( 4.700000000000592593, 6.328271240363392280E-12, 9.769962616701377556E-12 ) ) ;
#113999 = B_SPLINE_CURVE_WITH_KNOTS ( 'NONE', 3,
 ( #205987, #87448, #182487, #64072, #159107, #254325, #40672, #135738, #190215, #116966, #70247, #261915, #49857, #216653, #165268, #67149, #24953, #168332, #166797 ),
 .UNSPECIFIED., .F., .F.,
 ( 4, 2, 2, 1, 2, 2, 2, 2, 2, 4 ),
 ( 0.000000000000000000, 0.2499999999999981126, 0.3749999999999968359, 0.4374999999999965028, 0.4687499999999967804, 0.4999999999999971134, 0.6249999999999986677, 0.6874999999999990008, 0.7499999999999993339, 1.000000000000000000 ),
 .UNSPECIFIED. ) ;
#114140 = EDGE_CURVE ( 'NONE', #141864, #21833, #43950, .T. ) ;
#114193 = DIRECTION ( 'NONE',  ( -1.000000000000000000, -5.895284260751101922E-14, 1.715294573043399614E-14 ) ) ;
#114624 = ORIENTED_EDGE ( 'NONE', *, *, #78618, .T. ) ;
#114870 = CARTESIAN_POINT ( 'NONE',  ( 0.4882088420237669091, -3.912727730116708713, -6.222956775262477258 ) ) ;
#115045 = ORIENTED_EDGE ( 'NONE', *, *, #265735, .F. ) ;
#115561 = CARTESIAN_POINT ( 'NONE',  ( 0.000000000000000000, -5.629165124598212167, 3.249999999999642064 ) ) ;
#115811 = AXIS2_PLACEMENT_3D ( 'NONE', #78378, #173386, #151519 ) ;
#116232 = VERTEX_POINT ( 'NONE', #155380 ) ;
#116941 = CARTESIAN_POINT ( 'NONE',  ( 3.640386141643411497E-13, -5.708865036491889811, -3.111955703252401673 ) ) ;
#116966 = CARTESIAN_POINT ( 'NONE',  ( 0.1627295870158488311, 4.661564094188860530, 4.925934737523242291 ) ) ;
#118596 = VERTEX_POINT ( 'NONE', #62394 ) ;
#118889 = AXIS2_PLACEMENT_3D ( 'NONE', #29632, #56103, #151106 ) ;
#119536 = DIRECTION ( 'NONE',  ( -1.000000000000000000, -5.895284260751101922E-14, 1.715294573043399614E-14 ) ) ;
#119819 = EDGE_LOOP ( 'NONE', ( #1273, #146756, #70537 ) ) ;
#120414 = ORIENTED_EDGE ( 'NONE', *, *, #59928, .F. ) ;
#120979 = CARTESIAN_POINT ( 'NONE',  ( 0.01326549827898781259, -0.6304518297064350962, 6.500068725226482158 ) ) ;
#121032 = VERTEX_POINT ( 'NONE', #168236 ) ;
#121579 = CARTESIAN_POINT ( 'NONE',  ( 4.700000000120052590, 7.505553499469685974, 7.660538869913580129E-12 ) ) ;
#122421 = EDGE_CURVE ( 'NONE', #40206, #187670, #123735, .T. ) ;
#122521 = PLANE ( 'NONE',  #53115 ) ;
#122586 = B_SPLINE_CURVE_WITH_KNOTS ( 'NONE', 3,
 ( #263972, #239044, #5159, #95643, #190716, #50392, #285744, #195369, #240566, #193805, #123608, #165768, #284217, #218703, #75387, #262425, #146937 ),
 .UNSPECIFIED., .F., .F.,
 ( 4, 2, 2, 2, 2, 1, 2, 2, 4 ),
 ( 0.000000000000000000, 0.1250000000000005274, 0.1875000000000009714, 0.2500000000000013878, 0.3750000000000028311, 0.4375000000000038303, 0.4687500000000041078, 0.5000000000000043299, 1.000000000000000000 ),
 .UNSPECIFIED. ) ;
#122657 = VERTEX_POINT ( 'NONE', #45999 ) ;
#123141 = ORIENTED_EDGE ( 'NONE', *, *, #24646, .T. ) ;
#123608 = CARTESIAN_POINT ( 'NONE',  ( 0.1145415415375299895, 4.818457369976369975, -4.654150213889801435 ) ) ;
#123735 = B_SPLINE_CURVE_WITH_KNOTS ( 'NONE', 3,
 ( #282155, #116941, #184036, #48267, #190189, #71742, #21845, #257318, #68671, #46763, #95112, #143371, #212070, #91997, #235417, #160593, #255799 ),
 .UNSPECIFIED., .F., .F.,
 ( 4, 2, 2, 2, 2, 1, 2, 2, 4 ),
 ( 0.000000000000000000, 0.1249999999999998335, 0.1874999999999999167, 0.2500000000000000000, 0.3749999999999997780, 0.4374999999999996669, 0.4687499999999996669, 0.4999999999999995559, 1.000000000000000000 ),
 .UNSPECIFIED. ) ;
#123873 = AXIS2_PLACEMENT_3D ( 'NONE', #40253, #177438, #135312 ) ;
#123984 = ORIENTED_EDGE ( 'NONE', *, *, #212934, .T. ) ;
#124328 = ORIENTED_EDGE ( 'NONE', *, *, #131234, .F. ) ;
#124719 = CARTESIAN_POINT ( 'NONE',  ( 0.000000000000000000, 0.000000000000000000, 0.000000000000000000 ) ) ;
#124752 = CARTESIAN_POINT ( 'NONE',  ( 0.3960962806409485393, -4.072271366441582607, 5.946619091118241940 ) ) ;
#124953 = CARTESIAN_POINT ( 'NONE',  ( 0.003371370794347368968, 0.3177604427086760941, 6.500009409175657282 ) ) ;
#125255 = PRODUCT_DEFINITION ( 'UNKNOWN', '', #206408, #44686 ) ;
#125514 = CARTESIAN_POINT ( 'NONE',  ( 0.1136208010212643588, -1.614723627292653729, -6.499994197036590649 ) ) ;
#125553 = CARTESIAN_POINT ( 'NONE',  ( 0.1687669852191757691, 6.614919921523669366, -1.542616557230529706 ) ) ;
#125888 = ORIENTED_EDGE ( 'NONE', *, *, #216681, .F. ) ;
#126056 = EDGE_CURVE ( 'NONE', #96238, #215153, #165573, .T. ) ;
#126263 = ORIENTED_EDGE ( 'NONE', *, *, #245438, .T. ) ;
#126591 = CIRCLE ( 'NONE', #276122, 6.499999999997912781 ) ;
#126729 = CARTESIAN_POINT ( 'NONE',  ( 5.300000000002746958, -7.505553499455586142, 8.659739592076221015E-12 ) ) ;
#126755 = CARTESIAN_POINT ( 'NONE',  ( 3.966674114946279630E-14, 0.3182799045612809130, -6.499999999998049560 ) ) ;
#127173 = EDGE_LOOP ( 'NONE', ( #224709, #5745, #111823 ) ) ;
#127456 = ORIENTED_EDGE ( 'NONE', *, *, #78896, .T. ) ;
#127852 = AXIS2_PLACEMENT_3D ( 'NONE', #155360, #270812, #30813 ) ;
#128635 = CARTESIAN_POINT ( 'NONE',  ( 1.199040866595169064E-10, 5.629165124602764081, -3.249999999989428012 ) ) ;
#129166 = AXIS2_PLACEMENT_3D ( 'NONE', #98014, #191563, #258720 ) ;
#129350 = CARTESIAN_POINT ( 'NONE',  ( 0.1505885036337620275, -4.699098183116373839, 4.860923762658577729 ) ) ;
#130118 = CARTESIAN_POINT ( 'NONE',  ( 30.30000000000043769, 7.660538869913580129E-12, 1.343369859796439414E-11 ) ) ;
#130194 = CARTESIAN_POINT ( 'NONE',  ( 0.3006270603025609223, 6.957777957144614334, -0.9484761040519429365 ) ) ;
#130299 = ADVANCED_FACE ( 'NONE', ( #65333 ), #81723, .T. ) ;
#130989 = ORIENTED_EDGE ( 'NONE', *, *, #290264, .T. ) ;
#131200 = DIRECTION ( 'NONE',  ( -1.000000000000000000, -5.895284260751101922E-14, 1.715294573043399614E-14 ) ) ;
#131234 = EDGE_CURVE ( 'NONE', #121032, #99440, #62355, .T. ) ;
#131246 = CARTESIAN_POINT ( 'NONE',  ( 5.300000000119098331, 2.886579864025407005E-12, -6.499999999991401545 ) ) ;
#131302 = CARTESIAN_POINT ( 'NONE',  ( 5.300000000119098331, 3.752776749734398898, -6.499999999979966248 ) ) ;
#133013 = FACE_OUTER_BOUND ( 'NONE', #238812, .T. ) ;
#133104 = EDGE_LOOP ( 'NONE', ( #134041, #218992, #152129, #133257, #288763, #230280 ) ) ;
#133193 = DIRECTION ( 'NONE',  ( -8.992806499466655208E-15, 4.298783551349986442E-13, 1.000000000000000000 ) ) ;
#133257 = ORIENTED_EDGE ( 'NONE', *, *, #56824, .F. ) ;
#134041 = ORIENTED_EDGE ( 'NONE', *, *, #262003, .F. ) ;
#134124 = DIRECTION ( 'NONE',  ( -0.7071067811870543895, 2.963324030601724805E-13, 0.7071067811860407559 ) ) ;
#135312 = DIRECTION ( 'NONE',  ( -1.000000000000000000, -5.895284260751101922E-14, 1.715294573043399614E-14 ) ) ;
#135738 = CARTESIAN_POINT ( 'NONE',  ( 0.1817083958750050909, 4.605432099384039191, 5.023129589838469578 ) ) ;
#135994 = FACE_OUTER_BOUND ( 'NONE', #82249, .T. ) ;
#137312 = CARTESIAN_POINT ( 'NONE',  ( 0.5805565837215809211, 7.505553499463024636, 1.243449787580175325E-11 ) ) ;
#137398 = CARTESIAN_POINT ( 'NONE',  ( 0.1687669852195781417, -6.614919921522843360, 1.542616557231309304 ) ) ;
#137700 = VECTOR ( 'NONE', #165417, 1000.000000000000114 ) ;
#138175 = FACE_OUTER_BOUND ( 'NONE', #6068, .T. ) ;
#138939 = CARTESIAN_POINT ( 'NONE',  ( 0.1082729533089506341, -6.419208835504980115, 1.881580369142128450 ) ) ;
#139245 = CARTESIAN_POINT ( 'NONE',  ( 1.776356839400250465E-12, 3.552713678800500929E-12, 6.499999999997840838 ) ) ;
#139715 = DIRECTION ( 'NONE',  ( 1.000000000000000000, -8.038014698285405076E-14, -1.715294573049282307E-14 ) ) ;
#140395 = CARTESIAN_POINT ( 'NONE',  ( 5.300000000001414691, 3.752776749744501927, 6.500000000013272938 ) ) ;
#140494 = VECTOR ( 'NONE', #248595, 1000.000000000000114 ) ;
#140660 = CARTESIAN_POINT ( 'NONE',  ( 4.700000000001480771, 1.232347557333923760E-11, 6.500000000005390355 ) ) ;
#141690 = ADVANCED_FACE ( 'NONE', ( #150990 ), #180219, .T. ) ;
#141864 = VERTEX_POINT ( 'NONE', #12267 ) ;
#142197 = CARTESIAN_POINT ( 'NONE',  ( 0.03381888160872308785, 0.8767119011618164093, 6.500185476132053886 ) ) ;
#142303 = DIRECTION ( 'NONE',  ( 1.000000000000000000, -8.038014698285405076E-14, -1.715294573049282307E-14 ) ) ;
#142849 = CARTESIAN_POINT ( 'NONE',  ( 0.1687669852195598785, -4.643405087624111971, -4.957380417414787743 ) ) ;
#142966 = DIRECTION ( 'NONE',  ( 8.054668043655509439E-14, 1.000000000000000000, 4.172495682297493558E-13 ) ) ;
#143117 = AXIS2_PLACEMENT_3D ( 'NONE', #258241, #139715, #186482 ) ;
#143352 = ORIENTED_EDGE ( 'NONE', *, *, #106932, .F. ) ;
#143371 = CARTESIAN_POINT ( 'NONE',  ( 0.1320310897177934539, -6.499035722326213182, -1.743325357367704775 ) ) ;
#143441 = DIRECTION ( 'NONE',  ( -8.038014698286129566E-14, -1.000000000000000000, -4.222178162649468304E-13 ) ) ;
#143715 = CARTESIAN_POINT ( 'NONE',  ( 0.1153425125886327202, 1.627001193084575803, 6.500015179631781770 ) ) ;
#144206 = ORIENTED_EDGE ( 'NONE', *, *, #237513, .F. ) ;
#144436 = AXIS2_PLACEMENT_3D ( 'NONE', #56762, #246954, #172128 ) ;
#144510 = DIRECTION ( 'NONE',  ( -1.000000000000000000, -5.895284260751101922E-14, 1.715294573043399614E-14 ) ) ;
#144649 = ADVANCED_FACE ( 'NONE', ( #182330 ), #60810, .T. ) ;
#144699 = EDGE_CURVE ( 'NONE', #215263, #116232, #161992, .T. ) ;
#145249 = CARTESIAN_POINT ( 'NONE',  ( -6.783378654791331262E-14, 0.1591216080526055010, 6.499999999997844391 ) ) ;
#145447 = EDGE_CURVE ( 'NONE', #177260, #40206, #107884, .T. ) ;
#145531 = CARTESIAN_POINT ( 'NONE',  ( 0.2030751305593874734, 2.169287506349532269, -6.499963960823028408 ) ) ;
#145744 = EDGE_LOOP ( 'NONE', ( #200967, #178518, #23868, #247821, #143352, #300808 ) ) ;
#145902 = DIRECTION ( 'NONE',  ( 1.000000000000000000, 5.895284260751101922E-14, -1.715294573043399614E-14 ) ) ;
#146756 = ORIENTED_EDGE ( 'NONE', *, *, #245726, .T. ) ;
#146937 = CARTESIAN_POINT ( 'NONE',  ( 0.5805565837206927426, 3.752776749730735162, -6.499999999980632381 ) ) ;
#147191 = CARTESIAN_POINT ( 'NONE',  ( 1.776356839400250465E-12, 3.552713678800500929E-12, 6.499999999997840838 ) ) ;
#147502 = B_SPLINE_CURVE_WITH_KNOTS ( 'NONE', 3,
 ( #191102, #286137, #72676, #106731, #78778, #245572, #56900, #105237, #35075, #80335, #125514, #83334, #81828, #151904, #197284, #198828, #5540 ),
 .UNSPECIFIED., .F., .F.,
 ( 4, 2, 2, 2, 2, 1, 2, 2, 4 ),
 ( 0.000000000000000000, 0.1249999999999995837, 0.1874999999999993894, 0.2499999999999991673, 0.3749999999999988343, 0.4374999999999987232, 0.4687499999999987232, 0.4999999999999986677, 1.000000000000000000 ),
 .UNSPECIFIED. ) ;
#147601 = ORIENTED_EDGE ( 'NONE', *, *, #291806, .F. ) ;
#147702 = ORIENTED_EDGE ( 'NONE', *, *, #284420, .T. ) ;
#147750 = ADVANCED_FACE ( 'NONE', ( #180085 ), #19457, .T. ) ;
#148526 = DIRECTION ( 'NONE',  ( -5.963113218863188199E-14, 0.8660254037845990238, -0.4999999999997221667 ) ) ;
#148800 = CARTESIAN_POINT ( 'NONE',  ( 30.30000000000043769, 7.660538869913580129E-12, 1.343369859796439414E-11 ) ) ;
#148803 = ADVANCED_FACE ( 'NONE', ( #277165 ), #175903, .F. ) ;
#148919 = CARTESIAN_POINT ( 'NONE',  ( 0.2223441326068677226, -2.271748269639401574, 6.499929963094545293 ) ) ;
#149074 = DIRECTION ( 'NONE',  ( -1.000000000000000000, -5.895284260751101922E-14, 1.715294573043399614E-14 ) ) ;
#149389 = AXIS2_PLACEMENT_3D ( 'NONE', #126729, #148526, #55057 ) ;
#149507 = ORIENTED_EDGE ( 'NONE', *, *, #220498, .F. ) ;
#149582 = EDGE_CURVE ( 'NONE', #60445, #17119, #113999, .T. ) ;
#149589 = FACE_OUTER_BOUND ( 'NONE', #168363, .T. ) ;
#149610 = ORIENTED_EDGE ( 'NONE', *, *, #56824, .T. ) ;
#150010 = VECTOR ( 'NONE', #35416, 1000.000000000000000 ) ;
#150107 = CARTESIAN_POINT ( 'NONE',  ( 0.04719919112171270387, 1.036040314348958047, -6.500183177665641132 ) ) ;
#150336 = DIRECTION ( 'NONE',  ( -1.000000000000000000, -5.895284260751101922E-14, 1.715294573043399614E-14 ) ) ;
#150990 = FACE_OUTER_BOUND ( 'NONE', #166163, .T. ) ;
#151106 = DIRECTION ( 'NONE',  ( -9.434966782774603016E-15, 4.298783551349987452E-13, 1.000000000000000000 ) ) ;
#151421 = EDGE_CURVE ( 'NONE', #18153, #229383, #38895, .T. ) ;
#151519 = DIRECTION ( 'NONE',  ( 8.992806499466655208E-15, -4.298783551349986442E-13, -1.000000000000000000 ) ) ;
#151904 = CARTESIAN_POINT ( 'NONE',  ( 0.1494304057862264612, -1.852833517042880684, -6.500000284558016261 ) ) ;
#151952 = CARTESIAN_POINT ( 'NONE',  ( 0.1817083958742548022, 6.652873880998135370, -1.476856398547467863 ) ) ;
#152129 = ORIENTED_EDGE ( 'NONE', *, *, #36856, .F. ) ;
#152471 = DIRECTION ( 'NONE',  ( -1.000000000000000000, -5.895284260751101922E-14, 1.715294573043399614E-14 ) ) ;
#153108 = ORIENTED_EDGE ( 'NONE', *, *, #56678, .T. ) ;
#153398 = DIRECTION ( 'NONE',  ( -9.434966782774603016E-15, 4.298783551349987452E-13, 1.000000000000000000 ) ) ;
#153453 = FACE_OUTER_BOUND ( 'NONE', #90113, .T. ) ;
#154015 = CARTESIAN_POINT ( 'NONE',  ( 0.000000000000000000, 0.000000000000000000, 0.000000000000000000 ) ) ;
#154084 = ADVANCED_BREP_SHAPE_REPRESENTATION ( '', ( #88331, #267245 ), #154340 ) ;
#154340 = ( GEOMETRIC_REPRESENTATION_CONTEXT ( 3 ) GLOBAL_UNCERTAINTY_ASSIGNED_CONTEXT ( ( #60398 ) ) GLOBAL_UNIT_ASSIGNED_CONTEXT ( ( #195116, #56276, #244952 ) ) REPRESENTATION_CONTEXT ( 'NONE', 'WORKASPACE' ) );
#154740 = ORIENTED_EDGE ( 'NONE', *, *, #216681, .T. ) ;
#154924 = DIRECTION ( 'NONE',  ( 8.992806499466655208E-15, -4.298783551349986442E-13, -1.000000000000000000 ) ) ;
#155049 = VECTOR ( 'NONE', #229953, 1000.000000000000114 ) ;
#155360 = CARTESIAN_POINT ( 'NONE',  ( 5.300000000119986510, 7.505553499467909617, 7.660538869913580129E-12 ) ) ;
#155380 = CARTESIAN_POINT ( 'NONE',  ( 4.700000000121384858, 5.662137425588298356E-12, -6.499999999992844835 ) ) ;
#155959 = ORIENTED_EDGE ( 'NONE', *, *, #265735, .T. ) ;
#156059 = DIRECTION ( 'NONE',  ( -8.940497914652568706E-15, 4.298783551349987956E-13, 1.000000000000000000 ) ) ;
#157096 = FACE_OUTER_BOUND ( 'NONE', #20517, .T. ) ;
#157692 = CARTESIAN_POINT ( 'NONE',  ( 5.300000000119098331, 3.752776749734398898, -6.499999999979966248 ) ) ;
#157694 = VECTOR ( 'NONE', #163061, 1000.000000000000000 ) ;
#157974 = B_SPLINE_CURVE_WITH_KNOTS ( 'NONE', 3,
 ( #78817, #176902, #268987, #130194, #203490, #245611, #30488, #151952, #125553, #296905, #77317, #198873, #293876, #80382, #172323, #247144, #33554, #58487, #128635 ),
 .UNSPECIFIED., .F., .F.,
 ( 4, 2, 2, 1, 2, 2, 2, 2, 2, 4 ),
 ( 0.000000000000000000, 0.2500000000000002220, 0.3750000000000005551, 0.4375000000000008882, 0.4687500000000008882, 0.5000000000000008882, 0.6250000000000007772, 0.6875000000000007772, 0.7500000000000006661, 1.000000000000000000 ),
 .UNSPECIFIED. ) ;
#158073 = DIRECTION ( 'NONE',  ( 0.000000000000000000, 0.000000000000000000, 1.000000000000000000 ) ) ;
#158526 = DIRECTION ( 'NONE',  ( -1.000000000000000000, -5.895284260751101922E-14, 1.715294573043399614E-14 ) ) ;
#158583 = ORIENTED_EDGE ( 'NONE', *, *, #78896, .F. ) ;
#158904 = CONICAL_SURFACE ( 'NONE', #243742, 6.499999999997912781, 1.047197551196598297 ) ;
#159107 = CARTESIAN_POINT ( 'NONE',  ( 0.2679805558351283645, 4.376891551683778303, 5.418751050772764088 ) ) ;
#159213 = SHAPE_DEFINITION_REPRESENTATION ( #56675, #72087 ) ;
#159243 = CARTESIAN_POINT ( 'NONE',  ( 0.2230690090236032708, -6.766876188059392838, 1.279288402381388412 ) ) ;
#159737 = ORIENTED_EDGE ( 'NONE', *, *, #220498, .T. ) ;
#160489 = EDGE_CURVE ( 'NONE', #67104, #239631, #126591, .T. ) ;
#160593 = CARTESIAN_POINT ( 'NONE',  ( 0.3960962806467721031, -7.186058882775786749, -0.5533809088615105898 ) ) ;
#160832 = VECTOR ( 'NONE', #142966, 1000.000000000000000 ) ;
#161131 = ORIENTED_EDGE ( 'NONE', *, *, #151421, .F. ) ;
#161274 = CARTESIAN_POINT ( 'NONE',  ( 4.700000000001924860, -7.505553499456474320, 7.549516567451064475E-12 ) ) ;
#161992 = LINE ( 'NONE', #210421, #167088 ) ;
#162191 = DIRECTION ( 'NONE',  ( 1.000000000000000000, 5.895284260751101922E-14, -1.715294573043399614E-14 ) ) ;
#162269 = CARTESIAN_POINT ( 'NONE',  ( 0.04687560305759910784, -6.145820286196665094, 2.355254138991133672 ) ) ;
#162922 = DIRECTION ( 'NONE',  ( -1.000000000000000000, -5.895284260751101922E-14, 1.715294573043399614E-14 ) ) ;
#163061 = DIRECTION ( 'NONE',  ( 4.803102360287704217E-14, 0.4999999999999152345, -0.8660254037844875574 ) ) ;
#163355 = EDGE_LOOP ( 'NONE', ( #201182, #17066, #43619 ) ) ;
#164063 = ADVANCED_FACE ( 'NONE', ( #229787 ), #108238, .F. ) ;
#164515 = DIRECTION ( 'NONE',  ( 1.000000000000000000, 5.895284260751101922E-14, -1.715294573043399614E-14 ) ) ;
#164709 = CARTESIAN_POINT ( 'NONE',  ( 0.2679805558319169334, -4.376891551687829285, -5.418751050760907795 ) ) ;
#165028 = DIRECTION ( 'NONE',  ( 1.000000000000000000, -8.038014698285405076E-14, -1.715294573049282307E-14 ) ) ;
#165268 = CARTESIAN_POINT ( 'NONE',  ( 0.05408856235368279808, 5.074244313798857320, 4.211252662435115646 ) ) ;
#165417 = DIRECTION ( 'NONE',  ( -4.822531263218676642E-14, -0.4999999999999101830, 0.8660254037844904440 ) ) ;
#165573 = LINE ( 'NONE', #218109, #95156 ) ;
#165768 = CARTESIAN_POINT ( 'NONE',  ( 0.1320310897173304077, 4.759281907703879710, -4.756667356948953262 ) ) ;
#166163 = EDGE_LOOP ( 'NONE', ( #169938, #224534, #75310 ) ) ;
#166222 = FACE_BOUND ( 'NONE', #200535, .T. ) ;
#166467 = ORIENTED_EDGE ( 'NONE', *, *, #98228, .F. ) ;
#166797 = CARTESIAN_POINT ( 'NONE',  ( 1.199040866595169064E-10, 5.629165124604096349, 3.250000000013408830 ) ) ;
#166837 = CARTESIAN_POINT ( 'NONE',  ( 0.05342265689705487375, 6.184932959539876762, 2.287379482384360507 ) ) ;
#166839 = DIRECTION ( 'NONE',  ( 8.992806499535148845E-15, 4.222178162649461236E-13, -1.000000000000000000 ) ) ;
#167088 = VECTOR ( 'NONE', #1423, 1000.000000000000000 ) ;
#167749 = AXIS2_PLACEMENT_3D ( 'NONE', #294735, #271378, #244978 ) ;
#168236 = CARTESIAN_POINT ( 'NONE',  ( 5.299999999999638334, 4.884981308350688778E-12, 6.500000000002836842 ) ) ;
#168332 = CARTESIAN_POINT ( 'NONE',  ( -3.547071874683155618E-13, 5.470164245222803423, 3.525397601537172854 ) ) ;
#168363 = EDGE_LOOP ( 'NONE', ( #155959, #114624, #179367, #72627 ) ) ;
#168483 = CARTESIAN_POINT ( 'NONE',  ( 4.700000000120052590, 7.505553499469685974, 7.660538869913580129E-12 ) ) ;
#169313 = CARTESIAN_POINT ( 'NONE',  ( 0.1809499513387056446, -2.043067497711614777, 6.499985795568991698 ) ) ;
#169924 = PLANE ( 'NONE',  #217164 ) ;
#169938 = ORIENTED_EDGE ( 'NONE', *, *, #96000, .T. ) ;
#170514 = CARTESIAN_POINT ( 'NONE',  ( 4.700000000000592593, 3.752776749746389306, 6.500000000013050894 ) ) ;
#171491 = FACE_OUTER_BOUND ( 'NONE', #181009, .T. ) ;
#171994 = CARTESIAN_POINT ( 'NONE',  ( 0.4886817541235384810, 3.434513004549140547, -6.499999999999392486 ) ) ;
#172071 = EDGE_LOOP ( 'NONE', ( #253164, #68763, #56155 ) ) ;
#172128 = DIRECTION ( 'NONE',  ( 8.992806499466655208E-15, -4.298783551349986442E-13, -1.000000000000000000 ) ) ;
#172204 = VERTEX_POINT ( 'NONE', #12635 ) ;
#172323 = CARTESIAN_POINT ( 'NONE',  ( 0.05408856235367476978, 6.184173944327578276, -2.288798149536697579 ) ) ;
#173386 = DIRECTION ( 'NONE',  ( 1.000000000000000000, 5.895284260751101922E-14, -1.715294573043399614E-14 ) ) ;
#173503 = CARTESIAN_POINT ( 'NONE',  ( 0.2244754859746934117, 2.282886108395789204, -6.499932832772299385 ) ) ;
#175006 = VECTOR ( 'NONE', #149074, 1000.000000000000000 ) ;
#175526 = DIRECTION ( 'NONE',  ( -1.000000000000000000, -5.895284260751101922E-14, 1.715294573043399614E-14 ) ) ;
#175903 = PLANE ( 'NONE',  #123873 ) ;
#176072 = CARTESIAN_POINT ( 'NONE',  ( 0.1145415415367722761, -4.818457369988595751, 4.654150213874145514 ) ) ;
#176162 = CARTESIAN_POINT ( 'NONE',  ( 0.5805565837215809211, 7.505553499463024636, 1.243449787580175325E-11 ) ) ;
#176363 = ORIENTED_EDGE ( 'NONE', *, *, #245438, .F. ) ;
#176698 = DIRECTION ( 'NONE',  ( -1.000000000000000000, -5.895284260751101922E-14, 1.715294573043399614E-14 ) ) ;
#176902 = CARTESIAN_POINT ( 'NONE',  ( 0.4882088420243388405, 7.345602519098169303, -0.2770432247329605580 ) ) ;
#177260 = VERTEX_POINT ( 'NONE', #53208 ) ;
#177438 = DIRECTION ( 'NONE',  ( 5.963113218863188199E-14, -0.8660254037845990238, 0.4999999999997221667 ) ) ;
#177596 = CARTESIAN_POINT ( 'NONE',  ( 0.05342265689578576393, -5.073395219621473551, 4.212619322449191905 ) ) ;
#177792 = EDGE_CURVE ( 'NONE', #30385, #116232, #85709, .T. ) ;
#178518 = ORIENTED_EDGE ( 'NONE', *, *, #126056, .T. ) ;
#179012 = ORIENTED_EDGE ( 'NONE', *, *, #197857, .F. ) ;
#179367 = ORIENTED_EDGE ( 'NONE', *, *, #103932, .F. ) ;
#179723 = DIRECTION ( 'NONE',  ( 8.890457814383990458E-15, -4.298783551349986442E-13, -1.000000000000000000 ) ) ;
#179939 = DIRECTION ( 'NONE',  ( 1.000000000000000000, 0.000000000000000000, 0.000000000000000000 ) ) ;
#180085 = FACE_OUTER_BOUND ( 'NONE', #172071, .T. ) ;
#180156 = ORIENTED_EDGE ( 'NONE', *, *, #131234, .T. ) ;
#180219 = CONICAL_SURFACE ( 'NONE', #1141, 6.499999999997912781, 1.047197551196598297 ) ;
#180248 = AXIS2_PLACEMENT_3D ( 'NONE', #262334, #142303, #483 ) ;
#180570 = ADVANCED_FACE ( 'NONE', ( #272555 ), #270383, .T. ) ;
#181009 = EDGE_LOOP ( 'NONE', ( #85165, #154740, #278161, #81776 ) ) ;
#181348 = ORIENTED_EDGE ( 'NONE', *, *, #144699, .F. ) ;
#182330 = FACE_OUTER_BOUND ( 'NONE', #61710, .T. ) ;
#182487 = CARTESIAN_POINT ( 'NONE',  ( 0.4066829935049521283, 4.068977000850900971, 5.952048130687311200 ) ) ;
#182763 = AXIS2_PLACEMENT_3D ( 'NONE', #191303, #144510, #102330 ) ;
#183154 = DIRECTION ( 'NONE',  ( 1.000000000000000000, -8.038014698285405076E-14, -1.715294573049282307E-14 ) ) ;
#184036 = CARTESIAN_POINT ( 'NONE',  ( 0.003356156264540444568, -5.788184962020601176, -2.974494712378054295 ) ) ;
#184112 = CARTESIAN_POINT ( 'NONE',  ( 0.1440819660367183841, 6.538558816898738968, 1.674880569869088065 ) ) ;
#184167 = VECTOR ( 'NONE', #56928, 1000.000000000000000 ) ;
#184209 = AXIS2_PLACEMENT_3D ( 'NONE', #88290, #63400, #29631 ) ;
#186115 = VERTEX_POINT ( 'NONE', #47391 ) ;
#186482 = DIRECTION ( 'NONE',  ( 8.038014698286129566E-14, 1.000000000000000000, 4.222178162649468304E-13 ) ) ;
#186559 = CARTESIAN_POINT ( 'NONE',  ( 0.07033353054265763238, -4.995916458273239158, -4.346868898099493173 ) ) ;
#186827 = ADVANCED_FACE ( 'NONE', ( #244222 ), #7243, .T. ) ;
#186868 = PLANE ( 'NONE',  #26921 ) ;
#187657 = VECTOR ( 'NONE', #162922, 1000.000000000000000 ) ;
#187670 = VERTEX_POINT ( 'NONE', #237327 ) ;
#188089 = CARTESIAN_POINT ( 'NONE',  ( 5.300000000118210153, -3.752776749734954009, -6.499999999998173905 ) ) ;
#188263 = EDGE_CURVE ( 'NONE', #30385, #96238, #269480, .T. ) ;
#188415 = DIRECTION ( 'NONE',  ( 8.038014698286129566E-14, 1.000000000000000000, 4.222178162649468304E-13 ) ) ;
#188684 = ORIENTED_EDGE ( 'NONE', *, *, #27111, .T. ) ;
#189372 = ORIENTED_EDGE ( 'NONE', *, *, #59928, .T. ) ;
#189744 = VECTOR ( 'NONE', #152471, 1000.000000000000000 ) ;
#189908 = CARTESIAN_POINT ( 'NONE',  ( 0.000000000000000000, 0.000000000000000000, 0.000000000000000000 ) ) ;
#190189 = CARTESIAN_POINT ( 'NONE',  ( 0.01761982038728245742, -5.947068993815916471, -2.699315280378956405 ) ) ;
#190215 = CARTESIAN_POINT ( 'NONE',  ( 0.1687669852195948228, 4.643405087623605709, 4.957380417416875851 ) ) ;
#190255 = CARTESIAN_POINT ( 'NONE',  ( 0.01342462505631722598, 5.907329089089319751, 2.768132330858839474 ) ) ;
#190716 = CARTESIAN_POINT ( 'NONE',  ( 0.01761982038662718297, 5.311210102545826928, -3.800655186502541749 ) ) ;
#191102 = CARTESIAN_POINT ( 'NONE',  ( 1.190159082398167811E-10, -3.330669073875469621E-13, -6.499999999996841638 ) ) ;
#191177 = CARTESIAN_POINT ( 'NONE',  ( 0.07923451269232838212, -4.956746323321138625, -4.414687408541243308 ) ) ;
#191254 = DIRECTION ( 'NONE',  ( -8.940497914652568706E-15, 4.298783551349987956E-13, 1.000000000000000000 ) ) ;
#191303 = CARTESIAN_POINT ( 'NONE',  ( 0.000000000000000000, 0.000000000000000000, 0.000000000000000000 ) ) ;
#191563 = DIRECTION ( 'NONE',  ( -1.000000000000000000, -5.895284260751101922E-14, 1.715294573043399614E-14 ) ) ;
#191731 = DIRECTION ( 'NONE',  ( 1.000000000000000000, 5.895284260751101922E-14, -1.715294573043399614E-14 ) ) ;
#191886 = LINE ( 'NONE', #168483, #137700 ) ;
#192048 = CARTESIAN_POINT ( 'NONE',  ( 0.01769969667063296670, 0.6358739499541771201, 6.500110220266426708 ) ) ;
#192151 = ADVANCED_FACE ( 'NONE', ( #277989 ), #209470, .T. ) ;
#192727 = CARTESIAN_POINT ( 'NONE',  ( 5.300000000118210153, -3.752776749734954009, -6.499999999998173905 ) ) ;
#192935 = CARTESIAN_POINT ( 'NONE',  ( 2.664535259100375697E-12, -5.629165124601542836, -3.249999999998198774 ) ) ;
#193805 = CARTESIAN_POINT ( 'NONE',  ( 0.09881229225426732543, 4.877404344030178862, -4.552034563044403015 ) ) ;
#193894 = CARTESIAN_POINT ( 'NONE',  ( 0.1642874818047484198, 1.944641462956700817, -6.500000328426436269 ) ) ;
#194676 = CARTESIAN_POINT ( 'NONE',  ( 5.300000000001858780, 4.884981308350688778E-12, 7.660538869913580129E-12 ) ) ;
#195116 = ( LENGTH_UNIT ( ) NAMED_UNIT ( * ) SI_UNIT ( .MILLI., .METRE. ) );
#195171 = CARTESIAN_POINT ( 'NONE',  ( 0.3967958080830417678, 3.116210750467811597, 6.499999999996564526 ) ) ;
#195369 = CARTESIAN_POINT ( 'NONE',  ( 0.05342265689620903646, 5.073395219613612284, -4.212619322461766735 ) ) ;
#195460 = CARTESIAN_POINT ( 'NONE',  ( 0.5805565837206927426, 3.752776749730735162, -6.499999999980632381 ) ) ;
#195750 = CIRCLE ( 'NONE', #275360, 6.499999999997912781 ) ;
#195803 = CARTESIAN_POINT ( 'NONE',  ( 0.2673082879674671397, -2.501117111892253497, 6.499873143080380444 ) ) ;
#195957 = ORIENTED_EDGE ( 'NONE', *, *, #59459, .T. ) ;
#197185 = DIRECTION ( 'NONE',  ( -8.940497914652568706E-15, 4.298783551349987956E-13, 1.000000000000000000 ) ) ;
#197246 = DIRECTION ( 'NONE',  ( -1.000000000000000000, -5.895284260751101922E-14, 1.715294573043399614E-14 ) ) ;
#197284 = CARTESIAN_POINT ( 'NONE',  ( 0.2536983531564752092, -2.499402211900999760, -6.499995447022360651 ) ) ;
#197583 = DIRECTION ( 'NONE',  ( -8.992806499466655208E-15, 4.298783551349986442E-13, 1.000000000000000000 ) ) ;
#197857 = EDGE_CURVE ( 'NONE', #122657, #186115, #38257, .T. ) ;
#198319 = AXIS2_PLACEMENT_3D ( 'NONE', #16050, #92372, #111155 ) ;
#198828 = CARTESIAN_POINT ( 'NONE',  ( 0.3953626095387463013, -3.111246005073993182, -6.499999999996576960 ) ) ;
#198873 = CARTESIAN_POINT ( 'NONE',  ( 0.1082729533070586614, 6.419208835502133503, -1.881580369144681297 ) ) ;
#198924 = ORIENTED_EDGE ( 'NONE', *, *, #283044, .F. ) ;
#199389 = DIRECTION ( 'NONE',  ( 3.225197886535735175E-14, 0.5000000000002804423, 0.8660254037842767261 ) ) ;
#199596 = CARTESIAN_POINT ( 'NONE',  ( 0.003356156264463368202, -5.470080465355768418, 3.525467862716852974 ) ) ;
#200104 = ORIENTED_EDGE ( 'NONE', *, *, #114140, .T. ) ;
#200357 = CARTESIAN_POINT ( 'NONE',  ( 0.5805565836007886560, -7.505553499461914413, 7.993605777301127091E-12 ) ) ;
#200535 = EDGE_LOOP ( 'NONE', ( #200104, #97346 ) ) ;
#200967 = ORIENTED_EDGE ( 'NONE', *, *, #245726, .F. ) ;
#201182 = ORIENTED_EDGE ( 'NONE', *, *, #47937, .T. ) ;
#201372 = B_SPLINE_CURVE_WITH_KNOTS ( 'NONE', 3,
 ( #68741, #213671, #94, #190255, #258945, #285268, #71813, #166837, #25002, #304070, #207579, #89013, #184112, #279210, #65683, #42213, #137312 ),
 .UNSPECIFIED., .F., .F.,
 ( 4, 2, 2, 2, 2, 1, 2, 2, 4 ),
 ( 0.000000000000000000, 0.1249999999999995282, 0.1874999999999993061, 0.2499999999999991118, 0.3749999999999986122, 0.4374999999999982236, 0.4687499999999981681, 0.4999999999999981126, 1.000000000000000000 ),
 .UNSPECIFIED. ) ;
#203040 = FACE_OUTER_BOUND ( 'NONE', #37719, .T. ) ;
#203490 = CARTESIAN_POINT ( 'NONE',  ( 0.2679805558329858006, 6.881221842597065930, -1.081123747980877958 ) ) ;
#203862 = ORIENTED_EDGE ( 'NONE', *, *, #287556, .T. ) ;
#204378 = CARTESIAN_POINT ( 'NONE',  ( 30.30000000000221405, 8.548717289613705361E-12, 3.309500000010623388 ) ) ;
#204936 = DIRECTION ( 'NONE',  ( -8.992806499466655208E-15, 4.298783551349986442E-13, 1.000000000000000000 ) ) ;
#205537 = CARTESIAN_POINT ( 'NONE',  ( 5.300000000001414691, 3.752776749744501927, 6.500000000013272938 ) ) ;
#205639 = EDGE_CURVE ( 'NONE', #186115, #246159, #280041, .T. ) ;
#205747 = ADVANCED_FACE ( 'NONE', ( #217560 ), #3997, .T. ) ;
#205789 = CIRCLE ( 'NONE', #1683, 6.499999999997912781 ) ;
#205833 = DIRECTION ( 'NONE',  ( -8.992806499466655208E-15, 4.298783551349986442E-13, 1.000000000000000000 ) ) ;
#205902 = EDGE_LOOP ( 'NONE', ( #149610, #126263, #127456 ) ) ;
#205987 = CARTESIAN_POINT ( 'NONE',  ( 0.5805565836025650128, 3.752776749737618545, 6.500000000014716228 ) ) ;
#206408 = PRODUCT_DEFINITION_FORMATION_WITH_SPECIFIED_SOURCE ( 'ANY', '', #263069, .NOT_KNOWN. ) ;
#206671 = ORIENTED_EDGE ( 'NONE', *, *, #56678, .F. ) ;
#206762 = CARTESIAN_POINT ( 'NONE',  ( 5.300000000001858780, -3.752776749728736760, 6.500000000001837641 ) ) ;
#206969 = CARTESIAN_POINT ( 'NONE',  ( 0.4879646133234348815, -3.432028755944175558, 6.499999999999373834 ) ) ;
#207579 = CARTESIAN_POINT ( 'NONE',  ( 0.1145415415386490388, 6.439841003254619167, 1.845831382497453488 ) ) ;
#207772 = DIRECTION ( 'NONE',  ( 8.038014698286129566E-14, 1.000000000000000000, 4.222178162649468304E-13 ) ) ;
#208522 = ADVANCED_FACE ( 'NONE', ( #4113 ), #55518, .T. ) ;
#209199 = CARTESIAN_POINT ( 'NONE',  ( 0.1627295870163485703, -6.596766667179606358, 1.574065558169345236 ) ) ;
#209200 = AXIS2_PLACEMENT_3D ( 'NONE', #124719, #79503, #6243 ) ;
#209470 = PLANE ( 'NONE',  #180248 ) ;
#210020 = CARTESIAN_POINT ( 'NONE',  ( 0.3006270603013331821, -4.300293379567176721, -5.551374412738010911 ) ) ;
#210421 = CARTESIAN_POINT ( 'NONE',  ( 4.700000000120496679, 3.752776749738173656, -6.499999999985295318 ) ) ;
#210704 = CARTESIAN_POINT ( 'NONE',  ( 0.05408856235504365395, -6.184173944329325323, 2.288798149535375526 ) ) ;
#211284 = AXIS2_PLACEMENT_3D ( 'NONE', #66847, #233603, #20055 ) ;
#211530 = CARTESIAN_POINT ( 'NONE',  ( 4.700000000118720322, 5.629165124606538839, -3.249999999987651655 ) ) ;
#212070 = CARTESIAN_POINT ( 'NONE',  ( 0.1440819660369687949, -6.538558816896718362, -1.674880569873115066 ) ) ;
#212526 = DIRECTION ( 'NONE',  ( -1.000000000000000000, -5.895284260751101922E-14, 1.715294573043399614E-14 ) ) ;
#212934 = EDGE_CURVE ( 'NONE', #67104, #63170, #108610, .T. ) ;
#213063 = CARTESIAN_POINT ( 'NONE',  ( 0.4066829935013661079, -4.068977000856716764, -5.952048130674551629 ) ) ;
#213671 = CARTESIAN_POINT ( 'NONE',  ( -3.650401423918679444E-13, 5.708865036494296774, 3.111955703248236116 ) ) ;
#214608 = CARTESIAN_POINT ( 'NONE',  ( -3.982146583449448506E-14, -0.3164333787635997819, 6.499999999998049560 ) ) ;
#215153 = VERTEX_POINT ( 'NONE', #176162 ) ;
#215226 = VERTEX_POINT ( 'NONE', #6360 ) ;
#215263 = VERTEX_POINT ( 'NONE', #81151 ) ;
#216481 = DIRECTION ( 'NONE',  ( -1.000000000000000000, -5.895284260751101922E-14, 1.715294573043399614E-14 ) ) ;
#216653 = CARTESIAN_POINT ( 'NONE',  ( 0.07033353054086002865, 4.995916458271913108, 4.346868898098042777 ) ) ;
#216681 = EDGE_CURVE ( 'NONE', #32859, #35726, #259406, .T. ) ;
#216968 = CARTESIAN_POINT ( 'NONE',  ( 0.1450988929510247660, 1.825309103954401824, 6.500001165063732600 ) ) ;
#217164 = AXIS2_PLACEMENT_3D ( 'NONE', #140395, #166839, #143441 ) ;
#217560 = FACE_OUTER_BOUND ( 'NONE', #127173, .T. ) ;
#217651 = DIRECTION ( 'NONE',  ( -4.247818645818984894E-14, 0.8660254037844009600, 0.5000000000000652811 ) ) ;
#218109 = CARTESIAN_POINT ( 'NONE',  ( 5.300000000119986510, 7.505553499467909617, 7.660538869913580129E-12 ) ) ;
#218703 = CARTESIAN_POINT ( 'NONE',  ( 0.1505885036325870785, 4.699098183116927174, -4.860923762656376823 ) ) ;
#218793 = CARTESIAN_POINT ( 'NONE',  ( 0.1319828455974097481, 1.745685576372561165, -6.499998686287915994 ) ) ;
#218992 = ORIENTED_EDGE ( 'NONE', *, *, #106932, .T. ) ;
#219307 = EDGE_LOOP ( 'NONE', ( #180156, #188684 ) ) ;
#220056 = CARTESIAN_POINT ( 'NONE',  ( 0.01348548317760697030, 0.5562760074059210913, 6.500079815031493347 ) ) ;
#220498 = EDGE_CURVE ( 'NONE', #121032, #67104, #302882, .T. ) ;
#220525 = CARTESIAN_POINT ( 'NONE',  ( 4.700000000000592593, 6.328271240363392280E-12, 9.769962616701377556E-12 ) ) ;
#221252 = ORIENTED_EDGE ( 'NONE', *, *, #177792, .T. ) ;
#221359 = ORIENTED_EDGE ( 'NONE', *, *, #289576, .F. ) ;
#221474 = ADVANCED_FACE ( 'NONE', ( #203040 ), #227867, .F. ) ;
#221527 = CARTESIAN_POINT ( 'NONE',  ( 4.700000000118720322, 5.629165124605206572, 3.250000000008745893 ) ) ;
#221712 = VECTOR ( 'NONE', #175526, 1000.000000000000000 ) ;
#222809 = CARTESIAN_POINT ( 'NONE',  ( 0.5805565836016768344, -3.752776749731623340, 6.500000000000061284 ) ) ;
#222967 = ORIENTED_EDGE ( 'NONE', *, *, #255543, .F. ) ;
#223640 = CARTESIAN_POINT ( 'NONE',  ( 4.700000000120052590, 7.505553499469685974, 7.660538869913580129E-12 ) ) ;
#224438 = CARTESIAN_POINT ( 'NONE',  ( 0.06970085888221747017, -4.995130227637452514, 4.348124725317473960 ) ) ;
#224534 = ORIENTED_EDGE ( 'NONE', *, *, #248777, .T. ) ;
#224697 = CARTESIAN_POINT ( 'NONE',  ( 4.700000000001924860, -7.505553499456474320, 7.549516567451064475E-12 ) ) ;
#224709 = ORIENTED_EDGE ( 'NONE', *, *, #237685, .T. ) ;
#225045 = CYLINDRICAL_SURFACE ( 'NONE', #264953, 3.999999999998715694 ) ;
#225162 = AXIS2_PLACEMENT_3D ( 'NONE', #65262, #82464, #35719 ) ;
#227318 = DIRECTION ( 'NONE',  ( 1.000000000000000000, 5.895284260751101922E-14, -1.715294573043399614E-14 ) ) ;
#227646 = ORIENTED_EDGE ( 'NONE', *, *, #283044, .T. ) ;
#227867 = PLANE ( 'NONE',  #32537 ) ;
#229107 = ORIENTED_EDGE ( 'NONE', *, *, #205639, .F. ) ;
#229236 = EDGE_CURVE ( 'NONE', #172204, #30385, #259296, .T. ) ;
#229383 = VERTEX_POINT ( 'NONE', #103200 ) ;
#229441 = CARTESIAN_POINT ( 'NONE',  ( 0.3006270603011971798, -6.957777957140036662, 0.9484761040574550828 ) ) ;
#229787 = FACE_OUTER_BOUND ( 'NONE', #80692, .T. ) ;
#229931 = CARTESIAN_POINT ( 'NONE',  ( 0.000000000000000000, 0.000000000000000000, 0.000000000000000000 ) ) ;
#229953 = DIRECTION ( 'NONE',  ( -3.225197886535735175E-14, -0.5000000000002804423, -0.8660254037842767261 ) ) ;
#230280 = ORIENTED_EDGE ( 'NONE', *, *, #212934, .F. ) ;
#230984 = DIRECTION ( 'NONE',  ( -1.000000000000000000, -5.895284260751101922E-14, 1.715294573043399614E-14 ) ) ;
#231090 = DIRECTION ( 'NONE',  ( 1.000000000000000000, -8.038014698285405076E-14, -1.715294573049282307E-14 ) ) ;
#233341 = CARTESIAN_POINT ( 'NONE',  ( 0.5805565837215809211, -3.752776749735620143, -6.499999999998729017 ) ) ;
#233603 = DIRECTION ( 'NONE',  ( 1.000000000000000000, 5.895284260751101922E-14, -1.715294573043399614E-14 ) ) ;
#233964 = CARTESIAN_POINT ( 'NONE',  ( 5.300000000001858780, 4.884981308350688778E-12, 7.660538869913580129E-12 ) ) ;
#234057 = CARTESIAN_POINT ( 'NONE',  ( 0.07923451269228339033, -6.301604607229725374, 2.085324531835111017 ) ) ;
#235212 = CIRCLE ( 'NONE', #225162, 6.499999999997912781 ) ;
#235417 = CARTESIAN_POINT ( 'NONE',  ( 0.2548172889977607936, -6.881268334332551362, -1.081284575404771742 ) ) ;
#236205 = DIRECTION ( 'NONE',  ( 8.992806499466655208E-15, -4.298783551349986442E-13, -1.000000000000000000 ) ) ;
#237274 = CARTESIAN_POINT ( 'NONE',  ( 0.07014999539161892450, 1.271500965783363135, 6.500107142939839378 ) ) ;
#237327 = CARTESIAN_POINT ( 'NONE',  ( 0.5805565836007886560, -7.505553499461914413, 7.993605777301127091E-12 ) ) ;
#237513 = EDGE_CURVE ( 'NONE', #118596, #21833, #90647, .T. ) ;
#237685 = EDGE_CURVE ( 'NONE', #239631, #46612, #191886, .T. ) ;
#238045 = CARTESIAN_POINT ( 'NONE',  ( 4.700000000120496679, 3.752776749738173656, -6.499999999985295318 ) ) ;
#238812 = EDGE_LOOP ( 'NONE', ( #144206, #264515, #17236, #93074 ) ) ;
#238842 = CARTESIAN_POINT ( 'NONE',  ( 0.2558857984037366529, 2.508805935822439270, 6.499994971717510062 ) ) ;
#239044 = CARTESIAN_POINT ( 'NONE',  ( -2.966885363688717450E-13, 5.549465212720009255, -3.388044296742432238 ) ) ;
#239491 = CARTESIAN_POINT ( 'NONE',  ( 0.1300427848039869549, -1.732618431080031884, 6.499998816668987267 ) ) ;
#239631 = VERTEX_POINT ( 'NONE', #221527 ) ;
#239795 = CARTESIAN_POINT ( 'NONE',  ( 4.700000000000592593, -3.752776749722852578, 6.500000000002614797 ) ) ;
#240365 = CARTESIAN_POINT ( 'NONE',  ( 0.1329605952439470717, 1.745926560524160287, 6.500005344691800246 ) ) ;
#240566 = CARTESIAN_POINT ( 'NONE',  ( 0.06970085888312545219, 4.995130227624677843, -4.348124725335904550 ) ) ;
#240622 = PLANE ( 'NONE',  #149389 ) ;
#240855 = DIRECTION ( 'NONE',  ( -1.000000000000000000, -5.895284260751101922E-14, 1.715294573043399614E-14 ) ) ;
#241016 = CARTESIAN_POINT ( 'NONE',  ( 0.07869316343894776355, -1.340207479528444212, 6.500015151729181540 ) ) ;
#241086 = DIRECTION ( 'NONE',  ( 1.000000000000000000, -8.038014698285405076E-14, -1.715294573049282307E-14 ) ) ;
#241268 = DIRECTION ( 'NONE',  ( 8.992806499466655208E-15, -4.298783551349986442E-13, -1.000000000000000000 ) ) ;
#242014 = EDGE_CURVE ( 'NONE', #246159, #215263, #78808, .T. ) ;
#242211 = CARTESIAN_POINT ( 'NONE',  ( 0.4075168369647453326, 3.123329593893012124, -6.499865094091775042 ) ) ;
#242374 = ADVANCED_FACE ( 'NONE', ( #245247 ), #240622, .F. ) ;
#243742 = AXIS2_PLACEMENT_3D ( 'NONE', #278662, #18322, #275580 ) ;
#243746 = CARTESIAN_POINT ( 'NONE',  ( 0.1092801490286092331, 1.587459889907865573, -6.500017117648604348 ) ) ;
#243959 = APPLICATION_CONTEXT ( 'automotive_design' ) ;
#244222 = FACE_OUTER_BOUND ( 'NONE', #266072, .T. ) ;
#244952 = ( NAMED_UNIT ( * ) SI_UNIT ( $, .STERADIAN. ) SOLID_ANGLE_UNIT ( ) );
#244978 = DIRECTION ( 'NONE',  ( -8.673617379886820151E-15, 4.298783551349986442E-13, 1.000000000000000000 ) ) ;
#245247 = FACE_OUTER_BOUND ( 'NONE', #25292, .T. ) ;
#245438 = EDGE_CURVE ( 'NONE', #102898, #177260, #205789, .T. ) ;
#245572 = CARTESIAN_POINT ( 'NONE',  ( 0.02736009020048385879, -0.7897976950670223539, -6.500054725846926118 ) ) ;
#245611 = CARTESIAN_POINT ( 'NONE',  ( 0.2230690090242732349, 6.766876188062619590, -1.279288402377958045 ) ) ;
#245726 = EDGE_CURVE ( 'NONE', #96238, #239631, #77224, .T. ) ;
#246096 = CARTESIAN_POINT ( 'NONE',  ( 4.700000000120496679, 3.752776749738173656, -6.499999999985295318 ) ) ;
#246101 = ADVANCED_FACE ( 'NONE', ( #26951 ), #255400, .T. ) ;
#246159 = VERTEX_POINT ( 'NONE', #93713 ) ;
#246188 = CARTESIAN_POINT ( 'NONE',  ( 0.000000000000000000, 0.000000000000000000, 0.000000000000000000 ) ) ;
#246656 = EDGE_CURVE ( 'NONE', #229383, #307498, #147502, .T. ) ;
#246874 = DIRECTION ( 'NONE',  ( -1.000000000000000000, -5.895284260751101922E-14, 1.715294573043399614E-14 ) ) ;
#246954 = DIRECTION ( 'NONE',  ( 1.000000000000000000, 5.895284260751101922E-14, -1.715294573043399614E-14 ) ) ;
#247028 = CARTESIAN_POINT ( 'NONE',  ( 0.000000000000000000, 0.000000000000000000, 0.000000000000000000 ) ) ;
#247144 = CARTESIAN_POINT ( 'NONE',  ( 0.04687560305691858276, 6.145820286198016902, -2.355254138987752821 ) ) ;
#247821 = ORIENTED_EDGE ( 'NONE', *, *, #149582, .F. ) ;
#247830 = CARTESIAN_POINT ( 'NONE',  ( 0.000000000000000000, -5.629165124598212167, 3.249999999999642064 ) ) ;
#248595 = DIRECTION ( 'NONE',  ( -4.822531263218676642E-14, -0.4999999999999101830, 0.8660254037844904440 ) ) ;
#248669 = CARTESIAN_POINT ( 'NONE',  ( 0.000000000000000000, 0.000000000000000000, 0.000000000000000000 ) ) ;
#248756 = DIRECTION ( 'NONE',  ( 8.992806499466655208E-15, -4.298783551349986442E-13, -1.000000000000000000 ) ) ;
#248777 = EDGE_CURVE ( 'NONE', #215153, #215226, #157974, .T. ) ;
#249025 = PLANE ( 'NONE',  #127852 ) ;
#249365 = CARTESIAN_POINT ( 'NONE',  ( 0.5805565837206927426, 3.752776749730735162, -6.499999999980632381 ) ) ;
#249910 = ADVANCED_FACE ( 'NONE', ( #99197 ), #122521, .F. ) ;
#250147 = DIRECTION ( 'NONE',  ( -1.000000000000000000, -5.895284260752223997E-14, -8.992806499441312263E-15 ) ) ;
#250177 = CARTESIAN_POINT ( 'NONE',  ( 0.000000000000000000, 0.000000000000000000, 0.000000000000000000 ) ) ;
#250386 = LINE ( 'NONE', #298593, #221712 ) ;
#251376 = ORIENTED_EDGE ( 'NONE', *, *, #69109, .T. ) ;
#252255 = B_SPLINE_CURVE_WITH_KNOTS ( 'NONE', 3,
 ( #16680, #206969, #27418, #264431, #195803, #148919, #53877, #169313, #308037, #25917, #239491, #287731, #241016, #71198, #100710, #4043, #120979, #214608, #94588 ),
 .UNSPECIFIED., .F., .F.,
 ( 4, 2, 2, 1, 2, 2, 2, 2, 2, 4 ),
 ( 0.000000000000000000, 0.2499999999999996114, 0.3749999999999994449, 0.4374999999999993339, 0.4687499999999992784, 0.4999999999999992228, 0.6249999999999994449, 0.6874999999999995559, 0.7499999999999996669, 1.000000000000000000 ),
 .UNSPECIFIED. ) ;
#253004 = ORIENTED_EDGE ( 'NONE', *, *, #40124, .T. ) ;
#253164 = ORIENTED_EDGE ( 'NONE', *, *, #242014, .T. ) ;
#253591 = VECTOR ( 'NONE', #263866, 1000.000000000000114 ) ;
#253881 = ORIENTED_EDGE ( 'NONE', *, *, #246656, .T. ) ;
#254325 = CARTESIAN_POINT ( 'NONE',  ( 0.2230690090258423408, 4.491334349257601666, 5.220642481933457368 ) ) ;
#255400 = CONICAL_SURFACE ( 'NONE', #115811, 6.499999999997912781, 1.047197551196598297 ) ;
#255543 = EDGE_CURVE ( 'NONE', #256475, #141864, #55598, .T. ) ;
#255799 = CARTESIAN_POINT ( 'NONE',  ( 0.5805565836007886560, -7.505553499461914413, 7.993605777301127091E-12 ) ) ;
#256475 = VERTEX_POINT ( 'NONE', #106996 ) ;
#256760 = DIRECTION ( 'NONE',  ( 8.038014698286129566E-14, 1.000000000000000000, 4.222178162649468304E-13 ) ) ;
#257318 = CARTESIAN_POINT ( 'NONE',  ( 0.05342265689664887907, -6.184932959534605423, -2.287379482392108088 ) ) ;
#257365 = ORIENTED_EDGE ( 'NONE', *, *, #122421, .F. ) ;
#257472 = CARTESIAN_POINT ( 'NONE',  ( 0.2016277880934897182, -6.709824032994073484, 1.378169555445283301 ) ) ;
#258241 = CARTESIAN_POINT ( 'NONE',  ( 4.700000000119608501, 6.500000000004502176, 1.065814103640150279E-11 ) ) ;
#258320 = CARTESIAN_POINT ( 'NONE',  ( 0.1082729533089813179, -4.839100816693570728, -4.618407739166412007 ) ) ;
#258678 = ORIENTED_EDGE ( 'NONE', *, *, #269745, .T. ) ;
#258720 = DIRECTION ( 'NONE',  ( -9.434966782774603016E-15, 4.298783551349987452E-13, 1.000000000000000000 ) ) ;
#258945 = CARTESIAN_POINT ( 'NONE',  ( 0.01761982038653140542, 5.947068993818645843, 2.699315280372915460 ) ) ;
#259296 = LINE ( 'NONE', #45657, #253591 ) ;
#259406 = CIRCLE ( 'NONE', #70277, 3.309499999998937625 ) ;
#261309 = CARTESIAN_POINT ( 'NONE',  ( 4.700000000119608501, 6.500000000004502176, 1.065814103640150279E-11 ) ) ;
#261915 = CARTESIAN_POINT ( 'NONE',  ( 0.1082729533070944383, 4.839100816692219809, 4.618407739164743120 ) ) ;
#262003 = EDGE_CURVE ( 'NONE', #46612, #67104, #75503, .T. ) ;
#262334 = CARTESIAN_POINT ( 'NONE',  ( 4.700000000119608501, 6.500000000004502176, 1.065814103640150279E-11 ) ) ;
#262425 = CARTESIAN_POINT ( 'NONE',  ( 0.3960962806519438550, 4.072271366421948535, -5.946619091152354208 ) ) ;
#262869 = CARTESIAN_POINT ( 'NONE',  ( 3.536628899591230220E-13, -5.470164245213208432, -3.525397601553789340 ) ) ;
#263069 = PRODUCT ( '\X2\0411043e043b0442\X0\ \X2\041c\X0\8\X2\0445\X0\25 DIN 933', '\X2\0411043e043b0442\X0\ \X2\041c\X0\8\X2\0445\X0\25 DIN 933', '', ( #274625 ) ) ;
#263564 = EDGE_LOOP ( 'NONE', ( #8948, #123141, #166467, #56080, #298941, #81628 ) ) ;
#263866 = DIRECTION ( 'NONE',  ( 3.225197886535735175E-14, 0.5000000000002804423, 0.8660254037842767261 ) ) ;
#263972 = CARTESIAN_POINT ( 'NONE',  ( 1.199040866595169064E-10, 5.629165124602764081, -3.249999999989428012 ) ) ;
#264431 = CARTESIAN_POINT ( 'NONE',  ( 0.3000043718021047634, -2.654659016994203924, 6.499848547732230308 ) ) ;
#264515 = ORIENTED_EDGE ( 'NONE', *, *, #6776, .T. ) ;
#264953 = AXIS2_PLACEMENT_3D ( 'NONE', #33339, #176698, #14549 ) ;
#265595 = DIRECTION ( 'NONE',  ( -8.038014698286129566E-14, -1.000000000000000000, -4.222178162649468304E-13 ) ) ;
#265735 = EDGE_CURVE ( 'NONE', #35726, #32859, #89344, .T. ) ;
#266072 = EDGE_LOOP ( 'NONE', ( #81188, #227646, #33917, #221359, #26932, #149507 ) ) ;
#266707 = ORIENTED_EDGE ( 'NONE', *, *, #291806, .T. ) ;
#267245 = AXIS2_PLACEMENT_3D ( 'NONE', #250177, #158073, #179939 ) ;
#268087 = CIRCLE ( 'NONE', #198319, 6.499999999997912781 ) ;
#268987 = CARTESIAN_POINT ( 'NONE',  ( 0.4066829935025871312, 7.189113386151412044, -0.5478133848089166147 ) ) ;
#269409 = AXIS2_PLACEMENT_3D ( 'NONE', #277820, #231090, #207772 ) ;
#269480 = LINE ( 'NONE', #246096, #277996 ) ;
#269728 = VECTOR ( 'NONE', #150336, 1000.000000000000000 ) ;
#269745 = EDGE_CURVE ( 'NONE', #40206, #229383, #30771, .T. ) ;
#269996 = AXIS2_PLACEMENT_3D ( 'NONE', #40235, #16792, #111895 ) ;
#270071 = ORIENTED_EDGE ( 'NONE', *, *, #145447, .F. ) ;
#270383 = CONICAL_SURFACE ( 'NONE', #21577, 6.499999999997912781, 1.047197551196598297 ) ;
#270812 = DIRECTION ( 'NONE',  ( -6.494804694056674774E-14, -0.8660254037844905550, -0.4999999999999102385 ) ) ;
#271190 = CARTESIAN_POINT ( 'NONE',  ( 0.1440819660364527910, -4.719768530268138917, 4.825117754623180488 ) ) ;
#271378 = DIRECTION ( 'NONE',  ( -1.000000000000000000, -5.895284260751101922E-14, 1.715294573043399614E-14 ) ) ;
#272100 = AXIS2_PLACEMENT_3D ( 'NONE', #229931, #81936, #248756 ) ;
#272393 = EDGE_CURVE ( 'NONE', #102898, #17119, #20991, .T. ) ;
#272521 = AXIS2_PLACEMENT_3D ( 'NONE', #111467, #183154, #275172 ) ;
#272555 = FACE_OUTER_BOUND ( 'NONE', #84570, .T. ) ;
#272717 = CARTESIAN_POINT ( 'NONE',  ( 0.09881229225334130228, -4.877404344043691609, 4.552034563026300162 ) ) ;
#272836 = DIRECTION ( 'NONE',  ( -1.000000000000000000, -5.895284260751101922E-14, 1.715294573043399614E-14 ) ) ;
#273871 = CONICAL_SURFACE ( 'NONE', #184209, 3.309499999998937625, 0.7853981633974476129 ) ;
#274625 = PRODUCT_CONTEXT ( 'NONE', #243959, 'mechanical' ) ;
#275172 = DIRECTION ( 'NONE',  ( 8.038014698286129566E-14, 1.000000000000000000, 4.222178162649468304E-13 ) ) ;
#275360 = AXIS2_PLACEMENT_3D ( 'NONE', #278690, #65195, #110395 ) ;
#275580 = DIRECTION ( 'NONE',  ( 8.992806499466655208E-15, -4.298783551349986442E-13, -1.000000000000000000 ) ) ;
#276110 = CARTESIAN_POINT ( 'NONE',  ( 4.700000000000592593, 6.328271240363392280E-12, 9.769962616701377556E-12 ) ) ;
#276122 = AXIS2_PLACEMENT_3D ( 'NONE', #113391, #119536, #191254 ) ;
#277165 = FACE_OUTER_BOUND ( 'NONE', #263564, .T. ) ;
#277226 = CLOSED_SHELL ( 'NONE', ( #148803, #19810, #51968, #242374, #249910, #221474, #66774, #130299, #246101, #46190, #180570, #141690, #57711, #49345, #147750, #192151, #208522, #205747, #48564, #79660, #164063, #97209, #107619, #25532, #144649, #70420, #186827 ) ) ;
#277713 = CARTESIAN_POINT ( 'NONE',  ( 0.1817083958743467009, -6.652873880996593492, 1.476856398548980431 ) ) ;
#277728 = CARTESIAN_POINT ( 'NONE',  ( 1.199040866595169064E-10, -1.554312234475219157E-12, -3.999999999998449240 ) ) ;
#277820 = CARTESIAN_POINT ( 'NONE',  ( 1.190159082398167811E-10, 7.505553499467354506, 3.774758283725532237E-12 ) ) ;
#277989 = FACE_OUTER_BOUND ( 'NONE', #102696, .T. ) ;
#277996 = VECTOR ( 'NONE', #199389, 1000.000000000000114 ) ;
#278161 = ORIENTED_EDGE ( 'NONE', *, *, #12430, .T. ) ;
#278662 = CARTESIAN_POINT ( 'NONE',  ( 0.000000000000000000, 0.000000000000000000, 0.000000000000000000 ) ) ;
#278690 = CARTESIAN_POINT ( 'NONE',  ( 4.700000000000592593, 6.328271240363392280E-12, 9.769962616701377556E-12 ) ) ;
#279210 = CARTESIAN_POINT ( 'NONE',  ( 0.1505885036326018167, 6.559232555884800142, 1.639076520122120462 ) ) ;
#280041 = LINE ( 'NONE', #304912, #157694 ) ;
#280702 = DIRECTION ( 'NONE',  ( 8.940497914652568706E-15, -4.298783551349986442E-13, -1.000000000000000000 ) ) ;
#281618 = CARTESIAN_POINT ( 'NONE',  ( 0.05408856235507665533, -5.074244313799732176, -4.211252662436010041 ) ) ;
#282155 = CARTESIAN_POINT ( 'NONE',  ( 2.664535259100375697E-12, -5.629165124601542836, -3.249999999998198774 ) ) ;
#282310 = CARTESIAN_POINT ( 'NONE',  ( 3.144944394695755962E-13, -5.788166003997322839, 2.974602398444234908 ) ) ;
#282926 = AXIS2_PLACEMENT_3D ( 'NONE', #100774, #241086, #80470 ) ;
#283044 = EDGE_CURVE ( 'NONE', #99440, #116232, #250386, .T. ) ;
#284217 = CARTESIAN_POINT ( 'NONE',  ( 0.1440819660364281163, 4.719768530263597661, -4.825117754628703182 ) ) ;
#284420 = EDGE_CURVE ( 'NONE', #63170, #85186, #46024, .T. ) ;
#285268 = CARTESIAN_POINT ( 'NONE',  ( 0.02768828917904610568, 6.026695130044910975, 2.561436170001210044 ) ) ;
#285547 = CARTESIAN_POINT ( 'NONE',  ( 0.05373158538149337693, 1.113839610220650478, 6.500180048442256719 ) ) ;
#285744 = CARTESIAN_POINT ( 'NONE',  ( 0.03369948430660161393, 5.190928048259339178, -4.009050077137400692 ) ) ;
#286137 = CARTESIAN_POINT ( 'NONE',  ( 6.777968231840749468E-14, -0.1582002673188153685, -6.499999999997845279 ) ) ;
#286212 = CARTESIAN_POINT ( 'NONE',  ( 0.04687560305760082174, -5.112620059836022079, -4.144809425436868366 ) ) ;
#286763 = DIRECTION ( 'NONE',  ( 8.992806499466655208E-15, -4.298783551349986442E-13, -1.000000000000000000 ) ) ;
#287247 = CARTESIAN_POINT ( 'NONE',  ( 4.700000000000592593, 3.752776749746389306, 6.500000000013050894 ) ) ;
#287556 = EDGE_CURVE ( 'NONE', #307498, #40206, #74606, .T. ) ;
#287731 = CARTESIAN_POINT ( 'NONE',  ( 0.1076349933435037792, -1.575419419324125547, 6.499989386810053560 ) ) ;
#288065 = FACE_OUTER_BOUND ( 'NONE', #119819, .T. ) ;
#288069 = AXIS2_PLACEMENT_3D ( 'NONE', #92845, #240855, #27259 ) ;
#288197 = CONICAL_SURFACE ( 'NONE', #118889, 3.309499999998937625, 0.7853981633974476129 ) ;
#288369 = FACE_OUTER_BOUND ( 'NONE', #133104, .T. ) ;
#288763 = ORIENTED_EDGE ( 'NONE', *, *, #284420, .F. ) ;
#289478 = ORIENTED_EDGE ( 'NONE', *, *, #7619, .F. ) ;
#289499 = CARTESIAN_POINT ( 'NONE',  ( 1.199040866595169064E-10, 5.629165124604096349, 3.250000000013408830 ) ) ;
#289576 = EDGE_CURVE ( 'NONE', #239631, #30385, #20496, .T. ) ;
#290264 = EDGE_CURVE ( 'NONE', #186115, #187670, #292224, .T. ) ;
#290458 = CARTESIAN_POINT ( 'NONE',  ( 0.1702526919936390160, 1.980358335963732230, -6.499997116207491210 ) ) ;
#290610 = ORIENTED_EDGE ( 'NONE', *, *, #59459, .F. ) ;
#291086 = ORIENTED_EDGE ( 'NONE', *, *, #104986, .F. ) ;
#291806 = EDGE_CURVE ( 'NONE', #116232, #172204, #47851, .T. ) ;
#291847 = DIRECTION ( 'NONE',  ( -0.7071067811870348496, -3.263500580884565207E-13, -0.7071067811860602959 ) ) ;
#291980 = CARTESIAN_POINT ( 'NONE',  ( 0.3018343297052073493, 2.662955342274244241, -6.499854484084288231 ) ) ;
#292224 = LINE ( 'NONE', #296807, #269728 ) ;
#293603 = ORIENTED_EDGE ( 'NONE', *, *, #151421, .T. ) ;
#293661 = ORIENTED_EDGE ( 'NONE', *, *, #103932, .T. ) ;
#293841 = AXIS2_PLACEMENT_3D ( 'NONE', #247028, #109773, #154924 ) ;
#293876 = CARTESIAN_POINT ( 'NONE',  ( 0.07923451269040936162, 6.301604607226800603, -2.085324531837531747 ) ) ;
#294279 = ORIENTED_EDGE ( 'NONE', *, *, #229236, .T. ) ;
#294580 = ORIENTED_EDGE ( 'NONE', *, *, #40124, .F. ) ;
#294735 = CARTESIAN_POINT ( 'NONE',  ( 29.60950000000117655, 1.443289932012703503E-12, 1.187938636348917498E-11 ) ) ;
#295300 = CARTESIAN_POINT ( 'NONE',  ( 0.2679805558317910896, -6.881221842592760041, 1.081123747985775596 ) ) ;
#296807 = CARTESIAN_POINT ( 'NONE',  ( 5.300000000002746958, -7.505553499455586142, 8.659739592076221015E-12 ) ) ;
#296905 = CARTESIAN_POINT ( 'NONE',  ( 0.1627295870157939028, 6.596766667180084198, -1.574065558168894263 ) ) ;
#297985 = DIRECTION ( 'NONE',  ( -8.992806499534888521E-15, -4.172495682297486490E-13, 1.000000000000000000 ) ) ;
#298593 = CARTESIAN_POINT ( 'NONE',  ( 1.190159082398167811E-10, -3.330669073875469621E-13, -6.499999999996841638 ) ) ;
#298728 = CONICAL_SURFACE ( 'NONE', #293841, 6.499999999997912781, 1.047197551196598297 ) ;
#298941 = ORIENTED_EDGE ( 'NONE', *, *, #126056, .F. ) ;
#298987 = DIRECTION ( 'NONE',  ( 8.992806499466655208E-15, -4.298783551349986442E-13, -1.000000000000000000 ) ) ;
#299577 = DIRECTION ( 'NONE',  ( -1.000000000000000000, -5.895284260751101922E-14, 1.715294573043399614E-14 ) ) ;
#300808 = ORIENTED_EDGE ( 'NONE', *, *, #237685, .F. ) ;
#302882 = LINE ( 'NONE', #139245, #47423 ) ;
#303437 = CARTESIAN_POINT ( 'NONE',  ( 5.300000000119986510, 7.505553499467909617, 7.660538869913580129E-12 ) ) ;
#304070 = CARTESIAN_POINT ( 'NONE',  ( 0.09881229225557480733, 6.380879742525841891, 1.947938784926500411 ) ) ;
#304159 = AXIS2_PLACEMENT_3D ( 'NONE', #220525, #28770, #197185 ) ;
#304525 = EDGE_LOOP ( 'NONE', ( #16840, #293603, #251376 ) ) ;
#304912 = CARTESIAN_POINT ( 'NONE',  ( 4.700000000121384858, -3.752776749731290273, -6.499999999998173905 ) ) ;
#304962 = CARTESIAN_POINT ( 'NONE',  ( 0.2016277880935416489, -4.548441862236571431, -5.121793289765609991 ) ) ;
#306829 = CARTESIAN_POINT ( 'NONE',  ( 4.700000000119608501, 6.500000000004502176, 1.065814103640150279E-11 ) ) ;
#306971 = CARTESIAN_POINT ( 'NONE',  ( 5.300000000119986510, -3.330669073875469621E-13, -3.999999999991121769 ) ) ;
#307001 = ORIENTED_EDGE ( 'NONE', *, *, #246656, .F. ) ;
#307498 = VERTEX_POINT ( 'NONE', #87947 ) ;
#308037 = CARTESIAN_POINT ( 'NONE',  ( 0.1680018847475175936, -1.966946384822868321, 6.499996929819253921 ) ) ;
#308039 = CARTESIAN_POINT ( 'NONE',  ( 0.1817083958743579419, -4.605432099385085465, -5.023129589834480768 ) ) ;
ENDSEC;
END-ISO-10303-21;
