ISO-10303-21;
HEADER;
FILE_DESCRIPTION (( 'STEP AP214' ),
    '1' );
FILE_NAME ('PT.SHT.01.20.00.00 —¡ ''ÿÌÂÍ 1'' (STEP 214 ““).STEP',
    '2026-09-29T05:38:28',
    ( '' ),
    ( '' ),
    'SwSTEP 2.0',
    'SolidWorks 2025',
    '' );
FILE_SCHEMA (( 'AUTOMOTIVE_DESIGN' ));
ENDSEC;

DATA;
#97 = CARTESIAN_POINT ( 'NONE',  ( 6.899999999999906208, 5.196152422704547469, 9.000000000001895373 ) ) ;
#106 = EDGE_CURVE ( 'NONE', #131401, #130824, #127532, .T. ) ;
#201 = EDGE_LOOP ( 'NONE', ( #40311, #302786, #166007 ) ) ;
#770 = DIRECTION ( 'NONE',  ( -1.000000000000000000, 3.941291737419307296E-15, 1.887379141862766908E-15 ) ) ;
#1051 = DIRECTION ( 'NONE',  ( 3.608224830031761912E-15, -0.5000000000000001110, -0.8660254037844385966 ) ) ;
#1093 = EDGE_CURVE ( 'NONE', #28670, #303697, #243342, .T. ) ;
#1094 = CARTESIAN_POINT ( 'NONE',  ( 0.000000000000000000, 6.661338147750939243E-13, -9.000000000000675016 ) ) ;
#1285 = DIRECTION ( 'NONE',  ( -1.927470528863118950E-15, -2.775557561562996738E-17, 1.000000000000000000 ) ) ;
#1576 = ADVANCED_FACE ( 'NONE', ( #183694 ), #161806, .F. ) ;
#1613 = CARTESIAN_POINT ( 'NONE',  ( 0.4162513029646269236, -5.954254281986961495, -7.686513543476921839 ) ) ;
#1708 = CARTESIAN_POINT ( 'NONE',  ( 0.2230590658936109083, 2.665381354021722604, -9.000000148738440231 ) ) ;
#2310 = CARTESIAN_POINT ( 'NONE',  ( 0.000000000000000000, 8.881784197001252323E-13, 5.999999999998339995 ) ) ;
#2677 = DIRECTION ( 'NONE',  ( 1.000000000000000000, -3.941291737419307296E-15, -1.887379141862766908E-15 ) ) ;
#3852 = CARTESIAN_POINT ( 'NONE',  ( 0.02412752120428643052, -0.8747964226824980205, -9.000031822121632885 ) ) ;
#4305 = AXIS2_PLACEMENT_3D ( 'NONE', #194741, #270967, #193161 ) ;
#4496 = AXIS2_PLACEMENT_3D ( 'NONE', #174817, #26807, #176311 ) ;
#4670 = CARTESIAN_POINT ( 'NONE',  ( 0.5630980118871281581, -5.633970318998630766, -8.241292752054155457 ) ) ;
#4803 = VECTOR ( 'NONE', #770, 1000.000000000000000 ) ;
#5412 = EDGE_LOOP ( 'NONE', ( #30952, #181377, #148157 ) ) ;
#5452 = FACE_OUTER_BOUND ( 'NONE', #5412, .T. ) ;
#5744 = VECTOR ( 'NONE', #96430, 1000.000000000000114 ) ;
#6009 = DIRECTION ( 'NONE',  ( -1.000000000000000000, 3.941291737419307296E-15, 1.887379141862766908E-15 ) ) ;
#6260 = B_SPLINE_CURVE_WITH_KNOTS ( 'NONE', 3,
 ( #23536, #235561, #95261, #163812, #140469, #209191, #215274, #142012, #238648, #304143, #1708, #67270, #118602, #257463, #283837, #234051, #168463, #263576, #166916, #73447 ),
 .UNSPECIFIED., .F., .F.,
 ( 4, 2, 2, 1, 1, 2, 2, 2, 2, 2, 4 ),
 ( 0.000000000000000000, 0.2499999999999997224, 0.3749999999999995559, 0.4374999999999993894, 0.4687499999999992228, 0.4843749999999992228, 0.4999999999999992228, 0.6249999999999993339, 0.6874999999999993339, 0.7499999999999993339, 1.000000000000000000 ),
 .UNSPECIFIED. ) ;
#6577 = DIRECTION ( 'NONE',  ( 1.000000000000000000, -3.941291737419307296E-15, -1.887379141862766908E-15 ) ) ;
#6668 = CIRCLE ( 'NONE', #250604, 9.000000000000000000 ) ;
#7027 = VECTOR ( 'NONE', #287876, 1000.000000000000000 ) ;
#7269 = CYLINDRICAL_SURFACE ( 'NONE', #208824, 9.000000000000000000 ) ;
#7791 = CARTESIAN_POINT ( 'NONE',  ( 0.2791760747104038431, 6.297843568767333977, 7.091710896353461635 ) ) ;
#9463 = CARTESIAN_POINT ( 'NONE',  ( 0.3701639357474099112, -3.463301392478217888, 8.999823630264533136 ) ) ;
#9493 = CARTESIAN_POINT ( 'NONE',  ( 0.4162513029526904718, -9.633843136152702158, 1.313278697084791613 ) ) ;
#9784 = VERTEX_POINT ( 'NONE', #66735 ) ;
#10082 = VERTEX_POINT ( 'NONE', #258091 ) ;
#11099 = CARTESIAN_POINT ( 'NONE',  ( 0.1596784063073016791, 2.252771577614580245, 8.999973753552557909 ) ) ;
#11163 = CARTESIAN_POINT ( 'NONE',  ( 0.8038475772931263919, 5.196152422705102580, -8.999999999999452882 ) ) ;
#11870 = CARTESIAN_POINT ( 'NONE',  ( 0.1868488840560730835, -9.012327188163554936, -2.390175761354293993 ) ) ;
#12031 = ADVANCED_FACE ( 'NONE', ( #157847 ), #188657, .T. ) ;
#12216 = DIRECTION ( 'NONE',  ( 1.000000000000000000, 3.941291737419307296E-15, -1.887379141862766908E-15 ) ) ;
#12677 = CARTESIAN_POINT ( 'NONE',  ( 0.5484429003966863059, 5.638526299582298229, -8.233785969309940000 ) ) ;
#13071 = AXIS2_PLACEMENT_3D ( 'NONE', #233548, #20006, #207179 ) ;
#13379 = ORIENTED_EDGE ( 'NONE', *, *, #203684, .T. ) ;
#13590 = DIRECTION ( 'NONE',  ( -3.941291737419307296E-15, 1.000000000000000000, -2.775557561562892584E-17 ) ) ;
#13607 = UNCERTAINTY_MEASURE_WITH_UNIT (LENGTH_MEASURE( 1.000000000000000082E-05 ), #45168, 'distance_accuracy_value', 'NONE');
#14891 = DIRECTION ( 'NONE',  ( -1.377858201728996931E-15, -2.775557561561200539E-17, 1.000000000000000000 ) ) ;
#14974 = AXIS2_PLACEMENT_3D ( 'NONE', #198242, #246529, #293239 ) ;
#15372 = CARTESIAN_POINT ( 'NONE',  ( 37.49999999999964473, -8.881784197001252323E-13, 3.330669073875469621E-13 ) ) ;
#15638 = CARTESIAN_POINT ( 'NONE',  ( 0.2250103383470944407, -9.132852793923520451, 2.181433018261704770 ) ) ;
#15772 = ORIENTED_EDGE ( 'NONE', *, *, #284067, .T. ) ;
#16089 = VECTOR ( 'NONE', #99233, 1000.000000000000000 ) ;
#16404 = PLANE ( 'NONE',  #294484 ) ;
#16509 = B_SPLINE_CURVE_WITH_KNOTS ( 'NONE', 3,
 ( #305080, #43262, #211654, #136830, #281738, #231943, #63640, #306629, #283272, #18350, #208615, #46344, #158649, #68256, #69796, #302022, #303572, #16803, #90081 ),
 .UNSPECIFIED., .F., .F.,
 ( 4, 2, 1, 2, 2, 2, 1, 1, 2, 2, 4 ),
 ( 0.000000000000000000, 0.1250000000000005274, 0.1875000000000004441, 0.2187500000000004163, 0.2500000000000003886, 0.3749999999999997780, 0.4374999999999995004, 0.4687499999999995004, 0.4843749999999992784, 0.4999999999999990563, 1.000000000000000000 ),
 .UNSPECIFIED. ) ;
#16550 = AXIS2_PLACEMENT_3D ( 'NONE', #199433, #12216, #295887 ) ;
#16803 = CARTESIAN_POINT ( 'NONE',  ( 0.5484429003993850360, -5.638526299577482526, 8.233785969318265785 ) ) ;
#17337 = CARTESIAN_POINT ( 'NONE',  ( 6.899999999999906208, -10.39230484541575628, 1.221245327087672194E-12 ) ) ;
#17617 = ORIENTED_EDGE ( 'NONE', *, *, #106, .F. ) ;
#17677 = CARTESIAN_POINT ( 'NONE',  ( 0.000000000000000000, 10.39230484541431210, 0.000000000000000000 ) ) ;
#18186 = VECTOR ( 'NONE', #27093, 1000.000000000000000 ) ;
#18350 = CARTESIAN_POINT ( 'NONE',  ( 0.09651001955397724152, -6.916329827701452437, 6.020488371098949187 ) ) ;
#18819 = AXIS2_PLACEMENT_3D ( 'NONE', #187034, #282079, #207444 ) ;
#18920 = CARTESIAN_POINT ( 'NONE',  ( 0.1868488840555409813, 9.012327188159870772, 2.390175761364298879 ) ) ;
#19275 = VERTEX_POINT ( 'NONE', #95240 ) ;
#19448 = EDGE_CURVE ( 'NONE', #130824, #10082, #109275, .T. ) ;
#19921 = LINE ( 'NONE', #283280, #7027 ) ;
#20000 = CARTESIAN_POINT ( 'NONE',  ( 0.000000000000000000, 0.000000000000000000, 0.000000000000000000 ) ) ;
#20006 = DIRECTION ( 'NONE',  ( 1.000000000000000000, -3.941291737419307296E-15, -1.887379141862766908E-15 ) ) ;
#20494 = CARTESIAN_POINT ( 'NONE',  ( 0.8038475772931263919, 10.39230484541175947, 6.661338147750939243E-13 ) ) ;
#20796 = EDGE_CURVE ( 'NONE', #114420, #100766, #54235, .T. ) ;
#21447 = CARTESIAN_POINT ( 'NONE',  ( 0.04676026485156428020, -8.399920929468873254, -3.450902713300507685 ) ) ;
#22395 = ORIENTED_EDGE ( 'NONE', *, *, #244912, .F. ) ;
#22556 = ORIENTED_EDGE ( 'NONE', *, *, #221644, .F. ) ;
#22862 = DIRECTION ( 'NONE',  ( -1.000000000000000000, 3.941291737419307296E-15, 1.887379141862766908E-15 ) ) ;
#22902 = CARTESIAN_POINT ( 'NONE',  ( 7.500000000000284217, 5.551115123125782702E-13, -6.600000000001271516 ) ) ;
#23203 = EDGE_CURVE ( 'NONE', #286344, #79901, #220895, .T. ) ;
#23273 = CARTESIAN_POINT ( 'NONE',  ( 8.099999999999774047, 8.881784197001252323E-13, 5.999999999997118749 ) ) ;
#23302 = EDGE_CURVE ( 'NONE', #223500, #246369, #19921, .T. ) ;
#23345 = EDGE_CURVE ( 'NONE', #131401, #81768, #99309, .T. ) ;
#23412 = VERTEX_POINT ( 'NONE', #78987 ) ;
#23536 = CARTESIAN_POINT ( 'NONE',  ( 0.8038475772931263919, 5.196152422705102580, -8.999999999999452882 ) ) ;
#24030 = AXIS2_PLACEMENT_3D ( 'NONE', #167796, #22862, #259888 ) ;
#24172 = CARTESIAN_POINT ( 'NONE',  ( 0.09564729919316584950, -1.747530093061535172, -9.000030782779335325 ) ) ;
#24991 = APPLICATION_CONTEXT ( 'automotive_design' ) ;
#25038 = VECTOR ( 'NONE', #1051, 1000.000000000000114 ) ;
#25103 = CARTESIAN_POINT ( 'NONE',  ( 0.05121209739532655431, 8.428141031835538755, 3.402032117095962871 ) ) ;
#25723 = CARTESIAN_POINT ( 'NONE',  ( 0.000000000000000000, 6.661338147750939243E-13, -9.000000000000675016 ) ) ;
#25931 = DIRECTION ( 'NONE',  ( -1.887379141862766908E-15, 2.775557561563404727E-17, -1.000000000000000000 ) ) ;
#26196 = DIRECTION ( 'NONE',  ( -1.000000000000000000, 3.941291737419307296E-15, 1.887379141862766908E-15 ) ) ;
#26807 = DIRECTION ( 'NONE',  ( 1.000000000000000000, -3.941291737419307296E-15, -1.887379141862766908E-15 ) ) ;
#27091 = CARTESIAN_POINT ( 'NONE',  ( 8.099999999999774047, 8.881784197001252323E-13, 6.599999999997607780 ) ) ;
#27093 = DIRECTION ( 'NONE',  ( -3.608224830031758756E-16, 0.4999999999999998335, -0.8660254037844387076 ) ) ;
#27344 = CARTESIAN_POINT ( 'NONE',  ( 37.49999999999964473, -2.442490654175344389E-12, -5.035999999999041243 ) ) ;
#27570 = DIRECTION ( 'NONE',  ( -1.000000000000000000, 3.941291737419307296E-15, 1.887379141862766908E-15 ) ) ;
#27795 = ORIENTED_EDGE ( 'NONE', *, *, #45828, .T. ) ;
#28066 = DIRECTION ( 'NONE',  ( -1.000000000000000000, 3.941291737419307296E-15, 1.887379141862766908E-15 ) ) ;
#28357 = CARTESIAN_POINT ( 'NONE',  ( 7.499999999999840128, 10.39230484541286970, 5.551115123125782702E-13 ) ) ;
#28670 = VERTEX_POINT ( 'NONE', #45017 ) ;
#28741 = CARTESIAN_POINT ( 'NONE',  ( 0.1980483116651449438, -2.508983757463446373, -8.999998939429984190 ) ) ;
#28944 = AXIS2_PLACEMENT_3D ( 'NONE', #262280, #48646, #238890 ) ;
#29108 = ORIENTED_EDGE ( 'NONE', *, *, #164377, .T. ) ;
#29134 = ORIENTED_EDGE ( 'NONE', *, *, #281027, .T. ) ;
#29370 = DIRECTION ( 'NONE',  ( -2.469569197399442086E-15, -0.8660254037844383745, 0.5000000000000004441 ) ) ;
#29812 = CARTESIAN_POINT ( 'NONE',  ( 0.5625316281628252035, -4.318013783645854531, 8.999805411207962180 ) ) ;
#30583 = VERTEX_POINT ( 'NONE', #128655 ) ;
#30952 = ORIENTED_EDGE ( 'NONE', *, *, #135387, .T. ) ;
#31122 = CARTESIAN_POINT ( 'NONE',  ( 0.000000000000000000, -7.794228634059319205, -4.500000000000614619 ) ) ;
#31579 = CARTESIAN_POINT ( 'NONE',  ( 6.899999999999906208, 5.196152422705213603, -9.000000000000230926 ) ) ;
#32204 = CARTESIAN_POINT ( 'NONE',  ( 0.1585969671858076246, -8.916706706700454177, -2.555759427524569638 ) ) ;
#32611 = EDGE_LOOP ( 'NONE', ( #22395, #42995, #213802, #95744 ) ) ;
#33712 = ORIENTED_EDGE ( 'NONE', *, *, #204506, .T. ) ;
#34270 = ORIENTED_EDGE ( 'NONE', *, *, #282688, .F. ) ;
#34513 = CARTESIAN_POINT ( 'NONE',  ( -1.611508416582879856E-14, 0.2212191456626223240, 9.000000000000001776 ) ) ;
#35853 = ORIENTED_EDGE ( 'NONE', *, *, #106, .T. ) ;
#36033 = CARTESIAN_POINT ( 'NONE',  ( 0.000000000000000000, 0.000000000000000000, 0.000000000000000000 ) ) ;
#36114 = CARTESIAN_POINT ( 'NONE',  ( 0.02730102419910092337, 7.326477309941346938, -5.310096393493601852 ) ) ;
#36863 = ORIENTED_EDGE ( 'NONE', *, *, #115153, .T. ) ;
#36911 = CARTESIAN_POINT ( 'NONE',  ( 6.899999999999906208, -1.110223024625156540E-13, -6.661338147750939243E-13 ) ) ;
#37348 = CARTESIAN_POINT ( 'NONE',  ( 0.3710485627938199804, 6.060313056154429390, 7.502881498766883261 ) ) ;
#37524 = CARTESIAN_POINT ( 'NONE',  ( 0.09738373865182768652, -8.671089620292335098, 2.981301031273401403 ) ) ;
#38601 = CARTESIAN_POINT ( 'NONE',  ( 6.899999999999906208, -6.661338147750939243E-13, 9.000000000001007194 ) ) ;
#39320 = DIRECTION ( 'NONE',  ( -2.312964634635742661E-15, -2.775557561562996738E-17, 1.000000000000000000 ) ) ;
#39391 = AXIS2_PLACEMENT_3D ( 'NONE', #277821, #87688, #90741 ) ;
#39869 = EDGE_LOOP ( 'NONE', ( #222079, #122415, #59358 ) ) ;
#39965 = EDGE_CURVE ( 'NONE', #220337, #105970, #251703, .T. ) ;
#40256 = FACE_OUTER_BOUND ( 'NONE', #253437, .T. ) ;
#40311 = ORIENTED_EDGE ( 'NONE', *, *, #274878, .T. ) ;
#40312 = ORIENTED_EDGE ( 'NONE', *, *, #154448, .F. ) ;
#41187 = VERTEX_POINT ( 'NONE', #294195 ) ;
#41264 = EDGE_CURVE ( 'NONE', #9784, #131401, #115956, .T. ) ;
#41286 = AXIS2_PLACEMENT_3D ( 'NONE', #87004, #60530, #205542 ) ;
#41754 = DIRECTION ( 'NONE',  ( -1.377858201728996931E-15, -2.775557561561200539E-17, 1.000000000000000000 ) ) ;
#42741 = ORIENTED_EDGE ( 'NONE', *, *, #227203, .T. ) ;
#42995 = ORIENTED_EDGE ( 'NONE', *, *, #238902, .T. ) ;
#43262 = CARTESIAN_POINT ( 'NONE',  ( -4.013919730448711894E-14, -7.683873345400905386, 4.691140966841382820 ) ) ;
#45017 = CARTESIAN_POINT ( 'NONE',  ( 8.100000000000218137, 3.330669073875469621E-13, -6.000000000001892708 ) ) ;
#45168 = ( LENGTH_UNIT ( ) NAMED_UNIT ( * ) SI_UNIT ( .MILLI., .METRE. ) );
#45297 = VECTOR ( 'NONE', #214983, 1000.000000000000000 ) ;
#45811 = EDGE_CURVE ( 'NONE', #303697, #28670, #124323, .T. ) ;
#45828 = EDGE_CURVE ( 'NONE', #262037, #218416, #174155, .T. ) ;
#46240 = CARTESIAN_POINT ( 'NONE',  ( 6.899999999999906208, -10.39230484541575628, 1.221245327087672194E-12 ) ) ;
#46278 = VERTEX_POINT ( 'NONE', #58371 ) ;
#46344 = CARTESIAN_POINT ( 'NONE',  ( 0.1585969671866021280, -6.671705943542083794, 6.444214812343537879 ) ) ;
#47465 = CARTESIAN_POINT ( 'NONE',  ( 0.000000000000000000, 6.661338147750939243E-13, -9.000000000000675016 ) ) ;
#47559 = AXIS2_PLACEMENT_3D ( 'NONE', #36033, #109254, #202867 ) ;
#47741 = ORIENTED_EDGE ( 'NONE', *, *, #204506, .F. ) ;
#48475 = DIRECTION ( 'NONE',  ( -3.941291737419307296E-15, 1.000000000000000000, -2.775557561562892584E-17 ) ) ;
#48646 = DIRECTION ( 'NONE',  ( 4.356948339262210966E-15, 0.8660254037844387076, 0.4999999999999999445 ) ) ;
#49057 = CARTESIAN_POINT ( 'NONE',  ( 0.04610184147965732532, -1.205606651891244052, -9.000095647658858056 ) ) ;
#49897 = CARTESIAN_POINT ( 'NONE',  ( 0.01854417711408936839, -7.355714297935048052, -5.259707708381271551 ) ) ;
#50198 = SHAPE_REPRESENTATION ( '\X2\04120438043d0442\X0\ \X2\041c\X0\12\X2\0445\X0\30 DIN 931', ( #267245 ), #89196 ) ;
#50344 = AXIS2_PLACEMENT_3D ( 'NONE', #251315, #135858, #61078 ) ;
#50630 = CARTESIAN_POINT ( 'NONE',  ( 0.8038475772931263919, 10.39230484541175947, 6.661338147750939243E-13 ) ) ;
#50769 = DIRECTION ( 'NONE',  ( -3.608224830031758756E-16, 0.4999999999999998335, -0.8660254037844387076 ) ) ;
#51110 = FACE_OUTER_BOUND ( 'NONE', #259894, .T. ) ;
#51378 = EDGE_LOOP ( 'NONE', ( #172952, #80515, #34270, #200753, #270365, #95573 ) ) ;
#51571 = CARTESIAN_POINT ( 'NONE',  ( 6.899999999999906208, 8.999999999997898570, 4.440892098500626162E-13 ) ) ;
#52159 = CARTESIAN_POINT ( 'NONE',  ( 0.07324217672716339111, -1.531010382610977771, -9.000091364079708001 ) ) ;
#52202 = ADVANCED_FACE ( 'NONE', ( #5452 ), #102800, .T. ) ;
#52786 = DIRECTION ( 'NONE',  ( 1.000000000000000000, 3.941291737419307296E-15, -1.887379141862766908E-15 ) ) ;
#53095 = DIRECTION ( 'NONE',  ( 1.000000000000000000, 3.941291737419307296E-15, -1.887379141862766908E-15 ) ) ;
#53519 = CARTESIAN_POINT ( 'NONE',  ( 6.899999999999906208, 7.794228634057986937, -4.499999999999171330 ) ) ;
#53550 = DIRECTION ( 'NONE',  ( -2.891205793294679017E-15, 1.665334536937140946E-16, 1.000000000000000000 ) ) ;
#54220 = AXIS2_PLACEMENT_3D ( 'NONE', #229592, #137555, #301210 ) ;
#54235 = LINE ( 'NONE', #191515, #5744 ) ;
#55048 = CARTESIAN_POINT ( 'NONE',  ( 0.1097080716863802763, 8.725293515958645330, -2.887381142670215173 ) ) ;
#55336 = ORIENTED_EDGE ( 'NONE', *, *, #145722, .F. ) ;
#55425 = DIRECTION ( 'NONE',  ( 2.891205793294679017E-15, 2.775557561556423308E-17, -1.000000000000000000 ) ) ;
#55766 = B_SPLINE_CURVE_WITH_KNOTS ( 'NONE', 3,
 ( #212227, #282318, #188800, #140481, #71900, #163825, #95274, #25103, #259036, #209207, #190345, #285362, #18920, #120162, #283851, #166931, #93722, #215287, #20494 ),
 .UNSPECIFIED., .F., .F.,
 ( 4, 2, 1, 2, 2, 2, 1, 1, 2, 2, 4 ),
 ( 0.000000000000000000, 0.1249999999999986677, 0.1874999999999982514, 0.2187499999999978073, 0.2499999999999973355, 0.3749999999999953371, 0.4374999999999942268, 0.4687499999999937828, 0.4843749999999935607, 0.4999999999999933387, 1.000000000000000000 ),
 .UNSPECIFIED. ) ;
#56858 = VECTOR ( 'NONE', #280451, 1000.000000000000000 ) ;
#57123 = CARTESIAN_POINT ( 'NONE',  ( 0.1995661275793376432, -9.053400700767147313, -2.319044419795269985 ) ) ;
#57733 = LINE ( 'NONE', #106036, #174511 ) ;
#57805 = CARTESIAN_POINT ( 'NONE',  ( 0.06434005654469576729, -1.424268660153682697, 9.000093968853889237 ) ) ;
#58049 = TOROIDAL_SURFACE ( 'NONE', #13071, 6.599999999999999645, 0.5999999999999999778 ) ;
#58083 = ORIENTED_EDGE ( 'NONE', *, *, #275004, .F. ) ;
#58119 = CARTESIAN_POINT ( 'NONE',  ( 0.2791760747064886972, 9.290523576911766668, -1.908237071445405997 ) ) ;
#58369 = CIRCLE ( 'NONE', #287313, 9.000000000000000000 ) ;
#58371 = CARTESIAN_POINT ( 'NONE',  ( 36.53599999999990189, -1.776356839400250465E-12, 5.999999999998339995 ) ) ;
#58394 = ORIENTED_EDGE ( 'NONE', *, *, #106318, .F. ) ;
#58642 = CARTESIAN_POINT ( 'NONE',  ( 0.000000000000000000, 0.000000000000000000, 0.000000000000000000 ) ) ;
#59170 = ADVANCED_FACE ( 'NONE', ( #127615 ), #289780, .T. ) ;
#59184 = EDGE_LOOP ( 'NONE', ( #42741, #296681 ) ) ;
#59278 = AXIS2_PLACEMENT_3D ( 'NONE', #15372, #113527, #185255 ) ;
#59358 = ORIENTED_EDGE ( 'NONE', *, *, #88458, .T. ) ;
#59470 = CARTESIAN_POINT ( 'NONE',  ( 0.1995661275780524491, 6.535051730434308759, -6.680952787599866660 ) ) ;
#59491 = ADVANCED_FACE ( 'NONE', ( #182058 ), #160748, .T. ) ;
#60530 = DIRECTION ( 'NONE',  ( 1.000000000000000000, -3.941291737419307296E-15, -1.887379141862766908E-15 ) ) ;
#60702 = CARTESIAN_POINT ( 'NONE',  ( 0.4162513029765054218, 5.954254281973176965, 7.686513543513592062 ) ) ;
#60883 = CARTESIAN_POINT ( 'NONE',  ( 0.2208893471453917678, -9.120286237389375827, 2.203201152971417720 ) ) ;
#61078 = DIRECTION ( 'NONE',  ( -3.941291737419307296E-15, 1.000000000000000000, -2.775557561562892584E-17 ) ) ;
#61106 = ORIENTED_EDGE ( 'NONE', *, *, #228774, .F. ) ;
#62554 = CARTESIAN_POINT ( 'NONE',  ( 0.07397058096030650898, 7.024698545080827472, -5.832862821693471034 ) ) ;
#63198 = EDGE_CURVE ( 'NONE', #114420, #19275, #137155, .T. ) ;
#63640 = CARTESIAN_POINT ( 'NONE',  ( 0.04676026485154603091, -7.188529880441373088, 5.549093558050308239 ) ) ;
#63737 = ADVANCED_FACE ( 'NONE', ( #286638 ), #73184, .T. ) ;
#64396 = ORIENTED_EDGE ( 'NONE', *, *, #41264, .F. ) ;
#65359 = B_SPLINE_CURVE_WITH_KNOTS ( 'NONE', 3,
 ( #78151, #193536, #29812, #244942, #9463, #294700, #124901, #101516, #269843, #173154, #219997, #103042, #268259, #75118, #174730, #57805, #218445, #170141, #149753 ),
 .UNSPECIFIED., .F., .F.,
 ( 4, 2, 2, 1, 2, 2, 2, 2, 2, 4 ),
 ( 0.000000000000000000, 0.2500000000000016098, 0.3750000000000022760, 0.4375000000000024980, 0.4687500000000024425, 0.5000000000000024425, 0.6250000000000015543, 0.6875000000000013323, 0.7500000000000009992, 1.000000000000000000 ),
 .UNSPECIFIED. ) ;
#66735 = CARTESIAN_POINT ( 'NONE',  ( 6.899999999999906208, 7.794228634058320004, 4.500000000001280753 ) ) ;
#67108 = CARTESIAN_POINT ( 'NONE',  ( 0.000000000000000000, 3.330669073875469621E-13, -5.999999999999783284 ) ) ;
#67145 = ORIENTED_EDGE ( 'NONE', *, *, #19448, .F. ) ;
#67270 = CARTESIAN_POINT ( 'NONE',  ( 0.1827375569883183393, 2.417075800957220633, -8.999998810092467494 ) ) ;
#68131 = CARTESIAN_POINT ( 'NONE',  ( 7.499999999999840128, 1.110223024625156540E-13, 2.220446049250313081E-13 ) ) ;
#68256 = CARTESIAN_POINT ( 'NONE',  ( 0.1995661275796079548, -6.535051730428601324, 6.680952787609395038 ) ) ;
#69059 = ORIENTED_EDGE ( 'NONE', *, *, #63198, .F. ) ;
#69102 = CIRCLE ( 'NONE', #4305, 9.000000000000000000 ) ;
#69105 = VERTEX_POINT ( 'NONE', #50630 ) ;
#69465 = CONICAL_SURFACE ( 'NONE', #39391, 9.000000000000000000, 1.047197551196598297 ) ;
#69648 = ADVANCED_FACE ( 'NONE', ( #290991 ), #77526, .T. ) ;
#69796 = CARTESIAN_POINT ( 'NONE',  ( 0.2081796852950481003, -6.507651301785885245, 6.728416335441246510 ) ) ;
#70954 = LINE ( 'NONE', #141031, #4803 ) ;
#71900 = CARTESIAN_POINT ( 'NONE',  ( 0.02730102419908807254, 8.261917028293041199, 3.689867273883729482 ) ) ;
#71902 = AXIS2_PLACEMENT_3D ( 'NONE', #213211, #27570, #263028 ) ;
#73184 = PLANE ( 'NONE',  #306659 ) ;
#73353 = CARTESIAN_POINT ( 'NONE',  ( 0.2208893471462117231, -6.468171286813881871, -6.796798994882154332 ) ) ;
#73447 = CARTESIAN_POINT ( 'NONE',  ( 0.000000000000000000, 6.661338147750939243E-13, -9.000000000000675016 ) ) ;
#74189 = EDGE_LOOP ( 'NONE', ( #124713, #185339, #180646, #125891 ) ) ;
#74308 = CYLINDRICAL_SURFACE ( 'NONE', #24030, 9.000000000000000000 ) ;
#74690 = VERTEX_POINT ( 'NONE', #255659 ) ;
#75118 = CARTESIAN_POINT ( 'NONE',  ( 0.09673074163445852247, -1.747714149482455959, 9.000039094119273386 ) ) ;
#75168 = EDGE_CURVE ( 'NONE', #79901, #286344, #91549, .T. ) ;
#75303 = DIRECTION ( 'NONE',  ( -1.000000000000000000, 3.941291737419307296E-15, 1.887379141862766908E-15 ) ) ;
#75311 = ORIENTED_EDGE ( 'NONE', *, *, #225179, .F. ) ;
#75685 = ADVANCED_FACE ( 'NONE', ( #264448 ), #186569, .F. ) ;
#75779 = ADVANCED_BREP_SHAPE_REPRESENTATION ( '', ( #297967, #267245 ), #89196 ) ;
#75972 = CARTESIAN_POINT ( 'NONE',  ( 0.03862804487737493686, -8.344680824302878719, -3.546559231399756928 ) ) ;
#76703 = CARTESIAN_POINT ( 'NONE',  ( 7.500000000000284217, -10.39230484541375787, -4.440892098500626162E-13 ) ) ;
#77459 = AXIS2_PLACEMENT_3D ( 'NONE', #193717, #75303, #270020 ) ;
#77526 = PLANE ( 'NONE',  #274716 ) ;
#78151 = CARTESIAN_POINT ( 'NONE',  ( 0.8038475772931263919, -5.196152422708655294, 9.000000000000895284 ) ) ;
#78379 = LINE ( 'NONE', #31579, #252298 ) ;
#78866 = ORIENTED_EDGE ( 'NONE', *, *, #23345, .F. ) ;
#78907 = ORIENTED_EDGE ( 'NONE', *, *, #284452, .T. ) ;
#78987 = CARTESIAN_POINT ( 'NONE',  ( 0.000000000000000000, -7.794228634059319205, -4.500000000000614619 ) ) ;
#79289 = EDGE_LOOP ( 'NONE', ( #184742, #36863, #149403, #67145, #17617, #64396 ) ) ;
#79835 = ORIENTED_EDGE ( 'NONE', *, *, #221644, .T. ) ;
#79901 = VERTEX_POINT ( 'NONE', #27344 ) ;
#80515 = ORIENTED_EDGE ( 'NONE', *, *, #108425, .T. ) ;
#81057 = CARTESIAN_POINT ( 'NONE',  ( 0.2250103383490957842, 6.455602807429045242, 6.818566019436697268 ) ) ;
#81283 = CARTESIAN_POINT ( 'NONE',  ( 0.3543541931725257554, 3.473946089093974177, 8.999995487298271257 ) ) ;
#81768 = VERTEX_POINT ( 'NONE', #38601 ) ;
#82188 = CARTESIAN_POINT ( 'NONE',  ( 0.8038475772931263919, -5.196152422708211205, -8.999999999998786748 ) ) ;
#82233 = ORIENTED_EDGE ( 'NONE', *, *, #284067, .F. ) ;
#82806 = CARTESIAN_POINT ( 'NONE',  ( 0.8038475772931263919, 5.196152422704658491, 9.000000000001895373 ) ) ;
#83222 = CARTESIAN_POINT ( 'NONE',  ( 7.500000000000284217, 0.000000000000000000, -9.000000000000563105 ) ) ;
#83556 = CARTESIAN_POINT ( 'NONE',  ( 0.1368181550410396408, -8.835068756731310202, -2.697138010082803738 ) ) ;
#83597 = DIRECTION ( 'NONE',  ( 1.000000000000000000, 3.941291737419307296E-15, -1.887379141862766908E-15 ) ) ;
#83633 = DIRECTION ( 'NONE',  ( 2.023844055306275075E-15, 2.775557561562996738E-17, -1.000000000000000000 ) ) ;
#83854 = DIRECTION ( 'NONE',  ( -1.000000000000000000, 3.941291737419307296E-15, 1.887379141862766908E-15 ) ) ;
#84325 = CARTESIAN_POINT ( 'NONE',  ( 0.2143359202707106892, 2.611662028095406818, 9.000000141021926581 ) ) ;
#84384 = CARTESIAN_POINT ( 'NONE',  ( 0.03862804487743590892, 7.243750802579831394, -5.453425964606038789 ) ) ;
#84470 = CARTESIAN_POINT ( 'NONE',  ( 0.8038475772931263919, -5.196152422708655294, 9.000000000000895284 ) ) ;
#85497 = ORIENTED_EDGE ( 'NONE', *, *, #102408, .F. ) ;
#85819 = CARTESIAN_POINT ( 'NONE',  ( 0.2337355364717688400, -9.159121202349718160, 2.135926419961996281 ) ) ;
#86092 = ORIENTED_EDGE ( 'NONE', *, *, #204844, .F. ) ;
#86487 = AXIS2_PLACEMENT_3D ( 'NONE', #161728, #103113, #41754 ) ;
#87004 = CARTESIAN_POINT ( 'NONE',  ( 0.000000000000000000, 0.000000000000000000, 0.000000000000000000 ) ) ;
#87423 = CARTESIAN_POINT ( 'NONE',  ( 0.2009980506790295940, 2.527538946048319968, 8.999997150421249259 ) ) ;
#87485 = CARTESIAN_POINT ( 'NONE',  ( 0.000000000000000000, 7.794228634059985339, -4.499999999999948486 ) ) ;
#87534 = DIRECTION ( 'NONE',  ( 3.608224830031761912E-15, -0.5000000000000001110, -0.8660254037844385966 ) ) ;
#87688 = DIRECTION ( 'NONE',  ( 1.000000000000000000, -3.941291737419307296E-15, -1.887379141862766908E-15 ) ) ;
#88153 = DIRECTION ( 'NONE',  ( 1.000000000000000000, -3.941291737419307296E-15, -1.887379141862766908E-15 ) ) ;
#88458 = EDGE_CURVE ( 'NONE', #81768, #9784, #6668, .T. ) ;
#88595 = DIRECTION ( 'NONE',  ( -1.000000000000000000, 3.941291737419307296E-15, 1.887379141862766908E-15 ) ) ;
#89132 = ORIENTED_EDGE ( 'NONE', *, *, #45828, .F. ) ;
#89196 = ( GEOMETRIC_REPRESENTATION_CONTEXT ( 3 ) GLOBAL_UNCERTAINTY_ASSIGNED_CONTEXT ( ( #13607 ) ) GLOBAL_UNIT_ASSIGNED_CONTEXT ( ( #45168, #282070, #238413 ) ) REPRESENTATION_CONTEXT ( 'NONE', 'WORKASPACE' ) );
#90081 = CARTESIAN_POINT ( 'NONE',  ( 0.8038475772931263919, -5.196152422708655294, 9.000000000000895284 ) ) ;
#90566 = ORIENTED_EDGE ( 'NONE', *, *, #247047, .F. ) ;
#90741 = DIRECTION ( 'NONE',  ( 1.887379141862766119E-15, 2.775557561562891351E-17, -1.000000000000000000 ) ) ;
#91287 = EDGE_LOOP ( 'NONE', ( #249069, #134463, #142900, #291249 ) ) ;
#91549 = CIRCLE ( 'NONE', #151369, 5.035999999999999588 ) ;
#91949 = EDGE_CURVE ( 'NONE', #214583, #81768, #182292, .T. ) ;
#92034 = LINE ( 'NONE', #282193, #217467 ) ;
#92561 = DIRECTION ( 'NONE',  ( 3.330669073875471100E-16, -0.5000000000000004441, 0.8660254037844383745 ) ) ;
#93722 = CARTESIAN_POINT ( 'NONE',  ( 0.3528258199726768130, 9.527914382526484260, 1.497159150202538758 ) ) ;
#94183 = AXIS2_PLACEMENT_3D ( 'NONE', #51571, #53095, #48475 ) ;
#94264 = CARTESIAN_POINT ( 'NONE',  ( 6.899999999999906208, -1.110223024625156540E-13, -6.661338147750939243E-13 ) ) ;
#94788 = DIRECTION ( 'NONE',  ( -1.887379141862766513E-15, -2.775557561562891351E-17, 1.000000000000000000 ) ) ;
#95183 = DIRECTION ( 'NONE',  ( 1.887379141862766119E-15, 2.775557561562891351E-17, -1.000000000000000000 ) ) ;
#95240 = CARTESIAN_POINT ( 'NONE',  ( 6.900000000000350298, 1.221245327087672194E-12, -9.000000000001895373 ) ) ;
#95261 = CARTESIAN_POINT ( 'NONE',  ( 0.5642798307077500075, 4.324709746050081627, -8.999812696162068804 ) ) ;
#95274 = CARTESIAN_POINT ( 'NONE',  ( 0.04676026485161376145, 8.399920929469658404, 3.450902713298564350 ) ) ;
#95504 = DIRECTION ( 'NONE',  ( -3.330669073875471593E-16, 0.5000000000000004441, -0.8660254037844383745 ) ) ;
#95573 = ORIENTED_EDGE ( 'NONE', *, *, #284452, .F. ) ;
#95744 = ORIENTED_EDGE ( 'NONE', *, *, #45811, .T. ) ;
#95833 = CARTESIAN_POINT ( 'NONE',  ( 6.899999999999906208, -10.39230484541575628, 1.221245327087672194E-12 ) ) ;
#95899 = CARTESIAN_POINT ( 'NONE',  ( 1.612184278288710901E-14, -0.2191446369581040443, -8.999999999999998224 ) ) ;
#96430 = DIRECTION ( 'NONE',  ( -3.608224830031761912E-15, 0.5000000000000001110, 0.8660254037844385966 ) ) ;
#96627 = ORIENTED_EDGE ( 'NONE', *, *, #23203, .F. ) ;
#96737 = DIRECTION ( 'NONE',  ( -1.377858201728996931E-15, -2.775557561561200539E-17, 1.000000000000000000 ) ) ;
#97424 = CARTESIAN_POINT ( 'NONE',  ( 0.8038475772931263919, -5.196152422708211205, -8.999999999998786748 ) ) ;
#98701 = DIRECTION ( 'NONE',  ( -0.7071067811865670016, -2.498001805406542558E-16, 0.7071067811865281438 ) ) ;
#98961 = CARTESIAN_POINT ( 'NONE',  ( 0.1357223313436671797, -2.073150937497182156, -8.999997556985773528 ) ) ;
#99053 = CARTESIAN_POINT ( 'NONE',  ( 0.8038475772931263919, 5.196152422704658491, 9.000000000001895373 ) ) ;
#99233 = DIRECTION ( 'NONE',  ( -1.000000000000000000, 3.941291737419307296E-15, 1.887379141862766908E-15 ) ) ;
#99301 = CARTESIAN_POINT ( 'NONE',  ( 0.000000000000000000, 0.000000000000000000, 0.000000000000000000 ) ) ;
#99309 = LINE ( 'NONE', #149055, #146294 ) ;
#99332 = CARTESIAN_POINT ( 'NONE',  ( 0.004646982842370311548, -8.014412075023230386, -4.118526986113796085 ) ) ;
#99482 = VERTEX_POINT ( 'NONE', #84470 ) ;
#99528 = ADVANCED_FACE ( 'NONE', ( #112460, #110936 ), #177974, .T. ) ;
#99785 = CARTESIAN_POINT ( 'NONE',  ( 0.09738373864297272808, -6.917427239568096020, -6.018733373992516178 ) ) ;
#100766 = VERTEX_POINT ( 'NONE', #266822 ) ;
#100872 = DIRECTION ( 'NONE',  ( -3.941291737419307296E-15, 1.000000000000000000, -2.775557561562892584E-17 ) ) ;
#101270 = CIRCLE ( 'NONE', #225631, 9.000000000000000000 ) ;
#101395 = ORIENTED_EDGE ( 'NONE', *, *, #125075, .F. ) ;
#101516 = CARTESIAN_POINT ( 'NONE',  ( 0.2505976229506714503, -2.829161378641968927, 8.999979972254340765 ) ) ;
#101823 = CARTESIAN_POINT ( 'NONE',  ( 0.5630980118912989330, 9.954154042810818837, -0.7585150443818372556 ) ) ;
#102408 = EDGE_CURVE ( 'NONE', #23412, #121886, #155712, .T. ) ;
#102800 = CONICAL_SURFACE ( 'NONE', #282112, 9.000000000000000000, 1.047197551196598297 ) ;
#103042 = CARTESIAN_POINT ( 'NONE',  ( 0.1490867310658800238, -2.181740512827328615, 8.999985327611746300 ) ) ;
#103066 = CARTESIAN_POINT ( 'NONE',  ( 0.8038475772926823026, -10.39230484541575628, 1.443289932012703503E-12 ) ) ;
#103113 = DIRECTION ( 'NONE',  ( -1.000000000000000000, 3.941291737419307296E-15, 1.887379141862766908E-15 ) ) ;
#104432 = CARTESIAN_POINT ( 'NONE',  ( 0.6759804690132248384, 5.417624750864587391, 8.616398675159656406 ) ) ;
#105284 = DIRECTION ( 'NONE',  ( 2.469569197399442086E-15, 0.8660254037844383745, -0.5000000000000004441 ) ) ;
#105338 = FACE_OUTER_BOUND ( 'NONE', #183819, .T. ) ;
#105693 = DIRECTION ( 'NONE',  ( 1.887379141862766119E-15, 2.775557561562891351E-17, -1.000000000000000000 ) ) ;
#105970 = VERTEX_POINT ( 'NONE', #22902 ) ;
#106036 = CARTESIAN_POINT ( 'NONE',  ( 6.899999999999906208, 10.39230484541286970, -3.330669073875469621E-13 ) ) ;
#106318 = EDGE_CURVE ( 'NONE', #218416, #81768, #139429, .T. ) ;
#106372 = ORIENTED_EDGE ( 'NONE', *, *, #262566, .T. ) ;
#106415 = CARTESIAN_POINT ( 'NONE',  ( 0.09738373865890970205, 8.671089620325020064, -2.981301031216061492 ) ) ;
#107432 = ADVANCED_FACE ( 'NONE', ( #253484 ), #16404, .F. ) ;
#107485 = CARTESIAN_POINT ( 'NONE',  ( 1.864997143264518487E-14, 7.574076856634025745, 4.881314063878283704 ) ) ;
#107746 = EDGE_LOOP ( 'NONE', ( #126198, #198114, #230156, #58394, #89132, #47741 ) ) ;
#107891 = VECTOR ( 'NONE', #92561, 1000.000000000000114 ) ;
#108181 = PLANE ( 'NONE',  #265886 ) ;
#108197 = VECTOR ( 'NONE', #87534, 1000.000000000000114 ) ;
#108425 = EDGE_CURVE ( 'NONE', #74690, #99482, #139962, .T. ) ;
#108910 = AXIS2_PLACEMENT_3D ( 'NONE', #168728, #238923, #142273 ) ;
#108961 = VERTEX_POINT ( 'NONE', #112756 ) ;
#109210 = CARTESIAN_POINT ( 'NONE',  ( 0.07489110825467178156, -8.562699077771597445, 3.169110283152166918 ) ) ;
#109212 = EDGE_CURVE ( 'NONE', #114972, #130824, #175466, .T. ) ;
#109254 = DIRECTION ( 'NONE',  ( 1.000000000000000000, -3.941291737419307296E-15, -1.887379141862766908E-15 ) ) ;
#109272 = CARTESIAN_POINT ( 'NONE',  ( 0.03851299952407715582, 1.103405698916733568, 8.999984513312929479 ) ) ;
#109275 = B_SPLINE_CURVE_WITH_KNOTS ( 'NONE', 3,
 ( #152640, #104432, #198024, #60702, #37348, #155730, #7791, #130879, #250935, #81057, #132396, #149604, #176070, #227486, #296063, #247828, #199593, #249409, #107485, #177595 ),
 .UNSPECIFIED., .F., .F.,
 ( 4, 2, 2, 1, 1, 2, 2, 2, 2, 2, 4 ),
 ( 0.000000000000000000, 0.2499999999999987232, 0.3749999999999981126, 0.4374999999999974465, 0.4687499999999970024, 0.4843749999999968914, 0.4999999999999968359, 0.6249999999999965583, 0.6874999999999967804, 0.7499999999999970024, 1.000000000000000000 ),
 .UNSPECIFIED. ) ;
#109422 = ORIENTED_EDGE ( 'NONE', *, *, #88458, .F. ) ;
#110130 = PRODUCT_DEFINITION ( 'UNKNOWN', '', #251327, #213042 ) ;
#110539 = ADVANCED_FACE ( 'NONE', ( #135389 ), #58049, .F. ) ;
#110800 = CARTESIAN_POINT ( 'NONE',  ( 0.004668242366541093882, 0.4414676223061083649, 8.999947475443862643 ) ) ;
#110857 = CARTESIAN_POINT ( 'NONE',  ( 3.713641256691107375E-14, 7.683873345410574984, -4.691140966824627334 ) ) ;
#110891 = VERTEX_POINT ( 'NONE', #164539 ) ;
#110912 = LINE ( 'NONE', #17337, #108197 ) ;
#110936 = FACE_OUTER_BOUND ( 'NONE', #59184, .T. ) ;
#111527 = CARTESIAN_POINT ( 'NONE',  ( 7.500000000000284217, 5.196152422705657692, -9.000000000000230926 ) ) ;
#112319 = ORIENTED_EDGE ( 'NONE', *, *, #282688, .T. ) ;
#112372 = ORIENTED_EDGE ( 'NONE', *, *, #188248, .T. ) ;
#112460 = FACE_BOUND ( 'NONE', #163938, .T. ) ;
#112756 = CARTESIAN_POINT ( 'NONE',  ( 0.000000000000000000, 7.794228634059985339, -4.499999999999948486 ) ) ;
#113324 = EDGE_CURVE ( 'NONE', #69105, #108961, #148660, .T. ) ;
#113527 = DIRECTION ( 'NONE',  ( -1.000000000000000000, 3.941291737419307296E-15, -1.887379141862766119E-15 ) ) ;
#114420 = VERTEX_POINT ( 'NONE', #53519 ) ;
#114972 = VERTEX_POINT ( 'NONE', #282053 ) ;
#115153 = EDGE_CURVE ( 'NONE', #100766, #69105, #227267, .T. ) ;
#115956 = LINE ( 'NONE', #164235, #107891 ) ;
#116603 = FACE_OUTER_BOUND ( 'NONE', #32611, .T. ) ;
#116922 = LINE ( 'NONE', #67108, #185693 ) ;
#117288 = AXIS2_PLACEMENT_3D ( 'NONE', #240099, #241640, #95183 ) ;
#118063 = CARTESIAN_POINT ( 'NONE',  ( 6.899999999999906208, -7.794228634060984540, 4.500000000000059508 ) ) ;
#118563 = CARTESIAN_POINT ( 'NONE',  ( 37.49999999999964473, -8.881784197001252323E-13, 3.330669073875469621E-13 ) ) ;
#118602 = CARTESIAN_POINT ( 'NONE',  ( 0.1512702205438469227, 2.197953368417187026, -8.999961660895236193 ) ) ;
#118847 = PLANE ( 'NONE',  #28944 ) ;
#118926 = DIRECTION ( 'NONE',  ( 1.000000000000000000, 3.941291737419307296E-15, -1.887379141862766908E-15 ) ) ;
#119011 = EDGE_CURVE ( 'NONE', #228962, #19275, #173962, .T. ) ;
#119424 = DIRECTION ( 'NONE',  ( 1.000000000000000000, -3.941291737419307296E-15, -1.887379141862766908E-15 ) ) ;
#119731 = CARTESIAN_POINT ( 'NONE',  ( 6.899999999999906208, -1.110223024625156540E-13, -6.661338147750939243E-13 ) ) ;
#120162 = CARTESIAN_POINT ( 'NONE',  ( 0.1995661275790409916, 9.053400700764964171, 2.319044419801296275 ) ) ;
#120235 = ADVANCED_FACE ( 'NONE', ( #291210 ), #194694, .F. ) ;
#121405 = DIRECTION ( 'NONE',  ( -1.000000000000000000, 3.941291737419307296E-15, 1.887379141862766908E-15 ) ) ;
#121804 = ORIENTED_EDGE ( 'NONE', *, *, #23302, .T. ) ;
#121886 = VERTEX_POINT ( 'NONE', #165957 ) ;
#122338 = CIRCLE ( 'NONE', #117288, 9.000000000000000000 ) ;
#122415 = ORIENTED_EDGE ( 'NONE', *, *, #23345, .T. ) ;
#123114 = CARTESIAN_POINT ( 'NONE',  ( 0.8038475772931263919, -5.196152422708211205, -8.999999999998786748 ) ) ;
#123446 = CIRCLE ( 'NONE', #297612, 6.000000000000000000 ) ;
#123598 = LINE ( 'NONE', #290349, #167288 ) ;
#123667 = CARTESIAN_POINT ( 'NONE',  ( 0.8038475772931263919, 10.39230484541175947, 6.661338147750939243E-13 ) ) ;
#124013 = LINE ( 'NONE', #167702, #216595 ) ;
#124097 = FACE_OUTER_BOUND ( 'NONE', #107746, .T. ) ;
#124224 = CARTESIAN_POINT ( 'NONE',  ( 0.07397058096317551956, -8.563756652927086321, -3.167135983108554598 ) ) ;
#124323 = CIRCLE ( 'NONE', #268743, 6.000000000000000000 ) ;
#124674 = CARTESIAN_POINT ( 'NONE',  ( 0.07489110824904604558, -7.025879551496098330, -5.830959784713011906 ) ) ;
#124713 = ORIENTED_EDGE ( 'NONE', *, *, #45811, .F. ) ;
#124901 = CARTESIAN_POINT ( 'NONE',  ( 0.2781947516163368883, -2.987306716432824860, 8.999947306972215344 ) ) ;
#125055 = FACE_OUTER_BOUND ( 'NONE', #244131, .T. ) ;
#125075 = EDGE_CURVE ( 'NONE', #110891, #132712, #70954, .T. ) ;
#125307 = AXIS2_PLACEMENT_3D ( 'NONE', #68131, #206967, #298853 ) ;
#125551 = DIRECTION ( 'NONE',  ( 3.941291737419307296E-15, -1.000000000000000000, 2.775557561562892584E-17 ) ) ;
#125605 = CARTESIAN_POINT ( 'NONE',  ( 0.000000000000000000, 0.000000000000000000, 0.000000000000000000 ) ) ;
#125891 = ORIENTED_EDGE ( 'NONE', *, *, #167173, .F. ) ;
#126172 = CARTESIAN_POINT ( 'NONE',  ( 0.3710485627829251398, -6.060313056166019230, -7.502881498733157351 ) ) ;
#126198 = ORIENTED_EDGE ( 'NONE', *, *, #119011, .F. ) ;
#127273 = CARTESIAN_POINT ( 'NONE',  ( 0.8038475772926823026, -10.39230484541575628, 1.443289932012703503E-12 ) ) ;
#127532 = LINE ( 'NONE', #152391, #209021 ) ;
#127615 = FACE_OUTER_BOUND ( 'NONE', #196470, .T. ) ;
#127972 = CARTESIAN_POINT ( 'NONE',  ( 0.6759804689973378800, -10.17083251722769788, 0.3836013248877848114 ) ) ;
#128267 = CARTESIAN_POINT ( 'NONE',  ( 0.2208893471448364620, 9.120286237386867612, -2.203201152977032340 ) ) ;
#128493 = EDGE_LOOP ( 'NONE', ( #78907, #130064, #27795 ) ) ;
#128638 = CARTESIAN_POINT ( 'NONE',  ( 7.500000000000284217, -10.39230484541375787, -4.440892098500626162E-13 ) ) ;
#128655 = CARTESIAN_POINT ( 'NONE',  ( 36.53600000000034242, -2.220446049250313081E-12, -5.999999999998562039 ) ) ;
#128895 = DIRECTION ( 'NONE',  ( -1.927470528863118950E-15, -2.775557561562996738E-17, 1.000000000000000000 ) ) ;
#129446 = AXIS2_PLACEMENT_3D ( 'NONE', #36911, #180258, #128895 ) ;
#129533 = CARTESIAN_POINT ( 'NONE',  ( 0.2791760746982220320, -9.290523576893297886, 1.908237071464365497 ) ) ;
#129596 = CARTESIAN_POINT ( 'NONE',  ( 0.1881713888089927289, 2.444972998869284542, 8.999992020319362851 ) ) ;
#130064 = ORIENTED_EDGE ( 'NONE', *, *, #275004, .T. ) ;
#130551 = DIRECTION ( 'NONE',  ( 1.000000000000000000, 3.941291737419307296E-15, -1.887379141862766908E-15 ) ) ;
#130670 = CARTESIAN_POINT ( 'NONE',  ( 7.499999999999840128, 10.39230484541286970, 5.551115123125782702E-13 ) ) ;
#130824 = VERTEX_POINT ( 'NONE', #99053 ) ;
#130879 = CARTESIAN_POINT ( 'NONE',  ( 0.2469989350462740429, 6.389904413086726187, 6.932332058506721850 ) ) ;
#131052 = CARTESIAN_POINT ( 'NONE',  ( 0.01854417711406770863, -8.232897640945735063, 3.740381590702830383 ) ) ;
#131401 = VERTEX_POINT ( 'NONE', #97 ) ;
#132396 = CARTESIAN_POINT ( 'NONE',  ( 0.2208893471447244128, 6.468171286819731414, 6.796798994872927935 ) ) ;
#132680 = CARTESIAN_POINT ( 'NONE',  ( 0.01858793136961243986, 7.408987698009363854, -5.167154215849909527 ) ) ;
#132712 = VERTEX_POINT ( 'NONE', #82188 ) ;
#134179 = CARTESIAN_POINT ( 'NONE',  ( 0.09707738703769366873, 1.760986401543369606, 8.999960798523906291 ) ) ;
#134239 = CARTESIAN_POINT ( 'NONE',  ( 0.04676026485162515511, 7.188529880446979270, -5.549093558043081131 ) ) ;
#134463 = ORIENTED_EDGE ( 'NONE', *, *, #1093, .F. ) ;
#134895 = CARTESIAN_POINT ( 'NONE',  ( 37.49999999999964473, -8.881784197001252323E-13, 3.330669073875469621E-13 ) ) ;
#134963 = AXIS2_PLACEMENT_3D ( 'NONE', #149336, #244519, #105693 ) ;
#135036 = CARTESIAN_POINT ( 'NONE',  ( 8.100000000000218137, 1.221245327087672194E-12, -2.331468351712828735E-12 ) ) ;
#135220 = FACE_OUTER_BOUND ( 'NONE', #300754, .T. ) ;
#135387 = EDGE_CURVE ( 'NONE', #121886, #41187, #284996, .T. ) ;
#135389 = FACE_OUTER_BOUND ( 'NONE', #74189, .T. ) ;
#135777 = CARTESIAN_POINT ( 'NONE',  ( 0.004646982842430937531, 7.573955033673787085, -4.881420960285362654 ) ) ;
#135858 = DIRECTION ( 'NONE',  ( 1.000000000000000000, 3.941291737419307296E-15, -1.887379141862766908E-15 ) ) ;
#136159 = ORIENTED_EDGE ( 'NONE', *, *, #156894, .F. ) ;
#136830 = CARTESIAN_POINT ( 'NONE',  ( 0.01858793136953454037, -7.408987697992706956, 5.167154215873790868 ) ) ;
#136939 = ORIENTED_EDGE ( 'NONE', *, *, #188248, .F. ) ;
#137155 = CIRCLE ( 'NONE', #211972, 9.000000000000000000 ) ;
#137555 = DIRECTION ( 'NONE',  ( -1.000000000000000000, 3.941291737419307296E-15, 1.887379141862766908E-15 ) ) ;
#137637 = EDGE_LOOP ( 'NONE', ( #82233, #297976, #61106, #22556, #272043, #232068 ) ) ;
#138415 = EDGE_LOOP ( 'NONE', ( #136159, #225820, #69059, #203812, #109422, #255602 ) ) ;
#139429 = CIRCLE ( 'NONE', #159440, 9.000000000000000000 ) ;
#139535 = ORIENTED_EDGE ( 'NONE', *, *, #145722, .T. ) ;
#139757 = ORIENTED_EDGE ( 'NONE', *, *, #39965, .T. ) ;
#139962 = LINE ( 'NONE', #211697, #195330 ) ;
#140469 = CARTESIAN_POINT ( 'NONE',  ( 0.3728967865974679441, 3.476349146266036971, -8.999830290518076481 ) ) ;
#140481 = CARTESIAN_POINT ( 'NONE',  ( 0.01858793136959882228, 8.179380665217879098, 3.832794454844861587 ) ) ;
#141031 = CARTESIAN_POINT ( 'NONE',  ( 7.500000000000284217, -5.196152422705768714, -9.000000000001007194 ) ) ;
#142012 = CARTESIAN_POINT ( 'NONE',  ( 0.2490927351880678764, 2.820763222886740529, -8.999985964042618747 ) ) ;
#142273 = DIRECTION ( 'NONE',  ( 2.023844055306275075E-15, 2.775557561562996738E-17, -1.000000000000000000 ) ) ;
#142543 = DIRECTION ( 'NONE',  ( -1.000000000000000000, 3.941291737419307296E-15, 1.887379141862766908E-15 ) ) ;
#142648 = CARTESIAN_POINT ( 'NONE',  ( 0.03791467617815576924, -1.094032055911179135, -9.000074585772486202 ) ) ;
#142795 = CARTESIAN_POINT ( 'NONE',  ( 37.50000000000053291, -1.554312234475219157E-12, 5.036000000000484533 ) ) ;
#142900 = ORIENTED_EDGE ( 'NONE', *, *, #167173, .T. ) ;
#143268 = ORIENTED_EDGE ( 'NONE', *, *, #113324, .F. ) ;
#145722 = EDGE_CURVE ( 'NONE', #262037, #110891, #170522, .T. ) ;
#146081 = PRODUCT ( '\X2\04120438043d0442\X0\ \X2\041c\X0\12\X2\0445\X0\30 DIN 931', '\X2\04120438043d0442\X0\ \X2\041c\X0\12\X2\0445\X0\30 DIN 931', '', ( #209165 ) ) ;
#146293 = CARTESIAN_POINT ( 'NONE',  ( 6.899999999999906208, 8.999999999997898570, 4.440892098500626162E-13 ) ) ;
#146294 = VECTOR ( 'NONE', #170965, 1000.000000000000000 ) ;
#146797 = FACE_OUTER_BOUND ( 'NONE', #79289, .T. ) ;
#147982 = CARTESIAN_POINT ( 'NONE',  ( 0.3088636966990708221, -6.218771872010139035, -7.228578352602321289 ) ) ;
#148157 = ORIENTED_EDGE ( 'NONE', *, *, #102408, .T. ) ;
#148660 = B_SPLINE_CURVE_WITH_KNOTS ( 'NONE', 3,
 ( #123667, #248312, #101823, #175039, #151592, #196940, #58119, #290413, #295007, #153113, #128267, #223352, #268595, #55048, #106415, #291945, #170439, #200073, #288902, #218752 ),
 .UNSPECIFIED., .F., .F.,
 ( 4, 2, 2, 1, 1, 2, 2, 2, 2, 2, 4 ),
 ( 0.000000000000000000, 0.2499999999999906186, 0.3749999999999861777, 0.4374999999999842348, 0.4687499999999836242, 0.4843749999999837352, 0.4999999999999837907, 0.6249999999999880096, 0.6874999999999901190, 0.7499999999999921174, 1.000000000000000000 ),
 .UNSPECIFIED. ) ;
#149055 = CARTESIAN_POINT ( 'NONE',  ( 6.899999999999906208, 5.196152422704547469, 9.000000000001895373 ) ) ;
#149336 = CARTESIAN_POINT ( 'NONE',  ( 0.000000000000000000, 0.000000000000000000, 0.000000000000000000 ) ) ;
#149403 = ORIENTED_EDGE ( 'NONE', *, *, #274878, .F. ) ;
#149604 = CARTESIAN_POINT ( 'NONE',  ( 0.1810318972729415277, 6.591457080742267216, 6.583259074621582663 ) ) ;
#149753 = CARTESIAN_POINT ( 'NONE',  ( 0.000000000000000000, 9.992007221626408864E-13, 8.999999999999230837 ) ) ;
#150044 = DIRECTION ( 'NONE',  ( -1.000000000000000000, 3.941291737419307296E-15, 1.887379141862766908E-15 ) ) ;
#150604 = DIRECTION ( 'NONE',  ( -1.887379141862766119E-15, -2.775557561562891351E-17, 1.000000000000000000 ) ) ;
#151042 = CARTESIAN_POINT ( 'NONE',  ( 0.6759804690053244913, -5.417624750878493600, -8.616398675135833685 ) ) ;
#151095 = AXIS2_PLACEMENT_3D ( 'NONE', #266319, #29370, #6009 ) ;
#151369 = AXIS2_PLACEMENT_3D ( 'NONE', #118563, #28066, #96737 ) ;
#151454 = ORIENTED_EDGE ( 'NONE', *, *, #202025, .T. ) ;
#151592 = CARTESIAN_POINT ( 'NONE',  ( 0.3710485627867660674, 9.527842507578338171, -1.496944312150339185 ) ) ;
#152391 = CARTESIAN_POINT ( 'NONE',  ( 7.499999999999840128, 5.196152422704880536, 9.000000000002117417 ) ) ;
#152640 = CARTESIAN_POINT ( 'NONE',  ( 0.8038475772931263919, 5.196152422704658491, 9.000000000001895373 ) ) ;
#152651 = ORIENTED_EDGE ( 'NONE', *, *, #247047, .T. ) ;
#152885 = CARTESIAN_POINT ( 'NONE',  ( 0.000000000000000000, 9.992007221626408864E-13, 8.999999999999230837 ) ) ;
#153113 = CARTESIAN_POINT ( 'NONE',  ( 0.2250103383484910735, 9.132852793926561574, -2.181433018258784884 ) ) ;
#153853 = VERTEX_POINT ( 'NONE', #47465 ) ;
#153869 = VERTEX_POINT ( 'NONE', #95833 ) ;
#154448 = EDGE_CURVE ( 'NONE', #114972, #41187, #163778, .T. ) ;
#154503 = CARTESIAN_POINT ( 'NONE',  ( 0.000000000000000000, 0.000000000000000000, 0.000000000000000000 ) ) ;
#155712 = B_SPLINE_CURVE_WITH_KNOTS ( 'NONE', 3,
 ( #192852, #217773, #99332, #194438, #289455, #75972, #21447, #260007, #124224, #197506, #83556, #32204, #11870, #57123, #297086, #223917, #199074, #178612, #127273 ),
 .UNSPECIFIED., .F., .F.,
 ( 4, 2, 1, 2, 2, 2, 1, 1, 2, 2, 4 ),
 ( 0.000000000000000000, 0.1250000000000005274, 0.1875000000000007772, 0.2187500000000009159, 0.2500000000000010547, 0.3750000000000011102, 0.4375000000000011657, 0.4687500000000014433, 0.4843750000000013323, 0.5000000000000012212, 1.000000000000000000 ),
 .UNSPECIFIED. ) ;
#155730 = CARTESIAN_POINT ( 'NONE',  ( 0.3088636967070066963, 6.218771872002577084, 7.228578352626944259 ) ) ;
#155911 = CARTESIAN_POINT ( 'NONE',  ( 0.2469989350397239214, -9.198527876664563507, 2.067653520248783572 ) ) ;
#155972 = CARTESIAN_POINT ( 'NONE',  ( 0.04684830412562030616, 1.216058567705780025, 9.000000605110821894 ) ) ;
#156231 = ORIENTED_EDGE ( 'NONE', *, *, #20796, .F. ) ;
#156894 = EDGE_CURVE ( 'NONE', #228962, #214583, #160202, .T. ) ;
#157847 = FACE_OUTER_BOUND ( 'NONE', #249531, .T. ) ;
#158073 = DIRECTION ( 'NONE',  ( 0.000000000000000000, 0.000000000000000000, 1.000000000000000000 ) ) ;
#158649 = CARTESIAN_POINT ( 'NONE',  ( 0.1868488840565311060, -6.576116522920810503, 6.609816411494371380 ) ) ;
#159142 = CARTESIAN_POINT ( 'NONE',  ( 0.09651001954873555944, 6.916329827717030199, -6.020488371067017397 ) ) ;
#159440 = AXIS2_PLACEMENT_3D ( 'NONE', #94264, #142543, #237635 ) ;
#160202 = CIRCLE ( 'NONE', #125307, 9.000000000000000000 ) ;
#160578 = DIRECTION ( 'NONE',  ( -1.000000000000000000, 3.941291737419307296E-15, 1.887379141862766908E-15 ) ) ;
#160748 = CONICAL_SURFACE ( 'NONE', #41286, 9.000000000000000000, 1.047197551196598297 ) ;
#161179 = EDGE_CURVE ( 'NONE', #153853, #108961, #256603, .T. ) ;
#161728 = CARTESIAN_POINT ( 'NONE',  ( 37.49999999999964473, -8.881784197001252323E-13, 3.330669073875469621E-13 ) ) ;
#161806 = PLANE ( 'NONE',  #59278 ) ;
#161941 = CONICAL_SURFACE ( 'NONE', #201889, 9.000000000000000000, 1.047197551196598297 ) ;
#162102 = ORIENTED_EDGE ( 'NONE', *, *, #211068, .F. ) ;
#163600 = ORIENTED_EDGE ( 'NONE', *, *, #161179, .T. ) ;
#163707 = ORIENTED_EDGE ( 'NONE', *, *, #63198, .T. ) ;
#163778 = CIRCLE ( 'NONE', #4496, 9.000000000000000000 ) ;
#163812 = CARTESIAN_POINT ( 'NONE',  ( 0.4179626609437672724, 3.687344465272687888, -8.999797566645460378 ) ) ;
#163825 = CARTESIAN_POINT ( 'NONE',  ( 0.03862804487742396709, 8.344680824304349542, 3.546559231396269052 ) ) ;
#163938 = EDGE_LOOP ( 'NONE', ( #106372, #139757 ) ) ;
#164102 = EDGE_LOOP ( 'NONE', ( #223405, #248960, #188168, #40312, #112372, #217676 ) ) ;
#164235 = CARTESIAN_POINT ( 'NONE',  ( 6.899999999999906208, 10.39230484541286970, -3.330669073875469621E-13 ) ) ;
#164377 = EDGE_CURVE ( 'NONE', #223500, #114420, #78379, .T. ) ;
#164539 = CARTESIAN_POINT ( 'NONE',  ( 6.900000000000350298, -5.196152422706101781, -9.000000000000785150 ) ) ;
#164830 = CARTESIAN_POINT ( 'NONE',  ( 7.499999999999840128, 1.110223024625156540E-13, 2.220446049250313081E-13 ) ) ;
#165525 = ORIENTED_EDGE ( 'NONE', *, *, #219669, .T. ) ;
#165957 = CARTESIAN_POINT ( 'NONE',  ( 0.8038475772926823026, -10.39230484541575628, 1.443289932012703503E-12 ) ) ;
#166007 = ORIENTED_EDGE ( 'NONE', *, *, #211188, .T. ) ;
#166414 = CIRCLE ( 'NONE', #71902, 9.000000000000000000 ) ;
#166916 = CARTESIAN_POINT ( 'NONE',  ( 1.869561709702500239E-14, 0.4424717251380067551, -9.000000000000000000 ) ) ;
#166931 = CARTESIAN_POINT ( 'NONE',  ( 0.2127516646883936269, 9.095128606571769581, 2.246775434828795159 ) ) ;
#167173 = EDGE_CURVE ( 'NONE', #28670, #105970, #248442, .T. ) ;
#167288 = VECTOR ( 'NONE', #98701, 999.9999999999998863 ) ;
#167702 = CARTESIAN_POINT ( 'NONE',  ( 6.900000000000350298, -5.196152422706101781, -9.000000000000785150 ) ) ;
#167796 = CARTESIAN_POINT ( 'NONE',  ( 0.000000000000000000, 0.000000000000000000, 0.000000000000000000 ) ) ;
#168186 = DIRECTION ( 'NONE',  ( -2.312964634635742661E-15, -2.775557561562996738E-17, 1.000000000000000000 ) ) ;
#168373 = CARTESIAN_POINT ( 'NONE',  ( 0.1810318972606955734, -6.591457080789748346, -6.583259074546839784 ) ) ;
#168463 = CARTESIAN_POINT ( 'NONE',  ( 0.06535539313181619459, 1.436121485592499747, -9.000000614594075188 ) ) ;
#168728 = CARTESIAN_POINT ( 'NONE',  ( 8.100000000000218137, 1.221245327087672194E-12, -2.331468351712828735E-12 ) ) ;
#168873 = VECTOR ( 'NONE', #243467, 1000.000000000000000 ) ;
#169903 = CARTESIAN_POINT ( 'NONE',  ( 0.06490461989936267828, -7.079011735762137825, -5.738967565640526125 ) ) ;
#170066 = PLANE ( 'NONE',  #94183 ) ;
#170141 = CARTESIAN_POINT ( 'NONE',  ( -1.872658085698573381E-14, -0.4383221418042740347, 8.999999999999996447 ) ) ;
#170439 = CARTESIAN_POINT ( 'NONE',  ( 0.06490461989941859189, 8.509597571208436406, -3.261120214068806256 ) ) ;
#170522 = LINE ( 'NONE', #195498, #18186 ) ;
#170965 = DIRECTION ( 'NONE',  ( 3.885780586188049469E-15, -1.000000000000000000, -8.326672684688677751E-17 ) ) ;
#171255 = CARTESIAN_POINT ( 'NONE',  ( 36.53599999999990189, -1.443289932012703503E-12, -2.220446049250313081E-13 ) ) ;
#172326 = PLANE ( 'NONE',  #267260 ) ;
#172898 = ORIENTED_EDGE ( 'NONE', *, *, #115153, .F. ) ;
#172952 = ORIENTED_EDGE ( 'NONE', *, *, #266340, .F. ) ;
#173154 = CARTESIAN_POINT ( 'NONE',  ( 0.2242826940610046504, -2.673221085079181769, 9.000000295789536864 ) ) ;
#173727 = DIRECTION ( 'NONE',  ( 1.000000000000000000, -3.941291737419307296E-15, -1.887379141862766908E-15 ) ) ;
#173962 = LINE ( 'NONE', #1094, #16089 ) ;
#174048 = FACE_OUTER_BOUND ( 'NONE', #138415, .T. ) ;
#174155 = CIRCLE ( 'NONE', #129446, 9.000000000000000000 ) ;
#174511 = VECTOR ( 'NONE', #176150, 1000.000000000000114 ) ;
#174730 = CARTESIAN_POINT ( 'NONE',  ( 0.07432360061109258287, -1.530933804269061227, 9.000075893787098380 ) ) ;
#174794 = CIRCLE ( 'NONE', #134963, 9.000000000000000000 ) ;
#174817 = CARTESIAN_POINT ( 'NONE',  ( 0.000000000000000000, 0.000000000000000000, 0.000000000000000000 ) ) ;
#175039 = CARTESIAN_POINT ( 'NONE',  ( 0.4162513029688083566, 9.633843136186296618, -1.313278697043977150 ) ) ;
#175444 = DIRECTION ( 'NONE',  ( 1.000000000000000000, -3.941291737419307296E-15, -1.887379141862766908E-15 ) ) ;
#175466 = B_SPLINE_CURVE_WITH_KNOTS ( 'NONE', 3,
 ( #152885, #34513, #110800, #248074, #227720, #109272, #155972, #182461, #134179, #224678, #11099, #129596, #87423, #199836, #84325, #81283, #176303, #82806 ),
 .UNSPECIFIED., .F., .F.,
 ( 4, 2, 2, 2, 2, 1, 1, 2, 2, 4 ),
 ( 0.000000000000000000, 0.1249999999999999445, 0.1874999999999999167, 0.2499999999999998890, 0.3749999999999998335, 0.4374999999999998335, 0.4687499999999998890, 0.4843749999999998890, 0.4999999999999998890, 1.000000000000000000 ),
 .UNSPECIFIED. ) ;
#176070 = CARTESIAN_POINT ( 'NONE',  ( 0.1499151242526152172, 6.700298750105829093, 6.394709648488530185 ) ) ;
#176150 = DIRECTION ( 'NONE',  ( 3.330669073875471100E-16, -0.5000000000000004441, 0.8660254037844383745 ) ) ;
#176303 = CARTESIAN_POINT ( 'NONE',  ( 0.5494437528578354213, 4.314871723582295537, 8.999999999999991118 ) ) ;
#176311 = DIRECTION ( 'NONE',  ( 1.887379141862766119E-15, 2.775557561562891351E-17, -1.000000000000000000 ) ) ;
#177447 = ORIENTED_EDGE ( 'NONE', *, *, #204844, .T. ) ;
#177558 = ORIENTED_EDGE ( 'NONE', *, *, #219669, .F. ) ;
#177595 = CARTESIAN_POINT ( 'NONE',  ( 0.000000000000000000, 7.794228634061206584, 4.499999999999171330 ) ) ;
#177974 = PLANE ( 'NONE',  #50344 ) ;
#178612 = CARTESIAN_POINT ( 'NONE',  ( 0.5484429003946297287, -9.949930968533998055, -0.7662140306959239755 ) ) ;
#179296 = ORIENTED_EDGE ( 'NONE', *, *, #203430, .F. ) ;
#179335 = CARTESIAN_POINT ( 'NONE',  ( 0.000000000000000000, -7.794228634059541250, 4.499999999999504396 ) ) ;
#179454 = AXIS2_PLACEMENT_3D ( 'NONE', #242520, #119424, #220653 ) ;
#179850 = B_SPLINE_CURVE_WITH_KNOTS ( 'NONE', 3,
 ( #87485, #110857, #135777, #132680, #36114, #84384, #134239, #276086, #62554, #159142, #273027, #180994, #206027, #59470, #227780, #297889, #182522, #12677, #11163 ),
 .UNSPECIFIED., .F., .F.,
 ( 4, 2, 1, 2, 2, 2, 1, 1, 2, 2, 4 ),
 ( 0.000000000000000000, 0.1249999999999991673, 0.1874999999999988620, 0.2187499999999989175, 0.2499999999999990008, 0.3749999999999987232, 0.4374999999999984457, 0.4687499999999981681, 0.4843749999999983347, 0.4999999999999984457, 1.000000000000000000 ),
 .UNSPECIFIED. ) ;
#179939 = DIRECTION ( 'NONE',  ( 1.000000000000000000, 0.000000000000000000, 0.000000000000000000 ) ) ;
#180258 = DIRECTION ( 'NONE',  ( -1.000000000000000000, 3.941291737419307296E-15, 1.887379141862766908E-15 ) ) ;
#180646 = ORIENTED_EDGE ( 'NONE', *, *, #262566, .F. ) ;
#180759 = EDGE_CURVE ( 'NONE', #23412, #153853, #101270, .T. ) ;
#180994 = CARTESIAN_POINT ( 'NONE',  ( 0.1585969671820255944, 6.671705943557518559, -6.444214812316134910 ) ) ;
#181377 = ORIENTED_EDGE ( 'NONE', *, *, #294373, .T. ) ;
#181475 = ORIENTED_EDGE ( 'NONE', *, *, #109212, .T. ) ;
#181493 = ADVANCED_FACE ( 'NONE', ( #225113 ), #108181, .F. ) ;
#182058 = FACE_OUTER_BOUND ( 'NONE', #227810, .T. ) ;
#182292 = LINE ( 'NONE', #211884, #56858 ) ;
#182461 = CARTESIAN_POINT ( 'NONE',  ( 0.07436011694475232192, 1.543206708589335507, 8.999998789778352659 ) ) ;
#182522 = CARTESIAN_POINT ( 'NONE',  ( 0.3528258199857712829, 6.060535048837005334, -7.502836325290691555 ) ) ;
#183694 = FACE_OUTER_BOUND ( 'NONE', #290325, .T. ) ;
#183819 = EDGE_LOOP ( 'NONE', ( #13379, #224601, #271845 ) ) ;
#184507 = DIRECTION ( 'NONE',  ( -3.941291737419307296E-15, 1.000000000000000000, -2.775557561562892584E-17 ) ) ;
#184742 = ORIENTED_EDGE ( 'NONE', *, *, #196100, .F. ) ;
#185255 = DIRECTION ( 'NONE',  ( -1.887379141862766119E-15, -2.775557561562891351E-17, 1.000000000000000000 ) ) ;
#185339 = ORIENTED_EDGE ( 'NONE', *, *, #199380, .T. ) ;
#185519 = CONICAL_SURFACE ( 'NONE', #300037, 9.000000000000000000, 1.047197551196598297 ) ;
#185693 = VECTOR ( 'NONE', #160578, 1000.000000000000000 ) ;
#186569 = TOROIDAL_SURFACE ( 'NONE', #206680, 6.599999999999999645, 0.5999999999999999778 ) ;
#186791 = DIRECTION ( 'NONE',  ( 1.887379141862766119E-15, 2.775557561562891351E-17, -1.000000000000000000 ) ) ;
#187034 = CARTESIAN_POINT ( 'NONE',  ( 7.499999999999840128, 1.110223024625156540E-13, 2.220446049250313081E-13 ) ) ;
#188168 = ORIENTED_EDGE ( 'NONE', *, *, #294373, .F. ) ;
#188248 = EDGE_CURVE ( 'NONE', #114972, #10082, #69102, .T. ) ;
#188491 = LINE ( 'NONE', #211921, #45297 ) ;
#188657 = CONICAL_SURFACE ( 'NONE', #54220, 5.035999999999999588, 0.7853981633974447263 ) ;
#188800 = CARTESIAN_POINT ( 'NONE',  ( 0.004646982842415769109, 8.014412075026303484, 4.118526986107816867 ) ) ;
#189118 = CONICAL_SURFACE ( 'NONE', #224027, 5.035999999999999588, 0.7853981633974447263 ) ;
#189355 = ADVANCED_FACE ( 'NONE', ( #40256 ), #278701, .T. ) ;
#189774 = DIRECTION ( 'NONE',  ( 1.000000000000000000, -3.941291737419307296E-15, -1.887379141862766908E-15 ) ) ;
#190345 = CARTESIAN_POINT ( 'NONE',  ( 0.1368181550399385771, 8.835068756723373440, 2.697138010101914229 ) ) ;
#190981 = CARTESIAN_POINT ( 'NONE',  ( 0.1573766845317923491, -2.236170397162356327, -8.999991533794016618 ) ) ;
#191361 = CARTESIAN_POINT ( 'NONE',  ( 37.49999999999964473, -2.442490654175344389E-12, -5.035999999999041243 ) ) ;
#191515 = CARTESIAN_POINT ( 'NONE',  ( 6.899999999999906208, 5.196152422705213603, -9.000000000000230926 ) ) ;
#191772 = CARTESIAN_POINT ( 'NONE',  ( 0.2469989350429955266, -6.389904413089436019, -6.932332058496529115 ) ) ;
#192713 = CARTESIAN_POINT ( 'NONE',  ( 8.100000000000218137, 1.221245327087672194E-12, -2.331468351712828735E-12 ) ) ;
#192852 = CARTESIAN_POINT ( 'NONE',  ( 0.000000000000000000, -7.794228634059319205, -4.500000000000614619 ) ) ;
#193161 = DIRECTION ( 'NONE',  ( -1.887379141862766119E-15, -2.775557561562891351E-17, 1.000000000000000000 ) ) ;
#193536 = CARTESIAN_POINT ( 'NONE',  ( 0.6756591016949831108, -4.752094517344366054, 8.999999999999991118 ) ) ;
#193717 = CARTESIAN_POINT ( 'NONE',  ( 7.499999999999840128, 1.110223024625156540E-13, 2.220446049250313081E-13 ) ) ;
#193955 = ADVANCED_FACE ( 'NONE', ( #51110 ), #244404, .F. ) ;
#194209 = VECTOR ( 'NONE', #83854, 1000.000000000000000 ) ;
#194438 = CARTESIAN_POINT ( 'NONE',  ( 0.01858793136955148861, -8.179380665215026269, -3.832794454850953603 ) ) ;
#194694 = PLANE ( 'NONE',  #151095 ) ;
#194741 = CARTESIAN_POINT ( 'NONE',  ( 0.000000000000000000, 0.000000000000000000, 0.000000000000000000 ) ) ;
#194886 = CARTESIAN_POINT ( 'NONE',  ( -2.062186413385319605E-14, -7.574076856695490356, -4.881314063771826639 ) ) ;
#194915 = EDGE_LOOP ( 'NONE', ( #181475, #202657, #136939 ) ) ;
#195245 = ORIENTED_EDGE ( 'NONE', *, *, #1093, .T. ) ;
#195330 = VECTOR ( 'NONE', #284836, 1000.000000000000000 ) ;
#195498 = CARTESIAN_POINT ( 'NONE',  ( 6.900000000000350298, -5.196152422706101781, -9.000000000000785150 ) ) ;
#195942 = ADVANCED_FACE ( 'NONE', ( #262108 ), #170066, .T. ) ;
#195979 = DIRECTION ( 'NONE',  ( -0.7071067811865334729, 0.000000000000000000, -0.7071067811865617836 ) ) ;
#196100 = EDGE_CURVE ( 'NONE', #100766, #9784, #57733, .T. ) ;
#196403 = ORIENTED_EDGE ( 'NONE', *, *, #222616, .T. ) ;
#196470 = EDGE_LOOP ( 'NONE', ( #139535, #15772, #33712 ) ) ;
#196940 = CARTESIAN_POINT ( 'NONE',  ( 0.3088636967018842383, 9.369518422611060160, -1.771325245193160924 ) ) ;
#197506 = CARTESIAN_POINT ( 'NONE',  ( 0.09651001955306900970, -8.672060786406037280, -2.979473146202186840 ) ) ;
#197569 = EDGE_CURVE ( 'NONE', #19275, #223500, #280152, .T. ) ;
#197647 = CARTESIAN_POINT ( 'NONE',  ( 7.499999999999840128, 5.196152422704880536, 9.000000000002117417 ) ) ;
#198024 = CARTESIAN_POINT ( 'NONE',  ( 0.5630980118989925565, 5.633970318981890379, 8.241292752090481954 ) ) ;
#198052 = CARTESIAN_POINT ( 'NONE',  ( 0.8038475772931263919, 5.196152422705102580, -8.999999999999452882 ) ) ;
#198114 = ORIENTED_EDGE ( 'NONE', *, *, #227203, .F. ) ;
#198242 = CARTESIAN_POINT ( 'NONE',  ( 6.899999999999906208, 8.999999999997898570, 4.440892098500626162E-13 ) ) ;
#198341 = DIRECTION ( 'NONE',  ( 1.887379141862766119E-15, 2.775557561562891351E-17, -1.000000000000000000 ) ) ;
#198921 = DIRECTION ( 'NONE',  ( 1.000000000000000000, -3.941291737419307296E-15, -1.887379141862766908E-15 ) ) ;
#199043 = DIRECTION ( 'NONE',  ( 1.887379141862766119E-15, 2.775557561562891351E-17, -1.000000000000000000 ) ) ;
#199074 = CARTESIAN_POINT ( 'NONE',  ( 0.3528258199837173703, -9.527914382552317818, -1.497159150177881370 ) ) ;
#199336 = DIRECTION ( 'NONE',  ( -1.000000000000000000, 3.941291737419307296E-15, 1.887379141862766908E-15 ) ) ;
#199380 = EDGE_CURVE ( 'NONE', #303697, #220337, #265293, .T. ) ;
#199394 = ORIENTED_EDGE ( 'NONE', *, *, #106318, .T. ) ;
#199433 = CARTESIAN_POINT ( 'NONE',  ( 6.899999999999906208, 8.999999999997898570, 4.440892098500626162E-13 ) ) ;
#199593 = CARTESIAN_POINT ( 'NONE',  ( 0.06490461989939592946, 7.079011735781314485, 5.738967565616271749 ) ) ;
#199777 = CARTESIAN_POINT ( 'NONE',  ( 0.3710485627719844470, -9.527842507546711914, 1.496944312186617276 ) ) ;
#199836 = CARTESIAN_POINT ( 'NONE',  ( 0.2096859105157266590, 2.582629542713153814, 8.999999501899688781 ) ) ;
#200073 = CARTESIAN_POINT ( 'NONE',  ( 0.01854417711414633671, 8.232897640955743057, -3.740381590677618551 ) ) ;
#200447 = FACE_OUTER_BOUND ( 'NONE', #51378, .T. ) ;
#200607 = DIRECTION ( 'NONE',  ( -1.000000000000000000, 3.941291737419307296E-15, 1.887379141862766908E-15 ) ) ;
#200753 = ORIENTED_EDGE ( 'NONE', *, *, #135387, .F. ) ;
#201889 = AXIS2_PLACEMENT_3D ( 'NONE', #154503, #6577, #198341 ) ;
#202025 = EDGE_CURVE ( 'NONE', #9784, #114420, #166414, .T. ) ;
#202657 = ORIENTED_EDGE ( 'NONE', *, *, #19448, .T. ) ;
#202867 = DIRECTION ( 'NONE',  ( 1.887379141862766119E-15, 2.775557561562891351E-17, -1.000000000000000000 ) ) ;
#203430 = EDGE_CURVE ( 'NONE', #108961, #246369, #179850, .T. ) ;
#203684 = EDGE_CURVE ( 'NONE', #132712, #23412, #258364, .T. ) ;
#203812 = ORIENTED_EDGE ( 'NONE', *, *, #202025, .F. ) ;
#204506 = EDGE_CURVE ( 'NONE', #19275, #262037, #292301, .T. ) ;
#204844 = EDGE_CURVE ( 'NONE', #286344, #46278, #123598, .T. ) ;
#205542 = DIRECTION ( 'NONE',  ( 1.887379141862766119E-15, 2.775557561562891351E-17, -1.000000000000000000 ) ) ;
#205901 = CARTESIAN_POINT ( 'NONE',  ( 0.1810318972671354776, -8.996998138663713007, 2.416739742623614795 ) ) ;
#206027 = CARTESIAN_POINT ( 'NONE',  ( 0.1868488840538946871, 6.576116522930156805, -6.609816411478502296 ) ) ;
#206680 = AXIS2_PLACEMENT_3D ( 'NONE', #192713, #198921, #25931 ) ;
#206967 = DIRECTION ( 'NONE',  ( 1.000000000000000000, -3.941291737419307296E-15, -1.887379141862766908E-15 ) ) ;
#207179 = DIRECTION ( 'NONE',  ( -1.887379141862766908E-15, 2.775557561563404727E-17, -1.000000000000000000 ) ) ;
#207444 = DIRECTION ( 'NONE',  ( 1.839858232096613812E-15, 2.775557561562772714E-17, -1.000000000000000000 ) ) ;
#208615 = CARTESIAN_POINT ( 'NONE',  ( 0.1368181550419491077, -6.753324412603375571, 6.302824982479511284 ) ) ;
#208696 = CYLINDRICAL_SURFACE ( 'NONE', #258156, 6.000000000000000000 ) ;
#208824 = AXIS2_PLACEMENT_3D ( 'NONE', #58642, #200607, #150604 ) ;
#209021 = VECTOR ( 'NONE', #199336, 1000.000000000000000 ) ;
#209165 = PRODUCT_CONTEXT ( 'NONE', #24991, 'mechanical' ) ;
#209191 = CARTESIAN_POINT ( 'NONE',  ( 0.3108577484405610214, 3.161159399698343808, -8.999906091984174239 ) ) ;
#209207 = CARTESIAN_POINT ( 'NONE',  ( 0.09651001955196558679, 8.672060786397489451, 2.979473146220875002 ) ) ;
#210309 = APPLICATION_CONTEXT ( 'automotive_design' ) ;
#210323 = DIRECTION ( 'NONE',  ( -1.927470528863118950E-15, -2.775557561562996738E-17, 1.000000000000000000 ) ) ;
#210339 = ADVANCED_FACE ( 'NONE', ( #292299 ), #249187, .T. ) ;
#211068 = EDGE_CURVE ( 'NONE', #81768, #74690, #188491, .T. ) ;
#211188 = EDGE_CURVE ( 'NONE', #108961, #10082, #174794, .T. ) ;
#211654 = CARTESIAN_POINT ( 'NONE',  ( 0.004646982842353555854, -7.573955033658043234, 4.881420960309784007 ) ) ;
#211697 = CARTESIAN_POINT ( 'NONE',  ( 7.499999999999840128, -5.196152422707323026, 8.999999999999896971 ) ) ;
#211884 = CARTESIAN_POINT ( 'NONE',  ( 0.000000000000000000, 9.992007221626408864E-13, 8.999999999999230837 ) ) ;
#211921 = CARTESIAN_POINT ( 'NONE',  ( 6.899999999999906208, 5.196152422704547469, 9.000000000001895373 ) ) ;
#211972 = AXIS2_PLACEMENT_3D ( 'NONE', #305262, #214896, #210323 ) ;
#212227 = CARTESIAN_POINT ( 'NONE',  ( 0.000000000000000000, 7.794228634061206584, 4.499999999999171330 ) ) ;
#212346 = FACE_OUTER_BOUND ( 'NONE', #201, .T. ) ;
#212856 = CARTESIAN_POINT ( 'NONE',  ( 0.01838287329850759114, -0.7654009275768860476, -9.000010165763693948 ) ) ;
#213042 = PRODUCT_DEFINITION_CONTEXT ( 'detailed design', #210309, 'design' ) ;
#213211 = CARTESIAN_POINT ( 'NONE',  ( 6.899999999999906208, -1.110223024625156540E-13, -6.661338147750939243E-13 ) ) ;
#213802 = ORIENTED_EDGE ( 'NONE', *, *, #225179, .T. ) ;
#214583 = VERTEX_POINT ( 'NONE', #239093 ) ;
#214667 = DIRECTION ( 'NONE',  ( -3.941291737419307296E-15, 1.000000000000000000, -2.775557561562892584E-17 ) ) ;
#214896 = DIRECTION ( 'NONE',  ( -1.000000000000000000, 3.941291737419307296E-15, 1.887379141862766908E-15 ) ) ;
#214983 = DIRECTION ( 'NONE',  ( 3.885780586188049469E-15, -1.000000000000000000, -8.326672684688677751E-17 ) ) ;
#215274 = CARTESIAN_POINT ( 'NONE',  ( 0.2812281727027431955, 3.003888725206517396, -8.999949325600601568 ) ) ;
#215287 = CARTESIAN_POINT ( 'NONE',  ( 0.5484429003835968874, 9.949930968514754781, 0.7662140307292670816 ) ) ;
#216130 = DIRECTION ( 'NONE',  ( -1.000000000000000000, 3.941291737419307296E-15, 1.887379141862766908E-15 ) ) ;
#216595 = VECTOR ( 'NONE', #50769, 1000.000000000000000 ) ;
#217367 = DIRECTION ( 'NONE',  ( -1.000000000000000000, 3.941291737419307296E-15, 1.887379141862766908E-15 ) ) ;
#217467 = VECTOR ( 'NONE', #100872, 1000.000000000000000 ) ;
#217676 = ORIENTED_EDGE ( 'NONE', *, *, #211188, .F. ) ;
#217773 = CARTESIAN_POINT ( 'NONE',  ( -2.302235550637207570E-14, -7.904583922719057298, -4.308859033158491059 ) ) ;
#218016 = ORIENTED_EDGE ( 'NONE', *, *, #238902, .F. ) ;
#218416 = VERTEX_POINT ( 'NONE', #118063 ) ;
#218445 = CARTESIAN_POINT ( 'NONE',  ( 0.01838287329847052703, -0.8732981700408233294, 9.000095223580119708 ) ) ;
#218559 = ORIENTED_EDGE ( 'NONE', *, *, #109212, .F. ) ;
#218752 = CARTESIAN_POINT ( 'NONE',  ( 0.000000000000000000, 7.794228634059985339, -4.499999999999948486 ) ) ;
#219669 = EDGE_CURVE ( 'NONE', #79901, #30583, #269201, .T. ) ;
#219997 = CARTESIAN_POINT ( 'NONE',  ( 0.1801129662431767697, -2.399366906635430841, 8.999998816841817018 ) ) ;
#220337 = VERTEX_POINT ( 'NONE', #232800 ) ;
#220653 = DIRECTION ( 'NONE',  ( 1.887379141862766119E-15, 2.775557561562891351E-17, -1.000000000000000000 ) ) ;
#220895 = CIRCLE ( 'NONE', #86487, 5.035999999999999588 ) ;
#221644 = EDGE_CURVE ( 'NONE', #246369, #153853, #6260, .T. ) ;
#222079 = ORIENTED_EDGE ( 'NONE', *, *, #41264, .T. ) ;
#222616 = EDGE_CURVE ( 'NONE', #99482, #114972, #65359, .T. ) ;
#223062 = CARTESIAN_POINT ( 'NONE',  ( 0.5630980118751808261, -9.954154042779595812, 0.7585150444257888758 ) ) ;
#223352 = CARTESIAN_POINT ( 'NONE',  ( 0.1810318972723084785, 8.996998138683743207, -2.416739742578842165 ) ) ;
#223405 = ORIENTED_EDGE ( 'NONE', *, *, #161179, .F. ) ;
#223500 = VERTEX_POINT ( 'NONE', #236826 ) ;
#223726 = CARTESIAN_POINT ( 'NONE',  ( 8.100000000000218137, 1.332267629550187849E-12, -6.600000000002714806 ) ) ;
#223731 = DIRECTION ( 'NONE',  ( -1.000000000000000000, 3.941291737419307296E-15, 1.887379141862766908E-15 ) ) ;
#223917 = CARTESIAN_POINT ( 'NONE',  ( 0.2127516646879873408, -9.095128606570961338, -2.246775434829582974 ) ) ;
#224027 = AXIS2_PLACEMENT_3D ( 'NONE', #134895, #281333, #14891 ) ;
#224601 = ORIENTED_EDGE ( 'NONE', *, *, #180759, .T. ) ;
#224678 = CARTESIAN_POINT ( 'NONE',  ( 0.1377173844973856587, 2.088674339419978043, 8.999962298294869711 ) ) ;
#225113 = FACE_OUTER_BOUND ( 'NONE', #164102, .T. ) ;
#225130 = ORIENTED_EDGE ( 'NONE', *, *, #23203, .T. ) ;
#225179 = EDGE_CURVE ( 'NONE', #46278, #303697, #233076, .T. ) ;
#225357 = ORIENTED_EDGE ( 'NONE', *, *, #266340, .T. ) ;
#225631 = AXIS2_PLACEMENT_3D ( 'NONE', #99301, #2677, #199043 ) ;
#225820 = ORIENTED_EDGE ( 'NONE', *, *, #119011, .T. ) ;
#226153 = AXIS2_PLACEMENT_3D ( 'NONE', #246739, #150044, #39320 ) ;
#227203 = EDGE_CURVE ( 'NONE', #214583, #228962, #58369, .T. ) ;
#227267 = LINE ( 'NONE', #130670, #194209 ) ;
#227486 = CARTESIAN_POINT ( 'NONE',  ( 0.1097080716873469058, 6.863192177928785220, 6.112635268975750158 ) ) ;
#227720 = CARTESIAN_POINT ( 'NONE',  ( 0.02450827242440727777, 0.8824421064880104693, 8.999958296455401907 ) ) ;
#227780 = CARTESIAN_POINT ( 'NONE',  ( 0.2081796852942685849, 6.507651301788919262, -6.728416335436257611 ) ) ;
#227810 = EDGE_LOOP ( 'NONE', ( #196403, #271257, #112319 ) ) ;
#228015 = CARTESIAN_POINT ( 'NONE',  ( 6.900000000000350298, -7.794228634060429428, -4.500000000000725642 ) ) ;
#228125 = CARTESIAN_POINT ( 'NONE',  ( 6.899999999999906208, -1.110223024625156540E-13, -6.661338147750939243E-13 ) ) ;
#228141 = ADVANCED_FACE ( 'NONE', ( #237317 ), #118847, .F. ) ;
#228774 = EDGE_CURVE ( 'NONE', #153853, #132712, #238349, .T. ) ;
#228962 = VERTEX_POINT ( 'NONE', #83222 ) ;
#229592 = CARTESIAN_POINT ( 'NONE',  ( 37.49999999999964473, -8.881784197001252323E-13, 3.330669073875469621E-13 ) ) ;
#229992 = FACE_OUTER_BOUND ( 'NONE', #287931, .T. ) ;
#230156 = ORIENTED_EDGE ( 'NONE', *, *, #91949, .T. ) ;
#230286 = EDGE_LOOP ( 'NONE', ( #300728, #273797, #151454 ) ) ;
#230294 = CYLINDRICAL_SURFACE ( 'NONE', #252365, 6.000000000000000000 ) ;
#231060 = CIRCLE ( 'NONE', #226153, 6.000000000000000000 ) ;
#231523 = EDGE_LOOP ( 'NONE', ( #238579, #121804, #179296, #143268, #172898, #156231 ) ) ;
#231943 = CARTESIAN_POINT ( 'NONE',  ( 0.03862804487735716635, -7.243750802569927316, 5.453425964619160737 ) ) ;
#232068 = ORIENTED_EDGE ( 'NONE', *, *, #197569, .F. ) ;
#232309 = CLOSED_SHELL ( 'NONE', ( #75685, #120235, #292556, #193955, #277813, #228141, #107432, #301578, #293955, #52202, #59491, #210339, #281127, #181493, #279025, #59170, #195942, #189355, #253046, #63737, #69648, #1576, #12031, #296922, #99528, #249847, #299335, #287848, #110539 ) ) ;
#232800 = CARTESIAN_POINT ( 'NONE',  ( 7.499999999999840128, -3.330669073875469621E-13, 6.600000000000827427 ) ) ;
#233076 = LINE ( 'NONE', #2310, #308152 ) ;
#233394 = EDGE_LOOP ( 'NONE', ( #58083, #29134, #85497, #290099, #101395, #55336 ) ) ;
#233548 = CARTESIAN_POINT ( 'NONE',  ( 8.100000000000218137, 1.221245327087672194E-12, -2.331468351712828735E-12 ) ) ;
#234051 = CARTESIAN_POINT ( 'NONE',  ( 0.07545773163031119224, 1.543154594041403094, -8.999988534204129920 ) ) ;
#235561 = CARTESIAN_POINT ( 'NONE',  ( 0.6766506728505180535, 4.755529420585511424, -8.999999999999998224 ) ) ;
#236826 = CARTESIAN_POINT ( 'NONE',  ( 6.899999999999906208, 5.196152422705213603, -9.000000000000230926 ) ) ;
#237317 = FACE_OUTER_BOUND ( 'NONE', #233394, .T. ) ;
#237606 = DIRECTION ( 'NONE',  ( -4.052314039881822950E-15, 1.000000000000000000, -4.718447854656917269E-16 ) ) ;
#237610 = AXIS2_PLACEMENT_3D ( 'NONE', #119731, #281871, #1285 ) ;
#237635 = DIRECTION ( 'NONE',  ( -1.927470528863118950E-15, -2.775557561562996738E-17, 1.000000000000000000 ) ) ;
#237736 = CARTESIAN_POINT ( 'NONE',  ( 0.5474605922157859128, -4.308001853599143338, -9.000000000000001776 ) ) ;
#238349 = B_SPLINE_CURVE_WITH_KNOTS ( 'NONE', 3,
 ( #25723, #95899, #265724, #212856, #3852, #142648, #49057, #52159, #24172, #98961, #190981, #239304, #28741, #307841, #289102, #237736, #97424 ),
 .UNSPECIFIED., .F., .F.,
 ( 4, 2, 2, 2, 2, 1, 2, 2, 4 ),
 ( 0.000000000000000000, 0.1250000000000000000, 0.1874999999999999445, 0.2499999999999999445, 0.3750000000000000000, 0.4375000000000000000, 0.4687500000000000000, 0.5000000000000000000, 1.000000000000000000 ),
 .UNSPECIFIED. ) ;
#238412 = AXIS2_PLACEMENT_3D ( 'NONE', #223726, #125551, #55425 ) ;
#238413 = ( NAMED_UNIT ( * ) SI_UNIT ( $, .STERADIAN. ) SOLID_ANGLE_UNIT ( ) );
#238579 = ORIENTED_EDGE ( 'NONE', *, *, #164377, .F. ) ;
#238648 = CARTESIAN_POINT ( 'NONE',  ( 0.2358416335773738381, 2.742333804154105881, -8.999994989365658782 ) ) ;
#238890 = DIRECTION ( 'NONE',  ( 1.000000000000000000, -3.941291737419307296E-15, -1.887379141862766908E-15 ) ) ;
#238902 = EDGE_CURVE ( 'NONE', #30583, #46278, #123446, .T. ) ;
#238923 = DIRECTION ( 'NONE',  ( 1.000000000000000000, -3.941291737419307296E-15, -1.887379141862766908E-15 ) ) ;
#239093 = CARTESIAN_POINT ( 'NONE',  ( 7.499999999999396039, -6.661338147750939243E-13, 9.000000000001007194 ) ) ;
#239304 = CARTESIAN_POINT ( 'NONE',  ( 0.1814562933892290009, -2.399764928202055891, -8.999996139806230033 ) ) ;
#239917 = DIRECTION ( 'NONE',  ( -3.941291737419307296E-15, 1.000000000000000000, -2.775557561562892584E-17 ) ) ;
#240099 = CARTESIAN_POINT ( 'NONE',  ( 0.000000000000000000, 0.000000000000000000, 0.000000000000000000 ) ) ;
#241640 = DIRECTION ( 'NONE',  ( 1.000000000000000000, -3.941291737419307296E-15, -1.887379141862766908E-15 ) ) ;
#242334 = EDGE_LOOP ( 'NONE', ( #29108, #163707, #249614 ) ) ;
#242520 = CARTESIAN_POINT ( 'NONE',  ( 0.000000000000000000, 0.000000000000000000, 0.000000000000000000 ) ) ;
#243287 = PRODUCT_DEFINITION_SHAPE ( 'NONE', 'NONE',  #110130 ) ;
#243342 = CIRCLE ( 'NONE', #108910, 6.000000000000000000 ) ;
#243467 = DIRECTION ( 'NONE',  ( -1.000000000000000000, 3.941291737419307296E-15, 1.887379141862766908E-15 ) ) ;
#244131 = EDGE_LOOP ( 'NONE', ( #297863, #79835, #163600 ) ) ;
#244302 = DIRECTION ( 'NONE',  ( -3.941291737419307296E-15, 1.000000000000000000, -2.775557561562892584E-17 ) ) ;
#244404 = PLANE ( 'NONE',  #245929 ) ;
#244519 = DIRECTION ( 'NONE',  ( 1.000000000000000000, -3.941291737419307296E-15, -1.887379141862766908E-15 ) ) ;
#244707 = CARTESIAN_POINT ( 'NONE',  ( 0.2337355364736906638, -6.429327141474834306, -6.864068427600398259 ) ) ;
#244912 = EDGE_CURVE ( 'NONE', #30583, #28670, #116922, .T. ) ;
#244942 = CARTESIAN_POINT ( 'NONE',  ( 0.4154319209638554500, -3.675870843049252823, 8.999789647771862633 ) ) ;
#245179 = DIRECTION ( 'NONE',  ( -3.608224830031761912E-15, 0.5000000000000001110, 0.8660254037844385966 ) ) ;
#245833 = CARTESIAN_POINT ( 'NONE',  ( 6.899999999999906208, 8.999999999997898570, 4.440892098500626162E-13 ) ) ;
#245929 = AXIS2_PLACEMENT_3D ( 'NONE', #197647, #266203, #26196 ) ;
#246369 = VERTEX_POINT ( 'NONE', #198052 ) ;
#246529 = DIRECTION ( 'NONE',  ( 1.000000000000000000, 3.941291737419307296E-15, -1.887379141862766908E-15 ) ) ;
#246739 = CARTESIAN_POINT ( 'NONE',  ( 36.53599999999990189, -1.443289932012703503E-12, -2.220446049250313081E-13 ) ) ;
#247047 = EDGE_CURVE ( 'NONE', #46278, #30583, #231060, .T. ) ;
#247828 = CARTESIAN_POINT ( 'NONE',  ( 0.07489110825976283414, 7.025879551463789952, 5.830959784781296840 ) ) ;
#248018 = CARTESIAN_POINT ( 'NONE',  ( 0.3088636966911118553, -9.369518422587375994, 1.771325245218569266 ) ) ;
#248074 = CARTESIAN_POINT ( 'NONE',  ( 0.01867296946621141429, 0.7721588122383538089, 8.999948207857586979 ) ) ;
#248312 = CARTESIAN_POINT ( 'NONE',  ( 0.6759804690081104850, 10.17083251724620929, -0.3836013248557424427 ) ) ;
#248442 = CIRCLE ( 'NONE', #238412, 0.5999999999999998668 ) ;
#248960 = ORIENTED_EDGE ( 'NONE', *, *, #180759, .F. ) ;
#249069 = ORIENTED_EDGE ( 'NONE', *, *, #199380, .F. ) ;
#249073 = CARTESIAN_POINT ( 'NONE',  ( 6.899999999999906208, 8.999999999997898570, 4.440892098500626162E-13 ) ) ;
#249187 = CONICAL_SURFACE ( 'NONE', #179454, 9.000000000000000000, 1.047197551196598297 ) ;
#249409 = CARTESIAN_POINT ( 'NONE',  ( 0.01854417711412595024, 7.355714297857947059, 5.259707708478758015 ) ) ;
#249531 = EDGE_LOOP ( 'NONE', ( #177558, #306107, #177447, #218016 ) ) ;
#249579 = CARTESIAN_POINT ( 'NONE',  ( -4.035688477193115228E-14, -8.014380411476917487, 4.118685936137204351 ) ) ;
#249614 = ORIENTED_EDGE ( 'NONE', *, *, #197569, .T. ) ;
#249847 = ADVANCED_FACE ( 'NONE', ( #135220 ), #230294, .T. ) ;
#250177 = CARTESIAN_POINT ( 'NONE',  ( 0.000000000000000000, 0.000000000000000000, 0.000000000000000000 ) ) ;
#250604 = AXIS2_PLACEMENT_3D ( 'NONE', #228125, #251588, #256200 ) ;
#250935 = CARTESIAN_POINT ( 'NONE',  ( 0.2337355364756268095, 6.429327141473262230, 6.864068427606409450 ) ) ;
#251124 = CARTESIAN_POINT ( 'NONE',  ( 0.1097080716786616311, -8.725293515923784327, 2.887381142733428607 ) ) ;
#251315 = CARTESIAN_POINT ( 'NONE',  ( 7.499999999999840128, 10.39230484541320365, 2.220446049250313081E-13 ) ) ;
#251327 = PRODUCT_DEFINITION_FORMATION_WITH_SPECIFIED_SOURCE ( 'ANY', '', #146081, .NOT_KNOWN. ) ;
#251588 = DIRECTION ( 'NONE',  ( -1.000000000000000000, 3.941291737419307296E-15, 1.887379141862766908E-15 ) ) ;
#251703 = CIRCLE ( 'NONE', #77459, 6.599999999999999645 ) ;
#252037 = DIRECTION ( 'NONE',  ( 1.000000000000000000, -3.941291737419307296E-15, -1.887379141862766908E-15 ) ) ;
#252298 = VECTOR ( 'NONE', #245179, 1000.000000000000114 ) ;
#252365 = AXIS2_PLACEMENT_3D ( 'NONE', #301936, #216130, #262899 ) ;
#253046 = ADVANCED_FACE ( 'NONE', ( #269351 ), #273936, .T. ) ;
#253437 = EDGE_LOOP ( 'NONE', ( #292767, #225357, #199394 ) ) ;
#253484 = FACE_OUTER_BOUND ( 'NONE', #137637, .T. ) ;
#255602 = ORIENTED_EDGE ( 'NONE', *, *, #91949, .F. ) ;
#255659 = CARTESIAN_POINT ( 'NONE',  ( 6.899999999999906208, -5.196152422707989160, 9.000000000000675016 ) ) ;
#256200 = DIRECTION ( 'NONE',  ( -1.927470528863118950E-15, -2.775557561562996738E-17, 1.000000000000000000 ) ) ;
#256603 = CIRCLE ( 'NONE', #47559, 9.000000000000000000 ) ;
#257463 = CARTESIAN_POINT ( 'NONE',  ( 0.1106302230841557516, 1.870265068038334588, -8.999961958638658999 ) ) ;
#258091 = CARTESIAN_POINT ( 'NONE',  ( 0.000000000000000000, 7.794228634061206584, 4.499999999999171330 ) ) ;
#258156 = AXIS2_PLACEMENT_3D ( 'NONE', #20000, #88595, #94788 ) ;
#258364 = B_SPLINE_CURVE_WITH_KNOTS ( 'NONE', 3,
 ( #123114, #151042, #4670, #1613, #126172, #147982, #291395, #191772, #244707, #268025, #73353, #168373, #265008, #263485, #99785, #124674, #169903, #49897, #194886, #31122 ),
 .UNSPECIFIED., .F., .F.,
 ( 4, 2, 2, 1, 1, 2, 2, 2, 2, 2, 4 ),
 ( 0.000000000000000000, 0.2499999999999945599, 0.3749999999999921174, 0.4374999999999908962, 0.4687499999999906186, 0.4843749999999905631, 0.4999999999999905631, 0.6249999999999923395, 0.6874999999999934497, 0.7499999999999945599, 1.000000000000000000 ),
 .UNSPECIFIED. ) ;
#259036 = CARTESIAN_POINT ( 'NONE',  ( 0.07397058096245606729, 8.563756652920845980, 3.167135983120644038 ) ) ;
#259888 = DIRECTION ( 'NONE',  ( -1.887379141862766119E-15, -2.775557561562891351E-17, 1.000000000000000000 ) ) ;
#259894 = EDGE_LOOP ( 'NONE', ( #78866, #35853, #218559, #306270, #299034, #162102 ) ) ;
#260007 = CARTESIAN_POINT ( 'NONE',  ( 0.05121209739508421344, -8.428141031834003982, -3.402032117098955144 ) ) ;
#261465 = DIRECTION ( 'NONE',  ( 1.927470528863118950E-15, 2.775557561562996738E-17, -1.000000000000000000 ) ) ;
#261818 = SHAPE_REPRESENTATION_RELATIONSHIP ( 'NONE' , 'NONE' ,  #50198, #75779 ) ;
#262037 = VERTEX_POINT ( 'NONE', #228015 ) ;
#262108 = FACE_OUTER_BOUND ( 'NONE', #128493, .T. ) ;
#262280 = CARTESIAN_POINT ( 'NONE',  ( 7.500000000000284217, -5.196152422705768714, -9.000000000001007194 ) ) ;
#262285 = PLANE ( 'NONE',  #296449 ) ;
#262566 = EDGE_CURVE ( 'NONE', #105970, #220337, #287583, .T. ) ;
#262899 = DIRECTION ( 'NONE',  ( -1.887379141862766513E-15, -2.775557561562891351E-17, 1.000000000000000000 ) ) ;
#263028 = DIRECTION ( 'NONE',  ( -1.927470528863118950E-15, -2.775557561562996738E-17, 1.000000000000000000 ) ) ;
#263485 = CARTESIAN_POINT ( 'NONE',  ( 0.1097080716689989438, -6.863192177989147602, -6.112635268860272753 ) ) ;
#263576 = CARTESIAN_POINT ( 'NONE',  ( 0.01867296946624714613, 0.8810537976314949393, -8.999997541623725894 ) ) ;
#264448 = FACE_OUTER_BOUND ( 'NONE', #91287, .T. ) ;
#264491 = CARTESIAN_POINT ( 'NONE',  ( 6.899999999999906208, 5.196152422705213603, -9.000000000000230926 ) ) ;
#265008 = CARTESIAN_POINT ( 'NONE',  ( 0.1499151242342660617, -6.700298750170802897, -6.394709648374477418 ) ) ;
#265293 = CIRCLE ( 'NONE', #270188, 0.5999999999999998668 ) ;
#265724 = CARTESIAN_POINT ( 'NONE',  ( 0.004595718324638669618, -0.4374546042183951045, -8.999973509089402413 ) ) ;
#265767 = CARTESIAN_POINT ( 'NONE',  ( 0.000000000000000000, 0.000000000000000000, 0.000000000000000000 ) ) ;
#265886 = AXIS2_PLACEMENT_3D ( 'NONE', #17677, #118926, #184507 ) ;
#266203 = DIRECTION ( 'NONE',  ( -1.887379141862765724E-15, 3.330669073875624928E-16, -1.000000000000000000 ) ) ;
#266319 = CARTESIAN_POINT ( 'NONE',  ( 7.500000000000284217, 5.196152422705657692, -9.000000000000230926 ) ) ;
#266340 = EDGE_CURVE ( 'NONE', #74690, #218416, #283167, .T. ) ;
#266822 = CARTESIAN_POINT ( 'NONE',  ( 6.899999999999906208, 10.39230484541286970, -3.330669073875469621E-13 ) ) ;
#267245 = AXIS2_PLACEMENT_3D ( 'NONE', #250177, #158073, #179939 ) ;
#267260 = AXIS2_PLACEMENT_3D ( 'NONE', #128638, #105284, #223731 ) ;
#268025 = CARTESIAN_POINT ( 'NONE',  ( 0.2250103383480852315, -6.455602807429864143, -6.818566019433566439 ) ) ;
#268259 = CARTESIAN_POINT ( 'NONE',  ( 0.1090116989153829402, -1.856119314672006970, 9.000020324649618431 ) ) ;
#268595 = CARTESIAN_POINT ( 'NONE',  ( 0.1499151242516503502, 8.888130380462524016, -2.605274106310000004 ) ) ;
#268743 = AXIS2_PLACEMENT_3D ( 'NONE', #135036, #252037, #83633 ) ;
#268955 = AXIS2_PLACEMENT_3D ( 'NONE', #249073, #130551, #13590 ) ;
#269201 = LINE ( 'NONE', #191361, #305972 ) ;
#269351 = FACE_OUTER_BOUND ( 'NONE', #39869, .T. ) ;
#269843 = CARTESIAN_POINT ( 'NONE',  ( 0.2326701934881291733, -2.723776896692629457, 8.999995546617888920 ) ) ;
#270020 = DIRECTION ( 'NONE',  ( 1.839858232096613812E-15, 2.775557561562772714E-17, -1.000000000000000000 ) ) ;
#270188 = AXIS2_PLACEMENT_3D ( 'NONE', #27091, #237606, #53550 ) ;
#270365 = ORIENTED_EDGE ( 'NONE', *, *, #281027, .F. ) ;
#270967 = DIRECTION ( 'NONE',  ( -1.000000000000000000, 3.941291737419307296E-15, 1.887379141862766908E-15 ) ) ;
#271257 = ORIENTED_EDGE ( 'NONE', *, *, #154448, .T. ) ;
#271845 = ORIENTED_EDGE ( 'NONE', *, *, #228774, .T. ) ;
#272043 = ORIENTED_EDGE ( 'NONE', *, *, #23302, .F. ) ;
#272410 = ORIENTED_EDGE ( 'NONE', *, *, #244912, .T. ) ;
#273027 = CARTESIAN_POINT ( 'NONE',  ( 0.1368181550367075783, 6.753324412620222539, -6.302824982447957858 ) ) ;
#273797 = ORIENTED_EDGE ( 'NONE', *, *, #196100, .T. ) ;
#273936 = PLANE ( 'NONE',  #268955 ) ;
#274716 = AXIS2_PLACEMENT_3D ( 'NONE', #245833, #83597, #244302 ) ;
#274878 = EDGE_CURVE ( 'NONE', #10082, #69105, #55766, .T. ) ;
#275004 = EDGE_CURVE ( 'NONE', #153869, #262037, #124013, .T. ) ;
#276086 = CARTESIAN_POINT ( 'NONE',  ( 0.05121209739587741228, 7.160316753813887658, -5.597968181700516688 ) ) ;
#276149 = SHAPE_DEFINITION_REPRESENTATION ( #243287, #50198 ) ;
#277813 = ADVANCED_FACE ( 'NONE', ( #200447 ), #172326, .F. ) ;
#277821 = CARTESIAN_POINT ( 'NONE',  ( 0.000000000000000000, 0.000000000000000000, 0.000000000000000000 ) ) ;
#278701 = PLANE ( 'NONE',  #14974 ) ;
#279025 = ADVANCED_FACE ( 'NONE', ( #124097 ), #74308, .T. ) ;
#280152 = LINE ( 'NONE', #264491, #294167 ) ;
#280451 = DIRECTION ( 'NONE',  ( -1.000000000000000000, 3.941291737419307296E-15, 1.887379141862766908E-15 ) ) ;
#281027 = EDGE_CURVE ( 'NONE', #153869, #121886, #290177, .T. ) ;
#281127 = ADVANCED_FACE ( 'NONE', ( #212346 ), #69465, .T. ) ;
#281333 = DIRECTION ( 'NONE',  ( -1.000000000000000000, 3.941291737419307296E-15, 1.887379141862766908E-15 ) ) ;
#281738 = CARTESIAN_POINT ( 'NONE',  ( 0.02730102419902264224, -7.326477309926267445, 5.310096393514217361 ) ) ;
#281871 = DIRECTION ( 'NONE',  ( -1.000000000000000000, 3.941291737419307296E-15, 1.887379141862766908E-15 ) ) ;
#282053 = CARTESIAN_POINT ( 'NONE',  ( 0.000000000000000000, 9.992007221626408864E-13, 8.999999999999230837 ) ) ;
#282070 = ( NAMED_UNIT ( * ) PLANE_ANGLE_UNIT ( ) SI_UNIT ( $, .RADIAN. ) );
#282079 = DIRECTION ( 'NONE',  ( -1.000000000000000000, 3.941291737419307296E-15, 1.887379141862766908E-15 ) ) ;
#282112 = AXIS2_PLACEMENT_3D ( 'NONE', #265767, #173727, #186791 ) ;
#282193 = CARTESIAN_POINT ( 'NONE',  ( 6.899999999999906208, 5.196152422705213603, -9.000000000000230926 ) ) ;
#282318 = CARTESIAN_POINT ( 'NONE',  ( 2.101885788831943963E-14, 7.904583922721291067, 4.308859033154605278 ) ) ;
#282688 = EDGE_CURVE ( 'NONE', #41187, #99482, #16509, .T. ) ;
#283167 = LINE ( 'NONE', #46240, #25038 ) ;
#283272 = CARTESIAN_POINT ( 'NONE',  ( 0.07397058096377447101, -7.024698545071561995, 5.832862821715077750 ) ) ;
#283280 = CARTESIAN_POINT ( 'NONE',  ( 7.500000000000284217, 5.196152422705657692, -9.000000000000230926 ) ) ;
#283837 = CARTESIAN_POINT ( 'NONE',  ( 0.09817705846542797155, 1.761200320973592026, -8.999969236281707197 ) ) ;
#283851 = CARTESIAN_POINT ( 'NONE',  ( 0.2081796852947848941, 9.080805124621432967, 2.271583178601774389 ) ) ;
#284067 = EDGE_CURVE ( 'NONE', #110891, #19275, #92034, .T. ) ;
#284077 = DIRECTION ( 'NONE',  ( 4.385380947269373068E-15, -0.8660254037844383745, -0.5000000000000004441 ) ) ;
#284452 = EDGE_CURVE ( 'NONE', #218416, #153869, #110912, .T. ) ;
#284836 = DIRECTION ( 'NONE',  ( -1.000000000000000000, 3.941291737419307296E-15, 1.887379141862766908E-15 ) ) ;
#284996 = B_SPLINE_CURVE_WITH_KNOTS ( 'NONE', 3,
 ( #103066, #127972, #223062, #9493, #199777, #248018, #129533, #155911, #85819, #15638, #60883, #205901, #300854, #251124, #37524, #109210, #302371, #131052, #249579, #179335 ),
 .UNSPECIFIED., .F., .F.,
 ( 4, 2, 2, 1, 1, 2, 2, 2, 2, 2, 4 ),
 ( 0.000000000000000000, 0.2499999999999985567, 0.3749999999999977796, 0.4374999999999974465, 0.4687499999999973355, 0.4843749999999973355, 0.4999999999999972244, 0.6249999999999977796, 0.6874999999999983347, 0.7499999999999988898, 1.000000000000000000 ),
 .UNSPECIFIED. ) ;
#285362 = CARTESIAN_POINT ( 'NONE',  ( 0.1585969671848524165, 8.916706706693844353, 2.555759427541511197 ) ) ;
#286344 = VERTEX_POINT ( 'NONE', #142795 ) ;
#286638 = FACE_OUTER_BOUND ( 'NONE', #230286, .T. ) ;
#287313 = AXIS2_PLACEMENT_3D ( 'NONE', #164830, #189774, #261465 ) ;
#287583 = CIRCLE ( 'NONE', #18819, 6.599999999999999645 ) ;
#287848 = ADVANCED_FACE ( 'NONE', ( #174048 ), #7269, .T. ) ;
#287876 = DIRECTION ( 'NONE',  ( -1.000000000000000000, 3.941291737419307296E-15, 1.887379141862766908E-15 ) ) ;
#287931 = EDGE_LOOP ( 'NONE', ( #225130, #165525, #90566, #86092 ) ) ;
#288902 = CARTESIAN_POINT ( 'NONE',  ( 3.733692997065381172E-14, 8.014380411490336087, -4.118685936113961610 ) ) ;
#289102 = CARTESIAN_POINT ( 'NONE',  ( 0.3513276492838246501, -3.460936461258629304, -8.999995447148632977 ) ) ;
#289455 = CARTESIAN_POINT ( 'NONE',  ( 0.02730102419903987498, -8.261917028290671539, -3.689867273889121613 ) ) ;
#289780 = PLANE ( 'NONE',  #16550 ) ;
#290099 = ORIENTED_EDGE ( 'NONE', *, *, #203684, .F. ) ;
#290177 = LINE ( 'NONE', #76703, #168873 ) ;
#290325 = EDGE_LOOP ( 'NONE', ( #96627, #302675 ) ) ;
#290349 = CARTESIAN_POINT ( 'NONE',  ( 37.50000000000053291, -1.554312234475219157E-12, 5.036000000000484533 ) ) ;
#290413 = CARTESIAN_POINT ( 'NONE',  ( 0.2469989350441898213, 9.198527876674603476, -2.067653520238858178 ) ) ;
#290991 = FACE_OUTER_BOUND ( 'NONE', #242334, .T. ) ;
#291210 = FACE_OUTER_BOUND ( 'NONE', #231523, .T. ) ;
#291249 = ORIENTED_EDGE ( 'NONE', *, *, #39965, .F. ) ;
#291395 = CARTESIAN_POINT ( 'NONE',  ( 0.2791760747043182667, -6.297843568772710121, -7.091710896334546099 ) ) ;
#291945 = CARTESIAN_POINT ( 'NONE',  ( 0.07489110825920766712, 8.562699077793221036, -3.169110283116367555 ) ) ;
#292299 = FACE_OUTER_BOUND ( 'NONE', #194915, .T. ) ;
#292301 = CIRCLE ( 'NONE', #237610, 9.000000000000000000 ) ;
#292375 = DIRECTION ( 'NONE',  ( 1.887379141862766119E-15, 2.775557561562891351E-17, -1.000000000000000000 ) ) ;
#292556 = ADVANCED_FACE ( 'NONE', ( #146797 ), #262285, .F. ) ;
#292767 = ORIENTED_EDGE ( 'NONE', *, *, #211068, .T. ) ;
#293239 = DIRECTION ( 'NONE',  ( -3.941291737419307296E-15, 1.000000000000000000, -2.775557561562892584E-17 ) ) ;
#293955 = ADVANCED_FACE ( 'NONE', ( #125055 ), #161941, .T. ) ;
#294167 = VECTOR ( 'NONE', #214667, 1000.000000000000000 ) ;
#294195 = CARTESIAN_POINT ( 'NONE',  ( 0.000000000000000000, -7.794228634059541250, 4.499999999999504396 ) ) ;
#294373 = EDGE_CURVE ( 'NONE', #41187, #23412, #122338, .T. ) ;
#294484 = AXIS2_PLACEMENT_3D ( 'NONE', #111527, #301649, #88153 ) ;
#294700 = CARTESIAN_POINT ( 'NONE',  ( 0.3079098336975583661, -3.145754786324526986, 8.999902383770292502 ) ) ;
#295007 = CARTESIAN_POINT ( 'NONE',  ( 0.2337355364744184705, 9.159121202355635205, -2.135926419956238664 ) ) ;
#295887 = DIRECTION ( 'NONE',  ( -3.941291737419307296E-15, 1.000000000000000000, -2.775557561562892584E-17 ) ) ;
#296063 = CARTESIAN_POINT ( 'NONE',  ( 0.09738373865979428612, 6.917427239514417181, 6.018733374098879985 ) ) ;
#296449 = AXIS2_PLACEMENT_3D ( 'NONE', #28357, #284077, #95504 ) ;
#296681 = ORIENTED_EDGE ( 'NONE', *, *, #156894, .T. ) ;
#296922 = ADVANCED_FACE ( 'NONE', ( #116603 ), #208696, .T. ) ;
#297086 = CARTESIAN_POINT ( 'NONE',  ( 0.2081796852949125143, -9.080805124622557400, -2.271583178598609809 ) ) ;
#297612 = AXIS2_PLACEMENT_3D ( 'NONE', #171255, #121405, #168186 ) ;
#297863 = ORIENTED_EDGE ( 'NONE', *, *, #203430, .T. ) ;
#297889 = CARTESIAN_POINT ( 'NONE',  ( 0.2127516646879912265, 6.493328906446740767, -6.753224706562054536 ) ) ;
#297967 = MANIFOLD_SOLID_BREP ( 'NONE', #232309 ) ;
#297976 = ORIENTED_EDGE ( 'NONE', *, *, #125075, .T. ) ;
#298853 = DIRECTION ( 'NONE',  ( 1.927470528863118950E-15, 2.775557561562996738E-17, -1.000000000000000000 ) ) ;
#299034 = ORIENTED_EDGE ( 'NONE', *, *, #108425, .F. ) ;
#299335 = ADVANCED_FACE ( 'NONE', ( #229992 ), #189118, .T. ) ;
#300037 = AXIS2_PLACEMENT_3D ( 'NONE', #125605, #175444, #292375 ) ;
#300728 = ORIENTED_EDGE ( 'NONE', *, *, #20796, .T. ) ;
#300754 = EDGE_LOOP ( 'NONE', ( #152651, #272410, #195245, #75311 ) ) ;
#300854 = CARTESIAN_POINT ( 'NONE',  ( 0.1499151242439314968, -8.888130380429712929, 2.605274106374904530 ) ) ;
#301210 = DIRECTION ( 'NONE',  ( -1.377858201728996931E-15, -2.775557561561200539E-17, 1.000000000000000000 ) ) ;
#301578 = ADVANCED_FACE ( 'NONE', ( #105338 ), #185519, .T. ) ;
#301649 = DIRECTION ( 'NONE',  ( 1.887379141862766908E-15, -2.775557561564379093E-17, 1.000000000000000000 ) ) ;
#301936 = CARTESIAN_POINT ( 'NONE',  ( 0.000000000000000000, 0.000000000000000000, 0.000000000000000000 ) ) ;
#302022 = CARTESIAN_POINT ( 'NONE',  ( 0.2127516646878247486, -6.493328906446816262, 6.753224706561771207 ) ) ;
#302371 = CARTESIAN_POINT ( 'NONE',  ( 0.06490461989933783704, -8.509597571210932188, 3.261120214062507738 ) ) ;
#302675 = ORIENTED_EDGE ( 'NONE', *, *, #75168, .F. ) ;
#302786 = ORIENTED_EDGE ( 'NONE', *, *, #113324, .T. ) ;
#303572 = CARTESIAN_POINT ( 'NONE',  ( 0.3528258199884701241, -6.060535048834898575, 7.502836325299356623 ) ) ;
#303697 = VERTEX_POINT ( 'NONE', #23273 ) ;
#304143 = CARTESIAN_POINT ( 'NONE',  ( 0.2271233944486308609, 2.690056647922804078, -8.999999067627095783 ) ) ;
#305080 = CARTESIAN_POINT ( 'NONE',  ( 0.000000000000000000, -7.794228634059541250, 4.499999999999504396 ) ) ;
#305262 = CARTESIAN_POINT ( 'NONE',  ( 6.899999999999906208, -1.110223024625156540E-13, -6.661338147750939243E-13 ) ) ;
#305972 = VECTOR ( 'NONE', #195979, 999.9999999999998863 ) ;
#306107 = ORIENTED_EDGE ( 'NONE', *, *, #75168, .T. ) ;
#306270 = ORIENTED_EDGE ( 'NONE', *, *, #222616, .F. ) ;
#306629 = CARTESIAN_POINT ( 'NONE',  ( 0.05121209739491102558, -7.160316753816209356, 5.597968181695103240 ) ) ;
#306659 = AXIS2_PLACEMENT_3D ( 'NONE', #146293, #52786, #239917 ) ;
#307841 = CARTESIAN_POINT ( 'NONE',  ( 0.2069563171983526129, -2.565794861148778860, -9.000000284553221874 ) ) ;
#308152 = VECTOR ( 'NONE', #217367, 1000.000000000000000 ) ;
ENDSEC;
END-ISO-10303-21;
