ISO-10303-21;
HEADER;
FILE_DESCRIPTION (( 'STEP AP214' ),
    '1' );
FILE_NAME ('PT.SHT.01.20.00.00 —¡ ''ÿÌÂÍ 1'' (STEP 214 ““).STEP',
    '2026-09-29T05:38:28',
    ( '' ),
    ( '' ),
    'SwSTEP 2.0',
    'SolidWorks 2025',
    '' );
FILE_SCHEMA (( 'AUTOMOTIVE_DESIGN' ));
ENDSEC;

DATA;
#1159 = CARTESIAN_POINT ( 'NONE',  ( 5.699999999997817923, -2.192690473634684167E-12, 1.776356839400250465E-12 ) ) ;
#1437 = CARTESIAN_POINT ( 'NONE',  ( -3.241363566803261603E-13, 5.708865036487631883, 3.111955703260647965 ) ) ;
#1934 = LINE ( 'NONE', #213988, #23988 ) ;
#2292 = CARTESIAN_POINT ( 'NONE',  ( 4.700000000049442406, -7.505553499467549017, -8.881784197001252323E-13 ) ) ;
#2924 = ORIENTED_EDGE ( 'NONE', *, *, #297701, .T. ) ;
#2942 = AXIS2_PLACEMENT_3D ( 'NONE', #42330, #235589, #40824 ) ;
#2960 = CARTESIAN_POINT ( 'NONE',  ( 0.003356156263863703353, 5.788184962015511026, 2.974494712388447315 ) ) ;
#2999 = ADVANCED_FACE ( 'NONE', ( #220516 ), #270366, .T. ) ;
#3188 = CARTESIAN_POINT ( 'NONE',  ( 7.951617612951902576E-13, -0.1582002673162262174, -6.500000000001990408 ) ) ;
#3242 = CARTESIAN_POINT ( 'NONE',  ( 0.1627295870168002367, -4.661564094184837082, -4.925934737530108798 ) ) ;
#3497 = DIRECTION ( 'NONE',  ( 8.500145032286432071E-15, -1.000000000000000000, -4.790612351257594017E-14 ) ) ;
#3620 = ADVANCED_FACE ( 'NONE', ( #241250 ), #96334, .T. ) ;
#3623 = CARTESIAN_POINT ( 'NONE',  ( 0.1831808565623156970, 2.055909660195289757, -6.499986457861054667 ) ) ;
#4477 = CARTESIAN_POINT ( 'NONE',  ( 0.09881229225278198580, 6.380879742513312358, 1.947938784948735735 ) ) ;
#4741 = DIRECTION ( 'NONE',  ( 1.000000000000000000, -1.021405182654441615E-14, -1.395550341952862012E-13 ) ) ;
#5443 = CARTESIAN_POINT ( 'NONE',  ( 5.700000000048000004, -1.887379141862766119E-12, -3.999999999999559464 ) ) ;
#5834 = ORIENTED_EDGE ( 'NONE', *, *, #158736, .F. ) ;
#5999 = B_SPLINE_CURVE_WITH_KNOTS ( 'NONE', 3,
 ( #211648, #256894, #306625, #188203, #63633, #283267, #69793, #164832, #259973, #22958, #118048, #213177, #308158, #158643, #135299, #230383, #111906 ),
 .UNSPECIFIED., .F., .F.,
 ( 4, 2, 2, 2, 2, 1, 2, 2, 4 ),
 ( 0.000000000000000000, 0.1249999999999986122, 0.1874999999999980849, 0.2499999999999978351, 0.3749999999999976130, 0.4374999999999974465, 0.4687499999999975575, 0.4999999999999976685, 1.000000000000000000 ),
 .UNSPECIFIED. ) ;
#6003 = CARTESIAN_POINT ( 'NONE',  ( 24.60950000004924476, 2.775557561562891351E-13, -3.999999999999337419 ) ) ;
#7560 = ORIENTED_EDGE ( 'NONE', *, *, #111027, .F. ) ;
#7736 = EDGE_LOOP ( 'NONE', ( #101139, #124135, #228108, #43887, #164473, #229380 ) ) ;
#7796 = EDGE_CURVE ( 'NONE', #276551, #12232, #1934, .T. ) ;
#7857 = ORIENTED_EDGE ( 'NONE', *, *, #70515, .T. ) ;
#8004 = DIRECTION ( 'NONE',  ( 1.235990476633096654E-13, -3.453487495973533256E-14, -1.000000000000000000 ) ) ;
#8130 = EDGE_CURVE ( 'NONE', #60120, #150559, #88942, .T. ) ;
#8405 = DIRECTION ( 'NONE',  ( 1.000000000000000000, -1.021405182654441615E-14, -1.395550341952862012E-13 ) ) ;
#8485 = CONICAL_SURFACE ( 'NONE', #307281, 3.309500000001015962, 0.7853981633974405074 ) ;
#8689 = VECTOR ( 'NONE', #187797, 1000.000000000000000 ) ;
#8846 = FACE_OUTER_BOUND ( 'NONE', #218347, .T. ) ;
#8913 = DIRECTION ( 'NONE',  ( -0.7071067811866245112, 5.722505802548784914E-14, 0.7071067811864705233 ) ) ;
#9044 = AXIS2_PLACEMENT_3D ( 'NONE', #298718, #178696, #85220 ) ;
#9060 = CARTESIAN_POINT ( 'NONE',  ( 0.01339302944452931340, -5.945983493759974259, 2.701382127721835946 ) ) ;
#9433 = DIRECTION ( 'NONE',  ( -1.226545681759928211E-13, 3.453487495973568597E-14, 1.000000000000000000 ) ) ;
#9503 = TOROIDAL_SURFACE ( 'NONE', #298297, 4.400000000000000355, 0.4000000000000000222 ) ;
#9883 = ADVANCED_FACE ( 'NONE', ( #290940 ), #9503, .F. ) ;
#10353 = DIRECTION ( 'NONE',  ( -0.7071067811866220687, -1.179611963664037772E-16, -0.7071067811864729658 ) ) ;
#10625 = DIRECTION ( 'NONE',  ( 1.227650459921671153E-13, -3.453487495973568597E-14, -1.000000000000000000 ) ) ;
#10861 = CARTESIAN_POINT ( 'NONE',  ( 0.1494304057867443525, -1.852833517040152200, -6.500000284562870156 ) ) ;
#11011 = DIRECTION ( 'NONE',  ( 1.000000000000000000, -1.021405182654441615E-14, -1.395550341952862012E-13 ) ) ;
#11604 = ADVANCED_FACE ( 'NONE', ( #131967 ), #155307, .F. ) ;
#11903 = ORIENTED_EDGE ( 'NONE', *, *, #92207, .T. ) ;
#12143 = CARTESIAN_POINT ( 'NONE',  ( -1.714184350021241698E-10, -5.629165124598212167, 3.249999999999308997 ) ) ;
#12214 = CONICAL_SURFACE ( 'NONE', #186455, 6.500000000001995737, 1.047197551196598297 ) ;
#12232 = VERTEX_POINT ( 'NONE', #269878 ) ;
#12700 = ORIENTED_EDGE ( 'NONE', *, *, #78601, .F. ) ;
#12878 = VECTOR ( 'NONE', #130814, 1000.000000000000000 ) ;
#13075 = DIRECTION ( 'NONE',  ( 1.000000000000000000, 8.500145032293116878E-15, -1.395550341952853429E-13 ) ) ;
#13083 = CARTESIAN_POINT ( 'NONE',  ( -8.009941654721874537E-13, -0.3164333787945803889, 6.500000000002004619 ) ) ;
#13267 = CARTESIAN_POINT ( 'NONE',  ( 5.299999999829108077, -3.752776749736646877, 6.500000000008943069 ) ) ;
#13535 = AXIS2_PLACEMENT_3D ( 'NONE', #150968, #38728, #221213 ) ;
#14058 = FACE_OUTER_BOUND ( 'NONE', #74427, .T. ) ;
#14619 = CARTESIAN_POINT ( 'NONE',  ( 0.1680018847472535548, -1.966946384827487737, 6.499996929823185887 ) ) ;
#15446 = CARTESIAN_POINT ( 'NONE',  ( 0.01741096649192763052, -0.6315258925471866069, -6.500023811192638945 ) ) ;
#15563 = ADVANCED_FACE ( 'NONE', ( #63274, #209795 ), #44476, .T. ) ;
#16137 = CARTESIAN_POINT ( 'NONE',  ( 0.2008820475256979932, -2.157298653488375351, 6.499962344262987912 ) ) ;
#17364 = CARTESIAN_POINT ( 'NONE',  ( 5.299999999948123985, 3.752776749731650874, 6.500000000005057288 ) ) ;
#17403 = CYLINDRICAL_SURFACE ( 'NONE', #112111, 4.000000000001228351 ) ;
#17704 = ORIENTED_EDGE ( 'NONE', *, *, #164025, .T. ) ;
#19144 = DIRECTION ( 'NONE',  ( -1.231653667943154889E-13, 3.453487495973567334E-14, 1.000000000000000000 ) ) ;
#19701 = AXIS2_PLACEMENT_3D ( 'NONE', #273136, #101771, #151542 ) ;
#19919 = CARTESIAN_POINT ( 'NONE',  ( 4.700000000049442406, -7.505553499467549017, -8.881784197001252323E-13 ) ) ;
#19987 = ADVANCED_BREP_SHAPE_REPRESENTATION ( '', ( #295405, #267245 ), #273896 ) ;
#20516 = ORIENTED_EDGE ( 'NONE', *, *, #261624, .T. ) ;
#20693 = CARTESIAN_POINT ( 'NONE',  ( 4.699999999997928057, -1.859623566247137205E-12, -2.109423746787797427E-12 ) ) ;
#20878 = CARTESIAN_POINT ( 'NONE',  ( 0.1642874818062057818, 1.944641462965465362, -6.500000328429157648 ) ) ;
#21680 = VERTEX_POINT ( 'NONE', #230720 ) ;
#22027 = CARTESIAN_POINT ( 'NONE',  ( 0.1817083958744047378, -4.605432099382606559, -5.023129589839265385 ) ) ;
#22277 = CARTESIAN_POINT ( 'NONE',  ( 4.700000000048998317, 5.629165124597323988, -3.250000000001862510 ) ) ;
#22445 = ORIENTED_EDGE ( 'NONE', *, *, #216226, .T. ) ;
#22898 = CONICAL_SURFACE ( 'NONE', #112583, 6.500000000001995737, 1.047197551196598297 ) ;
#22928 = DIRECTION ( 'NONE',  ( -8.500145032286432071E-15, 1.000000000000000000, 4.790612351257594017E-14 ) ) ;
#22958 = CARTESIAN_POINT ( 'NONE',  ( 0.09881229225624395263, 4.877404344032859385, -4.552034563046784221 ) ) ;
#23223 = EDGE_CURVE ( 'NONE', #236221, #104041, #26843, .T. ) ;
#23258 = CARTESIAN_POINT ( 'NONE',  ( 0.06970085888164430366, 6.263151584772662872, 2.151847309678366127 ) ) ;
#23970 = ORIENTED_EDGE ( 'NONE', *, *, #183306, .F. ) ;
#23988 = VECTOR ( 'NONE', #98540, 1000.000000000000000 ) ;
#24674 = AXIS2_PLACEMENT_3D ( 'NONE', #109167, #11011, #271336 ) ;
#24768 = DIRECTION ( 'NONE',  ( -8.500145032286432071E-15, 1.000000000000000000, 4.790612351257594017E-14 ) ) ;
#25037 = EDGE_CURVE ( 'NONE', #135102, #233811, #67147, .T. ) ;
#25657 = LINE ( 'NONE', #2292, #59735 ) ;
#26736 = CARTESIAN_POINT ( 'NONE',  ( 0.04687560305757644541, 6.145820286201293392, -2.355254138978999823 ) ) ;
#26843 = CIRCLE ( 'NONE', #31948, 4.000000000001228351 ) ;
#26990 = CARTESIAN_POINT ( 'NONE',  ( 4.973799150320701301E-11, 7.077671781985372945E-13, -6.500000000002170708 ) ) ;
#27242 = DIRECTION ( 'NONE',  ( -1.227650459921671153E-13, 3.453487495973568597E-14, 1.000000000000000000 ) ) ;
#27363 = ADVANCED_FACE ( 'NONE', ( #200644 ), #90912, .T. ) ;
#29830 = CARTESIAN_POINT ( 'NONE',  ( 0.2016277880899187969, 6.709824032986413833, -1.378169555451125516 ) ) ;
#29865 = DIRECTION ( 'NONE',  ( 8.500145032286432071E-15, -1.000000000000000000, -4.790612351257594017E-14 ) ) ;
#30137 = EDGE_CURVE ( 'NONE', #198725, #104041, #224134, .T. ) ;
#30169 = SHAPE_REPRESENTATION ( '\X2\04120438043d0442\X0\ \X2\041c\X0\8\X2\0445\X0\20 DIN 931', ( #267245 ), #273896 ) ;
#30291 = ADVANCED_FACE ( 'NONE', ( #283137 ), #44697, .T. ) ;
#31012 = DIRECTION ( 'NONE',  ( 1.227351553722733669E-13, -3.453487495973566703E-14, -1.000000000000000000 ) ) ;
#31357 = CARTESIAN_POINT ( 'NONE',  ( 0.4882088420187902233, 7.345602519087435667, -0.2770432247474580723 ) ) ;
#31911 = ORIENTED_EDGE ( 'NONE', *, *, #131255, .T. ) ;
#31948 = AXIS2_PLACEMENT_3D ( 'NONE', #40258, #174799, #199826 ) ;
#32035 = CARTESIAN_POINT ( 'NONE',  ( 0.5805565834320347562, -3.752776749735037498, 6.500000000012162715 ) ) ;
#32159 = CIRCLE ( 'NONE', #246264, 6.500000000001995737 ) ;
#32893 = CARTESIAN_POINT ( 'NONE',  ( 4.700000000048554227, 3.752776749731428829, -6.500000000002392753 ) ) ;
#33116 = CLOSED_SHELL ( 'NONE', ( #9883, #308282, #133619, #295968, #293594, #285032, #11604, #106648, #294460, #240508, #138840, #209471, #235748, #132668, #182853, #27363, #3620, #280942, #30291, #2999, #37049, #117601, #134458, #265415, #15563, #144086, #141367, #292618, #288942 ) ) ;
#33146 = APPLICATION_CONTEXT ( 'automotive_design' ) ;
#33416 = CARTESIAN_POINT ( 'NONE',  ( 0.5805565834320347562, -3.752776749735037498, 6.500000000012162715 ) ) ;
#33452 = ORIENTED_EDGE ( 'NONE', *, *, #181091, .F. ) ;
#33504 = AXIS2_PLACEMENT_3D ( 'NONE', #308134, #22928, #166330 ) ;
#34138 = CARTESIAN_POINT ( 'NONE',  ( 0.5805565835488302184, 3.752776749728958805, 6.500000000008387957 ) ) ;
#34200 = LINE ( 'NONE', #127732, #12878 ) ;
#34667 = ORIENTED_EDGE ( 'NONE', *, *, #308175, .F. ) ;
#34960 = EDGE_LOOP ( 'NONE', ( #131397, #100439, #300624 ) ) ;
#35223 = ORIENTED_EDGE ( 'NONE', *, *, #297701, .F. ) ;
#35578 = CARTESIAN_POINT ( 'NONE',  ( 0.4066829935006289753, -7.189113386146962270, 0.5478133848116760740 ) ) ;
#35763 = CARTESIAN_POINT ( 'NONE',  ( 0.000000000000000000, 0.000000000000000000, 0.000000000000000000 ) ) ;
#35910 = ORIENTED_EDGE ( 'NONE', *, *, #189497, .T. ) ;
#36153 = ORIENTED_EDGE ( 'NONE', *, *, #273228, .F. ) ;
#36421 = FACE_OUTER_BOUND ( 'NONE', #143763, .T. ) ;
#36481 = PLANE ( 'NONE',  #122119 ) ;
#37049 = ADVANCED_FACE ( 'NONE', ( #260367 ), #194802, .T. ) ;
#37343 = CARTESIAN_POINT ( 'NONE',  ( 0.1310122678353874692, -1.732897304814884798, -6.499997441278307697 ) ) ;
#37361 = CYLINDRICAL_SURFACE ( 'NONE', #112369, 6.500000000001995737 ) ;
#37489 = EDGE_CURVE ( 'NONE', #21680, #150559, #206386, .T. ) ;
#38031 = CARTESIAN_POINT ( 'NONE',  ( 0.2223441326088476389, -2.271748269651339136, 6.499929963099934760 ) ) ;
#38314 = DIRECTION ( 'NONE',  ( 1.227351553722733669E-13, -3.453487495973566703E-14, -1.000000000000000000 ) ) ;
#38728 = DIRECTION ( 'NONE',  ( 1.227351553722726601E-13, 4.790612351257698147E-14, -1.000000000000000000 ) ) ;
#39013 = VERTEX_POINT ( 'NONE', #183283 ) ;
#39216 = EDGE_CURVE ( 'NONE', #150559, #12232, #111918, .T. ) ;
#39413 = VECTOR ( 'NONE', #269869, 1000.000000000000114 ) ;
#39429 = LINE ( 'NONE', #159397, #298513 ) ;
#39580 = CARTESIAN_POINT ( 'NONE',  ( 0.2673082879705384607, -2.501117111907973367, 6.499873143086086991 ) ) ;
#39591 = CARTESIAN_POINT ( 'NONE',  ( 4.840572387365682516E-11, 5.629165124597795611, -3.249999999999086953 ) ) ;
#40258 = CARTESIAN_POINT ( 'NONE',  ( 5.699999999997817923, -2.192690473634684167E-12, 1.776356839400250465E-12 ) ) ;
#40295 = ORIENTED_EDGE ( 'NONE', *, *, #121483, .F. ) ;
#40824 = DIRECTION ( 'NONE',  ( 1.024180740216502562E-13, 0.4999999999998565592, -0.8660254037845215302 ) ) ;
#40877 = VECTOR ( 'NONE', #99198, 1000.000000000000114 ) ;
#41295 = CARTESIAN_POINT ( 'NONE',  ( 0.5805565837171400290, -3.752776749733594208, -6.499999999996619593 ) ) ;
#41420 = AXIS2_PLACEMENT_3D ( 'NONE', #127772, #177576, #146518 ) ;
#42034 = AXIS2_PLACEMENT_3D ( 'NONE', #307858, #144198, #27242 ) ;
#42330 = CARTESIAN_POINT ( 'NONE',  ( 5.299999999997417888, 7.505553499464134859, 3.330669073875469621E-13 ) ) ;
#42919 = DIRECTION ( 'NONE',  ( -8.500145032286432071E-15, 1.000000000000000000, 4.790612351257594017E-14 ) ) ;
#43339 = ORIENTED_EDGE ( 'NONE', *, *, #97106, .T. ) ;
#43426 = CARTESIAN_POINT ( 'NONE',  ( 4.700000000115611698, -3.752776749738479189, -6.500000000004058087 ) ) ;
#43652 = CARTESIAN_POINT ( 'NONE',  ( 0.1145415415355604399, -6.439841003244066719, -1.845831382510453311 ) ) ;
#43887 = ORIENTED_EDGE ( 'NONE', *, *, #64405, .F. ) ;
#44077 = ORIENTED_EDGE ( 'NONE', *, *, #37489, .F. ) ;
#44476 = PLANE ( 'NONE',  #48216 ) ;
#44674 = ORIENTED_EDGE ( 'NONE', *, *, #273228, .T. ) ;
#44697 = PLANE ( 'NONE',  #137476 ) ;
#44777 = EDGE_CURVE ( 'NONE', #129078, #185882, #213612, .T. ) ;
#44871 = B_SPLINE_CURVE_WITH_KNOTS ( 'NONE', 3,
 ( #244966, #31357, #73606, #170168, #50150, #171667, #29830, #124919, #173179, #221530, #123367, #196642, #168619, #291637, #145215, #26736, #265250, #51672, #146706 ),
 .UNSPECIFIED., .F., .F.,
 ( 4, 2, 2, 1, 2, 2, 2, 2, 2, 4 ),
 ( 0.000000000000000000, 0.2500000000000006106, 0.3750000000000011102, 0.4375000000000011657, 0.4687500000000012212, 0.5000000000000012212, 0.6250000000000008882, 0.6875000000000006661, 0.7500000000000004441, 1.000000000000000000 ),
 .UNSPECIFIED. ) ;
#45216 = CARTESIAN_POINT ( 'NONE',  ( 0.01761982038716535665, -5.947068993803350523, -2.699315280406883844 ) ) ;
#45910 = AXIS2_PLACEMENT_3D ( 'NONE', #221563, #29865, #8004 ) ;
#46176 = EDGE_CURVE ( 'NONE', #69015, #150559, #100567, .T. ) ;
#46210 = CARTESIAN_POINT ( 'NONE',  ( -4.725157414390353423E-13, -5.549465212718916796, 3.388044296745398754 ) ) ;
#46360 = CARTESIAN_POINT ( 'NONE',  ( 0.2558857984031966959, 2.508805935820217048, 6.499994971722753867 ) ) ;
#46647 = CARTESIAN_POINT ( 'NONE',  ( 0.1320310897164876651, 6.499035722322604514, 1.743325357374881701 ) ) ;
#47110 = DIRECTION ( 'NONE',  ( 1.000000000000000000, 8.500145032293116878E-15, -1.395550341952853429E-13 ) ) ;
#47144 = DIRECTION ( 'NONE',  ( -1.000000000000000000, 1.021405182654441615E-14, 1.395550341952862012E-13 ) ) ;
#47425 = EDGE_CURVE ( 'NONE', #185882, #129078, #120840, .T. ) ;
#47650 = CARTESIAN_POINT ( 'NONE',  ( 5.300000000048932236, 3.752776749731095762, -6.500000000000949463 ) ) ;
#47721 = VERTEX_POINT ( 'NONE', #284935 ) ;
#48216 = AXIS2_PLACEMENT_3D ( 'NONE', #88175, #116178, #42919 ) ;
#48813 = CARTESIAN_POINT ( 'NONE',  ( 0.3018343296981461643, 2.662955342251211555, -6.499854484083178896 ) ) ;
#50150 = CARTESIAN_POINT ( 'NONE',  ( 0.2679805558255164422, 6.881221842579697601, -1.081123747998302909 ) ) ;
#50362 = ORIENTED_EDGE ( 'NONE', *, *, #30137, .F. ) ;
#50412 = CARTESIAN_POINT ( 'NONE',  ( 0.01348548317842615529, 0.6346110967899196709, -6.500185623858578232 ) ) ;
#50467 = CIRCLE ( 'NONE', #244768, 6.500000000001995737 ) ;
#50814 = CARTESIAN_POINT ( 'NONE',  ( 0.3960962806454883522, -4.072271366433423800, 5.946619091137706370 ) ) ;
#50959 = CARTESIAN_POINT ( 'NONE',  ( 0.5805565835488302184, 3.752776749728958805, 6.500000000008387957 ) ) ;
#51672 = CARTESIAN_POINT ( 'NONE',  ( 4.237172204356493377E-13, 5.788166003974013485, -2.974602398484993859 ) ) ;
#52488 = ORIENTED_EDGE ( 'NONE', *, *, #121483, .T. ) ;
#52524 = ORIENTED_EDGE ( 'NONE', *, *, #189497, .F. ) ;
#52543 = CIRCLE ( 'NONE', #241720, 6.500000000001995737 ) ;
#52602 = DIRECTION ( 'NONE',  ( -8.500145032286432071E-15, 1.000000000000000000, 4.790612351257594017E-14 ) ) ;
#52854 = CARTESIAN_POINT ( 'NONE',  ( 0.000000000000000000, 0.000000000000000000, 0.000000000000000000 ) ) ;
#53861 = CARTESIAN_POINT ( 'NONE',  ( 0.1440819660358297338, -4.719768530266756912, 4.825117754627848754 ) ) ;
#54193 = ORIENTED_EDGE ( 'NONE', *, *, #142534, .F. ) ;
#54278 = FACE_OUTER_BOUND ( 'NONE', #61480, .T. ) ;
#55777 = CARTESIAN_POINT ( 'NONE',  ( 0.04687560305768577462, -5.112620059830788044, -4.144809425445258988 ) ) ;
#55779 = ORIENTED_EDGE ( 'NONE', *, *, #158736, .T. ) ;
#55781 = ORIENTED_EDGE ( 'NONE', *, *, #301441, .F. ) ;
#55861 = DIRECTION ( 'NONE',  ( 1.000000000000000000, -1.021405182654441615E-14, -1.395550341952862012E-13 ) ) ;
#55976 = PLANE ( 'NONE',  #13535 ) ;
#56131 = DIRECTION ( 'NONE',  ( -1.227351553722733669E-13, 3.453487495973566703E-14, 1.000000000000000000 ) ) ;
#56714 = CARTESIAN_POINT ( 'NONE',  ( 0.000000000000000000, 0.000000000000000000, 0.000000000000000000 ) ) ;
#56802 = CARTESIAN_POINT ( 'NONE',  ( 0.1619440718662849277, -1.930429104323571732, 6.500000295834810871 ) ) ;
#57938 = ORIENTED_EDGE ( 'NONE', *, *, #23223, .T. ) ;
#59735 = VECTOR ( 'NONE', #262618, 1000.000000000000114 ) ;
#59748 = EDGE_CURVE ( 'NONE', #60120, #61123, #176088, .T. ) ;
#60120 = VERTEX_POINT ( 'NONE', #191550 ) ;
#60698 = CARTESIAN_POINT ( 'NONE',  ( 0.5805565837171400290, -3.752776749733594208, -6.499999999996619593 ) ) ;
#61123 = VERTEX_POINT ( 'NONE', #297933 ) ;
#61391 = CARTESIAN_POINT ( 'NONE',  ( 0.5805565834320347562, -3.752776749735037498, 6.500000000012162715 ) ) ;
#61480 = EDGE_LOOP ( 'NONE', ( #148337, #196798 ) ) ;
#61529 = DIRECTION ( 'NONE',  ( -1.000000000000000000, 1.021405182654441615E-14, 1.395550341952862012E-13 ) ) ;
#62105 = FACE_OUTER_BOUND ( 'NONE', #131203, .T. ) ;
#62352 = EDGE_LOOP ( 'NONE', ( #109081, #43339, #104781, #180705, #111168, #132302 ) ) ;
#62474 = CARTESIAN_POINT ( 'NONE',  ( 1.172395514004165307E-10, -5.629165124599405878, -3.250000000000308198 ) ) ;
#62640 = LINE ( 'NONE', #17364, #86563 ) ;
#62766 = CARTESIAN_POINT ( 'NONE',  ( 4.699999999999260325, 7.505553499465827727, -5.551115123125782702E-13 ) ) ;
#63274 = FACE_BOUND ( 'NONE', #172320, .T. ) ;
#63633 = CARTESIAN_POINT ( 'NONE',  ( 0.01761982038741312026, 5.311210102539042133, -3.800655186513452577 ) ) ;
#63666 = ORIENTED_EDGE ( 'NONE', *, *, #161454, .T. ) ;
#64405 = EDGE_CURVE ( 'NONE', #12232, #229090, #212618, .T. ) ;
#64946 = ORIENTED_EDGE ( 'NONE', *, *, #152629, .T. ) ;
#65055 = CARTESIAN_POINT ( 'NONE',  ( 4.699999999997928057, 6.500000000001143974, -2.109423746787797427E-12 ) ) ;
#65213 = CARTESIAN_POINT ( 'NONE',  ( -7.961537427555431471E-13, 0.1591216080457912296, 6.500000000001990408 ) ) ;
#65435 = EDGE_LOOP ( 'NONE', ( #257305, #99997, #105485, #36153, #271329, #250466 ) ) ;
#66731 = CARTESIAN_POINT ( 'NONE',  ( 0.1153425125870453510, 1.627001193076706320, 6.500015179636227103 ) ) ;
#66862 = PLANE ( 'NONE',  #247748 ) ;
#67107 = CARTESIAN_POINT ( 'NONE',  ( 0.1505885036324838833, -6.559232555882089422, -1.639076520126945935 ) ) ;
#67147 = CIRCLE ( 'NONE', #226420, 6.500000000001995737 ) ;
#67195 = DIRECTION ( 'NONE',  ( -1.227650459921671153E-13, 3.453487495973568597E-14, 1.000000000000000000 ) ) ;
#67251 = CARTESIAN_POINT ( 'NONE',  ( -5.240252676230738871E-11, 5.629165124594575964, 3.250000000002528644 ) ) ;
#67581 = EDGE_LOOP ( 'NONE', ( #268040, #260247, #284955 ) ) ;
#67891 = DIRECTION ( 'NONE',  ( 1.000000000000000000, -1.021405182654441615E-14, -1.395550341952862012E-13 ) ) ;
#67929 = VERTEX_POINT ( 'NONE', #253901 ) ;
#68118 = CARTESIAN_POINT ( 'NONE',  ( 0.06970085888247350148, -4.995130227630991904, 4.348124725329957307 ) ) ;
#68128 = DIRECTION ( 'NONE',  ( -8.500145032286432071E-15, 1.000000000000000000, 4.790612351257594017E-14 ) ) ;
#68655 = LINE ( 'NONE', #280610, #226703 ) ;
#69012 = PLANE ( 'NONE',  #288114 ) ;
#69015 = VERTEX_POINT ( 'NONE', #75615 ) ;
#69160 = LINE ( 'NONE', #237434, #203517 ) ;
#69793 = CARTESIAN_POINT ( 'NONE',  ( 0.03369948430699205855, 5.190928048259757510, -4.009050077137423784 ) ) ;
#70105 = CARTESIAN_POINT ( 'NONE',  ( 0.2548172889969968491, 6.881268334331075209, 1.081284575408336446 ) ) ;
#70515 = EDGE_CURVE ( 'NONE', #255492, #47721, #164362, .T. ) ;
#70660 = DIRECTION ( 'NONE',  ( 1.000000000000000000, 8.500145032293116878E-15, -1.395550341952853429E-13 ) ) ;
#70777 = CARTESIAN_POINT ( 'NONE',  ( 0.2692843053587359869, 2.510551354676199054, -6.499878182616104283 ) ) ;
#71221 = VERTEX_POINT ( 'NONE', #43426 ) ;
#71709 = AXIS2_PLACEMENT_3D ( 'NONE', #104710, #262646, #176319 ) ;
#71718 = DIRECTION ( 'NONE',  ( 1.000000000000000000, 8.500145032293116878E-15, -1.395550341952853429E-13 ) ) ;
#71920 = CARTESIAN_POINT ( 'NONE',  ( 0.05408856235377043631, -5.074244313800856609, -4.211252662432737104 ) ) ;
#71940 = AXIS2_PLACEMENT_3D ( 'NONE', #239625, #241149, #167906 ) ;
#71968 = PRODUCT_DEFINITION_FORMATION_WITH_SPECIFIED_SOURCE ( 'ANY', '', #121185, .NOT_KNOWN. ) ;
#73391 = DIRECTION ( 'NONE',  ( -1.000000000000000000, 1.021405182654441615E-14, 1.395550341952862012E-13 ) ) ;
#73482 = CARTESIAN_POINT ( 'NONE',  ( 0.1082729533066999483, -4.839100816698114649, -4.618407739157950331 ) ) ;
#73606 = CARTESIAN_POINT ( 'NONE',  ( 0.4066829934942590707, 7.189113386134004635, -0.5478133848300139608 ) ) ;
#73844 = CARTESIAN_POINT ( 'NONE',  ( 0.1702526919931353633, 1.980358335962167038, -6.499997116209717873 ) ) ;
#74260 = CARTESIAN_POINT ( 'NONE',  ( 0.01761982038637261230, -5.311210102543854283, 3.800655186506757932 ) ) ;
#74427 = EDGE_LOOP ( 'NONE', ( #294087, #238065, #2924 ) ) ;
#74465 = CARTESIAN_POINT ( 'NONE',  ( -5.107025913275720086E-11, 1.387778780781445676E-13, 6.499999999999728217 ) ) ;
#74563 = PLANE ( 'NONE',  #261316 ) ;
#74954 = CARTESIAN_POINT ( 'NONE',  ( 0.000000000000000000, 0.000000000000000000, 0.000000000000000000 ) ) ;
#75077 = TOROIDAL_SURFACE ( 'NONE', #109946, 4.400000000000000355, 0.4000000000000000222 ) ;
#75121 = ORIENTED_EDGE ( 'NONE', *, *, #261624, .F. ) ;
#75463 = CONICAL_SURFACE ( 'NONE', #249687, 3.309500000001015962, 0.7853981633974405074 ) ;
#75615 = CARTESIAN_POINT ( 'NONE',  ( 4.699999999949966423, 3.752776749732761097, 6.500000000000283329 ) ) ;
#76546 = ORIENTED_EDGE ( 'NONE', *, *, #224048, .F. ) ;
#76912 = CIRCLE ( 'NONE', #171440, 4.000000000001228351 ) ;
#77529 = EDGE_LOOP ( 'NONE', ( #108431, #7857, #22445, #81467 ) ) ;
#77613 = CARTESIAN_POINT ( 'NONE',  ( -2.220446049250313081E-12, 7.505553499463607281, 1.110223024625156540E-13 ) ) ;
#78024 = DIRECTION ( 'NONE',  ( -1.226545681759928211E-13, 3.453487495973568597E-14, 1.000000000000000000 ) ) ;
#78601 = EDGE_CURVE ( 'NONE', #71221, #67929, #87653, .T. ) ;
#78762 = VECTOR ( 'NONE', #257324, 1000.000000000000000 ) ;
#78826 = PRODUCT_DEFINITION_CONTEXT ( 'detailed design', #33146, 'design' ) ;
#79225 = UNCERTAINTY_MEASURE_WITH_UNIT (LENGTH_MEASURE( 1.000000000000000082E-05 ), #157469, 'distance_accuracy_value', 'NONE');
#79248 = CARTESIAN_POINT ( 'NONE',  ( 25.29999999999743565, -1.082467449009527627E-12, -2.220446049250313081E-12 ) ) ;
#79286 = CARTESIAN_POINT ( 'NONE',  ( 0.04687560305687382689, -6.145820286200412319, 2.355254138981210055 ) ) ;
#79471 = FACE_OUTER_BOUND ( 'NONE', #206280, .T. ) ;
#79556 = AXIS2_PLACEMENT_3D ( 'NONE', #237485, #122049, #186110 ) ;
#80636 = ORIENTED_EDGE ( 'NONE', *, *, #152692, .T. ) ;
#81069 = CARTESIAN_POINT ( 'NONE',  ( 0.000000000000000000, 0.000000000000000000, 0.000000000000000000 ) ) ;
#81467 = ORIENTED_EDGE ( 'NONE', *, *, #92069, .F. ) ;
#81734 = CARTESIAN_POINT ( 'NONE',  ( 0.01326549827819490344, -0.6304518297373772340, 6.500068725226163302 ) ) ;
#82091 = CIRCLE ( 'NONE', #92090, 6.500000000001995737 ) ;
#82281 = EDGE_CURVE ( 'NONE', #286230, #297258, #231461, .T. ) ;
#82436 = AXIS2_PLACEMENT_3D ( 'NONE', #145294, #47144, #170248 ) ;
#83132 = CIRCLE ( 'NONE', #242482, 6.500000000001995737 ) ;
#83143 = EDGE_LOOP ( 'NONE', ( #300487, #200969, #271402, #88554, #20516, #23970 ) ) ;
#83769 = CARTESIAN_POINT ( 'NONE',  ( 4.840572387365682516E-11, 2.775557561562891351E-14, -3.999999999999892530 ) ) ;
#84459 = SHAPE_DEFINITION_REPRESENTATION ( #103951, #30169 ) ;
#85121 = AXIS2_PLACEMENT_3D ( 'NONE', #79248, #214968, #143216 ) ;
#85220 = DIRECTION ( 'NONE',  ( 8.500145032286432071E-15, -1.000000000000000000, -4.790612351257594017E-14 ) ) ;
#85853 = CARTESIAN_POINT ( 'NONE',  ( 0.06970085888091495652, -6.263151584773380520, -2.151847309670272601 ) ) ;
#85913 = ORIENTED_EDGE ( 'NONE', *, *, #78601, .T. ) ;
#86563 = VECTOR ( 'NONE', #110945, 1000.000000000000000 ) ;
#86826 = FACE_OUTER_BOUND ( 'NONE', #98418, .T. ) ;
#87170 = CARTESIAN_POINT ( 'NONE',  ( 0.2536983531565411565, -2.499402211897213011, -6.499995447027173689 ) ) ;
#87173 = CARTESIAN_POINT ( 'NONE',  ( 4.700000000115611698, -3.752776749738479189, -6.500000000004058087 ) ) ;
#87465 = AXIS2_PLACEMENT_3D ( 'NONE', #74954, #4741, #169973 ) ;
#87653 = LINE ( 'NONE', #261731, #192552 ) ;
#88175 = CARTESIAN_POINT ( 'NONE',  ( 5.299999999997417888, 7.505553499464134859, 3.330669073875469621E-13 ) ) ;
#88554 = ORIENTED_EDGE ( 'NONE', *, *, #173964, .F. ) ;
#88591 = VERTEX_POINT ( 'NONE', #298245 ) ;
#88942 = LINE ( 'NONE', #184044, #78762 ) ;
#89070 = CARTESIAN_POINT ( 'NONE',  ( 0.1307459059394839862, 4.760493909947317803, 4.754580313309524797 ) ) ;
#90231 = FACE_OUTER_BOUND ( 'NONE', #62352, .T. ) ;
#90605 = CARTESIAN_POINT ( 'NONE',  ( 0.2016277880923340871, 4.548441862234137822, 5.121793289770095292 ) ) ;
#90912 = PLANE ( 'NONE',  #145500 ) ;
#91449 = CARTESIAN_POINT ( 'NONE',  ( 0.02768828917886696425, -5.231616358422472857, 3.938552998471786637 ) ) ;
#92069 = EDGE_CURVE ( 'NONE', #198725, #118807, #201380, .T. ) ;
#92090 = AXIS2_PLACEMENT_3D ( 'NONE', #20693, #92375, #282524 ) ;
#92207 = EDGE_CURVE ( 'NONE', #229090, #67929, #32159, .T. ) ;
#92375 = DIRECTION ( 'NONE',  ( -1.000000000000000000, 1.021405182654441615E-14, 1.395550341952862012E-13 ) ) ;
#92560 = ORIENTED_EDGE ( 'NONE', *, *, #183306, .T. ) ;
#92662 = DIRECTION ( 'NONE',  ( -1.227351553722733669E-13, 3.453487495973566703E-14, 1.000000000000000000 ) ) ;
#92691 = LINE ( 'NONE', #145591, #8689 ) ;
#92767 = CARTESIAN_POINT ( 'NONE',  ( 5.299999999997861977, -2.081668171172168513E-12, 2.442490654175344389E-12 ) ) ;
#93012 = CARTESIAN_POINT ( 'NONE',  ( 0.03369948430639261444, -5.190928048258673044, 4.009050077140150492 ) ) ;
#93837 = CONICAL_SURFACE ( 'NONE', #168379, 6.500000000001995737, 1.047197551196598297 ) ;
#94129 = CARTESIAN_POINT ( 'NONE',  ( 0.1319828455953457047, 1.745685576349127244, -6.499998686293778860 ) ) ;
#94713 = LINE ( 'NONE', #19919, #303552 ) ;
#94721 = CARTESIAN_POINT ( 'NONE',  ( -5.107025913275720086E-11, 1.387778780781445676E-13, 6.499999999999728217 ) ) ;
#95291 = CARTESIAN_POINT ( 'NONE',  ( 0.5805565837171400290, -3.752776749733594208, -6.499999999996619593 ) ) ;
#95516 = VERTEX_POINT ( 'NONE', #182113 ) ;
#96083 = CARTESIAN_POINT ( 'NONE',  ( 0.003356156263681586011, -5.470080465356599753, 3.525467862716740175 ) ) ;
#96192 = B_SPLINE_CURVE_WITH_KNOTS ( 'NONE', 3,
 ( #62474, #112305, #157528, #134156, #45216, #212052, #115389, #113831, #85853, #279106, #43652, #209019, #235403, #67107, #138755, #229261, #116921 ),
 .UNSPECIFIED., .F., .F.,
 ( 4, 2, 2, 2, 2, 1, 2, 2, 4 ),
 ( 0.000000000000000000, 0.1250000000000008327, 0.1875000000000009159, 0.2500000000000009992, 0.3750000000000012768, 0.4375000000000013878, 0.4687500000000013878, 0.5000000000000013323, 1.000000000000000000 ),
 .UNSPECIFIED. ) ;
#96246 = DIRECTION ( 'NONE',  ( 1.000000000000000000, -1.021405182654441615E-14, -1.395550341952862012E-13 ) ) ;
#96334 = PLANE ( 'NONE',  #297814 ) ;
#96812 = CARTESIAN_POINT ( 'NONE',  ( 0.1307459059421243741, -4.760493909942417723, -4.754580313318017559 ) ) ;
#97106 = EDGE_CURVE ( 'NONE', #153646, #215342, #69160, .T. ) ;
#97710 = VECTOR ( 'NONE', #277230, 1000.000000000000000 ) ;
#98341 = CARTESIAN_POINT ( 'NONE',  ( 0.4066829935012257757, -4.068977000854209436, -5.952048130679250093 ) ) ;
#98399 = ORIENTED_EDGE ( 'NONE', *, *, #202521, .F. ) ;
#98418 = EDGE_LOOP ( 'NONE', ( #64946, #219709, #92560 ) ) ;
#98540 = DIRECTION ( 'NONE',  ( -1.024180740216502436E-13, -0.4999999999998565592, 0.8660254037845214192 ) ) ;
#99198 = DIRECTION ( 'NONE',  ( -1.108002578575606713E-13, 0.4999999999998702704, 0.8660254037845135366 ) ) ;
#99599 = CARTESIAN_POINT ( 'NONE',  ( 0.02768828917915046317, 6.026695130039921189, 2.561436170012894031 ) ) ;
#99997 = ORIENTED_EDGE ( 'NONE', *, *, #231972, .T. ) ;
#100113 = FACE_OUTER_BOUND ( 'NONE', #246997, .T. ) ;
#100439 = ORIENTED_EDGE ( 'NONE', *, *, #141179, .T. ) ;
#100567 = LINE ( 'NONE', #287591, #174384 ) ;
#100933 = VERTEX_POINT ( 'NONE', #127477 ) ;
#100935 = CARTESIAN_POINT ( 'NONE',  ( 4.699999999997928057, 6.500000000001143974, -2.109423746787797427E-12 ) ) ;
#101139 = ORIENTED_EDGE ( 'NONE', *, *, #152692, .F. ) ;
#101297 = DIRECTION ( 'NONE',  ( 1.227351553722733669E-13, -3.453487495973566703E-14, -1.000000000000000000 ) ) ;
#101771 = DIRECTION ( 'NONE',  ( 1.000000000000000000, -1.021405182654441615E-14, -1.395550341952862012E-13 ) ) ;
#102635 = CARTESIAN_POINT ( 'NONE',  ( 0.2016277880928384059, -6.709824032994079701, 1.378169555443212513 ) ) ;
#102919 = VECTOR ( 'NONE', #289192, 1000.000000000000000 ) ;
#103044 = EDGE_LOOP ( 'NONE', ( #105907, #166718, #161144, #76546 ) ) ;
#103554 = DIRECTION ( 'NONE',  ( -1.000000000000000000, 1.021405182654441615E-14, 1.395550341952862012E-13 ) ) ;
#103951 = PRODUCT_DEFINITION_SHAPE ( 'NONE', 'NONE',  #132973 ) ;
#104041 = VERTEX_POINT ( 'NONE', #5443 ) ;
#104427 = CARTESIAN_POINT ( 'NONE',  ( 0.3953626095386643113, -3.111246005070026133, -6.500000000001922906 ) ) ;
#104710 = CARTESIAN_POINT ( 'NONE',  ( 5.699999999997817923, -2.192690473634684167E-12, 1.776356839400250465E-12 ) ) ;
#104781 = ORIENTED_EDGE ( 'NONE', *, *, #161430, .F. ) ;
#105485 = ORIENTED_EDGE ( 'NONE', *, *, #152629, .F. ) ;
#105907 = ORIENTED_EDGE ( 'NONE', *, *, #258154, .T. ) ;
#106371 = FACE_OUTER_BOUND ( 'NONE', #103044, .T. ) ;
#106373 = ORIENTED_EDGE ( 'NONE', *, *, #47425, .F. ) ;
#106634 = CARTESIAN_POINT ( 'NONE',  ( 0.1076349933472914161, -1.575419419362802831, 6.499989386813110670 ) ) ;
#106648 = ADVANCED_FACE ( 'NONE', ( #121473 ), #169468, .T. ) ;
#108372 = DIRECTION ( 'NONE',  ( -1.000000000000000000, 1.021405182654441615E-14, 1.395550341952862012E-13 ) ) ;
#108431 = ORIENTED_EDGE ( 'NONE', *, *, #125929, .F. ) ;
#109081 = ORIENTED_EDGE ( 'NONE', *, *, #161454, .F. ) ;
#109167 = CARTESIAN_POINT ( 'NONE',  ( 0.000000000000000000, 0.000000000000000000, 0.000000000000000000 ) ) ;
#109415 = CARTESIAN_POINT ( 'NONE',  ( 0.2679805558305041746, 4.376891551685452519, 5.418751050765132860 ) ) ;
#109946 = AXIS2_PLACEMENT_3D ( 'NONE', #174099, #172540, #195989 ) ;
#110086 = CARTESIAN_POINT ( 'NONE',  ( 5.299999999997861977, -2.081668171172168513E-12, 2.442490654175344389E-12 ) ) ;
#110561 = CARTESIAN_POINT ( 'NONE',  ( 0.09798166532495569681, -1.496966282390654435, -6.499998539893671712 ) ) ;
#110945 = DIRECTION ( 'NONE',  ( -1.000000000000000000, 1.021405182654441615E-14, 1.395550341952862012E-13 ) ) ;
#111027 = EDGE_CURVE ( 'NONE', #61123, #67929, #113945, .T. ) ;
#111168 = ORIENTED_EDGE ( 'NONE', *, *, #164025, .F. ) ;
#111241 = CARTESIAN_POINT ( 'NONE',  ( 0.1300427848061748992, -1.732618431106832668, 6.499998816670935931 ) ) ;
#111906 = CARTESIAN_POINT ( 'NONE',  ( 0.5805565836505266475, 3.752776749729097361, -6.499999999995176303 ) ) ;
#111918 = CIRCLE ( 'NONE', #42034, 6.500000000001995737 ) ;
#112111 = AXIS2_PLACEMENT_3D ( 'NONE', #298015, #201529, #156152 ) ;
#112305 = CARTESIAN_POINT ( 'NONE',  ( 3.231353402018717829E-13, -5.708865036480481159, -3.111955703273032725 ) ) ;
#112369 = AXIS2_PLACEMENT_3D ( 'NONE', #81069, #269706, #56131 ) ;
#112583 = AXIS2_PLACEMENT_3D ( 'NONE', #35763, #266514, #101297 ) ;
#113385 = CARTESIAN_POINT ( 'NONE',  ( 24.60949999994799242, 2.775557561562891351E-13, 4.000000000002223999 ) ) ;
#113683 = DIRECTION ( 'NONE',  ( -1.227650459921671153E-13, 3.453487495973568597E-14, 1.000000000000000000 ) ) ;
#113831 = CARTESIAN_POINT ( 'NONE',  ( 0.05342265689490693914, -6.184932959530719643, -2.287379482394404917 ) ) ;
#113945 = LINE ( 'NONE', #258969, #162115 ) ;
#113982 = CARTESIAN_POINT ( 'NONE',  ( -3.773032030579029488E-13, 5.470164245230088262, 3.525397601525360525 ) ) ;
#115270 = ORIENTED_EDGE ( 'NONE', *, *, #294496, .T. ) ;
#115389 = CARTESIAN_POINT ( 'NONE',  ( 0.03369948430796790989, -6.067403235980284748, -2.490950520436645110 ) ) ;
#115452 = ORIENTED_EDGE ( 'NONE', *, *, #218541, .T. ) ;
#116178 = DIRECTION ( 'NONE',  ( 1.000000000000000000, 8.500145032293116878E-15, -1.395550341952853429E-13 ) ) ;
#116761 = ORIENTED_EDGE ( 'NONE', *, *, #298849, .F. ) ;
#116921 = CARTESIAN_POINT ( 'NONE',  ( 0.5805565836496384691, -7.505553499466355305, 7.882583474838611437E-12 ) ) ;
#117016 = CARTESIAN_POINT ( 'NONE',  ( 4.699999999997928057, -1.859623566247137205E-12, -2.109423746787797427E-12 ) ) ;
#117105 = AXIS2_PLACEMENT_3D ( 'NONE', #148077, #271210, #78024 ) ;
#117228 = DIRECTION ( 'NONE',  ( 1.000000000000000000, -1.021405182654441615E-14, -1.395550341952862012E-13 ) ) ;
#117601 = ADVANCED_FACE ( 'NONE', ( #54278 ), #146250, .F. ) ;
#118048 = CARTESIAN_POINT ( 'NONE',  ( 0.1145415415393528369, 4.818457369978884408, -4.654150213892120469 ) ) ;
#118807 = VERTEX_POINT ( 'NONE', #113385 ) ;
#118943 = B_SPLINE_CURVE_WITH_KNOTS ( 'NONE', 3,
 ( #94721, #65213, #284801, #189795, #160198, #185167, #280238, #255413, #211670, #233471, #66731, #188222, #259989, #210145, #46360, #147532, #50959 ),
 .UNSPECIFIED., .F., .F.,
 ( 4, 2, 2, 2, 2, 1, 2, 2, 4 ),
 ( 0.000000000000000000, 0.1249999999999997502, 0.1874999999999996669, 0.2499999999999996114, 0.3749999999999994449, 0.4374999999999994449, 0.4687499999999993894, 0.4999999999999993339, 1.000000000000000000 ),
 .UNSPECIFIED. ) ;
#119021 = CARTESIAN_POINT ( 'NONE',  ( 8.000399828571053834E-13, 0.3182799045465039556, -6.500000000002004619 ) ) ;
#119427 = AXIS2_PLACEMENT_3D ( 'NONE', #181822, #156879, #158426 ) ;
#120058 = VECTOR ( 'NONE', #8913, 1000.000000000000000 ) ;
#120377 = DIRECTION ( 'NONE',  ( 1.000000000000000000, -1.021405182654441615E-14, -1.395550341952862012E-13 ) ) ;
#120840 = CIRCLE ( 'NONE', #41420, 4.400000000001351275 ) ;
#121185 = PRODUCT ( '\X2\04120438043d0442\X0\ \X2\041c\X0\8\X2\0445\X0\20 DIN 931', '\X2\04120438043d0442\X0\ \X2\041c\X0\8\X2\0445\X0\20 DIN 931', '', ( #157670 ) ) ;
#121473 = FACE_OUTER_BOUND ( 'NONE', #34960, .T. ) ;
#121483 = EDGE_CURVE ( 'NONE', #236221, #129078, #182822, .T. ) ;
#122049 = DIRECTION ( 'NONE',  ( 1.000000000000000000, -1.021405182654441615E-14, -1.395550341952862012E-13 ) ) ;
#122119 = AXIS2_PLACEMENT_3D ( 'NONE', #226624, #128471, #103554 ) ;
#122642 = DIRECTION ( 'NONE',  ( -1.395550341952865546E-13, -3.453487495973294704E-14, -1.000000000000000000 ) ) ;
#122743 = DIRECTION ( 'NONE',  ( 1.000000000000000000, 8.500145032293116878E-15, -1.395550341952853429E-13 ) ) ;
#122934 = CARTESIAN_POINT ( 'NONE',  ( 0.05342265689522328331, 6.184932959529999330, 2.287379482399737096 ) ) ;
#123367 = CARTESIAN_POINT ( 'NONE',  ( 0.1307459059383683231, 6.497834290628257570, -1.745418503935181498 ) ) ;
#124135 = ORIENTED_EDGE ( 'NONE', *, *, #111027, .T. ) ;
#124367 = DIRECTION ( 'NONE',  ( 1.000000000000000000, 8.500145032293116878E-15, -1.395550341952853429E-13 ) ) ;
#124760 = AXIS2_PLACEMENT_3D ( 'NONE', #52854, #150935, #31012 ) ;
#124919 = CARTESIAN_POINT ( 'NONE',  ( 0.1817083958721096015, 6.652873880991868383, -1.476856398551799288 ) ) ;
#125163 = EDGE_CURVE ( 'NONE', #286230, #21680, #25657, .T. ) ;
#125464 = VERTEX_POINT ( 'NONE', #266433 ) ;
#125929 = EDGE_CURVE ( 'NONE', #255492, #198725, #250422, .T. ) ;
#126367 = CIRCLE ( 'NONE', #71709, 4.000000000001228351 ) ;
#127477 = CARTESIAN_POINT ( 'NONE',  ( 4.700000000115167609, -5.629165124602070414, -3.250000000002972733 ) ) ;
#127732 = CARTESIAN_POINT ( 'NONE',  ( 4.699999999999260325, 7.505553499465827727, -5.551115123125782702E-13 ) ) ;
#127772 = CARTESIAN_POINT ( 'NONE',  ( 5.299999999997861977, -2.081668171172168513E-12, 2.442490654175344389E-12 ) ) ;
#128471 = DIRECTION ( 'NONE',  ( -6.093188874029677223E-14, 0.8660254037843910790, -0.5000000000000823785 ) ) ;
#128811 = CARTESIAN_POINT ( 'NONE',  ( 25.30000000005117045, 1.110223024625156540E-13, -3.309500000002407738 ) ) ;
#129078 = VERTEX_POINT ( 'NONE', #285622 ) ;
#129091 = CARTESIAN_POINT ( 'NONE',  ( 0.3006270603006175879, -6.957777957140067748, 0.9484761040546880739 ) ) ;
#129482 = CARTESIAN_POINT ( 'NONE',  ( 25.29999999999743565, -1.082467449009527627E-12, -2.220446049250313081E-12 ) ) ;
#130045 = ORIENTED_EDGE ( 'NONE', *, *, #59748, .F. ) ;
#130336 = CARTESIAN_POINT ( 'NONE',  ( 0.000000000000000000, 0.000000000000000000, 0.000000000000000000 ) ) ;
#130620 = ORIENTED_EDGE ( 'NONE', *, *, #44777, .T. ) ;
#130640 = CARTESIAN_POINT ( 'NONE',  ( 0.1082729533035847597, -6.419208835489721210, 1.881580369164201461 ) ) ;
#130814 = DIRECTION ( 'NONE',  ( -1.024180740216502436E-13, -0.4999999999998565592, 0.8660254037845214192 ) ) ;
#131203 = EDGE_LOOP ( 'NONE', ( #301783, #133345, #139191, #230903, #231136, #54193 ) ) ;
#131255 = EDGE_CURVE ( 'NONE', #67929, #100933, #52543, .T. ) ;
#131397 = ORIENTED_EDGE ( 'NONE', *, *, #209902, .T. ) ;
#131967 = FACE_OUTER_BOUND ( 'NONE', #252513, .T. ) ;
#132302 = ORIENTED_EDGE ( 'NONE', *, *, #251646, .F. ) ;
#132390 = CARTESIAN_POINT ( 'NONE',  ( 0.05286053746966485473, -1.105353580987425755, -6.500066308275092020 ) ) ;
#132668 = ADVANCED_FACE ( 'NONE', ( #194561 ), #74563, .F. ) ;
#132973 = PRODUCT_DEFINITION ( 'UNKNOWN', '', #71968, #78826 ) ;
#133083 = CARTESIAN_POINT ( 'NONE',  ( 0.07869316344277320352, -1.340207479566872584, 6.500015151733639307 ) ) ;
#133345 = ORIENTED_EDGE ( 'NONE', *, *, #235155, .T. ) ;
#133619 = ADVANCED_FACE ( 'NONE', ( #210726 ), #229459, .F. ) ;
#134081 = CONICAL_SURFACE ( 'NONE', #19701, 6.500000000001995737, 1.047197551196598297 ) ;
#134156 = CARTESIAN_POINT ( 'NONE',  ( 0.01342462505696104258, -5.907329089072331563, -2.768132330895295645 ) ) ;
#134458 = ADVANCED_FACE ( 'NONE', ( #195073 ), #8485, .T. ) ;
#134488 = DIRECTION ( 'NONE',  ( -8.500145032286432071E-15, 1.000000000000000000, 4.790612351257594017E-14 ) ) ;
#135102 = VERTEX_POINT ( 'NONE', #143683 ) ;
#135299 = CARTESIAN_POINT ( 'NONE',  ( 0.2548172889980768741, 4.377054078189853925, -5.418710900080869308 ) ) ;
#135852 = CARTESIAN_POINT ( 'NONE',  ( 0.07033353053743990335, 4.995916458282031236, 4.346868898079848442 ) ) ;
#137373 = CARTESIAN_POINT ( 'NONE',  ( 0.05408856235146589087, 5.074244313804086914, 4.211252662425058801 ) ) ;
#137476 = AXIS2_PLACEMENT_3D ( 'NONE', #65055, #255267, #68128 ) ;
#137592 = ORIENTED_EDGE ( 'NONE', *, *, #231972, .F. ) ;
#137632 = DIRECTION ( 'NONE',  ( -1.000000000000000000, 1.021405182654441615E-14, 1.395550341952862012E-13 ) ) ;
#138755 = CARTESIAN_POINT ( 'NONE',  ( 0.2548172890088014064, -6.881268334358233929, -1.081284575382482016 ) ) ;
#138840 = ADVANCED_FACE ( 'NONE', ( #14058 ), #194075, .T. ) ;
#139191 = ORIENTED_EDGE ( 'NONE', *, *, #218541, .F. ) ;
#140307 = DIRECTION ( 'NONE',  ( 1.024180740216502436E-13, 0.4999999999998565592, -0.8660254037845214192 ) ) ;
#140502 = CARTESIAN_POINT ( 'NONE',  ( 0.4882088420236837534, -3.912727730114059721, -6.222956775267536322 ) ) ;
#140747 = CARTESIAN_POINT ( 'NONE',  ( 4.699999999949966423, 3.752776749732761097, 6.500000000000283329 ) ) ;
#141179 = EDGE_CURVE ( 'NONE', #39013, #135102, #50467, .T. ) ;
#141367 = ADVANCED_FACE ( 'NONE', ( #100113 ), #75463, .T. ) ;
#141937 = ORIENTED_EDGE ( 'NONE', *, *, #301441, .T. ) ;
#142405 = APPLICATION_CONTEXT ( 'automotive_design' ) ;
#142512 = CARTESIAN_POINT ( 'NONE',  ( 0.000000000000000000, 0.000000000000000000, 0.000000000000000000 ) ) ;
#142534 = EDGE_CURVE ( 'NONE', #150559, #286230, #217066, .T. ) ;
#143216 = DIRECTION ( 'NONE',  ( -1.227351553722733669E-13, 3.453487495973567334E-14, 1.000000000000000000 ) ) ;
#143297 = ORIENTED_EDGE ( 'NONE', *, *, #82281, .T. ) ;
#143683 = CARTESIAN_POINT ( 'NONE',  ( 4.973799150320701301E-11, 7.077671781985372945E-13, -6.500000000002170708 ) ) ;
#143763 = EDGE_LOOP ( 'NONE', ( #55779, #251481, #271643 ) ) ;
#143957 = CARTESIAN_POINT ( 'NONE',  ( 4.699999999947745977, -3.191891195797325054E-12, 6.500000000002170708 ) ) ;
#144086 = ADVANCED_FACE ( 'NONE', ( #106371 ), #17403, .T. ) ;
#144198 = DIRECTION ( 'NONE',  ( -1.000000000000000000, 1.021405182654441615E-14, 1.395550341952862012E-13 ) ) ;
#145215 = CARTESIAN_POINT ( 'NONE',  ( 0.05408856235058445705, 6.184173944311212701, -2.288798149561363182 ) ) ;
#145264 = ORIENTED_EDGE ( 'NONE', *, *, #202521, .T. ) ;
#145294 = CARTESIAN_POINT ( 'NONE',  ( 0.000000000000000000, 0.000000000000000000, 0.000000000000000000 ) ) ;
#145468 = DIRECTION ( 'NONE',  ( -1.000000000000000000, 1.021405182654441615E-14, 1.395550341952862012E-13 ) ) ;
#145500 = AXIS2_PLACEMENT_3D ( 'NONE', #186009, #70660, #240475 ) ;
#145591 = CARTESIAN_POINT ( 'NONE',  ( -5.107025913275720086E-11, -2.553512956637860043E-12, 4.000000000001335820 ) ) ;
#145808 = DIRECTION ( 'NONE',  ( 6.093188874029677223E-14, -0.8660254037843910790, 0.5000000000000823785 ) ) ;
#145892 = ORIENTED_EDGE ( 'NONE', *, *, #231982, .T. ) ;
#146250 = PLANE ( 'NONE',  #85121 ) ;
#146518 = DIRECTION ( 'NONE',  ( 1.228105369924112406E-13, -3.453487495973566072E-14, -1.000000000000000000 ) ) ;
#146529 = CARTESIAN_POINT ( 'NONE',  ( 0.003316374570533993284, -0.3158004311135033659, -6.499981248628994734 ) ) ;
#146657 = DIRECTION ( 'NONE',  ( -1.000000000000000000, 1.021405182654441615E-14, 1.395550341952862012E-13 ) ) ;
#146706 = CARTESIAN_POINT ( 'NONE',  ( 4.840572387365682516E-11, 5.629165124597795611, -3.249999999999086953 ) ) ;
#147532 = CARTESIAN_POINT ( 'NONE',  ( 0.3967958080824373623, 3.116210750465586710, 6.500000000001834088 ) ) ;
#148077 = CARTESIAN_POINT ( 'NONE',  ( 25.29999999999743565, -1.082467449009527627E-12, -2.220446049250313081E-12 ) ) ;
#148337 = ORIENTED_EDGE ( 'NONE', *, *, #221758, .F. ) ;
#148905 = CARTESIAN_POINT ( 'NONE',  ( 0.1505885036324110526, -4.699098183118008976, 4.860923762658626579 ) ) ;
#149134 = ORIENTED_EDGE ( 'NONE', *, *, #47425, .T. ) ;
#150559 = VERTEX_POINT ( 'NONE', #143957 ) ;
#150935 = DIRECTION ( 'NONE',  ( 1.000000000000000000, -1.021405182654441615E-14, -1.395550341952862012E-13 ) ) ;
#150968 = CARTESIAN_POINT ( 'NONE',  ( 5.299999999948123985, 3.752776749731650874, 6.500000000005057288 ) ) ;
#151114 = CARTESIAN_POINT ( 'NONE',  ( 4.973799150320701301E-11, 7.077671781985372945E-13, -6.500000000002170708 ) ) ;
#151542 = DIRECTION ( 'NONE',  ( 1.227351553722733669E-13, -3.453487495973566703E-14, -1.000000000000000000 ) ) ;
#152406 = CARTESIAN_POINT ( 'NONE',  ( 0.4882088420230082937, -7.345602519095130845, 0.2770432247340284260 ) ) ;
#152629 = EDGE_CURVE ( 'NONE', #125464, #165059, #269477, .T. ) ;
#152692 = EDGE_CURVE ( 'NONE', #61123, #60120, #183650, .T. ) ;
#153646 = VERTEX_POINT ( 'NONE', #295490 ) ;
#154253 = DIRECTION ( 'NONE',  ( 1.227351553722733669E-13, -3.453487495973566703E-14, -1.000000000000000000 ) ) ;
#155307 = PLANE ( 'NONE',  #9044 ) ;
#155351 = CIRCLE ( 'NONE', #45910, 0.4000000000001224798 ) ;
#156053 = AXIS2_PLACEMENT_3D ( 'NONE', #92767, #67891, #282887 ) ;
#156152 = DIRECTION ( 'NONE',  ( -1.227351553722733669E-13, 3.453487495973567334E-14, 1.000000000000000000 ) ) ;
#156279 = ORIENTED_EDGE ( 'NONE', *, *, #308175, .T. ) ;
#156344 = B_SPLINE_CURVE_WITH_KNOTS ( 'NONE', 3,
 ( #61391, #298298, #229732, #248542, #39580, #38031, #16137, #201807, #14619, #56802, #111241, #106634, #133083, #301364, #226644, #182927, #81734, #13083, #176764 ),
 .UNSPECIFIED., .F., .F.,
 ( 4, 2, 2, 1, 2, 2, 2, 2, 2, 4 ),
 ( 0.000000000000000000, 0.2500000000000000555, 0.3750000000000001110, 0.4375000000000001110, 0.4687500000000001110, 0.5000000000000001110, 0.6250000000000001110, 0.6875000000000001110, 0.7500000000000002220, 1.000000000000000000 ),
 .UNSPECIFIED. ) ;
#156879 = DIRECTION ( 'NONE',  ( -1.000000000000000000, 1.021405182654441615E-14, 1.395550341952862012E-13 ) ) ;
#157465 = EDGE_LOOP ( 'NONE', ( #202403, #143297, #35223, #5834, #182663, #52524 ) ) ;
#157469 = ( LENGTH_UNIT ( ) NAMED_UNIT ( * ) SI_UNIT ( .MILLI., .METRE. ) );
#157528 = CARTESIAN_POINT ( 'NONE',  ( 0.003356156264475987448, -5.788184962005701095, -2.974494712407536046 ) ) ;
#157670 = PRODUCT_CONTEXT ( 'NONE', #142405, 'mechanical' ) ;
#158073 = DIRECTION ( 'NONE',  ( 0.000000000000000000, 0.000000000000000000, 1.000000000000000000 ) ) ;
#158426 = DIRECTION ( 'NONE',  ( -1.226545681759928211E-13, 3.453487495973568597E-14, 1.000000000000000000 ) ) ;
#158562 = ORIENTED_EDGE ( 'NONE', *, *, #217591, .F. ) ;
#158643 = CARTESIAN_POINT ( 'NONE',  ( 0.1505885036336992444, 4.699098183117998317, -4.860923762658670100 ) ) ;
#158736 = EDGE_CURVE ( 'NONE', #215342, #88591, #279548, .T. ) ;
#158901 = DIRECTION ( 'NONE',  ( 1.000000000000000000, -1.021405182654441615E-14, -1.395550341952862012E-13 ) ) ;
#158907 = CARTESIAN_POINT ( 'NONE',  ( 4.699999999997928057, -1.859623566247137205E-12, -2.109423746787797427E-12 ) ) ;
#159174 = EDGE_CURVE ( 'NONE', #165059, #233811, #44871, .T. ) ;
#159397 = CARTESIAN_POINT ( 'NONE',  ( 4.700000000048554227, 3.752776749731428829, -6.500000000002392753 ) ) ;
#159473 = CARTESIAN_POINT ( 'NONE',  ( 24.60949999999728632, -1.110223024625156540E-13, 1.110223024625156540E-12 ) ) ;
#159543 = ORIENTED_EDGE ( 'NONE', *, *, #64405, .T. ) ;
#159866 = ORIENTED_EDGE ( 'NONE', *, *, #23223, .F. ) ;
#160198 = CARTESIAN_POINT ( 'NONE',  ( 0.01769969666992432175, 0.6358739499457195521, 6.500110220271337447 ) ) ;
#161144 = ORIENTED_EDGE ( 'NONE', *, *, #181091, .T. ) ;
#161297 = ORIENTED_EDGE ( 'NONE', *, *, #279753, .T. ) ;
#161430 = EDGE_CURVE ( 'NONE', #39013, #215342, #96192, .T. ) ;
#161454 = EDGE_CURVE ( 'NONE', #153646, #100933, #68655, .T. ) ;
#162115 = VECTOR ( 'NONE', #73391, 1000.000000000000000 ) ;
#163095 = CARTESIAN_POINT ( 'NONE',  ( 0.09881229225356064072, -4.877404344036854411, 4.552034563038759529 ) ) ;
#163529 = CARTESIAN_POINT ( 'NONE',  ( 0.1505885036329423221, 6.559232555883770743, 1.639076520125309688 ) ) ;
#163792 = CARTESIAN_POINT ( 'NONE',  ( 0.07923451268670174408, 4.956746323331337578, 4.414687408519518463 ) ) ;
#164025 = EDGE_CURVE ( 'NONE', #71221, #279181, #245529, .T. ) ;
#164241 = LINE ( 'NONE', #167330, #184713 ) ;
#164362 = CIRCLE ( 'NONE', #119427, 3.309500000001015962 ) ;
#164473 = ORIENTED_EDGE ( 'NONE', *, *, #39216, .F. ) ;
#164832 = CARTESIAN_POINT ( 'NONE',  ( 0.05342265689779607252, 5.073395219615722596, -4.212619322463288185 ) ) ;
#165059 = VERTEX_POINT ( 'NONE', #237858 ) ;
#165793 = CARTESIAN_POINT ( 'NONE',  ( 0.05452136200806010496, 1.113764486932455888, -6.500162534721360075 ) ) ;
#166330 = DIRECTION ( 'NONE',  ( -1.235990476633096654E-13, 3.453487495973533256E-14, 1.000000000000000000 ) ) ;
#166650 = CARTESIAN_POINT ( 'NONE',  ( -5.240252676230738871E-11, 5.629165124594575964, 3.250000000002528644 ) ) ;
#166718 = ORIENTED_EDGE ( 'NONE', *, *, #30137, .T. ) ;
#166946 = CARTESIAN_POINT ( 'NONE',  ( 0.01339302944533422683, -5.312457294805931873, -3.798681692229845641 ) ) ;
#167330 = CARTESIAN_POINT ( 'NONE',  ( 5.299999999997417888, 7.505553499464134859, 3.330669073875469621E-13 ) ) ;
#167906 = DIRECTION ( 'NONE',  ( -1.227650459921671153E-13, 3.453487495973568597E-14, 1.000000000000000000 ) ) ;
#168180 = CARTESIAN_POINT ( 'NONE',  ( 0.01342462505640071822, 5.907329089081450491, 2.768132330875819225 ) ) ;
#168379 = AXIS2_PLACEMENT_3D ( 'NONE', #56714, #8405, #179759 ) ;
#168619 = CARTESIAN_POINT ( 'NONE',  ( 0.07923451268461531583, 6.301604607200136599, -2.085324531881757704 ) ) ;
#168875 = CARTESIAN_POINT ( 'NONE',  ( 0.07094203378130582716, 1.271622694180242652, -6.500113791695691923 ) ) ;
#169468 = CONICAL_SURFACE ( 'NONE', #124760, 6.500000000001995737, 1.047197551196598297 ) ;
#169973 = DIRECTION ( 'NONE',  ( 1.227351553722733669E-13, -3.453487495973566703E-14, -1.000000000000000000 ) ) ;
#170168 = CARTESIAN_POINT ( 'NONE',  ( 0.3006270602943421633, 6.957777957126126900, -0.9484761040716916947 ) ) ;
#170248 = DIRECTION ( 'NONE',  ( -1.227351553722733669E-13, 3.453487495973566703E-14, 1.000000000000000000 ) ) ;
#170377 = VERTEX_POINT ( 'NONE', #34138 ) ;
#170982 = CARTESIAN_POINT ( 'NONE',  ( 25.30000000005117045, 1.110223024625156540E-13, -3.309500000002407738 ) ) ;
#171440 = AXIS2_PLACEMENT_3D ( 'NONE', #159473, #137632, #19144 ) ;
#171667 = CARTESIAN_POINT ( 'NONE',  ( 0.2230690090189979824, 6.766876188049601559, -1.279288402389725965 ) ) ;
#171739 = CARTESIAN_POINT ( 'NONE',  ( 25.29999999999743565, -1.082467449009527627E-12, -2.220446049250313081E-12 ) ) ;
#172320 = EDGE_LOOP ( 'NONE', ( #149134, #130620 ) ) ;
#172540 = DIRECTION ( 'NONE',  ( 1.000000000000000000, -1.021405182654441615E-14, -1.395550341952862012E-13 ) ) ;
#172768 = CARTESIAN_POINT ( 'NONE',  ( 5.299999999997861977, -2.081668171172168513E-12, 2.442490654175344389E-12 ) ) ;
#173179 = CARTESIAN_POINT ( 'NONE',  ( 0.1687669852182968888, 6.614919921520258761, -1.542616557232011409 ) ) ;
#173602 = AXIS2_PLACEMENT_3D ( 'NONE', #172768, #55861, #10625 ) ;
#173640 = AXIS2_PLACEMENT_3D ( 'NONE', #270500, #61529, #200426 ) ;
#173964 = EDGE_CURVE ( 'NONE', #219698, #88591, #248666, .T. ) ;
#174099 = CARTESIAN_POINT ( 'NONE',  ( 5.699999999997817923, -2.192690473634684167E-12, 1.776356839400250465E-12 ) ) ;
#174384 = VECTOR ( 'NONE', #222076, 1000.000000000000000 ) ;
#174749 = LINE ( 'NONE', #32893, #39413 ) ;
#174799 = DIRECTION ( 'NONE',  ( 1.000000000000000000, -1.021405182654441615E-14, -1.395550341952862012E-13 ) ) ;
#176088 = CIRCLE ( 'NONE', #156053, 6.500000000001995737 ) ;
#176319 = DIRECTION ( 'NONE',  ( 1.227316859253214133E-13, -3.453487495973569859E-14, -1.000000000000000000 ) ) ;
#176764 = CARTESIAN_POINT ( 'NONE',  ( -5.107025913275720086E-11, 1.387778780781445676E-13, 6.499999999999728217 ) ) ;
#177109 = DIRECTION ( 'NONE',  ( -1.000000000000000000, 1.021405182654441615E-14, 1.395550341952862012E-13 ) ) ;
#177576 = DIRECTION ( 'NONE',  ( -1.000000000000000000, 1.021405182654441615E-14, 1.395550341952862012E-13 ) ) ;
#178696 = DIRECTION ( 'NONE',  ( -1.227351553722726601E-13, -4.790612351257698147E-14, 1.000000000000000000 ) ) ;
#179759 = DIRECTION ( 'NONE',  ( 1.227351553722733669E-13, -3.453487495973566703E-14, -1.000000000000000000 ) ) ;
#179939 = DIRECTION ( 'NONE',  ( 1.000000000000000000, 0.000000000000000000, 0.000000000000000000 ) ) ;
#180393 = DIRECTION ( 'NONE',  ( -1.000000000000000000, 1.021405182654441615E-14, 1.395550341952862012E-13 ) ) ;
#180705 = ORIENTED_EDGE ( 'NONE', *, *, #209902, .F. ) ;
#181091 = EDGE_CURVE ( 'NONE', #104041, #236221, #126367, .T. ) ;
#181466 = EDGE_CURVE ( 'NONE', #297258, #219698, #156344, .T. ) ;
#181822 = CARTESIAN_POINT ( 'NONE',  ( 25.29999999999743565, -1.082467449009527627E-12, -2.220446049250313081E-12 ) ) ;
#181874 = CARTESIAN_POINT ( 'NONE',  ( 0.000000000000000000, 0.000000000000000000, 0.000000000000000000 ) ) ;
#182113 = CARTESIAN_POINT ( 'NONE',  ( 4.700000000048554227, 3.752776749731428829, -6.500000000002392753 ) ) ;
#182220 = DIRECTION ( 'NONE',  ( 1.024180740216502436E-13, 0.4999999999998565592, -0.8660254037845214192 ) ) ;
#182590 = CARTESIAN_POINT ( 'NONE',  ( 0.1687669852185011976, 4.643405087621635730, 4.957380417419543939 ) ) ;
#182663 = ORIENTED_EDGE ( 'NONE', *, *, #97106, .F. ) ;
#182822 = CIRCLE ( 'NONE', #33504, 0.4000000000001224798 ) ;
#182853 = ADVANCED_FACE ( 'NONE', ( #271200 ), #37361, .T. ) ;
#182927 = CARTESIAN_POINT ( 'NONE',  ( 0.04642924397568876094, -1.028203287479839911, 6.500068677817916196 ) ) ;
#183283 = CARTESIAN_POINT ( 'NONE',  ( 1.172395514004165307E-10, -5.629165124599405878, -3.250000000000308198 ) ) ;
#183306 = EDGE_CURVE ( 'NONE', #233811, #125464, #221835, .T. ) ;
#183650 = CIRCLE ( 'NONE', #173602, 6.500000000001995737 ) ;
#183680 = CARTESIAN_POINT ( 'NONE',  ( 5.300000000048932236, 3.752776749731095762, -6.500000000000949463 ) ) ;
#184044 = CARTESIAN_POINT ( 'NONE',  ( -5.107025913275720086E-11, 1.387778780781445676E-13, 6.499999999999728217 ) ) ;
#184149 = CIRCLE ( 'NONE', #263837, 6.500000000001995737 ) ;
#184172 = CARTESIAN_POINT ( 'NONE',  ( 0.3006270602998564745, 4.300293379564814167, 5.551374412742202225 ) ) ;
#184713 = VECTOR ( 'NONE', #145468, 1000.000000000000000 ) ;
#184881 = ORIENTED_EDGE ( 'NONE', *, *, #131255, .F. ) ;
#185167 = CARTESIAN_POINT ( 'NONE',  ( 0.02781380905319201860, 0.7954656537013345963, 6.500163072615136706 ) ) ;
#185429 = EDGE_LOOP ( 'NONE', ( #7560, #130045, #193274, #44077, #98399, #184881 ) ) ;
#185700 = CARTESIAN_POINT ( 'NONE',  ( 0.1627295870160732627, 4.661564094183609619, 4.925934737532162266 ) ) ;
#185882 = VERTEX_POINT ( 'NONE', #191579 ) ;
#186009 = CARTESIAN_POINT ( 'NONE',  ( 4.699999999997928057, 6.500000000001143974, -2.109423746787797427E-12 ) ) ;
#186110 = DIRECTION ( 'NONE',  ( 1.227351553722733669E-13, -3.453487495973566703E-14, -1.000000000000000000 ) ) ;
#186455 = AXIS2_PLACEMENT_3D ( 'NONE', #181874, #297240, #276969 ) ;
#186741 = CIRCLE ( 'NONE', #117105, 3.309500000001015962 ) ;
#187797 = DIRECTION ( 'NONE',  ( -1.000000000000000000, 1.021405182654441615E-14, 1.395550341952862012E-13 ) ) ;
#187865 = VERTEX_POINT ( 'NONE', #217650 ) ;
#187941 = EDGE_LOOP ( 'NONE', ( #141937, #264608, #159543 ) ) ;
#188071 = CARTESIAN_POINT ( 'NONE',  ( 0.1320310897166845077, -4.759281907708415638, 4.756667356946426395 ) ) ;
#188203 = CARTESIAN_POINT ( 'NONE',  ( 0.01342462505719247377, 5.350937464108691088, -3.731830894231047413 ) ) ;
#188222 = CARTESIAN_POINT ( 'NONE',  ( 0.1329605952426666515, 1.745926560518080706, 6.500005344696437426 ) ) ;
#188367 = DIRECTION ( 'NONE',  ( 1.000000000000000000, -1.021405182654441615E-14, -1.395550341952862012E-13 ) ) ;
#188511 = CARTESIAN_POINT ( 'NONE',  ( 0.1440819660359532739, 6.538558816894094683, 1.674880569878723469 ) ) ;
#188775 = AXIS2_PLACEMENT_3D ( 'NONE', #246986, #13075, #250092 ) ;
#189497 = EDGE_CURVE ( 'NONE', #21680, #153646, #94713, .T. ) ;
#189689 = CARTESIAN_POINT ( 'NONE',  ( 4.700000000048554227, 3.752776749731428829, -6.500000000002392753 ) ) ;
#189795 = CARTESIAN_POINT ( 'NONE',  ( 0.01348548317689598521, 0.5562760073969421626, 6.500079815036335695 ) ) ;
#190063 = CARTESIAN_POINT ( 'NONE',  ( 0.3960962806459574770, 7.186058882774545964, 0.5533809088649008778 ) ) ;
#191061 = EDGE_LOOP ( 'NONE', ( #50362, #243957, #275888, #57938 ) ) ;
#191550 = CARTESIAN_POINT ( 'NONE',  ( 5.299999999949900342, -4.607425552194399643E-12, 6.500000000008387957 ) ) ;
#191579 = CARTESIAN_POINT ( 'NONE',  ( 5.300000000050264504, -3.275157922644211794E-12, -4.399999999998738254 ) ) ;
#191889 = CARTESIAN_POINT ( 'NONE',  ( 3.762926927518285685E-13, -5.470164245220633603, -3.525397601541731873 ) ) ;
#192270 = AXIS2_PLACEMENT_3D ( 'NONE', #47650, #145808, #284591 ) ;
#192552 = VECTOR ( 'NONE', #24768, 1000.000000000000000 ) ;
#192687 = CARTESIAN_POINT ( 'NONE',  ( 0.01342462505616794956, -5.350937464113833641, 3.731830894223677308 ) ) ;
#193274 = ORIENTED_EDGE ( 'NONE', *, *, #8130, .T. ) ;
#193782 = EDGE_CURVE ( 'NONE', #135102, #279181, #305553, .T. ) ;
#194075 = CONICAL_SURFACE ( 'NONE', #24674, 6.500000000001995737, 1.047197551196598297 ) ;
#194561 = FACE_OUTER_BOUND ( 'NONE', #83143, .T. ) ;
#194802 = PLANE ( 'NONE',  #300590 ) ;
#195073 = FACE_OUTER_BOUND ( 'NONE', #77529, .T. ) ;
#195989 = DIRECTION ( 'NONE',  ( -1.395550341952865546E-13, -3.453487495973294704E-14, -1.000000000000000000 ) ) ;
#196642 = CARTESIAN_POINT ( 'NONE',  ( 0.1082729533012279088, 6.419208835476834629, -1.881580369190011259 ) ) ;
#196798 = ORIENTED_EDGE ( 'NONE', *, *, #70515, .F. ) ;
#197782 = CARTESIAN_POINT ( 'NONE',  ( 0.1307459059397742263, -6.497834290636117061, 1.745418503917363973 ) ) ;
#198725 = VERTEX_POINT ( 'NONE', #6003 ) ;
#199826 = DIRECTION ( 'NONE',  ( 1.227316859253214133E-13, -3.453487495973569859E-14, -1.000000000000000000 ) ) ;
#200426 = DIRECTION ( 'NONE',  ( -1.227351553722733669E-13, 3.453487495973567334E-14, 1.000000000000000000 ) ) ;
#200644 = FACE_OUTER_BOUND ( 'NONE', #230032, .T. ) ;
#200662 = ORIENTED_EDGE ( 'NONE', *, *, #251646, .T. ) ;
#200969 = ORIENTED_EDGE ( 'NONE', *, *, #141179, .F. ) ;
#201119 = CARTESIAN_POINT ( 'NONE',  ( 0.06903983542048476585, -1.261754696135036991, -6.500022533938005331 ) ) ;
#201380 = CIRCLE ( 'NONE', #276491, 4.000000000001228351 ) ;
#201529 = DIRECTION ( 'NONE',  ( -1.000000000000000000, 1.021405182654441615E-14, 1.395550341952862012E-13 ) ) ;
#201807 = CARTESIAN_POINT ( 'NONE',  ( 0.1809499513390922243, -2.043067497718313863, 6.499985795573423708 ) ) ;
#201864 = VECTOR ( 'NONE', #180393, 1000.000000000000000 ) ;
#202398 = CARTESIAN_POINT ( 'NONE',  ( 0.1627295870163645297, -6.596766667181805488, 1.574065558163636913 ) ) ;
#202403 = ORIENTED_EDGE ( 'NONE', *, *, #125163, .F. ) ;
#202521 = EDGE_CURVE ( 'NONE', #100933, #21680, #82091, .T. ) ;
#202652 = EDGE_LOOP ( 'NONE', ( #40295, #33452, #207530, #263398 ) ) ;
#203517 = VECTOR ( 'NONE', #219833, 1000.000000000000000 ) ;
#203697 = DIRECTION ( 'NONE',  ( 1.228105369924112406E-13, -3.453487495973566072E-14, -1.000000000000000000 ) ) ;
#204087 = LINE ( 'NONE', #183680, #97710 ) ;
#204800 = EDGE_LOOP ( 'NONE', ( #161297, #11903, #260558 ) ) ;
#205784 = CARTESIAN_POINT ( 'NONE',  ( 0.000000000000000000, 0.000000000000000000, 0.000000000000000000 ) ) ;
#205788 = CARTESIAN_POINT ( 'NONE',  ( 24.60949999999728632, -1.110223024625156540E-13, 1.110223024625156540E-12 ) ) ;
#205886 = ( NAMED_UNIT ( * ) SI_UNIT ( $, .STERADIAN. ) SOLID_ANGLE_UNIT ( ) );
#206101 = CARTESIAN_POINT ( 'NONE',  ( 0.4882088420221815661, 3.912727730114143210, 6.222956775267239671 ) ) ;
#206280 = EDGE_LOOP ( 'NONE', ( #221148, #145892, #270877 ) ) ;
#206386 = CIRCLE ( 'NONE', #71940, 6.500000000001995737 ) ;
#207530 = ORIENTED_EDGE ( 'NONE', *, *, #217591, .T. ) ;
#209019 = CARTESIAN_POINT ( 'NONE',  ( 0.1320310897161484087, -6.499035722322715536, -1.743325357370257622 ) ) ;
#209168 = CARTESIAN_POINT ( 'NONE',  ( 0.1817083958732380322, 4.605432099382624322, 5.023129589839128606 ) ) ;
#209471 = ADVANCED_FACE ( 'NONE', ( #270101 ), #134081, .T. ) ;
#209795 = FACE_OUTER_BOUND ( 'NONE', #255843, .T. ) ;
#209902 = EDGE_CURVE ( 'NONE', #279181, #39013, #251323, .T. ) ;
#210145 = CARTESIAN_POINT ( 'NONE',  ( 0.1516978518226458073, 1.867103057508106900, 6.500000314269358093 ) ) ;
#210724 = CARTESIAN_POINT ( 'NONE',  ( 0.07923451269003760344, -4.956746323325211812, -4.414687408532550705 ) ) ;
#210726 = FACE_OUTER_BOUND ( 'NONE', #65435, .T. ) ;
#211099 = CARTESIAN_POINT ( 'NONE',  ( 0.4886817541189762970, 3.434513004533338520, -6.500000000002181366 ) ) ;
#211648 = CARTESIAN_POINT ( 'NONE',  ( 4.840572387365682516E-11, 5.629165124597795611, -3.249999999999086953 ) ) ;
#211670 = CARTESIAN_POINT ( 'NONE',  ( 0.07014999538991621708, 1.271500965774904346, 6.500107142943773120 ) ) ;
#211781 = EDGE_CURVE ( 'NONE', #88591, #39013, #184149, .T. ) ;
#212042 = DIRECTION ( 'NONE',  ( -8.500145032286432071E-15, 1.000000000000000000, 4.790612351257594017E-14 ) ) ;
#212052 = CARTESIAN_POINT ( 'NONE',  ( 0.02768828917965921940, -6.026695130035044201, -2.561436170024502079 ) ) ;
#212141 = DIRECTION ( 'NONE',  ( -1.000000000000000000, 1.021405182654441615E-14, 1.395550341952862012E-13 ) ) ;
#212245 = CARTESIAN_POINT ( 'NONE',  ( 0.1687669852196399534, -4.643405087621625960, -4.957380417419643415 ) ) ;
#212357 = DIRECTION ( 'NONE',  ( 1.227351553722733669E-13, -3.453487495973566703E-14, -1.000000000000000000 ) ) ;
#212618 = CIRCLE ( 'NONE', #257377, 6.500000000001995737 ) ;
#212988 = ORIENTED_EDGE ( 'NONE', *, *, #231982, .F. ) ;
#213177 = CARTESIAN_POINT ( 'NONE',  ( 0.1320310897187737253, 4.759281907705974923, -4.756667356950914360 ) ) ;
#213612 = CIRCLE ( 'NONE', #263437, 4.400000000001351275 ) ;
#213988 = CARTESIAN_POINT ( 'NONE',  ( 4.699999999999260325, 7.505553499465827727, -5.551115123125782702E-13 ) ) ;
#214968 = DIRECTION ( 'NONE',  ( -1.000000000000000000, 1.021405182653535688E-14, -1.227351553722737203E-13 ) ) ;
#215342 = VERTEX_POINT ( 'NONE', #304961 ) ;
#216226 = EDGE_CURVE ( 'NONE', #47721, #118807, #222486, .T. ) ;
#217066 = LINE ( 'NONE', #140747, #250380 ) ;
#217591 = EDGE_CURVE ( 'NONE', #104041, #185882, #155351, .T. ) ;
#217650 = CARTESIAN_POINT ( 'NONE',  ( 0.5805565836505266475, 3.752776749729097361, -6.499999999995176303 ) ) ;
#217652 = LINE ( 'NONE', #189689, #40877 ) ;
#218347 = EDGE_LOOP ( 'NONE', ( #159866, #52488, #106373, #158562 ) ) ;
#218541 = EDGE_CURVE ( 'NONE', #219698, #170377, #118943, .T. ) ;
#219511 = VECTOR ( 'NONE', #10353, 999.9999999999998863 ) ;
#219698 = VERTEX_POINT ( 'NONE', #74465 ) ;
#219709 = ORIENTED_EDGE ( 'NONE', *, *, #159174, .T. ) ;
#219833 = DIRECTION ( 'NONE',  ( -1.000000000000000000, 1.021405182654441615E-14, 1.395550341952862012E-13 ) ) ;
#220516 = FACE_OUTER_BOUND ( 'NONE', #187941, .T. ) ;
#220974 = DIRECTION ( 'NONE',  ( -8.500145032286432071E-15, 1.000000000000000000, 4.790612351257594017E-14 ) ) ;
#221148 = ORIENTED_EDGE ( 'NONE', *, *, #291756, .T. ) ;
#221213 = DIRECTION ( 'NONE',  ( 8.500145032286432071E-15, -1.000000000000000000, -4.790612351257594017E-14 ) ) ;
#221530 = CARTESIAN_POINT ( 'NONE',  ( 0.1627295870173755266, 6.596766667183764810, -1.574065558159231326 ) ) ;
#221563 = CARTESIAN_POINT ( 'NONE',  ( 5.700000000050664539, -3.441691376337985275E-12, -4.399999999999182343 ) ) ;
#221758 = EDGE_CURVE ( 'NONE', #47721, #255492, #186741, .T. ) ;
#221835 = CIRCLE ( 'NONE', #87465, 6.500000000001995737 ) ;
#222076 = DIRECTION ( 'NONE',  ( 8.500145032286432071E-15, -1.000000000000000000, -4.790612351257594017E-14 ) ) ;
#222486 = LINE ( 'NONE', #248998, #120058 ) ;
#222639 = CARTESIAN_POINT ( 'NONE',  ( 0.2679805558312068348, -6.881221842592823101, 1.081123747983188332 ) ) ;
#222891 = ORIENTED_EDGE ( 'NONE', *, *, #193782, .F. ) ;
#223273 = VECTOR ( 'NONE', #108372, 1000.000000000000000 ) ;
#223350 = VECTOR ( 'NONE', #182220, 1000.000000000000000 ) ;
#224048 = EDGE_CURVE ( 'NONE', #118807, #236221, #92691, .T. ) ;
#224134 = LINE ( 'NONE', #83769, #201864 ) ;
#224192 = CARTESIAN_POINT ( 'NONE',  ( 0.05408856235161732529, -6.184173944319711680, 2.288798149547132343 ) ) ;
#225717 = CARTESIAN_POINT ( 'NONE',  ( 0.1817083958736557259, -6.652873880996538425, 1.476856398547103266 ) ) ;
#225759 = EDGE_LOOP ( 'NONE', ( #115452, #44674, #75121 ) ) ;
#226420 = AXIS2_PLACEMENT_3D ( 'NONE', #205784, #158901, #154253 ) ;
#226624 = CARTESIAN_POINT ( 'NONE',  ( 5.300000000049820414, -7.505553499470213552, 5.107025913275720086E-12 ) ) ;
#226644 = CARTESIAN_POINT ( 'NONE',  ( 0.05364288127476074530, -1.105306392994417131, 6.500055618683670211 ) ) ;
#226703 = VECTOR ( 'NONE', #140307, 1000.000000000000000 ) ;
#227242 = CARTESIAN_POINT ( 'NONE',  ( 0.5805565836496384691, -7.505553499466355305, 7.882583474838611437E-12 ) ) ;
#228108 = ORIENTED_EDGE ( 'NONE', *, *, #92207, .F. ) ;
#228385 = DIRECTION ( 'NONE',  ( -1.000000000000000000, 1.021405182654441615E-14, 1.395550341952862012E-13 ) ) ;
#229023 = CARTESIAN_POINT ( 'NONE',  ( 0.02736009020114733847, -0.7897976950643570415, -6.500054725851320825 ) ) ;
#229090 = VERTEX_POINT ( 'NONE', #22277 ) ;
#229261 = CARTESIAN_POINT ( 'NONE',  ( 0.3960962806576264206, -7.186058882794782221, -0.5533809088299722623 ) ) ;
#229380 = ORIENTED_EDGE ( 'NONE', *, *, #8130, .F. ) ;
#229459 = PLANE ( 'NONE',  #2942 ) ;
#229547 = ORIENTED_EDGE ( 'NONE', *, *, #291756, .F. ) ;
#229732 = CARTESIAN_POINT ( 'NONE',  ( 0.4062525640920366943, -3.118487304253105830, 6.499859703422300683 ) ) ;
#229943 = DIRECTION ( 'NONE',  ( -1.227650459921671153E-13, 3.453487495973568597E-14, 1.000000000000000000 ) ) ;
#230032 = EDGE_LOOP ( 'NONE', ( #200662, #85913, #31911 ) ) ;
#230383 = CARTESIAN_POINT ( 'NONE',  ( 0.3960962806470301190, 4.072271366433422912, -5.946619091137809399 ) ) ;
#230720 = CARTESIAN_POINT ( 'NONE',  ( 4.699999999828730068, -5.629165124600072012, 3.249999999999753086 ) ) ;
#230903 = ORIENTED_EDGE ( 'NONE', *, *, #181466, .F. ) ;
#230935 = CARTESIAN_POINT ( 'NONE',  ( 0.2230690090224028976, 4.491334349257817493, 5.220642481929195000 ) ) ;
#231102 = CARTESIAN_POINT ( 'NONE',  ( 0.000000000000000000, 0.000000000000000000, 0.000000000000000000 ) ) ;
#231136 = ORIENTED_EDGE ( 'NONE', *, *, #82281, .F. ) ;
#231461 = LINE ( 'NONE', #13267, #223273 ) ;
#231972 = EDGE_CURVE ( 'NONE', #276551, #165059, #164241, .T. ) ;
#231982 = EDGE_CURVE ( 'NONE', #187865, #135102, #292611, .T. ) ;
#233471 = CARTESIAN_POINT ( 'NONE',  ( 0.09949252164751672123, 1.508429070905852987, 6.500040582622417240 ) ) ;
#233811 = VERTEX_POINT ( 'NONE', #39591 ) ;
#233817 = SHAPE_REPRESENTATION_RELATIONSHIP ( 'NONE' , 'NONE' ,  #30169, #19987 ) ;
#235155 = EDGE_CURVE ( 'NONE', #69015, #170377, #62640, .T. ) ;
#235403 = CARTESIAN_POINT ( 'NONE',  ( 0.1440819660358797494, -6.538558816894132875, -1.674880569876156189 ) ) ;
#235544 = CARTESIAN_POINT ( 'NONE',  ( 0.1082729533033115615, 4.839100816704768881, 4.618407739145043323 ) ) ;
#235587 = CARTESIAN_POINT ( 'NONE',  ( 0.3006270603012112796, -4.300293379564735119, -5.551374412742529074 ) ) ;
#235589 = DIRECTION ( 'NONE',  ( 6.872280522425293791E-14, -0.8660254037845215302, -0.4999999999998565592 ) ) ;
#235748 = ADVANCED_FACE ( 'NONE', ( #86826 ), #12214, .T. ) ;
#236221 = VERTEX_POINT ( 'NONE', #293481 ) ;
#236666 = DIRECTION ( 'NONE',  ( 7.862314545502391161E-14, 0.8660254037843415631, 0.5000000000001683098 ) ) ;
#237247 = ORIENTED_EDGE ( 'NONE', *, *, #59748, .T. ) ;
#237289 = DIRECTION ( 'NONE',  ( -8.500145032286432071E-15, 1.000000000000000000, 4.790612351257594017E-14 ) ) ;
#237434 = CARTESIAN_POINT ( 'NONE',  ( 5.300000000049820414, -7.505553499470213552, 5.107025913275720086E-12 ) ) ;
#237463 = ORIENTED_EDGE ( 'NONE', *, *, #221758, .T. ) ;
#237485 = CARTESIAN_POINT ( 'NONE',  ( 0.000000000000000000, 0.000000000000000000, 0.000000000000000000 ) ) ;
#237493 = CARTESIAN_POINT ( 'NONE',  ( 0.07993762276754884377, 1.350531386175644721, -6.500085660933509146 ) ) ;
#237858 = CARTESIAN_POINT ( 'NONE',  ( 0.5805565835994563884, 7.505553499460138056, 7.438494264988548821E-12 ) ) ;
#238065 = ORIENTED_EDGE ( 'NONE', *, *, #173964, .T. ) ;
#238676 = CARTESIAN_POINT ( 'NONE',  ( 0.07033353054056253051, -4.995916458276607131, -4.346868898091839739 ) ) ;
#239068 = CARTESIAN_POINT ( 'NONE',  ( 0.2244754859702502714, 2.282886108381667167, -6.499932832771752267 ) ) ;
#239625 = CARTESIAN_POINT ( 'NONE',  ( 4.699999999997928057, -1.859623566247137205E-12, -2.109423746787797427E-12 ) ) ;
#240475 = DIRECTION ( 'NONE',  ( -8.500145032286432071E-15, 1.000000000000000000, 4.790612351257594017E-14 ) ) ;
#240508 = ADVANCED_FACE ( 'NONE', ( #36421 ), #93837, .T. ) ;
#240589 = CARTESIAN_POINT ( 'NONE',  ( 0.1092801490251385094, 1.587459889871885910, -6.500017117653881904 ) ) ;
#240909 = CARTESIAN_POINT ( 'NONE',  ( 5.300000000116433796, -3.752776749737507522, -6.499999999998617994 ) ) ;
#240936 = PLANE ( 'NONE',  #192270 ) ;
#241149 = DIRECTION ( 'NONE',  ( -1.000000000000000000, 1.021405182654441615E-14, 1.395550341952862012E-13 ) ) ;
#241250 = FACE_OUTER_BOUND ( 'NONE', #267452, .T. ) ;
#241439 = CARTESIAN_POINT ( 'NONE',  ( 0.01761982038662227024, 5.947068993811464033, 2.699315280388886240 ) ) ;
#241695 = CARTESIAN_POINT ( 'NONE',  ( 0.01326549827975289156, -0.5525508500031954817, -6.500008082070779736 ) ) ;
#241720 = AXIS2_PLACEMENT_3D ( 'NONE', #117016, #212141, #67195 ) ;
#242482 = AXIS2_PLACEMENT_3D ( 'NONE', #142512, #281260, #92662 ) ;
#242555 = CARTESIAN_POINT ( 'NONE',  ( 0.2548172889966586196, -4.377054078189856590, 5.418710900080805359 ) ) ;
#243144 = ORIENTED_EDGE ( 'NONE', *, *, #279753, .F. ) ;
#243957 = ORIENTED_EDGE ( 'NONE', *, *, #92069, .T. ) ;
#244544 = CARTESIAN_POINT ( 'NONE',  ( 0.1687669852188580510, -6.614919921522741220, 1.542616557229567142 ) ) ;
#244768 = AXIS2_PLACEMENT_3D ( 'NONE', #130336, #120377, #38314 ) ;
#244966 = CARTESIAN_POINT ( 'NONE',  ( 0.5805565835994563884, 7.505553499460138056, 7.438494264988548821E-12 ) ) ;
#245529 = LINE ( 'NONE', #240909, #102919 ) ;
#245969 = CARTESIAN_POINT ( 'NONE',  ( 1.172395514004165307E-10, -5.629165124599405878, -3.250000000000308198 ) ) ;
#245998 = EDGE_LOOP ( 'NONE', ( #243144, #156279, #229547, #259912, #137592, #55781 ) ) ;
#246264 = AXIS2_PLACEMENT_3D ( 'NONE', #158907, #254124, #113683 ) ;
#246986 = CARTESIAN_POINT ( 'NONE',  ( 4.699999999997928057, 6.500000000001143974, -2.109423746787797427E-12 ) ) ;
#246997 = EDGE_LOOP ( 'NONE', ( #237463, #285644, #291387, #290442 ) ) ;
#247132 = FACE_OUTER_BOUND ( 'NONE', #191061, .T. ) ;
#247588 = CARTESIAN_POINT ( 'NONE',  ( 0.07033353053764160312, -6.262457121801539017, 2.153156119013475589 ) ) ;
#247748 = AXIS2_PLACEMENT_3D ( 'NONE', #286482, #236666, #188367 ) ;
#247823 = CARTESIAN_POINT ( 'NONE',  ( 0.1136208010217513720, -1.614723627289214924, -6.499994197041400135 ) ) ;
#248542 = CARTESIAN_POINT ( 'NONE',  ( 0.3000043718055213637, -2.654659017011305799, 6.499848547737708593 ) ) ;
#248666 = CIRCLE ( 'NONE', #79556, 6.500000000001995737 ) ;
#248998 = CARTESIAN_POINT ( 'NONE',  ( 25.29999999994991811, -6.661338147750939243E-13, 3.309499999998299913 ) ) ;
#249687 = AXIS2_PLACEMENT_3D ( 'NONE', #171739, #293268, #266821 ) ;
#250073 = FACE_OUTER_BOUND ( 'NONE', #157465, .T. ) ;
#250092 = DIRECTION ( 'NONE',  ( -8.500145032286432071E-15, 1.000000000000000000, 4.790612351257594017E-14 ) ) ;
#250177 = CARTESIAN_POINT ( 'NONE',  ( 0.000000000000000000, 0.000000000000000000, 0.000000000000000000 ) ) ;
#250380 = VECTOR ( 'NONE', #3497, 1000.000000000000000 ) ;
#250422 = LINE ( 'NONE', #128811, #219511 ) ;
#250466 = ORIENTED_EDGE ( 'NONE', *, *, #294496, .F. ) ;
#251323 = B_SPLINE_CURVE_WITH_KNOTS ( 'NONE', 3,
 ( #95291, #140502, #98341, #235587, #285382, #265138, #283869, #22027, #212245, #3242, #96812, #73482, #210724, #238676, #71920, #55777, #166946, #191889, #245969 ),
 .UNSPECIFIED., .F., .F.,
 ( 4, 2, 2, 1, 2, 2, 2, 2, 2, 4 ),
 ( 0.000000000000000000, 0.2499999999999984457, 0.3749999999999976685, 0.4374999999999974465, 0.4687499999999972800, 0.4999999999999972244, 0.6249999999999983347, 0.6874999999999987788, 0.7499999999999993339, 1.000000000000000000 ),
 .UNSPECIFIED. ) ;
#251481 = ORIENTED_EDGE ( 'NONE', *, *, #211781, .T. ) ;
#251646 = EDGE_CURVE ( 'NONE', #100933, #71221, #278876, .T. ) ;
#252513 = EDGE_LOOP ( 'NONE', ( #12700, #17704, #222891, #212988, #34667, #116761 ) ) ;
#253901 = CARTESIAN_POINT ( 'NONE',  ( 4.700000000049442406, -4.635181127810028556E-12, -6.500000000001837641 ) ) ;
#254124 = DIRECTION ( 'NONE',  ( -1.000000000000000000, 1.021405182654441615E-14, 1.395550341952862012E-13 ) ) ;
#254437 = CARTESIAN_POINT ( 'NONE',  ( 0.4066829934997680529, 4.068977000854307136, 5.952048130678894822 ) ) ;
#255267 = DIRECTION ( 'NONE',  ( 1.000000000000000000, 8.500145032293116878E-15, -1.395550341952853429E-13 ) ) ;
#255413 = CARTESIAN_POINT ( 'NONE',  ( 0.05373158538012500623, 1.113839610214176101, 6.500180048446162928 ) ) ;
#255492 = VERTEX_POINT ( 'NONE', #170982 ) ;
#255843 = EDGE_LOOP ( 'NONE', ( #237247, #80636 ) ) ;
#256894 = CARTESIAN_POINT ( 'NONE',  ( 4.720147567437633576E-13, 5.549465212715933404, -3.388044296750566176 ) ) ;
#257305 = ORIENTED_EDGE ( 'NONE', *, *, #7796, .F. ) ;
#257324 = DIRECTION ( 'NONE',  ( -1.000000000000000000, 1.021405182654441615E-14, 1.395550341952862012E-13 ) ) ;
#257377 = AXIS2_PLACEMENT_3D ( 'NONE', #301576, #228385, #229943 ) ;
#258154 = EDGE_CURVE ( 'NONE', #118807, #198725, #76912, .T. ) ;
#258299 = CARTESIAN_POINT ( 'NONE',  ( 0.1145415415368289114, -4.818457369982551697, 4.654150213885136722 ) ) ;
#258748 = CARTESIAN_POINT ( 'NONE',  ( 0.5805565835994563884, 7.505553499460138056, 7.438494264988548821E-12 ) ) ;
#258969 = CARTESIAN_POINT ( 'NONE',  ( 4.973799150320701301E-11, 7.077671781985372945E-13, -6.500000000002170708 ) ) ;
#259222 = CARTESIAN_POINT ( 'NONE',  ( 4.699999999997928057, 6.500000000001143974, -2.109423746787797427E-12 ) ) ;
#259261 = FACE_OUTER_BOUND ( 'NONE', #7736, .T. ) ;
#259835 = CARTESIAN_POINT ( 'NONE',  ( -1.714184350021241698E-10, -5.629165124598212167, 3.249999999999308997 ) ) ;
#259912 = ORIENTED_EDGE ( 'NONE', *, *, #159174, .F. ) ;
#259973 = CARTESIAN_POINT ( 'NONE',  ( 0.06970085888510905991, 4.995130227627319286, -4.348124725338057495 ) ) ;
#259989 = CARTESIAN_POINT ( 'NONE',  ( 0.1450988929499903435, 1.825309103949766421, 6.500001165068477249 ) ) ;
#260247 = ORIENTED_EDGE ( 'NONE', *, *, #125163, .T. ) ;
#260367 = FACE_OUTER_BOUND ( 'NONE', #204800, .T. ) ;
#260558 = ORIENTED_EDGE ( 'NONE', *, *, #298849, .T. ) ;
#260773 = CYLINDRICAL_SURFACE ( 'NONE', #82436, 6.500000000001995737 ) ;
#260944 = CARTESIAN_POINT ( 'NONE',  ( 0.04719919112248726484, 1.036040314355721303, -6.500183177668681367 ) ) ;
#261280 = ORIENTED_EDGE ( 'NONE', *, *, #46176, .T. ) ;
#261316 = AXIS2_PLACEMENT_3D ( 'NONE', #77613, #124367, #220974 ) ;
#261624 = EDGE_CURVE ( 'NONE', #219698, #125464, #83132, .T. ) ;
#261731 = CARTESIAN_POINT ( 'NONE',  ( 4.700000000048554227, 3.752776749731428829, -6.500000000002392753 ) ) ;
#262618 = DIRECTION ( 'NONE',  ( 1.108002578575606713E-13, -0.4999999999998702704, -0.8660254037845135366 ) ) ;
#262646 = DIRECTION ( 'NONE',  ( 1.000000000000000000, -1.021405182654441615E-14, -1.395550341952862012E-13 ) ) ;
#263287 = CARTESIAN_POINT ( 'NONE',  ( 0.03369948430709789750, 6.067403235980617815, 2.490950520433992565 ) ) ;
#263398 = ORIENTED_EDGE ( 'NONE', *, *, #44777, .F. ) ;
#263437 = AXIS2_PLACEMENT_3D ( 'NONE', #110086, #177109, #203697 ) ;
#263837 = AXIS2_PLACEMENT_3D ( 'NONE', #231102, #117228, #212357 ) ;
#264608 = ORIENTED_EDGE ( 'NONE', *, *, #7796, .T. ) ;
#264653 = B_SPLINE_CURVE_WITH_KNOTS ( 'NONE', 3,
 ( #259835, #46210, #96083, #192687, #74260, #91449, #93012, #304944, #68118, #163095, #258299, #188071, #53861, #148905, #242555, #50814, #32035 ),
 .UNSPECIFIED., .F., .F.,
 ( 4, 2, 2, 2, 2, 1, 2, 2, 4 ),
 ( 0.000000000000000000, 0.1250000000000001388, 0.1875000000000005551, 0.2500000000000009437, 0.3750000000000021094, 0.4375000000000026645, 0.4687500000000024425, 0.5000000000000023315, 1.000000000000000000 ),
 .UNSPECIFIED. ) ;
#265138 = CARTESIAN_POINT ( 'NONE',  ( 0.2230690090236475409, -4.491334349257772196, -5.220642481929426815 ) ) ;
#265250 = CARTESIAN_POINT ( 'NONE',  ( 0.01339302944531320372, 5.945983493756489935, -2.701382127730615146 ) ) ;
#265415 = ADVANCED_FACE ( 'NONE', ( #247132 ), #273559, .T. ) ;
#265500 = CARTESIAN_POINT ( 'NONE',  ( 0.5805565836505266475, 3.752776749729097361, -6.499999999995176303 ) ) ;
#266433 = CARTESIAN_POINT ( 'NONE',  ( -5.240252676230738871E-11, 5.629165124594575964, 3.250000000002528644 ) ) ;
#266514 = DIRECTION ( 'NONE',  ( 1.000000000000000000, -1.021405182654441615E-14, -1.395550341952862012E-13 ) ) ;
#266821 = DIRECTION ( 'NONE',  ( -1.226545681759928211E-13, 3.453487495973568597E-14, 1.000000000000000000 ) ) ;
#267245 = AXIS2_PLACEMENT_3D ( 'NONE', #250177, #158073, #179939 ) ;
#267452 = EDGE_LOOP ( 'NONE', ( #35910, #63666, #145264 ) ) ;
#268040 = ORIENTED_EDGE ( 'NONE', *, *, #142534, .T. ) ;
#269449 = CARTESIAN_POINT ( 'NONE',  ( -4.242333458448427898E-13, -5.788166003978688856, 2.974602398476898113 ) ) ;
#269477 = B_SPLINE_CURVE_WITH_KNOTS ( 'NONE', 3,
 ( #166650, #1437, #2960, #168180, #241439, #99599, #263287, #122934, #23258, #4477, #289702, #46647, #188511, #163529, #70105, #190063, #258748 ),
 .UNSPECIFIED., .F., .F.,
 ( 4, 2, 2, 2, 2, 1, 2, 2, 4 ),
 ( 0.000000000000000000, 0.1249999999999994449, 0.1874999999999991673, 0.2499999999999988898, 0.3749999999999986677, 0.4374999999999985567, 0.4687499999999986677, 0.4999999999999987788, 1.000000000000000000 ),
 .UNSPECIFIED. ) ;
#269706 = DIRECTION ( 'NONE',  ( -1.000000000000000000, 1.021405182654441615E-14, 1.395550341952862012E-13 ) ) ;
#269869 = DIRECTION ( 'NONE',  ( -1.108002578575606713E-13, 0.4999999999998702704, 0.8660254037845135366 ) ) ;
#269878 = CARTESIAN_POINT ( 'NONE',  ( 4.699999999948190066, 5.629165124600460146, 3.249999999999642064 ) ) ;
#270101 = FACE_OUTER_BOUND ( 'NONE', #225759, .T. ) ;
#270366 = PLANE ( 'NONE',  #188775 ) ;
#270500 = CARTESIAN_POINT ( 'NONE',  ( 0.000000000000000000, 0.000000000000000000, 0.000000000000000000 ) ) ;
#270877 = ORIENTED_EDGE ( 'NONE', *, *, #25037, .T. ) ;
#271200 = FACE_OUTER_BOUND ( 'NONE', #185429, .T. ) ;
#271210 = DIRECTION ( 'NONE',  ( -1.000000000000000000, 1.021405182654441615E-14, 1.395550341952862012E-13 ) ) ;
#271329 = ORIENTED_EDGE ( 'NONE', *, *, #235155, .F. ) ;
#271336 = DIRECTION ( 'NONE',  ( 1.227351553722733669E-13, -3.453487495973566703E-14, -1.000000000000000000 ) ) ;
#271402 = ORIENTED_EDGE ( 'NONE', *, *, #211781, .F. ) ;
#271643 = ORIENTED_EDGE ( 'NONE', *, *, #161430, .T. ) ;
#273136 = CARTESIAN_POINT ( 'NONE',  ( 0.000000000000000000, 0.000000000000000000, 0.000000000000000000 ) ) ;
#273228 = EDGE_CURVE ( 'NONE', #170377, #125464, #290412, .T. ) ;
#273559 = CYLINDRICAL_SURFACE ( 'NONE', #173640, 4.000000000001228351 ) ;
#273896 = ( GEOMETRIC_REPRESENTATION_CONTEXT ( 3 ) GLOBAL_UNCERTAINTY_ASSIGNED_CONTEXT ( ( #79225 ) ) GLOBAL_UNIT_ASSIGNED_CONTEXT ( ( #157469, #275960, #205886 ) ) REPRESENTATION_CONTEXT ( 'NONE', 'WORKASPACE' ) );
#275888 = ORIENTED_EDGE ( 'NONE', *, *, #224048, .T. ) ;
#275960 = ( NAMED_UNIT ( * ) PLANE_ANGLE_UNIT ( ) SI_UNIT ( $, .RADIAN. ) );
#276491 = AXIS2_PLACEMENT_3D ( 'NONE', #205788, #277387, #305319 ) ;
#276551 = VERTEX_POINT ( 'NONE', #62766 ) ;
#276969 = DIRECTION ( 'NONE',  ( 1.227351553722733669E-13, -3.453487495973566703E-14, -1.000000000000000000 ) ) ;
#277230 = DIRECTION ( 'NONE',  ( -1.000000000000000000, 1.021405182654441615E-14, 1.395550341952862012E-13 ) ) ;
#277279 = ORIENTED_EDGE ( 'NONE', *, *, #39216, .T. ) ;
#277318 = CARTESIAN_POINT ( 'NONE',  ( 0.1429959859593316895, -1.811792522087361190, -6.499999376008014806 ) ) ;
#277387 = DIRECTION ( 'NONE',  ( -1.000000000000000000, 1.021405182654441615E-14, 1.395550341952862012E-13 ) ) ;
#277689 = CARTESIAN_POINT ( 'NONE',  ( 0.5805565835488302184, 3.752776749728958805, 6.500000000008387957 ) ) ;
#278876 = LINE ( 'NONE', #87173, #223350 ) ;
#279106 = CARTESIAN_POINT ( 'NONE',  ( 0.09881229225199977817, -6.380879742513770658, -1.947938784940571821 ) ) ;
#279181 = VERTEX_POINT ( 'NONE', #41295 ) ;
#279262 = CARTESIAN_POINT ( 'NONE',  ( 0.01339302944450895989, 5.312457294817779285, 3.798681692214864292 ) ) ;
#279548 = B_SPLINE_CURVE_WITH_KNOTS ( 'NONE', 3,
 ( #227242, #152406, #35578, #129091, #222639, #298903, #102635, #225717, #244544, #202398, #197782, #130640, #292764, #247588, #224192, #79286, #9060, #269449, #12143 ),
 .UNSPECIFIED., .F., .F.,
 ( 4, 2, 2, 1, 2, 2, 2, 2, 2, 4 ),
 ( 0.000000000000000000, 0.2499999999999987788, 0.3749999999999980571, 0.4374999999999978906, 0.4687499999999979461, 0.4999999999999980016, 0.6249999999999981126, 0.6874999999999982236, 0.7499999999999983347, 1.000000000000000000 ),
 .UNSPECIFIED. ) ;
#279753 = EDGE_CURVE ( 'NONE', #95516, #229090, #174749, .T. ) ;
#280238 = CARTESIAN_POINT ( 'NONE',  ( 0.03381888160835185703, 0.8767119011610190471, 6.500185476136786988 ) ) ;
#280610 = CARTESIAN_POINT ( 'NONE',  ( 4.700000000115611698, -3.752776749738479189, -6.500000000004058087 ) ) ;
#280942 = ADVANCED_FACE ( 'NONE', ( #307405 ), #69012, .T. ) ;
#281260 = DIRECTION ( 'NONE',  ( -1.000000000000000000, 1.021405182654441615E-14, 1.395550341952862012E-13 ) ) ;
#281745 = DIRECTION ( 'NONE',  ( 1.108002578575606713E-13, -0.4999999999998702704, -0.8660254037845135366 ) ) ;
#282524 = DIRECTION ( 'NONE',  ( -1.227650459921671153E-13, 3.453487495973568597E-14, 1.000000000000000000 ) ) ;
#282887 = DIRECTION ( 'NONE',  ( 1.227650459921671153E-13, -3.453487495973568597E-14, -1.000000000000000000 ) ) ;
#283137 = FACE_OUTER_BOUND ( 'NONE', #296727, .T. ) ;
#283267 = CARTESIAN_POINT ( 'NONE',  ( 0.02768828917993945357, 5.231616358419295842, -3.938552998475981948 ) ) ;
#283869 = CARTESIAN_POINT ( 'NONE',  ( 0.2016277880935413991, -4.548441862234101407, -5.121793289770282698 ) ) ;
#284591 = DIRECTION ( 'NONE',  ( -1.000000000000000000, 1.021405182654441615E-14, 1.395550341952862012E-13 ) ) ;
#284801 = CARTESIAN_POINT ( 'NONE',  ( 0.003371370793627489083, 0.3177604426997301945, 6.500009409180173670 ) ) ;
#284935 = CARTESIAN_POINT ( 'NONE',  ( 25.29999999994991811, -6.661338147750939243E-13, 3.309499999998299913 ) ) ;
#284955 = ORIENTED_EDGE ( 'NONE', *, *, #37489, .T. ) ;
#285032 = ADVANCED_FACE ( 'NONE', ( #90231 ), #66862, .F. ) ;
#285382 = CARTESIAN_POINT ( 'NONE',  ( 0.2679805558318185676, -4.376891551685380577, -5.418751050765431287 ) ) ;
#285622 = CARTESIAN_POINT ( 'NONE',  ( 5.299999999948568075, -5.162537064506977913E-12, 4.400000000007953105 ) ) ;
#285644 = ORIENTED_EDGE ( 'NONE', *, *, #125929, .T. ) ;
#286230 = VERTEX_POINT ( 'NONE', #301854 ) ;
#286482 = CARTESIAN_POINT ( 'NONE',  ( 5.300000000116433796, -3.752776749737507522, -6.499999999998617994 ) ) ;
#287314 = CARTESIAN_POINT ( 'NONE',  ( 0.2030751305561649123, 2.169287506339392380, -6.499963960823144760 ) ) ;
#287591 = CARTESIAN_POINT ( 'NONE',  ( 4.699999999949966423, 3.752776749732761097, 6.500000000000283329 ) ) ;
#288114 = AXIS2_PLACEMENT_3D ( 'NONE', #259222, #47110, #237289 ) ;
#288942 = ADVANCED_FACE ( 'NONE', ( #8846 ), #75077, .F. ) ;
#289192 = DIRECTION ( 'NONE',  ( -1.000000000000000000, 1.021405182654441615E-14, 1.395550341952862012E-13 ) ) ;
#289219 = FACE_OUTER_BOUND ( 'NONE', #245998, .T. ) ;
#289702 = CARTESIAN_POINT ( 'NONE',  ( 0.1145415415362274342, 6.439841003243810036, 1.845831382517625796 ) ) ;
#289800 = CARTESIAN_POINT ( 'NONE',  ( 4.699999999997928057, 6.500000000001143974, -2.109423746787797427E-12 ) ) ;
#290412 = B_SPLINE_CURVE_WITH_KNOTS ( 'NONE', 3,
 ( #277689, #206101, #254437, #184172, #109415, #230935, #90605, #209168, #182590, #185700, #89070, #235544, #163792, #135852, #137373, #305620, #279262, #113982, #67251 ),
 .UNSPECIFIED., .F., .F.,
 ( 4, 2, 2, 1, 2, 2, 2, 2, 2, 4 ),
 ( 0.000000000000000000, 0.2499999999999987232, 0.3749999999999981681, 0.4374999999999980571, 0.4687499999999979461, 0.4999999999999978906, 0.6249999999999978906, 0.6874999999999982236, 0.7499999999999985567, 1.000000000000000000 ),
 .UNSPECIFIED. ) ;
#290442 = ORIENTED_EDGE ( 'NONE', *, *, #216226, .F. ) ;
#290940 = FACE_OUTER_BOUND ( 'NONE', #202652, .T. ) ;
#291387 = ORIENTED_EDGE ( 'NONE', *, *, #258154, .F. ) ;
#291637 = CARTESIAN_POINT ( 'NONE',  ( 0.07033353053559411594, 6.262457121788696845, -2.153156119036270688 ) ) ;
#291756 = EDGE_CURVE ( 'NONE', #233811, #187865, #5999, .T. ) ;
#292611 = B_SPLINE_CURVE_WITH_KNOTS ( 'NONE', 3,
 ( #265500, #211099, #307602, #48813, #70777, #239068, #287314, #3623, #73844, #20878, #94129, #240589, #237493, #168875, #165793, #260944, #50412, #119021, #26990 ),
 .UNSPECIFIED., .F., .F.,
 ( 4, 2, 2, 1, 2, 2, 2, 2, 2, 4 ),
 ( 0.000000000000000000, 0.2499999999999981681, 0.3749999999999973910, 0.4374999999999972244, 0.4687499999999972800, 0.4999999999999973355, 0.6249999999999977796, 0.6874999999999981126, 0.7499999999999983347, 1.000000000000000000 ),
 .UNSPECIFIED. ) ;
#292618 = ADVANCED_FACE ( 'NONE', ( #259261 ), #260773, .T. ) ;
#292764 = CARTESIAN_POINT ( 'NONE',  ( 0.07923451268692444094, -6.301604607213828757, 2.085324531856628028 ) ) ;
#293268 = DIRECTION ( 'NONE',  ( -1.000000000000000000, 1.021405182654441615E-14, 1.395550341952862012E-13 ) ) ;
#293481 = CARTESIAN_POINT ( 'NONE',  ( 5.699999999946747664, -2.747801985947262438E-12, 4.000000000003112177 ) ) ;
#293594 = ADVANCED_FACE ( 'NONE', ( #250073 ), #36481, .F. ) ;
#294087 = ORIENTED_EDGE ( 'NONE', *, *, #181466, .T. ) ;
#294460 = ADVANCED_FACE ( 'NONE', ( #79471 ), #22898, .T. ) ;
#294496 = EDGE_CURVE ( 'NONE', #12232, #69015, #34200, .T. ) ;
#295405 = MANIFOLD_SOLID_BREP ( 'NONE', #33116 ) ;
#295490 = CARTESIAN_POINT ( 'NONE',  ( 4.700000000049442406, -7.505553499467549017, -8.881784197001252323E-13 ) ) ;
#295968 = ADVANCED_FACE ( 'NONE', ( #62105 ), #55976, .F. ) ;
#296727 = EDGE_LOOP ( 'NONE', ( #115270, #261280, #277279 ) ) ;
#297240 = DIRECTION ( 'NONE',  ( 1.000000000000000000, -1.021405182654441615E-14, -1.395550341952862012E-13 ) ) ;
#297258 = VERTEX_POINT ( 'NONE', #33416 ) ;
#297701 = EDGE_CURVE ( 'NONE', #88591, #297258, #264653, .T. ) ;
#297814 = AXIS2_PLACEMENT_3D ( 'NONE', #100935, #122743, #52602 ) ;
#297933 = CARTESIAN_POINT ( 'NONE',  ( 5.300000000048488147, -8.493206138382447534E-12, -6.499999999998173905 ) ) ;
#298015 = CARTESIAN_POINT ( 'NONE',  ( 0.000000000000000000, 0.000000000000000000, 0.000000000000000000 ) ) ;
#298245 = CARTESIAN_POINT ( 'NONE',  ( -1.714184350021241698E-10, -5.629165124598212167, 3.249999999999308997 ) ) ;
#298297 = AXIS2_PLACEMENT_3D ( 'NONE', #1159, #96246, #122642 ) ;
#298298 = CARTESIAN_POINT ( 'NONE',  ( 0.4879646133251358542, -3.432028755956893384, 6.500000000002046363 ) ) ;
#298513 = VECTOR ( 'NONE', #134488, 1000.000000000000000 ) ;
#298718 = CARTESIAN_POINT ( 'NONE',  ( 5.300000000048932236, 3.752776749731095762, -6.500000000000949463 ) ) ;
#298849 = EDGE_CURVE ( 'NONE', #67929, #95516, #39429, .T. ) ;
#298903 = CARTESIAN_POINT ( 'NONE',  ( 0.2230690090229797418, -6.766876188059431918, 1.279288402379128886 ) ) ;
#300487 = ORIENTED_EDGE ( 'NONE', *, *, #25037, .F. ) ;
#300590 = AXIS2_PLACEMENT_3D ( 'NONE', #289800, #71718, #212042 ) ;
#300624 = ORIENTED_EDGE ( 'NONE', *, *, #193782, .T. ) ;
#300661 = CARTESIAN_POINT ( 'NONE',  ( 0.03326447352167611476, -0.8703027034018896435, -6.500069876811725322 ) ) ;
#301364 = CARTESIAN_POINT ( 'NONE',  ( 0.06982419635523492984, -1.261900421171249453, 6.500028873210031755 ) ) ;
#301441 = EDGE_CURVE ( 'NONE', #229090, #276551, #217652, .T. ) ;
#301576 = CARTESIAN_POINT ( 'NONE',  ( 4.699999999997928057, -1.859623566247137205E-12, -2.109423746787797427E-12 ) ) ;
#301783 = ORIENTED_EDGE ( 'NONE', *, *, #46176, .F. ) ;
#301854 = CARTESIAN_POINT ( 'NONE',  ( 4.699999999830506425, -3.752776749732817052, 6.500000000001060485 ) ) ;
#303552 = VECTOR ( 'NONE', #281745, 1000.000000000000114 ) ;
#304944 = CARTESIAN_POINT ( 'NONE',  ( 0.05342265689568144460, -5.073395219617885310, 4.212619322457817006 ) ) ;
#304961 = CARTESIAN_POINT ( 'NONE',  ( 0.5805565836496384691, -7.505553499466355305, 7.882583474838611437E-12 ) ) ;
#305319 = DIRECTION ( 'NONE',  ( -1.231653667943154889E-13, 3.453487495973567334E-14, 1.000000000000000000 ) ) ;
#305553 = B_SPLINE_CURVE_WITH_KNOTS ( 'NONE', 3,
 ( #151114, #3188, #146529, #241695, #15446, #229023, #300661, #132390, #201119, #110561, #247823, #37343, #277318, #10861, #87170, #104427, #60698 ),
 .UNSPECIFIED., .F., .F.,
 ( 4, 2, 2, 2, 2, 1, 2, 2, 4 ),
 ( 0.000000000000000000, 0.1249999999999998057, 0.1874999999999996947, 0.2499999999999995559, 0.3749999999999993339, 0.4374999999999992228, 0.4687499999999991673, 0.4999999999999991118, 1.000000000000000000 ),
 .UNSPECIFIED. ) ;
#305620 = CARTESIAN_POINT ( 'NONE',  ( 0.04687560305676811978, 5.112620059827800212, 4.144809425449010654 ) ) ;
#306625 = CARTESIAN_POINT ( 'NONE',  ( 0.003356156264658146423, 5.470080465351743193, -3.525467862724272816 ) ) ;
#307281 = AXIS2_PLACEMENT_3D ( 'NONE', #129482, #146657, #9433 ) ;
#307405 = FACE_OUTER_BOUND ( 'NONE', #67581, .T. ) ;
#307602 = CARTESIAN_POINT ( 'NONE',  ( 0.4075168369576365746, 3.123329593869180520, -6.499865094092243112 ) ) ;
#307858 = CARTESIAN_POINT ( 'NONE',  ( 4.699999999997928057, -1.859623566247137205E-12, -2.109423746787797427E-12 ) ) ;
#308134 = CARTESIAN_POINT ( 'NONE',  ( 5.699999999947191753, -2.303712776097199821E-12, 4.400000000002179945 ) ) ;
#308158 = CARTESIAN_POINT ( 'NONE',  ( 0.1440819660375681488, 4.719768530265357143, -4.825117754630352529 ) ) ;
#308175 = EDGE_CURVE ( 'NONE', #95516, #187865, #204087, .T. ) ;
#308282 = ADVANCED_FACE ( 'NONE', ( #289219 ), #240936, .F. ) ;
ENDSEC;
END-ISO-10303-21;
