ISO-10303-21;
HEADER;
FILE_DESCRIPTION (( 'STEP AP214' ),
    '1' );
FILE_NAME ('PT.SHT.01.20.00.00 —¡ ''ÿÌÂÍ 1'' (STEP 214 ““).STEP',
    '2026-09-29T05:38:28',
    ( '' ),
    ( '' ),
    'SwSTEP 2.0',
    'SolidWorks 2025',
    '' );
FILE_SCHEMA (( 'AUTOMOTIVE_DESIGN' ));
ENDSEC;

DATA;
#666 = CARTESIAN_POINT ( 'NONE',  ( 0.4332095535258089214, -5.523389039552693447, -0.3021788028764424427 ) ) ;
#680 = FACE_OUTER_BOUND ( 'NONE', #115861, .T. ) ;
#1362 = CARTESIAN_POINT ( 'NONE',  ( -2.999999999999919176, 1.942890293094023946E-13, -5.174599999999751176 ) ) ;
#1375 = UNCERTAINTY_MEASURE_WITH_UNIT (LENGTH_MEASURE( 1.000000000000000082E-05 ), #62740, 'distance_accuracy_value', 'NONE');
#1465 = PLANE ( 'NONE',  #43945 ) ;
#1503 = ORIENTED_EDGE ( 'NONE', *, *, #16056, .F. ) ;
#1780 = B_SPLINE_CURVE_WITH_KNOTS ( 'NONE', 3,
 ( #114474, #183077, #184648, #303043 ),
 .UNSPECIFIED., .F., .F.,
 ( 4, 4 ),
 ( 0.000000000000000000, 1.000000000000000000 ),
 .UNSPECIFIED. ) ;
#2189 = CARTESIAN_POINT ( 'NONE',  ( -8.326672684688674053E-14, -5.773502691896206684, -0.4465819873853416055 ) ) ;
#2236 = EDGE_CURVE ( 'NONE', #234291, #90532, #248210, .T. ) ;
#3121 = AXIS2_PLACEMENT_3D ( 'NONE', #8105, #246615, #271504 ) ;
#3370 = CARTESIAN_POINT ( 'NONE',  ( 4.578946160460244386, -3.129807496761153107, -4.887011147210934325 ) ) ;
#4522 = EDGE_LOOP ( 'NONE', ( #106955, #144421, #259829 ) ) ;
#4578 = ORIENTED_EDGE ( 'NONE', *, *, #306454, .F. ) ;
#4979 = DIRECTION ( 'NONE',  ( -1.000000000000000000, 1.110223024625112783E-16, 0.000000000000000000 ) ) ;
#5065 = VERTEX_POINT ( 'NONE', #34269 ) ;
#5146 = DIRECTION ( 'NONE',  ( -3.330669073875470607E-16, 3.885780586188048878E-16, -1.000000000000000000 ) ) ;
#5697 = DIRECTION ( 'NONE',  ( 0.8191520442889947962, 5.551115123125772225E-17, -0.5735764363510417185 ) ) ;
#5855 = ORIENTED_EDGE ( 'NONE', *, *, #25868, .F. ) ;
#5957 = CARTESIAN_POINT ( 'NONE',  ( 3.389871719738164479, 3.816359341987099363, -0.05902101972611115827 ) ) ;
#5975 = DIRECTION ( 'NONE',  ( 1.000000000000000000, -1.110223024625152966E-16, 0.000000000000000000 ) ) ;
#7168 = FACE_OUTER_BOUND ( 'NONE', #136650, .T. ) ;
#7478 = CARTESIAN_POINT ( 'NONE',  ( 3.670416991624458003, 3.654386453743668994, -0.1035222407164244629 ) ) ;
#7669 = FACE_BOUND ( 'NONE', #25107, .T. ) ;
#8039 = CARTESIAN_POINT ( 'NONE',  ( -4.999999999999976907, 2.886751345947999425, -5.199999999999982414 ) ) ;
#8105 = CARTESIAN_POINT ( 'NONE',  ( 4.999999999999907629, 2.886751345948152192, -5.199999999999982414 ) ) ;
#8180 = CARTESIAN_POINT ( 'NONE',  ( -4.999999999999977796, -1.553854083445044720, -0.1361265181793358536 ) ) ;
#8372 = VERTEX_POINT ( 'NONE', #57526 ) ;
#8773 = PLANE ( 'NONE',  #305036 ) ;
#8969 = CARTESIAN_POINT ( 'NONE',  ( 2.606186294633148659, 4.268820333131509770, -5.199999999999870504 ) ) ;
#9582 = CARTESIAN_POINT ( 'NONE',  ( -1.942890293094023946E-13, 1.110223024625156540E-13, -5.199999999999871392 ) ) ;
#9703 = CARTESIAN_POINT ( 'NONE',  ( -4.999999999999977796, -2.268577061144430029, -0.2789486493928522992 ) ) ;
#9800 = CARTESIAN_POINT ( 'NONE',  ( 8.326672684688674053E-14, -6.938893903907228378E-14, -0.3501037691048258793 ) ) ;
#10526 = CARTESIAN_POINT ( 'NONE',  ( 3.580111454810725569, 3.706508225855319694, -5.111891713841892226 ) ) ;
#12023 = DIRECTION ( 'NONE',  ( -3.330669073875470607E-16, 3.885780586188048878E-16, -1.000000000000000000 ) ) ;
#12160 = ORIENTED_EDGE ( 'NONE', *, *, #284938, .T. ) ;
#12557 = CARTESIAN_POINT ( 'NONE',  ( -4.999999999999975131, 1.030971045398641595, -0.05941364346479929837 ) ) ;
#12797 = DIRECTION ( 'NONE',  ( 1.000000000000000000, -1.110223024625156540E-16, 0.000000000000000000 ) ) ;
#13603 = VECTOR ( 'NONE', #163037, 1000.000000000000000 ) ;
#13899 = CARTESIAN_POINT ( 'NONE',  ( 5.000052910311914900, -0.4847539199554880551, -0.01019552514075981221 ) ) ;
#13910 = ORIENTED_EDGE ( 'NONE', *, *, #78194, .F. ) ;
#14389 = ORIENTED_EDGE ( 'NONE', *, *, #286764, .F. ) ;
#15121 = ADVANCED_FACE ( 'NONE', ( #98524 ), #149406, .F. ) ;
#15636 = CARTESIAN_POINT ( 'NONE',  ( -4.999999999999974243, 1.402695720332918450, -0.1114400852488159621 ) ) ;
#16056 = EDGE_CURVE ( 'NONE', #238792, #24092, #237338, .T. ) ;
#16556 = CIRCLE ( 'NONE', #285355, 5.000000000000015987 ) ;
#16991 = CARTESIAN_POINT ( 'NONE',  ( 3.000000000000099920, -1.387778780781445676E-14, -5.174600000000029176 ) ) ;
#17280 = CARTESIAN_POINT ( 'NONE',  ( 1.655271807757224156, -4.817806063808959038, -5.146384637504448634 ) ) ;
#17292 = CARTESIAN_POINT ( 'NONE',  ( -0.8317598305175137874, 5.293280705425283728, -5.003987829579188862 ) ) ;
#17323 = ORIENTED_EDGE ( 'NONE', *, *, #152628, .T. ) ;
#17333 = CONICAL_SURFACE ( 'NONE', #121908, 5.000000000000015987, 1.047197551196597409 ) ;
#17882 = LINE ( 'NONE', #193942, #95946 ) ;
#18533 = ORIENTED_EDGE ( 'NONE', *, *, #279811, .F. ) ;
#18831 = CARTESIAN_POINT ( 'NONE',  ( -1.970336903463429490, 4.635918773081256994, -5.178701302384880911 ) ) ;
#19341 = CARTESIAN_POINT ( 'NONE',  ( -3.752207878678685216, -3.607164463085541506, -0.1182739130726976340 ) ) ;
#19422 = EDGE_CURVE ( 'NONE', #275731, #220170, #285326, .T. ) ;
#19449 = CARTESIAN_POINT ( 'NONE',  ( -5.000053725738490051, -0.8517464222564150589, -5.159217899436834287 ) ) ;
#19454 = EDGE_CURVE ( 'NONE', #31692, #234291, #23674, .T. ) ;
#19653 = ORIENTED_EDGE ( 'NONE', *, *, #232286, .F. ) ;
#19918 = AXIS2_PLACEMENT_3D ( 'NONE', #25575, #30187, #97272 ) ;
#20001 = CARTESIAN_POINT ( 'NONE',  ( 2.500000000000002220, 4.330127018922088844, -5.200000000000038369 ) ) ;
#20463 = B_SPLINE_CURVE_WITH_KNOTS ( 'NONE', 3,
 ( #166708, #193118, #93444, #260267, #51242, #45123, #218034, #213467, #94994, #27830, #49709, #264828, #71619, #194704, #73173, #24803, #118346 ),
 .UNSPECIFIED., .F., .F.,
 ( 4, 2, 2, 2, 2, 1, 2, 2, 4 ),
 ( 0.000000000000000000, 0.1250000000000013323, 0.1875000000000018319, 0.2500000000000023315, 0.3750000000000027756, 0.4375000000000029976, 0.4687500000000029976, 0.5000000000000029976, 1.000000000000000000 ),
 .UNSPECIFIED. ) ;
#20466 = SHAPE_DEFINITION_REPRESENTATION ( #144217, #91477 ) ;
#20675 = CARTESIAN_POINT ( 'NONE',  ( 0.2128293729244852550, 5.650625596146789498, -4.824361136922934890 ) ) ;
#20785 = ORIENTED_EDGE ( 'NONE', *, *, #79608, .F. ) ;
#21051 = CIRCLE ( 'NONE', #250091, 2.500000000000007994 ) ;
#21868 = VERTEX_POINT ( 'NONE', #144840 ) ;
#22806 = EDGE_CURVE ( 'NONE', #8372, #103481, #92932, .T. ) ;
#23492 = CARTESIAN_POINT ( 'NONE',  ( -2.499999999999960476, 4.330127018922366844, -5.199999999999982414 ) ) ;
#23674 = B_SPLINE_CURVE_WITH_KNOTS ( 'NONE', 3,
 ( #126248, #221351, #151119, #59165, #154183, #246305, #127790, #252476, #205718, #182221, #137006, #257071, #161876 ),
 .UNSPECIFIED., .F., .F.,
 ( 4, 2, 2, 1, 2, 2, 4 ),
 ( 0.000000000000000000, 0.2500000000000019984, 0.3750000000000035527, 0.4375000000000047184, 0.4687500000000048850, 0.5000000000000049960, 1.000000000000000000 ),
 .UNSPECIFIED. ) ;
#23741 = CARTESIAN_POINT ( 'NONE',  ( 2.500000000000002220, 4.330127018922088844, -5.200000000000038369 ) ) ;
#24092 = VERTEX_POINT ( 'NONE', #16991 ) ;
#24747 = DIRECTION ( 'NONE',  ( 3.330669073875470607E-16, -3.885780586188048878E-16, 1.000000000000000000 ) ) ;
#24803 = CARTESIAN_POINT ( 'NONE',  ( -4.574318964285424727, -3.132518406506730191, -4.895311691186304159 ) ) ;
#24951 = ORIENTED_EDGE ( 'NONE', *, *, #141140, .T. ) ;
#25043 = CARTESIAN_POINT ( 'NONE',  ( 0.000000000000000000, 0.000000000000000000, 0.000000000000000000 ) ) ;
#25065 = EDGE_CURVE ( 'NONE', #228586, #251027, #295144, .T. ) ;
#25107 = EDGE_LOOP ( 'NONE', ( #19653, #228058 ) ) ;
#25239 = CARTESIAN_POINT ( 'NONE',  ( 3.940185097169606188, -3.498952318999751565, -5.044695936827512384 ) ) ;
#25575 = CARTESIAN_POINT ( 'NONE',  ( 0.000000000000000000, 0.000000000000000000, 0.000000000000000000 ) ) ;
#25868 = EDGE_CURVE ( 'NONE', #5065, #58296, #105840, .T. ) ;
#25896 = ORIENTED_EDGE ( 'NONE', *, *, #74823, .T. ) ;
#26350 = CARTESIAN_POINT ( 'NONE',  ( -5.000081813043331103, 0.9776707624268882180, -5.146084249832694191 ) ) ;
#26740 = CARTESIAN_POINT ( 'NONE',  ( 4.270783280462648435, -3.307850122719540931, -4.968546491611504301 ) ) ;
#26784 = ORIENTED_EDGE ( 'NONE', *, *, #227249, .T. ) ;
#27125 = AXIS2_PLACEMENT_3D ( 'NONE', #137600, #279475, #42503 ) ;
#27830 = CARTESIAN_POINT ( 'NONE',  ( -3.501560311359512845, -3.751852302916311555, -5.123991225408918382 ) ) ;
#27850 = CARTESIAN_POINT ( 'NONE',  ( -5.000000000000060396, 2.886751345948249003, -4.753418012614696764 ) ) ;
#28409 = ORIENTED_EDGE ( 'NONE', *, *, #276268, .T. ) ;
#29201 = ORIENTED_EDGE ( 'NONE', *, *, #25868, .T. ) ;
#29328 = LINE ( 'NONE', #193067, #127228 ) ;
#29912 = EDGE_CURVE ( 'NONE', #233760, #115888, #29328, .T. ) ;
#30045 = CARTESIAN_POINT ( 'NONE',  ( -4.999999999999976907, -1.482759689068492426, -0.1242522653321879306 ) ) ;
#30187 = DIRECTION ( 'NONE',  ( -3.330669073875470607E-16, 3.885780586188048878E-16, -1.000000000000000000 ) ) ;
#30266 = DIRECTION ( 'NONE',  ( 3.330669073875470607E-16, -3.885780586188048878E-16, 1.000000000000000000 ) ) ;
#30496 = CIRCLE ( 'NONE', #75535, 3.000000000000009770 ) ;
#30729 = LINE ( 'NONE', #100910, #300783 ) ;
#31505 = PLANE ( 'NONE',  #3121 ) ;
#31568 = CARTESIAN_POINT ( 'NONE',  ( -4.999999999999976019, -1.653953887738740747, -0.1535848426779506670 ) ) ;
#31595 = CARTESIAN_POINT ( 'NONE',  ( -6.938893903907228378E-14, 5.773502691896414518, -5.199999999999982414 ) ) ;
#31692 = VERTEX_POINT ( 'NONE', #224187 ) ;
#32165 = CARTESIAN_POINT ( 'NONE',  ( 4.999999999999906741, 1.433815109396272325, -5.083661449465481930 ) ) ;
#32242 = CIRCLE ( 'NONE', #72136, 5.000000000000016875 ) ;
#32373 = CARTESIAN_POINT ( 'NONE',  ( 3.344706537868717966, 3.842410467600445134, -5.146384637506955073 ) ) ;
#32567 = CARTESIAN_POINT ( 'NONE',  ( -2.077532180901184855, -4.574038928002869930, -5.199999999999873168 ) ) ;
#32680 = CIRCLE ( 'NONE', #97447, 3.000000000000009770 ) ;
#32963 = FACE_OUTER_BOUND ( 'NONE', #256922, .T. ) ;
#33073 = VECTOR ( 'NONE', #166897, 1000.000000000000000 ) ;
#33362 = CARTESIAN_POINT ( 'NONE',  ( 2.499999999999891198, 4.330127018922144799, 5.551115123125782702E-14 ) ) ;
#33692 = CARTESIAN_POINT ( 'NONE',  ( 2.775557561562891351E-14, -5.773502691896317707, -5.200000000000204459 ) ) ;
#33710 = ADVANCED_FACE ( 'NONE', ( #32963 ), #227730, .T. ) ;
#33751 = CARTESIAN_POINT ( 'NONE',  ( -8.326672684688674053E-14, -5.773502691896206684, -0.4465819873853416055 ) ) ;
#33939 = VERTEX_POINT ( 'NONE', #252732 ) ;
#33968 = DIRECTION ( 'NONE',  ( -1.000000000000000000, 1.110223024625152966E-16, 0.000000000000000000 ) ) ;
#34269 = CARTESIAN_POINT ( 'NONE',  ( -5.000000000000087930, 2.886751345948110448, -0.4465819873851195609 ) ) ;
#34635 = ADVANCED_FACE ( 'NONE', ( #220662 ), #214570, .T. ) ;
#35669 = CARTESIAN_POINT ( 'NONE',  ( -0.9839503124536167489, -5.205680392149761637, -5.028199497922550165 ) ) ;
#36649 = EDGE_CURVE ( 'NONE', #8372, #224885, #58223, .T. ) ;
#36726 = AXIS2_PLACEMENT_3D ( 'NONE', #127334, #172563, #96321 ) ;
#36803 = CARTESIAN_POINT ( 'NONE',  ( 4.999999999999906741, 1.450920078706154248, -5.080923569620756197 ) ) ;
#36809 = CARTESIAN_POINT ( 'NONE',  ( 5.000000954833127231, 1.403764976359791472, -0.1115647616596427277 ) ) ;
#37200 = CIRCLE ( 'NONE', #27125, 2.500000000000007994 ) ;
#37636 = CARTESIAN_POINT ( 'NONE',  ( -1.804112415015879378E-13, -5.773502691896386985, -4.753418012615028942 ) ) ;
#38264 = ORIENTED_EDGE ( 'NONE', *, *, #79019, .T. ) ;
#38495 = ORIENTED_EDGE ( 'NONE', *, *, #254024, .T. ) ;
#38928 = CARTESIAN_POINT ( 'NONE',  ( 4.999999999999906741, -1.653953887737305228, -5.046415157322387657 ) ) ;
#39221 = DIRECTION ( 'NONE',  ( 3.330669073875470607E-16, -3.885780586188048878E-16, 1.000000000000000000 ) ) ;
#39911 = AXIS2_PLACEMENT_3D ( 'NONE', #40691, #258917, #88984 ) ;
#40111 = VECTOR ( 'NONE', #151043, 1000.000000000000000 ) ;
#40583 = CARTESIAN_POINT ( 'NONE',  ( -4.999999999999974243, 2.388313729988095435, -0.3026954415108441543 ) ) ;
#40679 = CARTESIAN_POINT ( 'NONE',  ( 0.000000000000000000, 0.000000000000000000, -25.03750572909313377 ) ) ;
#40691 = CARTESIAN_POINT ( 'NONE',  ( -1.942890293094023946E-13, 1.110223024625156540E-13, -5.199999999999871392 ) ) ;
#40716 = CARTESIAN_POINT ( 'NONE',  ( -2.393813705372604073, 4.391433704709810648, -5.199999999999866951 ) ) ;
#40772 = CARTESIAN_POINT ( 'NONE',  ( 2.500000000000057732, -4.330127018922088844, -5.551115123125782702E-14 ) ) ;
#41680 = ORIENTED_EDGE ( 'NONE', *, *, #200780, .F. ) ;
#42085 = CARTESIAN_POINT ( 'NONE',  ( -4.999999999999974243, 0.2390467506737315173, 1.545187753557981926E-14 ) ) ;
#42214 = CARTESIAN_POINT ( 'NONE',  ( -1.341022227231366548, 4.999256857199874560, -5.098437994007950280 ) ) ;
#42503 = DIRECTION ( 'NONE',  ( -1.000000000000000000, 1.110223024625129300E-16, 0.000000000000000000 ) ) ;
#43034 = DIRECTION ( 'NONE',  ( -3.330669073875470607E-16, 3.885780586188048878E-16, -1.000000000000000000 ) ) ;
#43103 = CLOSED_SHELL ( 'NONE', ( #292896, #73187, #231583, #237283, #217212, #50701, #206794, #70691, #211579, #144788, #102791, #239127, #208741, #172312, #74655, #194394, #84188, #33710, #34635, #178663, #51746, #208078, #98583, #286296, #240515, #144075, #15121, #47688 ) ) ;
#43207 = AXIS2_PLACEMENT_3D ( 'NONE', #130881, #252478, #183786 ) ;
#43249 = AXIS2_PLACEMENT_3D ( 'NONE', #178144, #151672, #154749 ) ;
#43526 = B_SPLINE_CURVE_WITH_KNOTS ( 'NONE', 3,
 ( #109207, #42085, #255743, #12557, #112262, #252662, #15636, #134117, #159030, #135666, #40583, #229221 ),
 .UNSPECIFIED., .F., .F.,
 ( 4, 1, 1, 1, 1, 2, 2, 4 ),
 ( 0.000000000000000000, 0.2499999999999998335, 0.3749999999999997224, 0.4374999999999995004, 0.4687499999999992784, 0.4843749999999992784, 0.4999999999999992784, 1.000000000000000000 ),
 .UNSPECIFIED. ) ;
#43540 = CARTESIAN_POINT ( 'NONE',  ( -1.942890293094023946E-13, 1.110223024625156540E-13, -5.199999999999871392 ) ) ;
#43945 = AXIS2_PLACEMENT_3D ( 'NONE', #260298, #95022, #68579 ) ;
#44811 = VERTEX_POINT ( 'NONE', #270708 ) ;
#45123 = CARTESIAN_POINT ( 'NONE',  ( -3.029654975637058989, -4.024321198954354806, -5.178701302384873806 ) ) ;
#45764 = FACE_OUTER_BOUND ( 'NONE', #241471, .T. ) ;
#47442 = ORIENTED_EDGE ( 'NONE', *, *, #238038, .T. ) ;
#47586 = CARTESIAN_POINT ( 'NONE',  ( -1.247792121321197767, 5.053089574758963032, -0.1182739130729049820 ) ) ;
#47688 = ADVANCED_FACE ( 'NONE', ( #94848 ), #191449, .F. ) ;
#48308 = VERTEX_POINT ( 'NONE', #205745 ) ;
#48586 = B_SPLINE_CURVE_WITH_KNOTS ( 'NONE', 3,
 ( #102734, #246164, #199454, #292857, #57503, #35669, #130735, #77860, #200975, #174433, #294403, #32567, #80907 ),
 .UNSPECIFIED., .F., .F.,
 ( 4, 2, 2, 1, 2, 2, 4 ),
 ( 0.000000000000000000, 0.2500000000000013323, 0.3750000000000018874, 0.4375000000000022204, 0.4687500000000024980, 0.5000000000000027756, 1.000000000000000000 ),
 .UNSPECIFIED. ) ;
#49709 = CARTESIAN_POINT ( 'NONE',  ( -3.580111454795412929, -3.706508225864692196, -5.111891713844250340 ) ) ;
#49736 = CARTESIAN_POINT ( 'NONE',  ( -5.000079138055268935, 0.4887644637147341986, -5.187049079939089147 ) ) ;
#49751 = AXIS2_PLACEMENT_3D ( 'NONE', #284632, #231778, #71160 ) ;
#49794 = AXIS2_PLACEMENT_3D ( 'NONE', #256675, #43034, #237823 ) ;
#50623 = CONICAL_SURFACE ( 'NONE', #105587, 5.000000000000015987, 1.047197551196597409 ) ;
#50701 = ADVANCED_FACE ( 'NONE', ( #238599 ), #17333, .T. ) ;
#51082 = EDGE_CURVE ( 'NONE', #48308, #238985, #271795, .T. ) ;
#51176 = CARTESIAN_POINT ( 'NONE',  ( 5.000000000000073719, 2.886751345948026959, -0.4465819873855636502 ) ) ;
#51242 = CARTESIAN_POINT ( 'NONE',  ( -2.923578897736035742, -4.085547700554721828, -5.186446283335782503 ) ) ;
#51676 = CARTESIAN_POINT ( 'NONE',  ( 4.999999999999948486, -2.886751345948221470, -4.753418012614918808 ) ) ;
#51746 = ADVANCED_FACE ( 'NONE', ( #226262 ), #31505, .F. ) ;
#51902 = DIRECTION ( 'NONE',  ( -1.000000000000000000, 1.110223024625152966E-16, 0.000000000000000000 ) ) ;
#53185 = ORIENTED_EDGE ( 'NONE', *, *, #64312, .T. ) ;
#54435 = AXIS2_PLACEMENT_3D ( 'NONE', #286179, #94557, #189626 ) ;
#54965 = CARTESIAN_POINT ( 'NONE',  ( -4.999999999999976907, -2.635818128968841823, -0.3741438071993353764 ) ) ;
#54988 = DIRECTION ( 'NONE',  ( -1.942890293094020741E-16, -1.000000000000000000, 5.551115123125774074E-17 ) ) ;
#55335 = DIRECTION ( 'NONE',  ( -1.000000000000000000, 1.110223024625152966E-16, 0.000000000000000000 ) ) ;
#55554 = VECTOR ( 'NONE', #149419, 1000.000000000000000 ) ;
#55885 = CARTESIAN_POINT ( 'NONE',  ( -5.000011647126387793, 1.251187025094470995, -5.111324559697353109 ) ) ;
#56130 = ORIENTED_EDGE ( 'NONE', *, *, #185231, .F. ) ;
#57302 = B_SPLINE_CURVE_WITH_KNOTS ( 'NONE', 3,
 ( #209652, #63127, #281234, #203507, #298462, #158147, #214245, #122128, #139412, #69292, #666, #2189 ),
 .UNSPECIFIED., .F., .F.,
 ( 4, 1, 1, 1, 1, 2, 2, 4 ),
 ( 0.000000000000000000, 0.2499999999999943379, 0.3749999999999913958, 0.4374999999999900635, 0.4687499999999895084, 0.4843749999999895084, 0.4999999999999895639, 1.000000000000000000 ),
 .UNSPECIFIED. ) ;
#57503 = CARTESIAN_POINT ( 'NONE',  ( -0.8313852261706060620, -5.293655537530309374, -4.993651661237046291 ) ) ;
#57526 = CARTESIAN_POINT ( 'NONE',  ( 2.775557561562891351E-14, 5.773502691896512218, -4.753418012614862853 ) ) ;
#57531 = DIRECTION ( 'NONE',  ( -3.330669073875471100E-16, -5.551115123125767911E-17, -1.000000000000000000 ) ) ;
#57949 = CARTESIAN_POINT ( 'NONE',  ( 0.4256810356906252646, -5.527735631351013090, -4.895311691178356739 ) ) ;
#58223 = LINE ( 'NONE', #153222, #76619 ) ;
#58296 = VERTEX_POINT ( 'NONE', #136389 ) ;
#58615 = CARTESIAN_POINT ( 'NONE',  ( 4.999999999999908518, 1.030971045398998198, -5.140586356535164825 ) ) ;
#59165 = CARTESIAN_POINT ( 'NONE',  ( -4.270783280464089060, 3.307850122719347752, -4.968546491611170346 ) ) ;
#59473 = ORIENTED_EDGE ( 'NONE', *, *, #89172, .T. ) ;
#59577 = CARTESIAN_POINT ( 'NONE',  ( 5.000000000000073719, 2.886751345948026959, -0.4465819873855636502 ) ) ;
#59587 = ORIENTED_EDGE ( 'NONE', *, *, #306454, .T. ) ;
#60034 = EDGE_LOOP ( 'NONE', ( #86592, #133663, #188530, #200860 ) ) ;
#60091 = CARTESIAN_POINT ( 'NONE',  ( -5.000000000000046185, -2.775557561562891351E-14, -5.199999999999871392 ) ) ;
#60162 = CARTESIAN_POINT ( 'NONE',  ( 4.999999999999907629, 0.2390467506740325820, -5.199999999999984190 ) ) ;
#60168 = CARTESIAN_POINT ( 'NONE',  ( 5.000030993462890372, 1.159959037216009570, -0.07648407990161096293 ) ) ;
#60996 = CARTESIAN_POINT ( 'NONE',  ( 1.341022227211178475, -4.999256857209870120, -5.098437994005202256 ) ) ;
#61126 = EDGE_LOOP ( 'NONE', ( #72460, #279577, #13910, #72149, #112156, #259374 ) ) ;
#61667 = ORIENTED_EDGE ( 'NONE', *, *, #67720, .F. ) ;
#62233 = EDGE_CURVE ( 'NONE', #220170, #231517, #262092, .T. ) ;
#62298 = CARTESIAN_POINT ( 'NONE',  ( 4.999999999999904965, -1.511168825700919260, -5.071040102630512081 ) ) ;
#62740 = ( LENGTH_UNIT ( ) NAMED_UNIT ( * ) SI_UNIT ( .MILLI., .METRE. ) );
#63127 = CARTESIAN_POINT ( 'NONE',  ( 2.293648061408136041, -4.449264366216080901, -2.058136040122642914E-13 ) ) ;
#63185 = CARTESIAN_POINT ( 'NONE',  ( -4.999902888393634726, -1.923877449023083441, -4.994390272318494084 ) ) ;
#63201 = DIRECTION ( 'NONE',  ( 1.000000000000000000, -1.110223024625153952E-16, 0.000000000000000000 ) ) ;
#63205 = CARTESIAN_POINT ( 'NONE',  ( 2.500000000000071498, 2.081668171172168513E-13, -4.824496230894926185 ) ) ;
#63875 = CARTESIAN_POINT ( 'NONE',  ( 4.106836025232008858, -3.402419807210977254, -0.1488606624619426277 ) ) ;
#64107 = CARTESIAN_POINT ( 'NONE',  ( 1.260827784334566326, -5.045563757734538690, -5.084162590182168096 ) ) ;
#64312 = EDGE_CURVE ( 'NONE', #275731, #90532, #234965, .T. ) ;
#65684 = CARTESIAN_POINT ( 'NONE',  ( -1.916114026387933045, 4.667234432961476998, -5.174077065525143126 ) ) ;
#65810 = DIRECTION ( 'NONE',  ( 1.000000000000000000, -1.110223024625152966E-16, 0.000000000000000000 ) ) ;
#66274 = CARTESIAN_POINT ( 'NONE',  ( -4.999997760961292670, -1.512948884976483832, -5.070782233572900921 ) ) ;
#67221 = CONICAL_SURFACE ( 'NONE', #241432, 2.450000000000007727, 0.9599310885968801443 ) ;
#67720 = EDGE_CURVE ( 'NONE', #33939, #236801, #48586, .T. ) ;
#68182 = CARTESIAN_POINT ( 'NONE',  ( -2.499999999999974243, -4.330127018922228288, 1.665334536937734811E-13 ) ) ;
#68579 = DIRECTION ( 'NONE',  ( -3.330669073875470114E-16, 3.885780586188048385E-16, -1.000000000000000000 ) ) ;
#68743 = CARTESIAN_POINT ( 'NONE',  ( 2.775557561562891351E-14, 5.773502691896512218, -4.753418012614862853 ) ) ;
#69010 = CARTESIAN_POINT ( 'NONE',  ( 0.4210197209188747403, 5.530387445901357779, -4.887011147210592377 ) ) ;
#69148 = APPLICATION_CONTEXT ( 'automotive_design' ) ;
#69292 = CARTESIAN_POINT ( 'NONE',  ( 0.8450723845033866199, -5.285599923218587293, -0.1935026644835654563 ) ) ;
#69605 = CARTESIAN_POINT ( 'NONE',  ( 4.999999999999907629, 2.886751345948152192, -5.199999999999982414 ) ) ;
#69815 = DIRECTION ( 'NONE',  ( -1.000000000000000000, 1.110223024625152966E-16, 0.000000000000000000 ) ) ;
#69980 = ORIENTED_EDGE ( 'NONE', *, *, #29912, .F. ) ;
#70093 = ORIENTED_EDGE ( 'NONE', *, *, #118710, .T. ) ;
#70691 = ADVANCED_FACE ( 'NONE', ( #187995 ), #268971, .T. ) ;
#70945 = ORIENTED_EDGE ( 'NONE', *, *, #36649, .F. ) ;
#71160 = DIRECTION ( 'NONE',  ( -1.000000000000000000, 1.110223024625152966E-16, 0.000000000000000000 ) ) ;
#71619 = CARTESIAN_POINT ( 'NONE',  ( -3.711627688706229389, -3.630592086131777307, -5.089167912279290107 ) ) ;
#71869 = CARTESIAN_POINT ( 'NONE',  ( -4.999999999999879208, -2.886751345948054936, -5.199999999999816325 ) ) ;
#72045 = CARTESIAN_POINT ( 'NONE',  ( 4.016276307351104080, -3.454966162723049017, -5.028199497924583206 ) ) ;
#72095 = CARTESIAN_POINT ( 'NONE',  ( 8.326672684688674053E-14, -2.081668171172168513E-13, -5.174599999999918154 ) ) ;
#72136 = AXIS2_PLACEMENT_3D ( 'NONE', #277652, #39221, #159181 ) ;
#72149 = ORIENTED_EDGE ( 'NONE', *, *, #210182, .F. ) ;
#72280 = DIRECTION ( 'NONE',  ( -1.000000000000000000, 1.110223024625152966E-16, 0.000000000000000000 ) ) ;
#72460 = ORIENTED_EDGE ( 'NONE', *, *, #105507, .F. ) ;
#73108 = CARTESIAN_POINT ( 'NONE',  ( 4.566790446476503895, 3.136864998290405993, -0.3021788028769868961 ) ) ;
#73173 = CARTESIAN_POINT ( 'NONE',  ( -4.168235645001765910, -3.366965495787920926, -5.003987829579182645 ) ) ;
#73187 = ADVANCED_FACE ( 'NONE', ( #150763 ), #75634, .F. ) ;
#74095 = CARTESIAN_POINT ( 'NONE',  ( -5.000000000000060396, -2.886751345948179726, -0.4465819873850640498 ) ) ;
#74121 = CARTESIAN_POINT ( 'NONE',  ( -1.610128280263178446, 4.843894695856676869, -0.05902101972611724368 ) ) ;
#74634 = CARTESIAN_POINT ( 'NONE',  ( 4.154927615498937854, 3.374654114624505041, -0.1935026644841030818 ) ) ;
#74655 = ADVANCED_FACE ( 'NONE', ( #158935 ), #191046, .T. ) ;
#74823 = EDGE_CURVE ( 'NONE', #251027, #48308, #57302, .T. ) ;
#75510 = DIRECTION ( 'NONE',  ( 0.8191520442889914655, -3.469446951953607779E-16, 0.5735764363510466035 ) ) ;
#75535 = AXIS2_PLACEMENT_3D ( 'NONE', #163690, #230830, #207538 ) ;
#75634 = CONICAL_SURFACE ( 'NONE', #244954, 3.000000000000009770, 0.9599310885968851403 ) ;
#76217 = ORIENTED_EDGE ( 'NONE', *, *, #25065, .T. ) ;
#76456 = AXIS2_PLACEMENT_3D ( 'NONE', #297896, #177896, #296374 ) ;
#76619 = VECTOR ( 'NONE', #293600, 1000.000000000000000 ) ;
#77646 = DIRECTION ( 'NONE',  ( -1.000000000000000000, 1.110223024625112783E-16, 0.000000000000000000 ) ) ;
#77802 = ORIENTED_EDGE ( 'NONE', *, *, #101273, .T. ) ;
#77860 = CARTESIAN_POINT ( 'NONE',  ( -1.136093047022375790, -5.117936016508839003, -5.060026156570334166 ) ) ;
#77971 = DIRECTION ( 'NONE',  ( 3.330669073875470114E-16, -3.885780586188048385E-16, 1.000000000000000000 ) ) ;
#78075 = CONICAL_SURFACE ( 'NONE', #296932, 5.000000000000015987, 1.047197551196597409 ) ;
#78194 = EDGE_CURVE ( 'NONE', #251027, #238985, #212184, .T. ) ;
#78941 = AXIS2_PLACEMENT_3D ( 'NONE', #8039, #198269, #226198 ) ;
#79019 = EDGE_CURVE ( 'NONE', #233760, #238792, #93084, .T. ) ;
#79299 = AXIS2_PLACEMENT_3D ( 'NONE', #153837, #205379, #83725 ) ;
#79411 = DIRECTION ( 'NONE',  ( -1.942890293094020741E-16, -1.000000000000000000, 5.551115123125774074E-17 ) ) ;
#79608 = EDGE_CURVE ( 'NONE', #90916, #274768, #283062, .T. ) ;
#79702 = DIRECTION ( 'NONE',  ( 3.330669073875470607E-16, -3.885780586188048878E-16, 1.000000000000000000 ) ) ;
#80517 = DIRECTION ( 'NONE',  ( -3.330669073875470114E-16, 3.885780586188048385E-16, -1.000000000000000000 ) ) ;
#80907 = CARTESIAN_POINT ( 'NONE',  ( -2.500000000000043965, -4.330127018922144799, -5.199999999999982414 ) ) ;
#81486 = DIRECTION ( 'NONE',  ( 3.330669073875470607E-16, -3.885780586188048878E-16, 1.000000000000000000 ) ) ;
#81780 = CARTESIAN_POINT ( 'NONE',  ( 0.000000000000000000, 0.000000000000000000, 0.000000000000000000 ) ) ;
#82546 = CARTESIAN_POINT ( 'NONE',  ( 4.999883932226980576, -2.041994274513264429, -0.2307615786641561140 ) ) ;
#83157 = CARTESIAN_POINT ( 'NONE',  ( -1.942890293094023946E-13, 1.110223024625156540E-13, -5.199999999999871392 ) ) ;
#83581 = AXIS2_PLACEMENT_3D ( 'NONE', #207800, #245681, #150504 ) ;
#83725 = DIRECTION ( 'NONE',  ( 1.000000000000000000, -1.110223024625129300E-16, 0.000000000000000000 ) ) ;
#84016 = ORIENTED_EDGE ( 'NONE', *, *, #89172, .F. ) ;
#84121 = CARTESIAN_POINT ( 'NONE',  ( 4.999999999999906741, -1.469874602778369121, -5.077857489658796020 ) ) ;
#84188 = ADVANCED_FACE ( 'NONE', ( #7669, #294431 ), #199479, .F. ) ;
#84659 = B_SPLINE_CURVE_WITH_KNOTS ( 'NONE', 3,
 ( #51676, #170172, #3370, #26740, #237245, #72045, #25239, #188952, #146712, #193568, #167076, #307359, #142164 ),
 .UNSPECIFIED., .F., .F.,
 ( 4, 2, 2, 1, 2, 2, 4 ),
 ( 0.000000000000000000, 0.2500000000000002776, 0.3750000000000008882, 0.4375000000000010547, 0.4687500000000009992, 0.5000000000000009992, 1.000000000000000000 ),
 .UNSPECIFIED. ) ;
#84812 = CONICAL_SURFACE ( 'NONE', #273942, 2.450000000000007727, 0.9599310885968801443 ) ;
#84813 = ORIENTED_EDGE ( 'NONE', *, *, #248887, .F. ) ;
#85028 = CARTESIAN_POINT ( 'NONE',  ( -4.999946531887578871, -1.747428070513620924, -5.028979302582115452 ) ) ;
#85100 = CARTESIAN_POINT ( 'NONE',  ( 4.999999999999905853, 1.402695720333118512, -5.088559914751145108 ) ) ;
#85275 = EDGE_CURVE ( 'NONE', #306794, #296475, #129269, .T. ) ;
#85625 = CARTESIAN_POINT ( 'NONE',  ( 4.999946531890248735, -1.747428070526130917, -0.1710206974216703368 ) ) ;
#85730 = FACE_OUTER_BOUND ( 'NONE', #286224, .T. ) ;
#85738 = EDGE_LOOP ( 'NONE', ( #148055, #26784, #180709, #289323 ) ) ;
#85774 = EDGE_LOOP ( 'NONE', ( #215616, #110612, #115662, #167221 ) ) ;
#86081 = CARTESIAN_POINT ( 'NONE',  ( 3.000000000000127454, 0.000000000000000000, 5.551115123125782702E-14 ) ) ;
#86564 = CARTESIAN_POINT ( 'NONE',  ( -5.000052910309155330, -0.4847539199756084605, -5.189804474859112560 ) ) ;
#86592 = ORIENTED_EDGE ( 'NONE', *, *, #85275, .F. ) ;
#86898 = DIRECTION ( 'NONE',  ( -3.330669073875470607E-16, 3.885780586188048878E-16, -1.000000000000000000 ) ) ;
#87041 = ORIENTED_EDGE ( 'NONE', *, *, #190732, .F. ) ;
#88086 = CARTESIAN_POINT ( 'NONE',  ( -5.000000000000170530, -2.886751345948235237, -4.753418012614640809 ) ) ;
#88377 = VERTEX_POINT ( 'NONE', #33362 ) ;
#88468 = EDGE_LOOP ( 'NONE', ( #28409, #84813, #133828 ) ) ;
#88984 = DIRECTION ( 'NONE',  ( -1.000000000000000000, -3.247402347028574203E-15, 3.469446951953604821E-16 ) ) ;
#89153 = ORIENTED_EDGE ( 'NONE', *, *, #118710, .F. ) ;
#89172 = EDGE_CURVE ( 'NONE', #31692, #5065, #30729, .T. ) ;
#89572 = EDGE_CURVE ( 'NONE', #143280, #219364, #32242, .T. ) ;
#89816 = ORIENTED_EDGE ( 'NONE', *, *, #105507, .T. ) ;
#90003 = EDGE_LOOP ( 'NONE', ( #90016, #172480, #47442, #24951, #218957, #104328 ) ) ;
#90016 = ORIENTED_EDGE ( 'NONE', *, *, #284938, .F. ) ;
#90379 = ORIENTED_EDGE ( 'NONE', *, *, #29912, .T. ) ;
#90532 = VERTEX_POINT ( 'NONE', #127171 ) ;
#90550 = CARTESIAN_POINT ( 'NONE',  ( -1.288371133015570491, 5.029659910875510676, -5.089167912279192407 ) ) ;
#90916 = VERTEX_POINT ( 'NONE', #218906 ) ;
#91477 = SHAPE_REPRESENTATION ( '\X2\041304300439043a0430\X0\ \X2\041c\X0\6 DIN 934', ( #267245 ), #118816 ) ;
#92065 = CARTESIAN_POINT ( 'NONE',  ( -0.4256810357148463897, 5.527735631337451494, -4.895311691186305936 ) ) ;
#92932 = B_SPLINE_CURVE_WITH_KNOTS ( 'NONE', 3,
 ( #212425, #20675, #69010, #259220, #235754, #165596, #260743, #284035, #160956, #307403, #136066, #115756, #23741 ),
 .UNSPECIFIED., .F., .F.,
 ( 4, 2, 2, 1, 2, 2, 4 ),
 ( 0.000000000000000000, 0.2500000000000016098, 0.3750000000000020539, 0.4375000000000022760, 0.4687500000000022760, 0.5000000000000023315, 1.000000000000000000 ),
 .UNSPECIFIED. ) ;
#92978 = CARTESIAN_POINT ( 'NONE',  ( 4.999999999999908518, -0.4751348152545302739, -5.199999999999985079 ) ) ;
#93084 = CIRCLE ( 'NONE', #43207, 3.000000000000009770 ) ;
#93444 = CARTESIAN_POINT ( 'NONE',  ( -2.711896004068692356, -4.207755724422860943, -5.197418339682903010 ) ) ;
#93836 = CONICAL_SURFACE ( 'NONE', #253214, 5.000000000000015987, 1.047197551196597409 ) ;
#94063 = EDGE_CURVE ( 'NONE', #21868, #306794, #267322, .T. ) ;
#94416 = PRODUCT ( '\X2\041304300439043a0430\X0\ \X2\041c\X0\6 DIN 934', '\X2\041304300439043a0430\X0\ \X2\041c\X0\6 DIN 934', '', ( #193378 ) ) ;
#94557 = DIRECTION ( 'NONE',  ( -0.4999999999999998890, -0.8660254037844387076, -8.326672684688664192E-17 ) ) ;
#94620 = ORIENTED_EDGE ( 'NONE', *, *, #51082, .T. ) ;
#94848 = FACE_OUTER_BOUND ( 'NONE', #220023, .T. ) ;
#94994 = CARTESIAN_POINT ( 'NONE',  ( -3.344706537850762995, -3.842410467610001934, -5.146384637509654247 ) ) ;
#95022 = DIRECTION ( 'NONE',  ( 0.5000000000000003331, 0.8660254037844384856, 1.699850164233500512E-16 ) ) ;
#95524 = CARTESIAN_POINT ( 'NONE',  ( 2.999999999999864109, 5.551115123125782702E-14, -25.03750572909319061 ) ) ;
#95946 = VECTOR ( 'NONE', #75510, 1000.000000000000114 ) ;
#96321 = DIRECTION ( 'NONE',  ( 1.000000000000000000, -1.110223024625152966E-16, 0.000000000000000000 ) ) ;
#96441 = DIRECTION ( 'NONE',  ( -0.8191520442889947962, 6.383782391594630386E-16, -0.5735764363510416075 ) ) ;
#96499 = FACE_OUTER_BOUND ( 'NONE', #290688, .T. ) ;
#97272 = DIRECTION ( 'NONE',  ( -1.000000000000000000, 1.110223024625152966E-16, 0.000000000000000000 ) ) ;
#97447 = AXIS2_PLACEMENT_3D ( 'NONE', #180381, #133588, #228699 ) ;
#98136 = ORIENTED_EDGE ( 'NONE', *, *, #2236, .T. ) ;
#98524 = FACE_OUTER_BOUND ( 'NONE', #237213, .T. ) ;
#98583 = ADVANCED_FACE ( 'NONE', ( #265042 ), #101316, .T. ) ;
#99013 = CARTESIAN_POINT ( 'NONE',  ( -1.980832669080842878, 4.629868417183020668, -0.01506919652580447980 ) ) ;
#99089 = DIRECTION ( 'NONE',  ( 1.000000000000000000, -1.110223024625156540E-16, 0.000000000000000000 ) ) ;
#100910 = CARTESIAN_POINT ( 'NONE',  ( -4.999999999999976907, 2.886751345947999425, -5.199999999999982414 ) ) ;
#101023 = EDGE_CURVE ( 'NONE', #88377, #274768, #229460, .T. ) ;
#101047 = CARTESIAN_POINT ( 'NONE',  ( 3.576662188588703994, 3.708515814514182996, -0.08758970480631080024 ) ) ;
#101273 = EDGE_CURVE ( 'NONE', #238792, #233760, #32680, .T. ) ;
#101316 = PLANE ( 'NONE',  #219240 ) ;
#101366 = AXIS2_PLACEMENT_3D ( 'NONE', #294638, #176159, #247929 ) ;
#101959 = CYLINDRICAL_SURFACE ( 'NONE', #103821, 2.500000000000007994 ) ;
#102012 = DIRECTION ( 'NONE',  ( 1.000000000000000000, -1.110223024625153952E-16, 0.000000000000000000 ) ) ;
#102239 = B_SPLINE_CURVE_WITH_KNOTS ( 'NONE', 3,
 ( #169749, #264853, #246081, #49736, #243024, #144821, #26350, #241460, #55885, #146308, #218059, #286651, #150888, #126026, #27850 ),
 .UNSPECIFIED., .F., .F.,
 ( 4, 2, 2, 2, 1, 2, 2, 4 ),
 ( 0.000000000000000000, 0.1250000000000003331, 0.2500000000000007216, 0.3750000000000009992, 0.4375000000000011657, 0.4687500000000012212, 0.5000000000000013323, 1.000000000000000000 ),
 .UNSPECIFIED. ) ;
#102734 = CARTESIAN_POINT ( 'NONE',  ( -1.804112415015879378E-13, -5.773502691896386985, -4.753418012615028942 ) ) ;
#102791 = ADVANCED_FACE ( 'NONE', ( #172134 ), #212946, .T. ) ;
#103273 = CARTESIAN_POINT ( 'NONE',  ( -5.000000000000004441, -4.163336342344337027E-14, 2.220446049250313081E-13 ) ) ;
#103289 = CARTESIAN_POINT ( 'NONE',  ( 0.000000000000000000, 0.000000000000000000, 0.000000000000000000 ) ) ;
#103481 = VERTEX_POINT ( 'NONE', #20001 ) ;
#103492 = DIRECTION ( 'NONE',  ( 1.000000000000000000, -1.110223024625129300E-16, 0.000000000000000000 ) ) ;
#103821 = AXIS2_PLACEMENT_3D ( 'NONE', #83157, #30266, #103492 ) ;
#104078 = CARTESIAN_POINT ( 'NONE',  ( 3.083886571162366863, 3.993020639882927991, -5.174077065525931829 ) ) ;
#104328 = ORIENTED_EDGE ( 'NONE', *, *, #180924, .F. ) ;
#105470 = CARTESIAN_POINT ( 'NONE',  ( -1.726497308101270001, -4.776709006308682781, 2.072002942582725562E-13 ) ) ;
#105507 = EDGE_CURVE ( 'NONE', #231517, #58296, #278054, .T. ) ;
#105587 = AXIS2_PLACEMENT_3D ( 'NONE', #103289, #5146, #51902 ) ;
#105629 = CARTESIAN_POINT ( 'NONE',  ( 3.711627688711376827, 3.630592086128381357, -5.089167912278453443 ) ) ;
#105840 = B_SPLINE_CURVE_WITH_KNOTS ( 'NONE', 3,
 ( #248703, #225257, #133232, #228314 ),
 .UNSPECIFIED., .F., .F.,
 ( 4, 4 ),
 ( 0.000000000000000000, 1.000000000000000000 ),
 .UNSPECIFIED. ) ;
#105942 = CONICAL_SURFACE ( 'NONE', #280153, 5.000000000000015987, 1.047197551196597409 ) ;
#106248 = CARTESIAN_POINT ( 'NONE',  ( 1.916114026398221704, -4.667234432954029621, -5.174077065526750729 ) ) ;
#106471 = ORIENTED_EDGE ( 'NONE', *, *, #190732, .T. ) ;
#106865 = CARTESIAN_POINT ( 'NONE',  ( -1.942890293094023946E-13, 1.110223024625156540E-13, -5.199999999999871392 ) ) ;
#106955 = ORIENTED_EDGE ( 'NONE', *, *, #78194, .T. ) ;
#107531 = CARTESIAN_POINT ( 'NONE',  ( 4.999999999999905853, -2.268577061141344497, -4.921051350607962505 ) ) ;
#107757 = EDGE_LOOP ( 'NONE', ( #262997, #182580, #106471 ) ) ;
#107783 = CARTESIAN_POINT ( 'NONE',  ( 2.500000000000182521, -4.330127018922366844, -5.200000000000093436 ) ) ;
#108461 = B_SPLINE_CURVE_WITH_KNOTS ( 'NONE', 3,
 ( #245963, #8969, #172672, #177249, #178796, #174223, #104078, #149254, #32373, #273921, #10526, #227145, #105629, #267762, #269335, #153838, #249057 ),
 .UNSPECIFIED., .F., .F.,
 ( 4, 2, 2, 2, 2, 1, 2, 2, 4 ),
 ( 0.000000000000000000, 0.1249999999999993339, 0.1874999999999994171, 0.2499999999999995004, 0.3749999999999993339, 0.4374999999999992228, 0.4687499999999992784, 0.4999999999999993339, 1.000000000000000000 ),
 .UNSPECIFIED. ) ;
#108516 = CARTESIAN_POINT ( 'NONE',  ( -2.499999999999974243, -4.330127018922228288, 1.665334536937734811E-13 ) ) ;
#109082 = CARTESIAN_POINT ( 'NONE',  ( 5.000000000000198952, -2.886751345948013192, -0.4465819873852305832 ) ) ;
#109207 = CARTESIAN_POINT ( 'NONE',  ( -5.000000000000004441, -4.163336342344337027E-14, 2.220446049250313081E-13 ) ) ;
#110228 = CYLINDRICAL_SURFACE ( 'NONE', #79299, 2.500000000000007994 ) ;
#110550 = CARTESIAN_POINT ( 'NONE',  ( 4.999997760961934823, -1.512948884979531172, -0.1292177664279188509 ) ) ;
#110612 = ORIENTED_EDGE ( 'NONE', *, *, #85275, .T. ) ;
#111537 = CARTESIAN_POINT ( 'NONE',  ( 5.000000282946089669, 1.435922035634161542, -0.1166410769296214039 ) ) ;
#112122 = CARTESIAN_POINT ( 'NONE',  ( 4.999999999999948486, -2.886751345948221470, -4.753418012614918808 ) ) ;
#112156 = ORIENTED_EDGE ( 'NONE', *, *, #302445, .T. ) ;
#112262 = CARTESIAN_POINT ( 'NONE',  ( -4.999999999999975131, 1.247408411324296917, -0.08817237514191815506 ) ) ;
#112375 = EDGE_CURVE ( 'NONE', #103481, #90916, #108461, .T. ) ;
#112388 = CARTESIAN_POINT ( 'NONE',  ( 1.498419249856997926, -4.908366333999011566, -5.123991225403712768 ) ) ;
#112900 = CARTESIAN_POINT ( 'NONE',  ( -3.019167330921042502, -4.030385620660326573, -0.01506919652561638720 ) ) ;
#113330 = VECTOR ( 'NONE', #96441, 1000.000000000000114 ) ;
#113384 = EDGE_LOOP ( 'NONE', ( #77802, #38264 ) ) ;
#113782 = AXIS2_PLACEMENT_3D ( 'NONE', #235443, #307084, #165278 ) ;
#113798 = DIRECTION ( 'NONE',  ( -3.330669073875470607E-16, 3.885780586188048878E-16, -1.000000000000000000 ) ) ;
#113926 = CARTESIAN_POINT ( 'NONE',  ( -1.655271807790851701, 4.817806063788825810, -5.146384637509324733 ) ) ;
#114448 = CARTESIAN_POINT ( 'NONE',  ( -3.670416991624463776, -3.654386453743554863, -0.1035222407162518510 ) ) ;
#114474 = CARTESIAN_POINT ( 'NONE',  ( -1.387778780781445676E-14, 5.773502691896248429, -0.4465819873853416055 ) ) ;
#115479 = CARTESIAN_POINT ( 'NONE',  ( -1.498419249891586924, 4.908366333979954810, -5.123991225408587979 ) ) ;
#115662 = ORIENTED_EDGE ( 'NONE', *, *, #142968, .T. ) ;
#115756 = CARTESIAN_POINT ( 'NONE',  ( 2.077532180911097370, 4.574038927997142956, -5.199999999999870504 ) ) ;
#115861 = EDGE_LOOP ( 'NONE', ( #278127, #237855, #14389 ) ) ;
#115888 = VERTEX_POINT ( 'NONE', #282835 ) ;
#115984 = CARTESIAN_POINT ( 'NONE',  ( -3.710674671913450684, -3.631143671191757072, -0.1107036546855880571 ) ) ;
#117211 = ORIENTED_EDGE ( 'NONE', *, *, #128514, .F. ) ;
#118346 = CARTESIAN_POINT ( 'NONE',  ( -5.000000000000170530, -2.886751345948235237, -4.753418012614640809 ) ) ;
#118406 = EDGE_LOOP ( 'NONE', ( #164514, #41680, #207431, #56130 ) ) ;
#118700 = SHAPE_REPRESENTATION_RELATIONSHIP ( 'NONE' , 'NONE' ,  #91477, #206125 ) ;
#118710 = EDGE_CURVE ( 'NONE', #90532, #31692, #102239, .T. ) ;
#118816 = ( GEOMETRIC_REPRESENTATION_CONTEXT ( 3 ) GLOBAL_UNCERTAINTY_ASSIGNED_CONTEXT ( ( #1375 ) ) GLOBAL_UNIT_ASSIGNED_CONTEXT ( ( #62740, #203130, #231051 ) ) REPRESENTATION_CONTEXT ( 'NONE', 'WORKASPACE' ) );
#119304 = CARTESIAN_POINT ( 'NONE',  ( -2.293648061408183114, 4.449264366216170608, 1.673165788694767449E-14 ) ) ;
#119575 = LINE ( 'NONE', #211644, #232618 ) ;
#119632 = CARTESIAN_POINT ( 'NONE',  ( 5.000000000000198952, -2.886751345948013192, -0.4465819873852305832 ) ) ;
#120117 = DIRECTION ( 'NONE',  ( -3.330669073875470607E-16, 3.885780586188048878E-16, -1.000000000000000000 ) ) ;
#120139 = EDGE_LOOP ( 'NONE', ( #174841, #184327, #243186, #20785, #180336, #294211 ) ) ;
#120352 = EDGE_LOOP ( 'NONE', ( #255411, #98136, #70093 ) ) ;
#120808 = B_SPLINE_CURVE_WITH_KNOTS ( 'NONE', 3,
 ( #107783, #179450, #226247, #274551, #202948, #230867, #106248, #207568, #17280, #112388, #131173, #60996, #176359, #64107, #251235, #57949, #37636 ),
 .UNSPECIFIED., .F., .F.,
 ( 4, 2, 2, 2, 2, 1, 2, 2, 4 ),
 ( 0.000000000000000000, 0.1250000000000008882, 0.1875000000000010825, 0.2500000000000012768, 0.3750000000000021094, 0.4375000000000023870, 0.4687500000000023315, 0.5000000000000022204, 1.000000000000000000 ),
 .UNSPECIFIED. ) ;
#121257 = CARTESIAN_POINT ( 'NONE',  ( 0.000000000000000000, 0.000000000000000000, -25.03750572909313377 ) ) ;
#121908 = AXIS2_PLACEMENT_3D ( 'NONE', #25043, #120117, #145022 ) ;
#122128 = CARTESIAN_POINT ( 'NONE',  ( 1.262469752245825250, -5.044615440593445577, -0.1155697493974637002 ) ) ;
#122593 = CARTESIAN_POINT ( 'NONE',  ( 3.000000000000099920, -1.387778780781445676E-14, -5.174600000000029176 ) ) ;
#122711 = DIRECTION ( 'NONE',  ( 3.330669073875470607E-16, -3.885780586188048878E-16, 1.000000000000000000 ) ) ;
#123920 = CARTESIAN_POINT ( 'NONE',  ( -1.329583008375949005, 5.005867584100643697, -0.1035222407164338165 ) ) ;
#124360 = EDGE_CURVE ( 'NONE', #267450, #21868, #248007, .T. ) ;
#124379 = EDGE_LOOP ( 'NONE', ( #38495, #94620, #239383, #246893, #201986, #61667 ) ) ;
#124432 = CARTESIAN_POINT ( 'NONE',  ( 3.019167330920954573, 4.030385620660490886, -0.01506919652580229751 ) ) ;
#124657 = CARTESIAN_POINT ( 'NONE',  ( -3.000000000000071942, -1.387778780781445676E-14, -5.551115123125782702E-14 ) ) ;
#125438 = CARTESIAN_POINT ( 'NONE',  ( -1.289325328086775579, 5.029110366652546737, -0.1107036546857685516 ) ) ;
#125780 = CIRCLE ( 'NONE', #190588, 5.000000000000015987 ) ;
#125958 = DIRECTION ( 'NONE',  ( 3.330669073875470607E-16, -3.885780586188048878E-16, 1.000000000000000000 ) ) ;
#126026 = CARTESIAN_POINT ( 'NONE',  ( -5.000000000000205169, 2.396974358231072522, -4.894804450465368717 ) ) ;
#126248 = CARTESIAN_POINT ( 'NONE',  ( -5.000000000000060396, 2.886751345948249003, -4.753418012614696764 ) ) ;
#126727 = DIRECTION ( 'NONE',  ( 1.000000000000000000, -1.110223024625129300E-16, 0.000000000000000000 ) ) ;
#127171 = CARTESIAN_POINT ( 'NONE',  ( -5.000000000000046185, -2.775557561562891351E-14, -5.199999999999871392 ) ) ;
#127228 = VECTOR ( 'NONE', #24747, 1000.000000000000000 ) ;
#127334 = CARTESIAN_POINT ( 'NONE',  ( 0.000000000000000000, 0.000000000000000000, 0.000000000000000000 ) ) ;
#127385 = EDGE_CURVE ( 'NONE', #219364, #103481, #125780, .T. ) ;
#127790 = CARTESIAN_POINT ( 'NONE',  ( -3.940185097170536999, 3.498952318999791977, -5.044695936827343630 ) ) ;
#128207 = PLANE ( 'NONE',  #161287 ) ;
#128514 = EDGE_CURVE ( 'NONE', #115888, #24092, #210876, .T. ) ;
#129269 = LINE ( 'NONE', #175991, #40111 ) ;
#129398 = CONICAL_SURFACE ( 'NONE', #19918, 5.000000000000015987, 1.047197551196597409 ) ;
#129742 = CARTESIAN_POINT ( 'NONE',  ( -4.999999999999976907, -1.511168825701473928, -0.1289598973695712802 ) ) ;
#129767 = DIRECTION ( 'NONE',  ( -3.330669073875471100E-16, -5.551115123125767911E-17, -1.000000000000000000 ) ) ;
#130735 = CARTESIAN_POINT ( 'NONE',  ( -1.060089046296054827, -5.161776549265239211, -5.044695936825953630 ) ) ;
#130881 = CARTESIAN_POINT ( 'NONE',  ( -1.942890293094023946E-13, 1.110223024625156540E-13, -5.199999999999871392 ) ) ;
#131173 = CARTESIAN_POINT ( 'NONE',  ( 1.419874555505134861, -4.953721581181834921, -5.111891713839694873 ) ) ;
#131250 = CARTESIAN_POINT ( 'NONE',  ( -4.999999999999976019, -1.469874602778430184, -0.1221425103411720170 ) ) ;
#131260 = B_SPLINE_CURVE_WITH_KNOTS ( 'NONE', 3,
 ( #178574, #60162, #175522, #58615, #155184, #245754, #85100, #32165, #36803, #131852, #226930, #180149 ),
 .UNSPECIFIED., .F., .F.,
 ( 4, 1, 1, 1, 1, 2, 2, 4 ),
 ( 0.000000000000000000, 0.2500000000000012768, 0.3750000000000018874, 0.4375000000000023870, 0.4687500000000027756, 0.4843750000000028311, 0.5000000000000028866, 1.000000000000000000 ),
 .UNSPECIFIED. ) ;
#131790 = CARTESIAN_POINT ( 'NONE',  ( -5.000000000000207834, -0.2433049502879646719, -5.199999999999872280 ) ) ;
#131852 = CARTESIAN_POINT ( 'NONE',  ( 4.999999999999907629, 1.914384769093666394, -5.005713378591729601 ) ) ;
#131859 = CARTESIAN_POINT ( 'NONE',  ( 5.000000000000023093, 2.396974358246698245, -0.3051955495390512585 ) ) ;
#133232 = CARTESIAN_POINT ( 'NONE',  ( -3.273502691898738881, 3.883545031535745817, 1.683577236116047888E-14 ) ) ;
#133588 = DIRECTION ( 'NONE',  ( 3.330669073875470607E-16, -3.885780586188048878E-16, 1.000000000000000000 ) ) ;
#133663 = ORIENTED_EDGE ( 'NONE', *, *, #185231, .T. ) ;
#133828 = ORIENTED_EDGE ( 'NONE', *, *, #204055, .F. ) ;
#133905 = CARTESIAN_POINT ( 'NONE',  ( 5.000000000000017764, -0.2433049502678442111, -9.740878893424442806E-17 ) ) ;
#134117 = CARTESIAN_POINT ( 'NONE',  ( -4.999999999999976019, 1.433815109396089804, -0.1163385505344789045 ) ) ;
#134322 = ORIENTED_EDGE ( 'NONE', *, *, #301299, .T. ) ;
#134852 = CARTESIAN_POINT ( 'NONE',  ( -5.000000296020288282, -1.484862788014425394, -5.075441214765195497 ) ) ;
#135001 = EDGE_CURVE ( 'NONE', #252032, #143280, #84659, .T. ) ;
#135418 = EDGE_CURVE ( 'NONE', #238985, #231517, #302370, .T. ) ;
#135666 = CARTESIAN_POINT ( 'NONE',  ( -4.999999999999975131, 1.914384769093158800, -0.1942866214081339915 ) ) ;
#135736 = FACE_OUTER_BOUND ( 'NONE', #107757, .T. ) ;
#136066 = CARTESIAN_POINT ( 'NONE',  ( 1.667766004833740379, 4.811068438377351875, -5.159853130072227678 ) ) ;
#136389 = CARTESIAN_POINT ( 'NONE',  ( -2.500000000000085265, 4.330127018922061310, -2.220446049250313081E-13 ) ) ;
#136646 = CARTESIAN_POINT ( 'NONE',  ( -1.942890293094023946E-13, 1.110223024625156540E-13, -5.199999999999871392 ) ) ;
#136650 = EDGE_LOOP ( 'NONE', ( #235573, #235295, #208096 ) ) ;
#137006 = CARTESIAN_POINT ( 'NONE',  ( -3.332624484563465384, 3.849861946942976676, -5.159853130072227678 ) ) ;
#137104 = CARTESIAN_POINT ( 'NONE',  ( 0.000000000000000000, 0.000000000000000000, 0.000000000000000000 ) ) ;
#137600 = CARTESIAN_POINT ( 'NONE',  ( 1.942890293094023946E-13, 1.942890293094023946E-13, -4.824496230895203297 ) ) ;
#138686 = FACE_OUTER_BOUND ( 'NONE', #120139, .T. ) ;
#138812 = DIRECTION ( 'NONE',  ( 1.000000000000000000, -1.110223024625152966E-16, 0.000000000000000000 ) ) ;
#139322 = DIRECTION ( 'NONE',  ( 3.330669073875470607E-16, -3.885780586188048878E-16, 1.000000000000000000 ) ) ;
#139412 = CARTESIAN_POINT ( 'NONE',  ( 1.247792121321155578, -5.053089574758872438, -0.1182739130731359778 ) ) ;
#139651 = VECTOR ( 'NONE', #79702, 1000.000000000000000 ) ;
#140840 = LINE ( 'NONE', #302970, #233249 ) ;
#140844 = CARTESIAN_POINT ( 'NONE',  ( 0.000000000000000000, 0.000000000000000000, 0.000000000000000000 ) ) ;
#141140 = EDGE_CURVE ( 'NONE', #219364, #90916, #131260, .T. ) ;
#142018 = AXIS2_PLACEMENT_3D ( 'NONE', #247542, #86898, #33968 ) ;
#142164 = CARTESIAN_POINT ( 'NONE',  ( 2.500000000000182521, -4.330127018922366844, -5.200000000000093436 ) ) ;
#142968 = EDGE_CURVE ( 'NONE', #296475, #247205, #280579, .T. ) ;
#143280 = VERTEX_POINT ( 'NONE', #242409 ) ;
#144075 = ADVANCED_FACE ( 'NONE', ( #226377 ), #67221, .F. ) ;
#144217 = PRODUCT_DEFINITION_SHAPE ( 'NONE', 'NONE',  #230126 ) ;
#144421 = ORIENTED_EDGE ( 'NONE', *, *, #51082, .F. ) ;
#144788 = ADVANCED_FACE ( 'NONE', ( #96499 ), #286540, .T. ) ;
#144821 = CARTESIAN_POINT ( 'NONE',  ( -5.000137657622521381, 0.8563707939121381063, -5.158710614891526269 ) ) ;
#144840 = CARTESIAN_POINT ( 'NONE',  ( 2.500000000000196287, 1.387778780781445676E-14, -0.3501037691048258793 ) ) ;
#145022 = DIRECTION ( 'NONE',  ( -1.000000000000000000, 1.110223024625152966E-16, 0.000000000000000000 ) ) ;
#145907 = EDGE_LOOP ( 'NONE', ( #263610, #160445, #160591, #269557 ) ) ;
#146308 = CARTESIAN_POINT ( 'NONE',  ( -5.000004159328969244, 1.342687949967390271, -5.097772405990613542 ) ) ;
#146346 = LINE ( 'NONE', #172819, #55554 ) ;
#146712 = CARTESIAN_POINT ( 'NONE',  ( 3.813585953625068914, -3.572106003859851775, -5.069987143253967155 ) ) ;
#147243 = CARTESIAN_POINT ( 'NONE',  ( -1.262469752245870325, 5.044615440593537059, -0.1155697493972316497 ) ) ;
#148055 = ORIENTED_EDGE ( 'NONE', *, *, #301299, .F. ) ;
#148524 = DIRECTION ( 'NONE',  ( -3.330669073875470607E-16, 3.885780586188048878E-16, -1.000000000000000000 ) ) ;
#149149 = CIRCLE ( 'NONE', #49751, 5.000000000000015987 ) ;
#149254 = CARTESIAN_POINT ( 'NONE',  ( 3.240473222892122696, 3.902613224362661892, -5.158906097536884339 ) ) ;
#149306 = CIRCLE ( 'NONE', #39911, 5.000000000000013323 ) ;
#149406 = CONICAL_SURFACE ( 'NONE', #189307, 3.000000000000009770, 0.9599310885968851403 ) ;
#149419 = DIRECTION ( 'NONE',  ( 3.330669073875470607E-16, -3.885780586188048878E-16, 1.000000000000000000 ) ) ;
#149816 = ORIENTED_EDGE ( 'NONE', *, *, #204055, .T. ) ;
#149985 = CARTESIAN_POINT ( 'NONE',  ( -4.999999999999976907, -1.856156974560920103, -0.1914463287784944900 ) ) ;
#150504 = DIRECTION ( 'NONE',  ( 1.000000000000000000, -1.110223024625153952E-16, 0.000000000000000000 ) ) ;
#150763 = FACE_OUTER_BOUND ( 'NONE', #145907, .T. ) ;
#150807 = CARTESIAN_POINT ( 'NONE',  ( 3.752207878678710529, 3.607164463085637873, -0.1182739130728687610 ) ) ;
#150828 = CARTESIAN_POINT ( 'NONE',  ( 0.000000000000000000, 0.000000000000000000, 0.000000000000000000 ) ) ;
#150888 = CARTESIAN_POINT ( 'NONE',  ( -4.999995472858931755, 1.929643305316255608, -5.003213270568078741 ) ) ;
#151043 = DIRECTION ( 'NONE',  ( -0.8191520442889917986, 2.220446049250310123E-16, 0.5735764363510462704 ) ) ;
#151071 = ORIENTED_EDGE ( 'NONE', *, *, #294104, .F. ) ;
#151119 = CARTESIAN_POINT ( 'NONE',  ( -4.578946160461664583, 3.129807496760892427, -4.887011147210595041 ) ) ;
#151506 = CARTESIAN_POINT ( 'NONE',  ( -4.999999999999975131, -0.4751348152575600725, 1.519087710560245482E-14 ) ) ;
#151672 = DIRECTION ( 'NONE',  ( -3.330669073875470607E-16, 3.885780586188048878E-16, -1.000000000000000000 ) ) ;
#151800 = AXIS2_PLACEMENT_3D ( 'NONE', #9800, #148524, #126727 ) ;
#152287 = CARTESIAN_POINT ( 'NONE',  ( 8.326672684688674053E-14, -2.081668171172168513E-13, -5.174599999999918154 ) ) ;
#152628 = EDGE_CURVE ( 'NONE', #236801, #275731, #20463, .T. ) ;
#152709 = ORIENTED_EDGE ( 'NONE', *, *, #203434, .F. ) ;
#153119 = CIRCLE ( 'NONE', #267550, 5.000000000000015987 ) ;
#153222 = CARTESIAN_POINT ( 'NONE',  ( -6.938893903907228378E-14, 5.773502691896414518, -5.199999999999982414 ) ) ;
#153713 = ORIENTED_EDGE ( 'NONE', *, *, #89572, .F. ) ;
#153837 = CARTESIAN_POINT ( 'NONE',  ( -1.942890293094023946E-13, 1.110223024625156540E-13, -5.199999999999871392 ) ) ;
#153838 = CARTESIAN_POINT ( 'NONE',  ( 4.574318964296063328, 3.132518406500553354, -4.895311691182635094 ) ) ;
#153998 = EDGE_LOOP ( 'NONE', ( #59473, #29201, #149816, #70945, #151071, #298587 ) ) ;
#154183 = CARTESIAN_POINT ( 'NONE',  ( -4.168747561292810211, 3.366828494962570417, -4.993651661239537631 ) ) ;
#154230 = CARTESIAN_POINT ( 'NONE',  ( 4.999999999999907629, -5.551115123125782702E-14, -5.199999999999982414 ) ) ;
#154602 = CIRCLE ( 'NONE', #209503, 3.000000000000009770 ) ;
#154749 = DIRECTION ( 'NONE',  ( 1.000000000000000000, -1.110223024625129300E-16, 0.000000000000000000 ) ) ;
#155184 = CARTESIAN_POINT ( 'NONE',  ( 4.999999999999907629, 1.247408411324574029, -5.111827624858043428 ) ) ;
#155192 = CARTESIAN_POINT ( 'NONE',  ( 5.000004159328065967, 1.342687949976019812, -0.1022275940101765868 ) ) ;
#155992 = DIRECTION ( 'NONE',  ( 1.000000000000000000, -1.110223024625153952E-16, 0.000000000000000000 ) ) ;
#156668 = CARTESIAN_POINT ( 'NONE',  ( -5.000018846052979526, -0.9703836562220476969, -5.146913748495954621 ) ) ;
#157483 = DIRECTION ( 'NONE',  ( -1.000000000000000000, 1.110223024625152966E-16, 0.000000000000000000 ) ) ;
#158012 = ORIENTED_EDGE ( 'NONE', *, *, #62233, .T. ) ;
#158073 = DIRECTION ( 'NONE',  ( 0.000000000000000000, 0.000000000000000000, 1.000000000000000000 ) ) ;
#158147 = CARTESIAN_POINT ( 'NONE',  ( 1.329583008375900377, -5.005867584100555767, -0.1035222407166640629 ) ) ;
#158274 = CARTESIAN_POINT ( 'NONE',  ( 4.999999999999865885, 4.163336342344337027E-14, -1.110223024625156540E-13 ) ) ;
#158598 = ORIENTED_EDGE ( 'NONE', *, *, #164845, .F. ) ;
#158818 = CARTESIAN_POINT ( 'NONE',  ( 5.000000000000014211, -2.640007972196623864, -0.3753533107571088157 ) ) ;
#158935 = FACE_OUTER_BOUND ( 'NONE', #120352, .T. ) ;
#159030 = CARTESIAN_POINT ( 'NONE',  ( -4.999999999999975131, 1.450920078706000815, -0.1190764303792073708 ) ) ;
#159159 = CARTESIAN_POINT ( 'NONE',  ( -1.759525582007356759, 4.757638743482355714, -5.158906097538462632 ) ) ;
#159181 = DIRECTION ( 'NONE',  ( -1.000000000000000000, 1.970645868709648915E-15, 0.000000000000000000 ) ) ;
#160334 = CARTESIAN_POINT ( 'NONE',  ( 4.999971378385120069, -1.659383923797366434, -0.1545108688393735108 ) ) ;
#160445 = ORIENTED_EDGE ( 'NONE', *, *, #200780, .T. ) ;
#160591 = ORIENTED_EDGE ( 'NONE', *, *, #166638, .T. ) ;
#160956 = CARTESIAN_POINT ( 'NONE',  ( 1.186741567540667397, 5.088715317285195106, -5.069987143253917417 ) ) ;
#161287 = AXIS2_PLACEMENT_3D ( 'NONE', #31595, #129767, #54988 ) ;
#161876 = CARTESIAN_POINT ( 'NONE',  ( -2.499999999999960476, 4.330127018922366844, -5.199999999999982414 ) ) ;
#163037 = DIRECTION ( 'NONE',  ( 3.330669073875470607E-16, -3.885780586188048878E-16, 1.000000000000000000 ) ) ;
#163690 = CARTESIAN_POINT ( 'NONE',  ( 8.326672684688674053E-14, -2.081668171172168513E-13, -5.174599999999918154 ) ) ;
#164514 = ORIENTED_EDGE ( 'NONE', *, *, #227249, .F. ) ;
#164845 = EDGE_CURVE ( 'NONE', #90532, #236801, #153119, .T. ) ;
#165278 = DIRECTION ( 'NONE',  ( -1.000000000000000000, 1.165734175856410620E-15, -1.734723475976801918E-16 ) ) ;
#165596 = CARTESIAN_POINT ( 'NONE',  ( 0.9839503124574857651, 5.205680392145970892, -5.028199497924360273 ) ) ;
#166497 = DIRECTION ( 'NONE',  ( 1.000000000000000000, -1.110223024625152966E-16, 0.000000000000000000 ) ) ;
#166638 = EDGE_CURVE ( 'NONE', #44811, #115888, #214935, .T. ) ;
#166708 = CARTESIAN_POINT ( 'NONE',  ( -2.500000000000043965, -4.330127018922144799, -5.199999999999982414 ) ) ;
#166813 = VERTEX_POINT ( 'NONE', #249081 ) ;
#166897 = DIRECTION ( 'NONE',  ( 3.330669073875470607E-16, -3.885780586188048878E-16, 1.000000000000000000 ) ) ;
#167076 = CARTESIAN_POINT ( 'NONE',  ( 3.332624484561959921, -3.849861946943926139, -5.159853130072228566 ) ) ;
#167221 = ORIENTED_EDGE ( 'NONE', *, *, #199378, .F. ) ;
#167794 = DIRECTION ( 'NONE',  ( -1.000000000000000000, 1.110223024625129300E-16, 0.000000000000000000 ) ) ;
#168722 = DIRECTION ( 'NONE',  ( 3.330669073875470607E-16, -3.885780586188048878E-16, 1.000000000000000000 ) ) ;
#168846 = B_SPLINE_CURVE_WITH_KNOTS ( 'NONE', 3,
 ( #284533, #119304, #99013, #74121, #290655, #123920, #125438, #147243, #47586, #287578, #239348, #214461 ),
 .UNSPECIFIED., .F., .F.,
 ( 4, 1, 1, 1, 1, 2, 2, 4 ),
 ( 0.000000000000000000, 0.2499999999999971134, 0.3749999999999958922, 0.4374999999999953926, 0.4687499999999953926, 0.4843749999999954481, 0.4999999999999954481, 1.000000000000000000 ),
 .UNSPECIFIED. ) ;
#169749 = CARTESIAN_POINT ( 'NONE',  ( -5.000000000000046185, -2.775557561562891351E-14, -5.199999999999871392 ) ) ;
#170172 = CARTESIAN_POINT ( 'NONE',  ( 4.787170627074400997, -3.009628441697909107, -4.824361136923163151 ) ) ;
#170636 = DIRECTION ( 'NONE',  ( 3.330669073875470607E-16, -3.885780586188048878E-16, 1.000000000000000000 ) ) ;
#170769 = FACE_OUTER_BOUND ( 'NONE', #60034, .T. ) ;
#170921 = ORIENTED_EDGE ( 'NONE', *, *, #64312, .F. ) ;
#171353 = EDGE_CURVE ( 'NONE', #24092, #115888, #30496, .T. ) ;
#172134 = FACE_OUTER_BOUND ( 'NONE', #302220, .T. ) ;
#172264 = AXIS2_PLACEMENT_3D ( 'NONE', #277175, #281753, #69815 ) ;
#172312 = ADVANCED_FACE ( 'NONE', ( #135736 ), #105942, .T. ) ;
#172375 = AXIS2_PLACEMENT_3D ( 'NONE', #140844, #193804, #72280 ) ;
#172480 = ORIENTED_EDGE ( 'NONE', *, *, #285794, .F. ) ;
#172563 = DIRECTION ( 'NONE',  ( 3.330669073875470607E-16, -3.885780586188048878E-16, 1.000000000000000000 ) ) ;
#172672 = CARTESIAN_POINT ( 'NONE',  ( 2.711896004078438338, 4.207755724416545107, -5.197418339682902122 ) ) ;
#172819 = CARTESIAN_POINT ( 'NONE',  ( 2.775557561562891351E-14, -5.773502691896317707, -5.200000000000204459 ) ) ;
#174223 = CARTESIAN_POINT ( 'NONE',  ( 3.029654975642295245, 4.024321198950287837, -5.178701302384880911 ) ) ;
#174433 = CARTESIAN_POINT ( 'NONE',  ( -1.210463255699425034, -5.075027172006582710, -5.074541031475982678 ) ) ;
#174839 = ORIENTED_EDGE ( 'NONE', *, *, #135001, .F. ) ;
#174841 = ORIENTED_EDGE ( 'NONE', *, *, #36649, .T. ) ;
#175401 = PRODUCT_DEFINITION_CONTEXT ( 'detailed design', #69148, 'design' ) ;
#175522 = CARTESIAN_POINT ( 'NONE',  ( 4.999999999999909406, 0.6014523715874555698, -5.184830559115348514 ) ) ;
#175530 = CARTESIAN_POINT ( 'NONE',  ( 5.000137657622741649, 0.8563707939221675280, -0.04128938510943325202 ) ) ;
#175991 = CARTESIAN_POINT ( 'NONE',  ( -2.450000000000160494, -2.775557561562891351E-14, -0.3851141460152196494 ) ) ;
#176159 = DIRECTION ( 'NONE',  ( 3.330669073875470607E-16, -3.885780586188048878E-16, 1.000000000000000000 ) ) ;
#176359 = CARTESIAN_POINT ( 'NONE',  ( 1.288371133004069691, -5.029659910880854845, -5.089167912277659411 ) ) ;
#176874 = CIRCLE ( 'NONE', #211915, 5.000000000000015987 ) ;
#177202 = CARTESIAN_POINT ( 'NONE',  ( -2.500000000000043965, -4.330127018922144799, -5.199999999999982414 ) ) ;
#177249 = CARTESIAN_POINT ( 'NONE',  ( 2.870636901144357100, 4.116107323834905074, -5.189673358731996977 ) ) ;
#177578 = CARTESIAN_POINT ( 'NONE',  ( 5.000000296020560064, -1.484862788013879609, -0.1245587852348277458 ) ) ;
#177636 = CARTESIAN_POINT ( 'NONE',  ( 4.999999999999906741, -1.482759689068135156, -5.075747734667840128 ) ) ;
#177896 = DIRECTION ( 'NONE',  ( 3.330669073875470607E-16, -3.885780586188048878E-16, 1.000000000000000000 ) ) ;
#178144 = CARTESIAN_POINT ( 'NONE',  ( 8.326672684688674053E-14, -6.938893903907228378E-14, -0.3501037691048258793 ) ) ;
#178574 = CARTESIAN_POINT ( 'NONE',  ( 4.999999999999907629, -5.551115123125782702E-14, -5.199999999999982414 ) ) ;
#178663 = ADVANCED_FACE ( 'NONE', ( #222332 ), #8773, .T. ) ;
#178796 = CARTESIAN_POINT ( 'NONE',  ( 2.923578897744644411, 4.085547700548457506, -5.186446283335785168 ) ) ;
#179109 = ORIENTED_EDGE ( 'NONE', *, *, #203434, .T. ) ;
#179224 = CARTESIAN_POINT ( 'NONE',  ( 2.500000000000057732, -4.330127018922088844, -5.551115123125782702E-14 ) ) ;
#179248 = CARTESIAN_POINT ( 'NONE',  ( -5.000000000000170530, -2.886751345948235237, -4.753418012614640809 ) ) ;
#179450 = CARTESIAN_POINT ( 'NONE',  ( 2.393813705360834820, -4.391433704716162012, -5.199999999999874056 ) ) ;
#179531 = CARTESIAN_POINT ( 'NONE',  ( -5.000000000000060396, -2.886751345948179726, -0.4465819873850640498 ) ) ;
#179855 = CARTESIAN_POINT ( 'NONE',  ( -2.999999999999947153, 1.665334536937734811E-13, -5.199999999999649347 ) ) ;
#179939 = DIRECTION ( 'NONE',  ( 1.000000000000000000, 0.000000000000000000, 0.000000000000000000 ) ) ;
#180074 = CARTESIAN_POINT ( 'NONE',  ( -4.999971378382919163, -1.659383923787861370, -5.045489131163496843 ) ) ;
#180149 = CARTESIAN_POINT ( 'NONE',  ( 5.000000000000129674, 2.886751345948193492, -4.753418012614973875 ) ) ;
#180336 = ORIENTED_EDGE ( 'NONE', *, *, #112375, .F. ) ;
#180381 = CARTESIAN_POINT ( 'NONE',  ( -1.942890293094023946E-13, 1.110223024625156540E-13, -5.199999999999871392 ) ) ;
#180675 = CARTESIAN_POINT ( 'NONE',  ( 4.999991834720998618, -1.211701905624639419, -0.08277399504509523609 ) ) ;
#180709 = ORIENTED_EDGE ( 'NONE', *, *, #94063, .F. ) ;
#180924 = EDGE_CURVE ( 'NONE', #166813, #274768, #205070, .T. ) ;
#181610 = CARTESIAN_POINT ( 'NONE',  ( -4.999991834723769735, -1.211701905620506725, -5.117226004953878693 ) ) ;
#182020 = AXIS2_PLACEMENT_3D ( 'NONE', #40679, #184067, #138812 ) ;
#182045 = ORIENTED_EDGE ( 'NONE', *, *, #285794, .T. ) ;
#182202 = CARTESIAN_POINT ( 'NONE',  ( 4.999892319420760067, -2.398807810747460856, -0.3124946239983313889 ) ) ;
#182221 = CARTESIAN_POINT ( 'NONE',  ( -3.789870828005216907, 3.585805515786013586, -5.074541031475990671 ) ) ;
#182481 = CARTESIAN_POINT ( 'NONE',  ( -1.942890293094023946E-13, 1.110223024625156540E-13, -5.199999999999871392 ) ) ;
#182535 = CARTESIAN_POINT ( 'NONE',  ( -2.129335056581037389, 4.544098143345510543, -5.189673358731995201 ) ) ;
#182580 = ORIENTED_EDGE ( 'NONE', *, *, #22806, .T. ) ;
#183032 = ORIENTED_EDGE ( 'NONE', *, *, #101023, .F. ) ;
#183077 = CARTESIAN_POINT ( 'NONE',  ( 0.8931639747679142038, 5.257834230633497974, -0.1488606624617179186 ) ) ;
#183145 = CARTESIAN_POINT ( 'NONE',  ( -4.999892319419095621, -2.398807810727689560, -4.887505376007413638 ) ) ;
#183768 = CARTESIAN_POINT ( 'NONE',  ( 4.999999999999865885, 4.163336342344337027E-14, -1.110223024625156540E-13 ) ) ;
#183786 = DIRECTION ( 'NONE',  ( -1.000000000000000000, 1.110223024625112783E-16, 0.000000000000000000 ) ) ;
#184067 = DIRECTION ( 'NONE',  ( 3.330669073875470607E-16, -3.885780586188048878E-16, 1.000000000000000000 ) ) ;
#184082 = ORIENTED_EDGE ( 'NONE', *, *, #279811, .T. ) ;
#184327 = ORIENTED_EDGE ( 'NONE', *, *, #248887, .T. ) ;
#184426 = ORIENTED_EDGE ( 'NONE', *, *, #210182, .T. ) ;
#184648 = CARTESIAN_POINT ( 'NONE',  ( 1.726497308101254458, 4.776709006308804462, 1.830456451822984677E-14 ) ) ;
#185231 = EDGE_CURVE ( 'NONE', #306794, #21868, #276932, .T. ) ;
#185371 = EDGE_LOOP ( 'NONE', ( #69980, #274688, #220307, #278186 ) ) ;
#185598 = FACE_OUTER_BOUND ( 'NONE', #185371, .T. ) ;
#186119 = ORIENTED_EDGE ( 'NONE', *, *, #164845, .T. ) ;
#187311 = ORIENTED_EDGE ( 'NONE', *, *, #302445, .F. ) ;
#187691 = CARTESIAN_POINT ( 'NONE',  ( -2.706351938592883588, -4.210989671627646480, 2.073272173162343198E-13 ) ) ;
#187995 = FACE_OUTER_BOUND ( 'NONE', #4522, .T. ) ;
#188498 = DIRECTION ( 'NONE',  ( 3.330669073875470607E-16, -3.885780586188048878E-16, 1.000000000000000000 ) ) ;
#188530 = ORIENTED_EDGE ( 'NONE', *, *, #199378, .T. ) ;
#188952 = CARTESIAN_POINT ( 'NONE',  ( 3.864216081725880159, -3.542853448039212871, -5.060026156571272082 ) ) ;
#189307 = AXIS2_PLACEMENT_3D ( 'NONE', #72095, #259223, #4979 ) ;
#189626 = DIRECTION ( 'NONE',  ( -0.8660254037844387076, 0.4999999999999998890, 1.110223024625153582E-16 ) ) ;
#190588 = AXIS2_PLACEMENT_3D ( 'NONE', #182481, #277575, #226207 ) ;
#190732 = EDGE_CURVE ( 'NONE', #103481, #234291, #149306, .T. ) ;
#190765 = CARTESIAN_POINT ( 'NONE',  ( -3.389871719738223543, -3.816359341986953257, -0.05902101972593167684 ) ) ;
#191046 = CONICAL_SURFACE ( 'NONE', #101366, 5.000000000000015987, 1.047197551196597409 ) ;
#191449 = CYLINDRICAL_SURFACE ( 'NONE', #260453, 3.000000000000009770 ) ;
#191580 = DIRECTION ( 'NONE',  ( 1.000000000000000000, -1.110223024625153952E-16, 0.000000000000000000 ) ) ;
#192630 = CARTESIAN_POINT ( 'NONE',  ( -2.775557561562891351E-14, -1.387778780781445676E-14, -0.3851141460152751606 ) ) ;
#192888 = AXIS2_PLACEMENT_3D ( 'NONE', #246962, #170636, #102012 ) ;
#192997 = CARTESIAN_POINT ( 'NONE',  ( -2.500000000000266009, 8.326672684688674053E-14, -0.3501037691046038347 ) ) ;
#193067 = CARTESIAN_POINT ( 'NONE',  ( -3.000000000000002665, -4.163336342344337027E-14, -25.03750572909285665 ) ) ;
#193118 = CARTESIAN_POINT ( 'NONE',  ( -2.606186294626578359, -4.268820333135308509, -5.199999999999874056 ) ) ;
#193378 = PRODUCT_CONTEXT ( 'NONE', #230265, 'mechanical' ) ;
#193568 = CARTESIAN_POINT ( 'NONE',  ( 3.789870828004897607, -3.585805515785748021, -5.074541031475983566 ) ) ;
#193804 = DIRECTION ( 'NONE',  ( -3.330669073875470607E-16, 3.885780586188048878E-16, -1.000000000000000000 ) ) ;
#193899 = AXIS2_PLACEMENT_3D ( 'NONE', #247706, #57531, #79411 ) ;
#193942 = CARTESIAN_POINT ( 'NONE',  ( 2.449999999999882938, 1.387778780781445676E-14, -0.3851141460153306717 ) ) ;
#194394 = ADVANCED_FACE ( 'NONE', ( #271594, #245187 ), #128207, .T. ) ;
#194632 = CARTESIAN_POINT ( 'NONE',  ( 3.710674671913458678, 3.631143671191867650, -0.1107036546857578657 ) ) ;
#194704 = CARTESIAN_POINT ( 'NONE',  ( -3.739172498446628357, -3.614690769897991096, -5.084162590181677821 ) ) ;
#194852 = CARTESIAN_POINT ( 'NONE',  ( 4.999999999999907629, -5.551115123125782702E-14, -5.199999999999982414 ) ) ;
#195550 = MANIFOLD_SOLID_BREP ( 'NONE', #43103 ) ;
#195601 = VECTOR ( 'NONE', #168722, 1000.000000000000000 ) ;
#196869 = FACE_OUTER_BOUND ( 'NONE', #88468, .T. ) ;
#197232 = DIRECTION ( 'NONE',  ( -3.330669073875470607E-16, 3.885780586188048878E-16, -1.000000000000000000 ) ) ;
#198164 = ORIENTED_EDGE ( 'NONE', *, *, #244382, .T. ) ;
#198269 = DIRECTION ( 'NONE',  ( -1.000000000000000000, 1.110223024625151857E-16, 3.330669073875470607E-16 ) ) ;
#199279 = CARTESIAN_POINT ( 'NONE',  ( 2.706351938592844952, 4.210989671627784148, 1.775730242455921963E-14 ) ) ;
#199378 = EDGE_CURVE ( 'NONE', #21868, #247205, #17882, .T. ) ;
#199454 = CARTESIAN_POINT ( 'NONE',  ( -0.4210197209118830552, -5.530387445906419508, -4.887011147207882544 ) ) ;
#199479 = PLANE ( 'NONE',  #193899 ) ;
#199859 = DIRECTION ( 'NONE',  ( 3.330669073875470607E-16, -3.885780586188048878E-16, 1.000000000000000000 ) ) ;
#200780 = EDGE_CURVE ( 'NONE', #267450, #44811, #37200, .T. ) ;
#200860 = ORIENTED_EDGE ( 'NONE', *, *, #232286, .T. ) ;
#200975 = CARTESIAN_POINT ( 'NONE',  ( -1.186741567540108733, -5.088715317285988249, -5.069987143253474215 ) ) ;
#201106 = CARTESIAN_POINT ( 'NONE',  ( 4.999989294245187565, -1.571507692503313347, -0.1391780700824508943 ) ) ;
#201986 = ORIENTED_EDGE ( 'NONE', *, *, #152628, .F. ) ;
#202742 = DIRECTION ( 'NONE',  ( -3.330669073875470607E-16, 3.885780586188048878E-16, -1.000000000000000000 ) ) ;
#202948 = CARTESIAN_POINT ( 'NONE',  ( 2.076398648167147254, -4.574667445692917944, -5.186446283335782503 ) ) ;
#203130 = ( NAMED_UNIT ( * ) PLANE_ANGLE_UNIT ( ) SI_UNIT ( $, .RADIAN. ) );
#203434 = EDGE_CURVE ( 'NONE', #143280, #33939, #120808, .T. ) ;
#203507 = CARTESIAN_POINT ( 'NONE',  ( 1.610128280263119160, -4.843894695856594268, -0.05902101972634397897 ) ) ;
#204055 = EDGE_CURVE ( 'NONE', #58296, #224885, #168846, .T. ) ;
#204157 = CARTESIAN_POINT ( 'NONE',  ( 5.000000000000198952, -2.886751345948013192, -0.4465819873852305832 ) ) ;
#205070 = B_SPLINE_CURVE_WITH_KNOTS ( 'NONE', 3,
 ( #158274, #228469, #205182, #300129, #297059, #175530, #276795, #60168, #253500, #155192, #36809, #111537, #270652, #131859, #295517 ),
 .UNSPECIFIED., .F., .F.,
 ( 4, 2, 2, 2, 1, 2, 2, 4 ),
 ( 0.000000000000000000, 0.1250000000000004996, 0.2500000000000009437, 0.3750000000000013878, 0.4375000000000016098, 0.4687500000000016653, 0.5000000000000016653, 1.000000000000000000 ),
 .UNSPECIFIED. ) ;
#205182 = CARTESIAN_POINT ( 'NONE',  ( 5.000007205561749046, 0.2442821481453306687, -0.002590184012156334682 ) ) ;
#205379 = DIRECTION ( 'NONE',  ( 3.330669073875470607E-16, -3.885780586188048878E-16, 1.000000000000000000 ) ) ;
#205718 = CARTESIAN_POINT ( 'NONE',  ( -3.813585953625635572, 3.572106003859998768, -5.069987143253920969 ) ) ;
#205745 = CARTESIAN_POINT ( 'NONE',  ( -8.326672684688674053E-14, -5.773502691896206684, -0.4465819873853416055 ) ) ;
#205807 = ORIENTED_EDGE ( 'NONE', *, *, #79019, .F. ) ;
#206125 = ADVANCED_BREP_SHAPE_REPRESENTATION ( '', ( #195550, #267245 ), #118816 ) ;
#206147 = DIRECTION ( 'NONE',  ( 3.330669073875470607E-16, -3.885780586188048878E-16, 1.000000000000000000 ) ) ;
#206794 = ADVANCED_FACE ( 'NONE', ( #85730 ), #78075, .T. ) ;
#207431 = ORIENTED_EDGE ( 'NONE', *, *, #124360, .T. ) ;
#207538 = DIRECTION ( 'NONE',  ( 1.000000000000000000, -1.110223024625112783E-16, 0.000000000000000000 ) ) ;
#207568 = CARTESIAN_POINT ( 'NONE',  ( 1.759525581985662113, -4.757638743496658940, -5.158906097535207458 ) ) ;
#207580 = CARTESIAN_POINT ( 'NONE',  ( -2.076398648184065721, 4.574667445685668632, -5.186446283335786056 ) ) ;
#207800 = CARTESIAN_POINT ( 'NONE',  ( -1.942890293094023946E-13, 1.110223024625156540E-13, -5.199999999999871392 ) ) ;
#208078 = ADVANCED_FACE ( 'NONE', ( #138686 ), #1465, .T. ) ;
#208096 = ORIENTED_EDGE ( 'NONE', *, *, #238038, .F. ) ;
#208741 = ADVANCED_FACE ( 'NONE', ( #248790 ), #93836, .T. ) ;
#209503 = AXIS2_PLACEMENT_3D ( 'NONE', #294983, #81486, #65810 ) ;
#209652 = CARTESIAN_POINT ( 'NONE',  ( 2.500000000000057732, -4.330127018922088844, -5.551115123125782702E-14 ) ) ;
#210182 = EDGE_CURVE ( 'NONE', #166813, #251027, #149149, .T. ) ;
#210518 = CARTESIAN_POINT ( 'NONE',  ( -1.387778780781445676E-14, 5.773502691896248429, -0.4465819873853416055 ) ) ;
#210876 = CIRCLE ( 'NONE', #76456, 3.000000000000009770 ) ;
#211051 = DIRECTION ( 'NONE',  ( 3.330669073875470607E-16, -3.885780586188048878E-16, 1.000000000000000000 ) ) ;
#211124 = CARTESIAN_POINT ( 'NONE',  ( -3.737530247754226931, -3.615638597250841801, -0.1155697493970516132 ) ) ;
#211488 = CARTESIAN_POINT ( 'NONE',  ( 4.999999999999906741, -1.553854083444206502, -5.063873481820828637 ) ) ;
#211579 = ADVANCED_FACE ( 'NONE', ( #680 ), #129398, .T. ) ;
#211644 = CARTESIAN_POINT ( 'NONE',  ( -2.500000000000099476, 1.665334536937734811E-13, -5.199999999999926459 ) ) ;
#211915 = AXIS2_PLACEMENT_3D ( 'NONE', #235909, #211051, #306002 ) ;
#212184 = CIRCLE ( 'NONE', #172264, 5.000000000000015987 ) ;
#212425 = CARTESIAN_POINT ( 'NONE',  ( 2.775557561562891351E-14, 5.773502691896512218, -4.753418012614862853 ) ) ;
#212663 = B_SPLINE_CURVE_WITH_KNOTS ( 'NONE', 3,
 ( #204157, #158818, #182202, #82546, #300649, #85625, #160334, #201106, #110550, #177578, #272696, #180675, #232094, #255539, #13899, #133905, #183768 ),
 .UNSPECIFIED., .F., .F.,
 ( 4, 2, 2, 1, 2, 2, 2, 2, 4 ),
 ( 0.000000000000000000, 0.2499999999999993339, 0.3749999999999990008, 0.4374999999999988343, 0.4687499999999988343, 0.4999999999999988898, 0.6249999999999992228, 0.7499999999999995559, 1.000000000000000000 ),
 .UNSPECIFIED. ) ;
#212946 = CONICAL_SURFACE ( 'NONE', #192888, 5.000000000000015987, 1.047197551196597409 ) ;
#213467 = CARTESIAN_POINT ( 'NONE',  ( -3.240473222880082993, -3.902613224368316480, -5.158906097538677571 ) ) ;
#214245 = CARTESIAN_POINT ( 'NONE',  ( 1.289325328086728728, -5.029110366652459696, -0.1107036546860002413 ) ) ;
#214461 = CARTESIAN_POINT ( 'NONE',  ( -1.387778780781445676E-14, 5.773502691896248429, -0.4465819873853416055 ) ) ;
#214570 = PLANE ( 'NONE',  #54435 ) ;
#214724 = DIRECTION ( 'NONE',  ( 3.330669073875470607E-16, -3.885780586188048878E-16, 1.000000000000000000 ) ) ;
#214935 = LINE ( 'NONE', #1362, #113330 ) ;
#215616 = ORIENTED_EDGE ( 'NONE', *, *, #94063, .T. ) ;
#216443 = ORIENTED_EDGE ( 'NONE', *, *, #25065, .F. ) ;
#217212 = ADVANCED_FACE ( 'NONE', ( #196869 ), #50623, .T. ) ;
#217970 = CARTESIAN_POINT ( 'NONE',  ( 2.499999999999891198, 4.330127018922144799, 5.551115123125782702E-14 ) ) ;
#218034 = CARTESIAN_POINT ( 'NONE',  ( -3.083886571168999780, -3.993020639879792277, -5.174077065525019670 ) ) ;
#218059 = CARTESIAN_POINT ( 'NONE',  ( -5.000000954833778266, 1.403764976355034833, -5.088435238340737854 ) ) ;
#218906 = CARTESIAN_POINT ( 'NONE',  ( 5.000000000000129674, 2.886751345948193492, -4.753418012614973875 ) ) ;
#218957 = ORIENTED_EDGE ( 'NONE', *, *, #79608, .T. ) ;
#219240 = AXIS2_PLACEMENT_3D ( 'NONE', #238585, #221318, #77971 ) ;
#219364 = VERTEX_POINT ( 'NONE', #194852 ) ;
#220023 = EDGE_LOOP ( 'NONE', ( #205807, #90379, #241188, #1503 ) ) ;
#220170 = VERTEX_POINT ( 'NONE', #74095 ) ;
#220307 = ORIENTED_EDGE ( 'NONE', *, *, #16056, .T. ) ;
#220662 = FACE_OUTER_BOUND ( 'NONE', #124379, .T. ) ;
#220830 = ORIENTED_EDGE ( 'NONE', *, *, #112375, .T. ) ;
#221318 = DIRECTION ( 'NONE',  ( -0.5000000000000009992, 0.8660254037844380415, 5.030519238108973092E-16 ) ) ;
#221351 = CARTESIAN_POINT ( 'NONE',  ( -4.787170627075456153, 3.009628441697745682, -4.824361136922934890 ) ) ;
#221761 = CARTESIAN_POINT ( 'NONE',  ( 4.999999999999948486, -2.886751345948221470, -4.753418012614918808 ) ) ;
#222332 = FACE_OUTER_BOUND ( 'NONE', #227492, .T. ) ;
#224187 = CARTESIAN_POINT ( 'NONE',  ( -5.000000000000060396, 2.886751345948249003, -4.753418012614696764 ) ) ;
#224885 = VERTEX_POINT ( 'NONE', #210518 ) ;
#225257 = CARTESIAN_POINT ( 'NONE',  ( -4.106836025232070142, 3.402419807211057190, -0.1488606624617165586 ) ) ;
#225340 = ORIENTED_EDGE ( 'NONE', *, *, #67720, .T. ) ;
#226198 = DIRECTION ( 'NONE',  ( 3.330669073875470114E-16, -3.885780586188048385E-16, 1.000000000000000000 ) ) ;
#226207 = DIRECTION ( 'NONE',  ( 1.000000000000000000, -1.110223024625153952E-16, 0.000000000000000000 ) ) ;
#226247 = CARTESIAN_POINT ( 'NONE',  ( 2.288075348215801164, -4.452448694166191601, -5.197418339682904787 ) ) ;
#226262 = FACE_OUTER_BOUND ( 'NONE', #90003, .T. ) ;
#226377 = FACE_OUTER_BOUND ( 'NONE', #85774, .T. ) ;
#226930 = CARTESIAN_POINT ( 'NONE',  ( 4.999999999999907629, 2.388313729988608802, -4.897304558489016912 ) ) ;
#227145 = CARTESIAN_POINT ( 'NONE',  ( 3.658972324771793794, 3.660987744416000389, -5.098437994006623342 ) ) ;
#227249 = EDGE_CURVE ( 'NONE', #44811, #306794, #119575, .T. ) ;
#227492 = EDGE_LOOP ( 'NONE', ( #182045, #76217, #25896, #303384, #152709, #174839 ) ) ;
#227730 = PLANE ( 'NONE',  #78941 ) ;
#228021 = EDGE_LOOP ( 'NONE', ( #158598, #237177, #87041, #233935, #153713, #4578 ) ) ;
#228058 = ORIENTED_EDGE ( 'NONE', *, *, #142968, .F. ) ;
#228314 = CARTESIAN_POINT ( 'NONE',  ( -2.500000000000085265, 4.330127018922061310, -2.220446049250313081E-13 ) ) ;
#228469 = CARTESIAN_POINT ( 'NONE',  ( 5.000000000000015099, 0.1223263664448644705, 4.716914725022383164E-17 ) ) ;
#228586 = VERTEX_POINT ( 'NONE', #119632 ) ;
#228699 = DIRECTION ( 'NONE',  ( -1.000000000000000000, 1.110223024625112783E-16, 0.000000000000000000 ) ) ;
#229221 = CARTESIAN_POINT ( 'NONE',  ( -5.000000000000087930, 2.886751345948110448, -0.4465819873851195609 ) ) ;
#229460 = B_SPLINE_CURVE_WITH_KNOTS ( 'NONE', 3,
 ( #217970, #199279, #124432, #5957, #101047, #7478, #194632, #266266, #150807, #74634, #73108, #51176 ),
 .UNSPECIFIED., .F., .F.,
 ( 4, 1, 1, 1, 1, 2, 2, 4 ),
 ( 0.000000000000000000, 0.2499999999999957812, 0.3749999999999938938, 0.4374999999999929501, 0.4687499999999926170, 0.4843749999999927280, 0.4999999999999927836, 1.000000000000000000 ),
 .UNSPECIFIED. ) ;
#230040 = ORIENTED_EDGE ( 'NONE', *, *, #180924, .T. ) ;
#230126 = PRODUCT_DEFINITION ( 'UNKNOWN', '', #261117, #175401 ) ;
#230204 = DIRECTION ( 'NONE',  ( 3.330669073875470607E-16, -3.885780586188048878E-16, 1.000000000000000000 ) ) ;
#230265 = APPLICATION_CONTEXT ( 'automotive_design' ) ;
#230633 = CARTESIAN_POINT ( 'NONE',  ( 3.273502691898680261, -3.883545031535663217, -2.059206312426324490E-13 ) ) ;
#230830 = DIRECTION ( 'NONE',  ( 3.330669073875470607E-16, -3.885780586188048878E-16, 1.000000000000000000 ) ) ;
#230835 = CYLINDRICAL_SURFACE ( 'NONE', #182020, 3.000000000000009770 ) ;
#230867 = CARTESIAN_POINT ( 'NONE',  ( 1.970336903452382771, -4.635918773085540678, -5.178701302384872029 ) ) ;
#230997 = CARTESIAN_POINT ( 'NONE',  ( -2.775557561562891351E-14, -1.387778780781445676E-14, -0.3851141460152751606 ) ) ;
#231051 = ( NAMED_UNIT ( * ) SI_UNIT ( $, .STERADIAN. ) SOLID_ANGLE_UNIT ( ) );
#231517 = VERTEX_POINT ( 'NONE', #236317 ) ;
#231583 = ADVANCED_FACE ( 'NONE', ( #170769 ), #84812, .F. ) ;
#231778 = DIRECTION ( 'NONE',  ( -3.330669073875470607E-16, 3.885780586188048878E-16, -1.000000000000000000 ) ) ;
#232094 = CARTESIAN_POINT ( 'NONE',  ( 5.000018846050406474, -0.9703836562262510013, -0.05308625150301775342 ) ) ;
#232286 = EDGE_CURVE ( 'NONE', #247205, #296475, #154602, .T. ) ;
#232618 = VECTOR ( 'NONE', #214724, 1000.000000000000000 ) ;
#232913 = CONICAL_SURFACE ( 'NONE', #83581, 5.000000000000015987, 1.047197551196597409 ) ;
#232919 = CARTESIAN_POINT ( 'NONE',  ( -2.499999999999974243, -4.330127018922228288, 1.665334536937734811E-13 ) ) ;
#233009 = CARTESIAN_POINT ( 'NONE',  ( -4.999883932223984750, -2.041994274494056238, -4.969238421341587220 ) ) ;
#233249 = VECTOR ( 'NONE', #139322, 1000.000000000000000 ) ;
#233760 = VERTEX_POINT ( 'NONE', #179855 ) ;
#233935 = ORIENTED_EDGE ( 'NONE', *, *, #127385, .F. ) ;
#233962 = CARTESIAN_POINT ( 'NONE',  ( -1.260827784333865109, 5.045563757735882504, -5.084162590181685815 ) ) ;
#234291 = VERTEX_POINT ( 'NONE', #23492 ) ;
#234965 = B_SPLINE_CURVE_WITH_KNOTS ( 'NONE', 3,
 ( #88086, #298528, #183145, #233009, #63185, #85028, #180074, #275165, #66274, #134852, #250307, #181610, #156668, #19449, #86564, #131790, #60091 ),
 .UNSPECIFIED., .F., .F.,
 ( 4, 2, 2, 1, 2, 2, 2, 2, 4 ),
 ( 0.000000000000000000, 0.2499999999999995559, 0.3749999999999994449, 0.4374999999999991673, 0.4687499999999992228, 0.4999999999999993339, 0.6249999999999994449, 0.7499999999999995559, 1.000000000000000000 ),
 .UNSPECIFIED. ) ;
#235158 = DIRECTION ( 'NONE',  ( 3.330669073875470607E-16, -3.885780586188048878E-16, 1.000000000000000000 ) ) ;
#235295 = ORIENTED_EDGE ( 'NONE', *, *, #89572, .T. ) ;
#235443 = CARTESIAN_POINT ( 'NONE',  ( -1.942890293094023946E-13, 1.110223024625156540E-13, -5.199999999999871392 ) ) ;
#235573 = ORIENTED_EDGE ( 'NONE', *, *, #135001, .T. ) ;
#235754 = CARTESIAN_POINT ( 'NONE',  ( 0.8313852261763087226, 5.293655537525176591, -4.993651661239534079 ) ) ;
#235909 = CARTESIAN_POINT ( 'NONE',  ( -1.942890293094023946E-13, 1.110223024625156540E-13, -5.199999999999871392 ) ) ;
#236317 = CARTESIAN_POINT ( 'NONE',  ( -5.000000000000004441, -4.163336342344337027E-14, 2.220446049250313081E-13 ) ) ;
#236801 = VERTEX_POINT ( 'NONE', #177202 ) ;
#237177 = ORIENTED_EDGE ( 'NONE', *, *, #2236, .F. ) ;
#237213 = EDGE_LOOP ( 'NONE', ( #134322, #198164, #117211, #238178 ) ) ;
#237245 = CARTESIAN_POINT ( 'NONE',  ( 4.168747561291454851, -3.366828494962701424, -4.993651661239845829 ) ) ;
#237283 = ADVANCED_FACE ( 'NONE', ( #45764 ), #286772, .T. ) ;
#237338 = LINE ( 'NONE', #95524, #195601 ) ;
#237823 = DIRECTION ( 'NONE',  ( -1.000000000000000000, 1.110223024625152966E-16, 0.000000000000000000 ) ) ;
#237855 = ORIENTED_EDGE ( 'NONE', *, *, #62233, .F. ) ;
#238038 = EDGE_CURVE ( 'NONE', #252032, #219364, #287008, .T. ) ;
#238178 = ORIENTED_EDGE ( 'NONE', *, *, #166638, .F. ) ;
#238585 = CARTESIAN_POINT ( 'NONE',  ( -6.938893903907228378E-14, 5.773502691896414518, -5.199999999999982414 ) ) ;
#238599 = FACE_OUTER_BOUND ( 'NONE', #288489, .T. ) ;
#238792 = VERTEX_POINT ( 'NONE', #277446 ) ;
#238985 = VERTEX_POINT ( 'NONE', #68182 ) ;
#239127 = ADVANCED_FACE ( 'NONE', ( #7168 ), #232913, .T. ) ;
#239348 = CARTESIAN_POINT ( 'NONE',  ( -0.4332095535258947971, 5.523389039552760060, -0.3021788028761866474 ) ) ;
#239383 = ORIENTED_EDGE ( 'NONE', *, *, #286764, .T. ) ;
#239800 = ORIENTED_EDGE ( 'NONE', *, *, #141140, .F. ) ;
#240230 = VECTOR ( 'NONE', #5697, 1000.000000000000114 ) ;
#240515 = ADVANCED_FACE ( 'NONE', ( #293643 ), #101959, .F. ) ;
#241188 = ORIENTED_EDGE ( 'NONE', *, *, #128514, .T. ) ;
#241432 = AXIS2_PLACEMENT_3D ( 'NONE', #230997, #206147, #12797 ) ;
#241460 = CARTESIAN_POINT ( 'NONE',  ( -5.000030993463760787, 1.159959037200682941, -5.123515920099893428 ) ) ;
#241471 = EDGE_LOOP ( 'NONE', ( #18533, #89816, #5855 ) ) ;
#242409 = CARTESIAN_POINT ( 'NONE',  ( 2.500000000000182521, -4.330127018922366844, -5.200000000000093436 ) ) ;
#243024 = CARTESIAN_POINT ( 'NONE',  ( -5.000143509657212881, 0.6131217607207911646, -5.179124968816463337 ) ) ;
#243186 = ORIENTED_EDGE ( 'NONE', *, *, #101023, .T. ) ;
#244382 = EDGE_CURVE ( 'NONE', #267450, #24092, #284760, .T. ) ;
#244954 = AXIS2_PLACEMENT_3D ( 'NONE', #152287, #12023, #77646 ) ;
#245187 = FACE_OUTER_BOUND ( 'NONE', #228021, .T. ) ;
#245681 = DIRECTION ( 'NONE',  ( 3.330669073875470607E-16, -3.885780586188048878E-16, 1.000000000000000000 ) ) ;
#245754 = CARTESIAN_POINT ( 'NONE',  ( 4.999999999999906741, 1.356046601542312491, -5.095789101422730560 ) ) ;
#245963 = CARTESIAN_POINT ( 'NONE',  ( 2.500000000000002220, 4.330127018922088844, -5.200000000000038369 ) ) ;
#246081 = CARTESIAN_POINT ( 'NONE',  ( -5.000007205562151391, 0.2442821481411171780, -5.197409815987715120 ) ) ;
#246164 = CARTESIAN_POINT ( 'NONE',  ( -0.2128293729195044059, -5.650625596149700947, -4.824361136921127446 ) ) ;
#246305 = CARTESIAN_POINT ( 'NONE',  ( -4.016276307352198316, 3.454966162723026812, -5.028199497924362049 ) ) ;
#246615 = DIRECTION ( 'NONE',  ( -1.000000000000000000, 1.110223024625151857E-16, 3.330669073875470607E-16 ) ) ;
#246893 = ORIENTED_EDGE ( 'NONE', *, *, #19422, .F. ) ;
#246962 = CARTESIAN_POINT ( 'NONE',  ( -1.942890293094023946E-13, 1.110223024625156540E-13, -5.199999999999871392 ) ) ;
#247205 = VERTEX_POINT ( 'NONE', #86081 ) ;
#247542 = CARTESIAN_POINT ( 'NONE',  ( 0.000000000000000000, 0.000000000000000000, 0.000000000000000000 ) ) ;
#247627 = B_SPLINE_CURVE_WITH_KNOTS ( 'NONE', 3,
 ( #255868, #40716, #252794, #182535, #207580, #18831, #65684, #159159, #113926, #115479, #277628, #42214, #90550, #233962, #17292, #92065, #68743 ),
 .UNSPECIFIED., .F., .F.,
 ( 4, 2, 2, 2, 2, 1, 2, 2, 4 ),
 ( 0.000000000000000000, 0.1250000000000006661, 0.1875000000000009992, 0.2500000000000013323, 0.3750000000000016653, 0.4375000000000020539, 0.4687500000000019984, 0.5000000000000018874, 1.000000000000000000 ),
 .UNSPECIFIED. ) ;
#247706 = CARTESIAN_POINT ( 'NONE',  ( 0.000000000000000000, 5.773502691896151617, -3.330669073875469621E-13 ) ) ;
#247929 = DIRECTION ( 'NONE',  ( 1.000000000000000000, -1.110223024625153952E-16, 0.000000000000000000 ) ) ;
#248007 = LINE ( 'NONE', #269860, #139651 ) ;
#248210 = CIRCLE ( 'NONE', #113782, 5.000000000000015099 ) ;
#248703 = CARTESIAN_POINT ( 'NONE',  ( -5.000000000000087930, 2.886751345948110448, -0.4465819873851195609 ) ) ;
#248790 = FACE_OUTER_BOUND ( 'NONE', #305898, .T. ) ;
#248887 = EDGE_CURVE ( 'NONE', #224885, #88377, #1780, .T. ) ;
#249057 = CARTESIAN_POINT ( 'NONE',  ( 5.000000000000129674, 2.886751345948193492, -4.753418012614973875 ) ) ;
#249081 = CARTESIAN_POINT ( 'NONE',  ( 4.999999999999865885, 4.163336342344337027E-14, -1.110223024625156540E-13 ) ) ;
#250091 = AXIS2_PLACEMENT_3D ( 'NONE', #286238, #308071, #167794 ) ;
#250177 = CARTESIAN_POINT ( 'NONE',  ( 0.000000000000000000, 0.000000000000000000, 0.000000000000000000 ) ) ;
#250307 = CARTESIAN_POINT ( 'NONE',  ( -4.999998815919910911, -1.332659374089104620, -5.099986110696026032 ) ) ;
#251027 = VERTEX_POINT ( 'NONE', #40772 ) ;
#251032 = DIRECTION ( 'NONE',  ( -1.000000000000000000, 1.110223024625152966E-16, 0.000000000000000000 ) ) ;
#251235 = CARTESIAN_POINT ( 'NONE',  ( 0.8317598304995115210, -5.293280705443553558, -5.003987829571231671 ) ) ;
#251923 = AXIS2_PLACEMENT_3D ( 'NONE', #43540, #188498, #191580 ) ;
#252032 = VERTEX_POINT ( 'NONE', #221761 ) ;
#252476 = CARTESIAN_POINT ( 'NONE',  ( -3.864216081726602248, 3.542853448039316788, -5.060026156571177047 ) ) ;
#252478 = DIRECTION ( 'NONE',  ( 3.330669073875470607E-16, -3.885780586188048878E-16, 1.000000000000000000 ) ) ;
#252662 = CARTESIAN_POINT ( 'NONE',  ( -4.999999999999976019, 1.356046601542087782, -0.1042108985772341873 ) ) ;
#252732 = CARTESIAN_POINT ( 'NONE',  ( -1.804112415015879378E-13, -5.773502691896386985, -4.753418012615028942 ) ) ;
#252794 = CARTESIAN_POINT ( 'NONE',  ( -2.288075348233732598, 4.452448694157394193, -5.197418339682900346 ) ) ;
#253214 = AXIS2_PLACEMENT_3D ( 'NONE', #106865, #273668, #63201 ) ;
#253500 = CARTESIAN_POINT ( 'NONE',  ( 5.000011647125294445, 1.251187025107923345, -0.08867544030394391985 ) ) ;
#253674 = DIRECTION ( 'NONE',  ( -1.000000000000000000, 1.110223024625129300E-16, 0.000000000000000000 ) ) ;
#253701 = FACE_OUTER_BOUND ( 'NONE', #118406, .T. ) ;
#254024 = EDGE_CURVE ( 'NONE', #33939, #48308, #146346, .T. ) ;
#255411 = ORIENTED_EDGE ( 'NONE', *, *, #19454, .T. ) ;
#255539 = CARTESIAN_POINT ( 'NONE',  ( 5.000053725736822940, -0.8517464222666442097, -0.04078210056303885334 ) ) ;
#255743 = CARTESIAN_POINT ( 'NONE',  ( -4.999999999999976019, 0.6014523715870389031, -0.01516944088461810378 ) ) ;
#255868 = CARTESIAN_POINT ( 'NONE',  ( -2.499999999999960476, 4.330127018922366844, -5.199999999999982414 ) ) ;
#256675 = CARTESIAN_POINT ( 'NONE',  ( 0.000000000000000000, 0.000000000000000000, 0.000000000000000000 ) ) ;
#256922 = EDGE_LOOP ( 'NONE', ( #272766, #158012, #184082, #84016, #89153, #170921 ) ) ;
#257071 = CARTESIAN_POINT ( 'NONE',  ( -2.922467819088953700, 4.086215109847469940, -5.199999999999868727 ) ) ;
#257897 = CARTESIAN_POINT ( 'NONE',  ( -3.576662188588731528, -3.708515814514054654, -0.08758970480613646747 ) ) ;
#258917 = DIRECTION ( 'NONE',  ( 3.330669073875470607E-16, -3.885780586188048878E-16, 1.000000000000000000 ) ) ;
#259220 = CARTESIAN_POINT ( 'NONE',  ( 0.7292905979541810524, 5.352531876299307712, -4.968546491611163241 ) ) ;
#259223 = DIRECTION ( 'NONE',  ( -3.330669073875470607E-16, 3.885780586188048878E-16, -1.000000000000000000 ) ) ;
#259374 = ORIENTED_EDGE ( 'NONE', *, *, #276268, .F. ) ;
#259829 = ORIENTED_EDGE ( 'NONE', *, *, #74823, .F. ) ;
#260267 = CARTESIAN_POINT ( 'NONE',  ( -2.870636901134839825, -4.116107323841604604, -5.189673358731995201 ) ) ;
#260298 = CARTESIAN_POINT ( 'NONE',  ( 4.999999999999907629, 2.886751345948152192, -5.199999999999982414 ) ) ;
#260453 = AXIS2_PLACEMENT_3D ( 'NONE', #121257, #235158, #166497 ) ;
#260743 = CARTESIAN_POINT ( 'NONE',  ( 1.060089046298832827, 5.161776549262332203, -5.044695936827340965 ) ) ;
#261117 = PRODUCT_DEFINITION_FORMATION_WITH_SPECIFIED_SOURCE ( 'ANY', '', #94416, .NOT_KNOWN. ) ;
#262092 = B_SPLINE_CURVE_WITH_KNOTS ( 'NONE', 3,
 ( #179531, #54965, #9703, #149985, #31568, #8180, #129742, #30045, #131250, #293406, #151506, #103273 ),
 .UNSPECIFIED., .F., .F.,
 ( 4, 1, 1, 1, 1, 2, 2, 4 ),
 ( 0.000000000000000000, 0.2499999999999998335, 0.3749999999999997780, 0.4374999999999997224, 0.4687499999999996669, 0.4843749999999996669, 0.4999999999999996669, 1.000000000000000000 ),
 .UNSPECIFIED. ) ;
#262997 = ORIENTED_EDGE ( 'NONE', *, *, #294104, .T. ) ;
#263610 = ORIENTED_EDGE ( 'NONE', *, *, #244382, .F. ) ;
#263955 = B_SPLINE_CURVE_WITH_KNOTS ( 'NONE', 3,
 ( #232919, #187691, #112900, #190765, #257897, #114448, #115984, #211124, #19341, #303014, #306074, #307629 ),
 .UNSPECIFIED., .F., .F.,
 ( 4, 1, 1, 1, 1, 2, 2, 4 ),
 ( 0.000000000000000000, 0.2500000000000016653, 0.3750000000000024980, 0.4375000000000026090, 0.4687500000000024980, 0.4843750000000021649, 0.5000000000000017764, 1.000000000000000000 ),
 .UNSPECIFIED. ) ;
#264828 = CARTESIAN_POINT ( 'NONE',  ( -3.658972324762150397, -3.660987744422127932, -5.098437994008133245 ) ) ;
#264853 = CARTESIAN_POINT ( 'NONE',  ( -5.000000000000207834, 0.1223263664420929514, -5.199999999999872280 ) ) ;
#265042 = FACE_OUTER_BOUND ( 'NONE', #153998, .T. ) ;
#266266 = CARTESIAN_POINT ( 'NONE',  ( 3.737530247754241142, 3.615638597250947051, -0.1155697493972204642 ) ) ;
#267245 = AXIS2_PLACEMENT_3D ( 'NONE', #250177, #158073, #179939 ) ;
#267322 = CIRCLE ( 'NONE', #43249, 2.500000000000007994 ) ;
#267450 = VERTEX_POINT ( 'NONE', #63205 ) ;
#267550 = AXIS2_PLACEMENT_3D ( 'NONE', #136646, #230204, #253674 ) ;
#267762 = CARTESIAN_POINT ( 'NONE',  ( 3.739172498445502590, 3.614690769898374789, -5.084162590181916741 ) ) ;
#268971 = CONICAL_SURFACE ( 'NONE', #49794, 5.000000000000015987, 1.047197551196597409 ) ;
#269335 = CARTESIAN_POINT ( 'NONE',  ( 4.168235645012853929, 3.366965495785323004, -5.003987829575515356 ) ) ;
#269557 = ORIENTED_EDGE ( 'NONE', *, *, #171353, .F. ) ;
#269860 = CARTESIAN_POINT ( 'NONE',  ( 2.500000000000015987, -6.938893903907228378E-14, -5.199999999999926459 ) ) ;
#270652 = CARTESIAN_POINT ( 'NONE',  ( 4.999995472862841517, 1.929643305330159153, -0.1967867294363396802 ) ) ;
#270708 = CARTESIAN_POINT ( 'NONE',  ( -2.500000000000071498, 4.163336342344337027E-14, -4.824496230895148230 ) ) ;
#271504 = DIRECTION ( 'NONE',  ( 3.330669073875470114E-16, -3.885780586188048385E-16, 1.000000000000000000 ) ) ;
#271594 = FACE_BOUND ( 'NONE', #113384, .T. ) ;
#271795 = B_SPLINE_CURVE_WITH_KNOTS ( 'NONE', 3,
 ( #33751, #272223, #105470, #108516 ),
 .UNSPECIFIED., .F., .F.,
 ( 4, 4 ),
 ( 0.000000000000000000, 1.000000000000000000 ),
 .UNSPECIFIED. ) ;
#272223 = CARTESIAN_POINT ( 'NONE',  ( -0.8931639747679427366, -5.257834230633366523, -0.1488606624615313179 ) ) ;
#272696 = CARTESIAN_POINT ( 'NONE',  ( 4.999998815917868988, -1.332659374091852422, -0.1000138893032468806 ) ) ;
#272766 = ORIENTED_EDGE ( 'NONE', *, *, #19422, .T. ) ;
#273668 = DIRECTION ( 'NONE',  ( 3.330669073875470607E-16, -3.885780586188048878E-16, 1.000000000000000000 ) ) ;
#273921 = CARTESIAN_POINT ( 'NONE',  ( 3.501560311377225787, 3.751852302906020675, -5.123991225406218319 ) ) ;
#273942 = AXIS2_PLACEMENT_3D ( 'NONE', #192630, #286134, #99089 ) ;
#274301 = CARTESIAN_POINT ( 'NONE',  ( 4.999999999999906741, -2.635818128967017060, -4.825856192801116329 ) ) ;
#274551 = CARTESIAN_POINT ( 'NONE',  ( 2.129335056562755124, -4.544098143353680008, -5.189673358731994313 ) ) ;
#274688 = ORIENTED_EDGE ( 'NONE', *, *, #101273, .F. ) ;
#274768 = VERTEX_POINT ( 'NONE', #59577 ) ;
#275165 = CARTESIAN_POINT ( 'NONE',  ( -4.999989294243866844, -1.571507692497581488, -5.060821929919228523 ) ) ;
#275731 = VERTEX_POINT ( 'NONE', #179248 ) ;
#275976 = CARTESIAN_POINT ( 'NONE',  ( 0.000000000000000000, 0.000000000000000000, 0.000000000000000000 ) ) ;
#276268 = EDGE_CURVE ( 'NONE', #58296, #88377, #276412, .T. ) ;
#276412 = CIRCLE ( 'NONE', #142018, 5.000000000000015987 ) ;
#276795 = CARTESIAN_POINT ( 'NONE',  ( 5.000081813043022017, 0.9776707624421184795, -0.05391575016881133831 ) ) ;
#276932 = CIRCLE ( 'NONE', #151800, 2.500000000000007994 ) ;
#277175 = CARTESIAN_POINT ( 'NONE',  ( 0.000000000000000000, 0.000000000000000000, 0.000000000000000000 ) ) ;
#277446 = CARTESIAN_POINT ( 'NONE',  ( 3.000000000000169198, 5.551115123125782702E-14, -5.199999999999871392 ) ) ;
#277575 = DIRECTION ( 'NONE',  ( 3.330669073875470607E-16, -3.885780586188048878E-16, 1.000000000000000000 ) ) ;
#277628 = CARTESIAN_POINT ( 'NONE',  ( -1.419874555535965532, 4.953721581165778431, -5.111891713843961682 ) ) ;
#277652 = CARTESIAN_POINT ( 'NONE',  ( -1.942890293094023946E-13, 1.110223024625156540E-13, -5.199999999999871392 ) ) ;
#278054 = CIRCLE ( 'NONE', #302933, 5.000000000000015987 ) ;
#278127 = ORIENTED_EDGE ( 'NONE', *, *, #135418, .T. ) ;
#278186 = ORIENTED_EDGE ( 'NONE', *, *, #171353, .T. ) ;
#279475 = DIRECTION ( 'NONE',  ( 3.330669073875470607E-16, -3.885780586188048878E-16, 1.000000000000000000 ) ) ;
#279577 = ORIENTED_EDGE ( 'NONE', *, *, #135418, .F. ) ;
#279811 = EDGE_CURVE ( 'NONE', #231517, #5065, #43526, .T. ) ;
#280153 = AXIS2_PLACEMENT_3D ( 'NONE', #9582, #199859, #155992 ) ;
#280579 = CIRCLE ( 'NONE', #36726, 3.000000000000009770 ) ;
#281234 = CARTESIAN_POINT ( 'NONE',  ( 1.980832669080781372, -4.629868417182939844, -0.01506919652602824004 ) ) ;
#281753 = DIRECTION ( 'NONE',  ( -3.330669073875470607E-16, 3.885780586188048878E-16, -1.000000000000000000 ) ) ;
#282835 = CARTESIAN_POINT ( 'NONE',  ( -2.999999999999919176, 1.942890293094023946E-13, -5.174599999999751176 ) ) ;
#283062 = LINE ( 'NONE', #69605, #13603 ) ;
#284035 = CARTESIAN_POINT ( 'NONE',  ( 1.136093047023848612, 5.117936016507150576, -5.060026156571170830 ) ) ;
#284533 = CARTESIAN_POINT ( 'NONE',  ( -2.500000000000085265, 4.330127018922061310, -2.220446049250313081E-13 ) ) ;
#284632 = CARTESIAN_POINT ( 'NONE',  ( 0.000000000000000000, 0.000000000000000000, 0.000000000000000000 ) ) ;
#284760 = LINE ( 'NONE', #122593, #240230 ) ;
#284938 = EDGE_CURVE ( 'NONE', #228586, #166813, #212663, .T. ) ;
#285326 = LINE ( 'NONE', #71869, #33073 ) ;
#285355 = AXIS2_PLACEMENT_3D ( 'NONE', #150828, #125958, #5975 ) ;
#285794 = EDGE_CURVE ( 'NONE', #252032, #228586, #140840, .T. ) ;
#286134 = DIRECTION ( 'NONE',  ( 3.330669073875470607E-16, -3.885780586188048878E-16, 1.000000000000000000 ) ) ;
#286179 = CARTESIAN_POINT ( 'NONE',  ( -4.999999999999879208, -2.886751345948054936, -5.199999999999816325 ) ) ;
#286224 = EDGE_LOOP ( 'NONE', ( #12160, #184426, #216443 ) ) ;
#286238 = CARTESIAN_POINT ( 'NONE',  ( 1.942890293094023946E-13, 1.942890293094023946E-13, -4.824496230895203297 ) ) ;
#286296 = ADVANCED_FACE ( 'NONE', ( #253701 ), #110228, .F. ) ;
#286540 = CONICAL_SURFACE ( 'NONE', #251923, 5.000000000000015987, 1.047197551196597409 ) ;
#286651 = CARTESIAN_POINT ( 'NONE',  ( -5.000000282946539976, 1.435922035635149197, -5.083358923069965840 ) ) ;
#286764 = EDGE_CURVE ( 'NONE', #238985, #220170, #263955, .T. ) ;
#286772 = CONICAL_SURFACE ( 'NONE', #172375, 5.000000000000015987, 1.047197551196597409 ) ;
#287008 = B_SPLINE_CURVE_WITH_KNOTS ( 'NONE', 3,
 ( #112122, #274301, #107531, #306462, #38928, #211488, #62298, #177636, #84121, #300712, #92978, #154230 ),
 .UNSPECIFIED., .F., .F.,
 ( 4, 1, 1, 1, 1, 2, 2, 4 ),
 ( 0.000000000000000000, 0.2499999999999992228, 0.3749999999999989453, 0.4374999999999988898, 0.4687499999999990008, 0.4843749999999990563, 0.4999999999999991118, 1.000000000000000000 ),
 .UNSPECIFIED. ) ;
#287578 = CARTESIAN_POINT ( 'NONE',  ( -0.8450723845034656678, 5.285599923218657459, -0.1935026644833066911 ) ) ;
#288489 = EDGE_LOOP ( 'NONE', ( #187311, #230040, #183032 ) ) ;
#289323 = ORIENTED_EDGE ( 'NONE', *, *, #124360, .F. ) ;
#290655 = CARTESIAN_POINT ( 'NONE',  ( -1.423337811412071607, 4.951738223329916977, -0.08758970480631751709 ) ) ;
#290688 = EDGE_LOOP ( 'NONE', ( #17323, #53185, #186119 ) ) ;
#292857 = CARTESIAN_POINT ( 'NONE',  ( -0.7292905979477167788, -5.352531876304773562, -4.968546491608449855 ) ) ;
#292896 = ADVANCED_FACE ( 'NONE', ( #185598 ), #230835, .F. ) ;
#293406 = CARTESIAN_POINT ( 'NONE',  ( -4.999999999999976907, -0.9599421836673880382, -0.03988326868282145860 ) ) ;
#293600 = DIRECTION ( 'NONE',  ( 3.330669073875470607E-16, -3.885780586188048878E-16, 1.000000000000000000 ) ) ;
#293643 = FACE_OUTER_BOUND ( 'NONE', #85738, .T. ) ;
#294010 = DIRECTION ( 'NONE',  ( 0.5000000000000009992, -0.8660254037844380415, -5.030519238108973092E-16 ) ) ;
#294104 = EDGE_CURVE ( 'NONE', #234291, #8372, #247627, .T. ) ;
#294211 = ORIENTED_EDGE ( 'NONE', *, *, #22806, .F. ) ;
#294403 = CARTESIAN_POINT ( 'NONE',  ( -1.667766004822105685, -4.811068438380072365, -5.159853130072227678 ) ) ;
#294431 = FACE_OUTER_BOUND ( 'NONE', #61126, .T. ) ;
#294638 = CARTESIAN_POINT ( 'NONE',  ( -1.942890293094023946E-13, 1.110223024625156540E-13, -5.199999999999871392 ) ) ;
#294983 = CARTESIAN_POINT ( 'NONE',  ( 0.000000000000000000, 0.000000000000000000, 0.000000000000000000 ) ) ;
#295144 = B_SPLINE_CURVE_WITH_KNOTS ( 'NONE', 3,
 ( #109082, #63875, #230633, #179224 ),
 .UNSPECIFIED., .F., .F.,
 ( 4, 4 ),
 ( 0.000000000000000000, 1.000000000000000000 ),
 .UNSPECIFIED. ) ;
#295517 = CARTESIAN_POINT ( 'NONE',  ( 5.000000000000073719, 2.886751345948026959, -0.4465819873855636502 ) ) ;
#296374 = DIRECTION ( 'NONE',  ( 1.000000000000000000, -1.110223024625112783E-16, 0.000000000000000000 ) ) ;
#296475 = VERTEX_POINT ( 'NONE', #124657 ) ;
#296799 = AXIS2_PLACEMENT_3D ( 'NONE', #275976, #113798, #157483 ) ;
#296932 = AXIS2_PLACEMENT_3D ( 'NONE', #137104, #202742, #251032 ) ;
#297059 = CARTESIAN_POINT ( 'NONE',  ( 5.000143509656603591, 0.6131217607105375889, -0.02087503118232044916 ) ) ;
#297896 = CARTESIAN_POINT ( 'NONE',  ( 8.326672684688674053E-14, -2.081668171172168513E-13, -5.174599999999918154 ) ) ;
#298462 = CARTESIAN_POINT ( 'NONE',  ( 1.423337811412018761, -4.951738223329833488, -0.08758970480654872104 ) ) ;
#298528 = CARTESIAN_POINT ( 'NONE',  ( -5.000000000000206946, -2.640007972182954354, -4.824646689246679720 ) ) ;
#298587 = ORIENTED_EDGE ( 'NONE', *, *, #19454, .F. ) ;
#300129 = CARTESIAN_POINT ( 'NONE',  ( 5.000079138054650763, 0.4887644637189474950, -0.01295092006078195010 ) ) ;
#300649 = CARTESIAN_POINT ( 'NONE',  ( 4.999902888396834832, -1.923877449040492627, -0.2056097276867628054 ) ) ;
#300712 = CARTESIAN_POINT ( 'NONE',  ( 4.999999999999905853, -0.9599421836643589057, -5.160116731317146765 ) ) ;
#300761 = ORIENTED_EDGE ( 'NONE', *, *, #127385, .T. ) ;
#300783 = VECTOR ( 'NONE', #122711, 1000.000000000000000 ) ;
#301299 = EDGE_CURVE ( 'NONE', #44811, #267450, #21051, .T. ) ;
#302220 = EDGE_LOOP ( 'NONE', ( #179109, #225340, #59587 ) ) ;
#302370 = CIRCLE ( 'NONE', #296799, 5.000000000000015987 ) ;
#302445 = EDGE_CURVE ( 'NONE', #166813, #88377, #16556, .T. ) ;
#302933 = AXIS2_PLACEMENT_3D ( 'NONE', #81780, #197232, #55335 ) ;
#302970 = CARTESIAN_POINT ( 'NONE',  ( 5.000000000000073719, -2.886751345948110448, -5.200000000000038369 ) ) ;
#303014 = CARTESIAN_POINT ( 'NONE',  ( -4.154927615499082627, -3.374654114624310974, -0.1935026644839941690 ) ) ;
#303043 = CARTESIAN_POINT ( 'NONE',  ( 2.499999999999891198, 4.330127018922144799, 5.551115123125782702E-14 ) ) ;
#303384 = ORIENTED_EDGE ( 'NONE', *, *, #254024, .F. ) ;
#305036 = AXIS2_PLACEMENT_3D ( 'NONE', #33692, #294010, #80517 ) ;
#305898 = EDGE_LOOP ( 'NONE', ( #220830, #239800, #300761 ) ) ;
#306002 = DIRECTION ( 'NONE',  ( -1.000000000000000000, 1.110223024625129300E-16, 0.000000000000000000 ) ) ;
#306074 = CARTESIAN_POINT ( 'NONE',  ( -4.566790446476649556, -3.136864998290211926, -0.3021788028768715995 ) ) ;
#306454 = EDGE_CURVE ( 'NONE', #236801, #143280, #176874, .T. ) ;
#306462 = CARTESIAN_POINT ( 'NONE',  ( 4.999999999999905853, -1.856156974558568651, -5.008553671222109038 ) ) ;
#306794 = VERTEX_POINT ( 'NONE', #192997 ) ;
#307084 = DIRECTION ( 'NONE',  ( 3.330669073875470607E-16, -3.885780586188048878E-16, 1.000000000000000000 ) ) ;
#307359 = CARTESIAN_POINT ( 'NONE',  ( 2.922467819087221752, -4.086215109848025939, -5.199999999999873168 ) ) ;
#307403 = CARTESIAN_POINT ( 'NONE',  ( 1.210463255698252860, 5.075027172006985055, -5.074541031475991559 ) ) ;
#307629 = CARTESIAN_POINT ( 'NONE',  ( -5.000000000000060396, -2.886751345948179726, -0.4465819873850640498 ) ) ;
#308071 = DIRECTION ( 'NONE',  ( 3.330669073875470607E-16, -3.885780586188048878E-16, 1.000000000000000000 ) ) ;
ENDSEC;
END-ISO-10303-21;
