ISO-10303-21;
HEADER;
FILE_DESCRIPTION (( 'STEP AP214' ),
    '1' );
FILE_NAME ('PT.SHT.01.20.00.00 —¡ ''ÿÌÂÍ 1'' (STEP 214 ““).STEP',
    '2026-09-29T05:38:28',
    ( '' ),
    ( '' ),
    'SwSTEP 2.0',
    'SolidWorks 2025',
    '' );
FILE_SCHEMA (( 'AUTOMOTIVE_DESIGN' ));
ENDSEC;

DATA;
#493 = CARTESIAN_POINT ( 'NONE',  ( -0.04775584138209647972, 0.3497726798227935863, 3.167170127667734647 ) ) ;
#1859 = ADVANCED_FACE ( 'NONE', ( #184872 ), #38407, .T. ) ;
#3515 = CARTESIAN_POINT ( 'NONE',  ( -0.2280378158689864709, 0.3499999999996548095, 3.029851481508583522 ) ) ;
#4201 = ( GEOMETRIC_REPRESENTATION_CONTEXT ( 3 ) GLOBAL_UNCERTAINTY_ASSIGNED_CONTEXT ( ( #288105 ) ) GLOBAL_UNIT_ASSIGNED_CONTEXT ( ( #212311, #305734, #188883 ) ) REPRESENTATION_CONTEXT ( 'NONE', 'WORKASPACE' ) );
#4604 = CARTESIAN_POINT ( 'NONE',  ( -0.1008992405850668711, -0.3499955091636095528, 3.105824533706779356 ) ) ;
#5429 = LINE ( 'NONE', #53699, #72219 ) ;
#6058 = CARTESIAN_POINT ( 'NONE',  ( 0.000000000000000000, 0.000000000000000000, 0.000000000000000000 ) ) ;
#6697 = AXIS2_PLACEMENT_3D ( 'NONE', #123763, #100412, #218854 ) ;
#6721 = ORIENTED_EDGE ( 'NONE', *, *, #277001, .T. ) ;
#6768 = ORIENTED_EDGE ( 'NONE', *, *, #270844, .T. ) ;
#6854 = VERTEX_POINT ( 'NONE', #274435 ) ;
#7682 = DIRECTION ( 'NONE',  ( 3.885780586188029156E-16, -2.775557561562877546E-16, 1.000000000000000000 ) ) ;
#8649 = ORIENTED_EDGE ( 'NONE', *, *, #220116, .F. ) ;
#14309 = DIRECTION ( 'NONE',  ( 4.042787761810335962E-16, -2.775557561562927343E-16, 1.000000000000000000 ) ) ;
#14502 = ADVANCED_FACE ( 'NONE', ( #63217 ), #209733, .T. ) ;
#15919 = VERTEX_POINT ( 'NONE', #197125 ) ;
#16597 = ORIENTED_EDGE ( 'NONE', *, *, #198645, .F. ) ;
#18906 = CARTESIAN_POINT ( 'NONE',  ( -1.400000000000733991, -5.273559366969493567E-13, -7.632783294297951215E-13 ) ) ;
#18911 = CARTESIAN_POINT ( 'NONE',  ( -1.400000000000733991, -5.273559366969493567E-13, -7.632783294297951215E-13 ) ) ;
#19895 = VERTEX_POINT ( 'NONE', #172645 ) ;
#20739 = VECTOR ( 'NONE', #50541, 1000.000000000000000 ) ;
#21125 = AXIS2_PLACEMENT_3D ( 'NONE', #152548, #247728, #76370 ) ;
#23629 = SHAPE_REPRESENTATION_RELATIONSHIP ( 'NONE' , 'NONE' ,  #274498, #195055 ) ;
#23836 = CARTESIAN_POINT ( 'NONE',  ( -0.07034676710954133882, 0.3499167609092107001, 3.137398984709306227 ) ) ;
#24930 = CARTESIAN_POINT ( 'NONE',  ( -0.2262175113826140338, -0.3499382884110889269, 3.036463309163907276 ) ) ;
#26485 = CIRCLE ( 'NONE', #200799, 3.050000000000014921 ) ;
#26886 = CARTESIAN_POINT ( 'NONE',  ( -0.08611710997138659340, 0.3499991557334916070, 3.120061144838148337 ) ) ;
#26942 = CARTESIAN_POINT ( 'NONE',  ( -1.400000000000511946, 0.3499999999994757305, -7.077671781985372945E-13 ) ) ;
#27002 = ADVANCED_FACE ( 'NONE', ( #98195 ), #194860, .F. ) ;
#28442 = EDGE_CURVE ( 'NONE', #19895, #71257, #76369, .T. ) ;
#28962 = ORIENTED_EDGE ( 'NONE', *, *, #289054, .F. ) ;
#29504 = CARTESIAN_POINT ( 'NONE',  ( -0.09121070744714541989, -0.3499996180608564988, 3.114959218324388601 ) ) ;
#30007 = ORIENTED_EDGE ( 'NONE', *, *, #290576, .F. ) ;
#31860 = ORIENTED_EDGE ( 'NONE', *, *, #115039, .F. ) ;
#35341 = LINE ( 'NONE', #55638, #293935 ) ;
#36290 = ADVANCED_FACE ( 'NONE', ( #125304 ), #116195, .T. ) ;
#37386 = VERTEX_POINT ( 'NONE', #46359 ) ;
#38407 = CYLINDRICAL_SURFACE ( 'NONE', #114249, 5.900000000000028777 ) ;
#38682 = ORIENTED_EDGE ( 'NONE', *, *, #198216, .F. ) ;
#40951 = VECTOR ( 'NONE', #306003, 1000.000000000000000 ) ;
#41954 = PRODUCT_DEFINITION_SHAPE ( 'NONE', 'NONE',  #64403 ) ;
#44029 = ADVANCED_FACE ( 'NONE', ( #193647 ), #269953, .F. ) ;
#44666 = AXIS2_PLACEMENT_3D ( 'NONE', #266837, #104716, #220100 ) ;
#46359 = CARTESIAN_POINT ( 'NONE',  ( -6.661338147750939243E-13, -0.3500000000005998313, 5.889609494694789227 ) ) ;
#47087 = PRODUCT ( '\X2\04280430043904310430\X0\ \X2\043f0440044304360438043d043d0430044f\X0\ \X2\041c\X0\6 DIN128', '\X2\04280430043904310430\X0\ \X2\043f0440044304360438043d043d0430044f\X0\ \X2\041c\X0\6 DIN128', '', ( #286877 ) ) ;
#47263 = LINE ( 'NONE', #26942, #40951 ) ;
#47995 = CLOSED_SHELL ( 'NONE', ( #14502, #234645, #27002, #69657, #44029, #36290, #224112, #1859 ) ) ;
#48373 = DIRECTION ( 'NONE',  ( 3.910237343390324882E-16, -2.775557561562875081E-16, 1.000000000000000000 ) ) ;
#48843 = CARTESIAN_POINT ( 'NONE',  ( -1.323589429691347963, 0.3500000892282011944, 3.129872507483276500 ) ) ;
#49326 = DIRECTION ( 'NONE',  ( 3.885780586188028663E-16, -2.775557561562878039E-16, 1.000000000000000000 ) ) ;
#49766 = AXIS2_PLACEMENT_3D ( 'NONE', #279816, #181646, #111494 ) ;
#50304 = ORIENTED_EDGE ( 'NONE', *, *, #262081, .T. ) ;
#50441 = CARTESIAN_POINT ( 'NONE',  ( -1.308864156298831460, 0.3499996169330855667, 3.115032235958844709 ) ) ;
#50541 = DIRECTION ( 'NONE',  ( -1.000000000000000000, -2.220446049250308150E-16, -1.110223024625154075E-16 ) ) ;
#51112 = CARTESIAN_POINT ( 'NONE',  ( -1.400000000000345413, -0.3500000000006275869, 3.331666249790949053 ) ) ;
#51827 = CARTESIAN_POINT ( 'NONE',  ( -0.07434687024486955065, 0.3499448916427063128, 3.132754240313998739 ) ) ;
#51959 = CARTESIAN_POINT ( 'NONE',  ( -1.100000000000656009, 0.3499999999995312416, 3.029851481505738242 ) ) ;
#52558 = DIRECTION ( 'NONE',  ( -1.110223024625153336E-16, -2.775557561562893816E-16, 1.000000000000000000 ) ) ;
#53699 = CARTESIAN_POINT ( 'NONE',  ( -34.92500000000048033, -0.3500000000003222755, 3.029851481508000433 ) ) ;
#54434 = CARTESIAN_POINT ( 'NONE',  ( -0.05727440373046352451, -0.3497882167664628783, 3.150036260010282252 ) ) ;
#54712 = ORIENTED_EDGE ( 'NONE', *, *, #214518, .T. ) ;
#55638 = CARTESIAN_POINT ( 'NONE',  ( -34.92500000000053717, -0.3500000000006969758, 5.889609494694914460 ) ) ;
#57910 = VECTOR ( 'NONE', #99620, 1000.000000000000000 ) ;
#61017 = VECTOR ( 'NONE', #7682, 1000.000000000000000 ) ;
#63204 = APPLICATION_CONTEXT ( 'automotive_design' ) ;
#63217 = FACE_OUTER_BOUND ( 'NONE', #210235, .T. ) ;
#64403 = PRODUCT_DEFINITION ( 'UNKNOWN', '', #281061, #75808 ) ;
#67865 = CARTESIAN_POINT ( 'NONE',  ( -1.325609957475220257, -0.3499448464243812285, 3.132704609381050442 ) ) ;
#69657 = ADVANCED_FACE ( 'NONE', ( #80580 ), #70734, .T. ) ;
#70530 = DIRECTION ( 'NONE',  ( -1.000000000000000000, -2.220446049250308150E-16, -1.110223024625154075E-16 ) ) ;
#70673 = CARTESIAN_POINT ( 'NONE',  ( -0.08463040676905542181, 0.3499959864071013338, 3.121593339007981083 ) ) ;
#70734 = TOROIDAL_SURFACE ( 'NONE', #190207, 3.350000000000000089, 0.2999999999999999889 ) ;
#71257 = VERTEX_POINT ( 'NONE', #51112 ) ;
#72194 = CARTESIAN_POINT ( 'NONE',  ( -0.07975719968029472418, 0.3499761217377962974, 3.126758439491927444 ) ) ;
#72219 = VECTOR ( 'NONE', #95912, 1000.000000000000000 ) ;
#72320 = CARTESIAN_POINT ( 'NONE',  ( -1.173811253657868869, 0.3499381689493925585, 3.036468194701626988 ) ) ;
#72474 = CARTESIAN_POINT ( 'NONE',  ( -1.380935071971688854, -0.3497271860258063803, 3.218754723836760867 ) ) ;
#72807 = VERTEX_POINT ( 'NONE', #111310 ) ;
#73401 = CARTESIAN_POINT ( 'NONE',  ( -0.3000000000004110490, -3.469446951953614189E-13, -5.551115123125782702E-14 ) ) ;
#74940 = DIRECTION ( 'NONE',  ( -3.885780586188028663E-16, 2.775557561562877546E-16, -1.000000000000000000 ) ) ;
#75808 = PRODUCT_DEFINITION_CONTEXT ( 'detailed design', #63204, 'design' ) ;
#75883 = ORIENTED_EDGE ( 'NONE', *, *, #223733, .T. ) ;
#76338 = CARTESIAN_POINT ( 'NONE',  ( -0.01904457539675749600, -0.3497277407435244179, 3.218818640424418565 ) ) ;
#76369 = CIRCLE ( 'NONE', #250594, 3.350000000000016520 ) ;
#76370 = DIRECTION ( 'NONE',  ( 3.885780586188041482E-16, 1.000000000000000000, -4.440892098500619259E-16 ) ) ;
#80209 = EDGE_LOOP ( 'NONE', ( #31860, #81326, #132565, #212105 ) ) ;
#80580 = FACE_OUTER_BOUND ( 'NONE', #166586, .T. ) ;
#81326 = ORIENTED_EDGE ( 'NONE', *, *, #220626, .T. ) ;
#91194 = CARTESIAN_POINT ( 'NONE',  ( -1.314312322831789226, -0.3499999851951666185, 3.120486937603260014 ) ) ;
#93206 = ORIENTED_EDGE ( 'NONE', *, *, #204679, .F. ) ;
#94019 = CARTESIAN_POINT ( 'NONE',  ( -0.05749743839061026429, 0.3498305270652352639, 3.153512334460151223 ) ) ;
#94514 = CIRCLE ( 'NONE', #159215, 3.350000000000016520 ) ;
#94931 = ORIENTED_EDGE ( 'NONE', *, *, #234265, .F. ) ;
#95682 = CARTESIAN_POINT ( 'NONE',  ( -1.400000000000100275, 0.3499999999998767430, 3.268528001555314422 ) ) ;
#95794 = FACE_OUTER_BOUND ( 'NONE', #116167, .T. ) ;
#95912 = DIRECTION ( 'NONE',  ( -1.000000000000000000, -2.220446049250308150E-16, -1.110223024625154075E-16 ) ) ;
#96820 = VERTEX_POINT ( 'NONE', #122356 ) ;
#97363 = CARTESIAN_POINT ( 'NONE',  ( -1.329612986272292074, -0.3499166932971701782, 3.137350745387159190 ) ) ;
#98195 = FACE_OUTER_BOUND ( 'NONE', #238771, .T. ) ;
#98287 = SHAPE_DEFINITION_REPRESENTATION ( #41954, #274498 ) ;
#98756 = CARTESIAN_POINT ( 'NONE',  ( -1.285161716150203803, 0.3499842597987267157, 3.093818090238889873 ) ) ;
#99620 = DIRECTION ( 'NONE',  ( 3.885780586188029156E-16, -2.775557561562877546E-16, 1.000000000000000000 ) ) ;
#100412 = DIRECTION ( 'NONE',  ( -1.000000000000000000, -2.220446049250308150E-16, -1.110223024625154075E-16 ) ) ;
#104716 = DIRECTION ( 'NONE',  ( -1.000000000000000000, -2.220446049250308150E-16, -1.110223024625154075E-16 ) ) ;
#105166 = CARTESIAN_POINT ( 'NONE',  ( -5.551115123125782702E-14, 0.3499999999995173638, 5.889609494694969527 ) ) ;
#108124 = EDGE_LOOP ( 'NONE', ( #38682, #75883, #28962, #265958 ) ) ;
#108551 = DIRECTION ( 'NONE',  ( -1.000000000000000000, -2.220446049250308150E-16, -1.110223024625154075E-16 ) ) ;
#111310 = CARTESIAN_POINT ( 'NONE',  ( -0.3000000000005775824, -0.3500000000006137091, 3.029851481507667366 ) ) ;
#111494 = DIRECTION ( 'NONE',  ( -1.000000000000000000, -2.220446049250308150E-16, -1.110223024625154075E-16 ) ) ;
#114010 = DIRECTION ( 'NONE',  ( -1.000000000000000000, -2.220446049250308150E-16, -1.110223024625154075E-16 ) ) ;
#114155 = CARTESIAN_POINT ( 'NONE',  ( -1.400000000000456435, -0.3500000000004749312, 5.889609494695566383 ) ) ;
#114169 = ORIENTED_EDGE ( 'NONE', *, *, #262081, .F. ) ;
#114249 = AXIS2_PLACEMENT_3D ( 'NONE', #133456, #108551, #203721 ) ;
#114321 = ORIENTED_EDGE ( 'NONE', *, *, #220626, .F. ) ;
#114593 = CARTESIAN_POINT ( 'NONE',  ( -1.315317942184816680, -0.3499959831249226383, 3.121539751073264313 ) ) ;
#115039 = EDGE_CURVE ( 'NONE', #282492, #96820, #94514, .T. ) ;
#115636 = VERTEX_POINT ( 'NONE', #262942 ) ;
#115796 = ORIENTED_EDGE ( 'NONE', *, *, #204679, .T. ) ;
#116167 = EDGE_LOOP ( 'NONE', ( #293665, #191941, #6721, #288207 ) ) ;
#116195 = TOROIDAL_SURFACE ( 'NONE', #6697, 3.350000000000000089, 0.2999999999999999889 ) ;
#116220 = CARTESIAN_POINT ( 'NONE',  ( -7.216449660063517513E-13, 0.3499999999995173638, 6.018000000000093053 ) ) ;
#118918 = CARTESIAN_POINT ( 'NONE',  ( -0.08231574206181348219, 0.3499889967326358375, 3.124003546376372675 ) ) ;
#119047 = CARTESIAN_POINT ( 'NONE',  ( -1.136005330944694247, 0.3500000000001894374, 3.029851481508575084 ) ) ;
#120005 = CARTESIAN_POINT ( 'NONE',  ( -0.07647109420937553415, -0.3500000880929974301, 3.129803432022455478 ) ) ;
#121927 = ORIENTED_EDGE ( 'NONE', *, *, #289054, .T. ) ;
#122356 = CARTESIAN_POINT ( 'NONE',  ( -7.216449660063517513E-13, -0.3500000000004055423, 3.331666249791101375 ) ) ;
#122514 = EDGE_CURVE ( 'NONE', #72807, #96820, #254166, .T. ) ;
#122952 = CARTESIAN_POINT ( 'NONE',  ( -3.885780586188047891E-13, -0.3500000000003500311, 1.942890293094023946E-13 ) ) ;
#123058 = CARTESIAN_POINT ( 'NONE',  ( -0.1533064006530799883, -0.3499468610832755511, 3.067611062324216764 ) ) ;
#123763 = CARTESIAN_POINT ( 'NONE',  ( -0.3000000000004110490, -3.469446951953614189E-13, -5.551115123125782702E-14 ) ) ;
#125304 = FACE_OUTER_BOUND ( 'NONE', #80209, .T. ) ;
#126039 = DIRECTION ( 'NONE',  ( -1.000000000000000000, -2.220446049250308150E-16, -1.110223024625154075E-16 ) ) ;
#127763 = PLANE ( 'NONE',  #196067 ) ;
#131274 = B_SPLINE_CURVE_WITH_KNOTS ( 'NONE', 3,
 ( #281344, #304704, #72474, #236122, #164429, #97363, #67865, #211273, #162847, #114593, #256514, #91194, #258047, #186285, #284413 ),
 .UNSPECIFIED., .F., .F.,
 ( 4, 2, 2, 2, 1, 2, 2, 4 ),
 ( 0.000000000000000000, 0.2499999999999953926, 0.3749999999999933942, 0.4374999999999933942, 0.4687499999999925060, 0.4843749999999920619, 0.4999999999999916733, 1.000000000000000000 ),
 .UNSPECIFIED. ) ;
#132565 = ORIENTED_EDGE ( 'NONE', *, *, #234265, .T. ) ;
#133456 = CARTESIAN_POINT ( 'NONE',  ( -34.92500000000053717, -4.440892098500626162E-13, 2.498001805406602216E-13 ) ) ;
#135695 = ORIENTED_EDGE ( 'NONE', *, *, #198216, .T. ) ;
#138318 = CIRCLE ( 'NONE', #272710, 3.050000000000014921 ) ;
#140471 = DIRECTION ( 'NONE',  ( 3.883709274574921991E-16, -2.775557561562884942E-16, 1.000000000000000000 ) ) ;
#140610 = CARTESIAN_POINT ( 'NONE',  ( -1.100000000000100897, -1.249000902703301108E-13, -2.775557561562891351E-14 ) ) ;
#140889 = CARTESIAN_POINT ( 'NONE',  ( -1.272557472686477009, 0.3499708147671038994, 3.084589579416773475 ) ) ;
#140991 = DIRECTION ( 'NONE',  ( -1.000000000000000000, -2.220446049250309876E-16, 3.885780586188028170E-16 ) ) ;
#141281 = CIRCLE ( 'NONE', #211215, 5.900000000000028777 ) ;
#142436 = CARTESIAN_POINT ( 'NONE',  ( -1.299173629083946624, 0.3499954990756526940, 3.105889470946130881 ) ) ;
#144939 = LINE ( 'NONE', #146437, #61017 ) ;
#146437 = CARTESIAN_POINT ( 'NONE',  ( -1.400000000000567457, -0.3500000000004332978, -2.220446049250313081E-13 ) ) ;
#146862 = CARTESIAN_POINT ( 'NONE',  ( -0.3000000000004665601, 0.3499999999994896083, 3.029851481508361033 ) ) ;
#147048 = ORIENTED_EDGE ( 'NONE', *, *, #235060, .T. ) ;
#147927 = CARTESIAN_POINT ( 'NONE',  ( -0.3000000000005775824, -0.3500000000006137091, 3.029851481507667366 ) ) ;
#148025 = FACE_OUTER_BOUND ( 'NONE', #167413, .T. ) ;
#152548 = CARTESIAN_POINT ( 'NONE',  ( -1.400000000000456435, 5.899999999999377742, -1.110223024625156540E-13 ) ) ;
#153036 = AXIS2_PLACEMENT_3D ( 'NONE', #195856, #164772, #49326 ) ;
#154777 = ORIENTED_EDGE ( 'NONE', *, *, #214518, .F. ) ;
#156224 = CARTESIAN_POINT ( 'NONE',  ( -34.92500000000104166, 0.3499999999995728750, 3.029851481508596844 ) ) ;
#158073 = DIRECTION ( 'NONE',  ( 0.000000000000000000, 0.000000000000000000, 1.000000000000000000 ) ) ;
#159215 = AXIS2_PLACEMENT_3D ( 'NONE', #6058, #126039, #289739 ) ;
#160144 = VERTEX_POINT ( 'NONE', #114155 ) ;
#162847 = CARTESIAN_POINT ( 'NONE',  ( -1.317634677427868439, -0.3499889876026265334, 3.123950927372435071 ) ) ;
#164380 = CARTESIAN_POINT ( 'NONE',  ( -7.771561172376095783E-13, 3.349999999999603517, 1.249000902703301108E-13 ) ) ;
#164429 = CARTESIAN_POINT ( 'NONE',  ( -1.342471139780259337, -0.3498303932107730829, 3.153468611161525992 ) ) ;
#164772 = DIRECTION ( 'NONE',  ( -1.000000000000000000, -2.220446049250308150E-16, -1.110223024625154075E-16 ) ) ;
#166586 = EDGE_LOOP ( 'NONE', ( #114169, #54712, #240315, #115796 ) ) ;
#167352 = CARTESIAN_POINT ( 'NONE',  ( -1.246750685644198997, 0.3499467541097632806, 3.067642395794959231 ) ) ;
#167413 = EDGE_LOOP ( 'NONE', ( #121927, #247242, #267692, #288189, #93206, #6768 ) ) ;
#171820 = CARTESIAN_POINT ( 'NONE',  ( -0.1478388476210884261, 0.3500004778329703359, 3.057739687471216605 ) ) ;
#172645 = CARTESIAN_POINT ( 'NONE',  ( -1.400000000000789502, 0.3499999999996422639, 3.331666249791462420 ) ) ;
#179939 = DIRECTION ( 'NONE',  ( 1.000000000000000000, 0.000000000000000000, 0.000000000000000000 ) ) ;
#181646 = DIRECTION ( 'NONE',  ( 2.220446049250307657E-16, -1.000000000000000000, 4.440892098500619752E-16 ) ) ;
#182721 = LINE ( 'NONE', #156224, #210153 ) ;
#184872 = FACE_OUTER_BOUND ( 'NONE', #108124, .T. ) ;
#186285 = CARTESIAN_POINT ( 'NONE',  ( -1.171943258039173541, -0.3500000000001345368, 3.029851481508610167 ) ) ;
#188883 = ( NAMED_UNIT ( * ) SI_UNIT ( $, .STERADIAN. ) SOLID_ANGLE_UNIT ( ) );
#189109 = CARTESIAN_POINT ( 'NONE',  ( -4.094376566665448418E-13, 0.3499999999996545874, 3.268490762005175299 ) ) ;
#190207 = AXIS2_PLACEMENT_3D ( 'NONE', #247350, #270718, #52558 ) ;
#190880 = LINE ( 'NONE', #234582, #20739 ) ;
#191719 = CARTESIAN_POINT ( 'NONE',  ( -0.1149077023696127159, -0.3499842929499637489, 3.093763816091752439 ) ) ;
#191941 = ORIENTED_EDGE ( 'NONE', *, *, #115039, .T. ) ;
#192332 = B_SPLINE_CURVE_WITH_KNOTS ( 'NONE', 3,
 ( #243565, #189109, #220165, #493, #94019, #23836, #51827, #72194, #118918, #70673, #26886, #214072, #171820, #3515, #146862 ),
 .UNSPECIFIED., .F., .F.,
 ( 4, 2, 2, 2, 1, 2, 2, 4 ),
 ( 0.000000000000000000, 0.2500000000000073830, 0.3750000000000123235, 0.4375000000000147105, 0.4687500000000158762, 0.4843750000000164868, 0.5000000000000170974, 1.000000000000000000 ),
 .UNSPECIFIED. ) ;
#193201 = CARTESIAN_POINT ( 'NONE',  ( -5.551115123125782702E-13, 0.3499999999993508304, 3.331666249791559231 ) ) ;
#193240 = CARTESIAN_POINT ( 'NONE',  ( -0.1712980288940499640, -0.3499356979118857236, 3.058340717037204559 ) ) ;
#193350 = DIRECTION ( 'NONE',  ( 3.885780586188044440E-16, 1.000000000000000000, 2.775557561562876067E-16 ) ) ;
#193647 = FACE_OUTER_BOUND ( 'NONE', #237752, .T. ) ;
#194860 = PLANE ( 'NONE',  #21125 ) ;
#195055 = ADVANCED_BREP_SHAPE_REPRESENTATION ( '', ( #205805, #267245 ), #4201 ) ;
#195856 = CARTESIAN_POINT ( 'NONE',  ( 0.000000000000000000, 0.000000000000000000, 0.000000000000000000 ) ) ;
#196067 = AXIS2_PLACEMENT_3D ( 'NONE', #199564, #193350, #74940 ) ;
#197125 = CARTESIAN_POINT ( 'NONE',  ( -1.100000000000656009, 0.3499999999995312416, 3.029851481505738242 ) ) ;
#197793 = LINE ( 'NONE', #122952, #57910 ) ;
#198216 = EDGE_CURVE ( 'NONE', #250716, #115636, #190880, .T. ) ;
#198645 = EDGE_CURVE ( 'NONE', #15919, #242021, #182721, .T. ) ;
#199564 = CARTESIAN_POINT ( 'NONE',  ( -1.400000000000567457, -0.3500000000004332978, -2.220446049250313081E-13 ) ) ;
#200799 = AXIS2_PLACEMENT_3D ( 'NONE', #73401, #263530, #48373 ) ;
#201339 = ORIENTED_EDGE ( 'NONE', *, *, #220000, .F. ) ;
#201340 = ORIENTED_EDGE ( 'NONE', *, *, #270844, .F. ) ;
#203721 = DIRECTION ( 'NONE',  ( 0.000000000000000000, -2.775557561562927343E-16, 1.000000000000000000 ) ) ;
#204679 = EDGE_CURVE ( 'NONE', #71257, #6854, #131274, .T. ) ;
#205805 = MANIFOLD_SOLID_BREP ( 'NONE', #47995 ) ;
#209187 = DIRECTION ( 'NONE',  ( -1.000000000000000000, -2.220446049250308150E-16, -1.110223024625154075E-16 ) ) ;
#209733 = PLANE ( 'NONE',  #49766 ) ;
#210153 = VECTOR ( 'NONE', #214986, 1000.000000000000000 ) ;
#210235 = EDGE_LOOP ( 'NONE', ( #135695, #266068, #154777, #218435, #114321, #201339 ) ) ;
#211215 = AXIS2_PLACEMENT_3D ( 'NONE', #18906, #209187, #14309 ) ;
#211273 = CARTESIAN_POINT ( 'NONE',  ( -1.320195339429467429, -0.3499761019505401305, 3.126706802939188901 ) ) ;
#212105 = ORIENTED_EDGE ( 'NONE', *, *, #122514, .T. ) ;
#212311 = ( LENGTH_UNIT ( ) NAMED_UNIT ( * ) SI_UNIT ( .MILLI., .METRE. ) );
#214072 = CARTESIAN_POINT ( 'NONE',  ( -0.08563307867313017796, 0.3499999850673636281, 3.120543022708932579 ) ) ;
#214518 = EDGE_CURVE ( 'NONE', #15919, #19895, #301918, .T. ) ;
#214986 = DIRECTION ( 'NONE',  ( 1.000000000000000000, 2.220446049250308150E-16, 1.110223024625154075E-16 ) ) ;
#218435 = ORIENTED_EDGE ( 'NONE', *, *, #198645, .T. ) ;
#218751 = CARTESIAN_POINT ( 'NONE',  ( -1.400000000000789502, 0.3499999999996422639, 3.331666249791462420 ) ) ;
#218854 = DIRECTION ( 'NONE',  ( -1.110223024625153336E-16, -2.775557561562893816E-16, 1.000000000000000000 ) ) ;
#220000 = EDGE_CURVE ( 'NONE', #250716, #282492, #234709, .T. ) ;
#220100 = DIRECTION ( 'NONE',  ( 0.000000000000000000, -2.775557561562875081E-16, 1.000000000000000000 ) ) ;
#220116 = EDGE_CURVE ( 'NONE', #72807, #6854, #5429, .T. ) ;
#220165 = CARTESIAN_POINT ( 'NONE',  ( -0.01905587193407798710, 0.3497273835523393437, 3.218781998104760511 ) ) ;
#220626 = EDGE_CURVE ( 'NONE', #282492, #242021, #192332, .T. ) ;
#221222 = CARTESIAN_POINT ( 'NONE',  ( -0.08810286030895347897, -0.3499999944945710872, 3.118048914902764146 ) ) ;
#223733 = EDGE_CURVE ( 'NONE', #250716, #37386, #272609, .T. ) ;
#224112 = ADVANCED_FACE ( 'NONE', ( #95794 ), #264128, .F. ) ;
#234265 = EDGE_CURVE ( 'NONE', #242021, #72807, #26485, .T. ) ;
#234582 = CARTESIAN_POINT ( 'NONE',  ( -34.92500000000076454, 0.3499999999995451194, 5.889609494694872716 ) ) ;
#234645 = ADVANCED_FACE ( 'NONE', ( #148025 ), #127763, .T. ) ;
#234709 = LINE ( 'NONE', #116220, #301080 ) ;
#235060 = EDGE_CURVE ( 'NONE', #115636, #160144, #141281, .T. ) ;
#236122 = CARTESIAN_POINT ( 'NONE',  ( -1.352218700638666560, -0.3497725051254630402, 3.167129884045337462 ) ) ;
#237518 = CARTESIAN_POINT ( 'NONE',  ( -1.342768446973092722, 0.3497884502166295206, 3.150098084228216244 ) ) ;
#237752 = EDGE_LOOP ( 'NONE', ( #16597, #50304, #8649, #94931 ) ) ;
#238482 = CARTESIAN_POINT ( 'NONE',  ( -0.2640077385084897976, -0.3500000000003564149, 3.029851481508581745 ) ) ;
#238771 = EDGE_LOOP ( 'NONE', ( #30007, #147048, #201340, #306740 ) ) ;
#240315 = ORIENTED_EDGE ( 'NONE', *, *, #28442, .T. ) ;
#242021 = VERTEX_POINT ( 'NONE', #289262 ) ;
#242168 = CARTESIAN_POINT ( 'NONE',  ( -1.228752264102903835, 0.3499355701303347721, 3.058364065008620347 ) ) ;
#242768 = DIRECTION ( 'NONE',  ( 1.000000000000000000, 2.220446049250308150E-16, 1.110223024625154075E-16 ) ) ;
#243117 = CARTESIAN_POINT ( 'NONE',  ( -0.09506260608857537708, -0.3499983163690916776, 3.111268907730235789 ) ) ;
#243565 = CARTESIAN_POINT ( 'NONE',  ( -5.551115123125782702E-13, 0.3499999999993508304, 3.331666249791559231 ) ) ;
#247242 = ORIENTED_EDGE ( 'NONE', *, *, #277001, .F. ) ;
#247350 = CARTESIAN_POINT ( 'NONE',  ( -1.100000000000100897, -1.249000902703301108E-13, -2.775557561562891351E-14 ) ) ;
#247718 = AXIS2_PLACEMENT_3D ( 'NONE', #164380, #140991, #306182 ) ;
#247728 = DIRECTION ( 'NONE',  ( 1.000000000000000000, -3.885780586188040989E-16, 1.110223024625156787E-16 ) ) ;
#250177 = CARTESIAN_POINT ( 'NONE',  ( 0.000000000000000000, 0.000000000000000000, 0.000000000000000000 ) ) ;
#250594 = AXIS2_PLACEMENT_3D ( 'NONE', #18911, #114010, #140471 ) ;
#250716 = VERTEX_POINT ( 'NONE', #105166 ) ;
#254166 = B_SPLINE_CURVE_WITH_KNOTS ( 'NONE', 3,
 ( #147927, #238482, #24930, #193240, #123058, #269562, #191719, #4604, #243117, #29504, #221222, #120005, #54434, #76338, #291334, #286751 ),
 .UNSPECIFIED., .F., .F.,
 ( 4, 2, 2, 1, 1, 2, 2, 2, 4 ),
 ( 0.000000000000000000, 0.2500000000000011657, 0.3750000000000022760, 0.4375000000000034972, 0.4687500000000048850, 0.4843750000000056621, 0.5000000000000063283, 0.7500000000000031086, 1.000000000000000000 ),
 .UNSPECIFIED. ) ;
#256514 = CARTESIAN_POINT ( 'NONE',  ( -1.313829870753674856, -0.3499991550874061441, 3.120006912072013527 ) ) ;
#258047 = CARTESIAN_POINT ( 'NONE',  ( -1.252114137249267678, -0.3500004737586513981, 3.057723474890326809 ) ) ;
#260967 = CARTESIAN_POINT ( 'NONE',  ( -1.305011495052472270, 0.3499983123215988923, 3.111338661091735514 ) ) ;
#262081 = EDGE_CURVE ( 'NONE', #15919, #6854, #138318, .T. ) ;
#262197 = DIRECTION ( 'NONE',  ( 3.554761221263931756E-16, -2.775557561562875081E-16, 1.000000000000000000 ) ) ;
#262942 = CARTESIAN_POINT ( 'NONE',  ( -1.400000000000622968, 0.3499999999994479749, 5.889609494694900249 ) ) ;
#263530 = DIRECTION ( 'NONE',  ( -1.000000000000000000, -2.220446049250308150E-16, -1.110223024625154075E-16 ) ) ;
#264128 = PLANE ( 'NONE',  #247718 ) ;
#265958 = ORIENTED_EDGE ( 'NONE', *, *, #235060, .F. ) ;
#266068 = ORIENTED_EDGE ( 'NONE', *, *, #290576, .T. ) ;
#266837 = CARTESIAN_POINT ( 'NONE',  ( -34.92500000000053717, -4.440892098500626162E-13, 2.498001805406602216E-13 ) ) ;
#267245 = AXIS2_PLACEMENT_3D ( 'NONE', #250177, #158073, #179939 ) ;
#267692 = ORIENTED_EDGE ( 'NONE', *, *, #122514, .F. ) ;
#269562 = CARTESIAN_POINT ( 'NONE',  ( -0.1275081182189096440, -0.3499708746314804109, 3.084543422810341440 ) ) ;
#269953 = CYLINDRICAL_SURFACE ( 'NONE', #44666, 3.050000000000014921 ) ;
#270718 = DIRECTION ( 'NONE',  ( -1.000000000000000000, -2.220446049250308150E-16, -1.110223024625154075E-16 ) ) ;
#270844 = EDGE_CURVE ( 'NONE', #71257, #160144, #144939, .T. ) ;
#272609 = CIRCLE ( 'NONE', #153036, 5.900000000000028777 ) ;
#272710 = AXIS2_PLACEMENT_3D ( 'NONE', #140610, #70530, #262197 ) ;
#274435 = CARTESIAN_POINT ( 'NONE',  ( -1.100000000000600497, -0.3500000000005165646, 3.029851481508305522 ) ) ;
#274498 = SHAPE_REPRESENTATION ( '\X2\04280430043904310430\X0\ \X2\043f0440044304360438043d043d0430044f\X0\ \X2\041c\X0\6 DIN128', ( #267245 ), #4201 ) ;
#277001 = EDGE_CURVE ( 'NONE', #96820, #37386, #197793, .T. ) ;
#279816 = CARTESIAN_POINT ( 'NONE',  ( -1.400000000000678479, 0.3499999999997255307, 6.017999999999856797 ) ) ;
#281061 = PRODUCT_DEFINITION_FORMATION_WITH_SPECIFIED_SOURCE ( 'ANY', '', #47087, .NOT_KNOWN. ) ;
#281344 = CARTESIAN_POINT ( 'NONE',  ( -1.400000000000345413, -0.3500000000006275869, 3.331666249790949053 ) ) ;
#282492 = VERTEX_POINT ( 'NONE', #193201 ) ;
#282954 = DIRECTION ( 'NONE',  ( -3.885780586188029156E-16, 2.775557561562877546E-16, -1.000000000000000000 ) ) ;
#284413 = CARTESIAN_POINT ( 'NONE',  ( -1.100000000000600497, -0.3500000000005165646, 3.029851481508305522 ) ) ;
#285789 = CARTESIAN_POINT ( 'NONE',  ( -1.311973615120781034, 0.3499999944231070304, 3.118125731843400139 ) ) ;
#286751 = CARTESIAN_POINT ( 'NONE',  ( -7.216449660063517513E-13, -0.3500000000004055423, 3.331666249791101375 ) ) ;
#286877 = PRODUCT_CONTEXT ( 'NONE', #293968, 'mechanical' ) ;
#288105 = UNCERTAINTY_MEASURE_WITH_UNIT (LENGTH_MEASURE( 1.000000000000000082E-05 ), #212311, 'distance_accuracy_value', 'NONE');
#288189 = ORIENTED_EDGE ( 'NONE', *, *, #220116, .T. ) ;
#288207 = ORIENTED_EDGE ( 'NONE', *, *, #223733, .F. ) ;
#289054 = EDGE_CURVE ( 'NONE', #160144, #37386, #35341, .T. ) ;
#289262 = CARTESIAN_POINT ( 'NONE',  ( -0.3000000000004665601, 0.3499999999994896083, 3.029851481508361033 ) ) ;
#289739 = DIRECTION ( 'NONE',  ( 3.885780586188029156E-16, -2.775557561562877546E-16, 1.000000000000000000 ) ) ;
#290411 = CARTESIAN_POINT ( 'NONE',  ( -1.380967934645901396, 0.3497280148000411759, 3.218856376944385200 ) ) ;
#290576 = EDGE_CURVE ( 'NONE', #115636, #19895, #47263, .T. ) ;
#291334 = CARTESIAN_POINT ( 'NONE',  ( -4.092939434098030611E-13, -0.3500000000003476996, 3.268507921699820962 ) ) ;
#293665 = ORIENTED_EDGE ( 'NONE', *, *, #220000, .T. ) ;
#293935 = VECTOR ( 'NONE', #242768, 1000.000000000000000 ) ;
#293968 = APPLICATION_CONTEXT ( 'automotive_design' ) ;
#301080 = VECTOR ( 'NONE', #282954, 1000.000000000000000 ) ;
#301918 = B_SPLINE_CURVE_WITH_KNOTS ( 'NONE', 3,
 ( #51959, #119047, #72320, #242168, #167352, #140889, #98756, #142436, #260967, #50441, #285789, #48843, #237518, #290411, #95682, #218751 ),
 .UNSPECIFIED., .F., .F.,
 ( 4, 2, 2, 1, 1, 2, 2, 2, 4 ),
 ( 0.000000000000000000, 0.2499999999999845679, 0.3749999999999774070, 0.4374999999999737987, 0.4687499999999712452, 0.4843749999999694134, 0.4999999999999676370, 0.7499999999999839018, 1.000000000000000000 ),
 .UNSPECIFIED. ) ;
#304704 = CARTESIAN_POINT ( 'NONE',  ( -1.400000000000100053, -0.3500000000001204925, 3.268476224564800692 ) ) ;
#305734 = ( NAMED_UNIT ( * ) PLANE_ANGLE_UNIT ( ) SI_UNIT ( $, .RADIAN. ) );
#306003 = DIRECTION ( 'NONE',  ( -3.885780586188029156E-16, 2.775557561562877546E-16, -1.000000000000000000 ) ) ;
#306182 = DIRECTION ( 'NONE',  ( 3.885780586188028663E-16, -2.775557561562877546E-16, 1.000000000000000000 ) ) ;
#306740 = ORIENTED_EDGE ( 'NONE', *, *, #28442, .F. ) ;
ENDSEC;
END-ISO-10303-21;
