ISO-10303-21;
HEADER;
FILE_DESCRIPTION (( 'STEP AP214' ),
    '1' );
FILE_NAME ('PT.SHT.01.20.00.00 —¡ ''ÿÌÂÍ 1'' (STEP 214 ““).STEP',
    '2026-09-29T05:38:28',
    ( '' ),
    ( '' ),
    'SwSTEP 2.0',
    'SolidWorks 2025',
    '' );
FILE_SCHEMA (( 'AUTOMOTIVE_DESIGN' ));
ENDSEC;

DATA;
#494 = CARTESIAN_POINT ( 'NONE',  ( -0.5748873311504962835, -0.7497143340344840645, 6.146936392668075122 ) ) ;
#546 = CARTESIAN_POINT ( 'NONE',  ( -34.92500000000031690, 0.000000000000000000, 0.000000000000000000 ) ) ;
#1778 = PLANE ( 'NONE',  #4328 ) ;
#1885 = CARTESIAN_POINT ( 'NONE',  ( -0.01617065593919881500, 0.7501405166381691636, 6.874211864346354339 ) ) ;
#2305 = ORIENTED_EDGE ( 'NONE', *, *, #116344, .T. ) ;
#3381 = CARTESIAN_POINT ( 'NONE',  ( -0.05719585046116663907, 0.7500144186973048965, 6.724428617671589947 ) ) ;
#3775 = VERTEX_POINT ( 'NONE', #158393 ) ;
#4241 = ORIENTED_EDGE ( 'NONE', *, *, #31006, .T. ) ;
#4328 = AXIS2_PLACEMENT_3D ( 'NONE', #165469, #145133, #260606 ) ;
#4368 = ORIENTED_EDGE ( 'NONE', *, *, #226654, .F. ) ;
#4940 = CARTESIAN_POINT ( 'NONE',  ( -0.03861135367731730744, 0.7500606993491940599, 6.782180693857041476 ) ) ;
#6451 = CARTESIAN_POINT ( 'NONE',  ( 0.000000000000000000, 0.7500000000000284217, 7.060276198563419925 ) ) ;
#8477 = CARTESIAN_POINT ( 'NONE',  ( 0.000000000000000000, 0.7500000000000284217, 7.060276198563419925 ) ) ;
#8858 = ORIENTED_EDGE ( 'NONE', *, *, #127365, .T. ) ;
#9057 = CIRCLE ( 'NONE', #243219, 7.100000000000000533 ) ;
#9654 = DIRECTION ( 'NONE',  ( -1.776356839400250465E-15, -5.551115123125782702E-17, 1.000000000000000000 ) ) ;
#10997 = VECTOR ( 'NONE', #251193, 1000.000000000000000 ) ;
#11505 = CARTESIAN_POINT ( 'NONE',  ( -2.961389707123390114, -0.7500606827680801336, 6.782184639746635213 ) ) ;
#11834 = DIRECTION ( 'NONE',  ( -1.000000000000000000, 8.049116928532384918E-15, 1.665334536937734811E-15 ) ) ;
#13100 = CARTESIAN_POINT ( 'NONE',  ( -2.682373329477989454, 0.7499935314418731958, 6.324462472763842769 ) ) ;
#13133 = CARTESIAN_POINT ( 'NONE',  ( -34.92500000000120508, -0.7500000000000284217, 10.52330746486152080 ) ) ;
#13741 = EDGE_CURVE ( 'NONE', #222837, #185973, #303866, .T. ) ;
#14546 = DIRECTION ( 'NONE',  ( -1.000000000000000000, 8.049116928532384918E-15, 1.665334536937734811E-15 ) ) ;
#14590 = VECTOR ( 'NONE', #108230, 1000.000000000000000 ) ;
#14631 = ( GEOMETRIC_REPRESENTATION_CONTEXT ( 3 ) GLOBAL_UNCERTAINTY_ASSIGNED_CONTEXT ( ( #85342 ) ) GLOBAL_UNIT_ASSIGNED_CONTEXT ( ( #121450, #260323, #264884 ) ) REPRESENTATION_CONTEXT ( 'NONE', 'WORKASPACE' ) );
#14634 = CARTESIAN_POINT ( 'NONE',  ( -1.999999999999779732, 0.7499999999993622879, 6.053717865907248807 ) ) ;
#15849 = ADVANCED_FACE ( 'NONE', ( #154834 ), #56755, .F. ) ;
#16069 = CARTESIAN_POINT ( 'NONE',  ( -3.000000000001445954, 1.665334536937734811E-12, 1.110223024625156540E-13 ) ) ;
#16105 = CARTESIAN_POINT ( 'NONE',  ( -2.949381558145254267, -0.7500290521664098042, 6.744016284118139914 ) ) ;
#16154 = AXIS2_PLACEMENT_3D ( 'NONE', #133035, #84754, #271827 ) ;
#16558 = ORIENTED_EDGE ( 'NONE', *, *, #59678, .T. ) ;
#16667 = DIRECTION ( 'NONE',  ( -1.776356839400250465E-15, -5.551115123125782702E-17, 1.000000000000000000 ) ) ;
#17638 = CARTESIAN_POINT ( 'NONE',  ( -2.740579235365538935, -0.7499906438663536123, 6.383888386972794038 ) ) ;
#17973 = CARTESIAN_POINT ( 'NONE',  ( 0.000000000000000000, 0.000000000000000000, 0.000000000000000000 ) ) ;
#18754 = EDGE_CURVE ( 'NONE', #215979, #229148, #140803, .T. ) ;
#20760 = DIRECTION ( 'NONE',  ( 1.665334536937734022E-15, -5.551115123128390873E-17, 1.000000000000000000 ) ) ;
#23280 = B_SPLINE_CURVE_WITH_KNOTS ( 'NONE', 3,
 ( #6451, #263747, #98488, #53216, #1885, #120321, #4940, #240347, #3381, #287075, #118786, #190504, #238822, #50169, #220036, #26754, #195150, #291653, #196659, #193581, #285528, #78185, #288625, #75158, #148241, #167094, #213936, #290140 ),
 .UNSPECIFIED., .F., .F.,
 ( 4, 2, 2, 2, 1, 1, 2, 2, 2, 2, 1, 1, 2, 2, 2, 4 ),
 ( 0.000000000000000000, 0.1250000000000124900, 0.1875000000000187350, 0.2187500000000218714, 0.2343750000000239253, 0.2421875000000249523, 0.2460937500000254519, 0.2500000000000259792, 0.3750000000000387468, 0.4375000000000451306, 0.4687500000000482947, 0.4843750000000498490, 0.4921875000000498490, 0.5000000000000498490, 0.7500000000000249800, 1.000000000000000000 ),
 .UNSPECIFIED. ) ;
#23809 = CARTESIAN_POINT ( 'NONE',  ( -2.117315628166274610, -0.7500000000000988098, 6.053717865906869555 ) ) ;
#23837 = CARTESIAN_POINT ( 'NONE',  ( -0.3176317825685960328, -0.7499935245913339488, 6.324457673497268395 ) ) ;
#26754 = CARTESIAN_POINT ( 'NONE',  ( -0.1984239754835975533, 0.7499565804226502319, 6.457815803362008111 ) ) ;
#29087 = ORIENTED_EDGE ( 'NONE', *, *, #181252, .T. ) ;
#31006 = EDGE_CURVE ( 'NONE', #222956, #185973, #44692, .T. ) ;
#31380 = B_SPLINE_CURVE_WITH_KNOTS ( 'NONE', 3,
 ( #39533, #302847, #131537, #130027, #179810, #134598, #11505, #16105, #182892, #277967, #226612, #178249, #64471, #36472, #66030, #59834, #159504, #89370, #17638, #250062, #108146, #154850, #84768, #156395, #112745, #251598, #23809, #282569 ),
 .UNSPECIFIED., .F., .F.,
 ( 4, 2, 2, 2, 1, 1, 2, 2, 2, 2, 1, 1, 2, 2, 2, 4 ),
 ( 0.000000000000000000, 0.1250000000000049405, 0.1875000000000074107, 0.2187500000000085765, 0.2343750000000096589, 0.2421875000000101863, 0.2460937500000108802, 0.2500000000000116018, 0.3750000000000241474, 0.4375000000000297540, 0.4687500000000315303, 0.4843750000000320299, 0.4921875000000314748, 0.5000000000000309752, 0.7500000000000155431, 1.000000000000000000 ),
 .UNSPECIFIED. ) ;
#31521 = FACE_OUTER_BOUND ( 'NONE', #153589, .T. ) ;
#31810 = DIRECTION ( 'NONE',  ( -1.776356839400250465E-15, -5.551115123125782702E-17, 1.000000000000000000 ) ) ;
#34110 = TOROIDAL_SURFACE ( 'NONE', #63956, 7.100000000000000533, 1.000000000000000000 ) ;
#34384 = CARTESIAN_POINT ( 'NONE',  ( -8.881784197001252323E-13, -0.7499999999996953548, 10.52330746486129698 ) ) ;
#36472 = CARTESIAN_POINT ( 'NONE',  ( -2.894002419714285068, -0.7500000574222758232, 6.602428751918101746 ) ) ;
#39411 = EDGE_CURVE ( 'NONE', #301116, #133683, #112774, .T. ) ;
#39533 = CARTESIAN_POINT ( 'NONE',  ( -2.999999999999669598, -0.7499999999986961541, 7.060276198564086059 ) ) ;
#44001 = ADVANCED_FACE ( 'NONE', ( #218553 ), #268375, .T. ) ;
#44692 = LINE ( 'NONE', #93015, #231609 ) ;
#46677 = CARTESIAN_POINT ( 'NONE',  ( 0.000000000000000000, -0.7499999999998063771, 7.060276198562864813 ) ) ;
#47048 = CARTESIAN_POINT ( 'NONE',  ( -1.000000000001222134, 3.330669073875469621E-13, 3.330669073875469621E-13 ) ) ;
#47827 = DIRECTION ( 'NONE',  ( -1.000000000000000000, 8.049116928532384918E-15, 1.665334536937734811E-15 ) ) ;
#48285 = DIRECTION ( 'NONE',  ( 1.776356839400250465E-15, 5.551115123125782702E-17, -1.000000000000000000 ) ) ;
#48698 = CARTESIAN_POINT ( 'NONE',  ( -1.000000000000778044, 0.7499999999998063771, 6.053717865906582674 ) ) ;
#48764 = CYLINDRICAL_SURFACE ( 'NONE', #237078, 10.55000000000000071 ) ;
#49792 = ADVANCED_BREP_SHAPE_REPRESENTATION ( '', ( #294931, #267245 ), #14631 ) ;
#50169 = CARTESIAN_POINT ( 'NONE',  ( -0.1060054671929342718, 0.7500000579356408403, 6.602412586806036821 ) ) ;
#51816 = ORIENTED_EDGE ( 'NONE', *, *, #212051, .T. ) ;
#53216 = CARTESIAN_POINT ( 'NONE',  ( -0.01016931600679280706, 0.7501541310396554474, 6.913482622794243859 ) ) ;
#53937 = EDGE_CURVE ( 'NONE', #191882, #208127, #9057, .T. ) ;
#54368 = SHAPE_REPRESENTATION_RELATIONSHIP ( 'NONE' , 'NONE' ,  #102060, #49792 ) ;
#55207 = CARTESIAN_POINT ( 'NONE',  ( 0.000000000000000000, 0.000000000000000000, 0.000000000000000000 ) ) ;
#56644 = CIRCLE ( 'NONE', #116279, 10.55000000000000071 ) ;
#56755 = CYLINDRICAL_SURFACE ( 'NONE', #16154, 6.100000000000000533 ) ;
#59678 = EDGE_CURVE ( 'NONE', #3775, #243094, #56644, .T. ) ;
#59834 = CARTESIAN_POINT ( 'NONE',  ( -2.801591366936175831, -0.7499565864057882170, 6.457836564942868840 ) ) ;
#62086 = ADVANCED_FACE ( 'NONE', ( #117450 ), #48764, .T. ) ;
#62935 = DIRECTION ( 'NONE',  ( -1.000000000000000000, 8.049116928532384918E-15, 1.665334536937734811E-15 ) ) ;
#62983 = CARTESIAN_POINT ( 'NONE',  ( -2.600857277712608884, 0.7499100512844438793, 6.255068021861110772 ) ) ;
#63739 = CARTESIAN_POINT ( 'NONE',  ( 0.000000000000000000, 7.099999999999995204, 1.110223024625156540E-13 ) ) ;
#63956 = AXIS2_PLACEMENT_3D ( 'NONE', #302801, #209402, #279492 ) ;
#64471 = CARTESIAN_POINT ( 'NONE',  ( -2.925388572852244629, -0.7499999982056601011, 6.678994307392781771 ) ) ;
#66030 = CARTESIAN_POINT ( 'NONE',  ( -2.857622205849469577, -0.7499537812023210348, 6.538725619888763774 ) ) ;
#66224 = EDGE_CURVE ( 'NONE', #229148, #301116, #283057, .T. ) ;
#68402 = CARTESIAN_POINT ( 'NONE',  ( -1.999999999999779732, 0.7499999999993622879, 6.053717865907248807 ) ) ;
#70830 = ORIENTED_EDGE ( 'NONE', *, *, #116344, .F. ) ;
#72811 = ORIENTED_EDGE ( 'NONE', *, *, #226654, .T. ) ;
#73245 = ORIENTED_EDGE ( 'NONE', *, *, #203302, .T. ) ;
#73916 = PRODUCT_DEFINITION ( 'UNKNOWN', '', #171588, #81886 ) ;
#74193 = AXIS2_PLACEMENT_3D ( 'NONE', #47048, #218456, #121791 ) ;
#74343 = DIRECTION ( 'NONE',  ( 1.000000000000000000, 8.104628079764578334E-15, -1.665334536937735008E-15 ) ) ;
#75158 = CARTESIAN_POINT ( 'NONE',  ( -0.3937493325046251824, 0.7500004610596294752, 6.246719996765404126 ) ) ;
#76036 = AXIS2_PLACEMENT_3D ( 'NONE', #166331, #47827, #99261 ) ;
#76805 = CARTESIAN_POINT ( 'NONE',  ( -0.3991475739579964932, -0.7499100328230273727, 6.255064368526449314 ) ) ;
#78185 = CARTESIAN_POINT ( 'NONE',  ( -0.2867878365731677537, 0.7499997795786951249, 6.354940496047172260 ) ) ;
#80286 = CARTESIAN_POINT ( 'NONE',  ( -34.92500000000120508, 0.7499999999995843325, 10.52330746486240898 ) ) ;
#81587 = ORIENTED_EDGE ( 'NONE', *, *, #13741, .F. ) ;
#81886 = PRODUCT_DEFINITION_CONTEXT ( 'detailed design', #236184, 'design' ) ;
#82304 = CARTESIAN_POINT ( 'NONE',  ( -2.999999999999669598, -0.7499999999994733102, 10.52330746486140889 ) ) ;
#83548 = ADVANCED_FACE ( 'NONE', ( #210919 ), #34110, .T. ) ;
#84754 = DIRECTION ( 'NONE',  ( -1.000000000000000000, 8.049116928532384918E-15, 1.665334536937734811E-15 ) ) ;
#84768 = CARTESIAN_POINT ( 'NONE',  ( -2.711948486713941175, -0.7499999857192245489, 6.353640825310143292 ) ) ;
#84815 = CARTESIAN_POINT ( 'NONE',  ( -2.117223557683271196, 0.7499999999998903100, 6.053717865906866002 ) ) ;
#85342 = UNCERTAINTY_MEASURE_WITH_UNIT (LENGTH_MEASURE( 1.000000000000000082E-05 ), #121450, 'distance_accuracy_value', 'NONE');
#89370 = CARTESIAN_POINT ( 'NONE',  ( -2.754550368416118111, -0.7499820343025612734, 6.399802812031704313 ) ) ;
#90713 = CARTESIAN_POINT ( 'NONE',  ( -3.000000000001445954, 1.665334536937734811E-12, 1.110223024625156540E-13 ) ) ;
#93015 = CARTESIAN_POINT ( 'NONE',  ( -3.000000000000113687, -0.7499999999988071764, -9.992007221626408864E-13 ) ) ;
#95159 = ORIENTED_EDGE ( 'NONE', *, *, #53937, .F. ) ;
#97037 = ORIENTED_EDGE ( 'NONE', *, *, #66224, .T. ) ;
#97084 = CARTESIAN_POINT ( 'NONE',  ( -0.1073041479758819611, -0.7500013863752926779, 6.536230823603852436 ) ) ;
#97738 = ORIENTED_EDGE ( 'NONE', *, *, #127365, .F. ) ;
#98488 = CARTESIAN_POINT ( 'NONE',  ( 0.0009369603226229071503, 0.7501148362743597087, 7.011232632691926980 ) ) ;
#99230 = CARTESIAN_POINT ( 'NONE',  ( -2.999999999999669598, 10.55000000000005933, 9.992007221626408864E-13 ) ) ;
#99261 = DIRECTION ( 'NONE',  ( -1.777380610631974210E-15, -5.551115123125777155E-17, 1.000000000000000000 ) ) ;
#100218 = VECTOR ( 'NONE', #219045, 1000.000000000000000 ) ;
#102060 = SHAPE_REPRESENTATION ( '\X2\04280430043904310430\X0\ \X2\043f0440044304360438043d043d0430044f\X0\ \X2\041c\X0\12 DIN 128', ( #267245 ), #14631 ) ;
#102091 = LINE ( 'NONE', #80286, #100218 ) ;
#105607 = EDGE_CURVE ( 'NONE', #185973, #243094, #226691, .T. ) ;
#106913 = DIRECTION ( 'NONE',  ( -1.776356839400250465E-15, -5.551115123125782702E-17, 1.000000000000000000 ) ) ;
#108146 = CARTESIAN_POINT ( 'NONE',  ( -2.717750671531407924, -0.7499990222666521600, 6.359620788555730542 ) ) ;
#108193 = CARTESIAN_POINT ( 'NONE',  ( -3.000000000000113687, 0.7500000000000284217, 7.060276198563419925 ) ) ;
#108230 = DIRECTION ( 'NONE',  ( 1.000000000000000000, -8.049116928532384918E-15, -1.665334536937734811E-15 ) ) ;
#112017 = PLANE ( 'NONE',  #234871 ) ;
#112745 = CARTESIAN_POINT ( 'NONE',  ( -2.486584397836719251, -0.7497102123293155618, 6.171186934489196751 ) ) ;
#112774 = LINE ( 'NONE', #232797, #161722 ) ;
#116279 = AXIS2_PLACEMENT_3D ( 'NONE', #17973, #11834, #106913 ) ;
#116344 = EDGE_CURVE ( 'NONE', #208127, #243094, #283087, .T. ) ;
#117351 = EDGE_LOOP ( 'NONE', ( #281254, #70830, #196897, #268451, #181623, #4241 ) ) ;
#117401 = CARTESIAN_POINT ( 'NONE',  ( -0.9999999999998898659, -0.7499999999995843325, 6.053717865906693696 ) ) ;
#117450 = FACE_OUTER_BOUND ( 'NONE', #141632, .T. ) ;
#118786 = CARTESIAN_POINT ( 'NONE',  ( -0.07000548199541065109, 0.7500014217070354317, 6.690501982687428573 ) ) ;
#118919 = CARTESIAN_POINT ( 'NONE',  ( -1.239768243578229638E-12, -0.7535116867238590421, 6.797181849229888329 ) ) ;
#119774 = ORIENTED_EDGE ( 'NONE', *, *, #181252, .F. ) ;
#120321 = CARTESIAN_POINT ( 'NONE',  ( -0.03212374850401664150, 0.7500845244813969526, 6.806305903946053171 ) ) ;
#121037 = PLANE ( 'NONE',  #209714 ) ;
#121450 = ( LENGTH_UNIT ( ) NAMED_UNIT ( * ) SI_UNIT ( .MILLI., .METRE. ) );
#121791 = DIRECTION ( 'NONE',  ( -1.777380610631974210E-15, -5.551115123125777155E-17, 1.000000000000000000 ) ) ;
#123525 = CARTESIAN_POINT ( 'NONE',  ( -0.7581425871966971375, -0.7497272847073654933, 6.074775639824864903 ) ) ;
#127365 = EDGE_CURVE ( 'NONE', #3775, #191882, #252748, .T. ) ;
#127689 = CLOSED_SHELL ( 'NONE', ( #265465, #44001, #197682, #83548, #15849, #142397, #271966, #62086 ) ) ;
#127855 = ORIENTED_EDGE ( 'NONE', *, *, #271769, .T. ) ;
#129703 = AXIS2_PLACEMENT_3D ( 'NONE', #16069, #14546, #301293 ) ;
#130027 = CARTESIAN_POINT ( 'NONE',  ( -2.989829782767266853, -0.7501540939600589430, 6.913476751958854472 ) ) ;
#131537 = CARTESIAN_POINT ( 'NONE',  ( -3.000936336596531362, -0.7501148140375614171, 7.011223032751306761 ) ) ;
#131589 = CARTESIAN_POINT ( 'NONE',  ( -2.425116500991153501, 0.7497143507189499845, 6.146938154787554787 ) ) ;
#133035 = CARTESIAN_POINT ( 'NONE',  ( -34.92500000000031690, 0.000000000000000000, 0.000000000000000000 ) ) ;
#133096 = CARTESIAN_POINT ( 'NONE',  ( -2.696730235595780734, 0.7499999167390470900, 6.338261971811905759 ) ) ;
#133683 = VERTEX_POINT ( 'NONE', #280804 ) ;
#134598 = CARTESIAN_POINT ( 'NONE',  ( -2.967876702188344318, -0.7500845017292114836, 6.806307811327208412 ) ) ;
#137429 = EDGE_LOOP ( 'NONE', ( #95159, #72811, #97037, #127855 ) ) ;
#137702 = DIRECTION ( 'NONE',  ( -1.000000000000000000, 8.049116928532384918E-15, 1.665334536937734811E-15 ) ) ;
#138798 = LINE ( 'NONE', #166790, #245915 ) ;
#139289 = CARTESIAN_POINT ( 'NONE',  ( -34.92500000000031690, 0.7499999999991402433, 6.053717865907914941 ) ) ;
#139364 = EDGE_LOOP ( 'NONE', ( #119774, #157777, #236839, #166066 ) ) ;
#139648 = AXIS2_PLACEMENT_3D ( 'NONE', #90713, #142104, #254537 ) ;
#140227 = ORIENTED_EDGE ( 'NONE', *, *, #66224, .F. ) ;
#140803 = LINE ( 'NONE', #139289, #237121 ) ;
#141632 = EDGE_LOOP ( 'NONE', ( #296968, #16558, #248759, #81587 ) ) ;
#142104 = DIRECTION ( 'NONE',  ( -1.000000000000000000, 8.049116928532384918E-15, 1.665334536937734811E-15 ) ) ;
#142397 = ADVANCED_FACE ( 'NONE', ( #164116 ), #215447, .T. ) ;
#145133 = DIRECTION ( 'NONE',  ( 8.104628079764578334E-15, -1.000000000000000000, -5.551115123124343031E-17 ) ) ;
#146864 = CARTESIAN_POINT ( 'NONE',  ( -0.3032751105528969093, -0.7499999133512164073, 6.338256741296396157 ) ) ;
#147713 = CARTESIAN_POINT ( 'NONE',  ( -3.000000000000113687, 0.7500000000000284217, 7.060276198563419925 ) ) ;
#148241 = CARTESIAN_POINT ( 'NONE',  ( -0.5134329792737419851, 0.7497102693093925518, 6.171178115347790261 ) ) ;
#148267 = APPLICATION_CONTEXT ( 'automotive_design' ) ;
#153589 = EDGE_LOOP ( 'NONE', ( #8858, #235020, #2305, #264380 ) ) ;
#153925 = ORIENTED_EDGE ( 'NONE', *, *, #18754, .F. ) ;
#154834 = FACE_OUTER_BOUND ( 'NONE', #226188, .T. ) ;
#154850 = CARTESIAN_POINT ( 'NONE',  ( -2.713235203570398379, -0.7499997797761930318, 6.354964103365837502 ) ) ;
#156299 = PRODUCT ( '\X2\04280430043904310430\X0\ \X2\043f0440044304360438043d043d0430044f\X0\ \X2\041c\X0\12 DIN 128', '\X2\04280430043904310430\X0\ \X2\043f0440044304360438043d043d0430044f\X0\ \X2\041c\X0\12 DIN 128', '', ( #207630 ) ) ;
#156395 = CARTESIAN_POINT ( 'NONE',  ( -2.606272319274686389, -0.7500004569884775041, 6.246735013770070566 ) ) ;
#157777 = ORIENTED_EDGE ( 'NONE', *, *, #13741, .T. ) ;
#158006 = CARTESIAN_POINT ( 'NONE',  ( -2.892697936917807855, 0.7500013321734716465, 6.536235654971071618 ) ) ;
#158073 = DIRECTION ( 'NONE',  ( 0.000000000000000000, 0.000000000000000000, 1.000000000000000000 ) ) ;
#158393 = CARTESIAN_POINT ( 'NONE',  ( 0.000000000000000000, 0.7499999999999173994, 10.52330746486107671 ) ) ;
#159504 = CARTESIAN_POINT ( 'NONE',  ( -2.782647512704170989, -0.7499656994610912619, 6.433292568569596526 ) ) ;
#161722 = VECTOR ( 'NONE', #137702, 1000.000000000000000 ) ;
#164116 = FACE_OUTER_BOUND ( 'NONE', #137429, .T. ) ;
#164558 = VECTOR ( 'NONE', #214549, 1000.000000000000000 ) ;
#165469 = CARTESIAN_POINT ( 'NONE',  ( -3.000000000001001865, 0.7500000000009166001, 10.76100000000090873 ) ) ;
#166066 = ORIENTED_EDGE ( 'NONE', *, *, #242627, .F. ) ;
#166331 = CARTESIAN_POINT ( 'NONE',  ( -1.999999999999779732, -1.110223024625156540E-13, 0.000000000000000000 ) ) ;
#166790 = CARTESIAN_POINT ( 'NONE',  ( -2.999999999999669598, 0.7500000000008055778, 7.771561172376095783E-13 ) ) ;
#167094 = CARTESIAN_POINT ( 'NONE',  ( -0.7579513715975934041, 0.7497269790399057054, 6.074808303095058371 ) ) ;
#169372 = DIRECTION ( 'NONE',  ( -8.104628079764578334E-15, 1.000000000000000000, 0.000000000000000000 ) ) ;
#171187 = ORIENTED_EDGE ( 'NONE', *, *, #244358, .F. ) ;
#171588 = PRODUCT_DEFINITION_FORMATION_WITH_SPECIFIED_SOURCE ( 'ANY', '', #156299, .NOT_KNOWN. ) ;
#171749 = DIRECTION ( 'NONE',  ( 8.049116928532384918E-15, 1.000000000000000000, -2.690138946320246864E-29 ) ) ;
#173411 = ORIENTED_EDGE ( 'NONE', *, *, #18754, .T. ) ;
#174836 = DIRECTION ( 'NONE',  ( 1.000000000000000000, -8.049116928532384918E-15, -1.665334536937734811E-15 ) ) ;
#176321 = CARTESIAN_POINT ( 'NONE',  ( -8.881784197001252323E-13, 0.7500000000000284217, 10.76100000000002055 ) ) ;
#176327 = CARTESIAN_POINT ( 'NONE',  ( -3.000000000000113687, -0.7499999999988071764, -9.992007221626408864E-13 ) ) ;
#178249 = CARTESIAN_POINT ( 'NONE',  ( -2.927262035139270413, -0.7500002969213005466, 6.683619926343090434 ) ) ;
#178881 = CARTESIAN_POINT ( 'NONE',  ( -0.9999999999998898659, -0.7499999999995843325, 6.053717865906693696 ) ) ;
#179313 = CARTESIAN_POINT ( 'NONE',  ( -3.000000000000113687, 0.7500000000004725109, 10.52330746486185298 ) ) ;
#179810 = CARTESIAN_POINT ( 'NONE',  ( -2.983828536280765498, -0.7501404806174245543, 6.874208456998811556 ) ) ;
#179939 = DIRECTION ( 'NONE',  ( 1.000000000000000000, 0.000000000000000000, 0.000000000000000000 ) ) ;
#181252 = EDGE_CURVE ( 'NONE', #222837, #221945, #138798, .T. ) ;
#181623 = ORIENTED_EDGE ( 'NONE', *, *, #203302, .F. ) ;
#182892 = CARTESIAN_POINT ( 'NONE',  ( -2.942807321779810525, -0.7500144147563452268, 6.724437733731475575 ) ) ;
#183994 = AXIS2_PLACEMENT_3D ( 'NONE', #176327, #171749, #174836 ) ;
#185973 = VERTEX_POINT ( 'NONE', #82304 ) ;
#190504 = CARTESIAN_POINT ( 'NONE',  ( -0.07274315247601986778, 0.7500002969642410866, 6.683606995432621822 ) ) ;
#190636 = CARTESIAN_POINT ( 'NONE',  ( -0.3442713723195819919, -0.7499728919837538310, 6.300310397260958872 ) ) ;
#191882 = VERTEX_POINT ( 'NONE', #8477 ) ;
#192159 = CARTESIAN_POINT ( 'NONE',  ( -0.4275325640693540263, -0.7498701785425352373, 6.234410951397890699 ) ) ;
#193581 = CARTESIAN_POINT ( 'NONE',  ( -0.2754723933704723016, 0.7499973789411212843, 6.366676812090046766 ) ) ;
#195150 = CARTESIAN_POINT ( 'NONE',  ( -0.2173694205180311256, 0.7499656943213456328, 6.433271087008434641 ) ) ;
#195428 = AXIS2_PLACEMENT_3D ( 'NONE', #234335, #62935, #20760 ) ;
#196659 = CARTESIAN_POINT ( 'NONE',  ( -0.2594413442823778060, 0.7499906418499773242, 6.383865532562801981 ) ) ;
#196833 = ORIENTED_EDGE ( 'NONE', *, *, #244358, .T. ) ;
#196897 = ORIENTED_EDGE ( 'NONE', *, *, #271769, .F. ) ;
#197682 = ADVANCED_FACE ( 'NONE', ( #287789 ), #121037, .F. ) ;
#198268 = B_SPLINE_CURVE_WITH_KNOTS ( 'NONE', 3,
 ( #14634, #84815, #251645, #131589, #206447, #254764, #62983, #226662, #229746, #13100, #133096, #158006, #228187, #108193 ),
 .UNSPECIFIED., .F., .F.,
 ( 4, 2, 2, 2, 2, 2, 4 ),
 ( 0.000000000000000000, 0.2500000000000006661, 0.3750000000000010547, 0.4375000000000012768, 0.4687500000000013878, 0.5000000000000014433, 1.000000000000000000 ),
 .UNSPECIFIED. ) ;
#203302 = EDGE_CURVE ( 'NONE', #222956, #133683, #31380, .T. ) ;
#205347 = CIRCLE ( 'NONE', #76036, 6.100000000000000533 ) ;
#205645 = DIRECTION ( 'NONE',  ( -1.000000000000000000, 8.049116928532384918E-15, -1.776356839400250070E-15 ) ) ;
#206447 = CARTESIAN_POINT ( 'NONE',  ( -2.485500780417805977, 0.7497634909967307859, 6.177709378601041301 ) ) ;
#207630 = PRODUCT_CONTEXT ( 'NONE', #148267, 'mechanical' ) ;
#208127 = VERTEX_POINT ( 'NONE', #46677 ) ;
#209402 = DIRECTION ( 'NONE',  ( -1.000000000000000000, 8.049116928532384918E-15, 1.665334536937734811E-15 ) ) ;
#209714 = AXIS2_PLACEMENT_3D ( 'NONE', #99230, #74343, #169372 ) ;
#210919 = FACE_OUTER_BOUND ( 'NONE', #238337, .T. ) ;
#212051 = EDGE_CURVE ( 'NONE', #215979, #221945, #198268, .T. ) ;
#213936 = CARTESIAN_POINT ( 'NONE',  ( -0.8826880512849362148, 0.7500000000003328449, 6.053717865907200846 ) ) ;
#214549 = DIRECTION ( 'NONE',  ( -1.776356839400250465E-15, -5.551115123125782702E-17, 1.000000000000000000 ) ) ;
#215447 = TOROIDAL_SURFACE ( 'NONE', #195428, 7.100000000000000533, 1.000000000000000000 ) ;
#215979 = VERTEX_POINT ( 'NONE', #68402 ) ;
#218456 = DIRECTION ( 'NONE',  ( -1.000000000000000000, 8.049116928532384918E-15, 1.665334536937734811E-15 ) ) ;
#218553 = FACE_OUTER_BOUND ( 'NONE', #117351, .T. ) ;
#219045 = DIRECTION ( 'NONE',  ( -1.000000000000000000, 8.049116928532384918E-15, 1.665334536937734811E-15 ) ) ;
#220036 = CARTESIAN_POINT ( 'NONE',  ( -0.1423885320904043628, 0.7499537757181937714, 6.538707346756246430 ) ) ;
#220373 = B_SPLINE_CURVE_WITH_KNOTS ( 'NONE', 3,
 ( #117401, #287206, #123525, #494, #237389, #192159, #76805, #285654, #190636, #23837, #146864, #97084, #118919, #235850 ),
 .UNSPECIFIED., .F., .F.,
 ( 4, 2, 2, 2, 2, 2, 4 ),
 ( 0.000000000000000000, 0.2499999999999984457, 0.3749999999999973910, 0.4374999999999972244, 0.4687499999999971689, 0.4999999999999971134, 1.000000000000000000 ),
 .UNSPECIFIED. ) ;
#221945 = VERTEX_POINT ( 'NONE', #147713 ) ;
#222837 = VERTEX_POINT ( 'NONE', #179313 ) ;
#222956 = VERTEX_POINT ( 'NONE', #285121 ) ;
#222993 = ORIENTED_EDGE ( 'NONE', *, *, #230728, .T. ) ;
#226188 = EDGE_LOOP ( 'NONE', ( #153925, #196833, #240560, #140227 ) ) ;
#226612 = CARTESIAN_POINT ( 'NONE',  ( -2.929999340704892763, -0.7500014213744277125, 6.690514264347807938 ) ) ;
#226654 = EDGE_CURVE ( 'NONE', #191882, #229148, #23280, .T. ) ;
#226662 = CARTESIAN_POINT ( 'NONE',  ( -2.642172538145977523, 0.7499586521156088592, 6.288675147629334994 ) ) ;
#226691 = LINE ( 'NONE', #13133, #14590 ) ;
#228187 = CARTESIAN_POINT ( 'NONE',  ( -2.999999999999787281, 0.7535115224121985422, 6.797184313690295632 ) ) ;
#229148 = VERTEX_POINT ( 'NONE', #48698 ) ;
#229349 = CIRCLE ( 'NONE', #139648, 7.100000000000000533 ) ;
#229418 = SHAPE_DEFINITION_REPRESENTATION ( #293050, #102060 ) ;
#229746 = CARTESIAN_POINT ( 'NONE',  ( -2.655733671810363461, 0.7499729038976675755, 6.300314802757908339 ) ) ;
#230728 = EDGE_CURVE ( 'NONE', #3775, #222837, #102091, .T. ) ;
#231307 = DIRECTION ( 'NONE',  ( 1.000000000000000000, -8.049116928532384918E-15, -1.665334536937734811E-15 ) ) ;
#231609 = VECTOR ( 'NONE', #16667, 1000.000000000000000 ) ;
#232797 = CARTESIAN_POINT ( 'NONE',  ( -34.92499999999986926, -0.7500000000004725109, 6.053717865907248807 ) ) ;
#234335 = CARTESIAN_POINT ( 'NONE',  ( -1.000000000001222134, 3.330669073875469621E-13, 3.330669073875469621E-13 ) ) ;
#234871 = AXIS2_PLACEMENT_3D ( 'NONE', #63739, #205645, #9654 ) ;
#235020 = ORIENTED_EDGE ( 'NONE', *, *, #53937, .T. ) ;
#235850 = CARTESIAN_POINT ( 'NONE',  ( 0.000000000000000000, -0.7499999999998063771, 7.060276198562864813 ) ) ;
#236184 = APPLICATION_CONTEXT ( 'automotive_design' ) ;
#236839 = ORIENTED_EDGE ( 'NONE', *, *, #31006, .F. ) ;
#237078 = AXIS2_PLACEMENT_3D ( 'NONE', #546, #287261, #265441 ) ;
#237121 = VECTOR ( 'NONE', #231307, 1000.000000000000000 ) ;
#237156 = FACE_OUTER_BOUND ( 'NONE', #286306, .T. ) ;
#237389 = CARTESIAN_POINT ( 'NONE',  ( -0.5145034692434238277, -0.7497634706673078631, 6.177707060042733289 ) ) ;
#237868 = CARTESIAN_POINT ( 'NONE',  ( 0.000000000000000000, -0.7499999999998063771, 0.000000000000000000 ) ) ;
#238337 = EDGE_LOOP ( 'NONE', ( #171187, #51816, #293061, #73245 ) ) ;
#238822 = CARTESIAN_POINT ( 'NONE',  ( -0.07461692471140886351, 0.7499999981898470836, 6.678980800463431677 ) ) ;
#240347 = CARTESIAN_POINT ( 'NONE',  ( -0.05062083977830236087, 0.7500290601718124783, 6.744008946719478814 ) ) ;
#240560 = ORIENTED_EDGE ( 'NONE', *, *, #39411, .F. ) ;
#242627 = EDGE_CURVE ( 'NONE', #221945, #222956, #229349, .T. ) ;
#243094 = VERTEX_POINT ( 'NONE', #34384 ) ;
#243219 = AXIS2_PLACEMENT_3D ( 'NONE', #55207, #245408, #31810 ) ;
#244358 = EDGE_CURVE ( 'NONE', #215979, #133683, #205347, .T. ) ;
#245408 = DIRECTION ( 'NONE',  ( -1.000000000000000000, 8.049116928532384918E-15, 1.665334536937734811E-15 ) ) ;
#245915 = VECTOR ( 'NONE', #48285, 1000.000000000000000 ) ;
#248759 = ORIENTED_EDGE ( 'NONE', *, *, #105607, .F. ) ;
#250062 = CARTESIAN_POINT ( 'NONE',  ( -2.724549620476466760, -0.7499973797882237836, 6.366700117851318730 ) ) ;
#250177 = CARTESIAN_POINT ( 'NONE',  ( 0.000000000000000000, 0.000000000000000000, 0.000000000000000000 ) ) ;
#251193 = DIRECTION ( 'NONE',  ( 1.776356839400250465E-15, 5.551115123125782702E-17, -1.000000000000000000 ) ) ;
#251598 = CARTESIAN_POINT ( 'NONE',  ( -2.242057009460040273, -0.7497269285449761345, 6.074809648935757700 ) ) ;
#251645 = CARTESIAN_POINT ( 'NONE',  ( -2.241859802614328601, 0.7497272902840250719, 6.074776069767945152 ) ) ;
#252748 = LINE ( 'NONE', #176321, #10997 ) ;
#254537 = DIRECTION ( 'NONE',  ( -1.771372563497443775E-15, -5.551115123126733033E-17, 1.000000000000000000 ) ) ;
#254764 = CARTESIAN_POINT ( 'NONE',  ( -2.572472156540091870, 0.7498701982609219385, 6.234414252689315816 ) ) ;
#258850 = ORIENTED_EDGE ( 'NONE', *, *, #212051, .F. ) ;
#260323 = ( NAMED_UNIT ( * ) PLANE_ANGLE_UNIT ( ) SI_UNIT ( $, .RADIAN. ) );
#260606 = DIRECTION ( 'NONE',  ( 1.776356839400250465E-15, 5.551115123125782702E-17, -1.000000000000000000 ) ) ;
#263747 = CARTESIAN_POINT ( 'NONE',  ( -1.228581426504282082E-12, 0.7500000000003242961, 7.049564391744959302 ) ) ;
#264380 = ORIENTED_EDGE ( 'NONE', *, *, #59678, .F. ) ;
#264884 = ( NAMED_UNIT ( * ) SI_UNIT ( $, .STERADIAN. ) SOLID_ANGLE_UNIT ( ) );
#265441 = DIRECTION ( 'NONE',  ( -1.973145185945183361E-15, -5.551115123125782702E-17, 1.000000000000000000 ) ) ;
#265465 = ADVANCED_FACE ( 'NONE', ( #237156 ), #1778, .T. ) ;
#267245 = AXIS2_PLACEMENT_3D ( 'NONE', #250177, #158073, #179939 ) ;
#268375 = PLANE ( 'NONE',  #183994 ) ;
#268451 = ORIENTED_EDGE ( 'NONE', *, *, #39411, .T. ) ;
#271769 = EDGE_CURVE ( 'NONE', #301116, #208127, #220373, .T. ) ;
#271827 = DIRECTION ( 'NONE',  ( -2.275047181608927052E-15, -5.551115123125782702E-17, 1.000000000000000000 ) ) ;
#271966 = ADVANCED_FACE ( 'NONE', ( #31521 ), #112017, .F. ) ;
#277967 = CARTESIAN_POINT ( 'NONE',  ( -2.934018783560649268, -0.7500038970958382567, 6.700803785885737440 ) ) ;
#279492 = DIRECTION ( 'NONE',  ( 1.665334536937734022E-15, -5.551115123128695324E-17, 1.000000000000000000 ) ) ;
#280804 = CARTESIAN_POINT ( 'NONE',  ( -1.999999999999779732, -0.7499999999992512656, 6.053717865907026763 ) ) ;
#281254 = ORIENTED_EDGE ( 'NONE', *, *, #105607, .T. ) ;
#282569 = CARTESIAN_POINT ( 'NONE',  ( -1.999999999999779732, -0.7499999999992512656, 6.053717865907026763 ) ) ;
#283057 = CIRCLE ( 'NONE', #74193, 6.100000000000000533 ) ;
#283087 = LINE ( 'NONE', #237868, #164558 ) ;
#285121 = CARTESIAN_POINT ( 'NONE',  ( -2.999999999999669598, -0.7499999999986961541, 7.060276198564086059 ) ) ;
#285528 = CARTESIAN_POINT ( 'NONE',  ( -0.2822719580076317736, 0.7499990218260532693, 6.359597300433801337 ) ) ;
#285654 = CARTESIAN_POINT ( 'NONE',  ( -0.3578324636733347663, -0.7499586382270404528, 6.288670934169122262 ) ) ;
#286306 = EDGE_LOOP ( 'NONE', ( #222993, #29087, #258850, #173411, #4368, #97738 ) ) ;
#287075 = CARTESIAN_POINT ( 'NONE',  ( -0.06598550901093074017, 0.7500038980970790137, 6.700792470618129215 ) ) ;
#287206 = CARTESIAN_POINT ( 'NONE',  ( -0.8827776242883178526, -0.7499999999996566080, 6.053717865907204398 ) ) ;
#287261 = DIRECTION ( 'NONE',  ( -1.000000000000000000, 8.049116928532384918E-15, 1.665334536937734811E-15 ) ) ;
#287789 = FACE_OUTER_BOUND ( 'NONE', #139364, .T. ) ;
#288625 = CARTESIAN_POINT ( 'NONE',  ( -0.2880750204292134020, 0.7499999855922240277, 6.353616830255669257 ) ) ;
#290140 = CARTESIAN_POINT ( 'NONE',  ( -1.000000000000778044, 0.7499999999998063771, 6.053717865906582674 ) ) ;
#291653 = CARTESIAN_POINT ( 'NONE',  ( -0.2454689892777916216, 0.7499820311439313603, 6.399780391791271228 ) ) ;
#293050 = PRODUCT_DEFINITION_SHAPE ( 'NONE', 'NONE',  #73916 ) ;
#293061 = ORIENTED_EDGE ( 'NONE', *, *, #242627, .T. ) ;
#294931 = MANIFOLD_SOLID_BREP ( 'NONE', #127689 ) ;
#296968 = ORIENTED_EDGE ( 'NONE', *, *, #230728, .F. ) ;
#301116 = VERTEX_POINT ( 'NONE', #178881 ) ;
#301293 = DIRECTION ( 'NONE',  ( -1.767609229075893313E-15, -5.551115123124995690E-17, 1.000000000000000000 ) ) ;
#302801 = CARTESIAN_POINT ( 'NONE',  ( -1.999999999999779732, -1.110223024625156540E-13, 0.000000000000000000 ) ) ;
#302847 = CARTESIAN_POINT ( 'NONE',  ( -2.999999999999798828, -0.7500000000000954792, 7.049557168778960659 ) ) ;
#303866 = CIRCLE ( 'NONE', #129703, 10.55000000000000071 ) ;
ENDSEC;
END-ISO-10303-21;
