ISO-10303-21;
HEADER;
FILE_DESCRIPTION (( 'STEP AP214' ),
    '1' );
FILE_NAME ('PT.SHT.01.20.00.00 —¡ ''ÿÌÂÍ 1'' (STEP 214 ““).STEP',
    '2026-09-29T05:38:28',
    ( '' ),
    ( '' ),
    'SwSTEP 2.0',
    'SolidWorks 2025',
    '' );
FILE_SCHEMA (( 'AUTOMOTIVE_DESIGN' ));
ENDSEC;

DATA;
#3528 = CARTESIAN_POINT ( 'NONE',  ( -2.468328289482678350, 0.6245169649530291078, 5.376980891128066098 ) ) ;
#6520 = CARTESIAN_POINT ( 'NONE',  ( -0.5000000000000004441, 0.6249999999999866773, 5.061558554437572965 ) ) ;
#7107 = PRODUCT_DEFINITION_CONTEXT ( 'detailed design', #17205, 'design' ) ;
#7175 = ORIENTED_EDGE ( 'NONE', *, *, #142822, .F. ) ;
#7683 = VERTEX_POINT ( 'NONE', #207866 ) ;
#9012 = APPLICATION_CONTEXT ( 'automotive_design' ) ;
#9764 = LINE ( 'NONE', #252914, #262569 ) ;
#12476 = CARTESIAN_POINT ( 'NONE',  ( -2.420452932594619799, -0.6245958888699811862, 5.290705877587712713 ) ) ;
#14664 = VERTEX_POINT ( 'NONE', #77072 ) ;
#17205 = APPLICATION_CONTEXT ( 'automotive_design' ) ;
#18411 = CARTESIAN_POINT ( 'NONE',  ( 0.000000000000000000, 0.6249999999999866773, 9.230999999999989214 ) ) ;
#19592 = CARTESIAN_POINT ( 'NONE',  ( -2.500000000000002220, 0.6249999999999866773, 9.028392714099275906 ) ) ;
#20388 = AXIS2_PLACEMENT_3D ( 'NONE', #202231, #149200, #244375 ) ;
#21194 = ORIENTED_EDGE ( 'NONE', *, *, #170273, .T. ) ;
#21863 = DIRECTION ( 'NONE',  ( 0.000000000000000000, 0.000000000000000000, 1.000000000000000000 ) ) ;
#22141 = CARTESIAN_POINT ( 'NONE',  ( -0.1567411872512222137, -0.6249978345746705077, 5.198963540078138656 ) ) ;
#22224 = CARTESIAN_POINT ( 'NONE',  ( 0.000000000000000000, 0.6249999999999866773, 5.565013477072611181 ) ) ;
#25315 = DIRECTION ( 'NONE',  ( 0.000000000000000000, 0.000000000000000000, 1.000000000000000000 ) ) ;
#25395 = CARTESIAN_POINT ( 'NONE',  ( -2.214642499336794579, 0.6248852908909140469, 5.109151297065894326 ) ) ;
#26349 = EDGE_LOOP ( 'NONE', ( #51835, #110837, #296662, #67257 ) ) ;
#26840 = ORIENTED_EDGE ( 'NONE', *, *, #124267, .F. ) ;
#26897 = CARTESIAN_POINT ( 'NONE',  ( -2.332028351821553880, 0.6249919864607420550, 5.188469313265584582 ) ) ;
#27204 = ADVANCED_FACE ( 'NONE', ( #305153 ), #125686, .T. ) ;
#30061 = FACE_OUTER_BOUND ( 'NONE', #118753, .T. ) ;
#31164 = CYLINDRICAL_SURFACE ( 'NONE', #45619, 9.050000000000000711 ) ;
#34103 = AXIS2_PLACEMENT_3D ( 'NONE', #143753, #44049, #25315 ) ;
#35898 = PRODUCT_DEFINITION ( 'UNKNOWN', '', #81922, #7107 ) ;
#36534 = ORIENTED_EDGE ( 'NONE', *, *, #225715, .F. ) ;
#37195 = DIRECTION ( 'NONE',  ( 1.000000000000000000, 0.000000000000000000, 0.000000000000000000 ) ) ;
#37269 = ADVANCED_FACE ( 'NONE', ( #227327 ), #186689, .T. ) ;
#39960 = CIRCLE ( 'NONE', #238922, 9.050000000000000711 ) ;
#40935 = CARTESIAN_POINT ( 'NONE',  ( -0.03169219495072291004, -0.6245164862405214734, 5.376919013362858379 ) ) ;
#41715 = EDGE_CURVE ( 'NONE', #14664, #122245, #9764, .T. ) ;
#42442 = CARTESIAN_POINT ( 'NONE',  ( -0.09535609612191048301, -0.6246237591670150691, 5.262194451602429268 ) ) ;
#42695 = ORIENTED_EDGE ( 'NONE', *, *, #131331, .F. ) ;
#44049 = DIRECTION ( 'NONE',  ( -1.000000000000000000, 0.000000000000000000, 0.000000000000000000 ) ) ;
#45311 = CARTESIAN_POINT ( 'NONE',  ( -2.500000000000002220, 0.6249999999999866773, 0.000000000000000000 ) ) ;
#45619 = AXIS2_PLACEMENT_3D ( 'NONE', #54535, #196433, #149574 ) ;
#46334 = VERTEX_POINT ( 'NONE', #130088 ) ;
#50319 = CARTESIAN_POINT ( 'NONE',  ( -2.060026369830829207, 0.6250000000007999157, 5.061558554437456614 ) ) ;
#51835 = ORIENTED_EDGE ( 'NONE', *, *, #88082, .F. ) ;
#53353 = CARTESIAN_POINT ( 'NONE',  ( -2.351349488382424635, 0.6249998156366620705, 5.206873070705026585 ) ) ;
#54003 = FACE_OUTER_BOUND ( 'NONE', #258126, .T. ) ;
#54535 = CARTESIAN_POINT ( 'NONE',  ( -34.92499999999999716, 0.000000000000000000, 0.000000000000000000 ) ) ;
#56566 = ORIENTED_EDGE ( 'NONE', *, *, #240489, .T. ) ;
#56684 = FACE_OUTER_BOUND ( 'NONE', #219496, .T. ) ;
#57748 = CARTESIAN_POINT ( 'NONE',  ( -2.500000000000003109, -0.6249999999999967804, 5.459699887093537818 ) ) ;
#58080 = ORIENTED_EDGE ( 'NONE', *, *, #181251, .T. ) ;
#58999 = DIRECTION ( 'NONE',  ( -1.000000000000000000, 0.000000000000000000, 0.000000000000000000 ) ) ;
#59214 = EDGE_CURVE ( 'NONE', #277169, #14664, #150924, .T. ) ;
#59345 = PLANE ( 'NONE',  #183640 ) ;
#59858 = ( NAMED_UNIT ( * ) PLANE_ANGLE_UNIT ( ) SI_UNIT ( $, .RADIAN. ) );
#60570 = ORIENTED_EDGE ( 'NONE', *, *, #142822, .T. ) ;
#60968 = AXIS2_PLACEMENT_3D ( 'NONE', #263058, #94779, #258516 ) ;
#61714 = CARTESIAN_POINT ( 'NONE',  ( -34.92499999999999716, 0.6249999999999866773, 9.028392714099275906 ) ) ;
#65263 = VECTOR ( 'NONE', #267277, 1000.000000000000000 ) ;
#65930 = EDGE_CURVE ( 'NONE', #75966, #112866, #203308, .T. ) ;
#67257 = ORIENTED_EDGE ( 'NONE', *, *, #170273, .F. ) ;
#70551 = ORIENTED_EDGE ( 'NONE', *, *, #181684, .F. ) ;
#72005 = AXIS2_PLACEMENT_3D ( 'NONE', #122203, #170553, #217319 ) ;
#72116 = CARTESIAN_POINT ( 'NONE',  ( -0.07950928812030010062, 0.6245961651707738760, 5.290765686491083031 ) ) ;
#72964 = ORIENTED_EDGE ( 'NONE', *, *, #215680, .F. ) ;
#73681 = CARTESIAN_POINT ( 'NONE',  ( -0.1434464381867477656, 0.6249981680339716794, 5.212132727964738699 ) ) ;
#74166 = CARTESIAN_POINT ( 'NONE',  ( -2.000000000000688782, 0.6249999999999866773, 5.061558554430911627 ) ) ;
#74400 = CARTESIAN_POINT ( 'NONE',  ( -0.5000000000000004441, 0.000000000000000000, 0.000000000000000000 ) ) ;
#75966 = VERTEX_POINT ( 'NONE', #251824 ) ;
#77072 = CARTESIAN_POINT ( 'NONE',  ( -2.500000000000002220, -0.6249999999999866773, 5.565013477072611181 ) ) ;
#77194 = ADVANCED_FACE ( 'NONE', ( #56684 ), #126825, .F. ) ;
#79935 = PLANE ( 'NONE',  #110257 ) ;
#81152 = CARTESIAN_POINT ( 'NONE',  ( -2.355693016400272288, -0.6249999868401828751, 5.211247003982961701 ) ) ;
#81849 = CARTESIAN_POINT ( 'NONE',  ( -0.5000000000000004441, -0.6249999999999866773, 5.061558554437572965 ) ) ;
#81922 = PRODUCT_DEFINITION_FORMATION_WITH_SPECIFIED_SOURCE ( 'ANY', '', #173566, .NOT_KNOWN. ) ;
#88082 = EDGE_CURVE ( 'NONE', #46334, #219860, #139572, .T. ) ;
#89343 = DIRECTION ( 'NONE',  ( 1.000000000000000000, 0.000000000000000000, 0.000000000000000000 ) ) ;
#90763 = CARTESIAN_POINT ( 'NONE',  ( -0.4399950270796282870, -0.6249999999999896749, 5.061558554437558755 ) ) ;
#92292 = CARTESIAN_POINT ( 'NONE',  ( -0.2854398292651019187, -0.6248855142848959154, 5.109113026132974689 ) ) ;
#92989 = CLOSED_SHELL ( 'NONE', ( #174728, #37269, #77194, #27204, #234796, #140242, #217106, #290051 ) ) ;
#93634 = DIRECTION ( 'NONE',  ( 0.000000000000000000, 0.000000000000000000, -1.000000000000000000 ) ) ;
#93857 = CARTESIAN_POINT ( 'NONE',  ( -0.1273456074959098960, -0.6250001572600986099, 5.228412048958000824 ) ) ;
#94779 = DIRECTION ( 'NONE',  ( -1.000000000000000000, 0.000000000000000000, 0.000000000000000000 ) ) ;
#95127 = DIRECTION ( 'NONE',  ( -1.000000000000000000, 0.000000000000000000, 0.000000000000000000 ) ) ;
#96135 = VECTOR ( 'NONE', #126563, 1000.000000000000000 ) ;
#96643 = CARTESIAN_POINT ( 'NONE',  ( -2.500000000000002220, 0.000000000000000000, 0.000000000000000000 ) ) ;
#98696 = DIRECTION ( 'NONE',  ( -1.000000000000000000, 0.000000000000000000, 0.000000000000000000 ) ) ;
#100247 = CARTESIAN_POINT ( 'NONE',  ( 0.000000000000000000, 5.600000000000049383, 0.000000000000000000 ) ) ;
#101701 = CARTESIAN_POINT ( 'NONE',  ( -2.244645686177434651, 0.6249052021163229442, 5.124637104556528655 ) ) ;
#102485 = FACE_OUTER_BOUND ( 'NONE', #254403, .T. ) ;
#102978 = CARTESIAN_POINT ( 'NONE',  ( -2.468273983809926353, -0.6245155020552078939, 5.376812641179451902 ) ) ;
#103120 = CARTESIAN_POINT ( 'NONE',  ( -2.500000000000002220, -0.6249999999999866773, 9.028392714099275906 ) ) ;
#104114 = ORIENTED_EDGE ( 'NONE', *, *, #289568, .T. ) ;
#104545 = CARTESIAN_POINT ( 'NONE',  ( -2.356474928657134260, -0.6249981668009233493, 5.212052187181128282 ) ) ;
#104885 = DIRECTION ( 'NONE',  ( 0.000000000000000000, 0.000000000000000000, 1.000000000000000000 ) ) ;
#105794 = CARTESIAN_POINT ( 'NONE',  ( -2.500000000000002220, 0.000000000000000000, 0.000000000000000000 ) ) ;
#105994 = VECTOR ( 'NONE', #89343, 1000.000000000000000 ) ;
#109026 = ORIENTED_EDGE ( 'NONE', *, *, #59214, .F. ) ;
#110257 = AXIS2_PLACEMENT_3D ( 'NONE', #100247, #98696, #294949 ) ;
#110837 = ORIENTED_EDGE ( 'NONE', *, *, #215680, .T. ) ;
#111188 = LINE ( 'NONE', #161005, #105994 ) ;
#112866 = VERTEX_POINT ( 'NONE', #81849 ) ;
#115995 = ORIENTED_EDGE ( 'NONE', *, *, #65930, .F. ) ;
#118753 = EDGE_LOOP ( 'NONE', ( #150275, #251029, #58080, #72964 ) ) ;
#118761 = CARTESIAN_POINT ( 'NONE',  ( -0.5000000000000004441, -0.6249999999999866773, 5.061558554437572965 ) ) ;
#119232 = ( GEOMETRIC_REPRESENTATION_CONTEXT ( 3 ) GLOBAL_UNCERTAINTY_ASSIGNED_CONTEXT ( ( #294243 ) ) GLOBAL_UNIT_ASSIGNED_CONTEXT ( ( #156424, #59858, #301355 ) ) REPRESENTATION_CONTEXT ( 'NONE', 'WORKASPACE' ) );
#120381 = CARTESIAN_POINT ( 'NONE',  ( -0.03171256963075459734, 0.6245158147234284307, 5.376853190039338592 ) ) ;
#120468 = CARTESIAN_POINT ( 'NONE',  ( -2.343380430301369000, 0.6249978292597916374, 5.199079169524643440 ) ) ;
#121380 = ORIENTED_EDGE ( 'NONE', *, *, #287482, .T. ) ;
#121966 = CARTESIAN_POINT ( 'NONE',  ( -2.348171948200405978, 0.6249991911232641861, 5.203740363439727901 ) ) ;
#122203 = CARTESIAN_POINT ( 'NONE',  ( -2.500000000000002220, 9.050000000000002487, 0.000000000000000000 ) ) ;
#122245 = VERTEX_POINT ( 'NONE', #103120 ) ;
#122313 = EDGE_LOOP ( 'NONE', ( #162355, #233971, #70551, #60570, #36534, #126103 ) ) ;
#123097 = ORIENTED_EDGE ( 'NONE', *, *, #181684, .T. ) ;
#123450 = CARTESIAN_POINT ( 'NONE',  ( -0.1328460301316423120, 0.6249575624224157355, 5.223307715149031694 ) ) ;
#123536 = CARTESIAN_POINT ( 'NONE',  ( -2.123053735742848058, 0.6248899185580323312, 5.072605037157296159 ) ) ;
#124267 = EDGE_CURVE ( 'NONE', #112866, #192856, #268365, .T. ) ;
#124345 = ADVANCED_BREP_SHAPE_REPRESENTATION ( '', ( #300018, #267245 ), #119232 ) ;
#125686 = TOROIDAL_SURFACE ( 'NONE', #60968, 5.599999999999999645, 0.5000000000000000000 ) ;
#126086 = DIRECTION ( 'NONE',  ( 0.000000000000000000, 0.000000000000000000, 1.000000000000000000 ) ) ;
#126103 = ORIENTED_EDGE ( 'NONE', *, *, #271011, .F. ) ;
#126296 = PRODUCT_DEFINITION_SHAPE ( 'NONE', 'NONE',  #35898 ) ;
#126563 = DIRECTION ( 'NONE',  ( 1.000000000000000000, 0.000000000000000000, 0.000000000000000000 ) ) ;
#126825 = PLANE ( 'NONE',  #72005 ) ;
#128499 = LINE ( 'NONE', #223590, #65263 ) ;
#128867 = VERTEX_POINT ( 'NONE', #218947 ) ;
#128884 = CARTESIAN_POINT ( 'NONE',  ( 0.000000000000000000, -0.6249999999999866773, 5.565013477072611181 ) ) ;
#130088 = CARTESIAN_POINT ( 'NONE',  ( 0.000000000000000000, 0.6249999999999866773, 9.028392714099275906 ) ) ;
#130975 = CARTESIAN_POINT ( 'NONE',  ( -2.358302295448960972, -0.6249949335550679663, 5.213926804431546991 ) ) ;
#131331 = EDGE_CURVE ( 'NONE', #219860, #277169, #258948, .T. ) ;
#136185 = AXIS2_PLACEMENT_3D ( 'NONE', #147666, #150726, #245909 ) ;
#139078 = CARTESIAN_POINT ( 'NONE',  ( -2.185345003916326110E-16, -0.6249999999999897859, 5.459752647040057028 ) ) ;
#139572 = LINE ( 'NONE', #61714, #170676 ) ;
#140242 = ADVANCED_FACE ( 'NONE', ( #54003 ), #289457, .T. ) ;
#141881 = CARTESIAN_POINT ( 'NONE',  ( 0.000000000000000000, -0.6249999999999866773, 0.000000000000000000 ) ) ;
#142153 = CARTESIAN_POINT ( 'NONE',  ( -0.2124438993426681910, -0.6249481435533383866, 5.152845722345821500 ) ) ;
#142822 = EDGE_CURVE ( 'NONE', #163919, #75966, #277256, .T. ) ;
#143753 = CARTESIAN_POINT ( 'NONE',  ( -0.5000000000000004441, 0.000000000000000000, 0.000000000000000000 ) ) ;
#145835 = AXIS2_PLACEMENT_3D ( 'NONE', #105794, #58999, #126086 ) ;
#146508 = DIRECTION ( 'NONE',  ( 0.000000000000000000, 0.000000000000000000, 1.000000000000000000 ) ) ;
#146784 = CARTESIAN_POINT ( 'NONE',  ( -0.09573780567599808611, 0.6246988924189015302, 5.267975575239352892 ) ) ;
#147666 = CARTESIAN_POINT ( 'NONE',  ( -34.92499999999999716, 0.000000000000000000, 0.000000000000000000 ) ) ;
#149200 = DIRECTION ( 'NONE',  ( -1.000000000000000000, 0.000000000000000000, 0.000000000000000000 ) ) ;
#149574 = DIRECTION ( 'NONE',  ( 0.000000000000000000, 0.000000000000000000, 1.000000000000000000 ) ) ;
#149946 = CARTESIAN_POINT ( 'NONE',  ( -2.322019060485593034, 0.6249834392871742583, 5.179835453552883884 ) ) ;
#150275 = ORIENTED_EDGE ( 'NONE', *, *, #271011, .T. ) ;
#150726 = DIRECTION ( 'NONE',  ( -1.000000000000000000, 0.000000000000000000, 0.000000000000000000 ) ) ;
#150924 = CIRCLE ( 'NONE', #145835, 5.599999999999999645 ) ;
#154294 = CARTESIAN_POINT ( 'NONE',  ( -2.253596245311158874, -0.6250008422291813970, 5.108086305421858597 ) ) ;
#154366 = DIRECTION ( 'NONE',  ( 0.000000000000000000, -1.000000000000000000, 0.000000000000000000 ) ) ;
#155576 = CARTESIAN_POINT ( 'NONE',  ( -2.500000000000002220, -0.6249999999999866773, 0.000000000000000000 ) ) ;
#155903 = DIRECTION ( 'NONE',  ( 0.000000000000000000, 0.000000000000000000, -1.000000000000000000 ) ) ;
#156424 = ( LENGTH_UNIT ( ) NAMED_UNIT ( * ) SI_UNIT ( .MILLI., .METRE. ) );
#156759 = DIRECTION ( 'NONE',  ( -1.000000000000000000, 0.000000000000000000, 0.000000000000000000 ) ) ;
#157440 = B_SPLINE_CURVE_WITH_KNOTS ( 'NONE', 3,
 ( #22224, #189031, #120381, #72116, #146784, #167157, #287137, #123450, #215509, #241957, #73681, #170240, #263814, #218545, #177854, #6520 ),
 .UNSPECIFIED., .F., .F.,
 ( 4, 2, 2, 2, 1, 1, 2, 2, 4 ),
 ( 0.000000000000000000, 0.2499999999999520384, 0.3749999999999280575, 0.4374999999999161227, 0.4687499999999079070, 0.4843749999999037437, 0.4921874999999043543, 0.4999999999999049649, 1.000000000000000000 ),
 .UNSPECIFIED. ) ;
#158073 = DIRECTION ( 'NONE',  ( 0.000000000000000000, 0.000000000000000000, 1.000000000000000000 ) ) ;
#161005 = CARTESIAN_POINT ( 'NONE',  ( -34.92499999999999716, -0.6249999999999866773, 9.028392714099275906 ) ) ;
#162355 = ORIENTED_EDGE ( 'NONE', *, *, #88082, .T. ) ;
#163919 = VERTEX_POINT ( 'NONE', #74166 ) ;
#163960 = CARTESIAN_POINT ( 'NONE',  ( -0.1461931647041559978, -0.6249999950856044428, 5.209340518970368095 ) ) ;
#165327 = ORIENTED_EDGE ( 'NONE', *, *, #41715, .F. ) ;
#165536 = CARTESIAN_POINT ( 'NONE',  ( -0.1780977893677698487, -0.6249834741409695527, 5.179736518751003160 ) ) ;
#166868 = CARTESIAN_POINT ( 'NONE',  ( 0.000000000000000000, 0.000000000000000000, 0.000000000000000000 ) ) ;
#167157 = CARTESIAN_POINT ( 'NONE',  ( -0.1171538232267736179, 0.6248520851004542020, 5.241077744621938983 ) ) ;
#167239 = CARTESIAN_POINT ( 'NONE',  ( -2.372753461776877071, 0.6250001592455824984, 5.228525286330749644 ) ) ;
#170240 = CARTESIAN_POINT ( 'NONE',  ( -0.1446397813344943162, 0.6249996201212262292, 5.210914149603154577 ) ) ;
#170273 = EDGE_CURVE ( 'NONE', #219860, #122245, #254918, .T. ) ;
#170553 = DIRECTION ( 'NONE',  ( 1.000000000000000000, 0.000000000000000000, 0.000000000000000000 ) ) ;
#170676 = VECTOR ( 'NONE', #156759, 1000.000000000000000 ) ;
#171366 = AXIS2_PLACEMENT_3D ( 'NONE', #155576, #250774, #37195 ) ;
#171833 = CARTESIAN_POINT ( 'NONE',  ( -2.301669956318786792, 0.6249639970431178915, 5.163189271814375481 ) ) ;
#173566 = PRODUCT ( '\X2\04280430043904310430\X0\ \X2\043f0440044304360438043d043d0430044f\X0\ \X2\041c\X0\10 DIN128', '\X2\04280430043904310430\X0\ \X2\043f0440044304360438043d043d0430044f\X0\ \X2\041c\X0\10 DIN128', '', ( #185698 ) ) ;
#174728 = ADVANCED_FACE ( 'NONE', ( #249572 ), #59345, .T. ) ;
#175160 = AXIS2_PLACEMENT_3D ( 'NONE', #96643, #95127, #264970 ) ;
#175716 = ORIENTED_EDGE ( 'NONE', *, *, #41715, .T. ) ;
#176372 = CARTESIAN_POINT ( 'NONE',  ( -34.92499999999999716, 0.6249999999999866773, 5.061558554437572965 ) ) ;
#177854 = CARTESIAN_POINT ( 'NONE',  ( -0.3800305143803265895, 0.6250000000000003331, 5.061558554437555202 ) ) ;
#179261 = CARTESIAN_POINT ( 'NONE',  ( -2.367083569982437741, -0.6249575312733958166, 5.223231014895981517 ) ) ;
#179939 = DIRECTION ( 'NONE',  ( 1.000000000000000000, 0.000000000000000000, 0.000000000000000000 ) ) ;
#181251 = EDGE_CURVE ( 'NONE', #192856, #128867, #305507, .T. ) ;
#181684 = EDGE_CURVE ( 'NONE', #163919, #277169, #230949, .T. ) ;
#182920 = SHAPE_REPRESENTATION_RELATIONSHIP ( 'NONE' , 'NONE' ,  #275038, #124345 ) ;
#183640 = AXIS2_PLACEMENT_3D ( 'NONE', #274420, #154366, #155903 ) ;
#185026 = CARTESIAN_POINT ( 'NONE',  ( -2.382786469131545903, -0.6248519783462498367, 5.241006075807990605 ) ) ;
#185698 = PRODUCT_CONTEXT ( 'NONE', #9012, 'mechanical' ) ;
#185858 = CARTESIAN_POINT ( 'NONE',  ( 0.000000000000000000, -0.6249999999999866773, 5.565013477072611181 ) ) ;
#186689 = PLANE ( 'NONE',  #171366 ) ;
#187410 = CARTESIAN_POINT ( 'NONE',  ( -0.1519505684634760434, -0.6249991933344613004, 5.203620689544771416 ) ) ;
#189031 = CARTESIAN_POINT ( 'NONE',  ( -2.782503231730375628E-16, 0.6249999999999998890, 5.459721510114639464 ) ) ;
#190019 = AXIS2_PLACEMENT_3D ( 'NONE', #74400, #213181, #290918 ) ;
#192856 = VERTEX_POINT ( 'NONE', #128884 ) ;
#196433 = DIRECTION ( 'NONE',  ( -1.000000000000000000, 0.000000000000000000, 0.000000000000000000 ) ) ;
#196809 = CARTESIAN_POINT ( 'NONE',  ( -2.287663463062486358, 0.6249480388986784485, 5.152921370679774071 ) ) ;
#198248 = CIRCLE ( 'NONE', #227991, 5.100000000000000533 ) ;
#199694 = CARTESIAN_POINT ( 'NONE',  ( -2.000000000000001776, -0.6249999999999866773, 5.061558554437572965 ) ) ;
#199736 = ORIENTED_EDGE ( 'NONE', *, *, #59214, .T. ) ;
#202231 = CARTESIAN_POINT ( 'NONE',  ( 0.000000000000000000, 0.000000000000000000, 0.000000000000000000 ) ) ;
#203308 = CIRCLE ( 'NONE', #34103, 5.100000000000000533 ) ;
#206138 = VECTOR ( 'NONE', #21863, 1000.000000000000000 ) ;
#207866 = CARTESIAN_POINT ( 'NONE',  ( -2.000000000000001776, -0.6249999999999866773, 5.061558554437572965 ) ) ;
#208235 = B_SPLINE_CURVE_WITH_KNOTS ( 'NONE', 3,
 ( #274345, #57748, #102978, #12476, #256780, #185026, #303455, #179261, #297684, #130975, #104545, #251034, #81152, #154294, #227579, #199694 ),
 .UNSPECIFIED., .F., .F.,
 ( 4, 2, 2, 2, 1, 1, 2, 2, 4 ),
 ( 0.000000000000000000, 0.2500000000000054401, 0.3750000000000086042, 0.4375000000000093814, 0.4687500000000098255, 0.4843750000000062728, 0.4921875000000058842, 0.5000000000000054401, 1.000000000000000000 ),
 .UNSPECIFIED. ) ;
#209327 = CARTESIAN_POINT ( 'NONE',  ( -0.2554477604249331124, -0.6249053891314420017, 5.124585746809015241 ) ) ;
#211293 = CARTESIAN_POINT ( 'NONE',  ( 0.000000000000000000, 0.6249999999999866773, 5.565013477072611181 ) ) ;
#212588 = ORIENTED_EDGE ( 'NONE', *, *, #289568, .F. ) ;
#213181 = DIRECTION ( 'NONE',  ( -1.000000000000000000, 0.000000000000000000, 0.000000000000000000 ) ) ;
#213236 = DIRECTION ( 'NONE',  ( 0.000000000000000000, 0.000000000000000000, -1.000000000000000000 ) ) ;
#214669 = CIRCLE ( 'NONE', #20388, 5.599999999999999645 ) ;
#215509 = CARTESIAN_POINT ( 'NONE',  ( -0.1371140705409425453, 0.6249804431609471411, 5.218705524121898698 ) ) ;
#215586 = CARTESIAN_POINT ( 'NONE',  ( -2.500000000000002665, 0.6250000000000001110, 5.459785581826950285 ) ) ;
#215680 = EDGE_CURVE ( 'NONE', #46334, #128867, #39960, .T. ) ;
#216278 = EDGE_CURVE ( 'NONE', #292210, #192856, #214669, .T. ) ;
#217106 = ADVANCED_FACE ( 'NONE', ( #30061 ), #79935, .F. ) ;
#217319 = DIRECTION ( 'NONE',  ( 0.000000000000000000, 1.000000000000000000, 0.000000000000000000 ) ) ;
#218264 = DIRECTION ( 'NONE',  ( -1.000000000000000000, 0.000000000000000000, 0.000000000000000000 ) ) ;
#218545 = CARTESIAN_POINT ( 'NONE',  ( -0.2463339947775016470, 0.6250008504799087206, 5.108110404939049332 ) ) ;
#218721 = ORIENTED_EDGE ( 'NONE', *, *, #268946, .T. ) ;
#218947 = CARTESIAN_POINT ( 'NONE',  ( 0.000000000000000000, -0.6249999999999866773, 9.028392714099275906 ) ) ;
#219496 = EDGE_LOOP ( 'NONE', ( #42695, #21194, #165327, #109026 ) ) ;
#219860 = VERTEX_POINT ( 'NONE', #19592 ) ;
#221041 = CARTESIAN_POINT ( 'NONE',  ( -2.500000000000002220, 0.6249999999999866773, 5.565013477072611181 ) ) ;
#223590 = CARTESIAN_POINT ( 'NONE',  ( -34.92499999999999716, -0.6249999999999866773, 5.061558554437572965 ) ) ;
#225715 = EDGE_CURVE ( 'NONE', #292210, #75966, #157440, .T. ) ;
#226952 = ORIENTED_EDGE ( 'NONE', *, *, #65930, .T. ) ;
#227327 = FACE_OUTER_BOUND ( 'NONE', #292520, .T. ) ;
#227579 = CARTESIAN_POINT ( 'NONE',  ( -2.119941386600517230, -0.6249999999999894529, 5.061558554437557866 ) ) ;
#227991 = AXIS2_PLACEMENT_3D ( 'NONE', #258046, #278277, #276764 ) ;
#228933 = ORIENTED_EDGE ( 'NONE', *, *, #240489, .F. ) ;
#230949 = B_SPLINE_CURVE_WITH_KNOTS ( 'NONE', 3,
 ( #290290, #50319, #123536, #25395, #101701, #196809, #171833, #149946, #26897, #120468, #121966, #53353, #245126, #167239, #242043, #3528, #215586, #262353 ),
 .UNSPECIFIED., .F., .F.,
 ( 4, 2, 2, 2, 1, 1, 2, 2, 2, 4 ),
 ( 0.000000000000000000, 0.2500000000000354716, 0.3750000000000524025, 0.4375000000000617839, 0.4687500000000664468, 0.4843750000000687783, 0.4921875000000694445, 0.5000000000000700551, 0.7500000000000349720, 1.000000000000000000 ),
 .UNSPECIFIED. ) ;
#233971 = ORIENTED_EDGE ( 'NONE', *, *, #131331, .T. ) ;
#234796 = ADVANCED_FACE ( 'NONE', ( #102485 ), #263132, .F. ) ;
#235044 = ORIENTED_EDGE ( 'NONE', *, *, #287482, .F. ) ;
#238684 = ORIENTED_EDGE ( 'NONE', *, *, #225715, .T. ) ;
#238922 = AXIS2_PLACEMENT_3D ( 'NONE', #166868, #218264, #146508 ) ;
#240489 = EDGE_CURVE ( 'NONE', #163919, #7683, #198248, .T. ) ;
#241957 = CARTESIAN_POINT ( 'NONE',  ( -0.1416205848646251153, 0.6249949371396825715, 5.214006630728607483 ) ) ;
#242043 = CARTESIAN_POINT ( 'NONE',  ( -2.404714051669683883, 0.6246241668677405823, 5.262295809873513086 ) ) ;
#244375 = DIRECTION ( 'NONE',  ( 0.000000000000000000, 0.000000000000000000, 1.000000000000000000 ) ) ;
#245126 = CARTESIAN_POINT ( 'NONE',  ( -2.353931231845471483, 0.6249999950235772816, 5.209466033151499254 ) ) ;
#245909 = DIRECTION ( 'NONE',  ( 0.000000000000000000, 0.000000000000000000, 1.000000000000000000 ) ) ;
#249572 = FACE_OUTER_BOUND ( 'NONE', #122313, .T. ) ;
#250177 = CARTESIAN_POINT ( 'NONE',  ( 0.000000000000000000, 0.000000000000000000, 0.000000000000000000 ) ) ;
#250774 = DIRECTION ( 'NONE',  ( -0.000000000000000000, 1.000000000000000000, 0.000000000000000000 ) ) ;
#251029 = ORIENTED_EDGE ( 'NONE', *, *, #216278, .T. ) ;
#251034 = CARTESIAN_POINT ( 'NONE',  ( -2.355280581276425700, -0.6249996199177872969, 5.210833132613753804 ) ) ;
#251824 = CARTESIAN_POINT ( 'NONE',  ( -0.5000000000000004441, 0.6249999999999866773, 5.061558554437572965 ) ) ;
#252914 = CARTESIAN_POINT ( 'NONE',  ( -2.500000000000002220, -0.6249999999999866773, 0.000000000000000000 ) ) ;
#254403 = EDGE_LOOP ( 'NONE', ( #7175, #56566, #212588, #115995 ) ) ;
#254918 = CIRCLE ( 'NONE', #175160, 9.050000000000000711 ) ;
#255580 = VECTOR ( 'NONE', #213236, 1000.000000000000000 ) ;
#256089 = CARTESIAN_POINT ( 'NONE',  ( -0.1984415808284686611, -0.6249640705629935233, 5.163104755616060970 ) ) ;
#256255 = ORIENTED_EDGE ( 'NONE', *, *, #124267, .T. ) ;
#256780 = CARTESIAN_POINT ( 'NONE',  ( -2.404215569937500963, -0.6246986808322686491, 5.267910602041183665 ) ) ;
#258046 = CARTESIAN_POINT ( 'NONE',  ( -2.000000000000001776, 0.000000000000000000, 0.000000000000000000 ) ) ;
#258126 = EDGE_LOOP ( 'NONE', ( #290816, #238684, #226952, #256255 ) ) ;
#258516 = DIRECTION ( 'NONE',  ( 0.000000000000000000, 0.000000000000000000, 1.000000000000000000 ) ) ;
#258677 = ORIENTED_EDGE ( 'NONE', *, *, #181251, .F. ) ;
#258948 = LINE ( 'NONE', #45311, #286605 ) ;
#260038 = LINE ( 'NONE', #18411, #255580 ) ;
#260682 = CARTESIAN_POINT ( 'NONE',  ( -0.1680909168171142720, -0.6249920040933618637, 5.188362890647580272 ) ) ;
#262353 = CARTESIAN_POINT ( 'NONE',  ( -2.500000000000002220, 0.6249999999999866773, 5.565013477072611181 ) ) ;
#262569 = VECTOR ( 'NONE', #104885, 1000.000000000000000 ) ;
#263058 = CARTESIAN_POINT ( 'NONE',  ( -2.000000000000001776, 0.000000000000000000, 0.000000000000000000 ) ) ;
#263132 = CYLINDRICAL_SURFACE ( 'NONE', #136185, 5.100000000000000533 ) ;
#263814 = CARTESIAN_POINT ( 'NONE',  ( -0.1442261792951496924, 0.6249999867112508989, 5.211329393948825661 ) ) ;
#264970 = DIRECTION ( 'NONE',  ( 0.000000000000000000, 0.000000000000000000, 1.000000000000000000 ) ) ;
#267245 = AXIS2_PLACEMENT_3D ( 'NONE', #250177, #158073, #179939 ) ;
#267277 = DIRECTION ( 'NONE',  ( -1.000000000000000000, 0.000000000000000000, 0.000000000000000000 ) ) ;
#268365 = B_SPLINE_CURVE_WITH_KNOTS ( 'NONE', 3,
 ( #118761, #90763, #305790, #92292, #209327, #142153, #256089, #165536, #260682, #22141, #187410, #280914, #163960, #93857, #42442, #40935, #139078, #185858 ),
 .UNSPECIFIED., .F., .F.,
 ( 4, 2, 2, 2, 1, 1, 2, 2, 2, 4 ),
 ( 0.000000000000000000, 0.2500000000000277556, 0.3750000000000415223, 0.4375000000000484057, 0.4687500000000528466, 0.4843750000000540124, 0.4921875000000535127, 0.5000000000000530687, 0.7500000000000265343, 1.000000000000000000 ),
 .UNSPECIFIED. ) ;
#268946 = EDGE_CURVE ( 'NONE', #122245, #128867, #111188, .T. ) ;
#271011 = EDGE_CURVE ( 'NONE', #46334, #292210, #260038, .T. ) ;
#274345 = CARTESIAN_POINT ( 'NONE',  ( -2.500000000000002220, -0.6249999999999866773, 5.565013477072611181 ) ) ;
#274420 = CARTESIAN_POINT ( 'NONE',  ( -2.500000000000002220, 0.6249999999999866773, 9.230999999999989214 ) ) ;
#275038 = SHAPE_REPRESENTATION ( '\X2\04280430043904310430\X0\ \X2\043f0440044304360438043d043d0430044f\X0\ \X2\041c\X0\10 DIN128', ( #267245 ), #119232 ) ;
#276764 = DIRECTION ( 'NONE',  ( 0.000000000000000000, 0.000000000000000000, 1.000000000000000000 ) ) ;
#277169 = VERTEX_POINT ( 'NONE', #221041 ) ;
#277256 = LINE ( 'NONE', #176372, #96135 ) ;
#278277 = DIRECTION ( 'NONE',  ( -1.000000000000000000, 0.000000000000000000, 0.000000000000000000 ) ) ;
#279259 = SHAPE_DEFINITION_REPRESENTATION ( #126296, #275038 ) ;
#280914 = CARTESIAN_POINT ( 'NONE',  ( -0.1487736030954719124, -0.6249998163207828306, 5.206750678853450331 ) ) ;
#286605 = VECTOR ( 'NONE', #93634, 1000.000000000000000 ) ;
#287137 = CARTESIAN_POINT ( 'NONE',  ( -0.1238227132365038174, 0.6249020669871425682, 5.233322156385861845 ) ) ;
#287482 = EDGE_CURVE ( 'NONE', #14664, #7683, #208235, .T. ) ;
#288569 = EDGE_LOOP ( 'NONE', ( #228933, #123097, #199736, #121380 ) ) ;
#289457 = TOROIDAL_SURFACE ( 'NONE', #190019, 5.599999999999999645, 0.5000000000000000000 ) ;
#289568 = EDGE_CURVE ( 'NONE', #112866, #7683, #128499, .T. ) ;
#289921 = FACE_OUTER_BOUND ( 'NONE', #26349, .T. ) ;
#290051 = ADVANCED_FACE ( 'NONE', ( #289921 ), #31164, .T. ) ;
#290290 = CARTESIAN_POINT ( 'NONE',  ( -2.000000000000688782, 0.6249999999999866773, 5.061558554430911627 ) ) ;
#290816 = ORIENTED_EDGE ( 'NONE', *, *, #216278, .F. ) ;
#290918 = DIRECTION ( 'NONE',  ( 0.000000000000000000, 0.000000000000000000, 1.000000000000000000 ) ) ;
#292210 = VERTEX_POINT ( 'NONE', #211293 ) ;
#292520 = EDGE_LOOP ( 'NONE', ( #218721, #258677, #26840, #104114, #235044, #175716 ) ) ;
#294243 = UNCERTAINTY_MEASURE_WITH_UNIT (LENGTH_MEASURE( 1.000000000000000082E-05 ), #156424, 'distance_accuracy_value', 'NONE');
#294949 = DIRECTION ( 'NONE',  ( 0.000000000000000000, 0.000000000000000000, 1.000000000000000000 ) ) ;
#296662 = ORIENTED_EDGE ( 'NONE', *, *, #268946, .F. ) ;
#297684 = CARTESIAN_POINT ( 'NONE',  ( -2.362812388690273657, -0.6249804288387827977, 5.218627369833264140 ) ) ;
#300018 = MANIFOLD_SOLID_BREP ( 'NONE', #92989 ) ;
#301355 = ( NAMED_UNIT ( * ) SI_UNIT ( $, .STERADIAN. ) SOLID_ANGLE_UNIT ( ) );
#303455 = CARTESIAN_POINT ( 'NONE',  ( -2.376113242476855181, -0.6249019956534060949, 5.233248425637492929 ) ) ;
#305153 = FACE_OUTER_BOUND ( 'NONE', #288569, .T. ) ;
#305507 = LINE ( 'NONE', #141881, #206138 ) ;
#305790 = CARTESIAN_POINT ( 'NONE',  ( -0.3769933561629051910, -0.6248901274080187473, 5.072597025372844293 ) ) ;
ENDSEC;
END-ISO-10303-21;
