ISO-10303-21;
HEADER;
FILE_DESCRIPTION (( 'STEP AP214' ),
    '1' );
FILE_NAME ('PT.SHT.01.20.00.00 —¡ ''ÿÌÂÍ 1'' (STEP 214 ““).STEP',
    '2026-09-29T05:38:28',
    ( '' ),
    ( '' ),
    'SwSTEP 2.0',
    'SolidWorks 2025',
    '' );
FILE_SCHEMA (( 'AUTOMOTIVE_DESIGN' ));
ENDSEC;

DATA;
#39 = CARTESIAN_POINT ( 'NONE',  ( -54.99999999999971578, 6.750000000000002665, -3.749999999999920064 ) ) ;
#2197 = ADVANCED_FACE ( 'NONE', ( #85898 ), #104722, .F. ) ;
#2260 = ORIENTED_EDGE ( 'NONE', *, *, #207391, .T. ) ;
#3180 = FACE_OUTER_BOUND ( 'NONE', #184514, .T. ) ;
#6415 = EDGE_CURVE ( 'NONE', #275016, #20226, #43124, .T. ) ;
#7228 = EDGE_LOOP ( 'NONE', ( #289435, #302670, #157757, #31552 ) ) ;
#7339 = EDGE_CURVE ( 'NONE', #230885, #40215, #236115, .T. ) ;
#8994 = CARTESIAN_POINT ( 'NONE',  ( -54.99999999999971578, 0.000000000000000000, 0.000000000000000000 ) ) ;
#9104 = ( NAMED_UNIT ( * ) SI_UNIT ( $, .STERADIAN. ) SOLID_ANGLE_UNIT ( ) );
#9299 = ORIENTED_EDGE ( 'NONE', *, *, #167701, .F. ) ;
#13763 = VECTOR ( 'NONE', #22567, 1000.000000000000000 ) ;
#13831 = LINE ( 'NONE', #105879, #192452 ) ;
#14871 = FACE_OUTER_BOUND ( 'NONE', #111728, .T. ) ;
#15461 = EDGE_CURVE ( 'NONE', #286566, #20226, #78105, .T. ) ;
#15688 = DIRECTION ( 'NONE',  ( 0.000000000000000000, 0.000000000000000000, -1.000000000000000000 ) ) ;
#15789 = CARTESIAN_POINT ( 'NONE',  ( 0.000000000000000000, 0.000000000000000000, 0.000000000000000000 ) ) ;
#16395 = VERTEX_POINT ( 'NONE', #291385 ) ;
#16579 = VECTOR ( 'NONE', #40997, 1000.000000000000000 ) ;
#16593 = EDGE_CURVE ( 'NONE', #202301, #69711, #275396, .T. ) ;
#16863 = DIRECTION ( 'NONE',  ( 1.000000000000000000, 0.000000000000000000, 0.000000000000000000 ) ) ;
#18177 = LINE ( 'NONE', #281570, #133174 ) ;
#18860 = DIRECTION ( 'NONE',  ( 1.972152263052529514E-31, -1.000000000000000000, 1.380506584136770659E-30 ) ) ;
#18942 = VERTEX_POINT ( 'NONE', #39250 ) ;
#19647 = AXIS2_PLACEMENT_3D ( 'NONE', #106437, #201595, #296554 ) ;
#20226 = VERTEX_POINT ( 'NONE', #62673 ) ;
#21327 = ORIENTED_EDGE ( 'NONE', *, *, #61146, .F. ) ;
#22567 = DIRECTION ( 'NONE',  ( 1.000000000000000000, 0.000000000000000000, 0.000000000000000000 ) ) ;
#22805 = EDGE_CURVE ( 'NONE', #69711, #230632, #129952, .T. ) ;
#22845 = DIRECTION ( 'NONE',  ( 0.000000000000000000, 1.000000000000000000, -1.380506584136770659E-30 ) ) ;
#26941 = CARTESIAN_POINT ( 'NONE',  ( -54.99999999999971578, 0.2500000000000002220, 0.000000000000000000 ) ) ;
#27358 = EDGE_CURVE ( 'NONE', #107789, #218252, #240130, .T. ) ;
#27927 = ORIENTED_EDGE ( 'NONE', *, *, #63342, .F. ) ;
#28070 = CARTESIAN_POINT ( 'NONE',  ( -54.99999999999971578, 6.750000000000002665, -3.749999999999920064 ) ) ;
#29603 = ORIENTED_EDGE ( 'NONE', *, *, #22805, .T. ) ;
#30984 = ( LENGTH_UNIT ( ) NAMED_UNIT ( * ) SI_UNIT ( .MILLI., .METRE. ) );
#31552 = ORIENTED_EDGE ( 'NONE', *, *, #6415, .T. ) ;
#31752 = PRODUCT ( '\X2\0428043f043e043d043a0430\X0\ 8x7x63 \X2\0413041e04210422\X0\ 23360-78 DIN 6885', '\X2\0428043f043e043d043a0430\X0\ 8x7x63 \X2\0413041e04210422\X0\ 23360-78 DIN 6885', '', ( #87549 ) ) ;
#32127 = DIRECTION ( 'NONE',  ( 0.000000000000000000, 0.000000000000000000, 1.000000000000000000 ) ) ;
#32250 = DIRECTION ( 'NONE',  ( 0.000000000000000000, 0.000000000000000000, 1.000000000000000000 ) ) ;
#32256 = ORIENTED_EDGE ( 'NONE', *, *, #61146, .T. ) ;
#32341 = CARTESIAN_POINT ( 'NONE',  ( 0.000000000000000000, 0.2500000000000002220, -3.750000000000142109 ) ) ;
#33209 = LINE ( 'NONE', #295035, #52944 ) ;
#33327 = ORIENTED_EDGE ( 'NONE', *, *, #38042, .F. ) ;
#33796 = CIRCLE ( 'NONE', #188224, 0.2500000000000002220 ) ;
#34580 = ORIENTED_EDGE ( 'NONE', *, *, #218963, .F. ) ;
#36368 = FACE_OUTER_BOUND ( 'NONE', #263005, .T. ) ;
#37398 = DIRECTION ( 'NONE',  ( 1.972152263052529514E-31, -1.000000000000000000, 1.380506584136770659E-30 ) ) ;
#37580 = DIRECTION ( 'NONE',  ( -1.000000000000000000, 0.000000000000000000, 0.000000000000000000 ) ) ;
#38042 = EDGE_CURVE ( 'NONE', #20226, #292225, #195587, .T. ) ;
#38045 = CIRCLE ( 'NONE', #207246, 0.2500000000000002220 ) ;
#39250 = CARTESIAN_POINT ( 'NONE',  ( -54.99999999999882760, 1.040834085586084257E-14, 3.750000000000031086 ) ) ;
#39839 = ORIENTED_EDGE ( 'NONE', *, *, #110383, .T. ) ;
#40215 = VERTEX_POINT ( 'NONE', #217846 ) ;
#40529 = ORIENTED_EDGE ( 'NONE', *, *, #15461, .F. ) ;
#40997 = DIRECTION ( 'NONE',  ( 1.000000000000000000, 0.000000000000000000, 0.000000000000000000 ) ) ;
#41049 = EDGE_LOOP ( 'NONE', ( #39839, #81882, #298392, #47389 ) ) ;
#41098 = EDGE_LOOP ( 'NONE', ( #108339, #102158, #183232, #226294 ) ) ;
#42494 = VECTOR ( 'NONE', #217396, 1000.000000000000000 ) ;
#42863 = CARTESIAN_POINT ( 'NONE',  ( -54.99999999999971578, 0.000000000000000000, -3.750000000000031086 ) ) ;
#43124 = CIRCLE ( 'NONE', #237203, 4.000000000000000000 ) ;
#43156 = FACE_OUTER_BOUND ( 'NONE', #41049, .T. ) ;
#43648 = ORIENTED_EDGE ( 'NONE', *, *, #238095, .T. ) ;
#45093 = CIRCLE ( 'NONE', #244057, 0.2500000000000002220 ) ;
#45284 = EDGE_LOOP ( 'NONE', ( #167486, #21327, #278545, #46696 ) ) ;
#45482 = AXIS2_PLACEMENT_3D ( 'NONE', #113013, #233034, #187814 ) ;
#46199 = EDGE_CURVE ( 'NONE', #230632, #16395, #45093, .T. ) ;
#46411 = FACE_OUTER_BOUND ( 'NONE', #241423, .T. ) ;
#46696 = ORIENTED_EDGE ( 'NONE', *, *, #193929, .F. ) ;
#47389 = ORIENTED_EDGE ( 'NONE', *, *, #27358, .T. ) ;
#47402 = VECTOR ( 'NONE', #74168, 1000.000000000000000 ) ;
#47511 = DIRECTION ( 'NONE',  ( -1.000000000000000000, 0.000000000000000000, 0.000000000000000000 ) ) ;
#47615 = TOROIDAL_SURFACE ( 'NONE', #286383, 3.750000000000000000, 0.2500000000000000000 ) ;
#48379 = DIRECTION ( 'NONE',  ( 0.000000000000000000, 0.000000000000000000, -1.000000000000000000 ) ) ;
#48830 = DIRECTION ( 'NONE',  ( -1.972152263052529514E-31, 1.000000000000000000, -1.380506584136770659E-30 ) ) ;
#50903 = FACE_OUTER_BOUND ( 'NONE', #197420, .T. ) ;
#51292 = ( NAMED_UNIT ( * ) PLANE_ANGLE_UNIT ( ) SI_UNIT ( $, .RADIAN. ) );
#51381 = DIRECTION ( 'NONE',  ( 0.000000000000000000, 0.000000000000000000, -1.000000000000000000 ) ) ;
#51708 = EDGE_CURVE ( 'NONE', #18942, #69711, #38045, .T. ) ;
#52944 = VECTOR ( 'NONE', #153144, 1000.000000000000000 ) ;
#53587 = ORIENTED_EDGE ( 'NONE', *, *, #7339, .T. ) ;
#53959 = CYLINDRICAL_SURFACE ( 'NONE', #114005, 0.2500000000000002220 ) ;
#57935 = CARTESIAN_POINT ( 'NONE',  ( -54.99999999999971578, 0.2500000000000002220, -3.750000000000031086 ) ) ;
#58055 = CIRCLE ( 'NONE', #92982, 0.2500000000000002220 ) ;
#58117 = ORIENTED_EDGE ( 'NONE', *, *, #130899, .T. ) ;
#58432 = AXIS2_PLACEMENT_3D ( 'NONE', #101867, #78494, #245283 ) ;
#58662 = TOROIDAL_SURFACE ( 'NONE', #198040, 3.750000000000000000, 0.2500000000000000000 ) ;
#59720 = DIRECTION ( 'NONE',  ( 0.000000000000000000, 0.000000000000000000, 1.000000000000000000 ) ) ;
#60615 = CARTESIAN_POINT ( 'NONE',  ( -54.99999999999971578, 0.2500000000000002220, 0.000000000000000000 ) ) ;
#61000 = VECTOR ( 'NONE', #150561, 1000.000000000000000 ) ;
#61146 = EDGE_CURVE ( 'NONE', #40215, #16395, #236639, .T. ) ;
#62173 = AXIS2_PLACEMENT_3D ( 'NONE', #119162, #165934, #282828 ) ;
#62673 = CARTESIAN_POINT ( 'NONE',  ( 0.000000000000000000, 6.750000000000004441, 4.000000000000225597 ) ) ;
#62936 = DIRECTION ( 'NONE',  ( 0.000000000000000000, 0.000000000000000000, 1.000000000000000000 ) ) ;
#63290 = AXIS2_PLACEMENT_3D ( 'NONE', #299693, #276349, #279443 ) ;
#63342 = EDGE_CURVE ( 'NONE', #110673, #275016, #79171, .T. ) ;
#64650 = ADVANCED_FACE ( 'NONE', ( #36368 ), #152870, .T. ) ;
#64706 = AXIS2_PLACEMENT_3D ( 'NONE', #39, #99747, #51381 ) ;
#64731 = ORIENTED_EDGE ( 'NONE', *, *, #51708, .F. ) ;
#68019 = CARTESIAN_POINT ( 'NONE',  ( 0.000000000000000000, 7.000000000000004441, 4.000000000000225597 ) ) ;
#68288 = CIRCLE ( 'NONE', #58432, 3.750000000000000000 ) ;
#69711 = VERTEX_POINT ( 'NONE', #295590 ) ;
#70030 = EDGE_LOOP ( 'NONE', ( #155471, #87445, #228373, #105183 ) ) ;
#71240 = EDGE_CURVE ( 'NONE', #197339, #40215, #179703, .T. ) ;
#71489 = CARTESIAN_POINT ( 'NONE',  ( 0.000000000000000000, 0.2500000000000002220, 0.000000000000000000 ) ) ;
#72631 = CARTESIAN_POINT ( 'NONE',  ( 0.000000000000000000, 0.2500000000000106581, 4.000000000000225597 ) ) ;
#74168 = DIRECTION ( 'NONE',  ( 1.972152263052529514E-31, -1.000000000000000000, 1.380506584136770659E-30 ) ) ;
#74338 = ( GEOMETRIC_REPRESENTATION_CONTEXT ( 3 ) GLOBAL_UNCERTAINTY_ASSIGNED_CONTEXT ( ( #275463 ) ) GLOBAL_UNIT_ASSIGNED_CONTEXT ( ( #30984, #51292, #9104 ) ) REPRESENTATION_CONTEXT ( 'NONE', 'WORKASPACE' ) );
#75456 = ADVANCED_FACE ( 'NONE', ( #43156 ), #214622, .T. ) ;
#76393 = AXIS2_PLACEMENT_3D ( 'NONE', #236572, #135364, #230447 ) ;
#77058 = ADVANCED_FACE ( 'NONE', ( #211235 ), #306193, .T. ) ;
#78105 = CIRCLE ( 'NONE', #242521, 0.2500000000000002220 ) ;
#78494 = DIRECTION ( 'NONE',  ( 1.972152263052529514E-31, -1.000000000000000000, 1.380506584136770659E-30 ) ) ;
#78994 = AXIS2_PLACEMENT_3D ( 'NONE', #155264, #245840, #32250 ) ;
#79171 = LINE ( 'NONE', #174208, #246886 ) ;
#80508 = LINE ( 'NONE', #244213, #61000 ) ;
#81477 = CIRCLE ( 'NONE', #240807, 4.000000000000000000 ) ;
#81772 = AXIS2_PLACEMENT_3D ( 'NONE', #234914, #22845, #163127 ) ;
#81802 = ORIENTED_EDGE ( 'NONE', *, *, #15461, .T. ) ;
#81882 = ORIENTED_EDGE ( 'NONE', *, *, #254282, .T. ) ;
#82253 = DIRECTION ( 'NONE',  ( 0.000000000000000000, 1.000000000000000000, -1.380506584136770659E-30 ) ) ;
#82406 = EDGE_LOOP ( 'NONE', ( #104945, #124137, #191249, #34580 ) ) ;
#82425 = ORIENTED_EDGE ( 'NONE', *, *, #248122, .T. ) ;
#85323 = AXIS2_PLACEMENT_3D ( 'NONE', #28070, #123169, #48379 ) ;
#85898 = FACE_OUTER_BOUND ( 'NONE', #264184, .T. ) ;
#87445 = ORIENTED_EDGE ( 'NONE', *, *, #238095, .F. ) ;
#87549 = PRODUCT_CONTEXT ( 'NONE', #164231, 'mechanical' ) ;
#89774 = ORIENTED_EDGE ( 'NONE', *, *, #149730, .T. ) ;
#91032 = DIRECTION ( 'NONE',  ( -2.722569184064249497E-61, 1.380506584136770659E-30, 1.000000000000000000 ) ) ;
#91521 = VECTOR ( 'NONE', #47511, 1000.000000000000000 ) ;
#92982 = AXIS2_PLACEMENT_3D ( 'NONE', #252716, #160587, #15688 ) ;
#95373 = ADVANCED_FACE ( 'NONE', ( #46411 ), #183673, .F. ) ;
#95451 = DIRECTION ( 'NONE',  ( -2.722569184064249497E-61, 1.380506584136770659E-30, 1.000000000000000000 ) ) ;
#98109 = CIRCLE ( 'NONE', #202746, 4.000000000000000000 ) ;
#99747 = DIRECTION ( 'NONE',  ( 1.000000000000000000, 0.000000000000000000, 0.000000000000000000 ) ) ;
#101867 = CARTESIAN_POINT ( 'NONE',  ( -54.99999999999971578, 0.000000000000000000, 0.000000000000000000 ) ) ;
#101873 = EDGE_CURVE ( 'NONE', #218252, #292225, #58055, .T. ) ;
#102158 = ORIENTED_EDGE ( 'NONE', *, *, #16593, .F. ) ;
#102416 = CYLINDRICAL_SURFACE ( 'NONE', #78994, 0.2500000000000002220 ) ;
#103276 = DIRECTION ( 'NONE',  ( -2.722569184064249497E-61, 1.380506584136770659E-30, 1.000000000000000000 ) ) ;
#103760 = AXIS2_PLACEMENT_3D ( 'NONE', #251207, #182495, #152921 ) ;
#104105 = DIRECTION ( 'NONE',  ( 1.000000000000000000, 0.000000000000000000, 0.000000000000000000 ) ) ;
#104722 = PLANE ( 'NONE',  #103760 ) ;
#104945 = ORIENTED_EDGE ( 'NONE', *, *, #71240, .T. ) ;
#105183 = ORIENTED_EDGE ( 'NONE', *, *, #27358, .F. ) ;
#105568 = ADVANCED_BREP_SHAPE_REPRESENTATION ( '', ( #200190, #267245 ), #74338 ) ;
#105703 = AXIS2_PLACEMENT_3D ( 'NONE', #304422, #277984, #232787 ) ;
#105879 = CARTESIAN_POINT ( 'NONE',  ( 1.332267629550187849E-12, 7.000000000000000888, 3.750000000000142109 ) ) ;
#106331 = ORIENTED_EDGE ( 'NONE', *, *, #16593, .T. ) ;
#106437 = CARTESIAN_POINT ( 'NONE',  ( 0.000000000000000000, 6.750000000000002665, -3.750000000000142109 ) ) ;
#107766 = DIRECTION ( 'NONE',  ( 1.000000000000000000, 0.000000000000000000, 0.000000000000000000 ) ) ;
#107789 = VERTEX_POINT ( 'NONE', #259259 ) ;
#108339 = ORIENTED_EDGE ( 'NONE', *, *, #51708, .T. ) ;
#108926 = DIRECTION ( 'NONE',  ( -1.972152263052529514E-31, 1.000000000000000000, -1.380506584136770659E-30 ) ) ;
#109278 = CARTESIAN_POINT ( 'NONE',  ( -54.99999999999971578, 7.000000000000002665, -3.749999999999920064 ) ) ;
#110383 = EDGE_CURVE ( 'NONE', #218252, #286566, #13831, .T. ) ;
#110623 = DIRECTION ( 'NONE',  ( 0.000000000000000000, 0.000000000000000000, 1.000000000000000000 ) ) ;
#110673 = VERTEX_POINT ( 'NONE', #266126 ) ;
#111366 = CARTESIAN_POINT ( 'NONE',  ( 1.332267629550187849E-12, 7.000000000000000888, 3.750000000000142109 ) ) ;
#111728 = EDGE_LOOP ( 'NONE', ( #64731, #274336, #174292, #176161 ) ) ;
#112638 = EDGE_CURVE ( 'NONE', #275016, #197339, #18177, .T. ) ;
#113013 = CARTESIAN_POINT ( 'NONE',  ( -54.99999999999882760, 0.2500000000000106581, 3.750000000000031086 ) ) ;
#113273 = DIRECTION ( 'NONE',  ( 1.972152263052529514E-31, -1.000000000000000000, 1.380506584136770659E-30 ) ) ;
#114005 = AXIS2_PLACEMENT_3D ( 'NONE', #241094, #148998, #32127 ) ;
#116374 = PRODUCT_DEFINITION_CONTEXT ( 'detailed design', #194352, 'design' ) ;
#116494 = DIRECTION ( 'NONE',  ( 0.000000000000000000, 0.000000000000000000, 1.000000000000000000 ) ) ;
#116608 = ADVANCED_FACE ( 'NONE', ( #209598 ), #298676, .T. ) ;
#118024 = ORIENTED_EDGE ( 'NONE', *, *, #248122, .F. ) ;
#119162 = CARTESIAN_POINT ( 'NONE',  ( 0.000000000000000000, 7.000000000000004441, 0.000000000000000000 ) ) ;
#120923 = CARTESIAN_POINT ( 'NONE',  ( 8.881784197001252323E-13, 6.749999999999999112, -3.999999999999559464 ) ) ;
#123169 = DIRECTION ( 'NONE',  ( 1.000000000000000000, 0.000000000000000000, 0.000000000000000000 ) ) ;
#124137 = ORIENTED_EDGE ( 'NONE', *, *, #7339, .F. ) ;
#126968 = ORIENTED_EDGE ( 'NONE', *, *, #254282, .F. ) ;
#129952 = LINE ( 'NONE', #232693, #16579 ) ;
#130733 = EDGE_CURVE ( 'NONE', #20226, #230632, #159956, .T. ) ;
#130795 = DIRECTION ( 'NONE',  ( 1.000000000000000000, 0.000000000000000000, 0.000000000000000000 ) ) ;
#130899 = EDGE_CURVE ( 'NONE', #110673, #202301, #212948, .T. ) ;
#131239 = SHAPE_DEFINITION_REPRESENTATION ( #151172, #241377 ) ;
#131425 = CARTESIAN_POINT ( 'NONE',  ( 0.000000000000000000, 6.750000000000004441, 0.000000000000000000 ) ) ;
#133174 = VECTOR ( 'NONE', #113273, 1000.000000000000000 ) ;
#133346 = AXIS2_PLACEMENT_3D ( 'NONE', #207158, #211713, #16863 ) ;
#135364 = DIRECTION ( 'NONE',  ( 1.972152263052529514E-31, -1.000000000000000000, 1.380506584136770659E-30 ) ) ;
#144577 = VECTOR ( 'NONE', #37580, 1000.000000000000000 ) ;
#146018 = DIRECTION ( 'NONE',  ( 1.000000000000000000, 0.000000000000000000, 0.000000000000000000 ) ) ;
#147134 = CARTESIAN_POINT ( 'NONE',  ( -54.99999999999971578, 0.2500000000000002220, -4.000000000000225597 ) ) ;
#147536 = DIRECTION ( 'NONE',  ( 0.000000000000000000, 0.000000000000000000, -1.000000000000000000 ) ) ;
#148154 = ADVANCED_FACE ( 'NONE', ( #263765 ), #58662, .T. ) ;
#148998 = DIRECTION ( 'NONE',  ( -1.000000000000000000, 0.000000000000000000, 0.000000000000000000 ) ) ;
#149730 = EDGE_CURVE ( 'NONE', #110673, #107789, #199163, .T. ) ;
#150561 = DIRECTION ( 'NONE',  ( -1.000000000000000000, 0.000000000000000000, 0.000000000000000000 ) ) ;
#151172 = PRODUCT_DEFINITION_SHAPE ( 'NONE', 'NONE',  #193908 ) ;
#152870 = TOROIDAL_SURFACE ( 'NONE', #63290, 3.750000000000000000, 0.2500000000000000000 ) ;
#152921 = DIRECTION ( 'NONE',  ( 1.972152263052529514E-31, -1.000000000000000000, 1.380506584136770659E-30 ) ) ;
#153144 = DIRECTION ( 'NONE',  ( 1.972152263052529514E-31, -1.000000000000000000, 1.380506584136770659E-30 ) ) ;
#155264 = CARTESIAN_POINT ( 'NONE',  ( -54.99999999999971578, 0.2500000000000002220, -3.750000000000031086 ) ) ;
#155471 = ORIENTED_EDGE ( 'NONE', *, *, #149730, .F. ) ;
#155977 = LINE ( 'NONE', #109278, #144577 ) ;
#157757 = ORIENTED_EDGE ( 'NONE', *, *, #112638, .F. ) ;
#158073 = DIRECTION ( 'NONE',  ( 0.000000000000000000, 0.000000000000000000, 1.000000000000000000 ) ) ;
#159258 = EDGE_LOOP ( 'NONE', ( #58117, #106331, #118024, #43648 ) ) ;
#159336 = ORIENTED_EDGE ( 'NONE', *, *, #63342, .T. ) ;
#159956 = LINE ( 'NONE', #68019, #241261 ) ;
#160011 = ORIENTED_EDGE ( 'NONE', *, *, #112638, .T. ) ;
#160587 = DIRECTION ( 'NONE',  ( 1.000000000000000000, 0.000000000000000000, 0.000000000000000000 ) ) ;
#160836 = ORIENTED_EDGE ( 'NONE', *, *, #178059, .T. ) ;
#162865 = CARTESIAN_POINT ( 'NONE',  ( -54.99999999999971578, 6.750000000000004441, 4.000000000000114575 ) ) ;
#163127 = DIRECTION ( 'NONE',  ( 1.000000000000000000, 0.000000000000000000, 0.000000000000000000 ) ) ;
#164003 = DIRECTION ( 'NONE',  ( -1.972152263052529514E-31, 1.000000000000000000, -1.380506584136770659E-30 ) ) ;
#164117 = DIRECTION ( 'NONE',  ( -1.000000000000000000, 0.000000000000000000, 0.000000000000000000 ) ) ;
#164231 = APPLICATION_CONTEXT ( 'automotive_design' ) ;
#165808 = CARTESIAN_POINT ( 'NONE',  ( 0.000000000000000000, 0.2500000000000002220, 0.000000000000000000 ) ) ;
#165934 = DIRECTION ( 'NONE',  ( 1.972152263052529514E-31, -1.000000000000000000, 1.380506584136770659E-30 ) ) ;
#167486 = ORIENTED_EDGE ( 'NONE', *, *, #46199, .T. ) ;
#167583 = AXIS2_PLACEMENT_3D ( 'NONE', #8994, #82253, #104105 ) ;
#167701 = EDGE_CURVE ( 'NONE', #275016, #299213, #198831, .T. ) ;
#169148 = ORIENTED_EDGE ( 'NONE', *, *, #167701, .T. ) ;
#171871 = FACE_OUTER_BOUND ( 'NONE', #41098, .T. ) ;
#173067 = ADVANCED_FACE ( 'NONE', ( #211706 ), #258505, .T. ) ;
#174194 = DIRECTION ( 'NONE',  ( 0.000000000000000000, 0.000000000000000000, 1.000000000000000000 ) ) ;
#174208 = CARTESIAN_POINT ( 'NONE',  ( 8.881784197001252323E-13, 6.749999999999999112, -3.999999999999559464 ) ) ;
#174292 = ORIENTED_EDGE ( 'NONE', *, *, #46199, .F. ) ;
#174336 = CARTESIAN_POINT ( 'NONE',  ( 8.881784197001252323E-13, 0.2500000000000002220, -3.999999999999559464 ) ) ;
#176161 = ORIENTED_EDGE ( 'NONE', *, *, #22805, .F. ) ;
#178059 = EDGE_CURVE ( 'NONE', #16395, #18942, #80508, .T. ) ;
#179703 = CIRCLE ( 'NONE', #259455, 0.2500000000000002220 ) ;
#179902 = CARTESIAN_POINT ( 'NONE',  ( -54.99999999999971578, 0.000000000000000000, -3.750000000000031086 ) ) ;
#179939 = DIRECTION ( 'NONE',  ( 1.000000000000000000, 0.000000000000000000, 0.000000000000000000 ) ) ;
#181429 = DIRECTION ( 'NONE',  ( 0.000000000000000000, 0.000000000000000000, -1.000000000000000000 ) ) ;
#182495 = DIRECTION ( 'NONE',  ( 6.223015277861141707E-61, -1.380506584136770659E-30, -1.000000000000000000 ) ) ;
#183232 = ORIENTED_EDGE ( 'NONE', *, *, #296350, .F. ) ;
#183673 = PLANE ( 'NONE',  #133346 ) ;
#184514 = EDGE_LOOP ( 'NONE', ( #89774, #238846, #9299, #27927 ) ) ;
#187814 = DIRECTION ( 'NONE',  ( 0.000000000000000000, 0.000000000000000000, -1.000000000000000000 ) ) ;
#188224 = AXIS2_PLACEMENT_3D ( 'NONE', #57935, #107766, #229329 ) ;
#188707 = ADVANCED_FACE ( 'NONE', ( #50903 ), #53959, .T. ) ;
#188977 = CARTESIAN_POINT ( 'NONE',  ( -54.99999999999971578, 6.749999999999999112, 1.110223024625156540E-13 ) ) ;
#191249 = ORIENTED_EDGE ( 'NONE', *, *, #296350, .T. ) ;
#192452 = VECTOR ( 'NONE', #130795, 1000.000000000000000 ) ;
#193908 = PRODUCT_DEFINITION ( 'UNKNOWN', '', #201497, #116374 ) ;
#193929 = EDGE_CURVE ( 'NONE', #230632, #197339, #81477, .T. ) ;
#194352 = APPLICATION_CONTEXT ( 'automotive_design' ) ;
#195587 = LINE ( 'NONE', #276057, #42494 ) ;
#196085 = DIRECTION ( 'NONE',  ( -1.000000000000000000, 0.000000000000000000, 0.000000000000000000 ) ) ;
#197270 = ORIENTED_EDGE ( 'NONE', *, *, #101873, .T. ) ;
#197339 = VERTEX_POINT ( 'NONE', #174336 ) ;
#197420 = EDGE_LOOP ( 'NONE', ( #197270, #33327, #40529, #220496 ) ) ;
#198040 = AXIS2_PLACEMENT_3D ( 'NONE', #188977, #164003, #95451 ) ;
#198831 = CIRCLE ( 'NONE', #19647, 0.2500000000000002220 ) ;
#199163 = CIRCLE ( 'NONE', #64706, 0.2500000000000002220 ) ;
#199216 = ORIENTED_EDGE ( 'NONE', *, *, #218963, .T. ) ;
#200065 = CIRCLE ( 'NONE', #224890, 3.750000000000000000 ) ;
#200190 = MANIFOLD_SOLID_BREP ( 'NONE', #217380 ) ;
#200812 = FACE_OUTER_BOUND ( 'NONE', #225313, .T. ) ;
#201497 = PRODUCT_DEFINITION_FORMATION_WITH_SPECIFIED_SOURCE ( 'ANY', '', #31752, .NOT_KNOWN. ) ;
#201595 = DIRECTION ( 'NONE',  ( 1.000000000000000000, 0.000000000000000000, 0.000000000000000000 ) ) ;
#202301 = VERTEX_POINT ( 'NONE', #147134 ) ;
#202746 = AXIS2_PLACEMENT_3D ( 'NONE', #250983, #37398, #110623 ) ;
#207158 = CARTESIAN_POINT ( 'NONE',  ( -54.99999999999971578, 7.000000000000004441, -4.000000000000003553 ) ) ;
#207246 = AXIS2_PLACEMENT_3D ( 'NONE', #276458, #164117, #62936 ) ;
#207391 = EDGE_CURVE ( 'NONE', #18942, #230885, #68288, .T. ) ;
#209598 = FACE_OUTER_BOUND ( 'NONE', #45284, .T. ) ;
#210108 = CARTESIAN_POINT ( 'NONE',  ( 0.000000000000000000, 7.000000000000004441, 0.000000000000000000 ) ) ;
#211235 = FACE_OUTER_BOUND ( 'NONE', #7228, .T. ) ;
#211706 = FACE_OUTER_BOUND ( 'NONE', #159258, .T. ) ;
#211713 = DIRECTION ( 'NONE',  ( 0.000000000000000000, -1.774937036747276562E-30, 1.000000000000000000 ) ) ;
#212419 = ADVANCED_FACE ( 'NONE', ( #3180 ), #291452, .T. ) ;
#212948 = LINE ( 'NONE', #307932, #47402 ) ;
#214622 = PLANE ( 'NONE',  #81772 ) ;
#217380 = CLOSED_SHELL ( 'NONE', ( #64650, #212419, #188707, #148154, #297115, #306502, #116608, #267484, #277244, #75456, #95373, #77058, #2197, #173067 ) ) ;
#217396 = DIRECTION ( 'NONE',  ( -1.000000000000000000, 0.000000000000000000, 0.000000000000000000 ) ) ;
#217397 = CARTESIAN_POINT ( 'NONE',  ( -54.99999999999971578, 0.2500000000000002220, -4.000000000000225597 ) ) ;
#217761 = CARTESIAN_POINT ( 'NONE',  ( 1.332267629550187849E-12, 6.750000000000000888, 3.750000000000142109 ) ) ;
#217846 = CARTESIAN_POINT ( 'NONE',  ( 0.000000000000000000, 0.000000000000000000, -3.750000000000142109 ) ) ;
#218252 = VERTEX_POINT ( 'NONE', #291312 ) ;
#218963 = EDGE_CURVE ( 'NONE', #197339, #202301, #284456, .T. ) ;
#220496 = ORIENTED_EDGE ( 'NONE', *, *, #110383, .F. ) ;
#222655 = ORIENTED_EDGE ( 'NONE', *, *, #6415, .F. ) ;
#223272 = DIRECTION ( 'NONE',  ( -1.972152263052529514E-31, 1.000000000000000000, -1.380506584136770659E-30 ) ) ;
#224890 = AXIS2_PLACEMENT_3D ( 'NONE', #210108, #262970, #116494 ) ;
#225313 = EDGE_LOOP ( 'NONE', ( #2260, #53587, #32256, #160836 ) ) ;
#226294 = ORIENTED_EDGE ( 'NONE', *, *, #207391, .F. ) ;
#226673 = DIRECTION ( 'NONE',  ( 1.000000000000000000, 0.000000000000000000, 0.000000000000000000 ) ) ;
#228203 = CARTESIAN_POINT ( 'NONE',  ( 1.332267629550187849E-12, 0.2500000000000106581, 3.750000000000142109 ) ) ;
#228373 = ORIENTED_EDGE ( 'NONE', *, *, #101873, .F. ) ;
#229329 = DIRECTION ( 'NONE',  ( 0.000000000000000000, 0.000000000000000000, -1.000000000000000000 ) ) ;
#229392 = DIRECTION ( 'NONE',  ( 0.000000000000000000, -1.774937036747276562E-30, 1.000000000000000000 ) ) ;
#230447 = DIRECTION ( 'NONE',  ( 0.000000000000000000, 0.000000000000000000, -1.000000000000000000 ) ) ;
#230632 = VERTEX_POINT ( 'NONE', #72631 ) ;
#230885 = VERTEX_POINT ( 'NONE', #179902 ) ;
#232693 = CARTESIAN_POINT ( 'NONE',  ( -54.99999999999971578, 0.2500000000000106581, 3.999999999999781508 ) ) ;
#232787 = DIRECTION ( 'NONE',  ( 0.000000000000000000, 0.000000000000000000, 1.000000000000000000 ) ) ;
#233034 = DIRECTION ( 'NONE',  ( 1.000000000000000000, 0.000000000000000000, 0.000000000000000000 ) ) ;
#234914 = CARTESIAN_POINT ( 'NONE',  ( -54.99999999999971578, 6.999999999999999112, 1.110223024625156540E-13 ) ) ;
#236115 = LINE ( 'NONE', #42863, #13763 ) ;
#236572 = CARTESIAN_POINT ( 'NONE',  ( -54.99999999999971578, 6.999999999999999112, 1.110223024625156540E-13 ) ) ;
#236639 = CIRCLE ( 'NONE', #271572, 3.750000000000000000 ) ;
#237203 = AXIS2_PLACEMENT_3D ( 'NONE', #131425, #274792, #59720 ) ;
#238095 = EDGE_CURVE ( 'NONE', #292225, #110673, #98109, .T. ) ;
#238846 = ORIENTED_EDGE ( 'NONE', *, *, #299847, .F. ) ;
#240130 = CIRCLE ( 'NONE', #105703, 3.750000000000000000 ) ;
#240807 = AXIS2_PLACEMENT_3D ( 'NONE', #71489, #257066, #260138 ) ;
#241094 = CARTESIAN_POINT ( 'NONE',  ( -54.99999999999882760, 6.750000000000009770, 3.750000000000364153 ) ) ;
#241261 = VECTOR ( 'NONE', #281509, 1000.000000000000000 ) ;
#241377 = SHAPE_REPRESENTATION ( '\X2\0428043f043e043d043a0430\X0\ 8x7x63 \X2\0413041e04210422\X0\ 23360-78 DIN 6885', ( #267245 ), #74338 ) ;
#241423 = EDGE_LOOP ( 'NONE', ( #160011, #199216, #241966, #159336 ) ) ;
#241966 = ORIENTED_EDGE ( 'NONE', *, *, #130899, .F. ) ;
#242521 = AXIS2_PLACEMENT_3D ( 'NONE', #217761, #146018, #147536 ) ;
#242666 = CARTESIAN_POINT ( 'NONE',  ( 0.000000000000000000, 7.000000000000002665, -3.750000000000142109 ) ) ;
#244057 = AXIS2_PLACEMENT_3D ( 'NONE', #228203, #226673, #181429 ) ;
#244213 = CARTESIAN_POINT ( 'NONE',  ( -54.99999999999882760, 1.040834085586084257E-14, 3.750000000000031086 ) ) ;
#245283 = DIRECTION ( 'NONE',  ( 0.000000000000000000, -1.774937036747276562E-30, 1.000000000000000000 ) ) ;
#245840 = DIRECTION ( 'NONE',  ( -1.000000000000000000, 0.000000000000000000, 0.000000000000000000 ) ) ;
#246886 = VECTOR ( 'NONE', #269319, 1000.000000000000000 ) ;
#247106 = ORIENTED_EDGE ( 'NONE', *, *, #38042, .T. ) ;
#248122 = EDGE_CURVE ( 'NONE', #292225, #69711, #33209, .T. ) ;
#250177 = CARTESIAN_POINT ( 'NONE',  ( 0.000000000000000000, 0.000000000000000000, 0.000000000000000000 ) ) ;
#250983 = CARTESIAN_POINT ( 'NONE',  ( -54.99999999999971578, 6.749999999999999112, 1.110223024625156540E-13 ) ) ;
#251207 = CARTESIAN_POINT ( 'NONE',  ( -54.99999999999971578, 7.000000000000004441, 4.000000000000114575 ) ) ;
#252011 = FACE_OUTER_BOUND ( 'NONE', #82406, .T. ) ;
#252716 = CARTESIAN_POINT ( 'NONE',  ( -54.99999999999882760, 6.750000000000009770, 3.750000000000364153 ) ) ;
#254282 = EDGE_CURVE ( 'NONE', #286566, #299213, #200065, .T. ) ;
#257066 = DIRECTION ( 'NONE',  ( -1.972152263052529514E-31, 1.000000000000000000, -1.380506584136770659E-30 ) ) ;
#258505 = CYLINDRICAL_SURFACE ( 'NONE', #76393, 4.000000000000000000 ) ;
#259259 = CARTESIAN_POINT ( 'NONE',  ( -54.99999999999971578, 7.000000000000002665, -3.749999999999920064 ) ) ;
#259455 = AXIS2_PLACEMENT_3D ( 'NONE', #32341, #196085, #174194 ) ;
#260138 = DIRECTION ( 'NONE',  ( 0.000000000000000000, 0.000000000000000000, 1.000000000000000000 ) ) ;
#262970 = DIRECTION ( 'NONE',  ( -1.972152263052529514E-31, 1.000000000000000000, -1.380506584136770659E-30 ) ) ;
#263005 = EDGE_LOOP ( 'NONE', ( #81802, #222655, #169148, #126968 ) ) ;
#263765 = FACE_OUTER_BOUND ( 'NONE', #70030, .T. ) ;
#263840 = AXIS2_PLACEMENT_3D ( 'NONE', #165808, #48830, #91032 ) ;
#264184 = EDGE_LOOP ( 'NONE', ( #82425, #29603, #298034, #247106 ) ) ;
#265631 = AXIS2_PLACEMENT_3D ( 'NONE', #60615, #108926, #280298 ) ;
#266126 = CARTESIAN_POINT ( 'NONE',  ( -54.99999999999971578, 6.750000000000004441, -4.000000000000003553 ) ) ;
#267245 = AXIS2_PLACEMENT_3D ( 'NONE', #250177, #158073, #179939 ) ;
#267484 = ADVANCED_FACE ( 'NONE', ( #14871 ), #301598, .T. ) ;
#269319 = DIRECTION ( 'NONE',  ( 1.000000000000000000, 0.000000000000000000, 0.000000000000000000 ) ) ;
#271572 = AXIS2_PLACEMENT_3D ( 'NONE', #15789, #18860, #229392 ) ;
#274336 = ORIENTED_EDGE ( 'NONE', *, *, #178059, .F. ) ;
#274792 = DIRECTION ( 'NONE',  ( 1.972152263052529514E-31, -1.000000000000000000, 1.380506584136770659E-30 ) ) ;
#275016 = VERTEX_POINT ( 'NONE', #120923 ) ;
#275032 = SHAPE_REPRESENTATION_RELATIONSHIP ( 'NONE' , 'NONE' ,  #241377, #105568 ) ;
#275396 = CIRCLE ( 'NONE', #265631, 4.000000000000000000 ) ;
#275463 = UNCERTAINTY_MEASURE_WITH_UNIT (LENGTH_MEASURE( 1.000000000000000082E-05 ), #30984, 'distance_accuracy_value', 'NONE');
#276057 = CARTESIAN_POINT ( 'NONE',  ( -54.99999999999971578, 6.750000000000004441, 4.000000000000114575 ) ) ;
#276349 = DIRECTION ( 'NONE',  ( -1.972152263052529514E-31, 1.000000000000000000, -1.380506584136770659E-30 ) ) ;
#276458 = CARTESIAN_POINT ( 'NONE',  ( -54.99999999999882760, 0.2500000000000106581, 3.750000000000031086 ) ) ;
#277244 = ADVANCED_FACE ( 'NONE', ( #200812 ), #292680, .F. ) ;
#277984 = DIRECTION ( 'NONE',  ( -1.972152263052529514E-31, 1.000000000000000000, -1.380506584136770659E-30 ) ) ;
#278545 = ORIENTED_EDGE ( 'NONE', *, *, #71240, .F. ) ;
#279443 = DIRECTION ( 'NONE',  ( -2.722569184064249497E-61, 1.380506584136770659E-30, 1.000000000000000000 ) ) ;
#280298 = DIRECTION ( 'NONE',  ( 0.000000000000000000, 0.000000000000000000, 1.000000000000000000 ) ) ;
#281509 = DIRECTION ( 'NONE',  ( 1.972152263052529514E-31, -1.000000000000000000, 1.380506584136770659E-30 ) ) ;
#281570 = CARTESIAN_POINT ( 'NONE',  ( 8.881784197001252323E-13, 6.999999999999999112, -3.999999999999559464 ) ) ;
#282828 = DIRECTION ( 'NONE',  ( 0.000000000000000000, 0.000000000000000000, -1.000000000000000000 ) ) ;
#284456 = LINE ( 'NONE', #217397, #91521 ) ;
#286383 = AXIS2_PLACEMENT_3D ( 'NONE', #26941, #223272, #103276 ) ;
#286566 = VERTEX_POINT ( 'NONE', #111366 ) ;
#289435 = ORIENTED_EDGE ( 'NONE', *, *, #130733, .T. ) ;
#291312 = CARTESIAN_POINT ( 'NONE',  ( -54.99999999999882760, 7.000000000000009770, 3.750000000000364153 ) ) ;
#291385 = CARTESIAN_POINT ( 'NONE',  ( 1.332267629550187849E-12, 1.040834085586084257E-14, 3.750000000000142109 ) ) ;
#291452 = CYLINDRICAL_SURFACE ( 'NONE', #85323, 0.2500000000000002220 ) ;
#292225 = VERTEX_POINT ( 'NONE', #162865 ) ;
#292680 = PLANE ( 'NONE',  #167583 ) ;
#295035 = CARTESIAN_POINT ( 'NONE',  ( -54.99999999999971578, 7.000000000000004441, 4.000000000000114575 ) ) ;
#295590 = CARTESIAN_POINT ( 'NONE',  ( -54.99999999999971578, 0.2500000000000106581, 3.999999999999781508 ) ) ;
#296350 = EDGE_CURVE ( 'NONE', #230885, #202301, #33796, .T. ) ;
#296554 = DIRECTION ( 'NONE',  ( 0.000000000000000000, 0.000000000000000000, -1.000000000000000000 ) ) ;
#297115 = ADVANCED_FACE ( 'NONE', ( #252011 ), #102416, .T. ) ;
#298034 = ORIENTED_EDGE ( 'NONE', *, *, #130733, .F. ) ;
#298392 = ORIENTED_EDGE ( 'NONE', *, *, #299847, .T. ) ;
#298676 = TOROIDAL_SURFACE ( 'NONE', #263840, 3.750000000000000000, 0.2500000000000000000 ) ;
#299213 = VERTEX_POINT ( 'NONE', #242666 ) ;
#299693 = CARTESIAN_POINT ( 'NONE',  ( 0.000000000000000000, 6.750000000000004441, 0.000000000000000000 ) ) ;
#299847 = EDGE_CURVE ( 'NONE', #299213, #107789, #155977, .T. ) ;
#301598 = CYLINDRICAL_SURFACE ( 'NONE', #45482, 0.2500000000000002220 ) ;
#302670 = ORIENTED_EDGE ( 'NONE', *, *, #193929, .T. ) ;
#304422 = CARTESIAN_POINT ( 'NONE',  ( -54.99999999999971578, 6.999999999999999112, 1.110223024625156540E-13 ) ) ;
#306193 = CYLINDRICAL_SURFACE ( 'NONE', #62173, 4.000000000000000000 ) ;
#306502 = ADVANCED_FACE ( 'NONE', ( #171871 ), #47615, .T. ) ;
#307932 = CARTESIAN_POINT ( 'NONE',  ( -54.99999999999971578, 7.000000000000004441, -4.000000000000003553 ) ) ;
ENDSEC;
END-ISO-10303-21;
