  0
SECTION
  2
HEADER
  9
$ACADVER
  1
AC1024
  9
$ACADMAINTVER
 70
6
  9
$DWGCODEPAGE
  3
ANSI_1252
  9
$LASTSAVEDBY
  1
ezdxf
  9
$INSBASE
 10
0.0
 20
0.0
 30
0.0
  9
$EXTMIN
 10
1e+20
 20
1e+20
 30
1e+20
  9
$EXTMAX
 10
-1e+20
 20
-1e+20
 30
-1e+20
  9
$LIMMIN
 10
0.0
 20
0.0
  9
$LIMMAX
 10
420.0
 20
297.0
  9
$ORTHOMODE
 70
0
  9
$REGENMODE
 70
1
  9
$FILLMODE
 70
1
  9
$QTEXTMODE
 70
0
  9
$MIRRTEXT
 70
1
  9
$LTSCALE
 40
1.0
  9
$ATTMODE
 70
1
  9
$TEXTSIZE
 40
2.5
  9
$TRACEWID
 40
1.0
  9
$TEXTSTYLE
  7
Standard
  9
$CLAYER
  8
0
  9
$CELTYPE
  6
ByLayer
  9
$CECOLOR
 62
256
  9
$CELTSCALE
 40
1.0
  9
$DISPSILH
 70
0
  9
$DIMSCALE
 40
1.0
  9
$DIMASZ
 40
2.5
  9
$DIMEXO
 40
0.625
  9
$DIMDLI
 40
3.75
  9
$DIMRND
 40
0.0
  9
$DIMDLE
 40
0.0
  9
$DIMEXE
 40
1.25
  9
$DIMTP
 40
0.0
  9
$DIMTM
 40
0.0
  9
$DIMTXT
 40
2.5
  9
$DIMCEN
 40
2.5
  9
$DIMTSZ
 40
0.0
  9
$DIMTOL
 70
0
  9
$DIMLIM
 70
0
  9
$DIMTIH
 70
0
  9
$DIMTOH
 70
0
  9
$DIMSE1
 70
0
  9
$DIMSE2
 70
0
  9
$DIMTAD
 70
1
  9
$DIMZIN
 70
8
  9
$DIMBLK
  1

  9
$DIMASO
 70
1
  9
$DIMSHO
 70
1
  9
$DIMPOST
  1

  9
$DIMAPOST
  1

  9
$DIMALT
 70
0
  9
$DIMALTD
 70
3
  9
$DIMALTF
 40
0.03937007874
  9
$DIMLFAC
 40
1.0
  9
$DIMTOFL
 70
1
  9
$DIMTVP
 40
0.0
  9
$DIMTIX
 70
0
  9
$DIMSOXD
 70
0
  9
$DIMSAH
 70
0
  9
$DIMBLK1
  1

  9
$DIMBLK2
  1

  9
$DIMSTYLE
  2
ISO-25
  9
$DIMCLRD
 70
0
  9
$DIMCLRE
 70
0
  9
$DIMCLRT
 70
0
  9
$DIMTFAC
 40
1.0
  9
$DIMGAP
 40
0.625
  9
$DIMJUST
 70
0
  9
$DIMSD1
 70
0
  9
$DIMSD2
 70
0
  9
$DIMTOLJ
 70
0
  9
$DIMTZIN
 70
8
  9
$DIMALTZ
 70
0
  9
$DIMALTTZ
 70
0
  9
$DIMUPT
 70
0
  9
$DIMDEC
 70
2
  9
$DIMTDEC
 70
2
  9
$DIMALTU
 70
2
  9
$DIMALTTD
 70
3
  9
$DIMTXSTY
  7
Standard
  9
$DIMAUNIT
 70
0
  9
$DIMADEC
 70
0
  9
$DIMALTRND
 40
0.0
  9
$DIMAZIN
 70
0
  9
$DIMDSEP
 70
44
  9
$DIMATFIT
 70
3
  9
$DIMFRAC
 70
0
  9
$DIMLDRBLK
  1

  9
$DIMLUNIT
 70
2
  9
$DIMLWD
 70
-2
  9
$DIMLWE
 70
-2
  9
$DIMTMOVE
 70
0
  9
$DIMFXL
 40
1.0
  9
$DIMFXLON
 70
0
  9
$DIMJOGANG
 40
0.785398163397
  9
$DIMTFILL
 70
0
  9
$DIMTFILLCLR
 70
0
  9
$DIMARCSYM
 70
0
  9
$DIMLTYPE
  6

  9
$DIMLTEX1
  6

  9
$DIMLTEX2
  6

  9
$DIMTXTDIRECTION
 70
0
  9
$LUNITS
 70
2
  9
$LUPREC
 70
4
  9
$SKETCHINC
 40
1.0
  9
$FILLETRAD
 40
10.0
  9
$AUNITS
 70
0
  9
$AUPREC
 70
2
  9
$MENU
  1
.
  9
$ELEVATION
 40
0.0
  9
$PELEVATION
 40
0.0
  9
$THICKNESS
 40
0.0
  9
$LIMCHECK
 70
0
  9
$CHAMFERA
 40
0.0
  9
$CHAMFERB
 40
0.0
  9
$CHAMFERC
 40
0.0
  9
$CHAMFERD
 40
0.0
  9
$SKPOLY
 70
0
  9
$TDCREATE
 40
2461314.6162962965
  9
$TDUCREATE
 40
2458532.153996898
  9
$TDUPDATE
 40
2461314.6162962965
  9
$TDUUPDATE
 40
2458532.1544311
  9
$TDINDWG
 40
0.0
  9
$TDUSRTIMER
 40
0.0
  9
$USRTIMER
 70
1
  9
$ANGBASE
 50
0.0
  9
$ANGDIR
 70
0
  9
$PDMODE
 70
0
  9
$PDSIZE
 40
0.0
  9
$PLINEWID
 40
0.0
  9
$SPLFRAME
 70
0
  9
$SPLINETYPE
 70
6
  9
$SPLINESEGS
 70
8
  9
$HANDSEED
  5
49
  9
$SURFTAB1
 70
6
  9
$SURFTAB2
 70
6
  9
$SURFTYPE
 70
6
  9
$SURFU
 70
6
  9
$SURFV
 70
6
  9
$UCSBASE
  2

  9
$UCSNAME
  2

  9
$UCSORG
 10
0.0
 20
0.0
 30
0.0
  9
$UCSXDIR
 10
1.0
 20
0.0
 30
0.0
  9
$UCSYDIR
 10
0.0
 20
1.0
 30
0.0
  9
$UCSORTHOREF
  2

  9
$UCSORTHOVIEW
 70
0
  9
$UCSORGTOP
 10
0.0
 20
0.0
 30
0.0
  9
$UCSORGBOTTOM
 10
0.0
 20
0.0
 30
0.0
  9
$UCSORGLEFT
 10
0.0
 20
0.0
 30
0.0
  9
$UCSORGRIGHT
 10
0.0
 20
0.0
 30
0.0
  9
$UCSORGFRONT
 10
0.0
 20
0.0
 30
0.0
  9
$UCSORGBACK
 10
0.0
 20
0.0
 30
0.0
  9
$PUCSBASE
  2

  9
$PUCSNAME
  2

  9
$PUCSORG
 10
0.0
 20
0.0
 30
0.0
  9
$PUCSXDIR
 10
1.0
 20
0.0
 30
0.0
  9
$PUCSYDIR
 10
0.0
 20
1.0
 30
0.0
  9
$PUCSORTHOREF
  2

  9
$PUCSORTHOVIEW
 70
0
  9
$PUCSORGTOP
 10
0.0
 20
0.0
 30
0.0
  9
$PUCSORGBOTTOM
 10
0.0
 20
0.0
 30
0.0
  9
$PUCSORGLEFT
 10
0.0
 20
0.0
 30
0.0
  9
$PUCSORGRIGHT
 10
0.0
 20
0.0
 30
0.0
  9
$PUCSORGFRONT
 10
0.0
 20
0.0
 30
0.0
  9
$PUCSORGBACK
 10
0.0
 20
0.0
 30
0.0
  9
$USERI1
 70
0
  9
$USERI2
 70
0
  9
$USERI3
 70
0
  9
$USERI4
 70
0
  9
$USERI5
 70
0
  9
$USERR1
 40
0.0
  9
$USERR2
 40
0.0
  9
$USERR3
 40
0.0
  9
$USERR4
 40
0.0
  9
$USERR5
 40
0.0
  9
$WORLDVIEW
 70
1
  9
$SHADEDGE
 70
3
  9
$SHADEDIF
 70
70
  9
$TILEMODE
 70
1
  9
$MAXACTVP
 70
64
  9
$PINSBASE
 10
0.0
 20
0.0
 30
0.0
  9
$PLIMCHECK
 70
0
  9
$PEXTMIN
 10
1e+20
 20
1e+20
 30
1e+20
  9
$PEXTMAX
 10
-1e+20
 20
-1e+20
 30
-1e+20
  9
$PLIMMIN
 10
0.0
 20
0.0
  9
$PLIMMAX
 10
420.0
 20
297.0
  9
$UNITMODE
 70
0
  9
$VISRETAIN
 70
1
  9
$PLINEGEN
 70
0
  9
$PSLTSCALE
 70
1
  9
$TREEDEPTH
 70
3020
  9
$CMLSTYLE
  2
Standard
  9
$CMLJUST
 70
0
  9
$CMLSCALE
 40
20.0
  9
$PROXYGRAPHICS
 70
1
  9
$MEASUREMENT
 70
1
  9
$CELWEIGHT
370
-1
  9
$ENDCAPS
280
0
  9
$JOINSTYLE
280
0
  9
$LWDISPLAY
290
0
  9
$INSUNITS
 70
4
  9
$HYPERLINKBASE
  1

  9
$STYLESHEET
  1

  9
$XEDIT
290
1
  9
$CEPSNTYPE
380
0
  9
$PSTYLEMODE
290
1
  9
$FINGERPRINTGUID
  2
{5DA75992-CBCA-47EC-BA37-FB15D5470414}
  9
$VERSIONGUID
  2
{B63677AA-06A3-4E06-9D08-25309943C2B5}
  9
$EXTNAMES
290
1
  9
$PSVPSCALE
 40
0.0
  9
$OLESTARTUP
290
0
  9
$SORTENTS
280
127
  9
$INDEXCTL
280
0
  9
$HIDETEXT
280
1
  9
$XCLIPFRAME
280
1
  9
$HALOGAP
280
0
  9
$OBSCOLOR
 70
257
  9
$OBSLTYPE
280
0
  9
$INTERSECTIONDISPLAY
280
0
  9
$INTERSECTIONCOLOR
 70
257
  9
$DIMASSOC
280
2
  9
$PROJECTNAME
  1

  9
$CAMERADISPLAY
290
0
  9
$LENSLENGTH
 40
50.0
  9
$CAMERAHEIGHT
 40
0.0
  9
$STEPSPERSEC
 40
24.0
  9
$STEPSIZE
 40
100.0
  9
$3DDWFPREC
 40
2.0
  9
$PSOLWIDTH
 40
0.005
  9
$PSOLHEIGHT
 40
0.08
  9
$LOFTANG1
 40
1.570796326795
  9
$LOFTANG2
 40
1.570796326795
  9
$LOFTMAG1
 40
0.0
  9
$LOFTMAG2
 40
0.0
  9
$LOFTPARAM
 70
7
  9
$LOFTNORMALS
280
1
  9
$LATITUDE
 40
37.795
  9
$LONGITUDE
 40
-122.394
  9
$NORTHDIRECTION
 40
0.0
  9
$TIMEZONE
 70
-8000
  9
$LIGHTGLYPHDISPLAY
280
1
  9
$TILEMODELIGHTSYNCH
280
1
  9
$CMATERIAL
347
20
  9
$SOLIDHIST
280
0
  9
$SHOWHIST
280
1
  9
$DWFFRAME
280
2
  9
$DGNFRAME
280
2
  9
$REALWORLDSCALE
290
1
  9
$INTERFERECOLOR
 62
256
  9
$CSHADOW
280
0
  9
$SHADOWPLANELOCATION
 40
0.0
  0
ENDSEC
  0
SECTION
  2
CLASSES
  0
CLASS
  1
ACDBDICTIONARYWDFLT
  2
AcDbDictionaryWithDefault
  3
ObjectDBX Classes
 90
0
 91
0
280
0
281
0
  0
CLASS
  1
SUN
  2
AcDbSun
  3
SCENEOE
 90
1153
 91
0
280
0
281
0
  0
CLASS
  1
VISUALSTYLE
  2
AcDbVisualStyle
  3
ObjectDBX Classes
 90
4095
 91
0
280
0
281
0
  0
CLASS
  1
MATERIAL
  2
AcDbMaterial
  3
ObjectDBX Classes
 90
1153
 91
0
280
0
281
0
  0
CLASS
  1
SCALE
  2
AcDbScale
  3
ObjectDBX Classes
 90
1153
 91
0
280
0
281
0
  0
CLASS
  1
TABLESTYLE
  2
AcDbTableStyle
  3
ObjectDBX Classes
 90
4095
 91
0
280
0
281
0
  0
CLASS
  1
MLEADERSTYLE
  2
AcDbMLeaderStyle
  3
ACDB_MLEADERSTYLE_CLASS
 90
4095
 91
0
280
0
281
0
  0
CLASS
  1
DICTIONARYVAR
  2
AcDbDictionaryVar
  3
ObjectDBX Classes
 90
0
 91
0
280
0
281
0
  0
CLASS
  1
CELLSTYLEMAP
  2
AcDbCellStyleMap
  3
ObjectDBX Classes
 90
1152
 91
0
280
0
281
0
  0
CLASS
  1
MENTALRAYRENDERSETTINGS
  2
AcDbMentalRayRenderSettings
  3
SCENEOE
 90
1024
 91
0
280
0
281
0
  0
CLASS
  1
ACDBDETAILVIEWSTYLE
  2
AcDbDetailViewStyle
  3
ObjectDBX Classes
 90
1025
 91
0
280
0
281
0
  0
CLASS
  1
ACDBSECTIONVIEWSTYLE
  2
AcDbSectionViewStyle
  3
ObjectDBX Classes
 90
1025
 91
0
280
0
281
0
  0
CLASS
  1
RASTERVARIABLES
  2
AcDbRasterVariables
  3
ISM
 90
0
 91
0
280
0
281
0
  0
CLASS
  1
ACDBPLACEHOLDER
  2
AcDbPlaceHolder
  3
ObjectDBX Classes
 90
0
 91
0
280
0
281
0
  0
CLASS
  1
LAYOUT
  2
AcDbLayout
  3
ObjectDBX Classes
 90
0
 91
0
280
0
281
0
  0
ENDSEC
  0
SECTION
  2
TABLES
  0
TABLE
  2
VPORT
  5
8
330
0
100
AcDbSymbolTable
 70
1
  0
VPORT
  5
23
330
8
100
AcDbSymbolTableRecord
100
AcDbViewportTableRecord
  2
*Active
 70
0
 10
0.0
 20
0.0
 11
1.0
 21
1.0
 12
0.0
 22
0.0
 13
0.0
 23
0.0
 14
0.5
 24
0.5
 15
0.5
 25
0.5
 16
0.0
 26
0.0
 36
1.0
 17
0.0
 27
0.0
 37
0.0
 40
1000.0
 41
1.34
 42
50.0
 43
0.0
 44
0.0
 50
0.0
 51
0.0
 71
0
 72
1000
 73
1
 74
3
 75
0
 76
0
 77
0
 78
0
281
0
 65
0
146
0.0
  0
ENDTAB
  0
TABLE
  2
LTYPE
  5
2
330
0
100
AcDbSymbolTable
 70
3
  0
LTYPE
  5
24
330
2
100
AcDbSymbolTableRecord
100
AcDbLinetypeTableRecord
  2
ByBlock
 70
0
  3

 72
65
 73
0
 40
0.0
  0
LTYPE
  5
25
330
2
100
AcDbSymbolTableRecord
100
AcDbLinetypeTableRecord
  2
ByLayer
 70
0
  3

 72
65
 73
0
 40
0.0
  0
LTYPE
  5
26
330
2
100
AcDbSymbolTableRecord
100
AcDbLinetypeTableRecord
  2
Continuous
 70
0
  3

 72
65
 73
0
 40
0.0
  0
ENDTAB
  0
TABLE
  2
LAYER
  5
1
330
0
100
AcDbSymbolTable
 70
4
  0
LAYER
  5
27
330
1
100
AcDbSymbolTableRecord
100
AcDbLayerTableRecord
  2
0
 70
0
 62
7
  6
Continuous
370
-3
390
13
347
21
  0
LAYER
  5
28
330
1
100
AcDbSymbolTableRecord
100
AcDbLayerTableRecord
  2
Defpoints
 70
0
 62
7
  6
Continuous
290
0
370
-3
390
13
347
21
  0
LAYER
  5
2F
330
1
100
AcDbSymbolTableRecord
100
AcDbLayerTableRecord
  2
CUT
 70
0
 62
1
  6
Continuous
370
-3
390
13
347
21
  0
LAYER
  5
30
330
1
100
AcDbSymbolTableRecord
100
AcDbLayerTableRecord
  2
INFO
 70
0
 62
7
  6
Continuous
370
-3
390
13
347
21
  0
ENDTAB
  0
TABLE
  2
STYLE
  5
5
330
0
100
AcDbSymbolTable
 70
1
  0
STYLE
  5
29
330
5
100
AcDbSymbolTableRecord
100
AcDbTextStyleTableRecord
  2
Standard
 70
0
 40
0.0
 41
1.0
 50
0.0
 71
0
 42
2.5
  3
txt
  4

  0
ENDTAB
  0
TABLE
  2
VIEW
  5
7
330
0
100
AcDbSymbolTable
 70
0
  0
ENDTAB
  0
TABLE
  2
UCS
  5
6
330
0
100
AcDbSymbolTable
 70
0
  0
ENDTAB
  0
TABLE
  2
APPID
  5
3
330
0
100
AcDbSymbolTable
 70
3
  0
APPID
  5
2A
330
3
100
AcDbSymbolTableRecord
100
AcDbRegAppTableRecord
  2
ACAD
 70
0
  0
APPID
  5
46
330
3
100
AcDbSymbolTableRecord
100
AcDbRegAppTableRecord
  2
HATCHBACKGROUNDCOLOR
 70
0
  0
APPID
  5
47
330
3
100
AcDbSymbolTableRecord
100
AcDbRegAppTableRecord
  2
EZDXF
 70
0
  0
ENDTAB
  0
TABLE
  2
DIMSTYLE
  5
4
330
0
100
AcDbSymbolTable
 70
1
100
AcDbDimStyleTable
  0
DIMSTYLE
105
2B
330
4
100
AcDbSymbolTableRecord
100
AcDbDimStyleTableRecord
  2
Standard
 70
0
 40
1.0
 41
2.5
 42
0.625
 43
3.75
 44
1.25
 45
0.0
 46
0.0
 47
0.0
 48
0.0
 49
2.5
140
2.5
141
2.5
142
0.0
143
0.03937007874
144
1.0
145
0.0
146
1.0
147
0.625
148
0.0
 69
0
 70
0
 71
0
 72
0
 73
0
 74
0
 75
0
 76
0
 77
1
 78
8
 79
3
170
0
171
3
172
1
173
0
174
0
175
0
176
0
177
0
178
0
179
2
271
2
272
2
273
2
274
3
275
0
276
0
277
2
278
44
279
0
280
0
281
0
282
0
283
0
284
8
285
0
286
0
288
0
289
3
290
0
371
-2
372
-2
  0
ENDTAB
  0
TABLE
  2
BLOCK_RECORD
  5
9
330
0
100
AcDbSymbolTable
 70
2
  0
BLOCK_RECORD
  5
17
330
9
100
AcDbSymbolTableRecord
100
AcDbBlockTableRecord
  2
*Model_Space
340
1A
 70
0
280
1
281
0
  0
BLOCK_RECORD
  5
1B
330
9
100
AcDbSymbolTableRecord
100
AcDbBlockTableRecord
  2
*Paper_Space
340
1E
 70
0
280
1
281
0
  0
ENDTAB
  0
ENDSEC
  0
SECTION
  2
BLOCKS
  0
BLOCK
  5
18
330
17
100
AcDbEntity
  8
0
100
AcDbBlockBegin
  2
*Model_Space
 70
0
 10
0.0
 20
0.0
 30
0.0
  3
*Model_Space
  1

  0
ENDBLK
  5
19
330
17
100
AcDbEntity
  8
0
100
AcDbBlockEnd
  0
BLOCK
  5
1C
330
1B
100
AcDbEntity
  8
0
100
AcDbBlockBegin
  2
*Paper_Space
 70
0
 10
0.0
 20
0.0
 30
0.0
  3
*Paper_Space
  1

  0
ENDBLK
  5
1D
330
1B
100
AcDbEntity
  8
0
100
AcDbBlockEnd
  0
ENDSEC
  0
SECTION
  2
ENTITIES
  0
LWPOLYLINE
  5
31
330
17
100
AcDbEntity
  8
CUT
100
AcDbPolyline
 90
4
 70
1
 10
50.0
 20
50.0
 10
170.0
 20
50.0
 10
170.0
 20
170.0
 10
50.0
 20
170.0
  0
LWPOLYLINE
  5
32
330
17
100
AcDbEntity
  8
CUT
100
AcDbPolyline
 90
64
 70
1
 10
75.5
 20
80.0
 10
75.47351599669709
 20
80.53909427181259
 10
75.39431904221777
 20
81.07299677108871
 10
75.26317184652714
 20
81.59656572489955
 10
75.08133742881208
 20
82.104758878008
 10
74.85056695391596
 20
82.59268205254298
 10
74.573082867664
 20
83.05563628160782
 10
74.25155749349506
 20
83.48916306290005
 10
73.88908729652601
 20
83.88908729652601
 10
73.48916306290005
 20
84.25155749349506
 10
73.05563628160782
 20
84.573082867664
 10
72.59268205254298
 20
84.85056695391596
 10
72.104758878008
 20
85.08133742881208
 10
71.59656572489955
 20
85.26317184652714
 10
71.07299677108871
 20
85.39431904221777
 10
70.53909427181259
 20
85.47351599669709
 10
70.0
 20
85.5
 10
69.46090572818741
 20
85.47351599669709
 10
68.92700322891129
 20
85.39431904221777
 10
68.40343427510045
 20
85.26317184652714
 10
67.895241121992
 20
85.08133742881208
 10
67.40731794745702
 20
84.85056695391596
 10
66.9443637183922
 20
84.573082867664
 10
66.51083693709995
 20
84.25155749349506
 10
66.11091270347399
 20
83.88908729652601
 10
65.74844250650494
 20
83.48916306290005
 10
65.426917132336
 20
83.05563628160782
 10
65.14943304608404
 20
82.59268205254298
 10
64.91866257118792
 20
82.104758878008
 10
64.73682815347286
 20
81.59656572489955
 10
64.60568095778223
 20
81.07299677108871
 10
64.52648400330291
 20
80.53909427181259
 10
64.5
 20
80.0
 10
64.52648400330291
 20
79.46090572818741
 10
64.60568095778223
 20
78.92700322891129
 10
64.73682815347286
 20
78.40343427510045
 10
64.91866257118792
 20
77.895241121992
 10
65.14943304608404
 20
77.40731794745702
 10
65.426917132336
 20
76.9443637183922
 10
65.74844250650494
 20
76.51083693709995
 10
66.11091270347399
 20
76.11091270347399
 10
66.51083693709995
 20
75.74844250650494
 10
66.94436371839218
 20
75.426917132336
 10
67.40731794745702
 20
75.14943304608404
 10
67.895241121992
 20
74.91866257118792
 10
68.40343427510045
 20
74.73682815347286
 10
68.92700322891129
 20
74.60568095778223
 10
69.46090572818741
 20
74.52648400330291
 10
70.0
 20
74.5
 10
70.53909427181259
 20
74.52648400330291
 10
71.07299677108871
 20
74.60568095778223
 10
71.59656572489953
 20
74.73682815347286
 10
72.104758878008
 20
74.91866257118792
 10
72.59268205254298
 20
75.14943304608404
 10
73.0556362816078
 20
75.426917132336
 10
73.48916306290005
 20
75.74844250650494
 10
73.88908729652601
 20
76.11091270347399
 10
74.25155749349506
 20
76.51083693709995
 10
74.573082867664
 20
76.94436371839218
 10
74.85056695391594
 20
77.40731794745702
 10
75.08133742881208
 20
77.895241121992
 10
75.26317184652714
 20
78.40343427510045
 10
75.39431904221777
 20
78.92700322891129
 10
75.47351599669709
 20
79.46090572818741
  0
LWPOLYLINE
  5
33
330
17
100
AcDbEntity
  8
CUT
100
AcDbPolyline
 90
64
 70
1
 10
75.5
 20
140.0
 10
75.47351599669709
 20
140.5390942718126
 10
75.39431904221777
 20
141.0729967710887
 10
75.26317184652714
 20
141.59656572489953
 10
75.08133742881208
 20
142.104758878008
 10
74.85056695391596
 20
142.59268205254298
 10
74.573082867664
 20
143.0556362816078
 10
74.25155749349506
 20
143.48916306290005
 10
73.88908729652601
 20
143.88908729652601
 10
73.48916306290005
 20
144.25155749349506
 10
73.05563628160782
 20
144.573082867664
 10
72.59268205254298
 20
144.85056695391594
 10
72.104758878008
 20
145.08133742881208
 10
71.59656572489955
 20
145.26317184652714
 10
71.07299677108871
 20
145.39431904221777
 10
70.53909427181259
 20
145.47351599669707
 10
70.0
 20
145.5
 10
69.46090572818741
 20
145.47351599669707
 10
68.92700322891129
 20
145.39431904221777
 10
68.40343427510045
 20
145.26317184652714
 10
67.895241121992
 20
145.08133742881208
 10
67.40731794745702
 20
144.85056695391594
 10
66.9443637183922
 20
144.573082867664
 10
66.51083693709995
 20
144.25155749349506
 10
66.11091270347399
 20
143.88908729652601
 10
65.74844250650494
 20
143.48916306290005
 10
65.426917132336
 20
143.0556362816078
 10
65.14943304608404
 20
142.59268205254298
 10
64.91866257118792
 20
142.104758878008
 10
64.73682815347286
 20
141.59656572489953
 10
64.60568095778223
 20
141.0729967710887
 10
64.52648400330291
 20
140.5390942718126
 10
64.5
 20
140.0
 10
64.52648400330291
 20
139.4609057281874
 10
64.60568095778223
 20
138.9270032289113
 10
64.73682815347286
 20
138.40343427510047
 10
64.91866257118792
 20
137.895241121992
 10
65.14943304608404
 20
137.40731794745702
 10
65.426917132336
 20
136.9443637183922
 10
65.74844250650494
 20
136.51083693709995
 10
66.11091270347399
 20
136.11091270347399
 10
66.51083693709995
 20
135.74844250650494
 10
66.94436371839218
 20
135.426917132336
 10
67.40731794745702
 20
135.14943304608406
 10
67.895241121992
 20
134.91866257118792
 10
68.40343427510045
 20
134.73682815347286
 10
68.92700322891129
 20
134.60568095778223
 10
69.46090572818741
 20
134.52648400330293
 10
70.0
 20
134.5
 10
70.53909427181259
 20
134.52648400330293
 10
71.07299677108871
 20
134.60568095778223
 10
71.59656572489953
 20
134.73682815347286
 10
72.104758878008
 20
134.91866257118792
 10
72.59268205254298
 20
135.14943304608406
 10
73.0556362816078
 20
135.426917132336
 10
73.48916306290005
 20
135.74844250650494
 10
73.88908729652601
 20
136.11091270347399
 10
74.25155749349506
 20
136.51083693709995
 10
74.573082867664
 20
136.9443637183922
 10
74.85056695391594
 20
137.40731794745702
 10
75.08133742881208
 20
137.895241121992
 10
75.26317184652714
 20
138.40343427510047
 10
75.39431904221777
 20
138.9270032289113
 10
75.47351599669709
 20
139.4609057281874
  0
LWPOLYLINE
  5
34
330
17
100
AcDbEntity
  8
CUT
100
AcDbPolyline
 90
64
 70
1
 10
155.5
 20
80.0
 10
155.47351599669707
 20
80.53909427181259
 10
155.39431904221777
 20
81.07299677108871
 10
155.26317184652714
 20
81.59656572489955
 10
155.08133742881208
 20
82.104758878008
 10
154.85056695391594
 20
82.59268205254298
 10
154.573082867664
 20
83.05563628160782
 10
154.25155749349506
 20
83.48916306290005
 10
153.88908729652601
 20
83.88908729652601
 10
153.48916306290005
 20
84.25155749349506
 10
153.0556362816078
 20
84.573082867664
 10
152.59268205254298
 20
84.85056695391596
 10
152.104758878008
 20
85.08133742881208
 10
151.59656572489953
 20
85.26317184652714
 10
151.0729967710887
 20
85.39431904221777
 10
150.5390942718126
 20
85.47351599669709
 10
150.0
 20
85.5
 10
149.4609057281874
 20
85.47351599669709
 10
148.9270032289113
 20
85.39431904221777
 10
148.40343427510047
 20
85.26317184652714
 10
147.895241121992
 20
85.08133742881208
 10
147.40731794745702
 20
84.85056695391596
 10
146.9443637183922
 20
84.573082867664
 10
146.51083693709995
 20
84.25155749349506
 10
146.11091270347399
 20
83.88908729652601
 10
145.74844250650494
 20
83.48916306290005
 10
145.426917132336
 20
83.05563628160782
 10
145.14943304608406
 20
82.59268205254298
 10
144.91866257118792
 20
82.104758878008
 10
144.73682815347286
 20
81.59656572489955
 10
144.60568095778223
 20
81.07299677108871
 10
144.52648400330293
 20
80.53909427181259
 10
144.5
 20
80.0
 10
144.52648400330293
 20
79.46090572818741
 10
144.60568095778223
 20
78.92700322891129
 10
144.73682815347286
 20
78.40343427510045
 10
144.91866257118792
 20
77.895241121992
 10
145.14943304608406
 20
77.40731794745702
 10
145.426917132336
 20
76.9443637183922
 10
145.74844250650494
 20
76.51083693709995
 10
146.11091270347399
 20
76.11091270347399
 10
146.51083693709995
 20
75.74844250650494
 10
146.9443637183922
 20
75.426917132336
 10
147.40731794745702
 20
75.14943304608404
 10
147.895241121992
 20
74.91866257118792
 10
148.40343427510047
 20
74.73682815347286
 10
148.9270032289113
 20
74.60568095778223
 10
149.4609057281874
 20
74.52648400330291
 10
150.0
 20
74.5
 10
150.5390942718126
 20
74.52648400330291
 10
151.0729967710887
 20
74.60568095778223
 10
151.59656572489953
 20
74.73682815347286
 10
152.104758878008
 20
74.91866257118792
 10
152.59268205254298
 20
75.14943304608404
 10
153.0556362816078
 20
75.426917132336
 10
153.48916306290005
 20
75.74844250650494
 10
153.88908729652601
 20
76.11091270347399
 10
154.25155749349506
 20
76.51083693709995
 10
154.573082867664
 20
76.94436371839218
 10
154.85056695391594
 20
77.40731794745702
 10
155.08133742881208
 20
77.895241121992
 10
155.26317184652714
 20
78.40343427510045
 10
155.39431904221777
 20
78.92700322891129
 10
155.47351599669707
 20
79.46090572818741
  0
LWPOLYLINE
  5
35
330
17
100
AcDbEntity
  8
CUT
100
AcDbPolyline
 90
64
 70
1
 10
155.5
 20
140.0
 10
155.47351599669707
 20
140.5390942718126
 10
155.39431904221777
 20
141.0729967710887
 10
155.26317184652714
 20
141.59656572489953
 10
155.08133742881208
 20
142.104758878008
 10
154.85056695391594
 20
142.59268205254298
 10
154.573082867664
 20
143.0556362816078
 10
154.25155749349506
 20
143.48916306290005
 10
153.88908729652601
 20
143.88908729652601
 10
153.48916306290005
 20
144.25155749349506
 10
153.0556362816078
 20
144.573082867664
 10
152.59268205254298
 20
144.85056695391594
 10
152.104758878008
 20
145.08133742881208
 10
151.59656572489953
 20
145.26317184652714
 10
151.0729967710887
 20
145.39431904221777
 10
150.5390942718126
 20
145.47351599669707
 10
150.0
 20
145.5
 10
149.4609057281874
 20
145.47351599669707
 10
148.9270032289113
 20
145.39431904221777
 10
148.40343427510047
 20
145.26317184652714
 10
147.895241121992
 20
145.08133742881208
 10
147.40731794745702
 20
144.85056695391594
 10
146.9443637183922
 20
144.573082867664
 10
146.51083693709995
 20
144.25155749349506
 10
146.11091270347399
 20
143.88908729652601
 10
145.74844250650494
 20
143.48916306290005
 10
145.426917132336
 20
143.0556362816078
 10
145.14943304608406
 20
142.59268205254298
 10
144.91866257118792
 20
142.104758878008
 10
144.73682815347286
 20
141.59656572489953
 10
144.60568095778223
 20
141.0729967710887
 10
144.52648400330293
 20
140.5390942718126
 10
144.5
 20
140.0
 10
144.52648400330293
 20
139.4609057281874
 10
144.60568095778223
 20
138.9270032289113
 10
144.73682815347286
 20
138.40343427510047
 10
144.91866257118792
 20
137.895241121992
 10
145.14943304608406
 20
137.40731794745702
 10
145.426917132336
 20
136.9443637183922
 10
145.74844250650494
 20
136.51083693709995
 10
146.11091270347399
 20
136.11091270347399
 10
146.51083693709995
 20
135.74844250650494
 10
146.9443637183922
 20
135.426917132336
 10
147.40731794745702
 20
135.14943304608406
 10
147.895241121992
 20
134.91866257118792
 10
148.40343427510047
 20
134.73682815347286
 10
148.9270032289113
 20
134.60568095778223
 10
149.4609057281874
 20
134.52648400330293
 10
150.0
 20
134.5
 10
150.5390942718126
 20
134.52648400330293
 10
151.0729967710887
 20
134.60568095778223
 10
151.59656572489953
 20
134.73682815347286
 10
152.104758878008
 20
134.91866257118792
 10
152.59268205254298
 20
135.14943304608406
 10
153.0556362816078
 20
135.426917132336
 10
153.48916306290005
 20
135.74844250650494
 10
153.88908729652601
 20
136.11091270347399
 10
154.25155749349506
 20
136.51083693709995
 10
154.573082867664
 20
136.9443637183922
 10
154.85056695391594
 20
137.40731794745702
 10
155.08133742881208
 20
137.895241121992
 10
155.26317184652714
 20
138.40343427510047
 10
155.39431904221777
 20
138.9270032289113
 10
155.47351599669707
 20
139.4609057281874
  0
LWPOLYLINE
  5
36
330
17
100
AcDbEntity
  8
CUT
100
AcDbPolyline
 90
4
 70
1
 10
210.0
 20
50.0
 10
330.0
 20
50.0
 10
330.0
 20
170.0
 10
210.0
 20
170.0
  0
LWPOLYLINE
  5
37
330
17
100
AcDbEntity
  8
CUT
100
AcDbPolyline
 90
64
 70
1
 10
235.5
 20
80.0
 10
235.47351599669707
 20
80.53909427181259
 10
235.39431904221777
 20
81.07299677108871
 10
235.26317184652714
 20
81.59656572489955
 10
235.08133742881208
 20
82.104758878008
 10
234.85056695391594
 20
82.59268205254298
 10
234.573082867664
 20
83.05563628160782
 10
234.25155749349506
 20
83.48916306290005
 10
233.88908729652601
 20
83.88908729652601
 10
233.48916306290005
 20
84.25155749349506
 10
233.0556362816078
 20
84.573082867664
 10
232.59268205254298
 20
84.85056695391596
 10
232.104758878008
 20
85.08133742881208
 10
231.59656572489953
 20
85.26317184652714
 10
231.0729967710887
 20
85.39431904221777
 10
230.5390942718126
 20
85.47351599669709
 10
230.0
 20
85.5
 10
229.4609057281874
 20
85.47351599669709
 10
228.9270032289113
 20
85.39431904221777
 10
228.40343427510047
 20
85.26317184652714
 10
227.895241121992
 20
85.08133742881208
 10
227.40731794745702
 20
84.85056695391596
 10
226.9443637183922
 20
84.573082867664
 10
226.51083693709995
 20
84.25155749349506
 10
226.11091270347399
 20
83.88908729652601
 10
225.74844250650494
 20
83.48916306290005
 10
225.426917132336
 20
83.05563628160782
 10
225.14943304608406
 20
82.59268205254298
 10
224.91866257118792
 20
82.104758878008
 10
224.73682815347286
 20
81.59656572489955
 10
224.60568095778223
 20
81.07299677108871
 10
224.52648400330293
 20
80.53909427181259
 10
224.5
 20
80.0
 10
224.52648400330293
 20
79.46090572818741
 10
224.60568095778223
 20
78.92700322891129
 10
224.73682815347286
 20
78.40343427510045
 10
224.91866257118792
 20
77.895241121992
 10
225.14943304608406
 20
77.40731794745702
 10
225.426917132336
 20
76.9443637183922
 10
225.74844250650494
 20
76.51083693709995
 10
226.11091270347399
 20
76.11091270347399
 10
226.51083693709995
 20
75.74844250650494
 10
226.9443637183922
 20
75.426917132336
 10
227.40731794745702
 20
75.14943304608404
 10
227.895241121992
 20
74.91866257118792
 10
228.40343427510047
 20
74.73682815347286
 10
228.9270032289113
 20
74.60568095778223
 10
229.4609057281874
 20
74.52648400330291
 10
230.0
 20
74.5
 10
230.5390942718126
 20
74.52648400330291
 10
231.0729967710887
 20
74.60568095778223
 10
231.59656572489953
 20
74.73682815347286
 10
232.104758878008
 20
74.91866257118792
 10
232.59268205254298
 20
75.14943304608404
 10
233.0556362816078
 20
75.426917132336
 10
233.48916306290005
 20
75.74844250650494
 10
233.88908729652601
 20
76.11091270347399
 10
234.25155749349506
 20
76.51083693709995
 10
234.573082867664
 20
76.94436371839218
 10
234.85056695391594
 20
77.40731794745702
 10
235.08133742881208
 20
77.895241121992
 10
235.26317184652714
 20
78.40343427510045
 10
235.39431904221777
 20
78.92700322891129
 10
235.47351599669707
 20
79.46090572818741
  0
LWPOLYLINE
  5
38
330
17
100
AcDbEntity
  8
CUT
100
AcDbPolyline
 90
64
 70
1
 10
235.5
 20
140.0
 10
235.47351599669707
 20
140.5390942718126
 10
235.39431904221777
 20
141.0729967710887
 10
235.26317184652714
 20
141.59656572489953
 10
235.08133742881208
 20
142.104758878008
 10
234.85056695391594
 20
142.59268205254298
 10
234.573082867664
 20
143.0556362816078
 10
234.25155749349506
 20
143.48916306290005
 10
233.88908729652601
 20
143.88908729652601
 10
233.48916306290005
 20
144.25155749349506
 10
233.0556362816078
 20
144.573082867664
 10
232.59268205254298
 20
144.85056695391594
 10
232.104758878008
 20
145.08133742881208
 10
231.59656572489953
 20
145.26317184652714
 10
231.0729967710887
 20
145.39431904221777
 10
230.5390942718126
 20
145.47351599669707
 10
230.0
 20
145.5
 10
229.4609057281874
 20
145.47351599669707
 10
228.9270032289113
 20
145.39431904221777
 10
228.40343427510047
 20
145.26317184652714
 10
227.895241121992
 20
145.08133742881208
 10
227.40731794745702
 20
144.85056695391594
 10
226.9443637183922
 20
144.573082867664
 10
226.51083693709995
 20
144.25155749349506
 10
226.11091270347399
 20
143.88908729652601
 10
225.74844250650494
 20
143.48916306290005
 10
225.426917132336
 20
143.0556362816078
 10
225.14943304608406
 20
142.59268205254298
 10
224.91866257118792
 20
142.104758878008
 10
224.73682815347286
 20
141.59656572489953
 10
224.60568095778223
 20
141.0729967710887
 10
224.52648400330293
 20
140.5390942718126
 10
224.5
 20
140.0
 10
224.52648400330293
 20
139.4609057281874
 10
224.60568095778223
 20
138.9270032289113
 10
224.73682815347286
 20
138.40343427510047
 10
224.91866257118792
 20
137.895241121992
 10
225.14943304608406
 20
137.40731794745702
 10
225.426917132336
 20
136.9443637183922
 10
225.74844250650494
 20
136.51083693709995
 10
226.11091270347399
 20
136.11091270347399
 10
226.51083693709995
 20
135.74844250650494
 10
226.9443637183922
 20
135.426917132336
 10
227.40731794745702
 20
135.14943304608406
 10
227.895241121992
 20
134.91866257118792
 10
228.40343427510047
 20
134.73682815347286
 10
228.9270032289113
 20
134.60568095778223
 10
229.4609057281874
 20
134.52648400330293
 10
230.0
 20
134.5
 10
230.5390942718126
 20
134.52648400330293
 10
231.0729967710887
 20
134.60568095778223
 10
231.59656572489953
 20
134.73682815347286
 10
232.104758878008
 20
134.91866257118792
 10
232.59268205254298
 20
135.14943304608406
 10
233.0556362816078
 20
135.426917132336
 10
233.48916306290005
 20
135.74844250650494
 10
233.88908729652601
 20
136.11091270347399
 10
234.25155749349506
 20
136.51083693709995
 10
234.573082867664
 20
136.9443637183922
 10
234.85056695391594
 20
137.40731794745702
 10
235.08133742881208
 20
137.895241121992
 10
235.26317184652714
 20
138.40343427510047
 10
235.39431904221777
 20
138.9270032289113
 10
235.47351599669707
 20
139.4609057281874
  0
LWPOLYLINE
  5
39
330
17
100
AcDbEntity
  8
CUT
100
AcDbPolyline
 90
64
 70
1
 10
315.5
 20
80.0
 10
315.4735159966971
 20
80.53909427181259
 10
315.3943190422178
 20
81.07299677108871
 10
315.26317184652714
 20
81.59656572489955
 10
315.08133742881205
 20
82.104758878008
 10
314.850566953916
 20
82.59268205254298
 10
314.57308286766397
 20
83.05563628160782
 10
314.25155749349506
 20
83.48916306290005
 10
313.889087296526
 20
83.88908729652601
 10
313.48916306290005
 20
84.25155749349506
 10
313.0556362816078
 20
84.573082867664
 10
312.592682052543
 20
84.85056695391596
 10
312.104758878008
 20
85.08133742881208
 10
311.59656572489956
 20
85.26317184652714
 10
311.0729967710887
 20
85.39431904221777
 10
310.5390942718126
 20
85.47351599669709
 10
310.0
 20
85.5
 10
309.4609057281874
 20
85.47351599669709
 10
308.9270032289113
 20
85.39431904221777
 10
308.40343427510044
 20
85.26317184652714
 10
307.895241121992
 20
85.08133742881208
 10
307.407317947457
 20
84.85056695391596
 10
306.9443637183922
 20
84.573082867664
 10
306.51083693709995
 20
84.25155749349506
 10
306.110912703474
 20
83.88908729652601
 10
305.74844250650494
 20
83.48916306290005
 10
305.426917132336
 20
83.05563628160782
 10
305.149433046084
 20
82.59268205254298
 10
304.91866257118795
 20
82.104758878008
 10
304.73682815347286
 20
81.59656572489955
 10
304.6056809577822
 20
81.07299677108871
 10
304.5264840033029
 20
80.53909427181259
 10
304.5
 20
80.0
 10
304.5264840033029
 20
79.46090572818741
 10
304.6056809577822
 20
78.92700322891129
 10
304.73682815347286
 20
78.40343427510045
 10
304.9186625711879
 20
77.895241121992
 10
305.149433046084
 20
77.40731794745702
 10
305.426917132336
 20
76.9443637183922
 10
305.74844250650494
 20
76.51083693709995
 10
306.110912703474
 20
76.11091270347399
 10
306.51083693709995
 20
75.74844250650494
 10
306.9443637183922
 20
75.426917132336
 10
307.407317947457
 20
75.14943304608404
 10
307.895241121992
 20
74.91866257118792
 10
308.40343427510044
 20
74.73682815347286
 10
308.9270032289113
 20
74.60568095778223
 10
309.4609057281874
 20
74.52648400330291
 10
310.0
 20
74.5
 10
310.5390942718126
 20
74.52648400330291
 10
311.0729967710887
 20
74.60568095778223
 10
311.59656572489956
 20
74.73682815347286
 10
312.104758878008
 20
74.91866257118792
 10
312.592682052543
 20
75.14943304608404
 10
313.0556362816078
 20
75.426917132336
 10
313.48916306290005
 20
75.74844250650494
 10
313.889087296526
 20
76.11091270347399
 10
314.25155749349506
 20
76.51083693709995
 10
314.57308286766397
 20
76.94436371839218
 10
314.850566953916
 20
77.40731794745702
 10
315.08133742881205
 20
77.895241121992
 10
315.26317184652714
 20
78.40343427510045
 10
315.3943190422178
 20
78.92700322891129
 10
315.4735159966971
 20
79.46090572818741
  0
LWPOLYLINE
  5
3A
330
17
100
AcDbEntity
  8
CUT
100
AcDbPolyline
 90
64
 70
1
 10
315.5
 20
140.0
 10
315.4735159966971
 20
140.5390942718126
 10
315.3943190422178
 20
141.0729967710887
 10
315.26317184652714
 20
141.59656572489953
 10
315.08133742881205
 20
142.104758878008
 10
314.850566953916
 20
142.59268205254298
 10
314.57308286766397
 20
143.0556362816078
 10
314.25155749349506
 20
143.48916306290005
 10
313.889087296526
 20
143.88908729652601
 10
313.48916306290005
 20
144.25155749349506
 10
313.0556362816078
 20
144.573082867664
 10
312.592682052543
 20
144.85056695391594
 10
312.104758878008
 20
145.08133742881208
 10
311.59656572489956
 20
145.26317184652714
 10
311.0729967710887
 20
145.39431904221777
 10
310.5390942718126
 20
145.47351599669707
 10
310.0
 20
145.5
 10
309.4609057281874
 20
145.47351599669707
 10
308.9270032289113
 20
145.39431904221777
 10
308.40343427510044
 20
145.26317184652714
 10
307.895241121992
 20
145.08133742881208
 10
307.407317947457
 20
144.85056695391594
 10
306.9443637183922
 20
144.573082867664
 10
306.51083693709995
 20
144.25155749349506
 10
306.110912703474
 20
143.88908729652601
 10
305.74844250650494
 20
143.48916306290005
 10
305.426917132336
 20
143.0556362816078
 10
305.149433046084
 20
142.59268205254298
 10
304.91866257118795
 20
142.104758878008
 10
304.73682815347286
 20
141.59656572489953
 10
304.6056809577822
 20
141.0729967710887
 10
304.5264840033029
 20
140.5390942718126
 10
304.5
 20
140.0
 10
304.5264840033029
 20
139.4609057281874
 10
304.6056809577822
 20
138.9270032289113
 10
304.73682815347286
 20
138.40343427510047
 10
304.9186625711879
 20
137.895241121992
 10
305.149433046084
 20
137.40731794745702
 10
305.426917132336
 20
136.9443637183922
 10
305.74844250650494
 20
136.51083693709995
 10
306.110912703474
 20
136.11091270347399
 10
306.51083693709995
 20
135.74844250650494
 10
306.9443637183922
 20
135.426917132336
 10
307.407317947457
 20
135.14943304608406
 10
307.895241121992
 20
134.91866257118792
 10
308.40343427510044
 20
134.73682815347286
 10
308.9270032289113
 20
134.60568095778223
 10
309.4609057281874
 20
134.52648400330293
 10
310.0
 20
134.5
 10
310.5390942718126
 20
134.52648400330293
 10
311.0729967710887
 20
134.60568095778223
 10
311.59656572489956
 20
134.73682815347286
 10
312.104758878008
 20
134.91866257118792
 10
312.592682052543
 20
135.14943304608406
 10
313.0556362816078
 20
135.426917132336
 10
313.48916306290005
 20
135.74844250650494
 10
313.889087296526
 20
136.11091270347399
 10
314.25155749349506
 20
136.51083693709995
 10
314.57308286766397
 20
136.9443637183922
 10
314.850566953916
 20
137.40731794745702
 10
315.08133742881205
 20
137.895241121992
 10
315.26317184652714
 20
138.40343427510047
 10
315.3943190422178
 20
138.9270032289113
 10
315.4735159966971
 20
139.4609057281874
  0
LWPOLYLINE
  5
3B
330
17
100
AcDbEntity
  8
CUT
100
AcDbPolyline
 90
4
 70
1
 10
370.0
 20
50.0
 10
490.0
 20
50.0
 10
490.0
 20
170.0
 10
370.0
 20
170.0
  0
LWPOLYLINE
  5
3C
330
17
100
AcDbEntity
  8
CUT
100
AcDbPolyline
 90
64
 70
1
 10
395.5
 20
80.0
 10
395.4735159966971
 20
80.53909427181259
 10
395.3943190422178
 20
81.07299677108871
 10
395.26317184652714
 20
81.59656572489955
 10
395.08133742881205
 20
82.104758878008
 10
394.850566953916
 20
82.59268205254298
 10
394.57308286766397
 20
83.05563628160782
 10
394.25155749349506
 20
83.48916306290005
 10
393.889087296526
 20
83.88908729652601
 10
393.48916306290005
 20
84.25155749349506
 10
393.0556362816078
 20
84.573082867664
 10
392.592682052543
 20
84.85056695391596
 10
392.104758878008
 20
85.08133742881208
 10
391.59656572489956
 20
85.26317184652714
 10
391.0729967710887
 20
85.39431904221777
 10
390.5390942718126
 20
85.47351599669709
 10
390.0
 20
85.5
 10
389.4609057281874
 20
85.47351599669709
 10
388.9270032289113
 20
85.39431904221777
 10
388.40343427510044
 20
85.26317184652714
 10
387.895241121992
 20
85.08133742881208
 10
387.407317947457
 20
84.85056695391596
 10
386.9443637183922
 20
84.573082867664
 10
386.51083693709995
 20
84.25155749349506
 10
386.110912703474
 20
83.88908729652601
 10
385.74844250650494
 20
83.48916306290005
 10
385.426917132336
 20
83.05563628160782
 10
385.149433046084
 20
82.59268205254298
 10
384.91866257118795
 20
82.104758878008
 10
384.73682815347286
 20
81.59656572489955
 10
384.6056809577822
 20
81.07299677108871
 10
384.5264840033029
 20
80.53909427181259
 10
384.5
 20
80.0
 10
384.5264840033029
 20
79.46090572818741
 10
384.6056809577822
 20
78.92700322891129
 10
384.73682815347286
 20
78.40343427510045
 10
384.9186625711879
 20
77.895241121992
 10
385.149433046084
 20
77.40731794745702
 10
385.426917132336
 20
76.9443637183922
 10
385.74844250650494
 20
76.51083693709995
 10
386.110912703474
 20
76.11091270347399
 10
386.51083693709995
 20
75.74844250650494
 10
386.9443637183922
 20
75.426917132336
 10
387.407317947457
 20
75.14943304608404
 10
387.895241121992
 20
74.91866257118792
 10
388.40343427510044
 20
74.73682815347286
 10
388.9270032289113
 20
74.60568095778223
 10
389.4609057281874
 20
74.52648400330291
 10
390.0
 20
74.5
 10
390.5390942718126
 20
74.52648400330291
 10
391.0729967710887
 20
74.60568095778223
 10
391.59656572489956
 20
74.73682815347286
 10
392.104758878008
 20
74.91866257118792
 10
392.592682052543
 20
75.14943304608404
 10
393.0556362816078
 20
75.426917132336
 10
393.48916306290005
 20
75.74844250650494
 10
393.889087296526
 20
76.11091270347399
 10
394.25155749349506
 20
76.51083693709995
 10
394.57308286766397
 20
76.94436371839218
 10
394.850566953916
 20
77.40731794745702
 10
395.08133742881205
 20
77.895241121992
 10
395.26317184652714
 20
78.40343427510045
 10
395.3943190422178
 20
78.92700322891129
 10
395.4735159966971
 20
79.46090572818741
  0
LWPOLYLINE
  5
3D
330
17
100
AcDbEntity
  8
CUT
100
AcDbPolyline
 90
64
 70
1
 10
395.5
 20
140.0
 10
395.4735159966971
 20
140.5390942718126
 10
395.3943190422178
 20
141.0729967710887
 10
395.26317184652714
 20
141.59656572489953
 10
395.08133742881205
 20
142.104758878008
 10
394.850566953916
 20
142.59268205254298
 10
394.57308286766397
 20
143.0556362816078
 10
394.25155749349506
 20
143.48916306290005
 10
393.889087296526
 20
143.88908729652601
 10
393.48916306290005
 20
144.25155749349506
 10
393.0556362816078
 20
144.573082867664
 10
392.592682052543
 20
144.85056695391594
 10
392.104758878008
 20
145.08133742881208
 10
391.59656572489956
 20
145.26317184652714
 10
391.0729967710887
 20
145.39431904221777
 10
390.5390942718126
 20
145.47351599669707
 10
390.0
 20
145.5
 10
389.4609057281874
 20
145.47351599669707
 10
388.9270032289113
 20
145.39431904221777
 10
388.40343427510044
 20
145.26317184652714
 10
387.895241121992
 20
145.08133742881208
 10
387.407317947457
 20
144.85056695391594
 10
386.9443637183922
 20
144.573082867664
 10
386.51083693709995
 20
144.25155749349506
 10
386.110912703474
 20
143.88908729652601
 10
385.74844250650494
 20
143.48916306290005
 10
385.426917132336
 20
143.0556362816078
 10
385.149433046084
 20
142.59268205254298
 10
384.91866257118795
 20
142.104758878008
 10
384.73682815347286
 20
141.59656572489953
 10
384.6056809577822
 20
141.0729967710887
 10
384.5264840033029
 20
140.5390942718126
 10
384.5
 20
140.0
 10
384.5264840033029
 20
139.4609057281874
 10
384.6056809577822
 20
138.9270032289113
 10
384.73682815347286
 20
138.40343427510047
 10
384.9186625711879
 20
137.895241121992
 10
385.149433046084
 20
137.40731794745702
 10
385.426917132336
 20
136.9443637183922
 10
385.74844250650494
 20
136.51083693709995
 10
386.110912703474
 20
136.11091270347399
 10
386.51083693709995
 20
135.74844250650494
 10
386.9443637183922
 20
135.426917132336
 10
387.407317947457
 20
135.14943304608406
 10
387.895241121992
 20
134.91866257118792
 10
388.40343427510044
 20
134.73682815347286
 10
388.9270032289113
 20
134.60568095778223
 10
389.4609057281874
 20
134.52648400330293
 10
390.0
 20
134.5
 10
390.5390942718126
 20
134.52648400330293
 10
391.0729967710887
 20
134.60568095778223
 10
391.59656572489956
 20
134.73682815347286
 10
392.104758878008
 20
134.91866257118792
 10
392.592682052543
 20
135.14943304608406
 10
393.0556362816078
 20
135.426917132336
 10
393.48916306290005
 20
135.74844250650494
 10
393.889087296526
 20
136.11091270347399
 10
394.25155749349506
 20
136.51083693709995
 10
394.57308286766397
 20
136.9443637183922
 10
394.850566953916
 20
137.40731794745702
 10
395.08133742881205
 20
137.895241121992
 10
395.26317184652714
 20
138.40343427510047
 10
395.3943190422178
 20
138.9270032289113
 10
395.4735159966971
 20
139.4609057281874
  0
LWPOLYLINE
  5
3E
330
17
100
AcDbEntity
  8
CUT
100
AcDbPolyline
 90
64
 70
1
 10
475.5
 20
80.0
 10
475.4735159966971
 20
80.53909427181259
 10
475.3943190422178
 20
81.07299677108871
 10
475.26317184652714
 20
81.59656572489955
 10
475.08133742881205
 20
82.104758878008
 10
474.850566953916
 20
82.59268205254298
 10
474.57308286766397
 20
83.05563628160782
 10
474.25155749349506
 20
83.48916306290005
 10
473.889087296526
 20
83.88908729652601
 10
473.48916306290005
 20
84.25155749349506
 10
473.0556362816078
 20
84.573082867664
 10
472.592682052543
 20
84.85056695391596
 10
472.104758878008
 20
85.08133742881208
 10
471.59656572489956
 20
85.26317184652714
 10
471.0729967710887
 20
85.39431904221777
 10
470.5390942718126
 20
85.47351599669709
 10
470.0
 20
85.5
 10
469.4609057281874
 20
85.47351599669709
 10
468.9270032289113
 20
85.39431904221777
 10
468.40343427510044
 20
85.26317184652714
 10
467.895241121992
 20
85.08133742881208
 10
467.407317947457
 20
84.85056695391596
 10
466.9443637183922
 20
84.573082867664
 10
466.51083693709995
 20
84.25155749349506
 10
466.110912703474
 20
83.88908729652601
 10
465.74844250650494
 20
83.48916306290005
 10
465.426917132336
 20
83.05563628160782
 10
465.149433046084
 20
82.59268205254298
 10
464.91866257118795
 20
82.104758878008
 10
464.73682815347286
 20
81.59656572489955
 10
464.6056809577822
 20
81.07299677108871
 10
464.5264840033029
 20
80.53909427181259
 10
464.5
 20
80.0
 10
464.5264840033029
 20
79.46090572818741
 10
464.6056809577822
 20
78.92700322891129
 10
464.73682815347286
 20
78.40343427510045
 10
464.9186625711879
 20
77.895241121992
 10
465.149433046084
 20
77.40731794745702
 10
465.426917132336
 20
76.9443637183922
 10
465.74844250650494
 20
76.51083693709995
 10
466.110912703474
 20
76.11091270347399
 10
466.51083693709995
 20
75.74844250650494
 10
466.9443637183922
 20
75.426917132336
 10
467.407317947457
 20
75.14943304608404
 10
467.895241121992
 20
74.91866257118792
 10
468.40343427510044
 20
74.73682815347286
 10
468.9270032289113
 20
74.60568095778223
 10
469.4609057281874
 20
74.52648400330291
 10
470.0
 20
74.5
 10
470.5390942718126
 20
74.52648400330291
 10
471.0729967710887
 20
74.60568095778223
 10
471.59656572489956
 20
74.73682815347286
 10
472.104758878008
 20
74.91866257118792
 10
472.592682052543
 20
75.14943304608404
 10
473.0556362816078
 20
75.426917132336
 10
473.48916306290005
 20
75.74844250650494
 10
473.889087296526
 20
76.11091270347399
 10
474.25155749349506
 20
76.51083693709995
 10
474.57308286766397
 20
76.94436371839218
 10
474.850566953916
 20
77.40731794745702
 10
475.08133742881205
 20
77.895241121992
 10
475.26317184652714
 20
78.40343427510045
 10
475.3943190422178
 20
78.92700322891129
 10
475.4735159966971
 20
79.46090572818741
  0
LWPOLYLINE
  5
3F
330
17
100
AcDbEntity
  8
CUT
100
AcDbPolyline
 90
64
 70
1
 10
475.5
 20
140.0
 10
475.4735159966971
 20
140.5390942718126
 10
475.3943190422178
 20
141.0729967710887
 10
475.26317184652714
 20
141.59656572489953
 10
475.08133742881205
 20
142.104758878008
 10
474.850566953916
 20
142.59268205254298
 10
474.57308286766397
 20
143.0556362816078
 10
474.25155749349506
 20
143.48916306290005
 10
473.889087296526
 20
143.88908729652601
 10
473.48916306290005
 20
144.25155749349506
 10
473.0556362816078
 20
144.573082867664
 10
472.592682052543
 20
144.85056695391594
 10
472.104758878008
 20
145.08133742881208
 10
471.59656572489956
 20
145.26317184652714
 10
471.0729967710887
 20
145.39431904221777
 10
470.5390942718126
 20
145.47351599669707
 10
470.0
 20
145.5
 10
469.4609057281874
 20
145.47351599669707
 10
468.9270032289113
 20
145.39431904221777
 10
468.40343427510044
 20
145.26317184652714
 10
467.895241121992
 20
145.08133742881208
 10
467.407317947457
 20
144.85056695391594
 10
466.9443637183922
 20
144.573082867664
 10
466.51083693709995
 20
144.25155749349506
 10
466.110912703474
 20
143.88908729652601
 10
465.74844250650494
 20
143.48916306290005
 10
465.426917132336
 20
143.0556362816078
 10
465.149433046084
 20
142.59268205254298
 10
464.91866257118795
 20
142.104758878008
 10
464.73682815347286
 20
141.59656572489953
 10
464.6056809577822
 20
141.0729967710887
 10
464.5264840033029
 20
140.5390942718126
 10
464.5
 20
140.0
 10
464.5264840033029
 20
139.4609057281874
 10
464.6056809577822
 20
138.9270032289113
 10
464.73682815347286
 20
138.40343427510047
 10
464.9186625711879
 20
137.895241121992
 10
465.149433046084
 20
137.40731794745702
 10
465.426917132336
 20
136.9443637183922
 10
465.74844250650494
 20
136.51083693709995
 10
466.110912703474
 20
136.11091270347399
 10
466.51083693709995
 20
135.74844250650494
 10
466.9443637183922
 20
135.426917132336
 10
467.407317947457
 20
135.14943304608406
 10
467.895241121992
 20
134.91866257118792
 10
468.40343427510044
 20
134.73682815347286
 10
468.9270032289113
 20
134.60568095778223
 10
469.4609057281874
 20
134.52648400330293
 10
470.0
 20
134.5
 10
470.5390942718126
 20
134.52648400330293
 10
471.0729967710887
 20
134.60568095778223
 10
471.59656572489956
 20
134.73682815347286
 10
472.104758878008
 20
134.91866257118792
 10
472.592682052543
 20
135.14943304608406
 10
473.0556362816078
 20
135.426917132336
 10
473.48916306290005
 20
135.74844250650494
 10
473.889087296526
 20
136.11091270347399
 10
474.25155749349506
 20
136.51083693709995
 10
474.57308286766397
 20
136.9443637183922
 10
474.850566953916
 20
137.40731794745702
 10
475.08133742881205
 20
137.895241121992
 10
475.26317184652714
 20
138.40343427510047
 10
475.3943190422178
 20
138.9270032289113
 10
475.4735159966971
 20
139.4609057281874
  0
LWPOLYLINE
  5
40
330
17
100
AcDbEntity
  8
CUT
100
AcDbPolyline
 90
4
 70
1
 10
530.0
 20
50.0
 10
650.0
 20
50.0
 10
650.0
 20
170.0
 10
530.0
 20
170.0
  0
LWPOLYLINE
  5
41
330
17
100
AcDbEntity
  8
CUT
100
AcDbPolyline
 90
64
 70
1
 10
555.5
 20
80.0
 10
555.4735159966971
 20
80.53909427181259
 10
555.3943190422177
 20
81.07299677108871
 10
555.2631718465271
 20
81.59656572489955
 10
555.081337428812
 20
82.104758878008
 10
554.850566953916
 20
82.59268205254298
 10
554.573082867664
 20
83.05563628160782
 10
554.251557493495
 20
83.48916306290005
 10
553.889087296526
 20
83.88908729652601
 10
553.4891630629
 20
84.25155749349506
 10
553.0556362816078
 20
84.573082867664
 10
552.592682052543
 20
84.85056695391596
 10
552.1047588780079
 20
85.08133742881208
 10
551.5965657248995
 20
85.26317184652714
 10
551.0729967710887
 20
85.39431904221777
 10
550.5390942718126
 20
85.47351599669709
 10
550.0
 20
85.5
 10
549.4609057281874
 20
85.47351599669709
 10
548.9270032289113
 20
85.39431904221777
 10
548.4034342751005
 20
85.26317184652714
 10
547.8952411219921
 20
85.08133742881208
 10
547.407317947457
 20
84.85056695391596
 10
546.9443637183922
 20
84.573082867664
 10
546.5108369371
 20
84.25155749349506
 10
546.110912703474
 20
83.88908729652601
 10
545.748442506505
 20
83.48916306290005
 10
545.426917132336
 20
83.05563628160782
 10
545.149433046084
 20
82.59268205254298
 10
544.918662571188
 20
82.104758878008
 10
544.7368281534729
 20
81.59656572489955
 10
544.6056809577823
 20
81.07299677108871
 10
544.5264840033029
 20
80.53909427181259
 10
544.5
 20
80.0
 10
544.5264840033029
 20
79.46090572818741
 10
544.6056809577823
 20
78.92700322891129
 10
544.7368281534729
 20
78.40343427510045
 10
544.918662571188
 20
77.895241121992
 10
545.149433046084
 20
77.40731794745702
 10
545.426917132336
 20
76.9443637183922
 10
545.748442506505
 20
76.51083693709995
 10
546.110912703474
 20
76.11091270347399
 10
546.5108369371
 20
75.74844250650494
 10
546.9443637183922
 20
75.426917132336
 10
547.407317947457
 20
75.14943304608404
 10
547.8952411219921
 20
74.91866257118792
 10
548.4034342751005
 20
74.73682815347286
 10
548.9270032289113
 20
74.60568095778223
 10
549.4609057281874
 20
74.52648400330291
 10
550.0
 20
74.5
 10
550.5390942718126
 20
74.52648400330291
 10
551.0729967710887
 20
74.60568095778223
 10
551.5965657248995
 20
74.73682815347286
 10
552.1047588780079
 20
74.91866257118792
 10
552.592682052543
 20
75.14943304608404
 10
553.0556362816078
 20
75.426917132336
 10
553.4891630629
 20
75.74844250650494
 10
553.889087296526
 20
76.11091270347399
 10
554.251557493495
 20
76.51083693709995
 10
554.573082867664
 20
76.94436371839218
 10
554.850566953916
 20
77.40731794745702
 10
555.081337428812
 20
77.895241121992
 10
555.2631718465271
 20
78.40343427510045
 10
555.3943190422177
 20
78.92700322891129
 10
555.4735159966971
 20
79.46090572818741
  0
LWPOLYLINE
  5
42
330
17
100
AcDbEntity
  8
CUT
100
AcDbPolyline
 90
64
 70
1
 10
555.5
 20
140.0
 10
555.4735159966971
 20
140.5390942718126
 10
555.3943190422177
 20
141.0729967710887
 10
555.2631718465271
 20
141.59656572489953
 10
555.081337428812
 20
142.104758878008
 10
554.850566953916
 20
142.59268205254298
 10
554.573082867664
 20
143.0556362816078
 10
554.251557493495
 20
143.48916306290005
 10
553.889087296526
 20
143.88908729652601
 10
553.4891630629
 20
144.25155749349506
 10
553.0556362816078
 20
144.573082867664
 10
552.592682052543
 20
144.85056695391594
 10
552.1047588780079
 20
145.08133742881208
 10
551.5965657248995
 20
145.26317184652714
 10
551.0729967710887
 20
145.39431904221777
 10
550.5390942718126
 20
145.47351599669707
 10
550.0
 20
145.5
 10
549.4609057281874
 20
145.47351599669707
 10
548.9270032289113
 20
145.39431904221777
 10
548.4034342751005
 20
145.26317184652714
 10
547.8952411219921
 20
145.08133742881208
 10
547.407317947457
 20
144.85056695391594
 10
546.9443637183922
 20
144.573082867664
 10
546.5108369371
 20
144.25155749349506
 10
546.110912703474
 20
143.88908729652601
 10
545.748442506505
 20
143.48916306290005
 10
545.426917132336
 20
143.0556362816078
 10
545.149433046084
 20
142.59268205254298
 10
544.918662571188
 20
142.104758878008
 10
544.7368281534729
 20
141.59656572489953
 10
544.6056809577823
 20
141.0729967710887
 10
544.5264840033029
 20
140.5390942718126
 10
544.5
 20
140.0
 10
544.5264840033029
 20
139.4609057281874
 10
544.6056809577823
 20
138.9270032289113
 10
544.7368281534729
 20
138.40343427510047
 10
544.918662571188
 20
137.895241121992
 10
545.149433046084
 20
137.40731794745702
 10
545.426917132336
 20
136.9443637183922
 10
545.748442506505
 20
136.51083693709995
 10
546.110912703474
 20
136.11091270347399
 10
546.5108369371
 20
135.74844250650494
 10
546.9443637183922
 20
135.426917132336
 10
547.407317947457
 20
135.14943304608406
 10
547.8952411219921
 20
134.91866257118792
 10
548.4034342751005
 20
134.73682815347286
 10
548.9270032289113
 20
134.60568095778223
 10
549.4609057281874
 20
134.52648400330293
 10
550.0
 20
134.5
 10
550.5390942718126
 20
134.52648400330293
 10
551.0729967710887
 20
134.60568095778223
 10
551.5965657248995
 20
134.73682815347286
 10
552.1047588780079
 20
134.91866257118792
 10
552.592682052543
 20
135.14943304608406
 10
553.0556362816078
 20
135.426917132336
 10
553.4891630629
 20
135.74844250650494
 10
553.889087296526
 20
136.11091270347399
 10
554.251557493495
 20
136.51083693709995
 10
554.573082867664
 20
136.9443637183922
 10
554.850566953916
 20
137.40731794745702
 10
555.081337428812
 20
137.895241121992
 10
555.2631718465271
 20
138.40343427510047
 10
555.3943190422177
 20
138.9270032289113
 10
555.4735159966971
 20
139.4609057281874
  0
LWPOLYLINE
  5
43
330
17
100
AcDbEntity
  8
CUT
100
AcDbPolyline
 90
64
 70
1
 10
635.5
 20
80.0
 10
635.4735159966971
 20
80.53909427181259
 10
635.3943190422177
 20
81.07299677108871
 10
635.2631718465271
 20
81.59656572489955
 10
635.081337428812
 20
82.104758878008
 10
634.850566953916
 20
82.59268205254298
 10
634.573082867664
 20
83.05563628160782
 10
634.251557493495
 20
83.48916306290005
 10
633.889087296526
 20
83.88908729652601
 10
633.4891630629
 20
84.25155749349506
 10
633.0556362816078
 20
84.573082867664
 10
632.592682052543
 20
84.85056695391596
 10
632.1047588780079
 20
85.08133742881208
 10
631.5965657248995
 20
85.26317184652714
 10
631.0729967710887
 20
85.39431904221777
 10
630.5390942718126
 20
85.47351599669709
 10
630.0
 20
85.5
 10
629.4609057281874
 20
85.47351599669709
 10
628.9270032289113
 20
85.39431904221777
 10
628.4034342751005
 20
85.26317184652714
 10
627.8952411219921
 20
85.08133742881208
 10
627.407317947457
 20
84.85056695391596
 10
626.9443637183922
 20
84.573082867664
 10
626.5108369371
 20
84.25155749349506
 10
626.110912703474
 20
83.88908729652601
 10
625.748442506505
 20
83.48916306290005
 10
625.426917132336
 20
83.05563628160782
 10
625.149433046084
 20
82.59268205254298
 10
624.918662571188
 20
82.104758878008
 10
624.7368281534729
 20
81.59656572489955
 10
624.6056809577823
 20
81.07299677108871
 10
624.5264840033029
 20
80.53909427181259
 10
624.5
 20
80.0
 10
624.5264840033029
 20
79.46090572818741
 10
624.6056809577823
 20
78.92700322891129
 10
624.7368281534729
 20
78.40343427510045
 10
624.918662571188
 20
77.895241121992
 10
625.149433046084
 20
77.40731794745702
 10
625.426917132336
 20
76.9443637183922
 10
625.748442506505
 20
76.51083693709995
 10
626.110912703474
 20
76.11091270347399
 10
626.5108369371
 20
75.74844250650494
 10
626.9443637183922
 20
75.426917132336
 10
627.407317947457
 20
75.14943304608404
 10
627.8952411219921
 20
74.91866257118792
 10
628.4034342751005
 20
74.73682815347286
 10
628.9270032289113
 20
74.60568095778223
 10
629.4609057281874
 20
74.52648400330291
 10
630.0
 20
74.5
 10
630.5390942718126
 20
74.52648400330291
 10
631.0729967710887
 20
74.60568095778223
 10
631.5965657248995
 20
74.73682815347286
 10
632.1047588780079
 20
74.91866257118792
 10
632.592682052543
 20
75.14943304608404
 10
633.0556362816078
 20
75.426917132336
 10
633.4891630629
 20
75.74844250650494
 10
633.889087296526
 20
76.11091270347399
 10
634.251557493495
 20
76.51083693709995
 10
634.573082867664
 20
76.94436371839218
 10
634.850566953916
 20
77.40731794745702
 10
635.081337428812
 20
77.895241121992
 10
635.2631718465271
 20
78.40343427510045
 10
635.3943190422177
 20
78.92700322891129
 10
635.4735159966971
 20
79.46090572818741
  0
LWPOLYLINE
  5
44
330
17
100
AcDbEntity
  8
CUT
100
AcDbPolyline
 90
64
 70
1
 10
635.5
 20
140.0
 10
635.4735159966971
 20
140.5390942718126
 10
635.3943190422177
 20
141.0729967710887
 10
635.2631718465271
 20
141.59656572489953
 10
635.081337428812
 20
142.104758878008
 10
634.850566953916
 20
142.59268205254298
 10
634.573082867664
 20
143.0556362816078
 10
634.251557493495
 20
143.48916306290005
 10
633.889087296526
 20
143.88908729652601
 10
633.4891630629
 20
144.25155749349506
 10
633.0556362816078
 20
144.573082867664
 10
632.592682052543
 20
144.85056695391594
 10
632.1047588780079
 20
145.08133742881208
 10
631.5965657248995
 20
145.26317184652714
 10
631.0729967710887
 20
145.39431904221777
 10
630.5390942718126
 20
145.47351599669707
 10
630.0
 20
145.5
 10
629.4609057281874
 20
145.47351599669707
 10
628.9270032289113
 20
145.39431904221777
 10
628.4034342751005
 20
145.26317184652714
 10
627.8952411219921
 20
145.08133742881208
 10
627.407317947457
 20
144.85056695391594
 10
626.9443637183922
 20
144.573082867664
 10
626.5108369371
 20
144.25155749349506
 10
626.110912703474
 20
143.88908729652601
 10
625.748442506505
 20
143.48916306290005
 10
625.426917132336
 20
143.0556362816078
 10
625.149433046084
 20
142.59268205254298
 10
624.918662571188
 20
142.104758878008
 10
624.7368281534729
 20
141.59656572489953
 10
624.6056809577823
 20
141.0729967710887
 10
624.5264840033029
 20
140.5390942718126
 10
624.5
 20
140.0
 10
624.5264840033029
 20
139.4609057281874
 10
624.6056809577823
 20
138.9270032289113
 10
624.7368281534729
 20
138.40343427510047
 10
624.918662571188
 20
137.895241121992
 10
625.149433046084
 20
137.40731794745702
 10
625.426917132336
 20
136.9443637183922
 10
625.748442506505
 20
136.51083693709995
 10
626.110912703474
 20
136.11091270347399
 10
626.5108369371
 20
135.74844250650494
 10
626.9443637183922
 20
135.426917132336
 10
627.407317947457
 20
135.14943304608406
 10
627.8952411219921
 20
134.91866257118792
 10
628.4034342751005
 20
134.73682815347286
 10
628.9270032289113
 20
134.60568095778223
 10
629.4609057281874
 20
134.52648400330293
 10
630.0
 20
134.5
 10
630.5390942718126
 20
134.52648400330293
 10
631.0729967710887
 20
134.60568095778223
 10
631.5965657248995
 20
134.73682815347286
 10
632.1047588780079
 20
134.91866257118792
 10
632.592682052543
 20
135.14943304608406
 10
633.0556362816078
 20
135.426917132336
 10
633.4891630629
 20
135.74844250650494
 10
633.889087296526
 20
136.11091270347399
 10
634.251557493495
 20
136.51083693709995
 10
634.573082867664
 20
136.9443637183922
 10
634.850566953916
 20
137.40731794745702
 10
635.081337428812
 20
137.895241121992
 10
635.2631718465271
 20
138.40343427510047
 10
635.3943190422177
 20
138.9270032289113
 10
635.4735159966971
 20
139.4609057281874
  0
TEXT
  5
45
330
17
100
AcDbEntity
  8
INFO
100
AcDbText
 10
50.0
 20
1180.0
 30
0.0
 40
18.0
  1
SHEET 4 2500x1250 / t4 / 09G2S
100
AcDbText
  0
ENDSEC
  0
SECTION
  2
OBJECTS
  0
DICTIONARY
  5
A
330
0
100
AcDbDictionary
281
1
  3
ACAD_COLOR
350
B
  3
ACAD_GROUP
350
C
  3
ACAD_LAYOUT
350
D
  3
ACAD_MATERIAL
350
E
  3
ACAD_MLEADERSTYLE
350
F
  3
ACAD_MLINESTYLE
350
10
  3
ACAD_PLOTSETTINGS
350
11
  3
ACAD_PLOTSTYLENAME
350
12
  3
ACAD_SCALELIST
350
14
  3
ACAD_TABLESTYLE
350
15
  3
ACAD_VISUALSTYLE
350
16
  3
EZDXF_META
350
2D
  0
DICTIONARY
  5
B
330
A
100
AcDbDictionary
281
1
  0
DICTIONARY
  5
C
330
A
100
AcDbDictionary
281
1
  0
DICTIONARY
  5
D
330
A
100
AcDbDictionary
281
1
  3
Model
350
1A
  3
Layout1
350
1E
  0
DICTIONARY
  5
E
330
A
100
AcDbDictionary
281
1
  3
ByBlock
350
1F
  3
ByLayer
350
20
  3
Global
350
21
  0
DICTIONARY
  5
F
330
A
100
AcDbDictionary
281
1
  3
Standard
350
2C
  0
DICTIONARY
  5
10
330
A
100
AcDbDictionary
281
1
  3
Standard
350
22
  0
DICTIONARY
  5
11
330
A
100
AcDbDictionary
281
1
  0
ACDBDICTIONARYWDFLT
  5
12
330
A
100
AcDbDictionary
281
1
  3
Normal
350
13
100
AcDbDictionaryWithDefault
340
13
  0
ACDBPLACEHOLDER
  5
13
330
12
  0
DICTIONARY
  5
14
330
A
100
AcDbDictionary
281
1
  0
DICTIONARY
  5
15
330
A
100
AcDbDictionary
281
1
  0
DICTIONARY
  5
16
330
A
100
AcDbDictionary
281
1
  0
LAYOUT
  5
1A
330
D
100
AcDbPlotSettings
  1

  4
A3
  6

 40
7.5
 41
20.0
 42
7.5
 43
20.0
 44
420.0
 45
297.0
 46
0.0
 47
0.0
 48
0.0
 49
0.0
140
0.0
141
0.0
142
1.0
143
1.0
 70
1024
 72
1
 73
0
 74
5
  7

 75
16
 76
0
 77
2
 78
300
147
1.0
148
0.0
149
0.0
100
AcDbLayout
  1
Model
 70
1
 71
0
 10
0.0
 20
0.0
 11
420.0
 21
297.0
 12
0.0
 22
0.0
 32
0.0
 14
1e+20
 24
1e+20
 34
1e+20
 15
-1e+20
 25
-1e+20
 35
-1e+20
146
0.0
 13
0.0
 23
0.0
 33
0.0
 16
1.0
 26
0.0
 36
0.0
 17
0.0
 27
1.0
 37
0.0
 76
1
330
17
  0
LAYOUT
  5
1E
330
D
100
AcDbPlotSettings
  1

  4
A3
  6

 40
7.5
 41
20.0
 42
7.5
 43
20.0
 44
420.0
 45
297.0
 46
0.0
 47
0.0
 48
0.0
 49
0.0
140
0.0
141
0.0
142
1.0
143
1.0
 70
0
 72
1
 73
0
 74
5
  7

 75
16
 76
0
 77
2
 78
300
147
1.0
148
0.0
149
0.0
100
AcDbLayout
  1
Layout1
 70
1
 71
1
 10
0.0
 20
0.0
 11
420.0
 21
297.0
 12
0.0
 22
0.0
 32
0.0
 14
1e+20
 24
1e+20
 34
1e+20
 15
-1e+20
 25
-1e+20
 35
-1e+20
146
0.0
 13
0.0
 23
0.0
 33
0.0
 16
1.0
 26
0.0
 36
0.0
 17
0.0
 27
1.0
 37
0.0
 76
1
330
1B
  0
MATERIAL
  5
1F
102
{ACAD_REACTORS
330
E
102
}
330
E
100
AcDbMaterial
  1
ByBlock
  2

 70
0
 40
1.0
 71
1
 41
1.0
 91
-1023410177
 42
1.0
 72
1
  3

 73
1
 74
1
 75
1
 44
0.5
 73
0
 45
1.0
 46
1.0
 77
1
  4

 78
1
 79
1
170
1
 48
1.0
171
1
  6

172
1
173
1
174
1
140
1.0
141
1.0
175
1
  7

176
1
177
1
178
1
143
1.0
179
1
  8

270
1
271
1
272
1
145
1.0
146
1.0
273
1
  9

274
1
275
1
276
1
 42
1.0
 72
1
  3

 73
1
 74
1
 75
1
 94
63
  0
MATERIAL
  5
20
102
{ACAD_REACTORS
330
E
102
}
330
E
100
AcDbMaterial
  1
ByLayer
  2

 70
0
 40
1.0
 71
1
 41
1.0
 91
-1023410177
 42
1.0
 72
1
  3

 73
1
 74
1
 75
1
 44
0.5
 73
0
 45
1.0
 46
1.0
 77
1
  4

 78
1
 79
1
170
1
 48
1.0
171
1
  6

172
1
173
1
174
1
140
1.0
141
1.0
175
1
  7

176
1
177
1
178
1
143
1.0
179
1
  8

270
1
271
1
272
1
145
1.0
146
1.0
273
1
  9

274
1
275
1
276
1
 42
1.0
 72
1
  3

 73
1
 74
1
 75
1
 94
63
  0
MATERIAL
  5
21
102
{ACAD_REACTORS
330
E
102
}
330
E
100
AcDbMaterial
  1
Global
  2

 70
0
 40
1.0
 71
1
 41
1.0
 91
-1023410177
 42
1.0
 72
1
  3

 73
1
 74
1
 75
1
 44
0.5
 73
0
 45
1.0
 46
1.0
 77
1
  4

 78
1
 79
1
170
1
 48
1.0
171
1
  6

172
1
173
1
174
1
140
1.0
141
1.0
175
1
  7

176
1
177
1
178
1
143
1.0
179
1
  8

270
1
271
1
272
1
145
1.0
146
1.0
273
1
  9

274
1
275
1
276
1
 42
1.0
 72
1
  3

 73
1
 74
1
 75
1
 94
63
  0
MLINESTYLE
  5
22
102
{ACAD_REACTORS
330
10
102
}
330
10
100
AcDbMlineStyle
  2
Standard
 70
0
  3

 62
256
 51
90.0
 52
90.0
 71
2
 49
0.5
 62
256
  6
BYLAYER
 49
-0.5
 62
256
  6
BYLAYER
  0
MLEADERSTYLE
  5
2C
102
{ACAD_REACTORS
330
F
102
}
330
F
100
AcDbMLeaderStyle
179
2
170
2
171
1
172
0
 90
2
 40
0.0
 41
0.0
173
1
 91
-1056964608
 92
-2
290
1
 42
2.0
291
1
 43
8.0
  3
Standard
 44
4.0
300

342
29
174
1
175
1
176
0
178
1
 93
-1056964608
 45
4.0
292
0
297
0
 46
4.0
 94
-1056964608
 47
1.0
 49
1.0
140
1.0
294
1
141
0.0
177
0
142
1.0
295
0
296
0
143
3.75
271
0
272
9
273
9
  0
DICTIONARY
  5
2D
330
A
100
AcDbDictionary
280
1
281
1
  3
CREATED_BY_EZDXF
350
2E
  3
WRITTEN_BY_EZDXF
350
48
  0
DICTIONARYVAR
  5
2E
330
2D
100
DictionaryVariables
280
0
  1
1.4.4 @ 2026-09-30T10:47:28.322800+00:00
  0
DICTIONARYVAR
  5
48
330
2D
100
DictionaryVariables
280
0
  1
1.4.4 @ 2026-09-30T10:47:28.327154+00:00
  0
ENDSEC
  0
EOF
